<svg width="260" height="260" viewBox="0 0 260 260" fill="none" xmlns="http://www.w3.org/2000/svg">
<g style="mix-blend-mode:soft-light">
<rect x="1.5" y="1.5" width="257" height="257" stroke="white" stroke-width="3"/>
</g>
<path d="M89.8613 186.283H92.7812C92.7227 187.24 92.459 188.09 91.9902 188.832C91.528 189.574 90.8802 190.154 90.0469 190.57C89.2201 190.987 88.224 191.195 87.0586 191.195C86.1471 191.195 85.3301 191.039 84.6074 190.727C83.8848 190.408 83.2663 189.952 82.752 189.359C82.2441 188.767 81.8568 188.051 81.5898 187.211C81.3229 186.371 81.1895 185.43 81.1895 184.389V183.402C81.1895 182.361 81.3262 181.42 81.5996 180.58C81.8796 179.734 82.2767 179.014 82.791 178.422C83.3118 177.829 83.9336 177.374 84.6562 177.055C85.3789 176.736 86.1862 176.576 87.0781 176.576C88.263 176.576 89.2624 176.791 90.0762 177.221C90.8965 177.65 91.5312 178.243 91.9805 178.998C92.4362 179.753 92.7096 180.613 92.8008 181.576H89.8711C89.8385 181.003 89.7246 180.518 89.5293 180.121C89.334 179.717 89.0378 179.415 88.6406 179.213C88.25 179.005 87.7292 178.9 87.0781 178.9C86.5898 178.9 86.1634 178.992 85.7988 179.174C85.4342 179.356 85.1283 179.633 84.8809 180.004C84.6335 180.375 84.4479 180.844 84.3242 181.41C84.207 181.97 84.1484 182.628 84.1484 183.383V184.389C84.1484 185.124 84.2038 185.772 84.3145 186.332C84.4251 186.885 84.5944 187.354 84.8223 187.738C85.0566 188.116 85.3561 188.402 85.7207 188.598C86.0918 188.786 86.5378 188.881 87.0586 188.881C87.6706 188.881 88.1751 188.783 88.5723 188.588C88.9694 188.393 89.2721 188.103 89.4805 187.719C89.6953 187.335 89.8223 186.856 89.8613 186.283ZM104.246 188.715V191H96.6777V188.715H104.246ZM97.6348 176.781V191H94.7051V176.781H97.6348ZM103.26 182.572V184.799H96.6777V182.572H103.26ZM104.236 176.781V179.076H96.6777V176.781H104.236ZM117.635 183.559V184.232C117.635 185.313 117.488 186.283 117.195 187.143C116.902 188.002 116.489 188.734 115.955 189.34C115.421 189.939 114.783 190.398 114.041 190.717C113.305 191.036 112.488 191.195 111.59 191.195C110.698 191.195 109.881 191.036 109.139 190.717C108.403 190.398 107.765 189.939 107.225 189.34C106.684 188.734 106.264 188.002 105.965 187.143C105.672 186.283 105.525 185.313 105.525 184.232V183.559C105.525 182.471 105.672 181.501 105.965 180.648C106.258 179.789 106.671 179.057 107.205 178.451C107.745 177.846 108.383 177.383 109.119 177.064C109.861 176.745 110.678 176.586 111.57 176.586C112.469 176.586 113.286 176.745 114.021 177.064C114.764 177.383 115.402 177.846 115.936 178.451C116.476 179.057 116.893 179.789 117.186 180.648C117.485 181.501 117.635 182.471 117.635 183.559ZM114.676 184.232V183.539C114.676 182.784 114.607 182.12 114.471 181.547C114.334 180.974 114.132 180.492 113.865 180.102C113.598 179.711 113.273 179.418 112.889 179.223C112.505 179.021 112.065 178.92 111.57 178.92C111.076 178.92 110.636 179.021 110.252 179.223C109.874 179.418 109.552 179.711 109.285 180.102C109.025 180.492 108.826 180.974 108.689 181.547C108.553 182.12 108.484 182.784 108.484 183.539V184.232C108.484 184.981 108.553 185.645 108.689 186.225C108.826 186.798 109.028 187.283 109.295 187.68C109.562 188.07 109.887 188.367 110.271 188.568C110.656 188.77 111.095 188.871 111.59 188.871C112.085 188.871 112.524 188.77 112.908 188.568C113.292 188.367 113.615 188.07 113.875 187.68C114.135 187.283 114.334 186.798 114.471 186.225C114.607 185.645 114.676 184.981 114.676 184.232ZM136.975 174.28V187.58H139.655V174.28H136.975ZM127.315 190.34V192.46H140.115V190.34H127.315ZM127.315 186.24V191.2H129.975V186.24H127.315ZM129.575 175.44C126.735 175.44 124.535 177.4 124.535 180.14C124.535 182.86 126.735 184.84 129.575 184.84C132.415 184.84 134.595 182.86 134.595 180.14C134.595 177.4 132.415 175.44 129.575 175.44ZM129.575 177.74C130.935 177.74 131.995 178.62 131.995 180.14C131.995 181.64 130.935 182.52 129.575 182.52C128.195 182.52 127.135 181.64 127.135 180.14C127.135 178.62 128.195 177.74 129.575 177.74ZM146.814 175.68V178.38C146.814 181.82 145.394 185.38 142.274 186.84L143.874 188.98C147.374 187.26 148.974 182.96 148.974 178.38V175.68H146.814ZM147.354 175.68V178.38C147.354 182.82 148.814 186.94 152.154 188.64L153.754 186.52C150.794 185.08 149.474 181.7 149.474 178.38V175.68H147.354ZM154.494 174.26V192.78H157.174V174.26H154.494ZM156.574 181.38V183.6H159.854V181.38H156.574ZM172.972 174.26V183.5H175.632V174.26H172.972ZM174.552 177.8V179.98H178.072V177.8H174.552ZM161.592 175.12V182.82H170.412V175.12H161.592ZM167.792 177.2V180.74H164.212V177.2H167.792ZM163.392 184.24V186.28H173.012V187.4H163.432V191.52H166.072V189.32H175.632V184.24H163.392ZM163.432 190.5V192.58H176.172V190.5H163.432Z" fill="white"/>
<path d="M79.9593 210.2V211.22H83.7393V210.2H79.9593ZM76.6893 206.78V209.195C76.6893 211.715 75.1593 214.325 73.1643 215.315L73.9593 216.305C76.1043 215.15 77.7093 212.24 77.7093 209.195V206.78H76.6893ZM76.9293 206.78V209.195C76.9293 212.165 78.5043 214.955 80.6943 216.065L81.4293 215.06C79.4643 214.13 77.9343 211.67 77.9343 209.195V206.78H76.9293ZM83.1243 205.595V219.185H84.3543V205.595H83.1243ZM92.4832 211.985V214.07H93.7132V211.985H92.4832ZM93.1132 205.775C90.1132 205.775 88.3432 206.6 88.3432 208.115C88.3432 209.63 90.1132 210.47 93.1132 210.47C96.0982 210.47 97.8832 209.63 97.8832 208.115C97.8832 206.6 96.0982 205.775 93.1132 205.775ZM93.1132 206.72C95.3182 206.72 96.5932 207.23 96.5932 208.115C96.5932 209.015 95.3182 209.525 93.1132 209.525C90.8932 209.525 89.6182 209.015 89.6182 208.115C89.6182 207.23 90.8932 206.72 93.1132 206.72ZM86.9782 211.34V212.36H99.2332V211.34H86.9782ZM88.4632 213.605V214.565H96.4432V215.765H88.4932V218.315H89.7232V216.665H97.6732V213.605H88.4632ZM88.4932 218.045V219.02H98.0782V218.045H88.4932ZM100.792 216.38V217.415H113.077V216.38H100.792ZM106.252 213.095V216.725H107.482V213.095H106.252ZM106.222 206.51V207.56C106.222 209.795 103.657 211.79 101.272 212.225L101.797 213.26C104.527 212.69 107.302 210.455 107.302 207.56V206.51H106.222ZM106.447 206.51V207.56C106.447 210.455 109.222 212.69 111.952 213.26L112.492 212.225C110.107 211.79 107.527 209.81 107.527 207.56V206.51H106.447ZM114.591 216.395V217.43H126.876V216.395H114.591ZM115.656 206.96V207.98H125.721V206.96H115.656ZM115.686 212.69V213.71H125.706V212.69H115.686ZM117.771 207.905V212.795H119.016V207.905H117.771ZM122.391 207.905V212.795H123.621V207.905H122.391ZM129.965 212.915V213.92H139.28V212.915H129.965ZM128.39 216.395V217.43H140.675V216.395H128.39ZM129.965 206.765V213.23H131.225V207.785H139.13V206.765H129.965ZM130.82 209.795V210.785H138.845V209.795H130.82ZM146.389 207.17V215.54H151.564V207.17H146.389ZM150.394 208.16V214.55H147.559V208.16H150.394ZM156.229 205.61V219.17H157.429V205.61H156.229ZM150.934 210.71V211.745H154.054V210.71H150.934ZM153.544 205.895V218.495H154.729V205.895H153.544ZM165.048 210.455V211.49H167.643V210.455H165.048ZM162.513 206.885V209.465C162.513 211.79 161.403 214.22 159.543 215.315L160.323 216.26C162.303 215.045 163.488 212.3 163.488 209.465V206.885H162.513ZM162.753 206.885V209.42C162.753 212.06 163.848 214.76 165.798 215.96L166.518 214.985C164.733 213.905 163.713 211.595 163.713 209.42V206.885H162.753ZM170.028 205.61V219.17H171.228V205.61H170.028ZM167.283 205.895V218.495H168.453V205.895H167.283ZM177.092 207.545V209.75C177.092 212.09 175.457 214.64 173.492 215.57L174.212 216.56C176.372 215.495 178.097 212.615 178.097 209.75V207.545H177.092ZM177.332 207.545V209.75C177.332 212.57 179.072 215.21 181.262 216.23L181.967 215.24C179.972 214.385 178.337 212.045 178.337 209.75V207.545H177.332ZM173.942 206.99V208.04H181.517V206.99H173.942ZM183.347 205.61V219.17H184.592V205.61H183.347Z" fill="white"/>
<path d="M182.85 139.095C181.448 134.008 180.029 128.923 178.633 123.836C178.49 123.316 178.324 122.743 178.407 122.232C178.992 118.62 179.652 115.021 180.26 111.415C180.881 107.744 179.862 105.965 176.352 104.51C176.147 104.424 175.939 104.35 175.731 104.275C173.352 103.402 170.887 103.275 168.386 103.399C168.003 103.417 167.43 103.31 167.246 103.049C164.986 99.8443 162.815 96.5744 160.543 93.3787C159.934 92.5233 159.753 91.6947 159.854 90.6968C160.026 89.0039 160.136 87.3021 160.249 85.6033C160.653 79.4703 161.021 73.3344 161.452 67.2044C161.781 62.4821 160.397 58.3598 157.193 54.885C153.703 51.1012 149.272 49.548 144.199 49.7113C143.076 49.7469 142.313 49.441 141.532 48.5857C135.969 42.5062 126.611 41.7904 120.193 46.9106C119.133 47.7571 118.334 49.0965 117.155 49.5747C115.964 50.0618 114.452 49.7648 113.08 49.8093C113.006 49.8123 112.931 49.8242 112.857 49.8331C104.761 50.5845 98.2122 57.8015 98.4379 65.8798C98.5419 69.5774 98.9102 73.2691 99.1596 76.9637C99.4863 81.8018 99.8249 86.6398 100.113 91.4838C100.14 91.9501 99.9526 92.5055 99.6853 92.8975C98.135 95.1577 96.552 97.397 94.9423 99.6156C93.3029 101.873 91.61 104.097 91.8951 107.231C90.3923 107.231 89.0291 107.225 87.6689 107.234C86.3086 107.242 85.7918 107.629 85.4414 108.92C82.6674 119.188 79.9054 129.458 77.1136 139.719C76.8522 140.684 77.0453 141.433 77.6571 142.178C79.2549 144.126 80.8765 146.06 82.3764 148.082C83.1753 149.161 84.099 149.496 85.4028 149.493C97.5796 149.455 109.756 149.469 121.933 149.469C139.53 149.469 157.127 149.46 174.724 149.49C175.96 149.493 176.809 149.122 177.552 148.13C178.971 146.232 180.45 144.373 182.004 142.579C182.913 141.519 183.213 140.405 182.85 139.095ZM175.764 108.068C177.421 108.837 177.433 109.556 175.892 110.536C174.077 111.691 172.028 111.944 169.916 111.938C167.902 111.965 165.918 111.718 164.151 110.667C163.59 110.334 163.216 109.69 162.755 109.188C163.251 108.766 163.679 108.184 164.252 107.949C168.092 106.366 171.965 106.307 175.764 108.068ZM176.171 114.379C175.96 115.799 175.776 117.052 175.586 118.306C175.452 119.179 175.241 120.049 175.179 120.928C175.099 122.069 174.475 122.746 173.516 123.212C171.814 124.041 170.005 124.13 168.202 123.788C165.678 123.31 165.09 122.6 164.695 120.016C164.422 118.231 164.119 116.452 163.834 114.67C163.825 114.605 163.869 114.531 163.917 114.353C167.953 115.698 171.956 115.707 176.171 114.379ZM163.519 103.518C163.664 103.726 163.777 103.958 163.94 104.243C163.349 104.546 162.788 104.81 162.248 105.113C159.726 106.539 158.755 108.226 159.494 110.961C160.047 113.004 159.494 114.246 157.914 115.454C156.331 116.666 154.927 118.115 153.436 119.449C152.165 120.586 150.778 120.64 149.789 119.612C148.797 118.582 148.918 117.23 150.154 115.992C152.325 113.812 154.517 111.653 156.691 109.479C157.9 108.27 157.944 107.661 156.893 106.322C153.596 102.128 150.288 97.9465 146.994 93.7529C146.453 93.0668 145.83 92.5619 144.912 92.856C143.92 93.1708 143.599 93.9459 143.605 94.9349C143.617 98.5999 143.611 102.265 143.611 105.933C143.611 106.331 143.611 106.729 143.611 107.195C141.294 107.195 139.088 107.195 136.742 107.195C137.107 105.101 137.454 103.049 137.829 100.997C138.913 95.0775 140.026 89.1613 141.072 83.2362C141.205 82.4819 141.455 82.2799 142.191 82.271C144.591 82.2324 146.97 82.274 148.978 83.8184C149.732 84.3975 150.451 85.0836 151 85.8528C155.197 91.7244 159.352 97.6257 163.519 103.518ZM153.195 107.168C151.098 107.168 149.198 107.168 147.205 107.168C147.205 104.742 147.205 102.297 147.205 99.6126C149.242 102.185 151.164 104.608 153.195 107.168ZM127.751 88.0149C127.974 88.3119 128.043 88.8495 127.962 89.2296C127.229 92.657 126.445 96.0724 125.417 99.5206C124.389 93.8301 123.359 88.1367 122.331 82.4462C122.429 82.3512 122.524 82.2562 122.622 82.1581C122.991 82.3839 123.457 82.5353 123.715 82.8502C125.093 84.543 126.448 86.2626 127.751 88.0149ZM127.74 82.3334C129.287 82.3334 130.656 82.3334 132.227 82.3334C131.452 83.3283 130.766 84.2045 129.973 85.2172C129.174 84.1866 128.509 83.3253 127.74 82.3334ZM129.842 96.7199C129.928 96.7139 130.018 96.708 130.104 96.7021C130.87 100.156 131.633 103.61 132.429 107.192C130.757 107.192 129.21 107.192 127.558 107.192C128.328 103.655 129.085 100.189 129.842 96.7199ZM134.199 85.4073C134.998 84.6529 135.554 83.6461 136.284 82.8115C136.551 82.5086 137.003 82.366 137.371 82.1492C137.466 82.2472 137.561 82.3482 137.653 82.4462C136.62 88.1248 135.583 93.8034 134.55 99.4819C134.464 99.4849 134.377 99.4849 134.291 99.4879C133.745 97.0347 133.388 94.5162 132.598 92.1432C131.707 89.4583 132.162 87.3348 134.199 85.4073ZM129.952 47.0621C136.789 47.0354 142.343 52.5595 142.346 59.3845C142.349 66.1798 136.911 71.6385 130.077 71.7039C123.225 71.7692 117.698 66.3164 117.654 59.4468C117.606 52.5981 123.08 47.0888 129.952 47.0621ZM114.696 53.1743C114.877 53.1773 115.058 53.207 115.248 53.2277C112.768 61.2288 114.491 67.9261 121.574 72.7018C126.914 76.3014 133.941 76.0994 139.118 72.2355C145.628 67.3737 147.13 60.8724 144.689 53.1951C148.164 53.0822 151.208 54.089 153.771 56.3789C157.175 59.4231 158.354 63.3048 158.004 67.7835C157.594 73.0225 157.291 78.2705 156.937 83.5154C156.851 84.8074 156.753 86.0993 156.634 87.7357C155.726 86.4646 154.953 85.4429 154.244 84.3797C151.639 80.4772 147.989 78.7219 143.311 78.7546C134.369 78.8169 125.423 78.7962 116.48 78.7635C111.987 78.7457 108.441 80.4564 105.898 84.1926C105.153 85.2885 104.36 86.3517 103.389 87.712C103.255 86.0963 103.133 84.7777 103.041 83.4531C102.667 77.9883 102.317 72.5206 101.931 67.0589C101.396 59.4647 107.3 53.0317 114.696 53.1743ZM96.1837 103.958C100.493 97.7534 104.847 91.5818 109.266 85.4578C110.861 83.2452 113.202 82.2948 115.928 82.2888C118.684 82.2829 118.726 82.268 119.21 84.8875C120.579 92.2917 121.91 99.7047 123.267 107.18C120.968 107.18 118.723 107.18 116.356 107.18C116.356 106.729 116.356 106.334 116.356 105.939C116.356 102.274 116.35 98.6058 116.359 94.9409C116.362 93.9727 116.115 93.1381 115.108 92.8263C114.167 92.5352 113.502 93.0163 112.925 93.7529C109.685 97.896 106.418 102.018 103.166 106.152C101.972 107.67 102.014 108.193 103.398 109.553C105.563 111.686 107.737 113.809 109.899 115.947C111.09 117.126 111.2 118.558 110.208 119.577C109.204 120.607 107.93 120.586 106.659 119.452C103.448 116.592 100.235 113.735 97.0628 110.833C95.0819 109.021 94.6631 106.15 96.1837 103.958ZM112.78 99.574C112.78 102.265 112.78 104.682 112.78 107.168C110.835 107.168 108.922 107.168 106.792 107.168C108.788 104.638 110.707 102.205 112.78 99.574ZM174.888 145.739C174.659 145.986 174.059 145.938 173.628 145.938C152.993 145.947 132.358 145.947 111.726 145.947C103.264 145.947 94.8027 145.938 86.3413 145.962C85.5305 145.965 84.9513 145.793 84.4732 145.089C83.8554 144.186 83.1189 143.366 82.3259 142.377C114.158 142.377 145.794 142.377 177.665 142.377C176.693 143.574 175.847 144.709 174.888 145.739ZM80.9716 138.873C83.5139 129.482 86.0473 120.126 88.5895 110.744C88.943 110.744 89.2014 110.768 89.4568 110.741C91.4377 110.536 92.8336 110.982 94.28 112.761C96.451 115.434 99.3289 117.539 101.91 119.88C102.842 120.726 103.766 121.587 104.734 122.395C107.184 124.433 110.665 124.237 112.771 121.973C114.915 119.669 114.915 116.259 112.726 113.931C111.767 112.912 110.737 111.962 109.578 110.827C123.252 110.827 136.688 110.827 150.359 110.827C149.304 111.867 148.36 112.775 147.442 113.708C145.773 115.407 145.141 117.423 145.883 119.71C146.62 121.976 148.235 123.334 150.611 123.729C152.372 124.023 153.923 123.512 155.256 122.383C156.557 121.281 157.802 120.111 159.07 118.974C159.506 118.582 159.949 118.199 160.546 117.676C160.831 119.11 161.172 120.349 161.309 121.611C161.562 123.937 162.934 125.383 164.903 126.324C167.965 127.792 171.116 127.842 174.285 126.633C174.698 126.476 175.093 126.277 175.606 126.048C176.738 130.325 177.858 134.554 179.001 138.876C146.296 138.873 113.692 138.873 80.9716 138.873Z" fill="white"/>
<path d="M149.417 126.069C147.713 125.461 146.002 124.858 144.273 124.32C143.495 124.077 143.073 123.691 142.848 122.871C142.183 120.453 141.413 118.062 140.68 115.663C140.258 114.279 139.774 113.902 138.387 113.902C132.747 113.896 127.11 113.907 121.47 113.893C120.297 113.89 119.62 114.395 119.284 115.517C117.588 121.211 115.857 126.895 114.152 132.586C113.671 134.192 114.416 135.169 116.112 135.184C117.707 135.199 119.302 135.187 120.897 135.187C128.464 135.187 136.032 135.19 143.602 135.187C145.562 135.187 146.272 134.228 145.717 132.345C145.31 130.973 144.888 129.607 144.41 128.027C145.85 128.52 147.068 128.95 148.298 129.354C149.557 129.77 150.567 129.39 150.882 128.407C151.211 127.358 150.715 126.533 149.417 126.069ZM118.126 131.641C118.185 131.32 118.212 131.041 118.289 130.78C119.525 126.64 120.781 122.508 121.996 118.362C122.204 117.653 122.501 117.382 123.291 117.391C127.743 117.439 132.197 117.43 136.652 117.397C137.377 117.391 137.686 117.608 137.864 118.324C138.203 119.681 138.666 121.009 139.132 122.535C137.87 122.119 136.739 121.742 135.607 121.371C134.25 120.928 133.249 121.279 132.928 122.306C132.61 123.331 133.139 124.151 134.44 124.602C136.153 125.196 137.885 125.734 139.575 126.384C139.979 126.539 140.398 126.987 140.546 127.394C141.039 128.736 141.41 130.126 141.874 131.638C133.867 131.641 126.047 131.641 118.126 131.641Z" fill="white"/>
</svg>
