<svg width="260" height="260" viewBox="0 0 260 260" fill="none" xmlns="http://www.w3.org/2000/svg">
<g style="mix-blend-mode:soft-light">
<rect x="1.5" y="1.5" width="257" height="257" stroke="white" stroke-width="3"/>
</g>
<path d="M121.282 176.84V178.96H126.722V176.84H121.282ZM121.282 181.34V183.46H126.722V181.34H121.282ZM125.742 174.28V187.82H128.402V174.28H125.742ZM116.182 190.34V192.46H128.822V190.34H116.182ZM116.182 186.48V191.44H118.842V186.48H116.182ZM118.022 175.36C115.262 175.36 113.122 177.36 113.122 180.16C113.122 182.92 115.262 184.94 118.022 184.94C120.762 184.94 122.902 182.92 122.902 180.16C122.902 177.36 120.762 175.36 118.022 175.36ZM118.022 177.7C119.362 177.7 120.382 178.62 120.382 180.16C120.382 181.7 119.362 182.62 118.022 182.62C116.662 182.62 115.662 181.7 115.662 180.16C115.662 178.62 116.662 177.7 118.022 177.7ZM131.36 175.84V177.92H141.52V175.84H131.36ZM136.56 178.56C134.08 178.56 132.22 180.04 132.22 182.1C132.22 184.16 134.08 185.64 136.56 185.64C139.04 185.64 140.9 184.16 140.9 182.1C140.9 180.04 139.04 178.56 136.56 178.56ZM136.56 180.56C137.64 180.56 138.44 181.12 138.44 182.1C138.44 183.08 137.64 183.64 136.56 183.64C135.48 183.64 134.7 183.08 134.7 182.1C134.7 181.12 135.48 180.56 136.56 180.56ZM135.24 174.1V177.32H137.9V174.1H135.24ZM144.14 174.26V186.04H146.8V174.26H144.14ZM141.76 178.4V180.5H145.14V178.4H141.76ZM141.7 181.96V184.08H145.1V181.96H141.7ZM134.18 186.88V188.98H144.14V192.78H146.8V186.88H134.18Z" fill="white"/>
<path d="M87.8588 210.2V211.22H91.6388V210.2H87.8588ZM84.5888 206.78V209.195C84.5888 211.715 83.0588 214.325 81.0638 215.315L81.8588 216.305C84.0038 215.15 85.6088 212.24 85.6088 209.195V206.78H84.5888ZM84.8288 206.78V209.195C84.8288 212.165 86.4038 214.955 88.5938 216.065L89.3288 215.06C87.3638 214.13 85.8338 211.67 85.8338 209.195V206.78H84.8288ZM91.0238 205.595V219.185H92.2538V205.595H91.0238ZM100.383 211.985V214.07H101.613V211.985H100.383ZM101.013 205.775C98.0126 205.775 96.2426 206.6 96.2426 208.115C96.2426 209.63 98.0126 210.47 101.013 210.47C103.998 210.47 105.783 209.63 105.783 208.115C105.783 206.6 103.998 205.775 101.013 205.775ZM101.013 206.72C103.218 206.72 104.493 207.23 104.493 208.115C104.493 209.015 103.218 209.525 101.013 209.525C98.7926 209.525 97.5176 209.015 97.5176 208.115C97.5176 207.23 98.7926 206.72 101.013 206.72ZM94.8776 211.34V212.36H107.133V211.34H94.8776ZM96.3626 213.605V214.565H104.343V215.765H96.3926V218.315H97.6226V216.665H105.573V213.605H96.3626ZM96.3926 218.045V219.02H105.978V218.045H96.3926ZM108.691 216.38V217.415H120.976V216.38H108.691ZM114.151 213.095V216.725H115.381V213.095H114.151ZM114.121 206.51V207.56C114.121 209.795 111.556 211.79 109.171 212.225L109.696 213.26C112.426 212.69 115.201 210.455 115.201 207.56V206.51H114.121ZM114.346 206.51V207.56C114.346 210.455 117.121 212.69 119.851 213.26L120.391 212.225C118.006 211.79 115.426 209.81 115.426 207.56V206.51H114.346ZM122.49 216.395V217.43H134.775V216.395H122.49ZM123.555 206.96V207.98H133.62V206.96H123.555ZM123.585 212.69V213.71H133.605V212.69H123.585ZM125.67 207.905V212.795H126.915V207.905H125.67ZM130.29 207.905V212.795H131.52V207.905H130.29ZM137.864 212.915V213.92H147.179V212.915H137.864ZM136.289 216.395V217.43H148.574V216.395H136.289ZM137.864 206.765V213.23H139.124V207.785H147.029V206.765H137.864ZM138.719 209.795V210.785H146.744V209.795H138.719ZM160.079 207.725V208.745H164.159V207.725H160.079ZM160.079 210.98V212H164.159V210.98H160.079ZM163.709 205.625V215.645H164.954V205.625H163.709ZM156.299 217.85V218.87H165.329V217.85H156.299ZM156.299 214.61V218.3H157.544V214.61H156.299ZM157.499 206.48C155.504 206.48 154.004 207.875 154.004 209.87C154.004 211.865 155.504 213.26 157.499 213.26C159.494 213.26 160.994 211.865 160.994 209.87C160.994 207.875 159.494 206.48 157.499 206.48ZM157.499 207.575C158.819 207.575 159.809 208.535 159.809 209.87C159.809 211.22 158.819 212.18 157.499 212.18C156.179 212.18 155.204 211.22 155.204 209.87C155.204 208.535 156.179 207.575 157.499 207.575ZM167.622 207.005V208.01H175.212V207.005H167.622ZM171.462 208.745C169.662 208.745 168.387 209.765 168.387 211.28C168.387 212.795 169.662 213.815 171.462 213.815C173.247 213.815 174.522 212.795 174.522 211.28C174.522 209.765 173.247 208.745 171.462 208.745ZM171.462 209.72C172.587 209.72 173.367 210.335 173.367 211.28C173.367 212.225 172.587 212.855 171.462 212.855C170.337 212.855 169.557 212.225 169.557 211.28C169.557 210.335 170.337 209.72 171.462 209.72ZM170.847 205.49V207.665H172.092V205.49H170.847ZM177.507 205.61V214.22H178.752V205.61H177.507ZM175.227 208.94V209.945H177.987V208.94H175.227ZM175.197 211.475V212.495H177.972V211.475H175.197ZM169.707 215V216.005H177.507V219.17H178.752V215H169.707Z" fill="white"/>
<path d="M180.674 138.037C181.024 137.474 181.115 136.44 180.835 135.87C180.582 135.361 179.668 134.97 179.019 134.922C177.253 134.795 175.472 134.82 173.704 134.903C172.881 134.941 172.496 134.607 172.197 133.92C170.545 130.144 170.75 126.508 172.991 123.034C173.493 122.255 173.839 121.507 173.373 120.604C172.9 119.684 172.077 119.586 171.16 119.589C164.776 119.605 158.389 119.598 152.005 119.598C151.58 119.598 151.151 119.598 150.751 119.598C149.606 114.788 145.486 111.658 140.732 111.944C139.099 112.043 137.454 111.96 135.745 111.96C135.745 110.611 135.786 109.422 135.729 108.238C135.695 107.513 136.01 107.3 136.647 107.16C140.168 106.396 143.532 105.156 146.615 103.291C149.036 101.825 151.318 100.126 153.985 98.3096C154.918 99.3753 156.003 100.61 156.901 101.634C157.9 100.727 158.796 99.9161 159.827 98.9808C158.629 97.8578 157.453 96.7539 156.277 95.6501C157.251 94.3935 158.14 93.2514 159.073 92.0489C157.964 91.2536 156.983 90.5506 155.99 89.838C155.145 90.8687 154.382 91.804 153.654 92.6883C152.699 91.7753 151.829 90.9418 150.965 90.1147C161.828 77.2849 160.4 59.3842 149.745 48.4598C139.115 37.5674 121.114 35.7541 108.246 46.882C107.367 46.0326 106.49 45.1896 105.557 44.2893C106.541 43.4717 107.477 42.6955 108.47 41.8747C107.745 40.8472 107.045 39.8547 106.273 38.7603C105.062 39.7242 103.927 40.6245 102.632 41.652C101.525 40.4336 100.438 39.2375 99.3089 38C98.3821 38.9798 97.5467 39.8642 96.6199 40.844C97.7453 41.9352 98.9243 43.0804 100.091 44.2161C79.6313 67.3976 93.0135 104.284 124.33 108.015C124.33 109.297 124.33 110.586 124.33 111.97C122.218 111.97 120.175 111.932 118.135 111.979C113.974 112.075 110.198 115.526 109.419 119.611C101.557 119.605 89.593 119.592 83.5025 119.652C82.8815 119.659 82.0713 120.168 81.6772 120.693C78.0929 125.493 78.1276 132.851 81.6615 137.661C82.2005 138.393 82.8468 138.749 83.7705 138.711C85.0188 138.66 86.2704 138.698 87.607 138.698C87.4557 139.239 87.3422 139.656 87.2192 140.066C85.9015 144.479 86.5352 148.608 88.931 152.508C89.5741 153.558 90.378 154.003 91.6421 154C103.584 153.959 115.525 153.975 127.467 153.975C144.572 153.975 161.677 153.971 178.782 153.984C179.659 153.984 180.589 153.908 180.86 153.007C181.058 152.346 181.021 151.382 180.671 150.819C178.013 146.524 178.01 142.325 180.674 138.037ZM166.945 123.416C167.377 123.416 167.809 123.416 168.31 123.416C167.979 124.691 167.664 125.897 167.329 127.179C156.343 127.179 145.291 127.179 134.09 127.179C134.162 126.871 134.213 126.641 134.27 126.419C135.029 123.416 135.029 123.416 138.002 123.416C147.649 123.416 157.298 123.416 166.945 123.416ZM168.323 134.881C167.878 134.881 167.468 134.881 167.055 134.881C157.052 134.881 147.053 134.852 137.05 134.916C135.761 134.925 135.077 134.531 134.743 133.335C134.541 132.619 134.289 131.919 134.017 131.089C145.262 131.089 156.28 131.089 167.314 131.089C167.642 132.323 167.963 133.532 168.323 134.881ZM139.522 47.4609C139.585 46.9965 139.531 46.5129 139.531 45.9244C148.721 50.0091 156.163 61.1179 154.345 73.7283C151.942 73.7092 149.597 74.1227 147.346 72.3603C145.839 71.1801 144.881 70.1844 145.187 68.1802C145.666 65.0499 144.871 62.2313 142.898 59.75C140.029 56.1489 138.904 52.0514 139.522 47.4609ZM118.76 45.3582C118.766 45.1418 119.185 44.8428 119.469 44.7442C124.551 42.9627 129.695 42.74 134.916 44.1048C135.603 44.2861 135.773 44.5883 135.767 45.25C135.739 48.1131 135.701 50.9794 135.786 53.8425C135.811 54.7078 136.06 55.6462 136.48 56.4002C137.92 58.9992 139.5 61.5188 140.981 64.0955C141.24 64.5473 141.397 65.1231 141.413 65.6448C141.464 67.6331 141.347 69.6277 141.482 71.6096C141.53 72.2935 141.968 73.1525 142.504 73.5628C144.159 74.8385 145.927 75.9678 147.696 77.0845C148.163 77.3803 148.784 77.5298 149.342 77.5585C150.675 77.6253 152.018 77.5807 153.367 77.5807C151.034 87.697 140.051 97.616 126.404 96.5981C110.002 95.3701 99.8511 80.447 102.023 66.1697C103.309 66.1697 104.523 66.1697 105.872 66.1697C106.307 67.9353 106.746 69.7263 107.19 71.5173C107.666 73.442 108.076 73.7601 110.043 73.7633C111.616 73.7633 113.192 73.7633 114.945 73.7633C114.945 75.462 114.869 77.1163 114.977 78.7641C115.03 79.5881 115.409 80.3961 115.661 81.2041C115.717 81.3855 115.856 81.5509 115.985 81.7004C118.236 84.2708 119.191 87.2103 118.763 90.6619C118.577 92.1507 119.396 92.8506 120.875 92.8601C123.201 92.8728 125.528 92.9365 127.848 92.8188C128.542 92.7838 129.415 92.4084 129.85 91.8835C132.306 88.9313 134.651 85.8805 137.044 82.8743C137.608 82.168 137.86 81.43 137.45 80.5679C137.038 79.6962 136.3 79.464 135.398 79.4895C134.301 79.5245 133.204 79.499 131.962 79.499C131.962 77.0845 131.965 74.7494 131.962 72.4176C131.959 70.5311 131.379 69.9522 129.484 69.949C125.944 69.9458 122.404 69.949 118.838 69.949C118.466 67.9989 118.927 66.4337 119.932 64.7604C121.096 62.8262 122.388 61.9164 124.636 62.2727C125.752 62.4509 126.918 62.3268 128.059 62.2982C129.664 62.26 130.534 60.9779 129.85 59.5209C128.658 56.9728 127.438 54.431 126.076 51.9751C125.771 51.4216 124.863 50.9603 124.194 50.903C122.435 50.7535 120.657 50.8521 118.725 50.8521C118.725 48.9816 118.703 47.1683 118.76 45.3582ZM128.185 80.3675C128.185 82.8775 128.564 83.2687 131.023 83.3101C131.18 83.3133 131.335 83.3292 131.748 83.3546C130.833 84.5062 129.878 85.4574 129.226 86.5836C128.059 88.6005 126.467 89.4562 124.185 89.0554C123.693 88.9695 123.173 89.0427 122.505 89.0427C122.505 87.8752 122.574 86.7745 122.479 85.6833C122.42 85.0057 122.177 84.3185 121.887 83.6982C121.606 83.0938 121.237 82.4957 120.787 82.009C118.618 79.6803 118.369 76.8936 118.857 73.8014C121.925 73.8014 124.983 73.8014 128.185 73.8014C128.185 76.0219 128.185 78.1947 128.185 80.3675ZM114.942 46.8152C114.942 48.673 114.942 50.2891 114.942 51.9083C114.942 54.1956 115.415 54.6632 117.726 54.6632C119.302 54.6632 120.881 54.6219 122.454 54.695C122.82 54.7109 123.305 55.0291 123.501 55.3504C124.062 56.292 124.507 57.3068 125.093 58.4902C123.586 58.4902 122.268 58.5284 120.954 58.4775C119.976 58.4393 119.289 58.8243 118.801 59.6482C118.621 59.9536 118.413 60.2463 118.217 60.5453C116.373 63.3639 113.883 65.9438 115.141 69.8758C113.53 69.8758 112.209 69.8758 110.759 69.8758C110.327 68.1198 109.892 66.3256 109.444 64.5314C108.968 62.6226 108.558 62.3077 106.575 62.3045C105.393 62.3045 104.214 62.3045 102.837 62.3045C104.933 55.5826 108.899 50.5404 114.942 46.8152ZM103.454 93.5218C90.3559 79.5372 92.0078 58.7479 102.849 47.1715C103.64 48.0495 104.432 48.9243 105.295 49.885C99.7912 56.4511 97.2125 64.1942 98.0479 72.9616C98.7825 80.6665 102.055 87.1721 107.666 92.4466C118.17 102.321 135.546 103.886 148.112 93.0255C148.995 93.8717 149.871 94.7116 150.751 95.5546C138.113 107.284 116.748 107.72 103.454 93.5218ZM131.896 107.996C131.896 109.262 131.896 110.516 131.896 111.868C130.742 111.868 129.55 111.868 128.267 111.868C128.267 110.71 128.267 109.507 128.267 108.197C129.431 108.13 130.625 108.066 131.896 107.996ZM119.106 115.781C123.756 115.762 128.406 115.774 133.056 115.774C135.773 115.774 138.494 115.749 141.211 115.784C143.825 115.819 145.82 117.206 146.605 119.519C135.581 119.519 124.588 119.519 113.586 119.519C114.141 117.292 116.329 115.794 119.106 115.781ZM95.3778 124.214C95.567 123.836 96.1785 123.476 96.6136 123.451C98.1835 123.358 99.766 123.416 101.342 123.416C102.496 123.416 109.482 123.416 112.417 123.416C114.207 123.419 115.982 123.416 117.647 123.416C117.366 125.398 116.893 127.268 116.896 129.139C116.9 131.035 117.376 132.931 117.65 134.878C110.601 134.878 103.47 134.887 96.3393 134.849C96.0209 134.846 95.567 134.477 95.4062 134.159C93.748 130.86 93.7259 127.516 95.3778 124.214ZM84.9463 134.849C84.65 134.843 84.237 134.515 84.092 134.229C82.3708 130.857 82.3708 127.456 84.0794 124.081C84.2276 123.788 84.6342 123.451 84.9274 123.444C87.0459 123.39 89.1675 123.416 91.4341 123.416C89.9997 127.259 89.9493 131.022 91.4625 134.878C89.1801 134.878 87.0616 134.903 84.9463 134.849ZM99.0094 150.154C96.7176 150.154 94.5645 150.17 92.4113 150.132C92.1749 150.128 91.8471 149.858 91.7241 149.626C89.9209 146.184 89.9114 142.719 91.702 139.274C91.8439 139.001 92.2852 138.727 92.5942 138.721C94.6748 138.673 96.7586 138.695 99.0252 138.695C97.5278 142.595 97.5688 146.321 99.0094 150.154ZM125.386 150.093C125.036 150.116 124.702 150.154 124.371 150.154C117.716 150.157 111.061 150.138 104.406 150.179C103.565 150.186 103.145 149.906 102.805 149.155C101.336 145.913 101.361 142.7 102.925 139.522C103.104 139.153 103.647 138.733 104.025 138.73C111.112 138.682 118.195 138.695 125.389 138.695C123.8 144.603 124.286 145.913 125.386 150.093ZM125.935 134.881C125.424 134.881 124.91 134.881 124.399 134.881C121.975 134.881 121.972 134.881 121.212 132.562C120.276 129.708 120.515 126.931 121.83 124.252C121.997 123.912 122.394 123.46 122.697 123.454C125.477 123.393 128.258 123.419 131.18 123.419C129.733 127.262 129.702 130.984 131.196 134.881C129.342 134.881 127.637 134.881 125.935 134.881ZM134.459 150.157C133.16 150.157 131.858 150.205 130.562 150.125C130.184 150.103 129.658 149.804 129.491 149.476C127.772 146.107 127.779 142.703 129.497 139.331C129.636 139.061 129.985 138.727 130.241 138.724C133.024 138.679 135.808 138.695 138.734 138.695C137.296 142.522 137.249 146.247 138.756 150.157C137.233 150.157 135.846 150.157 134.459 150.157ZM142.866 139.153C142.974 138.918 143.418 138.714 143.705 138.714C154.414 138.692 165.123 138.695 175.882 138.695C175.545 139.977 175.226 141.189 174.889 142.468C163.887 142.468 152.834 142.468 141.523 142.468C141.99 141.291 142.381 140.2 142.866 139.153ZM174.627 150.157C164.666 150.157 154.704 150.113 144.742 150.205C143.257 150.217 142.595 149.661 142.214 148.401C142.022 147.762 141.836 147.122 141.615 146.365C152.831 146.365 163.849 146.365 174.886 146.365C175.214 147.599 175.535 148.808 175.895 150.157C175.447 150.157 175.037 150.157 174.627 150.157Z" fill="white"/>
</svg>
