<svg width="500" height="500" viewBox="0 0 500 500" fill="none" xmlns="http://www.w3.org/2000/svg">
<rect width="500" height="500" fill="white"/>
<path d="M59.9267 187.262V199.014H60.9667V187.262H59.9267ZM55.6497 191.474V192.371H57.8987V191.474H55.6497ZM57.5737 187.535V198.416H58.5877V187.535H57.5737ZM53.3877 189.082V190.577C53.3877 192.735 52.4777 194.88 50.8397 195.868L51.5027 196.674C53.2317 195.582 54.2197 193.151 54.2197 190.577V189.082H53.3877ZM53.6087 189.082V190.577C53.6087 193.034 54.5577 195.348 56.2737 196.388L56.9367 195.595C55.3247 194.659 54.4407 192.618 54.4407 190.577V189.082H53.6087ZM51.1647 188.627V189.524H56.5337V188.627H51.1647ZM62.9547 196.609V197.506H73.6017V196.609H62.9547ZM67.7387 193.762V196.908H68.8047V193.762H67.7387ZM67.7127 188.744V189.472C67.7127 191.331 65.4897 192.982 63.4617 193.32L63.9037 194.178C66.2177 193.697 68.6227 191.877 68.6227 189.472V188.744H67.7127ZM67.9077 188.744V189.472C67.9077 191.877 70.3257 193.671 72.6787 194.139L73.1077 193.281C71.0537 192.943 68.8177 191.331 68.8177 189.472V188.744H67.9077ZM63.8257 188.328V189.212H72.7047V188.328H63.8257ZM83.4937 187.275V196.232H84.5727V187.275H83.4937ZM81.5047 190.382V191.266H83.9487V190.382H81.5047ZM81.5047 192.865V193.736H83.9487V192.865H81.5047ZM74.9267 188.692V189.563H81.5047V188.692H74.9267ZM78.2547 190.213C76.6817 190.213 75.5897 191.11 75.5897 192.462C75.5897 193.801 76.6817 194.711 78.2547 194.711C79.8147 194.711 80.9067 193.801 80.9067 192.462C80.9067 191.11 79.8147 190.213 78.2547 190.213ZM78.2547 191.058C79.2297 191.058 79.8927 191.63 79.8927 192.462C79.8927 193.294 79.2297 193.853 78.2547 193.853C77.2797 193.853 76.6167 193.294 76.6167 192.462C76.6167 191.63 77.2797 191.058 78.2547 191.058ZM77.7217 187.249V189.251H78.8007V187.249H77.7217ZM77.0197 197.87V198.754H84.8587V197.87H77.0197ZM77.0197 195.465V198.299H78.0987V195.465H77.0197ZM89.7587 188.523V189.472C89.7587 191.149 88.5887 192.67 86.8207 193.294L87.3667 194.152C89.3427 193.437 90.6427 191.63 90.6427 189.472V188.523H89.7587ZM89.9537 188.523V189.459C89.9537 191.461 91.2017 193.138 93.1647 193.788L93.6847 192.943C91.9557 192.371 90.8377 190.993 90.8377 189.459V188.523H89.9537ZM87.1457 188.133V189.017H93.4247V188.133H87.1457ZM94.9067 187.262V194.347H95.9857V187.262H94.9067ZM95.6867 190.239V191.149H97.7277V190.239H95.6867ZM92.2417 194.659C89.8497 194.659 88.3807 195.452 88.3807 196.817C88.3807 198.195 89.8497 198.988 92.2417 198.988C94.6337 198.988 96.1027 198.195 96.1027 196.817C96.1027 195.452 94.6337 194.659 92.2417 194.659ZM92.2417 195.53C93.9837 195.53 95.0497 195.998 95.0497 196.817C95.0497 197.649 93.9837 198.143 92.2417 198.143C90.4997 198.143 89.4337 197.649 89.4337 196.817C89.4337 195.998 90.4997 195.53 92.2417 195.53ZM102.641 188.107C100.808 188.107 99.4816 189.238 99.4816 190.876C99.4816 192.527 100.808 193.658 102.641 193.658C104.474 193.658 105.787 192.527 105.787 190.876C105.787 189.238 104.474 188.107 102.641 188.107ZM102.641 189.043C103.85 189.043 104.734 189.784 104.734 190.876C104.734 191.968 103.85 192.722 102.641 192.722C101.419 192.722 100.535 191.968 100.535 190.876C100.535 189.784 101.419 189.043 102.641 189.043ZM107.321 187.249V199.027H108.4V187.249H107.321ZM99.0396 196.453C101.133 196.453 104.006 196.44 106.645 195.933L106.554 195.14C103.993 195.543 101.029 195.556 98.8836 195.556L99.0396 196.453ZM119.644 189.42V190.304H122.79V189.42H119.644ZM119.54 191.864V192.748H122.712V191.864H119.54ZM122.608 187.262V194.308H123.687V187.262H122.608ZM118.929 188.146V188.614C118.929 190.837 117.174 192.566 114.171 193.437L114.613 194.308C117.993 193.294 120.086 191.175 120.086 188.146H118.929ZM114.782 188.146V189.03H119.67V188.146H114.782ZM119.865 194.438C117.486 194.438 115.978 195.283 115.978 196.7C115.978 198.117 117.486 198.962 119.865 198.962C122.244 198.962 123.752 198.117 123.752 196.7C123.752 195.283 122.244 194.438 119.865 194.438ZM119.865 195.283C121.594 195.283 122.699 195.816 122.699 196.7C122.699 197.584 121.594 198.104 119.865 198.104C118.149 198.104 117.044 197.584 117.044 196.7C117.044 195.816 118.149 195.283 119.865 195.283ZM128.405 188.692V189.641C128.405 191.097 127.56 192.579 126.026 193.229L126.598 194.061C128.327 193.307 129.263 191.526 129.263 189.641V188.692H128.405ZM128.6 188.692V189.641C128.6 191.474 129.471 193.06 131.148 193.749L131.72 192.917C130.251 192.345 129.445 191.058 129.445 189.641V188.692H128.6ZM126.26 188.237V189.121H131.512V188.237H126.26ZM134.853 187.275V194.464H135.88V187.275H134.853ZM132.981 190.382V191.266H135.204V190.382H132.981ZM132.357 187.496V194.087H133.371V187.496H132.357ZM132.019 194.737C129.588 194.737 128.106 195.517 128.106 196.869C128.106 198.208 129.588 198.988 132.019 198.988C134.437 198.988 135.945 198.208 135.945 196.869C135.945 195.517 134.437 194.737 132.019 194.737ZM132.019 195.582C133.787 195.582 134.866 196.05 134.866 196.869C134.866 197.675 133.787 198.143 132.019 198.143C130.251 198.143 129.159 197.675 129.159 196.869C129.159 196.05 130.251 195.582 132.019 195.582ZM138.427 193.086V193.97H139.272C141.625 193.97 142.795 193.931 144.251 193.671L144.134 192.8C142.73 193.047 141.586 193.086 139.272 193.086H138.427ZM138.401 187.964V188.848H142.405V190.46H138.427V193.619H139.493V191.305H143.471V187.964H138.401ZM146.526 187.275V194.49H147.605V187.275H146.526ZM144.251 189.004V189.888H146.773V189.004H144.251ZM144.251 191.435V192.319H146.773V191.435H144.251ZM139.74 195.127V196.011H146.526V199.04H147.605V195.127H139.74ZM162.073 187.262V199.014H163.113V187.262H162.073ZM157.796 191.474V192.371H160.045V191.474H157.796ZM159.72 187.535V198.416H160.734V187.535H159.72ZM155.534 189.082V190.577C155.534 192.735 154.624 194.88 152.986 195.868L153.649 196.674C155.378 195.582 156.366 193.151 156.366 190.577V189.082H155.534ZM155.755 189.082V190.577C155.755 193.034 156.704 195.348 158.42 196.388L159.083 195.595C157.471 194.659 156.587 192.618 156.587 190.577V189.082H155.755ZM153.311 188.627V189.524H158.68V188.627H153.311ZM166.219 188.432V189.329H173.785V188.432H166.219ZM165.101 196.479V197.376H175.722V196.479H165.101ZM169.222 192.28V196.921H170.301V192.28H169.222ZM173.382 188.432V189.602C173.382 191.006 173.382 192.657 172.94 194.906L174.019 195.049C174.448 192.67 174.448 191.058 174.448 189.602V188.432H173.382ZM177.047 192.722V193.541H187.707V192.722H177.047ZM178.308 194.49V195.257H185.315V196.258H178.347V198.377H179.413V196.999H186.368V194.49H178.308ZM178.347 198.091V198.871H186.745V198.091H178.347ZM178.399 187.6V188.367H185.276V189.316H178.425V191.318H179.491V190.044H186.329V187.6H178.399ZM178.425 191.058V191.838H186.55V191.058H178.425ZM196.091 187.808C194.349 187.808 193.101 188.783 193.101 190.226C193.101 191.656 194.349 192.657 196.091 192.657C197.846 192.657 199.094 191.656 199.094 190.226C199.094 188.783 197.846 187.808 196.091 187.808ZM196.091 188.705C197.235 188.705 198.054 189.329 198.054 190.226C198.054 191.136 197.235 191.747 196.091 191.747C194.947 191.747 194.128 191.136 194.128 190.226C194.128 189.329 194.947 188.705 196.091 188.705ZM195.61 193.957V198.65H196.689V193.957H195.61ZM200.81 187.262V199.027H201.876V187.262H200.81ZM192.373 194.542C194.518 194.542 197.404 194.503 200.056 194.022L199.978 193.216C197.391 193.606 194.414 193.632 192.23 193.632L192.373 194.542ZM204.189 189.264V190.148H210.013V189.264H204.189ZM207.101 190.928C205.645 190.928 204.579 192.033 204.579 193.619C204.579 195.192 205.645 196.297 207.101 196.297C208.57 196.297 209.636 195.192 209.636 193.619C209.636 192.033 208.57 190.928 207.101 190.928ZM207.101 191.851C208.011 191.851 208.674 192.579 208.674 193.619C208.674 194.659 208.011 195.387 207.101 195.387C206.204 195.387 205.554 194.659 205.554 193.619C205.554 192.579 206.204 191.851 207.101 191.851ZM213.12 187.262V199.014H214.16V187.262H213.12ZM211.248 192.202V193.099H213.471V192.202H211.248ZM210.611 187.522V198.442H211.625V187.522H210.611ZM206.581 187.6V189.81H207.647V187.6H206.581ZM224.17 193.138V195.192H225.249V193.138H224.17ZM219.399 192.761V193.632H230.02V192.761H219.399ZM224.703 194.867C222.181 194.867 220.673 195.608 220.673 196.934C220.673 198.247 222.181 198.988 224.703 198.988C227.225 198.988 228.733 198.247 228.733 196.934C228.733 195.608 227.225 194.867 224.703 194.867ZM224.703 195.699C226.549 195.699 227.641 196.141 227.641 196.934C227.641 197.714 226.549 198.156 224.703 198.156C222.87 198.156 221.765 197.714 221.765 196.934C221.765 196.141 222.87 195.699 224.703 195.699ZM224.014 188.224V188.575C224.014 189.914 222.103 190.967 219.997 191.188L220.387 192.046C222.818 191.747 224.976 190.473 224.976 188.575V188.224H224.014ZM224.469 188.224V188.575C224.469 190.473 226.614 191.747 229.045 192.046L229.435 191.188C227.329 190.967 225.418 189.914 225.418 188.575V188.224H224.469ZM220.374 187.795V188.666H229.071V187.795H220.374ZM231.371 196.596V197.493H242.018V196.596H231.371ZM236.103 193.749V196.895H237.169V193.749H236.103ZM236.077 188.042V188.952C236.077 190.889 233.854 192.618 231.787 192.995L232.242 193.892C234.608 193.398 237.013 191.461 237.013 188.952V188.042H236.077ZM236.272 188.042V188.952C236.272 191.461 238.677 193.398 241.043 193.892L241.511 192.995C239.444 192.618 237.208 190.902 237.208 188.952V188.042H236.272ZM243.594 193.474C243.594 193.237 243.672 193.038 243.829 192.877C243.989 192.712 244.209 192.63 244.489 192.63C244.768 192.63 244.986 192.712 245.143 192.877C245.303 193.038 245.384 193.237 245.384 193.474C245.384 193.711 245.303 193.91 245.143 194.071C244.986 194.227 244.768 194.306 244.489 194.306C244.209 194.306 243.989 194.227 243.829 194.071C243.672 193.91 243.594 193.711 243.594 193.474ZM251.769 193.138V195.192H252.848V193.138H251.769ZM246.998 192.761V193.632H257.619V192.761H246.998ZM252.302 194.867C249.78 194.867 248.272 195.608 248.272 196.934C248.272 198.247 249.78 198.988 252.302 198.988C254.824 198.988 256.332 198.247 256.332 196.934C256.332 195.608 254.824 194.867 252.302 194.867ZM252.302 195.699C254.148 195.699 255.24 196.141 255.24 196.934C255.24 197.714 254.148 198.156 252.302 198.156C250.469 198.156 249.364 197.714 249.364 196.934C249.364 196.141 250.469 195.699 252.302 195.699ZM251.613 188.224V188.575C251.613 189.914 249.702 190.967 247.596 191.188L247.986 192.046C250.417 191.747 252.575 190.473 252.575 188.575V188.224H251.613ZM252.068 188.224V188.575C252.068 190.473 254.213 191.747 256.644 192.046L257.034 191.188C254.928 190.967 253.017 189.914 253.017 188.575V188.224H252.068ZM247.973 187.795V188.666H256.67V187.795H247.973ZM267.55 187.262V196.011H268.642V187.262H267.55ZM263.975 188.172V188.627C263.975 190.941 262.051 192.787 259.152 193.736L259.62 194.607C262.948 193.515 265.119 191.214 265.119 188.172H263.975ZM259.737 188.172V189.069H264.638V188.172H259.737ZM264.573 189.68V190.564H267.719V189.68H264.573ZM264.456 192.319V193.203H267.68V192.319H264.456ZM261.206 197.87V198.754H268.928V197.87H261.206ZM261.206 195.166V198.416H262.285V195.166H261.206ZM279.483 187.262V199.014H280.562V187.262H279.483ZM276.038 188.523V188.705C276.038 191.825 274.465 194.321 271.072 195.959L271.644 196.83C275.57 194.906 277.104 191.929 277.104 188.523H276.038ZM271.605 188.523V189.407H276.506V188.523H271.605ZM288.79 190.057V190.954H291.949V190.057H288.79ZM286.086 187.795C284.331 187.795 283.057 188.913 283.057 190.525C283.057 192.137 284.331 193.242 286.086 193.242C287.841 193.242 289.115 192.137 289.115 190.525C289.115 188.913 287.841 187.795 286.086 187.795ZM286.086 188.705C287.243 188.705 288.075 189.446 288.075 190.525C288.075 191.591 287.243 192.345 286.086 192.345C284.929 192.345 284.097 191.591 284.097 190.525C284.097 189.446 284.929 188.705 286.086 188.705ZM291.468 187.262V193.567H292.547V187.262H291.468ZM285.02 194.152V198.858H292.547V194.152H291.481V195.634H286.099V194.152H285.02ZM286.099 196.492H291.481V197.987H286.099V196.492ZM307.016 187.262V199.014H308.056V187.262H307.016ZM305.027 191.968V192.865H307.289V191.968H305.027ZM304.351 187.522V198.416H305.365V187.522H304.351ZM298.501 195.218V196.115H299.268C301.036 196.115 302.219 196.063 303.623 195.764L303.519 194.867C302.154 195.153 300.984 195.218 299.268 195.218H298.501ZM298.501 188.692V195.621H299.567V189.576H302.869V188.692H298.501ZM312.891 187.873V189.069C312.891 190.863 311.747 192.449 309.979 193.099L310.551 193.97C312.514 193.203 313.788 191.331 313.788 189.069V187.873H312.891ZM313.086 187.873V189.147C313.086 191.188 314.373 192.93 316.258 193.632L316.83 192.787C315.14 192.202 313.97 190.733 313.97 189.147V187.873H313.086ZM318.078 187.262V194.386H319.157V187.262H318.078ZM318.858 190.291V191.201H320.899V190.291H318.858ZM315.413 194.711C313.008 194.711 311.552 195.504 311.552 196.856C311.552 198.208 313.008 198.988 315.413 198.988C317.818 198.988 319.274 198.208 319.274 196.856C319.274 195.504 317.818 194.711 315.413 194.711ZM315.413 195.569C317.155 195.569 318.221 196.037 318.221 196.856C318.221 197.675 317.155 198.143 315.413 198.143C313.671 198.143 312.605 197.675 312.605 196.856C312.605 196.037 313.671 195.569 315.413 195.569ZM327.307 188.003C324.863 188.003 323.03 189.303 323.03 191.253C323.03 193.216 324.863 194.503 327.307 194.503C329.751 194.503 331.571 193.216 331.571 191.253C331.571 189.303 329.751 188.003 327.307 188.003ZM327.307 188.887C329.166 188.887 330.544 189.836 330.544 191.253C330.544 192.657 329.166 193.619 327.307 193.619C325.448 193.619 324.07 192.657 324.07 191.253C324.07 189.836 325.448 188.887 327.307 188.887ZM322.003 196.557V197.467H332.65V196.557H322.003ZM333.962 196.674V197.571H344.609V196.674H333.962ZM338.72 194.152V197.051H339.799V194.152H338.72ZM335.249 188.133V189.004H342.23V190.824H335.288V194.048H336.354V191.695H343.296V188.133H335.249ZM335.288 193.593V194.477H343.569V193.593H335.288ZM350.51 187.808V188.692H358.076V187.808H350.51ZM349.158 192.02V192.904H359.805V192.02H349.158ZM353.929 192.618V195.387H354.995V192.618H353.929ZM357.374 187.808V188.679C357.374 189.628 357.374 190.746 356.984 192.319L358.037 192.449C358.427 190.837 358.427 189.654 358.427 188.679V187.808H357.374ZM350.263 195.036V195.92H357.426V199.014H358.505V195.036H350.263ZM370.035 187.262V199.014H371.075V187.262H370.035ZM368.059 192.046V192.93H370.321V192.046H368.059ZM367.37 187.522V198.416H368.384V187.522H367.37ZM361.676 188.679V195.465H362.755V188.679H361.676ZM361.676 195.036V195.972H362.43C363.691 195.972 365.043 195.907 366.642 195.595L366.525 194.659C364.991 194.958 363.639 195.036 362.43 195.036H361.676ZM384.893 187.275V196.232H385.972V187.275H384.893ZM382.904 190.382V191.266H385.348V190.382H382.904ZM382.904 192.865V193.736H385.348V192.865H382.904ZM376.326 188.692V189.563H382.904V188.692H376.326ZM379.654 190.213C378.081 190.213 376.989 191.11 376.989 192.462C376.989 193.801 378.081 194.711 379.654 194.711C381.214 194.711 382.306 193.801 382.306 192.462C382.306 191.11 381.214 190.213 379.654 190.213ZM379.654 191.058C380.629 191.058 381.292 191.63 381.292 192.462C381.292 193.294 380.629 193.853 379.654 193.853C378.679 193.853 378.016 193.294 378.016 192.462C378.016 191.63 378.679 191.058 379.654 191.058ZM379.121 187.249V189.251H380.2V187.249H379.121ZM378.419 197.87V198.754H386.258V197.87H378.419ZM378.419 195.465V198.299H379.498V195.465H378.419ZM396.813 187.262V193.346H397.892V187.262H396.813ZM390.3 193.944V194.789H396.839V195.959H390.326V198.377H391.379V196.765H397.905V193.944H390.3ZM390.326 198.026V198.884H398.295V198.026H390.326ZM391.327 187.6V188.497C391.327 190.2 390.118 191.76 388.35 192.384L388.883 193.242C390.872 192.514 392.224 190.668 392.224 188.497V187.6H391.327ZM391.522 187.6V188.497C391.522 190.603 392.874 192.332 394.85 193.008L395.383 192.163C393.641 191.591 392.406 190.122 392.406 188.497V187.6H391.522ZM404.989 191.825V192.722H407.212V191.825H404.989ZM409.175 187.262V199.014H410.215V187.262H409.175ZM406.848 187.509V198.429H407.875V187.509H406.848ZM402.87 188.237C401.349 188.237 400.374 189.81 400.374 192.332C400.374 194.854 401.349 196.427 402.87 196.427C404.391 196.427 405.379 194.854 405.379 192.332C405.379 189.81 404.391 188.237 402.87 188.237ZM402.87 189.238C403.806 189.238 404.391 190.434 404.391 192.332C404.391 194.23 403.806 195.426 402.87 195.426C401.947 195.426 401.362 194.23 401.362 192.332C401.362 190.434 401.947 189.238 402.87 189.238ZM418.417 188.458V189.407C418.417 191.071 417.208 192.631 415.453 193.255L416.012 194.113C417.975 193.385 419.301 191.552 419.301 189.407V188.458H418.417ZM418.625 188.458V189.407C418.625 191.37 419.886 193.138 421.797 193.84L422.343 192.982C420.64 192.384 419.496 190.915 419.496 189.407V188.458H418.625ZM421.706 190.317V191.214H424.319V190.317H421.706ZM415.791 188.068V188.939H422.07V188.068H415.791ZM417.247 194.932V195.816H424.007V199.014H425.086V194.932H417.247ZM424.007 187.262V194.295H425.086V187.262H424.007ZM435.42 187.262V194.087H436.499V187.262H435.42ZM436.031 190.252V191.162H438.241V190.252H436.031ZM429.115 194.607V198.858H436.499V194.607H435.433V195.855H430.168V194.607H429.115ZM430.168 196.687H435.433V197.987H430.168V196.687ZM427.412 188.458V189.342H434.354V188.458H427.412ZM430.883 189.875C429.193 189.875 428.062 190.694 428.062 191.942C428.062 193.19 429.193 194.009 430.883 194.009C432.56 194.009 433.691 193.19 433.691 191.942C433.691 190.694 432.56 189.875 430.883 189.875ZM430.883 190.694C431.936 190.694 432.664 191.188 432.664 191.942C432.664 192.696 431.936 193.19 430.883 193.19C429.804 193.19 429.089 192.696 429.089 191.942C429.089 191.188 429.804 190.694 430.883 190.694ZM430.337 187.145V188.939H431.416V187.145H430.337ZM447.379 187.275V196.089H448.458V187.275H447.379ZM448.12 191.123V192.033H450.2V191.123H448.12ZM439.371 188.692V189.563H446.313V188.692H439.371ZM442.842 190.213C441.165 190.213 440.021 191.084 440.021 192.41C440.021 193.723 441.165 194.594 442.842 194.594C444.506 194.594 445.65 193.723 445.65 192.41C445.65 191.084 444.506 190.213 442.842 190.213ZM442.842 191.058C443.895 191.058 444.623 191.591 444.623 192.41C444.623 193.216 443.895 193.749 442.842 193.749C441.776 193.749 441.048 193.216 441.048 192.41C441.048 191.591 441.776 191.058 442.842 191.058ZM442.296 187.262V189.147H443.375V187.262H442.296ZM441.139 197.87V198.754H448.991V197.87H441.139ZM441.139 195.387V198.247H442.218V195.387H441.139ZM58.7483 205.249V217.027H59.8403V205.249H58.7483ZM59.5803 209.89V210.8H61.7643V209.89H59.5803ZM51.2993 213.192V214.102H52.2223C54.4323 214.102 55.9793 214.037 57.7863 213.699L57.6693 212.789C55.9143 213.114 54.3933 213.192 52.2223 213.192H51.2993ZM51.2993 206.393V213.595H52.3653V207.277H56.7593V206.393H51.2993ZM71.5523 207.017V207.914H73.5933V207.017H71.5523ZM71.5523 209.513V210.41H73.5933V209.513H71.5523ZM66.0403 205.951C64.2723 205.951 62.9723 207.095 62.9723 208.733C62.9723 210.358 64.2723 211.489 66.0403 211.489C67.8083 211.489 69.1083 210.358 69.1083 208.733C69.1083 207.095 67.8083 205.951 66.0403 205.951ZM66.0403 206.861C67.2103 206.861 68.0553 207.628 68.0553 208.733C68.0553 209.838 67.2103 210.592 66.0403 210.592C64.8703 210.592 64.0253 209.838 64.0253 208.733C64.0253 207.628 64.8703 206.861 66.0403 206.861ZM70.7983 205.262V212.217H71.8773V205.262H70.7983ZM68.1333 212.594C65.7413 212.594 64.2723 213.413 64.2723 214.791C64.2723 216.182 65.7413 216.988 68.1333 216.988C70.5253 216.988 71.9943 216.182 71.9943 214.791C71.9943 213.413 70.5253 212.594 68.1333 212.594ZM68.1333 213.465C69.8753 213.465 70.9413 213.946 70.9413 214.791C70.9413 215.636 69.8753 216.13 68.1333 216.13C66.3913 216.13 65.3253 215.636 65.3253 214.791C65.3253 213.946 66.3913 213.465 68.1333 213.465ZM82.7572 205.275V214.089H83.8362V205.275H82.7572ZM83.4982 209.123V210.033H85.5782V209.123H83.4982ZM74.7492 206.692V207.563H81.6912V206.692H74.7492ZM78.2202 208.213C76.5432 208.213 75.3992 209.084 75.3992 210.41C75.3992 211.723 76.5432 212.594 78.2202 212.594C79.8842 212.594 81.0282 211.723 81.0282 210.41C81.0282 209.084 79.8842 208.213 78.2202 208.213ZM78.2202 209.058C79.2732 209.058 80.0012 209.591 80.0012 210.41C80.0012 211.216 79.2732 211.749 78.2202 211.749C77.1542 211.749 76.4262 211.216 76.4262 210.41C76.4262 209.591 77.1542 209.058 78.2202 209.058ZM77.6742 205.262V207.147H78.7532V205.262H77.6742ZM76.5172 215.87V216.754H84.3692V215.87H76.5172ZM76.5172 213.387V216.247H77.5962V213.387H76.5172ZM96.5235 208.083V208.967H98.9155V208.083H96.5235ZM96.5105 210.371V211.255H98.9025V210.371H96.5105ZM89.9325 206.549V207.42H96.5105V206.549H89.9325ZM93.2605 208.031C91.6875 208.031 90.5955 208.889 90.5955 210.202C90.5955 211.515 91.6875 212.386 93.2605 212.386C94.8335 212.386 95.9125 211.515 95.9125 210.202C95.9125 208.889 94.8335 208.031 93.2605 208.031ZM93.2605 208.863C94.2355 208.863 94.9115 209.383 94.9115 210.202C94.9115 211.021 94.2355 211.554 93.2605 211.554C92.2725 211.554 91.6095 211.021 91.6095 210.202C91.6095 209.383 92.2725 208.863 93.2605 208.863ZM92.7275 205.158V207.16H93.8065V205.158H92.7275ZM98.4995 205.262V212.854H99.5785V205.262H98.4995ZM95.7305 212.971C93.2865 212.971 91.8175 213.712 91.8175 214.986C91.8175 216.26 93.2865 216.988 95.7305 216.988C98.1615 216.988 99.6435 216.26 99.6435 214.986C99.6435 213.712 98.1615 212.971 95.7305 212.971ZM95.7305 213.829C97.4595 213.829 98.5255 214.232 98.5255 214.986C98.5255 215.727 97.4595 216.156 95.7305 216.156C94.0015 216.156 92.9355 215.727 92.9355 214.986C92.9355 214.232 94.0015 213.829 95.7305 213.829ZM102.334 213.205V214.115H103.101C104.986 214.115 106.13 214.076 107.495 213.803L107.378 212.906C106.065 213.166 104.96 213.205 103.101 213.205H102.334ZM102.334 206.601V213.543H103.361V207.485H106.962V206.601H102.334ZM103.049 209.708V210.579H106.78V209.708H103.049ZM110.823 205.262V217.014H111.863V205.262H110.823ZM108.964 209.968V210.865H111.213V209.968H108.964ZM108.236 205.509V216.429H109.263V205.509H108.236ZM117.647 206.107C115.814 206.107 114.488 207.238 114.488 208.876C114.488 210.527 115.814 211.658 117.647 211.658C119.48 211.658 120.793 210.527 120.793 208.876C120.793 207.238 119.48 206.107 117.647 206.107ZM117.647 207.043C118.856 207.043 119.74 207.784 119.74 208.876C119.74 209.968 118.856 210.722 117.647 210.722C116.425 210.722 115.541 209.968 115.541 208.876C115.541 207.784 116.425 207.043 117.647 207.043ZM122.327 205.249V217.027H123.406V205.249H122.327ZM114.045 214.453C116.139 214.453 119.012 214.44 121.651 213.933L121.56 213.14C118.999 213.543 116.035 213.556 113.89 213.556L114.045 214.453ZM133.74 206.068V206.965C133.74 208.967 131.53 210.761 129.463 211.151L129.944 212.048C132.297 211.515 134.676 209.526 134.676 206.965V206.068H133.74ZM133.935 206.068V206.965C133.935 209.539 136.327 211.515 138.667 212.048L139.148 211.151C137.094 210.761 134.871 208.98 134.871 206.965V206.068H133.935ZM129.034 214.544V215.428H139.681V214.544H129.034ZM141.448 206.432V214.037H146.843V206.432H141.448ZM145.79 207.303V213.166H142.501V207.303H145.79ZM148.936 205.262V217.014H150.028V205.262H148.936ZM149.768 209.955V210.865H151.952V209.955H149.768ZM154.317 211.593V212.464H162.39V211.593H154.317ZM152.952 214.609V215.506H163.599V214.609H152.952ZM154.317 206.263V211.866H155.409V207.147H162.26V206.263H154.317ZM155.058 208.889V209.747H162.013V208.889H155.058ZM170.176 212.672C167.667 212.672 166.081 213.491 166.081 214.843C166.081 216.182 167.667 216.988 170.176 216.988C172.672 216.988 174.271 216.182 174.271 214.843C174.271 213.491 172.672 212.672 170.176 212.672ZM170.176 213.517C172.022 213.517 173.192 214.024 173.192 214.843C173.192 215.649 172.022 216.156 170.176 216.156C168.33 216.156 167.147 215.649 167.147 214.843C167.147 214.024 168.33 213.517 170.176 213.517ZM166.172 205.847V206.731H173.738V205.847H166.172ZM164.911 210.735V211.606H175.519V210.735H164.911ZM169.266 208.473V210.982H170.332V208.473H169.266ZM173.114 205.847V206.848C173.114 207.771 173.114 208.629 172.789 209.838L173.855 209.968C174.167 208.746 174.167 207.797 174.167 206.848V205.847H173.114ZM179.756 206.523V207.472C179.756 209.149 178.586 210.67 176.818 211.294L177.364 212.152C179.34 211.437 180.64 209.63 180.64 207.472V206.523H179.756ZM179.951 206.523V207.459C179.951 209.461 181.199 211.138 183.162 211.788L183.682 210.943C181.953 210.371 180.835 208.993 180.835 207.459V206.523H179.951ZM177.143 206.133V207.017H183.422V206.133H177.143ZM184.904 205.262V212.347H185.983V205.262H184.904ZM185.684 208.239V209.149H187.725V208.239H185.684ZM182.239 212.659C179.847 212.659 178.378 213.452 178.378 214.817C178.378 216.195 179.847 216.988 182.239 216.988C184.631 216.988 186.1 216.195 186.1 214.817C186.1 213.452 184.631 212.659 182.239 212.659ZM182.239 213.53C183.981 213.53 185.047 213.998 185.047 214.817C185.047 215.649 183.981 216.143 182.239 216.143C180.497 216.143 179.431 215.649 179.431 214.817C179.431 213.998 180.497 213.53 182.239 213.53ZM193.392 206.029V206.9H200.737V206.029H193.392ZM192.066 211.073V211.957H202.687V211.073H192.066ZM196.811 211.658V217.027H197.89V211.658H196.811ZM200.23 206.029V207.043C200.23 208.226 200.23 209.591 199.775 211.489L200.841 211.632C201.283 209.643 201.283 208.265 201.283 207.043V206.029H200.23ZM208.796 211.801V213.647H209.862V211.801H208.796ZM204.012 211.177V212.048H214.633V211.177H204.012ZM205.195 213.374V214.258H212.241V216.975H213.32V213.374H205.195ZM208.796 205.197V206.835H209.862V205.197H208.796ZM208.744 206.978V207.173C208.744 208.525 206.924 209.487 204.649 209.695L204.987 210.514C207.548 210.241 209.693 209.11 209.693 207.173V206.978H208.744ZM208.965 206.978V207.173C208.965 209.11 211.097 210.241 213.671 210.514L214.009 209.695C211.734 209.487 209.914 208.525 209.914 207.173V206.978H208.965ZM205.104 206.406V207.277H213.554V206.406H205.104ZM216.248 211.474C216.248 211.237 216.326 211.038 216.483 210.877C216.644 210.712 216.864 210.63 217.143 210.63C217.422 210.63 217.64 210.712 217.797 210.877C217.958 211.038 218.038 211.237 218.038 211.474C218.038 211.711 217.958 211.91 217.797 212.071C217.64 212.227 217.422 212.306 217.143 212.306C216.864 212.306 216.644 212.227 216.483 212.071C216.326 211.91 216.248 211.711 216.248 211.474ZM220.784 206.432V207.329H228.35V206.432H220.784ZM219.666 214.479V215.376H230.287V214.479H219.666ZM223.787 210.28V214.921H224.866V210.28H223.787ZM227.947 206.432V207.602C227.947 209.006 227.947 210.657 227.505 212.906L228.584 213.049C229.013 210.67 229.013 209.058 229.013 207.602V206.432H227.947ZM232.964 210.748V211.632H241.037V210.748H232.964ZM231.625 214.635V215.545H242.272V214.635H231.625ZM236.383 211.125V214.999H237.462V211.125H236.383ZM232.964 206.198V211.138H234.043V207.082H240.92V206.198H232.964ZM246.626 212.269V214.18H247.705V212.269H246.626ZM251.566 205.262V217.014H252.645V205.262H251.566ZM252.294 210.254V211.164H254.465V210.254H252.294ZM243.597 214.778C245.651 214.778 248.407 214.765 250.942 214.31L250.851 213.504C248.42 213.855 245.547 213.881 243.441 213.881L243.597 214.778ZM243.636 206.679V207.55H250.669V206.679H243.636ZM247.159 208.239C245.521 208.239 244.403 209.097 244.403 210.41C244.403 211.736 245.521 212.581 247.159 212.581C248.797 212.581 249.928 211.736 249.928 210.41C249.928 209.097 248.797 208.239 247.159 208.239ZM247.159 209.071C248.212 209.071 248.914 209.604 248.914 210.41C248.914 211.216 248.212 211.749 247.159 211.749C246.106 211.749 245.417 211.216 245.417 210.41C245.417 209.604 246.106 209.071 247.159 209.071ZM246.626 205.275V207.264H247.705V205.275H246.626ZM261.887 206.939V208.85C261.887 210.878 260.47 213.088 258.767 213.894L259.391 214.752C261.263 213.829 262.758 211.333 262.758 208.85V206.939H261.887ZM262.095 206.939V208.85C262.095 211.294 263.603 213.582 265.501 214.466L266.112 213.608C264.383 212.867 262.966 210.839 262.966 208.85V206.939H262.095ZM259.157 206.458V207.368H265.722V206.458H259.157ZM267.308 205.262V217.014H268.387V205.262H267.308ZM274.067 211.177V213.79H275.146V211.177H274.067ZM279.28 205.262V214.206H280.359V205.262H279.28ZM272.338 215.87V216.754H280.645V215.87H272.338ZM272.338 213.335V216.117H273.417V213.335H272.338ZM270.817 211.58C272.949 211.58 275.796 211.541 278.331 211.138L278.253 210.345C275.757 210.67 272.845 210.696 270.674 210.696L270.817 211.58ZM276.888 212.204V212.997H279.553V212.204H276.888ZM274.496 205.743C272.767 205.743 271.597 206.549 271.597 207.784C271.597 209.032 272.767 209.838 274.496 209.838C276.212 209.838 277.382 209.032 277.382 207.784C277.382 206.549 276.212 205.743 274.496 205.743ZM274.496 206.549C275.588 206.549 276.355 207.03 276.355 207.784C276.355 208.538 275.588 209.019 274.496 209.019C273.391 209.019 272.624 208.538 272.624 207.784C272.624 207.03 273.391 206.549 274.496 206.549ZM288.002 205.457C285.402 205.457 283.868 206.185 283.868 207.498C283.868 208.811 285.402 209.539 288.002 209.539C290.589 209.539 292.136 208.811 292.136 207.498C292.136 206.185 290.589 205.457 288.002 205.457ZM288.002 206.276C289.913 206.276 291.018 206.718 291.018 207.498C291.018 208.278 289.913 208.72 288.002 208.72C286.078 208.72 284.973 208.278 284.973 207.498C284.973 206.718 286.078 206.276 288.002 206.276ZM282.685 210.319V211.19H293.306V210.319H282.685ZM283.972 212.191V213.023H290.888V214.063H283.998V216.273H285.064V214.843H291.954V212.191H283.972ZM283.998 216.039V216.884H292.305V216.039H283.998ZM297.868 207.264V208.148H303.692V207.264H297.868ZM300.78 208.928C299.324 208.928 298.258 210.033 298.258 211.619C298.258 213.192 299.324 214.297 300.78 214.297C302.249 214.297 303.315 213.192 303.315 211.619C303.315 210.033 302.249 208.928 300.78 208.928ZM300.78 209.851C301.69 209.851 302.353 210.579 302.353 211.619C302.353 212.659 301.69 213.387 300.78 213.387C299.883 213.387 299.233 212.659 299.233 211.619C299.233 210.579 299.883 209.851 300.78 209.851ZM306.799 205.262V217.014H307.839V205.262H306.799ZM304.927 210.202V211.099H307.15V210.202H304.927ZM304.29 205.522V216.442H305.304V205.522H304.29ZM300.26 205.6V207.81H301.326V205.6H300.26ZM314.559 206.419V206.913C314.559 208.46 312.544 209.812 310.477 210.111L310.893 210.969C313.259 210.566 315.495 209.019 315.495 206.913V206.419H314.559ZM314.832 206.419V206.913C314.832 209.019 317.055 210.566 319.434 210.969L319.837 210.111C317.783 209.812 315.755 208.46 315.755 206.913V206.419H314.832ZM314.598 212.529V217.014H315.664V212.529H314.598ZM309.853 211.957V212.841H320.474V211.957H309.853ZM310.841 205.99V206.861H319.447V205.99H310.841ZM323.242 208.785V209.669H331.224V208.785H323.242ZM321.799 211.242V212.126H332.459V211.242H321.799ZM323.242 205.691V209.227H324.308V205.691H323.242ZM323.164 215.844V216.728H331.289V215.844H323.164ZM323.164 213.296V216.078H324.23V213.296H323.164ZM343.274 208.304V209.201H345.926V208.304H343.274ZM345.588 205.262V212.269H346.667V205.262H345.588ZM342.806 212.62C340.375 212.62 338.88 213.439 338.88 214.817C338.88 216.208 340.375 217.001 342.806 217.001C345.224 217.001 346.719 216.208 346.719 214.817C346.719 213.439 345.224 212.62 342.806 212.62ZM342.806 213.465C344.574 213.465 345.653 213.959 345.653 214.817C345.653 215.662 344.574 216.156 342.806 216.156C341.038 216.156 339.959 215.662 339.959 214.817C339.959 213.959 341.038 213.465 342.806 213.465ZM339.998 206.445V207.394C339.998 209.084 338.789 210.657 337.047 211.294L337.606 212.152C339.556 211.424 340.882 209.565 340.882 207.394V206.445H339.998ZM340.206 206.445V207.394C340.206 209.37 341.467 211.138 343.378 211.827L343.924 210.969C342.221 210.371 341.077 208.915 341.077 207.394V206.445H340.206ZM337.372 206.12V207.004H343.651V206.12H337.372ZM348.954 212.217V213.101H359.614V212.217H348.954ZM353.712 212.633V217.014H354.778V212.633H353.712ZM350.293 205.73V210.813H358.249V205.73H357.183V207.342H351.372V205.73H350.293ZM351.372 208.213H357.183V209.942H351.372V208.213ZM364.033 206.939V208.85C364.033 210.878 362.616 213.088 360.913 213.894L361.537 214.752C363.409 213.829 364.904 211.333 364.904 208.85V206.939H364.033ZM364.241 206.939V208.85C364.241 211.294 365.749 213.582 367.647 214.466L368.258 213.608C366.529 212.867 365.112 210.839 365.112 208.85V206.939H364.241ZM361.303 206.458V207.368H367.868V206.458H361.303ZM369.454 205.262V217.014H370.533V205.262H369.454ZM376.213 211.177V213.79H377.292V211.177H376.213ZM381.426 205.262V214.206H382.505V205.262H381.426ZM374.484 215.87V216.754H382.791V215.87H374.484ZM374.484 213.335V216.117H375.563V213.335H374.484ZM372.963 211.58C375.095 211.58 377.942 211.541 380.477 211.138L380.399 210.345C377.903 210.67 374.991 210.696 372.82 210.696L372.963 211.58ZM379.034 212.204V212.997H381.699V212.204H379.034ZM376.642 205.743C374.913 205.743 373.743 206.549 373.743 207.784C373.743 209.032 374.913 209.838 376.642 209.838C378.358 209.838 379.528 209.032 379.528 207.784C379.528 206.549 378.358 205.743 376.642 205.743ZM376.642 206.549C377.734 206.549 378.501 207.03 378.501 207.784C378.501 208.538 377.734 209.019 376.642 209.019C375.537 209.019 374.77 208.538 374.77 207.784C374.77 207.03 375.537 206.549 376.642 206.549ZM390.955 206.276V208.382C390.955 210.527 389.616 212.789 387.913 213.647L388.576 214.505C390.435 213.517 391.839 210.982 391.839 208.382V206.276H390.955ZM391.15 206.276V208.382C391.15 210.904 392.515 213.309 394.335 214.284L394.998 213.426C393.334 212.594 392.021 210.449 392.021 208.382V206.276H391.15ZM396.025 205.262V217.014H397.117V205.262H396.025ZM396.857 210.02V210.93H399.041V210.02H396.857ZM405.943 208.057V208.954H409.102V208.057H405.943ZM403.239 205.795C401.484 205.795 400.21 206.913 400.21 208.525C400.21 210.137 401.484 211.242 403.239 211.242C404.994 211.242 406.268 210.137 406.268 208.525C406.268 206.913 404.994 205.795 403.239 205.795ZM403.239 206.705C404.396 206.705 405.228 207.446 405.228 208.525C405.228 209.591 404.396 210.345 403.239 210.345C402.082 210.345 401.25 209.591 401.25 208.525C401.25 207.446 402.082 206.705 403.239 206.705ZM408.621 205.262V211.567H409.7V205.262H408.621ZM402.173 212.152V216.858H409.7V212.152H408.634V213.634H403.252V212.152H402.173ZM403.252 214.492H408.634V215.987H403.252V214.492ZM420.541 205.262V211.567H421.633V205.262H420.541ZM414.054 212.152V216.858H421.633V212.152H420.567V213.582H415.12V212.152H414.054ZM415.12 214.44H420.567V215.987H415.12V214.44ZM415.328 205.821C413.547 205.821 412.26 206.926 412.26 208.525C412.26 210.137 413.547 211.242 415.328 211.242C417.109 211.242 418.383 210.137 418.383 208.525C418.383 206.926 417.109 205.821 415.328 205.821ZM415.328 206.718C416.498 206.718 417.343 207.459 417.343 208.525C417.343 209.591 416.498 210.332 415.328 210.332C414.158 210.332 413.313 209.591 413.313 208.525C413.313 207.459 414.158 206.718 415.328 206.718ZM432.5 205.262V217.014H433.579V205.262H432.5ZM424.7 206.406V213.686H425.766V206.406H424.7ZM424.7 213.049V213.985H425.662C427.521 213.985 429.38 213.842 431.421 213.426L431.291 212.503C429.302 212.919 427.443 213.049 425.662 213.049H424.7ZM443.861 205.249V217.027H444.953V205.249H443.861ZM444.693 209.89V210.8H446.877V209.89H444.693ZM436.412 213.192V214.102H437.335C439.545 214.102 441.092 214.037 442.899 213.699L442.782 212.789C441.027 213.114 439.506 213.192 437.335 213.192H436.412ZM436.412 206.393V213.595H437.478V207.277H441.872V206.393H436.412ZM448.077 215.238C448.077 215.001 448.158 214.802 448.318 214.642C448.479 214.477 448.697 214.394 448.972 214.394C449.251 214.394 449.469 214.477 449.626 214.642C449.787 214.802 449.867 215.001 449.867 215.238C449.867 215.475 449.787 215.674 449.626 215.835C449.469 215.996 449.251 216.076 448.972 216.076C448.697 216.076 448.479 215.996 448.318 215.835C448.158 215.674 448.077 215.475 448.077 215.238Z" fill="#565656"/>
<path d="M99.016 241.314V242.798H108.088V241.314H99.016ZM97.574 244.268V245.766H109.306V244.268H97.574ZM102.446 245.164V250.246H104.308V245.164H102.446ZM99.016 237.856V242.014H100.878V237.856H99.016ZM118.727 237.268V250.232H120.603V237.268H118.727ZM120.113 242.224V243.75H122.395V242.224H120.113ZM115.325 238.612V238.934C115.325 242.448 113.715 244.828 110.313 246.592L111.349 248.006C115.661 245.836 117.145 242.504 117.145 238.612H115.325ZM111.027 238.612V240.11H116.277V238.612H111.027ZM129.926 239.326V240.782C129.926 242.98 128.876 245.374 126.706 246.34L127.756 247.81C130.192 246.704 131.41 243.778 131.41 240.782V239.326H129.926ZM130.346 239.326V240.782C130.346 243.666 131.55 246.424 134.014 247.488L135.022 246.018C132.852 245.122 131.816 242.882 131.816 240.782V239.326H130.346ZM127.224 238.528V240.054H134.49V238.528H127.224ZM135.694 237.282V250.246H137.57V237.282H135.694ZM143.057 243.932V246.774H144.919V243.932H143.057ZM148.741 237.282V247.096H150.603V237.282H148.741ZM141.265 248.538V250.022H150.883V248.538H141.265ZM141.265 246.172V248.93H143.127V246.172H141.265ZM139.865 244.492C142.203 244.492 145.241 244.422 147.999 243.96L147.887 242.63C145.171 242.98 142.007 243.008 139.641 243.008L139.865 244.492ZM146.291 244.814V246.088H149.147V244.814H146.291ZM143.813 237.73C141.909 237.73 140.579 238.668 140.579 240.04C140.579 241.426 141.909 242.35 143.813 242.35C145.703 242.35 147.033 241.426 147.033 240.04C147.033 238.668 145.703 237.73 143.813 237.73ZM143.813 239.088C144.667 239.088 145.269 239.41 145.269 240.04C145.269 240.67 144.667 240.992 143.813 240.992C142.945 240.992 142.343 240.67 142.343 240.04C142.343 239.41 142.945 239.088 143.813 239.088ZM160.906 237.268V244.268H162.768V237.268H160.906ZM162.026 240.04V241.552H164.49V240.04H162.026ZM154.2 244.786V246.13H160.934V246.816H154.228V249.252H156.076V248.076H162.768V244.786H154.2ZM154.228 248.79V250.162H163.146V248.79H154.228ZM152.562 238.234V239.634H160.192V238.234H152.562ZM156.384 239.942C154.452 239.942 153.192 240.768 153.192 242.07C153.192 243.372 154.452 244.17 156.384 244.17C158.302 244.17 159.562 243.372 159.562 242.07C159.562 240.768 158.302 239.942 156.384 239.942ZM156.384 241.244C157.252 241.244 157.784 241.524 157.784 242.07C157.784 242.588 157.252 242.868 156.384 242.868C155.516 242.868 154.984 242.588 154.984 242.07C154.984 241.524 155.516 241.244 156.384 241.244ZM155.446 237.184V239.228H157.308V237.184H155.446ZM173.813 237.66V238.262C173.813 239.788 172.343 241.482 169.361 241.874L170.089 243.372C173.491 242.868 175.451 240.754 175.451 238.262V237.66H173.813ZM174.163 237.66V238.262C174.163 240.754 176.123 242.868 179.525 243.372L180.239 241.874C177.271 241.482 175.787 239.774 175.787 238.262V237.66H174.163ZM173.827 245.5V250.246H175.675V245.5H173.827ZM168.941 244.324V245.836H180.659V244.324H168.941ZM188.204 245.15V245.584C188.204 246.844 187.49 248.132 185.796 248.706L186.706 250.064C188.736 249.336 189.604 247.544 189.604 245.584V245.15H188.204ZM188.68 245.15V245.584C188.68 247.488 189.422 249.42 191.48 250.19L192.222 248.818C190.64 248.16 190.01 246.844 190.01 245.584V245.15H188.68ZM192.936 245.15V245.584C192.936 246.732 192.292 248.104 190.71 248.818L191.48 250.19C193.496 249.392 194.266 247.376 194.266 245.584V245.15H192.936ZM193.37 245.15V245.584C193.37 247.628 194.21 249.364 196.268 250.064L197.178 248.706C195.47 248.174 194.77 246.928 194.77 245.584V245.15H193.37ZM194.196 237.296V244.618H196.072V237.296H194.196ZM189.016 237.954C187 237.954 185.488 239.242 185.488 241.062C185.488 242.868 187 244.156 189.016 244.156C191.032 244.156 192.53 242.868 192.53 241.062C192.53 239.242 191.032 237.954 189.016 237.954ZM189.016 239.494C189.996 239.494 190.71 240.068 190.71 241.062C190.71 242.042 189.996 242.616 189.016 242.616C188.036 242.616 187.308 242.042 187.308 241.062C187.308 240.068 188.036 239.494 189.016 239.494ZM204.037 237.464C201.069 237.464 199.347 238.248 199.347 239.676C199.347 241.104 201.069 241.888 204.037 241.888C206.991 241.888 208.727 241.104 208.727 239.676C208.727 238.248 206.991 237.464 204.037 237.464ZM204.037 238.822C205.913 238.822 206.795 239.102 206.795 239.676C206.795 240.278 205.913 240.53 204.037 240.53C202.161 240.53 201.279 240.278 201.279 239.676C201.279 239.102 202.161 238.822 204.037 238.822ZM198.171 242.49V243.96H209.889V242.49H198.171ZM199.515 244.688V246.074H206.641V246.732H199.529V249.168H201.363V248.02H208.475V244.688H199.515ZM199.529 248.762V250.162H208.811V248.762H199.529ZM219.492 237.282V250.246H221.354V237.282H219.492ZM220.78 242.35V243.89H223.034V242.35H220.78ZM213.136 238.598V238.822C213.136 242.112 212.786 244.268 210.784 246.48L212.24 247.53C214.536 244.954 214.872 242.196 214.872 238.598H213.136ZM211.358 238.598V240.11H213.864V238.598H211.358ZM216.706 238.598V238.808C216.706 242.35 216.384 244.842 214.424 247.32L215.88 248.356C218.134 245.542 218.442 242.364 218.442 238.598H216.706ZM215.306 238.598V240.11H217.476V238.598H215.306ZM226.519 243.862V247.502H228.367V243.862H226.519ZM231.223 243.862V247.502H233.085V243.862H231.223ZM223.943 247.236V248.748H235.675V247.236H223.943ZM229.795 237.912C226.995 237.912 224.951 239.284 224.951 241.398C224.951 243.512 226.995 244.87 229.795 244.87C232.581 244.87 234.639 243.512 234.639 241.398C234.639 239.284 232.581 237.912 229.795 237.912ZM229.795 239.368C231.601 239.368 232.805 240.11 232.805 241.398C232.805 242.672 231.601 243.428 229.795 243.428C227.989 243.428 226.785 242.672 226.785 241.398C226.785 240.11 227.989 239.368 229.795 239.368ZM240.274 246.013H238.641C238.645 245.598 238.679 245.243 238.743 244.946C238.812 244.65 238.923 244.383 239.078 244.146C239.233 243.905 239.443 243.659 239.707 243.408C239.917 243.212 240.104 243.028 240.268 242.854C240.436 242.677 240.568 242.492 240.664 242.301C240.76 242.105 240.808 241.884 240.808 241.638C240.808 241.36 240.762 241.127 240.671 240.94C240.584 240.754 240.454 240.612 240.281 240.517C240.113 240.416 239.901 240.366 239.646 240.366C239.436 240.366 239.238 240.41 239.051 240.496C238.864 240.583 238.714 240.717 238.6 240.899C238.486 241.077 238.424 241.31 238.415 241.597H236.604C236.617 241 236.758 240.503 237.027 240.106C237.296 239.705 237.659 239.407 238.114 239.211C238.57 239.01 239.08 238.91 239.646 238.91C240.27 238.91 240.803 239.015 241.245 239.225C241.692 239.43 242.031 239.73 242.264 240.127C242.501 240.523 242.619 241.002 242.619 241.562C242.619 241.964 242.542 242.324 242.387 242.643C242.232 242.957 242.027 243.251 241.771 243.524C241.516 243.798 241.241 244.074 240.944 244.352C240.685 244.584 240.509 244.832 240.418 245.097C240.327 245.361 240.279 245.666 240.274 246.013ZM238.47 248.139C238.47 247.865 238.561 247.637 238.743 247.455C238.93 247.273 239.181 247.182 239.495 247.182C239.81 247.182 240.058 247.273 240.24 247.455C240.427 247.637 240.521 247.865 240.521 248.139C240.521 248.403 240.427 248.626 240.24 248.809C240.058 248.991 239.81 249.082 239.495 249.082C239.181 249.082 238.93 248.991 238.743 248.809C238.561 248.626 238.47 248.403 238.47 248.139Z" fill="#154782"/>
<path d="M86.7871 264.711V264.471C86.7871 264.135 86.8926 263.857 87.1035 263.639C87.3184 263.42 87.6094 263.311 87.9766 263.311C88.3477 263.311 88.6406 263.42 88.8555 263.639C89.0703 263.857 89.1777 264.135 89.1777 264.471V264.711C89.1777 265.043 89.0703 265.318 88.8555 265.537C88.6445 265.752 88.3535 265.859 87.9824 265.859C87.6152 265.859 87.3242 265.752 87.1094 265.537C86.8945 265.318 86.7871 265.043 86.7871 264.711ZM98.848 259.592V260.408H105.832V259.592H98.848ZM97.6 263.48V264.296H107.428V263.48H97.6ZM102.004 264.032V266.588H102.988V264.032H102.004ZM105.184 259.592V260.396C105.184 261.272 105.184 262.304 104.824 263.756L105.796 263.876C106.156 262.388 106.156 261.296 106.156 260.396V259.592H105.184ZM98.62 266.264V267.08H105.232V269.936H106.228V266.264H98.62ZM116.871 259.088V269.936H117.831V259.088H116.871ZM115.047 263.504V264.32H117.135V263.504H115.047ZM114.411 259.328V269.384H115.347V259.328H114.411ZM109.155 260.396V266.66H110.151V260.396H109.155ZM109.155 266.264V267.128H109.851C111.015 267.128 112.263 267.068 113.739 266.78L113.631 265.916C112.215 266.192 110.967 266.264 109.851 266.264H109.155ZM127.047 264.512V266.408H128.043V264.512H127.047ZM122.643 264.164V264.968H132.447V264.164H122.643ZM127.539 266.108C125.211 266.108 123.819 266.792 123.819 268.016C123.819 269.228 125.211 269.912 127.539 269.912C129.867 269.912 131.259 269.228 131.259 268.016C131.259 266.792 129.867 266.108 127.539 266.108ZM127.539 266.876C129.243 266.876 130.251 267.284 130.251 268.016C130.251 268.736 129.243 269.144 127.539 269.144C125.847 269.144 124.827 268.736 124.827 268.016C124.827 267.284 125.847 266.876 127.539 266.876ZM126.903 259.976V260.3C126.903 261.536 125.139 262.508 123.195 262.712L123.555 263.504C125.799 263.228 127.791 262.052 127.791 260.3V259.976H126.903ZM127.323 259.976V260.3C127.323 262.052 129.303 263.228 131.547 263.504L131.907 262.712C129.963 262.508 128.199 261.536 128.199 260.3V259.976H127.323ZM123.543 259.58V260.384H131.571V259.58H123.543ZM133.694 267.704V268.532H143.522V267.704H133.694ZM138.062 265.076V267.98H139.046V265.076H138.062ZM138.038 259.808V260.648C138.038 262.436 135.986 264.032 134.078 264.38L134.498 265.208C136.682 264.752 138.902 262.964 138.902 260.648V259.808H138.038ZM138.218 259.808V260.648C138.218 262.964 140.438 264.752 142.622 265.208L143.054 264.38C141.146 264.032 139.082 262.448 139.082 260.648V259.808H138.218ZM145 264.729C145 264.545 145.057 264.391 145.17 264.266C145.283 264.137 145.449 264.072 145.668 264.072C145.887 264.072 146.053 264.137 146.166 264.266C146.283 264.391 146.342 264.545 146.342 264.729C146.342 264.908 146.283 265.061 146.166 265.186C146.053 265.307 145.887 265.367 145.668 265.367C145.449 265.367 145.283 265.307 145.17 265.186C145.057 265.061 145 264.908 145 264.729ZM152.265 264.512V266.408H153.261V264.512H152.265ZM147.861 264.164V264.968H157.665V264.164H147.861ZM152.757 266.108C150.429 266.108 149.037 266.792 149.037 268.016C149.037 269.228 150.429 269.912 152.757 269.912C155.085 269.912 156.477 269.228 156.477 268.016C156.477 266.792 155.085 266.108 152.757 266.108ZM152.757 266.876C154.461 266.876 155.469 267.284 155.469 268.016C155.469 268.736 154.461 269.144 152.757 269.144C151.065 269.144 150.045 268.736 150.045 268.016C150.045 267.284 151.065 266.876 152.757 266.876ZM152.121 259.976V260.3C152.121 261.536 150.357 262.508 148.413 262.712L148.773 263.504C151.017 263.228 153.009 262.052 153.009 260.3V259.976H152.121ZM152.541 259.976V260.3C152.541 262.052 154.521 263.228 156.765 263.504L157.125 262.712C155.181 262.508 153.417 261.536 153.417 260.3V259.976H152.541ZM148.761 259.58V260.384H156.789V259.58H148.761ZM166.833 259.088V267.164H167.841V259.088H166.833ZM163.533 259.928V260.348C163.533 262.484 161.757 264.188 159.081 265.064L159.513 265.868C162.585 264.86 164.589 262.736 164.589 259.928H163.533ZM159.621 259.928V260.756H164.145V259.928H159.621ZM164.085 261.32V262.136H166.989V261.32H164.085ZM163.977 263.756V264.572H166.953V263.756H163.977ZM160.977 268.88V269.696H168.105V268.88H160.977ZM160.977 266.384V269.384H161.973V266.384H160.977ZM177.848 259.088V269.936H178.844V259.088H177.848ZM174.668 260.252V260.42C174.668 263.3 173.216 265.604 170.084 267.116L170.612 267.92C174.236 266.144 175.652 263.396 175.652 260.252H174.668ZM170.576 260.252V261.068H175.1V260.252H170.576ZM186.439 261.668V262.496H189.355V261.668H186.439ZM183.943 259.58C182.323 259.58 181.147 260.612 181.147 262.1C181.147 263.588 182.323 264.608 183.943 264.608C185.563 264.608 186.739 263.588 186.739 262.1C186.739 260.612 185.563 259.58 183.943 259.58ZM183.943 260.42C185.011 260.42 185.779 261.104 185.779 262.1C185.779 263.084 185.011 263.78 183.943 263.78C182.875 263.78 182.107 263.084 182.107 262.1C182.107 261.104 182.875 260.42 183.943 260.42ZM188.911 259.088V264.908H189.907V259.088H188.911ZM182.959 265.448V269.792H189.907V265.448H188.923V266.816H183.955V265.448H182.959ZM183.955 267.608H188.923V268.988H183.955V267.608ZM196.926 259.772C194.67 259.772 192.978 260.972 192.978 262.772C192.978 264.584 194.67 265.772 196.926 265.772C199.182 265.772 200.862 264.584 200.862 262.772C200.862 260.972 199.182 259.772 196.926 259.772ZM196.926 260.588C198.642 260.588 199.914 261.464 199.914 262.772C199.914 264.068 198.642 264.956 196.926 264.956C195.21 264.956 193.938 264.068 193.938 262.772C193.938 261.464 195.21 260.588 196.926 260.588ZM192.03 267.668V268.508H201.858V267.668H192.03ZM203.069 267.776V268.604H212.897V267.776H203.069ZM207.461 265.448V268.124H208.457V265.448H207.461ZM204.257 259.892V260.696H210.701V262.376H204.293V265.352H205.277V263.18H211.685V259.892H204.257ZM204.293 264.932V265.748H211.937V264.932H204.293ZM221.428 259.832V260.66C221.428 262.508 219.388 264.164 217.48 264.524L217.924 265.352C220.096 264.86 222.292 263.024 222.292 260.66V259.832H221.428ZM221.608 259.832V260.66C221.608 263.036 223.816 264.86 225.976 265.352L226.42 264.524C224.524 264.164 222.472 262.52 222.472 260.66V259.832H221.608ZM217.084 267.656V268.472H226.912V267.656H217.084ZM228.543 260.168V267.188H233.523V260.168H228.543ZM232.551 260.972V266.384H229.515V260.972H232.551ZM235.455 259.088V269.936H236.463V259.088H235.455ZM236.223 263.42V264.26H238.239V263.42H236.223ZM240.423 264.932V265.736H247.875V264.932H240.423ZM239.163 267.716V268.544H248.991V267.716H239.163ZM240.423 260.012V265.184H241.431V260.828H247.755V260.012H240.423ZM241.107 262.436V263.228H247.527V262.436H241.107ZM258.398 259.1V265.664H259.346V259.1H258.398ZM256.682 261.932V262.748H258.722V261.932H256.682ZM256.118 259.268V265.604H257.066V259.268H256.118ZM251.966 266.216V267.02H258.362V269.936H259.346V266.216H251.966ZM250.334 260.036V260.852H255.386V260.036H250.334ZM250.262 265.064C251.678 265.064 253.934 265.028 255.662 264.728L255.602 263.984C253.922 264.212 251.582 264.236 250.154 264.236L250.262 265.064ZM251.258 260.576V264.392H252.17V260.576H251.258ZM253.562 260.576V264.392H254.474V260.576H253.562ZM262.501 264.716V265.52H269.953V264.716H262.501ZM261.241 267.764V268.592H271.069V267.764H261.241ZM265.645 265.136V268.148H266.629V265.136H265.645ZM262.501 259.964V265.016H263.509V260.78H269.833V259.964H262.501ZM263.185 262.292V263.096H269.605V262.292H263.185ZM280.176 259.076V269.948H281.172V259.076H280.176ZM272.904 266.504V267.332H273.804C275.664 267.332 277.296 267.26 279.264 266.936L279.156 266.12C277.236 266.432 275.616 266.504 273.804 266.504H272.904ZM272.88 260.096V260.912H276.888V263.156H272.904V266.816H273.9V263.972H277.896V260.096H272.88ZM287.519 259.796V260.6H294.299V259.796H287.519ZM286.295 264.452V265.268H296.099V264.452H286.295ZM290.675 264.992V269.948H291.671V264.992H290.675ZM293.831 259.796V260.732C293.831 261.824 293.831 263.084 293.411 264.836L294.395 264.968C294.803 263.132 294.803 261.86 294.803 260.732V259.796H293.831ZM301.738 265.124V266.828H302.722V265.124H301.738ZM297.322 264.548V265.352H307.126V264.548H297.322ZM298.414 266.576V267.392H304.918V269.9H305.914V266.576H298.414ZM301.738 259.028V260.54H302.722V259.028H301.738ZM301.69 260.672V260.852C301.69 262.1 300.01 262.988 297.91 263.18L298.222 263.936C300.586 263.684 302.566 262.64 302.566 260.852V260.672H301.69ZM301.894 260.672V260.852C301.894 262.64 303.862 263.684 306.238 263.936L306.55 263.18C304.45 262.988 302.77 262.1 302.77 260.852V260.672H301.894ZM298.33 260.144V260.948H306.13V260.144H298.33ZM313.269 259.268C310.869 259.268 309.453 259.94 309.453 261.152C309.453 262.364 310.869 263.036 313.269 263.036C315.657 263.036 317.085 262.364 317.085 261.152C317.085 259.94 315.657 259.268 313.269 259.268ZM313.269 260.024C315.033 260.024 316.053 260.432 316.053 261.152C316.053 261.872 315.033 262.28 313.269 262.28C311.493 262.28 310.473 261.872 310.473 261.152C310.473 260.432 311.493 260.024 313.269 260.024ZM308.361 263.756V264.56H318.165V263.756H308.361ZM309.549 265.484V266.252H315.933V267.212H309.573V269.252H310.557V267.932H316.917V265.484H309.549ZM309.573 269.036V269.816H317.241V269.036H309.573ZM322.377 264.836V265.64H332.181V264.836H322.377ZM326.781 263.432V265.172H327.765V263.432H326.781ZM323.673 262.988V263.768H331.029V262.988H323.673ZM323.673 259.4V263.408H324.657V260.18H330.981V259.4H323.673ZM324.369 261.176V261.944H330.693V261.176H324.369ZM327.273 266.444C324.909 266.444 323.553 267.044 323.553 268.184C323.553 269.312 324.909 269.912 327.273 269.912C329.637 269.912 330.993 269.312 330.993 268.184C330.993 267.044 329.637 266.444 327.273 266.444ZM327.273 267.2C329.013 267.2 329.985 267.548 329.985 268.184C329.985 268.832 329.013 269.168 327.273 269.168C325.533 269.168 324.561 268.832 324.561 268.184C324.561 267.548 325.533 267.2 327.273 267.2ZM333.404 260.936V261.752H338.78V260.936H333.404ZM336.092 262.472C334.748 262.472 333.764 263.492 333.764 264.956C333.764 266.408 334.748 267.428 336.092 267.428C337.448 267.428 338.432 266.408 338.432 264.956C338.432 263.492 337.448 262.472 336.092 262.472ZM336.092 263.324C336.932 263.324 337.544 263.996 337.544 264.956C337.544 265.916 336.932 266.588 336.092 266.588C335.264 266.588 334.664 265.916 334.664 264.956C334.664 263.996 335.264 263.324 336.092 263.324ZM341.648 259.088V269.936H342.608V259.088H341.648ZM339.92 263.648V264.476H341.972V263.648H339.92ZM339.332 259.328V269.408H340.268V259.328H339.332ZM335.612 259.4V261.44H336.596V259.4H335.612ZM105.844 273.088V283.936H106.804V273.088H105.844ZM101.896 276.976V277.804H103.972V276.976H101.896ZM103.672 273.34V283.384H104.608V273.34H103.672ZM99.808 274.768V276.148C99.808 278.14 98.968 280.12 97.456 281.032L98.068 281.776C99.664 280.768 100.576 278.524 100.576 276.148V274.768H99.808ZM100.012 274.768V276.148C100.012 278.416 100.888 280.552 102.472 281.512L103.084 280.78C101.596 279.916 100.78 278.032 100.78 276.148V274.768H100.012ZM97.756 274.348V275.176H102.712V274.348H97.756ZM108.639 281.716V282.544H118.467V281.716H108.639ZM113.055 279.088V281.992H114.039V279.088H113.055ZM113.031 274.456V275.128C113.031 276.844 110.979 278.368 109.107 278.68L109.515 279.472C111.651 279.028 113.871 277.348 113.871 275.128V274.456H113.031ZM113.211 274.456V275.128C113.211 277.348 115.443 279.004 117.615 279.436L118.011 278.644C116.115 278.332 114.051 276.844 114.051 275.128V274.456H113.211ZM109.443 274.072V274.888H117.639V274.072H109.443ZM127.598 273.1V281.368H128.594V273.1H127.598ZM125.762 275.968V276.784H128.018V275.968H125.762ZM125.762 278.26V279.064H128.018V278.26H125.762ZM119.69 274.408V275.212H125.762V274.408H119.69ZM122.762 275.812C121.31 275.812 120.302 276.64 120.302 277.888C120.302 279.124 121.31 279.964 122.762 279.964C124.202 279.964 125.21 279.124 125.21 277.888C125.21 276.64 124.202 275.812 122.762 275.812ZM122.762 276.592C123.662 276.592 124.274 277.12 124.274 277.888C124.274 278.656 123.662 279.172 122.762 279.172C121.862 279.172 121.25 278.656 121.25 277.888C121.25 277.12 121.862 276.592 122.762 276.592ZM122.27 273.076V274.924H123.266V273.076H122.27ZM121.622 282.88V283.696H128.858V282.88H121.622ZM121.622 280.66V283.276H122.618V280.66H121.622ZM133.381 274.252V275.128C133.381 276.676 132.301 278.08 130.669 278.656L131.173 279.448C132.997 278.788 134.197 277.12 134.197 275.128V274.252H133.381ZM133.561 274.252V275.116C133.561 276.964 134.713 278.512 136.525 279.112L137.005 278.332C135.409 277.804 134.377 276.532 134.377 275.116V274.252H133.561ZM130.969 273.892V274.708H136.765V273.892H130.969ZM138.133 273.088V279.628H139.129V273.088H138.133ZM138.853 275.836V276.676H140.737V275.836H138.853ZM135.673 279.916C133.465 279.916 132.109 280.648 132.109 281.908C132.109 283.18 133.465 283.912 135.673 283.912C137.881 283.912 139.237 283.18 139.237 281.908C139.237 280.648 137.881 279.916 135.673 279.916ZM135.673 280.72C137.281 280.72 138.265 281.152 138.265 281.908C138.265 282.676 137.281 283.132 135.673 283.132C134.065 283.132 133.081 282.676 133.081 281.908C133.081 281.152 134.065 280.72 135.673 280.72ZM145.272 273.868C143.58 273.868 142.356 274.912 142.356 276.424C142.356 277.948 143.58 278.992 145.272 278.992C146.964 278.992 148.176 277.948 148.176 276.424C148.176 274.912 146.964 273.868 145.272 273.868ZM145.272 274.732C146.388 274.732 147.204 275.416 147.204 276.424C147.204 277.432 146.388 278.128 145.272 278.128C144.144 278.128 143.328 277.432 143.328 276.424C143.328 275.416 144.144 274.732 145.272 274.732ZM149.592 273.076V283.948H150.588V273.076H149.592ZM141.948 281.572C143.88 281.572 146.532 281.56 148.968 281.092L148.884 280.36C146.52 280.732 143.784 280.744 141.804 280.744L141.948 281.572ZM160.956 275.08V275.896H163.86V275.08H160.956ZM160.86 277.336V278.152H163.788V277.336H160.86ZM163.692 273.088V279.592H164.688V273.088H163.692ZM160.296 273.904V274.336C160.296 276.388 158.676 277.984 155.904 278.788L156.312 279.592C159.432 278.656 161.364 276.7 161.364 273.904H160.296ZM156.468 273.904V274.72H160.98V273.904H156.468ZM161.16 279.712C158.964 279.712 157.572 280.492 157.572 281.8C157.572 283.108 158.964 283.888 161.16 283.888C163.356 283.888 164.748 283.108 164.748 281.8C164.748 280.492 163.356 279.712 161.16 279.712ZM161.16 280.492C162.756 280.492 163.776 280.984 163.776 281.8C163.776 282.616 162.756 283.096 161.16 283.096C159.576 283.096 158.556 282.616 158.556 281.8C158.556 280.984 159.576 280.492 161.16 280.492ZM169.043 274.408V275.284C169.043 276.628 168.263 277.996 166.847 278.596L167.375 279.364C168.971 278.668 169.835 277.024 169.835 275.284V274.408H169.043ZM169.223 274.408V275.284C169.223 276.976 170.027 278.44 171.575 279.076L172.103 278.308C170.747 277.78 170.003 276.592 170.003 275.284V274.408H169.223ZM167.063 273.988V274.804H171.911V273.988H167.063ZM174.995 273.1V279.736H175.943V273.1H174.995ZM173.267 275.968V276.784H175.319V275.968H173.267ZM172.691 273.304V279.388H173.627V273.304H172.691ZM172.379 279.988C170.135 279.988 168.767 280.708 168.767 281.956C168.767 283.192 170.135 283.912 172.379 283.912C174.611 283.912 176.003 283.192 176.003 281.956C176.003 280.708 174.611 279.988 172.379 279.988ZM172.379 280.768C174.011 280.768 175.007 281.2 175.007 281.956C175.007 282.7 174.011 283.132 172.379 283.132C170.747 283.132 169.739 282.7 169.739 281.956C169.739 281.2 170.747 280.768 172.379 280.768ZM178.294 278.464V279.28H179.074C181.246 279.28 182.326 279.244 183.67 279.004L183.562 278.2C182.266 278.428 181.21 278.464 179.074 278.464H178.294ZM178.27 273.736V274.552H181.966V276.04H178.294V278.956H179.278V276.82H182.95V273.736H178.27ZM185.77 273.1V279.76H186.766V273.1H185.77ZM183.67 274.696V275.512H185.998V274.696H183.67ZM183.67 276.94V277.756H185.998V276.94H183.67ZM179.506 280.348V281.164H185.77V283.96H186.766V280.348H179.506ZM193.785 273.268C191.385 273.268 189.969 273.94 189.969 275.152C189.969 276.364 191.385 277.036 193.785 277.036C196.173 277.036 197.601 276.364 197.601 275.152C197.601 273.94 196.173 273.268 193.785 273.268ZM193.785 274.024C195.549 274.024 196.569 274.432 196.569 275.152C196.569 275.872 195.549 276.28 193.785 276.28C192.009 276.28 190.989 275.872 190.989 275.152C190.989 274.432 192.009 274.024 193.785 274.024ZM188.877 277.756V278.56H198.681V277.756H188.877ZM190.065 279.484V280.252H196.449V281.212H190.089V283.252H191.073V281.932H197.433V279.484H190.065ZM190.089 283.036V283.816H197.757V283.036H190.089ZM210.321 273.088V279.58H211.317V273.088H210.321ZM211.041 275.884V276.724H212.925V275.884H211.041ZM207.321 273.88V274.336C207.321 276.364 205.665 277.996 202.905 278.812L203.325 279.616C206.457 278.692 208.389 276.664 208.389 273.88H207.321ZM203.385 273.88V274.708H207.885V273.88H203.385ZM207.921 279.712C205.761 279.712 204.381 280.504 204.381 281.812C204.381 283.12 205.761 283.912 207.921 283.912C210.069 283.912 211.437 283.12 211.437 281.812C211.437 280.504 210.069 279.712 207.921 279.712ZM207.921 280.504C209.481 280.504 210.477 280.996 210.477 281.812C210.477 282.628 209.481 283.12 207.921 283.12C206.361 283.12 205.365 282.628 205.365 281.812C205.365 280.996 206.361 280.504 207.921 280.504ZM216.752 279.556V281.32H217.748V279.556H216.752ZM221.312 273.088V283.936H222.308V273.088H221.312ZM221.984 277.696V278.536H223.988V277.696H221.984ZM213.956 281.872C215.852 281.872 218.396 281.86 220.736 281.44L220.652 280.696C218.408 281.02 215.756 281.044 213.812 281.044L213.956 281.872ZM213.992 274.396V275.2H220.484V274.396H213.992ZM217.244 275.836C215.732 275.836 214.7 276.628 214.7 277.84C214.7 279.064 215.732 279.844 217.244 279.844C218.756 279.844 219.8 279.064 219.8 277.84C219.8 276.628 218.756 275.836 217.244 275.836ZM217.244 276.604C218.216 276.604 218.864 277.096 218.864 277.84C218.864 278.584 218.216 279.076 217.244 279.076C216.272 279.076 215.636 278.584 215.636 277.84C215.636 277.096 216.272 276.604 217.244 276.604ZM216.752 273.1V274.936H217.748V273.1H216.752ZM227.839 274.024V275.968C227.839 278.02 226.531 280.096 224.923 280.864L225.535 281.68C227.311 280.78 228.655 278.464 228.655 275.968V274.024H227.839ZM228.007 274.024V275.968C228.007 278.38 229.363 280.612 231.127 281.476L231.727 280.684C230.119 279.94 228.823 277.948 228.823 275.968V274.024H228.007ZM232.855 273.076V283.948H233.851V273.076H232.855ZM240.822 274.216V274.324C240.822 277.288 239.658 279.712 236.226 281.392L236.766 282.172C240.678 280.252 241.782 277.348 241.782 274.216H240.822ZM236.814 274.216V275.02H241.326V274.216H236.814ZM240.678 276.904L236.274 277.192L236.442 278.068L240.678 277.672V276.904ZM243.918 273.088V283.936H244.914V273.088H243.918ZM248.093 274.168V274.996H255.077V274.168H248.093ZM247.061 281.596V282.424H256.865V281.596H247.061ZM250.865 277.72V282.004H251.861V277.72H250.865ZM254.705 274.168V275.248C254.705 276.544 254.705 278.068 254.297 280.144L255.293 280.276C255.689 278.08 255.689 276.592 255.689 275.248V274.168H254.705ZM263.345 273.76V275.212C263.345 276.436 262.493 277.84 261.065 278.464L261.605 279.244C263.201 278.536 264.137 276.832 264.137 275.212V273.76H263.345ZM263.501 273.76V275.212C263.501 276.808 264.401 278.308 265.961 278.932L266.501 278.176C265.109 277.636 264.293 276.412 264.293 275.212V273.76H263.501ZM269.261 273.1V279.784H270.209V273.1H269.261ZM267.533 275.992V276.808H269.585V275.992H267.533ZM266.933 273.304V279.436H267.881V273.304H266.933ZM266.645 280.024C264.401 280.024 263.033 280.744 263.033 281.98C263.033 283.204 264.401 283.912 266.645 283.912C268.877 283.912 270.269 283.204 270.269 281.98C270.269 280.744 268.877 280.024 266.645 280.024ZM266.645 280.804C268.277 280.804 269.273 281.236 269.273 281.98C269.273 282.712 268.277 283.144 266.645 283.144C265.013 283.144 264.005 282.712 264.005 281.98C264.005 281.236 265.013 280.804 266.645 280.804ZM274.78 273.748V275.08C274.78 276.76 273.724 278.224 272.068 278.812L272.596 279.604C274.42 278.896 275.596 277.204 275.596 275.08V273.748H274.78ZM274.948 273.748V275.116C274.948 277.024 276.148 278.68 277.936 279.328L278.428 278.548C276.844 277.984 275.764 276.592 275.764 275.116V273.748H274.948ZM279.532 273.076V281.092H280.528V273.076H279.532ZM280.216 276.412V277.24H282.136V276.412H280.216ZM273.796 282.88V283.696H281.008V282.88H273.796ZM273.796 280.336V283.276H274.792V280.336H273.796ZM285.879 273.7V274.816C285.879 276.472 284.799 277.924 283.143 278.512L283.659 279.328C285.519 278.632 286.707 276.916 286.707 274.816V273.7H285.879ZM286.059 273.7V274.78C286.059 276.748 287.223 278.344 288.975 279.004L289.515 278.224C287.931 277.672 286.875 276.316 286.875 274.78V273.7H286.059ZM291.075 273.088V279.508H292.071V273.088H291.075ZM288.507 279.82C286.263 279.82 284.883 280.576 284.883 281.872C284.883 283.168 286.263 283.912 288.507 283.912C290.739 283.912 292.119 283.168 292.119 281.872C292.119 280.576 290.739 279.82 288.507 279.82ZM288.507 280.612C290.139 280.612 291.135 281.08 291.135 281.872C291.135 282.664 290.139 283.132 288.507 283.132C286.875 283.132 285.879 282.664 285.879 281.872C285.879 281.08 286.875 280.612 288.507 280.612ZM288.723 275.38V276.208H291.291V275.38H288.723ZM299.09 273.268C296.69 273.268 295.274 273.94 295.274 275.152C295.274 276.364 296.69 277.036 299.09 277.036C301.478 277.036 302.906 276.364 302.906 275.152C302.906 273.94 301.478 273.268 299.09 273.268ZM299.09 274.024C300.854 274.024 301.874 274.432 301.874 275.152C301.874 275.872 300.854 276.28 299.09 276.28C297.314 276.28 296.294 275.872 296.294 275.152C296.294 274.432 297.314 274.024 299.09 274.024ZM294.182 277.756V278.56H303.986V277.756H294.182ZM295.37 279.484V280.252H301.754V281.212H295.394V283.252H296.378V281.932H302.738V279.484H295.37ZM295.394 283.036V283.816H303.062V283.036H295.394ZM316.321 274.96V275.788H318.205V274.96H316.321ZM316.321 277.276V278.104H318.205V277.276H316.321ZM315.625 273.088V280.072H316.621V273.088H315.625ZM313.213 280.168C311.029 280.168 309.685 280.852 309.685 282.04C309.685 283.228 311.029 283.912 313.213 283.912C315.409 283.912 316.741 283.228 316.741 282.04C316.741 280.852 315.409 280.168 313.213 280.168ZM313.213 280.936C314.809 280.936 315.769 281.344 315.769 282.04C315.769 282.748 314.809 283.144 313.213 283.144C311.629 283.144 310.669 282.748 310.669 282.04C310.669 281.344 311.629 280.936 313.213 280.936ZM308.233 274.312V275.104H314.641V274.312H308.233ZM311.437 275.656C309.877 275.656 308.833 276.4 308.833 277.564C308.833 278.74 309.877 279.484 311.437 279.484C312.985 279.484 314.029 278.74 314.029 277.564C314.029 276.4 312.985 275.656 311.437 275.656ZM311.437 276.412C312.409 276.412 313.081 276.868 313.081 277.564C313.081 278.272 312.409 278.728 311.437 278.728C310.441 278.728 309.781 278.272 309.781 277.564C309.781 276.868 310.441 276.412 311.437 276.412ZM310.933 272.992V274.756H311.929V272.992H310.933ZM321.876 273.652V274.756C321.876 276.412 320.82 277.876 319.188 278.476L319.716 279.28C321.528 278.572 322.704 276.844 322.704 274.756V273.652H321.876ZM322.056 273.652V274.828C322.056 276.712 323.244 278.32 324.984 278.968L325.512 278.188C323.952 277.648 322.872 276.292 322.872 274.828V273.652H322.056ZM326.664 273.088V279.664H327.66V273.088H326.664ZM327.384 275.884V276.724H329.268V275.884H327.384ZM324.204 279.964C321.984 279.964 320.64 280.696 320.64 281.944C320.64 283.192 321.984 283.912 324.204 283.912C326.424 283.912 327.768 283.192 327.768 281.944C327.768 280.696 326.424 279.964 324.204 279.964ZM324.204 280.756C325.812 280.756 326.796 281.188 326.796 281.944C326.796 282.7 325.812 283.132 324.204 283.132C322.596 283.132 321.612 282.7 321.612 281.944C321.612 281.188 322.596 280.756 324.204 280.756ZM333.144 274.024V275.968C333.144 278.02 331.836 280.096 330.228 280.864L330.84 281.68C332.616 280.78 333.96 278.464 333.96 275.968V274.024H333.144ZM333.312 274.024V275.968C333.312 278.38 334.668 280.612 336.432 281.476L337.032 280.684C335.424 279.94 334.128 277.948 334.128 275.968V274.024H333.312ZM338.16 273.076V283.948H339.156V273.076H338.16ZM346.127 274.216V274.324C346.127 277.288 344.963 279.712 341.531 281.392L342.071 282.172C345.983 280.252 347.087 277.348 347.087 274.216H346.127ZM342.119 274.216V275.02H346.631V274.216H342.119ZM345.983 276.904L341.579 277.192L341.747 278.068L345.983 277.672V276.904ZM349.223 273.088V283.936H350.219V273.088H349.223ZM353.398 274.168V274.996H360.382V274.168H353.398ZM352.366 281.596V282.424H362.17V281.596H352.366ZM356.17 277.72V282.004H357.166V277.72H356.17ZM360.01 274.168V275.248C360.01 276.544 360.01 278.068 359.602 280.144L360.598 280.276C360.994 278.08 360.994 276.592 360.994 275.248V274.168H360.01ZM374.265 273.1V279.112H375.273V273.1H374.265ZM369.201 273.484V274.54C369.201 276.1 368.073 277.54 366.441 278.116L366.945 278.896C368.781 278.236 370.029 276.544 370.029 274.54V273.484H369.201ZM369.381 273.484V274.54C369.381 276.484 370.629 278.08 372.453 278.704L372.945 277.912C371.337 277.384 370.197 276.052 370.197 274.54V273.484H369.381ZM368.097 279.76V280.576H375.333V279.76H368.097ZM367.989 282.988V283.792H375.453V282.988H367.989ZM369.585 280.108V283.456H370.557V280.108H369.585ZM372.873 280.108V283.456H373.857V280.108H372.873ZM377.408 278.788V279.604H387.212V278.788H377.408ZM378.68 282.88V283.696H386.132V282.88H378.68ZM378.68 280.552V283.132H379.676V280.552H378.68ZM382.316 273.448C379.988 273.448 378.5 274.264 378.5 275.62C378.5 276.964 379.988 277.78 382.316 277.78C384.632 277.78 386.132 276.964 386.132 275.62C386.132 274.264 384.632 273.448 382.316 273.448ZM382.316 274.264C384.02 274.264 385.112 274.768 385.112 275.62C385.112 276.472 384.02 276.976 382.316 276.976C380.612 276.976 379.52 276.472 379.52 275.62C379.52 274.768 380.612 274.264 382.316 274.264ZM105.496 287.088V297.936H106.492V287.088H105.496ZM102.316 288.252V288.42C102.316 291.3 100.864 293.604 97.732 295.116L98.26 295.92C101.884 294.144 103.3 291.396 103.3 288.252H102.316ZM98.224 288.252V289.068H102.748V288.252H98.224ZM114.087 289.668V290.496H117.003V289.668H114.087ZM111.591 287.58C109.971 287.58 108.795 288.612 108.795 290.1C108.795 291.588 109.971 292.608 111.591 292.608C113.211 292.608 114.387 291.588 114.387 290.1C114.387 288.612 113.211 287.58 111.591 287.58ZM111.591 288.42C112.659 288.42 113.427 289.104 113.427 290.1C113.427 291.084 112.659 291.78 111.591 291.78C110.523 291.78 109.755 291.084 109.755 290.1C109.755 289.104 110.523 288.42 111.591 288.42ZM116.559 287.088V292.908H117.555V287.088H116.559ZM110.607 293.448V297.792H117.555V293.448H116.571V294.816H111.603V293.448H110.607ZM111.603 295.608H116.571V296.988H111.603V295.608ZM127.55 287.076V297.948H128.546V287.076H127.55ZM122.822 287.916C121.226 287.916 120.074 289.392 120.074 291.696C120.074 294.012 121.226 295.488 122.822 295.488C124.43 295.488 125.582 294.012 125.582 291.696C125.582 289.392 124.43 287.916 122.822 287.916ZM122.822 288.816C123.89 288.816 124.622 289.944 124.622 291.696C124.622 293.46 123.89 294.612 122.822 294.612C121.766 294.612 121.022 293.46 121.022 291.696C121.022 289.944 121.766 288.816 122.822 288.816ZM135.913 288.996V289.812H138.949V288.996H135.913ZM135.913 291.312V292.14H138.973V291.312H135.913ZM131.209 288.024V293.112H136.165V288.024H131.209ZM135.181 288.828V292.308H132.181V288.828H135.181ZM138.637 287.1V295.02H139.633V287.1H138.637ZM132.661 296.88V297.696H139.897V296.88H132.661ZM132.661 294.3V297.252H133.657V294.3H132.661ZM145.993 290.724V291.54H153.421V290.724H145.993ZM144.733 293.172V293.988H154.561V293.172H144.733ZM149.113 293.616V297.936H150.097V293.616H149.113ZM145.993 287.628V291.132H146.989V287.628H145.993ZM156.996 287.796V288.6H163.776V287.796H156.996ZM155.772 292.452V293.268H165.576V292.452H155.772ZM160.152 292.992V297.948H161.148V292.992H160.152ZM163.308 287.796V288.732C163.308 289.824 163.308 291.084 162.888 292.836L163.872 292.968C164.28 291.132 164.28 289.86 164.28 288.732V287.796H163.308ZM174.875 291.408V292.248H176.879V291.408H174.875ZM174.143 287.076V297.936H175.151V287.076H174.143ZM167.231 288.144V294.864H168.227V288.144H167.231ZM167.231 294.348V295.188H168.095C169.739 295.188 171.407 295.08 173.255 294.696L173.135 293.868C171.347 294.24 169.703 294.348 168.095 294.348H167.231ZM183.695 288.636V290.4C183.695 292.272 182.387 294.312 180.815 295.056L181.391 295.848C183.119 294.996 184.499 292.692 184.499 290.4V288.636H183.695ZM183.887 288.636V290.4C183.887 292.656 185.279 294.768 187.031 295.584L187.595 294.792C185.999 294.108 184.691 292.236 184.691 290.4V288.636H183.887ZM181.175 288.192V289.032H187.235V288.192H181.175ZM188.699 287.088V297.936H189.695V287.088H188.699ZM194.938 292.548V294.96H195.934V292.548H194.938ZM199.75 287.088V295.344H200.746V287.088H199.75ZM193.342 296.88V297.696H201.01V296.88H193.342ZM193.342 294.54V297.108H194.338V294.54H193.342ZM191.938 292.92C193.906 292.92 196.534 292.884 198.874 292.512L198.802 291.78C196.498 292.08 193.81 292.104 191.806 292.104L191.938 292.92ZM197.542 293.496V294.228H200.002V293.496H197.542ZM195.334 287.532C193.738 287.532 192.658 288.276 192.658 289.416C192.658 290.568 193.738 291.312 195.334 291.312C196.918 291.312 197.998 290.568 197.998 289.416C197.998 288.276 196.918 287.532 195.334 287.532ZM195.334 288.276C196.342 288.276 197.05 288.72 197.05 289.416C197.05 290.112 196.342 290.556 195.334 290.556C194.314 290.556 193.606 290.112 193.606 289.416C193.606 288.72 194.314 288.276 195.334 288.276ZM210.321 287.052V293.04H211.317V287.052H210.321ZM210.897 289.656V290.496H212.925V289.656H210.897ZM204.429 293.592V294.348H210.345V295.296H204.453V297.336H205.437V296.016H211.317V293.592H204.429ZM204.453 297.048V297.816H211.713V297.048H204.453ZM202.929 288.06V288.84H209.337V288.06H202.929ZM206.133 289.32C204.549 289.32 203.529 290.004 203.529 291.108C203.529 292.2 204.549 292.872 206.133 292.872C207.693 292.872 208.725 292.2 208.725 291.108C208.725 290.004 207.693 289.32 206.133 289.32ZM206.133 290.052C207.129 290.052 207.777 290.46 207.777 291.108C207.777 291.744 207.129 292.152 206.133 292.152C205.125 292.152 204.477 291.744 204.477 291.108C204.477 290.46 205.125 290.052 206.133 290.052ZM205.629 286.968V288.6H206.625V286.968H205.629ZM221.3 287.472V288.072C221.3 289.62 219.392 290.916 217.412 291.216L217.808 292.02C220.064 291.636 222.176 290.148 222.176 288.072V287.472H221.3ZM221.48 287.472V288.072C221.48 290.124 223.604 291.636 225.836 292.02L226.232 291.216C224.276 290.916 222.344 289.584 222.344 288.072V287.472H221.48ZM221.3 293.808V297.936H222.284V293.808H221.3ZM216.92 293.196V294.024H226.724V293.196H216.92ZM233.636 293.76V294.348C233.636 295.392 232.82 296.556 231.452 297.048L231.956 297.792C233.516 297.192 234.404 295.764 234.404 294.348V293.76H233.636ZM233.852 293.76V294.348C233.852 295.788 234.56 297.276 236.12 297.888L236.54 297.132C235.244 296.604 234.596 295.44 234.596 294.348V293.76H233.852ZM237.644 293.76V294.348C237.644 295.284 236.984 296.544 235.7 297.132L236.12 297.888C237.668 297.228 238.388 295.62 238.388 294.348V293.76H237.644ZM237.848 293.76V294.348C237.848 295.848 238.712 297.216 240.296 297.792L240.8 297.048C239.42 296.58 238.616 295.464 238.616 294.348V293.76H237.848ZM238.82 287.1V293.292H239.828V287.1H238.82ZM234.008 287.724C232.364 287.724 231.176 288.756 231.176 290.256C231.176 291.756 232.364 292.776 234.008 292.776C235.652 292.776 236.828 291.756 236.828 290.256C236.828 288.756 235.652 287.724 234.008 287.724ZM234.008 288.552C235.088 288.552 235.868 289.248 235.868 290.256C235.868 291.264 235.088 291.948 234.008 291.948C232.928 291.948 232.148 291.264 232.148 290.256C232.148 289.248 232.928 288.552 234.008 288.552ZM243.211 293.592V297.792H250.495V293.592H249.499V294.852H244.195V293.592H243.211ZM244.195 295.62H249.499V296.988H244.195V295.62ZM241.963 292.032V292.836H251.767V292.032H241.963ZM246.367 287.208V287.688C246.367 289.056 244.483 290.22 242.527 290.484L242.887 291.264C245.119 290.928 247.219 289.572 247.219 287.688V287.208H246.367ZM246.523 287.208V287.688C246.523 289.548 248.635 290.928 250.843 291.264L251.215 290.484C249.283 290.22 247.375 289.032 247.375 287.688V287.208H246.523ZM260.898 287.088V297.936H261.894V287.088H260.898ZM253.698 288.144V294.864H254.682V288.144H253.698ZM253.698 294.276V295.14H254.586C256.302 295.14 258.018 295.008 259.902 294.624L259.782 293.772C257.946 294.156 256.23 294.276 254.586 294.276H253.698ZM271.385 287.076V297.948H272.393V287.076H271.385ZM272.153 291.36V292.2H274.169V291.36H272.153ZM264.509 294.408V295.248H265.361C267.401 295.248 268.829 295.188 270.497 294.876L270.389 294.036C268.769 294.336 267.365 294.408 265.361 294.408H264.509ZM264.509 288.132V294.78H265.493V288.948H269.549V288.132H264.509ZM275.336 296.426C275.336 296.242 275.393 296.088 275.506 295.963C275.623 295.834 275.791 295.77 276.01 295.77C276.229 295.77 276.395 295.834 276.508 295.963C276.625 296.088 276.684 296.242 276.684 296.426C276.684 296.605 276.625 296.758 276.508 296.883C276.395 297.008 276.229 297.07 276.01 297.07C275.791 297.07 275.623 297.008 275.506 296.883C275.393 296.758 275.336 296.605 275.336 296.426Z" fill="#565656"/>
<path d="M199.727 134.48V136.49C199.727 140.48 196.277 144.89 190.007 145.97L191.717 149.27C198.917 147.86 203.207 142.52 203.207 136.49V134.48H199.727ZM200.537 134.48V136.49C200.537 142.61 204.797 147.86 211.997 149.27L213.707 145.97C207.407 144.89 203.987 140.57 203.987 136.49V134.48H200.537ZM189.437 154.04V157.28H214.577V154.04H189.437ZM217.845 135.5V153.92H231.135V135.5H217.845ZM227.205 138.62V150.77H221.775V138.62H227.205ZM234.765 132.89V160.67H238.785V132.89H234.765ZM237.885 143.36V146.66H242.805V143.36H237.885ZM247.572 147.2V150.32H267.102V147.2H247.572ZM244.632 154.25V157.49H269.772V154.25H244.632ZM247.572 134.9V148.07H251.622V138.11H266.862V134.9H247.572ZM250.392 141.02V144.11H266.232V141.02H250.392ZM292.09 132.92V149.93H295.9V132.92H292.09ZM288.97 139.88V143.09H293.38V139.88H288.97ZM286.48 133.25V149.84H290.23V133.25H286.48ZM276.37 151.16V154.31H291.91V160.67H295.9V151.16H276.37ZM272.44 135.11V138.32H285.16V135.11H272.44ZM272.38 148.97C275.83 148.97 281.41 148.88 285.67 148.04L285.43 145.13C281.32 145.7 275.5 145.76 271.99 145.76L272.38 148.97ZM274.15 137.24V146.42H277.75V137.24H274.15ZM279.88 137.24V146.42H283.45V137.24H279.88ZM302.768 146.63V149.78H322.298V146.63H302.768ZM299.828 154.4V157.61H324.968V154.4H299.828ZM310.388 148.22V155.81H314.378V148.22H310.388ZM302.768 134.78V147.83H306.818V137.96H322.058V134.78H302.768ZM305.588 140.66V143.78H321.428V140.66H305.588ZM346.535 132.86V160.73H350.525V132.86H346.535ZM328.895 151.01V154.25H331.355C336.425 154.25 340.505 154.1 345.005 153.29L344.615 150.08C340.205 150.83 336.275 151.01 331.355 151.01H328.895ZM328.865 135.23V138.41H337.895V142.82H328.895V152.21H332.945V145.97H341.975V135.23H328.865Z" fill="#025FBE"/>
<g clip-path="url(#clip0_205_696)">
<path d="M173.341 150.275C176.56 151.079 178.257 153.933 177.967 156.738C177.704 159.275 175.657 161.905 172.054 162.075C172.054 162.747 172.054 163.42 172.054 164.098C172.054 164.743 171.803 165 171.167 165C160.387 165 149.602 165 138.822 165C138.209 165 137.951 164.743 137.946 164.131C137.94 163.453 137.946 162.775 137.946 162.058C136.123 161.998 134.606 161.315 133.424 159.948C132.602 158.996 132.131 157.886 132.022 156.634C131.792 154.021 133.325 151.134 136.719 150.254C136.489 149.652 136.243 149.062 136.041 148.46C135.854 147.919 135.69 147.372 135.564 146.82C135.499 146.535 135.389 146.443 135.099 146.453C134.36 146.475 133.615 146.464 132.876 146.459C132.268 146.453 132.011 146.196 132.011 145.579C132.011 143.2 132.011 140.816 132.011 138.438C132.011 137.82 132.268 137.563 132.876 137.563C133.632 137.557 134.393 137.574 135.148 137.552C135.274 137.547 135.488 137.432 135.515 137.328C136.03 135.195 136.878 133.205 138.061 131.302C137.398 130.646 136.741 130.001 136.09 129.35C135.564 128.826 135.564 128.492 136.084 127.973C137.71 126.343 139.336 124.714 140.968 123.09C141.483 122.576 141.822 122.576 142.342 123.101C142.983 123.746 143.623 124.397 144.253 125.036C145.107 124.593 145.901 124.112 146.749 123.762C147.872 123.303 149.038 122.937 150.193 122.565C150.467 122.477 150.565 122.385 150.56 122.1C150.538 121.357 150.549 120.618 150.554 119.875C150.56 119.284 150.812 119.016 151.392 119.011C153.801 119.005 156.21 119.005 158.619 119.011C159.177 119.011 159.44 119.279 159.446 119.831C159.451 120.602 159.435 121.378 159.457 122.149C159.462 122.275 159.583 122.488 159.681 122.516C161.811 123.03 163.798 123.883 165.703 125.064C166.36 124.402 167.007 123.746 167.658 123.09C168.178 122.57 168.512 122.565 169.032 123.09C170.664 124.714 172.29 126.343 173.916 127.973C174.43 128.487 174.425 128.826 173.899 129.35C173.253 129.996 172.602 130.63 171.972 131.253C172.432 132.155 172.93 132.992 173.292 133.883C173.735 134.966 174.08 136.087 174.436 137.202C174.524 137.481 174.622 137.568 174.901 137.563C175.64 137.547 176.385 137.552 177.124 137.557C177.71 137.563 177.978 137.82 177.984 138.4C177.989 140.811 177.989 143.222 177.984 145.633C177.984 146.186 177.71 146.453 177.157 146.459C176.385 146.464 175.613 146.448 174.841 146.47C174.715 146.475 174.513 146.59 174.48 146.7C174.086 147.87 173.719 149.062 173.341 150.275ZM157.223 128.115C157.223 128.295 157.223 128.448 157.223 128.601C157.223 129.575 157.228 130.548 157.223 131.521C157.217 132.079 156.955 132.341 156.402 132.352C156.194 132.358 155.98 132.352 155.772 132.352C155.772 132.883 155.772 133.347 155.772 133.818C156.856 133.894 156.856 133.894 157.59 134.632C158.794 135.841 158.8 135.841 158.696 137.541C158.685 137.7 158.641 137.902 158.537 138.006C158.039 138.525 157.508 139.023 157.037 139.488C156.681 139.165 156.33 138.848 155.903 138.465C156.303 138.099 156.681 137.76 157.042 137.404C157.283 137.169 157.3 136.508 157.086 136.262C156.566 135.649 156.013 135.102 155.099 135.327C155.055 135.338 155.006 135.338 154.962 135.327C154.113 135.168 153.489 135.507 152.974 136.163C152.695 136.519 152.657 137.131 152.98 137.448C153.33 137.793 153.697 138.121 154.037 138.432C153.648 138.848 153.325 139.192 152.991 139.553C152.471 139.039 151.956 138.553 151.469 138.033C151.354 137.913 151.299 137.7 151.288 137.53C151.195 135.83 151.222 135.852 152.394 134.616C152.892 134.091 153.39 133.708 154.151 133.828C154.173 133.834 154.201 133.796 154.25 133.763C154.25 133.55 154.25 133.32 154.25 133.09C154.25 132.85 154.25 132.609 154.25 132.358C154.086 132.358 153.993 132.358 153.9 132.358C152.914 132.347 152.766 132.194 152.766 131.188C152.766 130.171 152.766 129.154 152.766 128.109C149.514 128.672 146.788 130.11 144.614 132.516C141.866 135.556 140.645 139.138 140.973 143.238C141.165 145.661 141.975 147.87 143.328 149.876C143.426 150.024 143.612 150.117 143.864 150.314C143.864 149.975 143.864 149.805 143.864 149.641C143.864 147.678 143.864 145.715 143.864 143.752C143.864 142.976 144.083 142.752 144.844 142.752C147.653 142.752 150.467 142.752 153.275 142.752C154.015 142.752 154.245 142.981 154.245 143.714C154.245 145.693 154.245 147.673 154.245 149.647C154.245 149.811 154.245 149.975 154.245 150.133C154.776 150.133 155.241 150.133 155.734 150.133C155.734 147.968 155.734 145.836 155.734 143.703C155.734 142.992 155.969 142.752 156.664 142.752C159.506 142.752 162.347 142.752 165.189 142.752C165.862 142.752 166.109 142.998 166.109 143.67C166.109 145.666 166.109 147.656 166.109 149.652C166.109 149.816 166.109 149.986 166.109 150.15C166.147 150.177 166.185 150.204 166.224 150.232C166.366 150.111 166.552 150.018 166.651 149.871C168.589 146.973 169.388 143.78 168.961 140.319C168.501 136.601 166.793 133.533 163.913 131.138C161.986 129.525 159.758 128.525 157.223 128.115ZM141.713 150.166C139.643 146.65 138.948 142.954 139.714 139.023C140.481 135.081 142.506 131.893 145.72 129.498C151.261 125.37 158.712 125.375 164.275 129.493C167.001 131.51 168.901 134.162 169.881 137.41C171.222 141.85 170.653 146.093 168.293 150.172C169.333 150.172 170.302 150.161 171.271 150.177C171.54 150.182 171.704 150.106 171.786 149.843C172.224 148.531 172.695 147.23 173.095 145.907C173.335 145.108 173.434 144.977 174.261 144.977C174.994 144.977 175.733 144.977 176.473 144.977C176.473 142.971 176.473 141.019 176.473 139.072C176.412 139.056 176.385 139.045 176.352 139.045C175.597 139.045 174.836 139.045 174.08 139.039C173.483 139.039 173.281 138.886 173.155 138.296C172.651 135.944 171.759 133.763 170.434 131.756C170.1 131.248 170.133 130.996 170.56 130.57C171.189 129.935 171.824 129.312 172.399 128.743C170.992 127.338 169.634 125.982 168.244 124.599C167.669 125.184 167.056 125.813 166.432 126.431C166.005 126.857 165.742 126.895 165.244 126.562C163.251 125.244 161.088 124.347 158.756 123.85C158.082 123.708 157.962 123.527 157.962 122.827C157.962 122.062 157.962 121.291 157.962 120.525C155.953 120.525 154.004 120.525 152.06 120.525C152.044 120.586 152.033 120.618 152.033 120.646C152.033 121.406 152.033 122.16 152.027 122.92C152.027 123.511 151.874 123.713 151.277 123.844C148.945 124.347 146.777 125.228 144.784 126.54C144.231 126.906 143.99 126.868 143.525 126.403C142.906 125.785 142.287 125.162 141.734 124.604C140.338 126.01 138.981 127.371 137.601 128.754C138.181 129.329 138.811 129.946 139.43 130.57C139.857 130.996 139.889 131.253 139.555 131.756C138.241 133.752 137.349 135.917 136.845 138.252C136.703 138.908 136.522 139.045 135.865 139.045C135.082 139.045 134.3 139.045 133.522 139.045C133.522 141.057 133.522 143.009 133.522 144.983C134.343 144.983 135.132 144.983 135.915 144.983C136.506 144.983 136.659 145.152 136.84 145.732C137.278 147.11 137.743 148.477 138.214 149.843C138.258 149.975 138.422 150.155 138.537 150.161C139.572 150.172 140.601 150.166 141.713 150.166ZM134.727 159.068C134.77 159.16 134.776 159.188 134.792 159.21C134.842 159.27 134.896 159.325 134.951 159.374C135.882 160.216 136.982 160.555 138.225 160.555C149.41 160.549 160.595 160.555 171.781 160.549C171.917 160.549 172.06 160.549 172.197 160.544C175.131 160.396 177.113 157.657 176.325 154.852C175.777 152.916 174.014 151.648 171.852 151.642C160.623 151.642 149.388 151.642 138.159 151.642C138.022 151.642 137.88 151.642 137.743 151.653C136.566 151.741 135.559 152.184 134.666 153.13C134.94 153.13 135.104 153.13 135.269 153.13C137.678 153.13 140.086 153.119 142.501 153.135C144.346 153.146 145.731 154.956 145.293 156.749C144.954 158.149 143.815 159.057 142.38 159.062C139.84 159.068 137.311 159.068 134.727 159.068ZM170.554 162.064C160.163 162.064 149.81 162.064 139.462 162.064C139.462 162.567 139.462 163.037 139.462 163.496C149.843 163.496 160.19 163.496 170.554 163.496C170.554 163.015 170.554 162.556 170.554 162.064ZM145.392 144.245C145.392 146.235 145.392 148.187 145.392 150.128C147.872 150.128 150.314 150.128 152.755 150.128C152.755 148.148 152.755 146.207 152.755 144.255C152.263 144.255 151.792 144.255 151.294 144.255C151.294 144.961 151.299 145.639 151.294 146.317C151.288 146.935 151.036 147.192 150.429 147.197C149.531 147.203 148.638 147.203 147.74 147.197C147.1 147.197 146.853 146.946 146.848 146.295C146.843 145.622 146.848 144.944 146.848 144.25C146.339 144.245 145.879 144.245 145.392 144.245ZM164.609 150.144C164.609 148.154 164.609 146.202 164.609 144.261C164.105 144.261 163.639 144.261 163.152 144.261C163.152 144.977 163.158 145.655 163.152 146.339C163.147 146.924 162.889 147.186 162.309 147.192C161.411 147.197 160.519 147.197 159.621 147.192C158.953 147.192 158.712 146.946 158.707 146.268C158.707 145.595 158.707 144.923 158.707 144.261C158.17 144.261 157.705 144.261 157.245 144.261C157.245 146.24 157.245 148.181 157.245 150.144C159.708 150.144 162.139 150.144 164.609 150.144ZM139.818 154.611C137.842 154.611 135.947 154.606 134.053 154.622C133.927 154.622 133.73 154.781 133.686 154.907C133.435 155.688 133.451 156.481 133.664 157.274C133.73 157.515 133.84 157.591 134.081 157.586C134.634 157.569 135.192 157.58 135.745 157.58C137.081 157.58 138.417 157.58 139.813 157.58C139.298 156.585 139.298 155.623 139.818 154.611ZM142.408 157.58C143.196 157.569 143.886 156.869 143.875 156.082C143.864 155.289 143.163 154.606 142.375 154.617C141.587 154.628 140.897 155.333 140.908 156.115C140.919 156.908 141.619 157.591 142.408 157.58ZM155.717 130.849C155.717 129.881 155.717 128.935 155.717 127.951C155.225 127.951 154.754 127.951 154.294 127.951C154.294 128.951 154.294 129.897 154.294 130.849C154.781 130.849 155.241 130.849 155.717 130.849ZM149.783 145.688C149.783 145.196 149.783 144.726 149.783 144.255C149.284 144.255 148.819 144.255 148.359 144.255C148.359 144.758 148.359 145.223 148.359 145.688C148.852 145.688 149.306 145.688 149.783 145.688ZM160.207 145.688C160.716 145.688 161.176 145.688 161.647 145.688C161.647 145.196 161.647 144.726 161.647 144.255C161.148 144.255 160.683 144.255 160.207 144.255C160.207 144.748 160.207 145.207 160.207 145.688Z" fill="#1A5CAB"/>
<path d="M149.793 159.067C148.146 159.062 146.843 157.744 146.843 156.088C146.848 154.442 148.167 153.135 149.821 153.135C151.469 153.14 152.772 154.458 152.772 156.115C152.766 157.761 151.447 159.067 149.793 159.067ZM151.288 156.109C151.294 155.322 150.609 154.622 149.815 154.617C149.032 154.606 148.332 155.3 148.321 156.088C148.31 156.875 149 157.575 149.793 157.58C150.582 157.591 151.283 156.902 151.288 156.109Z" fill="#1A5CAB"/>
<path d="M157.223 153.135C158.876 153.135 160.185 154.447 160.185 156.099C160.185 157.75 158.871 159.062 157.217 159.062C155.569 159.062 154.255 157.744 154.255 156.093C154.261 154.447 155.575 153.135 157.223 153.135ZM157.245 157.58C158.039 157.564 158.723 156.864 158.706 156.077C158.69 155.284 157.989 154.6 157.201 154.617C156.412 154.633 155.728 155.339 155.739 156.12C155.755 156.913 156.456 157.597 157.245 157.58Z" fill="#1A5CAB"/>
<path d="M164.652 153.135C166.3 153.14 167.603 154.458 167.603 156.115C167.598 157.761 166.278 159.073 164.625 159.068C162.977 159.062 161.674 157.744 161.674 156.088C161.679 154.436 162.999 153.13 164.652 153.135ZM164.576 157.58C165.353 157.624 166.076 156.962 166.125 156.164C166.169 155.388 165.512 154.666 164.712 154.617C163.935 154.573 163.212 155.235 163.168 156.033C163.114 156.809 163.771 157.531 164.576 157.58Z" fill="#1A5CAB"/>
<path d="M172.038 159.068C170.39 159.062 169.087 157.744 169.087 156.088C169.092 154.442 170.412 153.135 172.065 153.141C173.713 153.146 175.016 154.464 175.016 156.12C175.016 157.761 173.697 159.068 172.038 159.068ZM173.538 156.164C173.582 155.388 172.925 154.661 172.125 154.617C171.354 154.573 170.625 155.235 170.576 156.033C170.532 156.809 171.189 157.531 171.989 157.58C172.766 157.63 173.489 156.968 173.538 156.164Z" fill="#1A5CAB"/>
</g>
<defs>
<clipPath id="clip0_205_696">
<rect width="46" height="46" fill="white" transform="translate(132 119)"/>
</clipPath>
</defs>
</svg>
