<svg width="75" height="66" viewBox="0 0 75 66" fill="none" xmlns="http://www.w3.org/2000/svg">
<path d="M37.5225 66C55.5773 66 70.2135 51.2254 70.2135 33C70.2135 14.7746 55.5773 0 37.5225 0C19.4678 0 4.83154 14.7746 4.83154 33C4.83154 51.2254 19.4678 66 37.5225 66Z" fill="#E5E5E5"/>
<path d="M73.8824 46.4469L73.9453 46.4524L74.0055 46.433C74.0055 46.1403 74.0055 45.8503 74.0055 45.5576C73.9672 45.5327 73.9261 45.5272 73.8851 45.5438C73.6115 45.8476 73.6115 46.1458 73.8824 46.4469Z" fill="#A3A0A0"/>
<path d="M73.8823 46.4469C73.8823 46.1459 73.8823 45.8476 73.8851 45.5466C73.7209 44.3286 73.0917 43.4255 72.011 42.876C71.6991 42.7158 71.5486 42.5528 71.4966 42.1938C71.2285 40.4235 70.892 38.6615 70.6431 36.8857C70.1971 33.707 68.4735 31.3678 66.0304 29.4484C63.5817 27.5235 60.7775 26.5955 57.7324 26.3138C56.8953 26.2365 56.0526 26.1813 55.2127 26.1757C54.8461 26.173 54.6409 25.9824 54.4111 25.7725C50.5097 22.1961 46.6029 18.6251 42.7125 15.0376C42.2939 14.651 41.8671 14.466 41.2953 14.4798C39.9246 14.5129 38.5512 14.4687 37.1805 14.5019C36.7264 14.5129 36.4993 14.3583 36.3105 13.955C35.8017 12.8614 35.2326 11.7954 34.7182 10.7017C34.4255 10.0803 33.9987 9.80415 33.3065 9.81244C31.1643 9.83729 29.0222 9.84005 26.88 9.81244C26.1577 9.80415 25.7254 10.0941 25.4245 10.7459C24.9047 11.8616 24.311 12.9442 23.7884 14.06C23.627 14.4024 23.4355 14.5046 23.0771 14.4991C21.6818 14.4798 20.2838 14.5184 18.8885 14.4798C18.1853 14.4604 17.7285 14.7145 17.34 15.3055C15.3318 18.3821 13.2881 21.4366 11.2745 24.5104C11.0365 24.875 10.7903 25.0241 10.3498 25.002C9.14601 24.9468 7.94496 24.9495 6.82872 25.5267C4.69474 26.6314 3.5402 28.3713 3.49916 30.8072C3.46907 32.5553 3.48001 34.3063 3.5019 36.0545C3.50737 36.4963 3.44171 36.7256 2.9301 36.662C1.62509 36.5019 1.10527 37.0376 1.16546 38.4296C1.22838 39.9099 1.17093 41.3929 1.18461 42.876C1.18734 43.2322 1.0998 43.4973 0.861776 43.7818C-0.0410637 44.8534 -0.26267 46.0796 0.331015 47.3693C0.935644 48.6839 1.97801 49.4572 3.43897 49.4793C5.72616 49.5152 8.01336 49.4931 10.2978 49.4876C11.1049 49.4848 11.4141 49.1976 11.5946 48.3414C11.7287 47.6924 11.466 47.245 10.8176 47.0351C10.4921 46.9302 10.1528 46.944 9.8163 46.9412C8.01062 46.9385 6.20768 46.9412 4.402 46.9385C4.13662 46.9385 3.87124 46.9468 3.6086 46.9053C3.08604 46.8225 2.68661 46.5822 2.63462 46.0022C2.59632 45.5521 2.9985 45.1737 3.57577 45.0743C3.8603 45.0246 4.1503 45.0384 4.4403 45.0384C6.34174 45.0356 8.24317 45.055 10.1419 45.0301C11.1596 45.0163 11.5454 44.6849 11.7615 43.7376C11.6384 42.7268 11.2253 42.3126 10.2212 42.296C8.36902 42.2629 6.51683 42.2905 4.66738 42.2849C3.73171 42.2822 3.69888 42.2463 3.69341 41.299C3.69067 40.8129 3.69614 40.3269 3.69341 39.8436C3.69067 39.4321 3.85482 39.2415 4.28162 39.1918C5.71796 39.0261 5.99975 38.6947 6.00249 37.2448C6.00796 35.2536 5.99702 33.2623 6.00522 31.2739C6.02164 28.9016 7.38411 27.54 9.74243 27.5345C10.2239 27.5345 10.7055 27.5124 11.1842 27.5373C11.9913 27.5787 12.5385 27.2252 12.9762 26.5513C14.7983 23.7509 16.6615 20.9781 18.489 18.1833C18.7599 17.7939 18.8994 17.2387 19.3809 17.0979C20.0704 16.8963 20.8008 17.015 21.5149 17.0371C21.7584 17.0454 21.7611 17.2194 21.6654 17.4017C21.5204 17.6779 21.3562 17.9458 21.1757 18.1998C19.5588 20.8456 18.0212 23.5383 16.4399 26.2061C15.5562 27.6919 16.1389 28.711 17.8789 28.711C26.6091 28.7193 35.3393 28.7138 44.0695 28.7138C46.0174 28.7138 47.9654 28.7193 49.9133 28.7138C52.7914 28.7221 55.6778 28.5481 58.545 28.9982C61.8472 29.5147 64.5694 31.0392 66.6651 33.6849C67.3408 34.5383 67.7348 35.5215 67.9509 36.5792C68.2929 38.2418 68.5173 39.9264 68.81 41.5973C68.8893 42.0447 68.7881 42.3043 68.2875 42.307C67.9181 42.3098 67.5761 42.4203 67.2971 42.6799C67.029 42.9643 66.8894 43.304 66.8894 43.6962C67.0755 44.6352 67.4585 44.9804 68.3887 45.0246C69.0097 45.0522 69.6363 45.008 70.2573 45.0467C70.9632 45.0909 71.42 45.472 71.4228 45.9884C71.4255 46.5076 70.9686 46.8998 70.271 46.9468C69.5788 46.9937 68.8811 46.9164 68.189 46.9854C67.319 47.071 66.9031 47.5902 67.059 48.3497C67.2451 49.2307 67.5515 49.4931 68.4215 49.4986C69.0945 49.5041 69.7648 49.5041 70.4379 49.4986C72.2353 49.4848 73.6033 48.2724 73.8823 46.4469Z" fill="#012D3A"/>
<path d="M11.8737 48.3331C12.7355 50.7828 14.2539 52.6249 16.6971 53.5915C21.0006 55.2899 25.7528 53.1109 27.3205 48.7336C27.3697 48.5983 27.4272 48.4657 27.4791 48.3331C28.1412 47.2229 28.0017 46.0133 27.8977 44.8147C27.8676 44.4556 27.7582 44.1049 27.6679 43.7542C26.2754 39.2028 21.8761 36.6758 17.4056 37.9711C14.4892 38.8162 12.5741 40.7798 11.7314 43.7569C11.2937 45.1985 11.1624 46.6402 11.7314 48.0818C11.7697 48.1729 11.8135 48.2586 11.8737 48.3331Z" fill="#012D3A"/>
<path d="M51.1718 48.3332C52.0336 50.7828 53.552 52.6249 55.9952 53.5915C60.2987 55.29 65.0509 53.111 66.6186 48.7336C66.6678 48.5983 66.7253 48.4657 66.7773 48.3332C67.4257 47.1152 67.3682 45.831 67.1247 44.5303C67.0755 44.2707 66.9277 44.0387 66.9195 43.768C66.3477 41.5945 65.1029 39.9182 63.1714 38.8135C59.913 36.9493 56.3536 37.2835 53.4891 39.7221C52.2443 40.7826 51.4837 42.1911 50.983 43.7459C50.6329 45.0025 50.548 46.2674 50.8189 47.5516C50.8846 47.8443 50.9694 48.1122 51.1718 48.3332Z" fill="#012D3A"/>
<path d="M51.1718 48.3332C50.7806 46.7783 50.7915 45.2262 51.1663 43.6714C51.0378 43.5719 50.9146 43.5885 50.797 43.6962C50.4359 44.4115 49.8477 44.6186 49.0734 44.6186C42.573 44.5993 36.0753 44.5993 29.5748 44.6186C28.8006 44.6214 28.2123 44.4115 27.8539 43.6962C27.7363 43.5885 27.6132 43.5747 27.4846 43.6741C27.8649 45.229 27.8676 46.7811 27.4791 48.3359C27.5721 48.3415 27.6624 48.347 27.7555 48.3497C28.2643 47.4798 29.0577 47.3748 29.9797 47.3776C36.212 47.4052 42.4416 47.4052 48.674 47.3776C49.596 47.3748 50.3894 47.4798 50.8982 48.3497C50.9885 48.3442 51.0815 48.3387 51.1718 48.3332Z" fill="white"/>
<path d="M50.8982 48.3469C50.7313 47.4604 50.414 47.1649 49.5604 47.1649C42.7371 47.1622 35.9166 47.1622 29.0933 47.1649C28.2424 47.1649 27.9223 47.4604 27.7554 48.3469C27.9442 49.2279 28.2479 49.4958 29.1234 49.4958C35.9275 49.4986 42.7289 49.4986 49.533 49.4958C50.403 49.4958 50.7149 49.2279 50.8982 48.3469Z" fill="#012D3A"/>
<path d="M11.8737 48.3331C11.4824 46.7783 11.4934 45.2262 11.8682 43.6713C11.7861 43.5747 11.6958 43.5802 11.6028 43.6547C11.414 44.5716 11.1103 44.8285 10.1829 44.8285C8.02154 44.8312 5.8602 44.8285 3.69886 44.8312C3.15715 44.8312 2.73036 45.0246 2.46771 45.5465C2.24884 45.9829 2.36649 46.3557 2.62366 46.6954C2.92734 47.0959 3.37329 47.1677 3.84933 47.1649C5.98605 47.1566 8.12277 47.1566 10.2595 47.1622C11.1103 47.1649 11.4304 47.4577 11.5973 48.3442C11.6904 48.3442 11.7806 48.3387 11.8737 48.3331Z" fill="white"/>
<path d="M66.7855 43.6713C67.1658 45.2261 67.1685 46.7782 66.78 48.3331C66.873 48.3386 66.9633 48.3442 67.0564 48.3469C67.2232 47.4632 67.5433 47.1732 68.3887 47.1649C69.059 47.1566 69.732 47.1815 70.3996 47.1594C71.1657 47.1345 71.7046 46.6125 71.68 45.9663C71.6554 45.3421 71.1356 44.8616 70.4051 44.8367C69.7348 44.8147 69.0645 44.8367 68.3942 44.8285C67.5461 44.8202 67.2314 44.5412 67.0481 43.6547C66.9579 43.5774 66.8676 43.5746 66.7855 43.6713Z" fill="white"/>
<path d="M51.2922 26.1371C50.8188 25.6925 50.4194 25.3058 50.009 24.9302C47.2376 22.3839 44.4579 19.8431 41.6947 17.2858C41.3363 16.9543 40.9779 16.7914 40.48 16.8135C39.5689 16.8549 38.6524 16.8687 37.7414 16.8107C37.1367 16.7721 36.9042 16.9543 37.0136 17.5592C37.0383 17.7 37.0328 17.8491 37.041 17.9928C37.0328 20.5667 37.03 23.1406 37.0109 25.7146C37.0082 26.0598 37.1012 26.1675 37.4514 26.1675C40.915 26.1482 44.3786 26.1426 47.8422 26.1344C48.9448 26.1371 50.0473 26.1371 51.2922 26.1371Z" fill="#04A2D8"/>
<path d="M33.8865 14.4936C33.8811 14.3693 33.8838 14.3444 33.8756 14.3223C32.9618 12.1599 32.9618 12.1599 30.6418 12.1599C29.7061 12.1599 28.7705 12.1737 27.8348 12.1516C27.4791 12.1433 27.2657 12.2372 27.1153 12.5852C26.8499 13.2011 26.5325 13.7893 26.1851 14.4936C27.5338 14.4936 28.7923 14.4936 30.0509 14.4936C31.323 14.4936 32.5952 14.4936 33.8865 14.4936Z" fill="#2661AE"/>
<path d="M34.6799 17.9954C34.7401 16.8272 34.7401 16.8272 33.6157 16.8272C31.137 16.8272 28.6528 16.888 26.1768 16.7969C25.1755 16.7609 24.601 17.0675 24.311 17.9982C22.6968 20.6771 21.0826 23.3587 19.4767 26.0266C19.6545 26.2365 19.8323 26.1564 19.9856 26.1591C24.6748 26.1647 29.3669 26.1536 34.0562 26.1785C34.6033 26.1812 34.7265 26.0376 34.7183 25.4991C34.6799 22.997 34.6882 20.4976 34.6799 17.9954Z" fill="#04A2D8"/>
<path d="M69.0891 41.995C68.7471 40.0397 68.479 38.0706 68.0577 36.1346C67.5816 33.95 66.066 32.4836 64.3834 31.1717C62.378 29.6086 60.0525 28.9154 57.5847 28.6558C55.0677 28.3934 52.5425 28.4873 50.0173 28.5205C49.73 28.5122 49.44 28.4956 49.1528 28.4956C38.7154 28.4956 28.278 28.4929 17.8407 28.4984C17.2716 28.4984 16.7217 28.5011 16.3797 27.935C16.0186 27.3357 16.3004 26.8331 16.6068 26.3166C18.2182 23.5963 19.8187 20.8677 21.4247 18.1419C21.6736 17.7469 21.9226 17.352 22.2536 16.83C21.2003 16.83 20.2783 16.7638 19.37 16.8549C18.7982 16.9129 18.7161 17.5978 18.4125 17.9983C16.5548 20.7931 14.6807 23.577 12.8504 26.3912C12.4072 27.0733 11.8956 27.4241 11.0721 27.3412C10.5249 27.286 9.9668 27.3274 9.41416 27.3329C7.31574 27.3523 5.82195 28.8381 5.81101 30.948C5.79733 33.1326 5.80827 35.3171 5.80827 37.5016C5.80827 38.6063 5.42251 39.0565 4.35552 38.9819C3.59221 38.9267 3.41438 39.1946 3.48551 39.8988C3.5457 40.4981 3.53749 41.114 3.48551 41.7161C3.43353 42.3236 3.57306 42.5418 4.24609 42.5225C6.21592 42.4672 8.18848 42.5004 10.1583 42.5032C11.0912 42.5059 11.3867 42.7462 11.6056 43.6603C11.6931 43.6658 11.7834 43.6714 11.871 43.6769C12.5166 41.9094 13.4933 40.3932 15.0528 39.2968C19.3372 36.2837 25.3014 38.1037 27.2083 43.0141C27.2958 43.2378 27.3943 43.4559 27.4901 43.6769C27.5776 43.6714 27.6679 43.6658 27.7555 43.6603C28.2808 42.8097 29.0796 42.7103 29.9962 42.7158C36.2203 42.7434 42.4417 42.7434 48.6658 42.7158C49.5823 42.713 50.3812 42.8097 50.9065 43.6603C50.994 43.6658 51.0843 43.6714 51.1718 43.6769C51.8175 41.9094 52.7942 40.3932 54.3537 39.2968C58.6381 36.2837 64.6023 38.1037 66.5092 43.0141C66.5967 43.2378 66.6952 43.4559 66.791 43.6769C66.8785 43.6714 66.9688 43.6658 67.0564 43.6603C67.0591 43.34 67.2397 43.0886 67.3737 42.818C67.7622 42.528 68.2054 42.4479 68.6705 42.5059C69.0864 42.5556 69.1493 42.3457 69.0891 41.995ZM64.5093 36.466C63.9785 36.4743 63.7706 36.2451 63.8007 35.7231C63.8253 35.2674 63.7459 34.7979 64.0442 34.3947C64.0496 34.3726 64.0496 34.3533 64.0524 34.3312C64.2849 34.5852 64.605 34.5632 64.895 34.5411C65.5407 34.4886 65.7349 34.7951 65.7076 35.4C65.6912 35.7866 65.6228 36.1981 65.8389 36.5571C65.4066 36.3942 64.9525 36.4577 64.5093 36.466Z" fill="#2661AE"/>
<path d="M13.901 45.9636C13.89 49.1562 16.5028 51.813 19.6655 51.8295C22.8117 51.8461 25.4601 49.1755 25.4546 45.9912C25.4518 42.8042 22.8117 40.1529 19.6545 40.164C16.5274 40.175 13.9092 42.8125 13.901 45.9636Z" fill="white"/>
<path d="M58.9499 40.1639C55.7955 40.1777 53.169 42.8649 53.2018 46.0436C53.2347 49.2362 55.8857 51.8626 59.0429 51.8322C62.1646 51.8018 64.7609 49.145 64.7555 45.9884C64.7473 42.7986 62.1071 40.1501 58.9499 40.1639Z" fill="white"/>
<path d="M50.9037 43.6547C50.693 42.7682 50.3866 42.5003 49.5303 42.4976C42.7289 42.4948 35.9275 42.4948 29.1261 42.4976C28.2698 42.4976 27.9661 42.7627 27.7527 43.6547C27.9387 44.5495 28.2479 44.8285 29.1069 44.8285C35.922 44.8312 42.7343 44.8312 49.5494 44.8285C50.4085 44.8285 50.7176 44.5495 50.9037 43.6547Z" fill="#012D3A"/>
<path d="M28.9045 36.3776C28.806 35.248 28.9401 34.0135 29.9387 33.0552C30.9811 32.0527 32.1903 31.6881 33.5692 32.2488C34.97 32.8177 35.7278 33.8975 35.8263 35.4165C35.8728 36.1649 35.8236 36.9216 35.84 37.6728C35.8537 38.3439 35.5691 38.8217 34.9235 38.9653C34.2723 39.1089 33.7799 38.8024 33.5801 38.1616C33.4844 37.8523 33.3339 37.8109 33.0713 37.8247C32.7594 37.8413 32.4475 37.8302 32.1329 37.8275C31.6431 37.822 31.189 37.7308 30.9947 38.4489C30.8607 38.9432 30.2889 39.0951 29.7773 38.9626C29.2711 38.8327 28.9428 38.4765 28.9073 37.9297C28.8826 37.4712 28.9045 37.0072 28.9045 36.3776Z" fill="#012D3A"/>
<path d="M42.7782 39.004C42.3185 39.0178 42.0313 38.7334 41.7221 38.4544C41.2844 38.054 40.9479 37.2724 40.4198 37.3249C39.9739 37.3691 39.5881 38.0623 39.1777 38.4655C39.0738 38.5677 38.978 38.6781 38.8604 38.761C38.3378 39.12 37.8208 39.1062 37.3474 38.6809C36.9015 38.2804 36.844 37.59 37.2462 37.1067C37.6156 36.6621 38.0314 36.2533 38.4609 35.8667C38.7783 35.5822 38.7537 35.3917 38.45 35.1238C38.0697 34.7896 37.7168 34.4223 37.3748 34.0495C36.8741 33.5054 36.8577 32.8315 37.3064 32.3565C37.7715 31.8622 38.4637 31.8787 39.0382 32.3897C39.5361 32.8315 39.9274 33.7015 40.4992 33.6601C40.9916 33.6242 41.4239 32.826 41.8972 32.3841C42.4334 31.8815 43.1065 31.8622 43.5743 32.3123C44.064 32.7818 44.0476 33.4805 43.5415 34.0633C43.1037 34.5659 42.2419 34.9608 42.2857 35.538C42.324 36.0379 43.1065 36.477 43.5524 36.9493C43.9135 37.3304 44.0476 37.7723 43.8424 38.2777C43.6454 38.7527 43.2706 38.9709 42.7782 39.004Z" fill="#012D3A"/>
<path d="M25.4546 31.9975C26.1987 31.9975 26.9429 31.9836 27.687 32.0002C28.4203 32.0168 28.8936 32.4835 28.8963 33.1574C28.899 33.8312 28.4257 34.2925 27.698 34.3284C26.5872 34.3836 26.5872 34.3836 26.5872 35.4745C26.5872 36.2257 26.5982 36.9769 26.5845 37.7281C26.5708 38.5124 26.1002 39.0068 25.4081 38.9929C24.746 38.9791 24.2918 38.4986 24.2809 37.7529C24.2672 36.7587 24.2645 35.7645 24.2836 34.7702C24.2918 34.4223 24.1879 34.2897 23.8377 34.3228C23.575 34.3477 23.3096 34.3422 23.047 34.3201C22.415 34.2648 21.9773 33.7953 21.9663 33.1795C21.9554 32.5332 22.4068 32.0251 23.0771 32.0002C23.8678 31.9754 24.6612 31.9975 25.4546 31.9975Z" fill="#012D3A"/>
<path d="M45.0818 35.4552C45.0818 34.7261 45.0708 33.997 45.0845 33.2679C45.0982 32.4781 45.5633 31.9865 46.2609 32.0003C46.9285 32.0141 47.3826 32.4919 47.3881 33.2431C47.4018 34.751 47.4018 36.2561 47.3881 37.764C47.3799 38.5097 46.9148 38.9902 46.25 38.9985C45.5824 39.0068 45.1037 38.5263 45.0873 37.7916C45.0681 37.0101 45.0845 36.2313 45.0818 35.4552Z" fill="#012D3A"/>
<path d="M10.4373 34.3229C10.4346 34.5411 10.4182 34.7592 10.4319 34.9774C10.4674 35.5242 10.1856 36.3528 10.5495 36.5544C11.0502 36.8305 11.8025 36.6427 12.4482 36.6621C12.8011 36.6731 12.7382 36.4246 12.7382 36.2147C12.7409 35.585 12.7355 34.9526 12.7355 34.3229L12.7492 34.3367C11.9722 34.3367 11.1952 34.3339 10.4209 34.3339L10.4373 34.3229Z" fill="#012D3A"/>
<path d="M65.9045 36.651C65.9072 36.5543 65.9127 36.4577 65.9127 36.361C65.899 35.712 66.1124 34.8973 65.8033 34.4609C65.4996 34.0356 64.6405 34.4112 64.0304 34.3035C63.8827 34.3726 63.6063 34.2262 63.6063 34.5466C63.6036 35.1762 63.5981 35.8059 63.6091 36.4328C63.6146 36.7449 63.8663 36.6538 64.0359 36.6565C64.6569 36.6648 65.2807 36.6565 65.9045 36.651Z" fill="#012D3A"/>
<path d="M10.4237 34.3367C10.4264 34.1185 10.4428 33.9003 10.4292 33.6822C10.3936 33.1353 10.6754 32.3041 10.3115 32.1052C9.81085 31.8263 9.05849 32.0141 8.41282 31.9947C8.19942 31.9892 8.10366 32.0776 8.11734 32.293C8.12008 32.34 8.11461 32.3897 8.11734 32.4394C8.13102 33.0414 7.91762 33.9777 8.20763 34.1765C8.80405 34.5908 9.67953 34.2897 10.4374 34.3229L10.4237 34.3367Z" fill="#012D3A"/>
<path d="M15.0418 34.3395C15.0446 34.1213 15.0637 33.9003 15.05 33.6849C15.0145 33.1353 15.299 32.3068 14.9324 32.1052C14.429 31.8263 13.6766 32.0168 13.031 31.9975C12.6753 31.9864 12.7437 32.2433 12.7437 32.4477C12.741 33.0801 12.7492 33.7098 12.7519 34.3422L12.7382 34.3284C13.5125 34.3284 14.284 34.3284 15.0582 34.3284L15.0418 34.3395Z" fill="#012D3A"/>
<path d="M17.3727 34.3367C16.5957 34.3367 15.8188 34.3394 15.0418 34.3394L15.0555 34.3256C15.0555 34.519 15.0528 34.715 15.0528 34.9084C15.0528 36.7725 15.05 36.7615 16.9322 36.6731C17.2824 36.6565 17.3864 36.5571 17.3727 36.2147C17.348 35.585 17.3617 34.9526 17.359 34.3229L17.3727 34.3367Z" fill="#012D3A"/>
<path d="M17.3564 34.3229C17.5725 34.3257 17.7887 34.3422 18.0048 34.3284C18.5465 34.2925 19.37 34.577 19.567 34.2097C19.8433 33.7043 19.6573 32.9448 19.6764 32.293C19.6819 32.0776 19.5943 31.981 19.3809 31.9948C19.3344 31.9975 19.2852 31.992 19.2359 31.9948C18.6395 32.0086 17.7121 31.7932 17.5151 32.0859C17.1047 32.688 17.4029 33.5717 17.3701 34.3367C17.3728 34.3367 17.3564 34.3229 17.3564 34.3229Z" fill="#012D3A"/>
<path d="M16.4918 44.8368C15.4139 44.8423 15.0172 45.2594 15.0555 46.3392C15.1403 48.6894 17.2305 50.6586 19.6463 50.6641C22.1168 50.6696 24.2097 48.7171 24.2973 46.3309C24.3958 43.6548 22.4834 41.4205 20.0184 41.3349C18.9459 41.2963 18.5328 41.6967 18.5301 42.7821C18.5848 43.4283 18.8501 43.7183 19.556 43.826C20.0102 43.8951 20.4616 43.9531 20.8528 44.2237C21.6243 44.7595 21.9745 45.7316 21.7037 46.5905C21.4191 47.4964 20.5437 48.1509 19.6436 48.1343C18.7161 48.1178 17.8543 47.4025 17.6135 46.4524C17.5479 46.1928 17.578 45.9111 17.4849 45.6626C17.3126 45.2069 17.1265 44.7402 16.4918 44.8368Z" fill="#012D3A"/>
<path d="M16.4918 44.8368C17.091 45.0798 17.3399 45.5162 17.3865 46.1762C17.4767 47.4466 18.5437 48.3691 19.7612 48.3249C20.9486 48.2807 21.9417 47.2809 21.9855 46.0796C22.032 44.8478 21.1155 43.7735 19.857 43.6824C19.2003 43.6354 18.7708 43.3814 18.5273 42.7793C17.4466 43.061 16.7709 43.7487 16.4918 44.8368Z" fill="white"/>
<path d="M55.7927 44.8368C54.7148 44.8423 54.3181 45.2594 54.3564 46.3392C54.4412 48.6894 56.5314 50.6586 58.9472 50.6641C61.4177 50.6696 63.5106 48.7171 63.5982 46.3309C63.6967 43.6548 61.7843 41.4205 59.3193 41.3349C58.2468 41.2963 57.8337 41.6967 57.8309 42.7821C57.8857 43.4283 58.151 43.7183 58.8569 43.826C59.3111 43.8951 59.7625 43.9531 60.1537 44.2237C60.9252 44.7595 61.2754 45.7316 61.0046 46.5905C60.72 47.4964 59.8446 48.1509 58.9445 48.1343C58.017 48.1178 57.1552 47.4025 56.9144 46.4524C56.8488 46.1928 56.8789 45.9111 56.7858 45.6626C56.6135 45.2069 56.4247 44.7402 55.7927 44.8368Z" fill="#012D3A"/>
<path d="M55.7927 44.8368C56.3919 45.0798 56.6408 45.5162 56.6874 46.1762C56.7776 47.4466 57.8446 48.3691 59.0621 48.3249C60.2495 48.2807 61.2426 47.2809 61.2864 46.0796C61.3329 44.8478 60.4164 43.7735 59.1579 43.6824C58.5012 43.6354 58.0717 43.3814 57.8282 42.7793C56.7475 43.061 56.0718 43.7487 55.7927 44.8368Z" fill="white"/>
<path d="M32.494 35.4966C32.639 35.4966 32.7867 35.5187 32.9235 35.4911C33.1369 35.4496 33.4625 35.6568 33.5473 35.353C33.6157 35.1044 33.4269 34.8393 33.2272 34.6598C32.8059 34.2869 32.3353 34.2124 31.8374 34.5079C31.5282 34.6929 31.2656 35.0078 31.3285 35.3226C31.3996 35.6734 31.81 35.4331 32.0644 35.4883C32.2012 35.5215 32.3517 35.4966 32.494 35.4966Z" fill="#2661AE"/>
</svg>
