<svg width="74" height="48" viewBox="0 0 74 48" fill="none" xmlns="http://www.w3.org/2000/svg">
<path d="M9.68926 13.434C10.0247 12.4622 10.1567 12.3771 11.3446 12.3771C12.659 12.3744 12.659 12.3744 12.659 11.0595C12.659 7.91379 12.6563 4.77078 12.659 1.62503C12.659 0.318418 12.9835 0 14.3006 0C19.8579 0 25.418 0 30.9753 0C32.2924 0 32.5922 0.301948 32.5922 1.62503C32.5922 4.97391 32.6059 8.32554 32.5784 11.6744C32.5729 12.2426 32.7076 12.4046 33.2906 12.3936C35.4932 12.3552 37.6957 12.3771 39.8983 12.3799C41.1907 12.3799 41.4849 12.6681 41.4849 13.9335C41.4849 17.2824 41.5124 20.634 41.4657 23.9829C41.4547 24.7296 41.7957 24.6884 42.3236 24.7103C42.9148 24.7351 43.0908 24.5786 43.0853 23.9637C43.0578 18.8498 43.0688 13.7359 43.0715 8.62199C43.0715 7.24127 43.3685 6.93932 44.7269 6.93657C50.4135 6.93383 56.1 6.95853 61.7865 6.92559C63.9121 6.91461 65.3887 7.77928 66.2962 9.71175C67.0441 11.3038 67.869 12.8602 68.694 14.4139C69.0212 15.0315 69.0459 15.5696 68.5427 16.0856C67.924 16.577 67.3301 16.5193 66.8296 15.9127C66.5354 15.5531 66.3484 15.1304 66.1532 14.7131C65.9222 14.2163 65.5675 13.9912 65.0093 13.9912C60.3291 13.9967 55.6463 13.9967 50.9662 13.9912C50.364 13.9912 50.1522 14.2465 50.1632 14.8229C50.1825 15.9209 50.1742 17.0189 50.166 18.1169C50.1605 18.6412 50.3942 18.9624 50.8562 19.1984C52.6958 20.1509 54.6069 20.958 56.4492 21.8995C56.8479 22.1026 57.2796 22.1356 57.7196 22.1356C61.4538 22.1356 65.188 22.1383 68.9222 22.1328C69.8571 22.1328 69.8736 22.1026 69.5052 21.2517C69.3622 20.9195 69.2357 20.5846 69.2687 20.2168C69.3072 19.7858 69.4309 19.4098 69.9479 19.3439C70.7453 19.1078 71.21 19.4317 71.6252 20.1372C72.7581 22.0642 73.2311 24.0927 73.1679 26.3436C73.0579 30.2525 73.1376 34.1641 73.1376 38.0757C73.1376 39.5552 72.8654 39.8325 71.4135 39.8325C69.5712 39.8325 67.7261 39.8462 65.8837 39.8242C65.4107 39.8187 65.2128 39.8929 65.1028 40.4418C64.2888 44.5456 60.6316 47.5129 56.5152 47.4772C52.3465 47.4416 48.7553 44.4715 47.9854 40.376C47.8947 39.8901 47.7187 39.8023 47.3007 39.827C46.8415 39.8544 46.3768 39.8599 45.9176 39.827C45.4474 39.7913 45.2631 39.9011 45.2604 40.4364C45.2549 42.2865 44.3612 43.1484 42.5161 43.1539C39.4171 43.1594 36.3181 43.1594 33.2219 43.1539C31.4207 43.1511 30.5161 42.2837 30.5106 40.4885C30.5078 39.9395 30.3456 39.8105 29.8204 39.8242C28.4895 39.8599 27.1586 39.8517 25.825 39.827C25.3987 39.8187 25.2392 39.9121 25.1485 40.387C24.3703 44.4413 20.9001 47.351 16.7617 47.469C12.736 47.5843 8.95782 44.8174 8.17138 40.7877C7.67367 38.2404 6.1228 36.2667 5.20437 33.9719C4.61867 32.5116 3.75799 32.001 2.16587 32.1355C0.106287 32.3085 0.00179577 32.0861 0.00179577 30.0356C0.00179577 28.7317 -0.00370378 27.4279 0.00454555 26.124C0.0100451 25.0864 0.395014 24.7076 1.44818 24.6966C2.06138 24.6911 2.67733 24.6747 3.29053 24.7021C3.703 24.7213 3.82124 24.5676 3.80474 24.1723C3.77724 23.4833 3.80749 22.7916 3.79374 22.1026C3.77999 21.3505 4.07972 20.8783 4.87165 20.7987C5.60584 20.7548 6.02656 21.0925 6.16955 21.8583C6.26579 22.3881 6.21354 22.9289 6.22454 23.4641C6.24379 24.3508 6.30153 24.4194 7.19796 24.4194C10.7259 24.4276 14.2566 24.4221 17.7846 24.4221C18.6535 24.4221 19.5252 24.4029 20.3941 24.4276C20.9991 24.4468 21.2768 24.2437 21.2713 23.5986C21.2548 20.9442 21.2713 18.2898 21.2603 15.6327C21.2576 14.8668 21.1641 14.7817 20.3391 14.779C17.4491 14.768 14.5591 14.7762 11.6691 14.7735C11.2869 14.7735 10.8964 14.801 10.5279 14.6802C9.94224 14.4798 9.54352 14.1367 9.68926 13.434Z" fill="#012D3A"/>
<path d="M69.9479 19.3411C69.3402 19.8489 69.2935 20.4446 69.6647 21.1116C69.8709 21.4822 70.0524 21.8638 70.2862 22.3249C67.3769 22.3249 64.5831 22.1712 61.8113 22.3633C58.3824 22.6049 55.2449 21.9791 52.3246 20.1729C51.5932 19.7199 50.54 19.5635 50.089 18.9404C49.6298 18.3063 49.979 17.2632 49.9543 16.3985C49.935 15.6821 49.9653 14.9656 49.9405 14.2519C49.9295 13.8896 50.0423 13.7688 50.4163 13.7688C55.4593 13.7798 60.5024 13.777 65.5483 13.7688C65.8535 13.7688 66.0103 13.8841 66.1285 14.1476C66.3182 14.5648 66.5382 14.9684 66.7499 15.3746C67.2147 16.264 67.5749 16.4067 68.5428 16.0773C68.5373 16.9447 69.1395 17.5679 69.4447 18.309C69.5905 18.6659 69.7802 19.0007 69.9479 19.3411Z" fill="white"/>
<path d="M9.68924 13.434C9.87898 14.2767 10.4262 14.5457 11.2621 14.5374C14.4381 14.51 17.6141 14.5374 20.7901 14.5155C21.351 14.5127 21.5848 14.5978 21.5765 15.2484C21.538 18.1636 21.5463 21.0787 21.571 23.9912C21.5765 24.5484 21.4445 24.7323 20.8533 24.7296C16.1155 24.7049 11.3776 24.7076 6.63974 24.7268C6.10353 24.7296 5.9193 24.5813 5.95505 24.0433C5.99904 23.4065 5.96604 22.7669 5.96604 22.1273C5.96604 21.3889 5.64157 20.9113 4.87988 20.7933C4.88263 19.6349 4.88538 18.4738 4.88813 17.3154C5.72956 16.706 5.81756 15.8386 5.78456 14.8943C5.76806 14.4084 5.63057 13.8814 5.99904 13.4422C7.22819 13.4394 8.45734 13.4367 9.68924 13.434Z" fill="#04A2D8"/>
<path d="M64.7618 11.636C59.6692 11.636 54.6508 11.636 49.6325 11.636C49.4262 11.636 49.2228 11.6278 49.0193 11.6387C48.2411 11.6799 47.8121 12.067 47.8094 12.8273C47.7956 15.0508 47.8121 17.2769 47.8149 19.5004C47.8149 20.1015 48.0954 20.4995 48.6426 20.7603C51.0651 21.9105 53.4794 23.0716 55.8937 24.2382C56.3034 24.4359 56.7242 24.466 57.1614 24.466C61.5143 24.4633 65.8699 24.4743 70.2228 24.4523C70.7948 24.4496 71.0532 24.5566 71.0065 25.199C70.946 26.0115 70.968 26.835 71.001 27.653C71.0202 28.1031 70.8553 28.2184 70.429 28.2075C69.4061 28.1828 68.3805 28.191 67.3548 28.202C66.3566 28.2129 65.9689 28.6055 65.9579 29.6047C65.9469 30.5517 65.9634 31.4959 65.9524 32.443C65.9442 33.1484 66.2521 33.5931 66.9478 33.7935C68.1 34.1229 69.2411 34.4962 70.396 34.8174C70.8278 34.9382 71.001 35.1248 71.0038 35.6052C71.012 37.6859 71.0312 37.6859 68.9552 37.6859C67.9295 37.6859 66.9066 37.6612 65.8837 37.6969C65.3887 37.7161 65.2072 37.5816 65.089 37.0655C64.2998 33.5739 62.1852 31.2681 58.7095 30.3266C54.0816 29.0694 49.2118 31.9626 48.1339 36.6236C47.9331 37.4937 47.6471 37.76 46.7617 37.7106C45.2356 37.6255 45.2301 37.6859 45.2301 36.1652C45.2301 27.4471 45.2411 18.729 45.2108 10.011C45.2081 9.2561 45.4226 9.08866 46.1513 9.0914C51.2219 9.12434 56.2924 9.1216 61.363 9.10238C63.2329 9.09689 63.7773 9.03925 64.7618 11.636Z" fill="#0E71F2"/>
<path d="M22.6654 2.14107C25.044 2.14107 27.4253 2.15479 29.8038 2.13008C30.3126 2.12459 30.45 2.27831 30.4445 2.78065C30.4225 5.76994 30.4225 8.75922 30.4445 11.7458C30.4473 12.2344 30.3291 12.3936 29.8148 12.3936C25.0302 12.3744 20.2456 12.3744 15.4583 12.3936C14.9633 12.3963 14.7901 12.2673 14.7956 11.7595C14.8148 8.7702 14.8176 5.78092 14.7928 2.79437C14.7873 2.21518 15.032 2.13283 15.5243 2.13557C17.9056 2.15204 20.2869 2.14107 22.6654 2.14107Z" fill="#D48C36"/>
<path d="M31.5775 14.5264C33.956 14.5264 36.3373 14.5402 38.7159 14.5155C39.2273 14.51 39.3511 14.6637 39.3483 15.1578C39.3263 18.1196 39.3236 21.0815 39.3483 24.0461C39.3538 24.5786 39.2053 24.7323 38.6664 24.7323C33.9093 24.7131 29.1494 24.7103 24.3923 24.735C23.8066 24.7378 23.6636 24.5621 23.6691 23.9966C23.6966 21.0595 23.6966 18.1224 23.6691 15.1852C23.6636 14.6307 23.8451 14.5127 24.3648 14.5182C26.7681 14.5402 29.1714 14.5264 31.5775 14.5264Z" fill="#D58C36"/>
<path d="M22.5857 30.0247C16.055 30.0247 9.52427 30.0137 2.99355 30.0412C2.30885 30.0439 2.06412 29.8627 2.15487 29.1875C2.25661 28.4408 1.82764 27.4801 2.35285 26.9833C2.83956 26.5221 3.77448 26.8405 4.50867 26.8405C17.0339 26.8323 29.5564 26.8405 42.0816 26.8186C42.8241 26.8186 43.1788 26.9503 43.0688 27.7711C42.9753 28.4738 43.3548 29.4016 42.9341 29.849C42.4748 30.3404 41.5289 30.0137 40.7975 30.0165C34.726 30.0302 28.6545 30.0247 22.5857 30.0247Z" fill="#0E71F2"/>
<path d="M16.5885 45.2456C12.9148 45.2511 9.98076 42.3332 9.99726 38.6906C10.0138 35.1249 13 32.174 16.5912 32.174C20.1742 32.174 23.1797 35.1441 23.1852 38.6933C23.1907 42.3359 20.2677 45.2401 16.5885 45.2456Z" fill="white"/>
<path d="M56.5344 45.2456C52.8635 45.2456 49.9322 42.3167 49.9569 38.6769C49.9817 35.1084 52.9679 32.1713 56.5647 32.174C60.1421 32.1768 63.1476 35.1633 63.1449 38.7071C63.1421 42.3524 60.2191 45.2456 56.5344 45.2456Z" fill="white"/>
<path d="M22.5527 32.2453C22.759 32.1026 22.9927 32.1795 23.2072 32.1795C29.5289 32.174 35.8534 32.1877 42.1751 32.1575C42.9093 32.1547 43.0826 32.3853 43.0523 33.0661C42.9891 34.5182 43.2228 34.3205 41.7792 34.3233C38.9112 34.3343 36.0459 34.326 33.1779 34.326C31.4208 34.326 30.5766 35.1358 30.5738 36.8816C30.5738 37.4553 30.4363 37.7188 29.8011 37.6996C28.4703 37.6612 27.1394 37.6886 25.8085 37.6859C25.5335 37.6859 25.2585 37.7381 25.1898 37.3126C24.8735 35.3883 23.9744 33.7578 22.5885 32.3908C22.561 32.3661 22.5665 32.3057 22.5527 32.2453Z" fill="#0E71F2"/>
<path d="M37.8855 40.9414C36.3786 40.9414 34.8689 40.9249 33.3621 40.9496C32.8671 40.9579 32.6829 40.8124 32.6994 40.3018C32.7324 39.2313 32.7269 38.158 32.7021 37.0874C32.6911 36.6263 32.8424 36.4671 33.3153 36.4698C36.3566 36.4863 39.3978 36.4863 42.4363 36.4698C42.8955 36.4671 43.0743 36.6016 43.0605 37.0765C43.033 38.147 43.0303 39.2203 43.0605 40.2908C43.0743 40.7904 42.9093 40.9579 42.4061 40.9496C40.902 40.9249 39.3923 40.9414 37.8855 40.9414Z" fill="#0E71F2"/>
<path d="M10.7974 32.174C9.77728 33.1978 9.05684 34.219 8.46288 35.5009C7.89093 34.4386 7.38772 33.5108 6.89001 32.5802C6.66728 32.1657 6.967 32.174 7.23648 32.174C8.35564 32.174 9.47755 32.174 10.7974 32.174Z" fill="#0E71F2"/>
<path d="M69.5959 30.3431C70.9846 30.3431 70.9846 30.3431 70.9846 31.743C70.9846 31.7952 70.9846 31.8446 70.9846 31.8967C70.9846 32.7724 70.9846 32.7724 70.1706 32.5253C69.6592 32.3689 69.1532 32.185 68.6335 32.0697C68.2458 31.9818 68.0918 31.8226 68.089 31.4054C68.0835 30.3431 68.0588 30.3431 69.5959 30.3431Z" fill="white"/>
<path d="M20.7434 7.27148C20.7434 7.83146 20.7599 8.39418 20.7379 8.95416C20.7131 9.58276 20.3474 9.93961 19.7397 10.0082C19.1678 10.0741 18.6398 9.63491 18.6178 9.00082C18.5738 7.85616 18.5656 6.70601 18.6233 5.56135C18.6536 4.93824 19.0495 4.521 19.737 4.55669C20.4134 4.59512 20.7269 5.0151 20.7461 5.66292C20.7544 6.20094 20.7434 6.73621 20.7434 7.27148Z" fill="#012D3B"/>
<path d="M24.5655 7.29893C24.5655 6.71151 24.5518 6.12133 24.571 5.53391C24.5903 4.92727 24.9368 4.59512 25.5335 4.55669C26.1329 4.51827 26.5536 4.81747 26.6114 5.40764C26.7379 6.65386 26.7434 7.90832 26.6059 9.15179C26.5399 9.75843 26.0834 10.0357 25.5142 9.98901C24.945 9.94235 24.5765 9.60197 24.5655 8.98435C24.5573 8.42437 24.5655 7.86165 24.5655 7.29893Z" fill="#012E3B"/>
<path d="M6.59851 14.0241H5.33911V15.3335H6.59851V14.0241Z" fill="#012D3A"/>
<path d="M27.5023 19.558C27.5023 19.0227 27.4913 18.4875 27.5051 17.9522C27.5188 17.3154 27.901 16.9667 28.4922 16.8762C29.0395 16.7911 29.5977 17.2522 29.6224 17.8781C29.6692 19.0227 29.6774 20.1729 29.6224 21.3175C29.5922 21.9407 29.1962 22.3799 28.5225 22.3442C27.868 22.3112 27.5188 21.8967 27.5023 21.2407C27.4886 20.6807 27.5023 20.1207 27.5023 19.558Z" fill="#012E3B"/>
<path d="M35.5207 19.6403C35.5207 20.1756 35.5207 20.7109 35.5207 21.2462C35.518 21.9132 35.1825 22.3222 34.5198 22.3496C33.8488 22.3771 33.4611 21.9708 33.4391 21.3203C33.4006 20.2003 33.3896 19.0804 33.4309 17.9604C33.4556 17.2604 33.9781 16.7856 34.5555 16.8789C35.1852 16.9804 35.5399 17.362 35.5235 18.04C35.5125 18.5698 35.5207 19.1051 35.5207 19.6403Z" fill="#012E3B"/>
<path d="M13.9047 14.5264C16.2833 14.5264 18.6646 14.5402 21.0431 14.5155C21.5546 14.51 21.6783 14.6637 21.6756 15.1578C21.6536 18.1196 21.6508 21.0815 21.6756 24.0461C21.6811 24.5786 21.5326 24.7323 20.9936 24.7323C16.2365 24.7131 11.4767 24.7103 6.71956 24.735C6.13386 24.7378 5.99087 24.5621 5.99637 23.9966C6.02386 21.0595 6.02386 18.1224 5.99637 15.1852C5.99087 14.6307 6.17235 14.5127 6.69206 14.5182C9.09536 14.5402 11.4987 14.5264 13.9047 14.5264Z" fill="#D48C36"/>
<path d="M9.82679 19.558C9.82679 19.0227 9.81579 18.4875 9.82954 17.9522C9.84329 17.3154 10.2255 16.9667 10.8167 16.8762C11.3639 16.7911 11.9221 17.2522 11.9469 17.8781C11.9936 19.0227 12.0019 20.1729 11.9469 21.3175C11.9166 21.9407 11.5207 22.3799 10.847 22.3442C10.1925 22.3112 9.84329 21.8967 9.82679 21.2407C9.81579 20.6807 9.82679 20.1207 9.82679 19.558Z" fill="#012E3B"/>
<path d="M17.8479 19.6403C17.8479 20.1756 17.8479 20.7109 17.8479 21.2462C17.8451 21.9132 17.5096 22.3222 16.8469 22.3496C16.176 22.3771 15.7883 21.9708 15.7663 21.3203C15.7278 20.2003 15.7168 19.0804 15.758 17.9604C15.7828 17.2604 16.3052 16.7856 16.8827 16.8789C17.5124 16.9804 17.8671 17.362 17.8506 18.04C17.8396 18.5698 17.8479 19.1051 17.8479 19.6403Z" fill="#012E3B"/>
<path d="M16.6461 34.606C19.0055 34.617 20.7736 36.4287 20.7516 38.8141C20.7323 41.0815 18.8597 42.9179 16.5774 42.9151C14.2566 42.9124 12.428 41.054 12.4335 38.7098C12.4417 36.3491 14.2456 34.5923 16.6461 34.606Z" fill="#012D3A"/>
<path d="M56.6307 34.6061C58.9845 34.6225 60.7388 36.4424 60.7113 38.8361C60.6866 41.0952 58.803 42.9234 56.5124 42.9124C54.1944 42.9014 52.3795 41.0376 52.3933 38.6824C52.407 36.3354 54.2246 34.5868 56.6307 34.6061Z" fill="#012D3A"/>
<path d="M18.6013 38.7949C18.5793 39.9011 17.6747 40.7767 16.5748 40.763C15.4363 40.7493 14.5647 39.8352 14.5812 38.6796C14.5977 37.5761 15.4941 36.7142 16.6105 36.7251C17.7572 36.7334 18.6261 37.6365 18.6013 38.7949Z" fill="#0E71F2"/>
<path d="M58.5611 38.7839C58.5419 39.8928 57.6482 40.7712 56.5455 40.763C55.4099 40.7548 54.5272 39.8434 54.5409 38.6905C54.5547 37.5843 55.4401 36.7196 56.5593 36.7251C57.7059 36.7279 58.5804 37.6282 58.5611 38.7839Z" fill="#0E71F2"/>
<path d="M4.86893 22.9069C4.27223 22.9069 3.79102 22.4238 3.79102 21.8309V13.4477C3.79102 12.852 4.27498 12.3716 4.86893 12.3716H12.6315C13.2282 12.3716 13.7095 12.8548 13.7095 13.4477C13.7095 14.0433 13.2255 14.5237 12.6315 14.5237H5.94959V21.8281C5.94684 22.4238 5.46288 22.9069 4.86893 22.9069Z" fill="#012D3A"/>
<path d="M66.6812 15.2291L69.5822 20.8124L71.3668 19.7666L68.694 14.4111L66.6812 15.2291Z" fill="#012D3A"/>
</svg>
