<svg width="81" height="73" viewBox="0 0 81 73" fill="none" xmlns="http://www.w3.org/2000/svg">
<path d="M40.6688 73C60.2669 73 76.1544 60.0217 76.1544 44.0122C76.1544 28.0026 60.2669 15.0243 40.6688 15.0243C21.0706 15.0243 5.18311 28.0026 5.18311 44.0122C5.18311 60.0217 21.0706 73 40.6688 73Z" fill="#E5E5E5"/>
<g clip-path="url(#clip0_13_289)">
<path d="M0 57.7384C3.32955 53.2349 7.0227 48.9268 10.5531 44.5305C11.9356 42.809 14.001 41.9924 16.5103 41.9578C17.95 41.937 19.3917 41.9543 20.8567 41.9543C20.825 41.629 20.5734 41.4526 20.4085 41.2467C15.595 35.2102 10.7751 29.1789 5.95513 23.1459C5.17507 22.1701 5.19832 21.5559 6.0249 21.1337C6.80073 20.7358 7.48356 20.9798 8.23825 21.9244C15.4935 31.0008 22.753 40.0771 29.9934 49.1621C30.3126 49.5635 30.6255 49.7296 31.2343 49.7261C37.4283 49.7036 43.6224 49.7054 49.8164 49.7227C50.3512 49.7244 50.6535 49.586 50.9431 49.2244C58.2111 40.1048 65.4917 30.9938 72.7723 21.8812C72.916 21.7012 73.0471 21.5109 73.2205 21.3517C73.6898 20.9192 74.4423 20.8465 75.0047 21.1614C75.586 21.4867 75.7911 22.0611 75.4444 22.5819C75.1315 23.0525 74.7489 23.4937 74.3895 23.9435C69.7725 29.7274 65.1513 35.5095 60.5386 41.2951C60.3885 41.4837 60.1581 41.6463 60.1263 41.9543C61.5089 41.9543 62.8703 41.9578 64.2296 41.9543C66.999 41.9474 69.1404 42.8886 70.6646 44.7831C73.7891 48.6655 76.9136 52.548 80.0592 56.4183C80.6934 57.1986 81.0359 58.0066 80.9979 58.9564C80.945 60.3146 80.9957 61.6745 80.9809 63.0327C80.9619 64.8251 79.201 66.2784 77.0087 66.2784C52.6555 66.2836 28.3022 66.2853 3.94895 66.2732C2.23238 66.2715 1.04009 65.5258 0.304416 64.2663C0.194488 64.0777 0.236768 63.8337 0 63.6919C0 61.7091 0 59.7246 0 57.7384ZM72.4235 59.5568C72.5651 59.7489 72.7998 59.6762 72.9943 59.6762C74.2035 59.6762 75.4148 59.6675 76.624 59.6589C77.2392 59.6537 77.755 59.4963 78.0869 59.0378C78.4441 58.5447 78.1778 58.1398 77.8438 57.7298C76.1547 55.6519 74.4741 53.5722 72.7934 51.4909C71.3009 49.6431 69.8085 47.7953 68.3202 45.9458C67.4513 44.8644 66.2379 44.2779 64.6524 44.2121C64.4748 44.2052 64.4748 44.2035 64.293 44.4146C64.6778 45.143 65.0752 45.8679 65.4452 46.6015C65.8236 47.3541 65.5445 47.887 64.6376 48.2174C64.2317 48.3662 63.8237 48.5133 63.4305 48.6846C62.6357 49.0323 62.382 49.4804 62.6526 50.1829C63.0944 51.3265 63.5827 52.4598 64.0499 53.5965C64.236 54.0498 64.627 54.2954 65.1957 54.3733C66.4113 54.5411 67.6184 54.7557 68.8403 54.8647C69.6689 54.9373 70.0896 55.2868 70.3962 55.8681C71.0536 57.1052 71.747 58.3267 72.4235 59.5568ZM75.605 61.9012C75.2626 61.8942 74.9201 61.8804 74.5798 61.8804C51.8606 61.8787 29.1436 61.8804 6.42444 61.8769C5.19621 61.8769 3.95741 61.9842 2.72072 61.6762C2.71015 61.8683 2.69535 62.0171 2.69323 62.1659C2.67209 63.8355 2.97017 64.0829 4.98904 64.0829C28.076 64.0829 51.163 64.0829 74.2521 64.0811C74.5946 64.0811 74.937 64.0673 75.2774 64.0586C75.7742 64.0656 76.271 64.0742 76.7677 64.0759C77.3301 64.0777 77.8036 63.9133 78.0848 63.5033C78.4378 62.986 78.2645 62.415 78.2793 61.8648C78.2856 61.6503 78.0742 61.7126 77.9431 61.7472C77.1757 61.9513 76.3809 61.8371 75.605 61.9012ZM69.4575 59.6554C69.2757 59.3198 69.0834 59.0758 69.0136 58.8128C68.6225 57.3197 67.4936 56.7263 65.6545 56.6675C63.6504 56.6017 62.0839 55.8543 61.418 54.1726C60.9656 53.0307 60.4836 51.8975 60.0481 50.7521C59.4837 49.2642 60.1285 47.6984 61.7414 46.944C62.4243 46.6257 62.4348 46.3662 62.122 45.8835C61.7668 45.3367 61.64 44.5461 61.0988 44.2623C60.5534 43.9769 59.6211 44.2018 58.8601 44.1637C58.3802 44.1395 58.1096 44.2831 57.8475 44.6153C56.1415 46.7831 54.3868 48.9268 52.6872 51.0999C52.2242 51.6898 51.6704 51.9303 50.8078 51.9269C43.931 51.9061 37.0542 51.9061 30.1773 51.9269C29.3148 51.9303 28.761 51.6898 28.298 51.0999C26.5835 48.9095 24.7993 46.7555 23.0997 44.5582C22.6684 44.0011 22.1019 44.2346 21.5712 44.1724C21.0575 44.1118 20.9983 44.4526 20.8546 44.7208C18.3009 49.4926 15.7429 54.2626 13.1956 59.036C13.0962 59.2212 12.889 59.4011 13.0201 59.6537C31.7967 59.6554 50.5774 59.6554 69.4575 59.6554ZM6.83244 59.6727C7.62308 59.6727 8.41583 59.6416 9.20224 59.6831C9.73919 59.7125 9.97384 59.5499 10.1831 59.1537C12.1048 55.51 14.0581 51.8767 16.0009 48.2399C16.6414 47.0409 17.2841 45.8419 17.9267 44.643C18.0493 44.4128 18.2079 44.1914 17.6815 44.1689C15.559 44.0807 13.7769 44.4942 12.5233 46.0772C9.43689 49.9753 6.27435 53.8335 3.1414 57.7073C2.81585 58.1104 2.50932 58.5031 2.86447 59.0118C3.22596 59.5309 3.79463 59.6693 4.46054 59.6693C5.25329 59.6727 6.04392 59.6727 6.83244 59.6727Z" fill="#012D3A"/>
<path d="M40.9672 0C44.2544 1.4637 47.5417 2.92914 50.8332 4.38765C53.37 5.51224 55.9047 6.6403 58.4542 7.7424C59.1433 8.03999 59.4414 8.46214 59.4393 9.08499C59.4287 14.0021 59.416 18.9174 59.4414 23.8345C59.4456 24.6459 59.0778 25.1356 58.1984 25.5196C52.6428 27.9401 47.1041 30.3883 41.5739 32.8468C40.8298 33.1773 40.1998 33.1928 39.4409 32.8572C33.8832 30.3848 28.3128 27.9297 22.7297 25.4972C21.8714 25.1234 21.5395 24.6286 21.5437 23.8483C21.5649 18.9312 21.5564 14.0159 21.5437 9.09883C21.5416 8.44484 21.8735 8.03133 22.5859 7.71991C28.3254 5.20774 34.0502 2.67307 39.7791 0.143602C39.8658 0.105539 39.9398 0.0484441 40.018 0C40.333 0 40.6501 0 40.9672 0ZM55.0485 8.81682C55.0083 8.78914 54.9703 8.75627 54.9238 8.73723C50.2645 6.68009 45.601 4.62814 40.9481 2.55888C40.4831 2.353 40.1638 2.45854 39.8277 2.70249C35.1917 4.74233 30.5557 6.78044 25.9197 8.82028C24.2581 9.48639 24.2581 9.48639 24.3596 10.7425C24.3469 14.2097 24.3321 17.6786 24.3236 21.1458C24.3215 21.9642 24.0361 22.9106 24.4441 23.5629C24.8521 24.2151 26.0888 24.3916 26.9471 24.7999C27.0148 24.8328 27.0866 24.8605 27.1543 24.8916C31.0863 26.6148 35.0184 28.3363 38.9483 30.0595C39.925 30.7776 40.927 30.8191 41.9565 30.1357C41.9946 30.1097 42.0263 30.0768 42.0622 30.0474C42.1129 30.0371 42.17 30.0353 42.2144 30.0146C46.8885 27.9557 51.5583 25.8916 56.2387 23.8414C56.5727 23.6943 56.6699 23.5213 56.6636 23.2324C56.6467 22.305 56.6594 21.3777 56.6573 20.4503C56.6467 17.2149 56.634 13.9813 56.6213 10.7459C56.894 9.83934 56.5304 9.21994 55.4058 8.94139C55.2832 8.91025 55.169 8.85834 55.0485 8.81682Z" fill="#012D3A"/>
<path d="M69.4575 59.6554C50.5774 59.6554 31.7945 59.6554 13.0201 59.6554C12.889 59.4028 13.0962 59.2229 13.1956 59.0377C15.7429 54.2643 18.3009 49.4943 20.8546 44.7225C20.9983 44.4526 21.0575 44.1135 21.5712 44.1741C22.1018 44.2363 22.6684 44.0028 23.0996 44.5599C24.7993 46.7572 26.5835 48.9112 28.298 51.1016C28.7609 51.6915 29.3148 51.932 30.1773 51.9286C37.0541 51.9078 43.931 51.9078 50.8078 51.9286C51.6703 51.932 52.2242 51.6915 52.6872 51.1016C54.3868 48.9302 56.1414 46.7866 57.8474 44.617C58.1096 44.2848 58.3802 44.1429 58.86 44.1654C59.6211 44.2035 60.5534 43.9785 61.0988 44.264C61.64 44.5478 61.7668 45.3367 62.1219 45.8852C62.4348 46.3661 62.4221 46.6257 61.7414 46.9457C60.1284 47.7001 59.4837 49.2659 60.0481 50.7538C60.4836 51.8992 60.9656 53.0324 61.418 54.1743C62.0839 55.856 63.6525 56.6034 65.6544 56.6692C67.4936 56.7297 68.6246 57.3214 69.0136 58.8146C69.0833 59.0758 69.2757 59.3198 69.4575 59.6554Z" fill="#04A2D8"/>
<path d="M6.83243 59.6727C6.0418 59.6727 5.25116 59.6727 4.46264 59.6727C3.79462 59.6727 3.22595 59.5326 2.86657 59.0153C2.51142 58.5049 2.81795 58.1139 3.1435 57.7107C6.27645 53.8369 9.43899 49.9787 12.5254 46.0807C13.779 44.4976 15.5611 44.0841 17.6836 44.1724C18.21 44.1948 18.0514 44.4163 17.9288 44.6464C17.2862 45.8454 16.6435 47.0444 16.003 48.2434C14.0602 51.8801 12.1069 55.5135 10.1852 59.1571C9.97595 59.5533 9.73918 59.7142 9.20434 59.6866C8.41582 59.6416 7.62307 59.6727 6.83243 59.6727Z" fill="#2661AE"/>
<path d="M77.8438 57.7298C76.1547 55.6519 74.4741 53.5722 72.7935 51.4909C71.301 49.6431 69.8085 47.7953 68.3202 45.9458C67.4514 44.8644 66.238 44.2779 64.6525 44.2122C64.4749 44.2052 64.4749 44.2035 64.2931 44.4146C64.6778 45.143 65.0753 45.8679 65.4452 46.6015C65.8236 47.3541 65.5446 47.887 64.6377 48.2174C64.2318 48.3662 63.8238 48.5133 63.4306 48.6846C62.6357 49.0323 62.382 49.4804 62.6526 50.1829C63.0944 51.3265 63.5828 52.4598 64.05 53.5965C64.236 54.0498 64.6271 54.2954 65.1958 54.3733C66.4113 54.5411 67.6184 54.7557 68.8403 54.8647C69.669 54.9373 70.0897 55.2868 70.3962 55.8681C71.0494 57.1052 71.7428 58.3284 72.4214 59.5568C72.563 59.7489 72.7977 59.6762 72.9922 59.6762C74.2014 59.6762 75.4127 59.6675 76.6219 59.6589C77.2371 59.6537 77.7529 59.4963 78.0848 59.0378C78.4442 58.5447 78.1778 58.1398 77.8438 57.7298Z" fill="#2661AE"/>
<path d="M78.2772 61.863C78.2836 61.6485 78.0722 61.7108 77.9411 61.7454C77.1758 61.9513 76.3831 61.8353 75.6051 61.8994C75.2627 61.8924 74.9202 61.8786 74.5798 61.8786C51.8607 61.8769 29.1436 61.8786 6.42447 61.8751C5.19624 61.8751 3.95744 61.9824 2.72075 61.6744C2.71018 61.8665 2.69538 62.0153 2.69326 62.1641C2.67212 63.8337 2.9702 64.0811 4.98907 64.0811C28.0761 64.0811 51.163 64.0811 74.2522 64.0793C74.5946 64.0793 74.9371 64.0655 75.2774 64.0568C75.7742 64.0638 76.271 64.0724 76.7678 64.0742C77.3301 64.0759 77.8037 63.9115 78.0848 63.5015C78.4358 62.9859 78.2603 62.4132 78.2772 61.863Z" fill="#2661AE"/>
<path d="M56.6573 20.4486C56.6467 17.2132 56.634 13.9796 56.6213 10.7442C55.6531 11.1473 54.6617 11.5124 53.7653 12.021C53.277 12.1491 52.8204 12.4276 52.2644 12.2563C51.7359 12.0937 51.3448 11.7909 51.2856 11.3324C51.2285 10.8809 51.4864 10.4951 51.979 10.2546C52.6301 9.93795 53.2918 9.63691 53.9493 9.32894C54.3594 9.21994 54.7737 9.11613 55.0485 8.81509C55.0084 8.78741 54.9703 8.75453 54.9238 8.7355C50.2646 6.67836 45.6011 4.62641 40.9482 2.55715C40.4831 2.35126 40.1639 2.4568 39.8277 2.70075C35.1917 4.7406 30.5558 6.77871 25.9198 8.81855C26.7802 9.40334 27.8604 9.66632 28.7906 10.1508C29.6002 10.5729 29.911 11.0937 29.5791 11.6352C29.1795 12.2875 28.3974 12.4692 27.5031 12.0937C26.4483 11.6525 25.4061 11.1923 24.3596 10.7407C24.3469 14.208 24.3321 17.6769 24.3237 21.1441C24.3216 21.9625 24.0362 22.9089 24.4442 23.5611C24.8522 24.2134 26.0889 24.3899 26.9472 24.7982C27.0148 24.831 27.0867 24.8587 27.1543 24.8899C31.0864 26.6131 35.0184 28.3346 38.9483 30.0578C39.2401 29.0197 39.0139 27.9678 39.0731 26.9228C39.0921 26.5958 39.1174 26.2861 39.3162 25.992C39.5868 25.5923 40.0307 25.3812 40.5402 25.4072C41.0729 25.4331 41.5274 25.6632 41.7367 26.1269C41.9735 26.6494 41.8868 27.1892 41.8974 27.7221C41.9079 28.3242 41.9016 28.9263 41.9016 29.5284C41.9269 29.7066 41.8487 29.9073 42.0622 30.0457C42.113 30.0353 42.1701 30.0336 42.2145 30.0128C46.8885 27.954 51.5583 25.8899 56.2387 23.8397C56.5727 23.6926 56.67 23.5196 56.6636 23.2307C56.6467 22.3033 56.6615 21.3759 56.6573 20.4486ZM46.4446 15.2166C45.7427 15.554 45.0536 15.9485 44.2925 16.1561C42.3371 16.6872 41.4703 17.6907 41.8995 19.3776C41.9248 19.4814 41.9079 19.5922 41.9016 19.6994C41.8466 20.4763 41.2758 20.9832 40.4704 20.9728C39.6967 20.9624 39.1407 20.4711 39.09 19.7254C39.0667 19.3603 39.0857 18.9935 39.0857 18.4485C39.5149 17.4347 38.6693 16.9139 37.496 16.4935C36.5363 16.1492 35.6293 15.7045 34.7076 15.2893C33.7965 14.8792 33.5005 14.2443 33.9191 13.6439C34.3377 13.0401 35.1347 12.9276 36.05 13.336C37.2952 13.8913 38.5615 14.419 39.7855 15.0055C40.314 15.2599 40.7283 15.2253 41.2314 14.99C42.4174 14.4363 43.6245 13.9104 44.8337 13.3879C45.2945 13.1889 45.766 12.9674 46.3262 13.1422C46.8695 13.3117 47.1993 13.6543 47.2458 14.1076C47.2944 14.6007 46.9477 14.9761 46.4446 15.2166Z" fill="#C8EAF7"/>
<path d="M41.9016 29.5267C41.9016 28.9246 41.9101 28.3225 41.8974 27.7204C41.8868 27.1858 41.9735 26.6477 41.7367 26.1252C41.5274 25.6598 41.0729 25.4314 40.5402 25.4055C40.0328 25.3795 39.5868 25.5906 39.3162 25.9903C39.1175 26.2844 39.0921 26.5958 39.0731 26.9211C39.0139 27.9661 39.2401 29.018 38.9484 30.0561C39.9229 30.7724 40.9271 30.8156 41.9545 30.1322C41.9925 30.1063 42.0242 30.0734 42.0602 30.044C41.8488 29.9056 41.927 29.7066 41.9016 29.5267Z" fill="#04A2D8"/>
<path d="M28.7948 10.1525C27.8646 9.66635 26.7823 9.40337 25.924 8.82031C24.2624 9.48642 24.2624 9.48642 24.3639 10.7425C25.4124 11.1941 26.4546 11.6543 27.5074 12.0955C28.4037 12.4709 29.1859 12.291 29.5833 11.637C29.9152 11.0954 29.6024 10.5747 28.7948 10.1525Z" fill="#04A2D8"/>
<path d="M55.4079 8.93963C55.2853 8.90849 55.1691 8.85832 55.0507 8.81506C54.7759 9.11611 54.3615 9.21992 53.9514 9.32892C53.294 9.63688 52.6323 9.93793 51.9812 10.2545C51.4865 10.495 51.2286 10.8809 51.2878 11.3324C51.347 11.7909 51.7381 12.0937 52.2666 12.2563C52.8225 12.4276 53.2792 12.1473 53.7675 12.021C54.6638 11.5124 55.6574 11.1473 56.6235 10.7442C56.8941 9.83758 56.5326 9.21819 55.4079 8.93963Z" fill="#04A2D8"/>
<path d="M46.3241 13.1439C45.7639 12.9692 45.2925 13.1906 44.8316 13.3896C43.6224 13.9121 42.4153 14.4363 41.2294 14.9917C40.7262 15.227 40.3119 15.2616 39.7834 15.0073C38.5594 14.4207 37.2952 13.8931 36.048 13.3377C35.1326 12.9294 34.3356 13.0418 33.917 13.6456C33.5006 14.246 33.7944 14.881 34.7056 15.291C35.6273 15.7062 36.5342 16.1509 37.4939 16.4952C38.6672 16.9156 39.5107 17.4381 39.0837 18.4502C39.0837 18.9935 39.0646 19.3603 39.0879 19.7271C39.1365 20.4711 39.6946 20.9641 40.4683 20.9745C41.2738 20.9849 41.8445 20.478 41.8995 19.7011C41.908 19.5939 41.9249 19.4814 41.8974 19.3793C41.4682 17.6924 42.3371 16.689 44.2904 16.1578C45.0515 15.9502 45.7406 15.5557 46.4425 15.2183C46.9456 14.9779 47.2923 14.6024 47.2416 14.111C47.1972 13.656 46.8695 13.3135 46.3241 13.1439Z" fill="#04A2D8"/>
</g>
<defs>
<clipPath id="clip0_13_289">
<rect width="81" height="66.2836" fill="white"/>
</clipPath>
</defs>
</svg>
