<svg width="81" height="45" viewBox="0 0 81 45" fill="none" xmlns="http://www.w3.org/2000/svg">
<path d="M80.952 14.6558C80.6123 15.1585 80.2036 15.5617 79.5325 15.4236C78.9083 15.2966 78.6708 14.8105 78.4996 14.2526C78.0992 12.9491 77.66 11.6594 77.2762 10.3531C77.1436 9.89737 76.942 9.71234 76.4559 9.75376C75.9119 9.80071 75.3623 9.76481 74.7215 9.76481C75.4976 12.3774 76.1963 14.9293 77.0193 17.4369C77.8893 20.0854 78.367 22.7836 78.3919 25.5619C78.414 28.169 78.4002 30.7789 78.3947 33.3859C78.3891 35.4904 77.1049 36.7691 74.995 36.7746C73.3628 36.7801 71.7278 36.7994 70.0956 36.7608C69.5847 36.7497 69.3748 36.8851 69.2588 37.3987C68.3861 41.3315 65.3372 44.0214 61.3492 44.4136C56.9884 44.8416 52.7989 41.812 51.9041 37.5285C51.7826 36.9513 51.6362 36.7608 51.0258 36.7608C42.5169 36.7829 34.0053 36.7801 25.4964 36.7635C24.9827 36.7635 24.7811 36.8989 24.6678 37.4098C23.762 41.5717 20.1303 44.5047 15.9628 44.4771C11.7319 44.4495 8.16922 41.5082 7.27994 37.2828C7.19985 36.8989 7.06176 36.758 6.66407 36.7663C5.53176 36.7884 4.39945 36.7801 3.26437 36.7718C1.28145 36.758 0 35.4849 0 33.5213C0 23.4354 0 13.344 0.00276174 3.2554C0.00276174 1.3857 1.17098 0.140158 3.03791 0.0103563C3.27266 -0.00621408 3.51293 0.00207147 3.74768 0.00207147C24.6402 0.00207147 45.5355 0.00207147 66.4281 0.00207147C70.1785 0.00207147 72.3244 1.62045 73.3932 5.24385C73.6003 5.94533 73.6251 6.91194 74.1002 7.26544C74.5807 7.62446 75.5142 7.38419 76.2488 7.38696C79.0437 7.38972 78.7344 7.14668 79.6153 9.81176C80.0462 11.1153 80.3362 12.4685 80.9493 13.7113C80.952 14.0234 80.952 14.341 80.952 14.6558Z" fill="#012D3A"/>
<path d="M45.2345 11.2064C46.3972 10.7783 46.4663 10.6541 46.4939 9.44443C46.5105 8.66562 46.1514 7.62444 46.6513 7.18533C47.0877 6.80145 48.104 7.06933 48.8635 7.06657C50.5481 7.06105 52.2328 7.08038 53.9174 7.05552C54.4063 7.04724 54.5941 7.14943 54.5885 7.69349C54.5609 11.0103 54.5637 14.3272 54.5885 17.6468C54.5913 18.1826 54.4145 18.3013 53.9147 18.2958C51.6501 18.2709 49.3854 18.2682 47.1236 18.2986C46.5906 18.3068 46.4469 18.1329 46.4773 17.6275C46.5187 16.9729 46.4773 16.3101 46.4884 15.6528C46.5022 14.8685 46.1293 14.4238 45.3616 14.3023C45.2677 14.2554 45.1462 14.2001 45.1296 14.1035C44.9501 13.1286 44.7761 12.1537 45.2345 11.2064Z" fill="white"/>
<path d="M39.6585 12.6011C39.6585 14.2885 39.6419 15.9732 39.6668 17.6606C39.675 18.1467 39.5204 18.293 39.0371 18.2903C36.72 18.2682 34.4001 18.271 32.083 18.2903C31.6273 18.293 31.4948 18.1356 31.4975 17.6965C31.5114 14.3244 31.5114 10.9523 31.4948 7.58027C31.492 7.14667 31.655 7.05554 32.0471 7.0583C34.3918 7.07211 36.7366 7.08316 39.0813 7.05278C39.6171 7.04725 39.6723 7.26267 39.6668 7.70454C39.6474 9.33397 39.6585 10.9689 39.6585 12.6011Z" fill="white"/>
<path d="M16.5815 12.6812C16.5815 10.9965 16.5953 9.31465 16.5732 7.62999C16.5677 7.19364 16.6809 7.04726 17.1393 7.05003C19.4537 7.07212 21.768 7.06936 24.0823 7.05279C24.4966 7.05003 24.6789 7.11907 24.6761 7.59961C24.654 10.9662 24.6596 14.3327 24.6734 17.6993C24.6761 18.1273 24.5822 18.2931 24.1155 18.2875C21.8012 18.2654 19.4868 18.2599 17.1725 18.2903C16.656 18.2958 16.5677 18.1053 16.576 17.6523C16.5953 15.9953 16.5815 14.3382 16.5815 12.6812Z" fill="white"/>
<path d="M76.0085 27.4786C76.0167 26.9621 75.8676 26.8075 75.3429 26.8158C73.4207 26.8461 71.4985 26.8268 69.5736 26.8296C68.7119 26.8296 67.7895 26.7357 67.193 26.1585C66.1491 25.1559 64.9422 25.1919 63.6801 25.2278C63.1277 25.2443 62.5726 25.2305 62.0203 25.2305C55.0137 25.2305 48.0072 25.2305 41.0007 25.2305C39.9208 25.2305 39.6032 25.0013 39.3381 24.0568C38.3025 23.8276 37.2668 23.8082 36.2367 24.0789C36.0296 24.9958 35.3944 25.2388 34.5299 25.2388C25.5488 25.2278 16.5704 25.2305 7.5892 25.2333C7.27436 25.2333 6.95952 25.2526 6.64468 25.2637C5.37981 25.2526 4.11769 25.2526 2.85282 25.225C2.46618 25.2167 2.36399 25.3631 2.36675 25.7304C2.3778 28.3375 2.37504 30.9473 2.37228 33.5544C2.37228 33.9852 2.56836 34.336 2.97986 34.3442C4.23921 34.3746 5.50132 34.51 6.75791 34.3222C6.85181 34.3498 6.96781 34.336 7.11142 34.2642C7.1556 34.2006 7.22741 34.1399 7.23846 34.0736C7.83499 30.0608 11.4308 26.7771 15.6618 26.686C20.1772 26.5893 23.6073 29.3206 24.6871 33.814C24.8059 34.3083 25.0489 34.3995 25.5073 34.3995C34.0163 34.3884 42.5224 34.3857 51.0313 34.3995C51.5699 34.3995 51.7825 34.2863 51.8985 33.6952C52.6828 29.7183 56.3725 26.6998 60.3964 26.6721C64.7986 26.6445 68.2231 29.3869 69.2781 33.7974C69.3748 34.2034 69.5129 34.4133 70.0017 34.4022C71.6339 34.3636 73.2688 34.394 74.901 34.3857C75.7986 34.3802 75.9947 34.173 75.9974 33.2451C76.0029 31.3229 75.9808 29.4007 76.0085 27.4786Z" fill="#AF1C1C"/>
<path d="M9.15788 7.05829C8.32107 7.08314 7.48151 7.08038 6.6447 7.09143C5.43506 7.08314 4.22542 7.09695 3.01854 7.05276C2.50762 7.03343 2.35848 7.17704 2.36125 7.70177C2.3861 11.0159 2.38334 14.3299 2.36125 17.6413C2.35848 18.1577 2.49657 18.3041 3.01578 18.2986C5.04013 18.2709 7.06448 18.293 9.0916 18.282C9.27111 18.282 9.52243 18.4173 9.63014 18.1273C9.64395 14.5923 9.64947 11.0545 9.67709 7.5195C9.67985 7.10247 9.49757 7.04724 9.15788 7.05829Z" fill="white"/>
<path d="M15.9712 29.0693C14.0297 29.0997 12.4279 29.8536 11.1133 31.2815C9.44795 33.0876 8.96464 35.9212 10.0942 38.2604C11.232 40.6161 13.1211 41.9556 15.811 42.0053C19.1416 42.2787 22.3812 39.3982 22.4833 35.714C22.58 32.2315 19.647 29.003 15.9712 29.0693ZM17.6475 40.108C16.5898 40.5084 15.5293 40.3427 14.4605 40.293C14.4356 40.3013 14.4136 40.3123 14.3915 40.3206C14.3114 40.0693 14.038 40.0417 13.8502 39.9202C13.2591 39.5308 12.635 39.1883 12.2014 38.5973C10.34 36.0703 11 32.8639 13.7121 31.2704C13.9137 31.1517 14.2561 31.1489 14.2313 30.7816C14.2534 30.8092 14.2837 30.8368 14.3252 30.8644C15.231 30.8589 16.1093 30.58 17.051 30.823C19.0919 31.3477 20.6965 33.1318 20.818 35.1672C20.9478 37.4125 19.6857 39.3374 17.6475 40.108Z" fill="white"/>
<path d="M60.5566 29.0694C58.6151 29.0997 57.0133 29.8565 55.6987 31.2815C54.0555 33.0656 53.5611 35.9544 54.6796 38.2604C55.8202 40.6162 57.7065 41.9556 60.3964 42.0026C63.7464 42.276 67.0108 39.3596 67.0715 35.6312C67.1295 32.2813 64.2822 28.9948 60.5566 29.0694ZM62.2357 40.108C61.178 40.5085 60.1175 40.3455 59.0487 40.2958C59.0238 40.3041 59.0017 40.3124 58.9824 40.3234C58.9051 40.0362 58.6068 39.9976 58.3886 39.8705C57.7755 39.5115 57.1735 39.1414 56.7482 38.5421C54.9392 36.0041 55.6103 32.8529 58.2975 31.2732C58.4991 31.1545 58.8416 31.1517 58.8167 30.7844C58.8388 30.812 58.8692 30.8396 58.9106 30.8672C59.8164 30.8617 60.6974 30.5828 61.6364 30.8258C63.6773 31.3533 65.2792 33.1319 65.4007 35.17C65.536 37.4181 64.2794 39.3347 62.2357 40.108Z" fill="white"/>
<path d="M70.5651 4.53131C70.5292 4.43464 70.5098 4.32418 70.4546 4.24132C69.5322 2.85493 68.1955 2.41858 66.5854 2.42134C46.9191 2.43791 27.2528 2.43239 7.58643 2.43515C7.32406 2.43515 7.0617 2.46 6.8021 2.47381C5.61731 2.46 4.43529 2.42962 3.2505 2.44343C2.43303 2.45172 2.39436 2.6478 2.3557 4.07562C2.33637 4.84614 2.78929 4.68596 3.21184 4.68596C13.5601 4.68872 23.9083 4.68872 34.2538 4.69149C46.1016 4.69149 57.9495 4.69425 69.8001 4.68044C70.0431 4.67492 70.3635 4.86548 70.5651 4.53131C70.5623 4.53131 70.5651 4.53131 70.5651 4.53131Z" fill="#AF1C1C"/>
<path d="M75.4782 20.8697C74.2188 16.4206 72.896 11.988 71.609 7.54436C71.4903 7.13286 71.2666 7.05277 70.8744 7.05277C67.9801 7.06934 65.083 7.08314 62.1887 7.04448C61.5563 7.03619 61.4734 7.25161 61.4762 7.80396C61.5011 11.0683 61.5259 14.3327 61.4651 17.5943C61.4486 18.5029 61.6888 19.0912 62.5312 19.4143C64.4009 20.936 66.2623 22.466 68.143 23.9739C68.5794 24.3247 69.1096 24.4655 69.6841 24.46C71.5234 24.4489 73.3627 24.4655 75.202 24.4517C75.4312 24.4489 75.7295 24.6202 75.8952 24.2915C75.9587 23.1261 75.7903 21.9717 75.4782 20.8697Z" fill="white"/>
<path d="M57.8446 20.5963C41.0919 20.6874 24.3392 20.646 7.58653 20.6488C7.27169 20.6488 6.95685 20.6681 6.64201 20.6792C5.66712 20.6681 4.69499 20.6515 3.7201 20.6488C2.36961 20.6433 2.40275 20.6488 2.35856 22.0076C2.33647 22.6372 2.46903 22.8526 3.15946 22.8526C4.42434 22.8499 5.68645 22.8499 6.95133 22.8499C7.0618 22.8692 7.18055 22.8637 7.30207 22.8499C16.6174 22.8361 25.93 22.8388 35.2453 22.8416C35.8612 23.0266 36.1567 23.4658 36.234 24.0789C37.2669 24.0706 38.3026 24.065 39.3355 24.0568C39.5453 23.0653 39.827 22.8416 40.9262 22.8416C47.9051 22.8388 54.8868 22.8416 61.8657 22.8361C62.1308 22.8361 62.4208 22.9134 62.697 22.756C61.3465 21.3558 59.9132 20.5853 57.8446 20.5963Z" fill="white"/>
<path d="M45.2344 11.2065C44.3673 10.9524 44.0303 10.3724 44.1021 9.47762C44.1518 8.85071 44.1021 8.21274 44.1159 7.58031C44.1242 7.23785 44.0662 6.99758 43.6437 7.08319C43.3012 7.07767 42.9588 7.08319 42.6163 7.0611C42.2324 7.03624 42.0419 7.15224 42.0419 7.58583C42.0529 10.9828 42.0474 14.3825 42.0502 17.7794C42.0502 17.9921 42.0446 18.2655 42.3291 18.2517C42.9146 18.224 43.5222 18.4588 44.0828 18.1246C44.0911 17.3099 44.0994 16.498 44.1104 15.6832C44.1215 14.794 44.4418 14.4405 45.3587 14.2941C45.1129 13.275 45.3311 12.2338 45.2344 11.2065Z" fill="white"/>
<path d="M14.2174 7.82057C14.2174 7.57477 14.3334 7.28755 14.0655 7.0887C13.9108 7.0887 13.7562 7.0887 13.6015 7.0887C13.4441 7.08042 13.2867 7.06937 13.1293 7.06661C12.0329 7.05556 12.0329 7.05556 12.0329 8.16578C12.0329 11.0877 12.0329 14.0096 12.0329 16.9315C12.0329 18.4284 11.9196 18.2323 13.4054 18.2931C14.0793 18.3207 14.2423 18.0997 14.2367 17.4535C14.2064 14.2444 14.2257 11.0325 14.2174 7.82057Z" fill="white"/>
<path d="M28.6253 7.08866C28.2829 7.08037 27.9404 7.0859 27.598 7.0638C27.2086 7.03895 27.0291 7.16046 27.0291 7.5913C27.0401 10.9882 27.0346 14.3879 27.0373 17.7849C27.0373 17.9948 27.0291 18.2709 27.3163 18.2544C27.9018 18.2267 28.5121 18.456 29.0755 18.1301C29.0838 14.6116 29.0921 11.0904 29.1086 7.57196C29.1114 7.22122 29.0341 7.00305 28.6253 7.08866Z" fill="white"/>
<path d="M59.1233 7.73771C59.1233 7.51677 59.2199 7.2544 58.9686 7.08594C58.814 7.08594 58.6593 7.0887 58.5047 7.0887C58.3472 7.08042 58.1898 7.06661 58.0324 7.06661C56.9388 7.05556 56.9388 7.05556 56.9388 8.1713C56.9388 11.0932 56.9388 14.0151 56.9388 16.9371C56.9388 18.4367 56.8338 18.2461 58.3141 18.2903C58.8968 18.3069 59.1509 18.2047 59.1426 17.5308C59.1095 14.2665 59.1288 11.0021 59.1233 7.73771Z" fill="white"/>
<path d="M17.2829 33.2892C16.1423 32.654 14.8526 32.8474 14.013 33.7781C13.1762 34.7088 13.0989 36.1255 13.8307 37.1142C14.6206 38.1803 15.8606 38.4896 17.0923 37.929C18.1087 37.5396 18.5726 36.7221 18.6361 35.7085C18.7052 34.6508 18.2688 33.7946 17.2829 33.2892Z" fill="#AF1C1C"/>
<path d="M61.8712 33.2865C60.7306 32.6513 59.4381 32.8446 58.6041 33.7753C57.7673 34.7088 57.6899 36.12 58.4218 37.1087C59.2089 38.172 60.4544 38.4841 61.6834 37.9262C62.7025 37.5368 63.1637 36.7193 63.2272 35.7058C63.2935 34.6508 62.8571 33.7947 61.8712 33.2865Z" fill="#AF1C1C"/>
<path d="M34.2483 22.9217L41.2051 22.8693L40.998 25.2278L34.53 25.2361L34.2483 22.9217Z" fill="#012D3A"/>
<path d="M44.105 9.47755L44.1133 15.6859L46.4884 15.6473L46.4939 9.44165L44.105 9.47755Z" fill="#012D3A"/>
</svg>
