<svg width="260" height="260" viewBox="0 0 260 260" fill="none" xmlns="http://www.w3.org/2000/svg">
<g style="mix-blend-mode:soft-light">
<rect x="1.5" y="1.5" width="257" height="257" stroke="white" stroke-width="3"/>
</g>
<path d="M102.222 188.48V190.64H118.982V188.48H102.222ZM109.262 184.38V189.08H111.922V184.38H109.262ZM109.182 176.68V177.34C109.182 179.9 106.982 182.46 102.862 183.1L103.902 185.2C108.622 184.34 111.422 181.24 111.422 177.34V176.68H109.182ZM109.722 176.68V177.34C109.722 181.24 112.562 184.26 117.362 185.1L118.382 183C114.162 182.38 111.962 179.9 111.962 177.34V176.68H109.722ZM103.602 175.66V177.78H117.542V175.66H103.602ZM125.101 176.16V177.32C125.101 179.64 123.761 182.06 120.681 183.06L122.041 185.12C125.601 183.98 127.301 180.82 127.301 177.32V176.16H125.101ZM125.641 176.16V177.32C125.641 180.66 127.321 183.7 130.801 184.8L132.161 182.74C129.141 181.78 127.821 179.52 127.821 177.32V176.16H125.641ZM133.321 174.26V185.42H136.001V174.26H133.321ZM123.361 186.24V188.36H133.321V192.78H136.001V186.24H123.361ZM121.381 175.34V177.44H131.461V175.34H121.381ZM140.959 182.52V184.64H153.979V182.52H140.959ZM139.019 188.52V190.7H155.779V188.52H139.019ZM146.039 183.48V189.22H148.699V183.48H146.039ZM140.959 175.52V183.44H143.619V177.66H153.839V175.52H140.959Z" fill="white"/>
<path d="M72.5599 210.2V211.22H76.3399V210.2H72.5599ZM69.2899 206.78V209.195C69.2899 211.715 67.7599 214.325 65.7649 215.315L66.5599 216.305C68.7049 215.15 70.3099 212.24 70.3099 209.195V206.78H69.2899ZM69.5299 206.78V209.195C69.5299 212.165 71.1049 214.955 73.2949 216.065L74.0299 215.06C72.0649 214.13 70.5349 211.67 70.5349 209.195V206.78H69.5299ZM75.7249 205.595V219.185H76.9549V205.595H75.7249ZM85.0838 211.985V214.07H86.3138V211.985H85.0838ZM85.7138 205.775C82.7138 205.775 80.9438 206.6 80.9438 208.115C80.9438 209.63 82.7138 210.47 85.7138 210.47C88.6988 210.47 90.4838 209.63 90.4838 208.115C90.4838 206.6 88.6988 205.775 85.7138 205.775ZM85.7138 206.72C87.9188 206.72 89.1938 207.23 89.1938 208.115C89.1938 209.015 87.9188 209.525 85.7138 209.525C83.4938 209.525 82.2188 209.015 82.2188 208.115C82.2188 207.23 83.4938 206.72 85.7138 206.72ZM79.5788 211.34V212.36H91.8338V211.34H79.5788ZM81.0638 213.605V214.565H89.0438V215.765H81.0938V218.315H82.3238V216.665H90.2738V213.605H81.0638ZM81.0938 218.045V219.02H90.6788V218.045H81.0938ZM93.3926 216.38V217.415H105.678V216.38H93.3926ZM98.8526 213.095V216.725H100.083V213.095H98.8526ZM98.8226 206.51V207.56C98.8226 209.795 96.2576 211.79 93.8726 212.225L94.3976 213.26C97.1276 212.69 99.9026 210.455 99.9026 207.56V206.51H98.8226ZM99.0476 206.51V207.56C99.0476 210.455 101.823 212.69 104.553 213.26L105.093 212.225C102.708 211.79 100.128 209.81 100.128 207.56V206.51H99.0476ZM107.191 216.395V217.43H119.476V216.395H107.191ZM108.256 206.96V207.98H118.321V206.96H108.256ZM108.286 212.69V213.71H118.306V212.69H108.286ZM110.371 207.905V212.795H111.616V207.905H110.371ZM114.991 207.905V212.795H116.221V207.905H114.991ZM122.565 212.915V213.92H131.88V212.915H122.565ZM120.99 216.395V217.43H133.275V216.395H120.99ZM122.565 206.765V213.23H123.825V207.785H131.73V206.765H122.565ZM123.42 209.795V210.785H131.445V209.795H123.42ZM138.51 216.395V217.43H150.795V216.395H138.51ZM144.03 213.11V216.74H145.26V213.11H144.03ZM144 207.32V208.16C144 210.305 141.435 212.21 139.095 212.6L139.605 213.59C142.275 213.035 145.05 210.935 145.05 208.16V207.32H144ZM144.225 207.32V208.16C144.225 210.935 147.015 213.005 149.73 213.545L150.225 212.555C147.855 212.165 145.275 210.305 145.275 208.16V207.32H144.225ZM139.515 206.84V207.86H149.76V206.84H139.515ZM155.909 207.005V208.085C155.909 210.005 154.529 211.775 152.489 212.495L153.134 213.47C155.414 212.66 156.944 210.575 156.944 208.085V207.005H155.909ZM156.149 207.005V208.085C156.149 210.455 157.709 212.45 159.959 213.215L160.604 212.24C158.594 211.565 157.184 209.915 157.184 208.085V207.005H156.149ZM162.164 205.61V213.815H163.424V205.61H162.164ZM154.364 214.535V215.555H162.164V219.17H163.424V214.535H154.364ZM152.819 206.555V207.56H160.244V206.555H152.819ZM176.007 205.625V215.96H177.252V205.625H176.007ZM173.712 209.21V210.23H176.532V209.21H173.712ZM173.712 212.075V213.08H176.532V212.075H173.712ZM166.122 207.26V208.265H173.712V207.26H166.122ZM169.962 209.015C168.147 209.015 166.887 210.05 166.887 211.61C166.887 213.155 168.147 214.205 169.962 214.205C171.762 214.205 173.022 213.155 173.022 211.61C173.022 210.05 171.762 209.015 169.962 209.015ZM169.962 209.99C171.087 209.99 171.852 210.65 171.852 211.61C171.852 212.57 171.087 213.215 169.962 213.215C168.837 213.215 168.072 212.57 168.072 211.61C168.072 210.65 168.837 209.99 169.962 209.99ZM169.347 205.595V207.905H170.592V205.595H169.347ZM168.537 217.85V218.87H177.582V217.85H168.537ZM168.537 215.075V218.345H169.782V215.075H168.537ZM189.161 205.625V214.805H190.406V205.625H189.161ZM189.881 209.69V210.74H192.386V209.69H189.881ZM186.056 214.985C183.251 214.985 181.616 215.72 181.616 217.07C181.616 218.42 183.251 219.155 186.056 219.155C188.876 219.155 190.511 218.42 190.511 217.07C190.511 215.72 188.876 214.985 186.056 214.985ZM186.056 215.915C188.096 215.915 189.251 216.32 189.251 217.07C189.251 217.82 188.096 218.225 186.056 218.225C184.001 218.225 182.861 217.82 182.861 217.07C182.861 216.32 184.001 215.915 186.056 215.915ZM183.446 211.775V213.635H184.691V211.775H183.446ZM179.981 214.205C182.351 214.205 185.576 214.175 188.456 213.65L188.351 212.78C185.576 213.185 182.246 213.215 179.816 213.215L179.981 214.205ZM180.161 206.78V207.71H187.946V206.78H180.161ZM184.061 208.28C182.141 208.28 180.896 209 180.896 210.2C180.896 211.4 182.141 212.12 184.061 212.12C185.981 212.12 187.211 211.4 187.211 210.2C187.211 209 185.981 208.28 184.061 208.28ZM184.061 209.12C185.276 209.12 186.041 209.54 186.041 210.2C186.041 210.875 185.276 211.28 184.061 211.28C182.846 211.28 182.066 210.875 182.066 210.2C182.066 209.54 182.846 209.12 184.061 209.12ZM183.446 205.505V207.125H184.691V205.505H183.446Z" fill="white"/>
<path d="M132.169 38.4873C133.899 38.8438 135.665 39.0735 137.349 39.5781C150.908 43.6329 159.114 52.646 161.411 66.5086C164.2 83.3443 152.401 99.7541 135.546 103.057C134.026 103.356 132.481 103.528 130.876 103.773C130.876 107.329 130.876 110.894 130.876 114.632C131.289 114.632 131.726 114.632 132.163 114.632C143.124 114.632 154.083 114.632 165.044 114.632C168.619 114.632 170.859 116.859 170.862 120.415C170.865 124.153 170.862 127.89 170.862 131.631C170.862 132.039 170.862 132.447 170.862 132.857C175.068 133.806 177.984 136.157 179.395 140.142C181.565 146.27 177.675 152.993 171.271 154.292C171.053 154.337 170.846 154.437 170.637 154.513C169.499 154.513 168.361 154.513 167.223 154.513C166.844 154.377 166.47 154.213 166.085 154.105C158.006 151.811 155.4 141.777 161.36 135.9C162.986 134.296 164.962 133.341 167.226 132.867C167.226 128.791 167.229 124.793 167.226 120.796C167.223 118.856 166.61 118.255 164.619 118.255C153.737 118.252 142.851 118.255 131.968 118.255C131.604 118.255 131.237 118.288 130.803 118.309C130.803 122.998 130.803 127.6 130.806 132.199C130.806 132.419 130.843 132.64 130.864 132.897C131.079 132.942 131.258 132.975 131.437 133.018C139.753 135.066 142.73 144.998 136.888 151.168C135.158 152.996 132.964 153.926 130.579 154.513C129.441 154.513 128.303 154.513 127.165 154.513C126.785 154.377 126.412 154.213 126.027 154.105C117.948 151.811 115.341 141.777 121.301 135.9C122.928 134.296 124.904 133.341 127.104 132.879C127.104 127.972 127.104 123.159 127.104 118.336C126.934 118.3 126.828 118.261 126.721 118.261C115.42 118.258 104.119 118.249 92.8205 118.264C91.464 118.267 90.7691 119.022 90.7539 120.421C90.7326 122.385 90.7478 124.349 90.7478 126.31C90.7478 128.494 90.7478 130.676 90.7478 132.885C91.024 132.942 91.2061 132.975 91.3821 133.018C99.6972 135.066 102.674 144.998 96.8324 151.168C95.1026 152.996 92.9085 153.926 90.5232 154.513C89.3852 154.513 88.2472 154.513 87.1092 154.513C86.5477 154.328 85.9833 154.144 85.4219 153.957C80.6756 152.361 77.747 147.911 78.0171 142.708C78.2508 138.199 81.85 134.111 86.5599 133.006C86.7025 132.972 86.8482 132.942 87.1092 132.885C87.1092 132.477 87.1092 132.069 87.1092 131.661C87.1092 127.923 87.1061 124.183 87.1092 120.445C87.1122 116.88 89.3458 114.635 92.8994 114.635C103.824 114.632 114.746 114.635 125.671 114.635C126.121 114.635 126.57 114.635 127.092 114.635C127.092 110.991 127.092 107.423 127.092 103.818C125.216 103.495 123.31 103.244 121.441 102.836C108.862 100.077 98.6229 89.197 96.6595 76.543C94.1224 60.2179 103.296 45.1799 118.983 40.0615C120.946 39.4209 123.031 39.1581 125.058 38.7139C125.307 38.6595 125.55 38.5628 125.796 38.4873C127.92 38.4873 130.044 38.4873 132.169 38.4873ZM110.804 93.6416C110.258 84.7584 113.806 78.3559 121.617 74.3886C114.03 68.53 115.441 59.4081 119.824 54.9997C124.664 50.1291 132.46 49.8541 137.583 54.4952C140.011 56.6918 141.419 59.4625 141.686 62.7045C142.083 67.5601 140.114 71.4125 136.293 74.3554C144.18 78.3831 147.704 84.8007 147.172 93.5691C155.475 87.2723 160.316 75.2981 157.084 63.614C153.636 51.1504 142.66 42.527 129.808 42.1252C117.202 41.7324 105.536 49.7877 101.442 61.7105C97.315 73.742 101.655 86.4112 110.804 93.6416ZM114.413 92.433C114.413 93.6597 114.443 94.4936 114.4 95.3215C114.37 95.9107 114.531 96.2582 115.101 96.5543C124.391 101.328 133.662 101.325 142.915 96.4908C143.206 96.3398 143.522 95.8926 143.522 95.5874C143.516 93.4391 143.622 91.2667 143.327 89.1516C142.502 83.2235 139.1 79.1807 133.449 77.3286C127.72 75.4522 122.594 76.8935 118.391 81.1961C115.244 84.417 114.176 88.4235 114.413 92.433ZM129.04 54.8064C124.124 54.7641 119.963 58.825 119.881 63.75C119.799 68.675 123.942 72.8809 128.922 72.9293C133.835 72.9746 137.998 68.9077 138.08 63.9826C138.165 59.0576 134.02 54.8487 129.04 54.8064ZM88.9968 136.387C85.088 136.332 81.7377 139.574 81.6436 143.502C81.5496 147.424 84.8726 150.826 88.8481 150.884C92.7568 150.938 96.1041 147.693 96.2012 143.765C96.2953 139.84 92.9783 136.441 88.9968 136.387ZM121.702 143.632C121.699 147.536 124.989 150.841 128.922 150.884C132.876 150.929 136.26 147.587 136.26 143.638C136.26 139.731 132.973 136.432 129.04 136.387C125.086 136.341 121.705 139.677 121.702 143.632ZM169.016 136.387C165.09 136.402 161.785 139.689 161.76 143.602C161.736 147.542 165.105 150.902 169.065 150.884C172.992 150.866 176.297 147.578 176.321 143.668C176.342 139.722 172.98 136.368 169.016 136.387Z" fill="white"/>
<path d="M129.082 78.374C132.326 78.374 132.329 78.374 132.882 81.5677C133.382 84.4563 133.868 87.3478 134.381 90.2334C134.551 91.1942 134.369 91.9919 133.622 92.6868C132.545 93.6899 131.537 94.7686 130.478 95.7899C129.44 96.79 128.539 96.796 127.51 95.805C126.397 94.7293 125.237 93.6869 124.251 92.5025C123.823 91.9919 123.507 91.1277 123.599 90.4872C124.066 87.1394 124.661 83.8067 125.255 80.477C125.574 78.6913 126.011 78.377 127.838 78.374C128.251 78.374 128.667 78.374 129.082 78.374ZM129.21 82.0028C129.091 81.9998 128.97 81.9998 128.852 81.9968C128.751 82.2989 128.612 82.595 128.56 82.9063C128.223 84.9095 127.902 86.9127 127.589 88.922C127.316 90.6866 127.474 90.9948 129.073 91.9405C130.648 90.5385 130.648 90.5385 130.342 88.5141C130.281 88.1062 130.196 87.6983 130.126 87.2904C129.82 85.5319 129.516 83.7674 129.21 82.0028Z" fill="white"/>
</svg>
