<svg width="260" height="260" viewBox="0 0 260 260" fill="none" xmlns="http://www.w3.org/2000/svg">
<g style="mix-blend-mode:soft-light">
<rect x="1.5" y="1.5" width="257" height="257" stroke="white" stroke-width="3"/>
</g>
<path d="M100.043 184.68V188.9H102.703V184.68H100.043ZM101.383 175.2C97.4231 175.2 94.4631 177.22 94.4631 180.3C94.4631 183.42 97.4231 185.42 101.383 185.42C105.343 185.42 108.303 183.42 108.303 180.3C108.303 177.22 105.343 175.2 101.383 175.2ZM101.383 177.3C103.923 177.3 105.683 178.42 105.683 180.3C105.683 182.22 103.923 183.32 101.383 183.32C98.8431 183.32 97.0831 182.22 97.0831 180.3C97.0831 178.42 98.8431 177.3 101.383 177.3ZM93.0231 188.48V190.64H109.783V188.48H93.0231ZM115.922 175.68V178.38C115.922 181.98 114.402 185.54 111.182 186.94L112.762 189.14C116.442 187.44 118.082 183.14 118.082 178.38V175.68H115.922ZM116.442 175.68V178.38C116.442 182.94 118.082 187.06 121.662 188.7L123.222 186.56C120.062 185.2 118.602 181.8 118.602 178.38V175.68H116.442ZM124.102 174.24V192.82H126.782V174.24H124.102ZM131.88 179.26V181.36H144.72V179.26H131.88ZM129.8 183.28V185.4H146.58V183.28H129.8ZM131.88 174.92V180.3H134.52V174.92H131.88ZM131.7 190.26V192.38H144.82V190.26H131.7ZM131.7 186.88V190.82H134.36V186.88H131.7ZM160.918 174.26V183.56H163.598V174.26H160.918ZM155.098 174.94V176.46C155.098 178.92 153.418 180.92 148.478 181.8L149.398 183.94C155.238 182.76 158.018 180.02 158.018 174.94H155.098ZM149.458 174.94V177.06H156.978V174.94H149.458ZM151.238 184.32V186.36H160.918V187.44H151.278V191.36H153.938V189.34H163.598V184.32H151.238ZM151.278 190.54V192.6H164.058V190.54H151.278Z" fill="white"/>
<path d="M70.6996 210.2V211.22H74.4796V210.2H70.6996ZM67.4296 206.78V209.195C67.4296 211.715 65.8996 214.325 63.9046 215.315L64.6996 216.305C66.8446 215.15 68.4496 212.24 68.4496 209.195V206.78H67.4296ZM67.6696 206.78V209.195C67.6696 212.165 69.2446 214.955 71.4346 216.065L72.1696 215.06C70.2046 214.13 68.6746 211.67 68.6746 209.195V206.78H67.6696ZM73.8646 205.595V219.185H75.0946V205.595H73.8646ZM83.2234 211.985V214.07H84.4534V211.985H83.2234ZM83.8534 205.775C80.8534 205.775 79.0834 206.6 79.0834 208.115C79.0834 209.63 80.8534 210.47 83.8534 210.47C86.8384 210.47 88.6234 209.63 88.6234 208.115C88.6234 206.6 86.8384 205.775 83.8534 205.775ZM83.8534 206.72C86.0584 206.72 87.3334 207.23 87.3334 208.115C87.3334 209.015 86.0584 209.525 83.8534 209.525C81.6334 209.525 80.3584 209.015 80.3584 208.115C80.3584 207.23 81.6334 206.72 83.8534 206.72ZM77.7184 211.34V212.36H89.9734V211.34H77.7184ZM79.2034 213.605V214.565H87.1834V215.765H79.2334V218.315H80.4634V216.665H88.4134V213.605H79.2034ZM79.2334 218.045V219.02H88.8184V218.045H79.2334ZM91.5322 216.38V217.415H103.817V216.38H91.5322ZM96.9922 213.095V216.725H98.2222V213.095H96.9922ZM96.9622 206.51V207.56C96.9622 209.795 94.3972 211.79 92.0122 212.225L92.5372 213.26C95.2672 212.69 98.0422 210.455 98.0422 207.56V206.51H96.9622ZM97.1872 206.51V207.56C97.1872 210.455 99.9622 212.69 102.692 213.26L103.232 212.225C100.847 211.79 98.2672 209.81 98.2672 207.56V206.51H97.1872ZM105.331 216.395V217.43H117.616V216.395H105.331ZM106.396 206.96V207.98H116.461V206.96H106.396ZM106.426 212.69V213.71H116.446V212.69H106.426ZM108.511 207.905V212.795H109.756V207.905H108.511ZM113.131 207.905V212.795H114.361V207.905H113.131ZM120.705 212.915V213.92H130.02V212.915H120.705ZM119.13 216.395V217.43H131.415V216.395H119.13ZM120.705 206.765V213.23H121.965V207.785H129.87V206.765H120.705ZM121.56 209.795V210.785H129.585V209.795H121.56ZM142.139 213.275V216.65H143.384V213.275H142.139ZM142.769 206.495C139.904 206.495 137.834 207.89 137.834 210.05C137.834 212.21 139.904 213.605 142.769 213.605C145.634 213.605 147.689 212.21 147.689 210.05C147.689 207.89 145.634 206.495 142.769 206.495ZM142.769 207.485C144.914 207.485 146.489 208.505 146.489 210.05C146.489 211.595 144.914 212.615 142.769 212.615C140.609 212.615 139.034 211.595 139.034 210.05C139.034 208.505 140.609 207.485 142.769 207.485ZM136.649 216.41V217.445H148.934V216.41H136.649ZM154.018 206.78V209.21C154.018 211.775 152.383 214.37 150.373 215.33L151.138 216.35C153.358 215.225 155.038 212.33 155.038 209.21V206.78H154.018ZM154.228 206.78V209.21C154.228 212.225 155.923 215.015 158.128 216.095L158.878 215.105C156.868 214.175 155.248 211.685 155.248 209.21V206.78H154.228ZM160.288 205.595V219.185H161.533V205.595H160.288ZM165.897 209.675V210.695H175.107V209.675H165.897ZM164.232 212.51V213.53H176.532V212.51H164.232ZM165.897 206.105V210.185H167.127V206.105H165.897ZM165.807 217.82V218.84H175.182V217.82H165.807ZM165.807 214.88V218.09H167.037V214.88H165.807ZM191.622 205.61V212.525H192.882V205.61H191.622ZM187.482 206.27V206.9C187.482 209.255 185.562 211.01 181.992 211.79L182.442 212.81C186.432 211.88 188.847 209.735 188.847 206.27H187.482ZM182.667 206.27V207.29H188.322V206.27H182.667ZM184.107 213.185V214.175H191.637V215.555H184.137V218.54H185.367V216.485H192.882V213.185H184.107ZM184.137 218.045V219.035H193.332V218.045H184.137Z" fill="white"/>
<path d="M171.486 125.183C169.774 122.592 167.148 120.964 165.051 119.835C160.335 117.294 155.221 115.943 150.843 114.955C149.729 114.703 148.62 114.494 147.445 114.27C146.904 114.166 146.357 114.063 145.805 113.955L144.441 113.685L145.119 112.472C145.174 112.372 145.225 112.278 145.273 112.193C145.374 112.006 145.469 111.83 145.583 111.653C146.72 109.879 147.856 108.104 148.996 106.333C151.292 102.756 153.666 99.0559 155.98 95.4037C158.999 90.6374 160.64 85.3898 160.857 79.8069C161.17 71.7539 158.818 64.4899 153.87 58.2189C149.593 52.7998 144.149 49.1149 137.686 47.2699C136.244 46.859 134.712 46.5818 133.227 46.3146C132.564 46.1961 131.881 46.0726 131.206 45.9365H126.162C125.956 45.9743 125.747 46.0121 125.54 46.0499C125.026 46.1457 124.496 46.2415 123.962 46.3222C116.852 47.3682 110.734 50.5137 105.779 55.6681C98.7974 62.9322 95.7401 71.7086 96.6928 81.7578C97.149 86.5719 98.7168 91.1365 101.356 95.3281C103.702 99.0584 106.127 102.832 108.471 106.479C109.545 108.15 110.619 109.821 111.69 111.492C111.813 111.684 111.929 111.88 112.06 112.102C112.123 112.208 112.189 112.319 112.262 112.44L112.99 113.65L111.261 114.02C111.047 114.065 110.858 114.106 110.671 114.149C109.681 114.378 108.685 114.597 107.69 114.817C105.499 115.298 103.236 115.797 101.051 116.397C95.9266 117.806 91.9946 119.656 88.6776 122.217C86.021 124.266 84.5113 126.864 84.4256 129.534C84.3399 132.183 85.6631 134.849 88.1534 137.04C90.2782 138.91 92.907 140.417 96.4307 141.783C104.416 144.881 113.497 146.512 125.011 146.918C130.659 147.114 136.416 146.867 142.117 146.174C150.11 145.204 156.386 143.684 161.868 141.395C165.855 139.729 168.544 137.97 170.586 135.691C173.454 132.49 173.782 128.659 171.486 125.183ZM104.786 93.168C98.7445 83.696 99.2234 70.7432 105.946 61.672C110.918 54.9624 117.452 51.1086 125.368 50.2188C134.951 49.1401 143.272 52.2856 149.432 59.3103C153.434 63.8774 155.859 68.8327 156.635 74.04C157.406 79.2121 156.56 84.674 154.117 90.2745C153.28 92.1951 152.111 93.9645 150.982 95.6734C150.631 96.2052 150.268 96.7547 149.923 97.2966C144.885 105.224 139.745 113.271 134.777 121.057L130.208 128.218C130.074 128.427 129.933 128.631 129.774 128.863C129.699 128.974 129.618 129.09 129.532 129.216L128.706 130.431L127.869 129.224C127.788 129.105 127.713 128.999 127.642 128.899C127.491 128.684 127.357 128.498 127.236 128.304L121.515 119.353C116.028 110.774 110.354 101.902 104.786 93.168ZM167.521 132.994C165.313 135.474 162.384 136.803 159.811 137.851C154.78 139.903 149.202 141.272 143.229 141.922C139.869 142.287 136.449 142.549 133.142 142.802C131.66 142.915 130.175 143.028 128.693 143.149L128.632 143.154L128.572 143.152C120.905 142.862 111.859 142.222 102.891 139.676C99.5359 138.723 95.6367 137.42 92.1534 134.993C91.3116 134.406 90.5226 133.708 89.8093 132.914C87.9921 130.89 88.0097 128.662 89.8598 126.799C91.1351 125.516 92.5995 124.384 94.0967 123.525C98.9134 120.76 104.279 119.479 108.895 118.59C109.714 118.431 110.545 118.307 111.347 118.186C112.201 118.058 113.084 117.924 113.93 117.755C115.518 117.435 116.191 118.507 116.481 118.963C119.864 124.316 123.329 129.745 126.682 134.993L126.724 135.061C127.483 136.248 128.305 136.664 129.172 136.296C129.719 136.064 130.316 135.535 130.697 134.95C134.278 129.445 137.82 123.855 140.854 119.046C141.338 118.28 142.031 117.529 143.506 117.748C149.726 118.68 156.895 119.973 163.277 123.52C164.716 124.319 166.163 125.425 167.458 126.723C169.386 128.646 169.409 130.875 167.521 132.994Z" fill="white"/>
<path d="M128.801 64.2505C128.786 64.2505 128.769 64.2505 128.753 64.2505C124.955 64.2505 121.399 65.7099 118.732 68.3639C116.078 71.0079 114.614 74.5341 114.611 78.2947C114.603 86.0653 120.892 92.3993 128.632 92.4145C128.64 92.4145 128.65 92.4145 128.658 92.4145C136.426 92.4145 142.757 86.141 142.775 78.4182C142.795 70.6324 136.527 64.2757 128.801 64.2505ZM128.721 88.3413C128.706 88.3413 128.688 88.3413 128.673 88.3413C125.883 88.3287 123.327 87.2853 121.482 85.4025C119.637 83.5196 118.644 80.974 118.687 78.2291C118.775 72.5606 123.042 68.3261 128.638 68.3261C128.683 68.3261 128.726 68.3261 128.771 68.3261C134.354 68.3917 138.548 72.6034 138.747 78.34L138.75 78.3804L138.747 78.4207C138.48 84.175 134.266 88.3413 128.721 88.3413Z" fill="white"/>
</svg>
