<svg width="90" height="61" viewBox="0 0 90 61" fill="none" xmlns="http://www.w3.org/2000/svg">
<path d="M29.2205 55.0552C29.2205 43.1477 29.2205 31.2493 29.2397 19.3417C29.2397 18.6386 28.9232 18.6021 28.3476 18.6021C20.9707 18.6112 13.5842 18.6204 6.20733 18.593C5.43031 18.593 5.24805 18.7847 5.24805 19.5152C5.27683 30.5279 5.26723 41.5405 5.26723 52.5532C5.26723 53.5029 5.28642 54.4434 5.29601 55.3931C5.28642 56.0871 5.3056 56.7811 5.25764 57.4751C5.22886 57.9499 5.40153 58.096 5.90036 58.0869C7.44481 58.0595 8.99885 58.096 10.5433 58.0686C11.4066 58.0504 12.5866 58.443 13.0566 57.9043C13.5458 57.3472 13.2005 56.2606 13.1621 55.4022C13.1717 53.649 13.1909 51.9048 13.2005 50.1516C13.2005 49.4119 13.4691 48.8275 14.2941 48.6631C15.0711 48.5079 15.5699 48.8823 15.8481 49.558C15.8481 51.7496 15.8481 53.9412 15.8481 56.1236C15.8481 58.2421 15.8481 58.233 18.1216 58.096C18.5533 58.0686 18.6684 57.9225 18.6492 57.5481C18.6205 56.8267 18.6205 56.1053 18.6109 55.384C18.6205 53.6307 18.6301 51.8866 18.6396 50.1333C18.6492 49.1745 19.1481 48.5901 19.9539 48.5901C20.7501 48.5901 21.2681 49.1928 21.2777 50.1424C21.2873 51.8957 21.2969 53.6398 21.3065 55.3931C21.2969 56.0871 21.316 56.7811 21.2681 57.4659C21.2393 57.9317 21.3832 58.0869 21.8916 58.0778C24.1363 58.0504 26.3715 58.0595 28.6162 58.0778C29.0383 58.0778 29.2781 58.0138 29.2493 57.539C29.2014 56.8176 29.211 56.0962 29.2014 55.384C29.1918 55.2744 29.2205 55.1648 29.2205 55.0552ZM7.90526 22.5013C7.91486 21.7251 8.45205 21.232 9.2003 21.2228C9.94854 21.2137 10.4953 21.7159 10.5241 22.483C10.5529 23.0948 10.5337 23.7066 10.5337 24.3184C10.5337 24.8755 10.5529 25.4325 10.5337 25.9895C10.5049 26.8113 9.97731 27.3227 9.18111 27.3044C8.43287 27.2862 7.91486 26.7931 7.90526 26.0078C7.88608 24.8298 7.88608 23.6701 7.90526 22.5013ZM10.5241 44.3074C10.4857 45.0653 9.91976 45.6041 9.20989 45.6132C8.43287 45.6223 7.90526 45.0927 7.89567 44.2526C7.87648 43.1112 7.87648 41.9697 7.89567 40.8283C7.90526 40.0338 8.40409 39.5225 9.14274 39.5042C9.91976 39.4768 10.4953 39.9882 10.5337 40.8009C10.5625 41.3853 10.5433 41.9697 10.5433 42.5541C10.5337 43.1385 10.5529 43.723 10.5241 44.3074ZM7.87648 31.6054C7.89567 30.8749 8.41368 30.3544 9.09477 30.3087C9.79505 30.2631 10.4378 30.7836 10.5049 31.5232C10.5625 32.1624 10.5145 32.8016 10.5145 33.4408C10.5145 33.4408 10.5145 33.4408 10.5241 33.4408C10.5241 33.9979 10.5529 34.5549 10.5145 35.1119C10.4665 35.9064 9.85261 36.4817 9.13315 36.4543C8.42328 36.4269 7.89567 35.879 7.87648 35.1028C7.8573 33.9522 7.8573 32.7742 7.87648 31.6054ZM7.86689 49.832C7.90526 49.1106 8.45205 48.581 9.14274 48.6083C9.87179 48.6357 10.4186 49.0375 10.457 49.7133C10.5337 51.0191 10.5337 52.3249 10.457 53.6307C10.409 54.3521 9.75668 54.7995 9.0564 54.7173C8.32735 54.6352 7.89567 54.2151 7.86689 53.5029C7.83811 52.891 7.8573 52.2792 7.8573 51.6674C7.8573 51.0556 7.82852 50.4438 7.86689 49.832ZM13.3156 22.4465C13.3444 21.7342 13.7185 21.2959 14.4859 21.232C15.2438 21.1681 15.8098 21.5242 15.8865 22.1999C16.0496 23.5788 16.0784 24.9759 15.8673 26.3456C15.7618 27.0396 15.1862 27.3592 14.438 27.2771C13.7281 27.1949 13.3444 26.7748 13.3156 26.1082C13.2868 25.469 13.306 24.8298 13.306 24.1906C13.306 23.6153 13.2868 23.0309 13.3156 22.4465ZM13.2197 31.6693C13.2485 30.8475 13.8528 30.2905 14.5819 30.3087C15.2726 30.327 15.8289 30.8475 15.8865 31.6328C15.9345 32.2172 15.8961 32.8016 15.8961 33.3861C15.8961 33.9705 15.9345 34.5549 15.8865 35.1393C15.8289 35.9155 15.263 36.4543 14.5723 36.4634C13.8528 36.4725 13.2389 35.8972 13.2101 35.0937C13.1909 33.9522 13.1813 32.8108 13.2197 31.6693ZM14.5915 45.6132C13.8528 45.6223 13.2773 45.0836 13.2485 44.2435C13.2101 43.102 13.2005 41.9606 13.2485 40.8191C13.2868 39.9608 13.8336 39.4859 14.6202 39.5042C15.3685 39.5225 15.8673 39.9882 15.9249 40.81C15.9632 41.3944 15.9345 41.9788 15.9345 42.5633C15.9345 43.1203 15.9632 43.6773 15.9249 44.2343C15.8865 45.0653 15.3397 45.6132 14.5915 45.6132ZM24.0788 22.4647C24.1076 21.7068 24.6544 21.2046 25.4122 21.2228C26.1221 21.232 26.688 21.7159 26.6976 22.4282C26.7264 23.6518 26.7264 24.8755 26.6976 26.0991C26.6784 26.8479 26.0837 27.3318 25.3259 27.2953C24.616 27.2679 24.1076 26.7748 24.0788 26.0534C24.0596 25.4416 24.0788 24.8298 24.0788 24.218C24.0692 23.6336 24.05 23.0492 24.0788 22.4647ZM24.0692 40.7643C24.098 40.0338 24.5872 39.5316 25.2971 39.5042C26.0165 39.4768 26.6497 39.9242 26.6784 40.6182C26.736 41.8967 26.736 43.1751 26.6784 44.4535C26.6497 45.1384 25.9878 45.6315 25.3067 45.5949C24.5872 45.5675 24.098 45.0927 24.0692 44.3439C24.05 43.7321 24.0596 43.1203 24.0596 42.5085C24.0692 41.9332 24.05 41.3488 24.0692 40.7643ZM24.05 31.5963C24.0788 30.8749 24.5968 30.3453 25.2683 30.3087C25.9398 30.2631 26.6209 30.747 26.6497 31.4502C26.7168 32.7286 26.7168 34.0161 26.6593 35.2946C26.6305 35.9794 25.9398 36.4908 25.2875 36.4634C24.6064 36.436 24.0788 35.9064 24.0404 35.1941C24.0116 34.5823 24.0308 33.9705 24.0308 33.3587C24.05 32.7742 24.0308 32.1807 24.05 31.5963ZM24.0308 49.8685C24.0692 49.138 24.5872 48.6083 25.2779 48.6175C26.0165 48.6266 26.5537 49.0101 26.6209 49.695C26.7456 51.0191 26.7648 52.3614 26.6113 53.6946C26.5346 54.3795 25.9974 54.7813 25.2491 54.7265C24.5105 54.6808 24.0692 54.2608 24.0308 53.5394C23.9924 52.9002 24.0212 52.261 24.0212 51.6218C24.0212 51.6218 24.0212 51.6218 24.0116 51.6218C24.0212 51.0373 24.002 50.4438 24.0308 49.8685ZM21.2585 35.185C21.2297 35.9064 20.7117 36.4269 20.021 36.4634C19.3207 36.4999 18.6588 35.9612 18.6396 35.2306C18.6013 34.007 18.6013 32.7742 18.6396 31.5506C18.6588 30.811 19.3111 30.2813 20.021 30.3179C20.7117 30.3544 21.2393 30.8749 21.2585 31.5871C21.2777 32.199 21.2585 32.8108 21.2585 33.4226C21.2585 34.007 21.2777 34.6006 21.2585 35.185ZM21.2681 44.3439C21.2393 45.0927 20.7501 45.5675 20.0306 45.5949C19.3495 45.6223 18.6876 45.1384 18.6588 44.4535C18.6013 43.1751 18.6013 41.8967 18.6588 40.6182C18.6876 39.906 19.3207 39.4677 20.0402 39.5042C20.7405 39.5316 21.2201 40.0247 21.2681 40.7643C21.2681 40.8191 21.2681 40.8739 21.2681 40.9287C21.2681 41.4857 21.2681 42.0428 21.2681 42.5998C21.2777 43.1751 21.2969 43.7686 21.2681 44.3439ZM20.0786 27.2953C19.2632 27.3501 18.7356 26.9118 18.6876 26.1995C18.6013 24.9029 18.6109 23.5879 18.6876 22.2821C18.726 21.5698 19.3879 21.1589 20.1169 21.232C20.8748 21.305 21.2585 21.7342 21.2873 22.4465C21.3065 23.0583 21.2873 23.6701 21.2873 24.2819C21.2873 24.8663 21.3065 25.4507 21.2873 26.0352C21.2681 26.7748 20.894 27.2405 20.0786 27.2953Z" fill="white"/>
<path d="M13.306 12.2739C13.4787 13.3241 13.8336 13.6071 15.0232 13.6071C19.4167 13.6163 23.8006 13.6254 28.1941 13.598C28.952 13.5889 29.2781 13.7167 29.2397 14.5385C29.163 16.1 29.2206 16.1 27.561 16.1C20.4527 16.1 13.3444 16.0909 6.22652 16.1183C5.51665 16.1183 5.20009 16.0361 5.23846 15.2325C5.3152 13.6163 5.25764 13.6163 6.94598 13.6163C7.3297 13.6163 7.71341 13.5889 8.08753 13.6163C9.05641 13.6893 9.65116 13.2875 9.88139 12.3926C11.0229 12.2648 12.1741 12.4657 13.306 12.2739Z" fill="#08D804"/>
<path d="M86.0294 49.5489C86.0294 50.6082 86.0294 51.6583 86.0294 52.7175C84.8495 53.1467 84.7152 53.3294 84.7152 54.5621C84.7152 55.5392 84.6864 56.5163 84.7248 57.4933C84.744 57.9773 84.5713 58.0869 84.0821 58.096C82.2402 58.1143 82.2402 58.1325 82.2402 56.3884C82.2402 51.567 82.2402 46.7364 82.2402 41.9149C82.2402 40.5543 81.8373 40.1708 80.4272 40.1708C78.4031 40.1708 76.3886 40.1708 74.3645 40.1708C73.0791 40.1708 72.6282 40.5908 72.6282 41.8236C72.6186 46.9555 72.609 52.0875 72.6378 57.2194C72.6378 57.886 72.5131 58.1873 71.7457 58.096C71.055 58.0138 70.1245 58.2969 69.712 57.9591C69.2228 57.5573 69.5585 56.6532 69.5585 55.9684C69.5393 51.3113 69.5489 46.6542 69.5489 41.9971C69.5489 40.5361 69.1556 40.1708 67.6399 40.1708C65.6159 40.1708 63.6014 40.1708 61.5773 40.1708C60.3974 40.1708 59.9369 40.6091 59.9369 41.7414C59.9273 46.9281 59.9273 52.1149 59.9465 57.3016C59.9465 57.8951 59.841 58.1782 59.1503 58.0869C58.402 57.9956 57.4236 58.3791 56.9535 57.9317C56.4931 57.4842 56.8192 56.5528 56.8192 55.8314C56.8096 51.2017 56.8192 46.572 56.8096 41.9423C56.8096 40.4995 56.4547 40.1617 54.9678 40.1617C52.9725 40.1617 50.9868 40.1617 48.9915 40.1617C47.6677 40.1617 47.2552 40.5452 47.2552 41.7962C47.2552 46.9555 47.2456 52.1149 47.2744 57.2742C47.2744 57.9317 47.1017 58.1691 46.411 58.0869C45.6628 57.9956 44.6651 58.3974 44.2334 57.9134C43.8689 57.5025 44.1087 56.5893 44.1087 55.8953C44.1087 51.2108 44.1087 46.5264 44.1087 41.8419C44.1087 40.5269 43.7154 40.1617 42.334 40.1617C40.31 40.1617 38.2955 40.1617 36.2714 40.1617C34.9667 40.1617 34.5638 40.5452 34.5638 41.8145C34.5638 46.919 34.5447 52.0235 34.583 57.1189C34.5926 57.8586 34.4295 58.1234 33.595 58.0869C31.9162 58.023 31.9162 58.0686 31.9162 56.4615C31.9162 48.8732 31.9354 41.294 31.8874 33.7057C31.8779 32.8199 32.156 32.6099 33.0194 32.6738C33.8636 32.7468 34.7173 32.6555 35.5615 32.7012C36.5592 32.7469 37.1923 32.3907 37.4129 31.441C38.5161 31.441 39.6289 31.441 40.732 31.4502C41.0774 32.5277 41.3268 32.7012 42.6602 32.7012C54.8335 32.7012 67.0068 32.7012 79.1801 32.7012C80.7054 32.7012 82.2306 32.756 83.7463 32.6829C84.6001 32.6373 84.7344 32.9386 84.7248 33.66C84.696 38.3354 84.7056 43.0198 84.7056 47.6952C84.7152 48.9371 84.8495 49.1197 86.0294 49.5489ZM77.4438 37.6596C78.499 37.6596 79.5447 37.6688 80.5999 37.6596C81.6071 37.6505 82.2306 37.1756 82.2402 36.4086C82.2498 35.6415 81.6359 35.1484 80.6382 35.1484C78.5086 35.1393 76.3694 35.1393 74.2398 35.1484C73.2326 35.1484 72.6186 35.6507 72.6378 36.4177C72.657 37.1483 73.2709 37.6505 74.2014 37.6596C75.2854 37.6688 76.3598 37.6596 77.4438 37.6596ZM64.7525 37.6596C65.8653 37.6596 66.9685 37.6779 68.0812 37.6505C68.935 37.6322 69.5297 37.1026 69.5393 36.3903C69.5489 35.6689 68.9638 35.1484 68.1004 35.1484C65.8845 35.1393 63.6589 35.1393 61.443 35.1484C60.5604 35.1484 59.9849 35.6324 59.9561 36.3447C59.9273 37.0843 60.5317 37.6414 61.4334 37.6505C62.5366 37.6688 63.6493 37.6596 64.7525 37.6596ZM52.1187 35.1484C50.9772 35.1484 49.8356 35.1393 48.6941 35.1484C47.8116 35.1576 47.2648 35.6598 47.2744 36.3995C47.2744 37.13 47.8307 37.6505 48.7133 37.6505C50.9388 37.6688 53.1644 37.6688 55.3899 37.6505C56.2628 37.6414 56.8096 37.1209 56.8096 36.3812C56.8096 35.6233 56.2724 35.1576 55.3803 35.1484C54.2867 35.1393 53.2027 35.1484 52.1187 35.1484ZM39.3507 37.6596C40.4347 37.6596 41.5187 37.6688 42.6026 37.6596C43.5427 37.6414 44.1183 37.1574 44.1183 36.3995C44.1183 35.6324 43.5619 35.1576 42.6026 35.1484C40.4347 35.1393 38.2667 35.1393 36.0987 35.1484C35.1298 35.1484 34.583 35.6142 34.583 36.3903C34.583 37.1665 35.1394 37.6414 36.0987 37.6505C37.1827 37.6688 38.2667 37.6596 39.3507 37.6596Z" fill="white"/>
<path d="M40.7417 31.4593C39.6385 31.4593 38.5258 31.4593 37.4226 31.4502C37.0197 30.3635 36.7127 30.1626 35.4944 30.1535C34.5256 30.1535 33.5567 30.1353 32.5974 30.1626C32.1273 30.1718 31.9355 30.0622 31.9259 29.5691C31.8683 27.7245 31.8492 27.7245 33.7581 27.7245C50.3633 27.7245 66.9685 27.7245 83.5737 27.7245C84.888 27.7245 84.7057 27.5967 84.7153 28.7747C84.7249 30.1535 84.7153 30.1535 83.238 30.1535C69.7409 30.1535 56.2341 30.1535 42.737 30.1535C41.394 30.1626 41.0487 30.3909 40.7417 31.4593Z" fill="#08D804"/>
<path d="M50.7566 18.8669C50.536 13.9907 50.2962 9.12357 50.0947 4.24733C50.018 2.45755 50.066 2.45755 48.1474 2.54886C46.9483 2.49407 46.9195 2.49407 46.8715 3.59899C46.6413 8.2926 46.4207 12.9953 46.248 17.689C46.2192 18.4925 45.7684 19.634 46.3823 20.0266C46.9962 20.4193 48.1282 20.0906 49.0299 20.0814C49.1738 20.0997 49.3177 20.118 49.4616 20.118C50.8238 20.1453 50.8142 20.1453 50.7566 18.8669Z" fill="#08D804"/>
<path d="M70.441 18.8669C70.2203 13.9907 69.9805 9.12357 69.7791 4.24733C69.7023 2.45755 69.7503 2.45755 67.8317 2.54886C66.6326 2.49407 66.6038 2.49407 66.5559 3.59899C66.3256 8.2926 66.105 12.9953 65.9323 17.689C65.9036 18.4925 65.4527 19.634 66.0666 20.0266C66.6806 20.4193 67.8125 20.0906 68.7143 20.0814C68.8582 20.0997 69.002 20.118 69.1459 20.118C70.5081 20.1453 70.4985 20.1453 70.441 18.8669Z" fill="#08D804"/>
<path d="M79.6023 48.2888C79.6023 48.1061 79.775 47.8322 79.4296 47.7226C78.0866 47.7317 76.7437 47.7317 75.4007 47.7409C75.3527 47.8048 75.2664 47.8596 75.2664 47.9235C75.2664 51.1561 75.276 54.3886 75.2664 57.6212C75.2664 58.0047 75.439 58.0869 75.794 58.0778C76.8204 58.0595 77.8468 58.0412 78.8733 58.0869C79.4392 58.1052 79.6119 57.9682 79.6119 57.402C79.5927 54.3704 79.6119 51.3296 79.6023 48.2888Z" fill="#08D804"/>
<path d="M66.7765 47.75C65.4335 47.7408 64.0905 47.7408 62.7475 47.7317C62.7475 49.8867 62.7475 52.0418 62.7379 54.1877C62.7379 54.4799 62.8339 54.7995 62.6036 55.0643C62.6036 55.1739 62.6132 55.2835 62.6132 55.3839C62.6036 56.0779 62.6132 56.781 62.5653 57.475C62.5365 57.9408 62.6804 58.1051 63.1888 58.0869C64.2152 58.0503 65.2417 58.0503 66.2681 58.0869C66.7861 58.1051 66.9012 57.9225 66.9012 57.4659C66.8916 54.3703 66.9108 51.2747 66.9108 48.1791C66.9108 48.033 66.9876 47.8504 66.7765 47.75Z" fill="#08D804"/>
<path d="M41.4803 57.5573C41.4515 56.8359 41.4515 56.1236 41.4419 55.4022C41.4515 53.0097 41.4515 50.6264 41.4803 48.2339C41.4803 47.8687 41.4324 47.6861 40.9719 47.6952C39.8975 47.7317 38.8135 47.7134 37.7295 47.6952C37.3746 47.6861 37.2115 47.7591 37.2211 48.1518C37.2499 50.5716 37.2595 52.9823 37.2691 55.4022C37.2595 56.1236 37.2595 56.8359 37.2307 57.5573C37.2115 57.9316 37.2978 58.1051 37.7487 58.096C38.8231 58.0686 39.8975 58.0686 40.9719 58.096C41.4228 58.096 41.4995 57.9225 41.4803 57.5573Z" fill="#08D804"/>
<path d="M54.1237 55.3931C54.1333 52.9732 54.1429 50.5625 54.1717 48.1426C54.1812 47.75 54.0182 47.6861 53.6536 47.6952C52.5696 47.7135 51.4953 47.7226 50.4113 47.6952C49.9508 47.6861 49.8932 47.8687 49.9028 48.234C49.922 50.6264 49.9316 53.0098 49.9412 55.4022C49.9316 56.1236 49.9412 56.845 49.9028 57.5573C49.8837 57.9317 49.97 58.1052 50.4209 58.0869C51.4953 58.0595 52.5696 58.0595 53.644 58.0869C54.0949 58.096 54.1812 57.9225 54.1621 57.5481C54.1333 56.8359 54.1333 56.1145 54.1237 55.3931Z" fill="#08D804"/>
<path d="M39.3218 45.184C39.2643 45.184 39.2067 45.184 39.1492 45.184C37.173 45.184 37.1922 45.184 37.2306 43.2938C37.2402 42.8372 37.3457 42.6546 37.8637 42.6729C38.8806 42.7094 39.907 42.7003 40.9334 42.6729C41.3459 42.6637 41.4706 42.7916 41.4898 43.1842C41.5953 45.184 41.6145 45.184 39.3218 45.184Z" fill="#08D804"/>
<path d="M52.0804 42.682C52.3394 42.682 52.608 42.682 52.867 42.682C54.1429 42.682 54.1429 42.682 54.1429 43.9147C54.1429 45.1749 54.1429 45.1749 52.7999 45.1749C52.4737 45.1749 52.1572 45.1749 51.831 45.1749C49.7206 45.1749 49.7302 45.1749 49.8933 43.1385C49.922 42.7733 50.0372 42.6546 50.4113 42.6637C50.9677 42.7002 51.524 42.682 52.0804 42.682Z" fill="#08D804"/>
<path d="M64.7236 45.184C64.6373 45.184 64.551 45.184 64.4646 45.184C62.4213 45.184 62.3158 45.047 62.5844 43.0837C62.6324 42.7367 62.7955 42.682 63.0928 42.682C64.1768 42.6911 65.2512 42.682 66.3352 42.682C66.5655 42.682 66.8341 42.6546 66.8436 42.9833C66.8532 43.6225 66.8532 44.2617 66.8341 44.9009C66.8245 45.2297 66.5271 45.1749 66.3064 45.1749C65.7788 45.1931 65.2512 45.184 64.7236 45.184Z" fill="#08D804"/>
<path d="M77.4535 45.184C77.396 45.184 77.3384 45.184 77.2809 45.184C75.1129 45.184 75.1321 45.184 75.3239 43.1477C75.3623 42.7824 75.487 42.6729 75.8515 42.6729C76.9355 42.682 78.0099 42.682 79.0939 42.682C79.1515 42.682 79.2282 42.6637 79.2666 42.6911C79.9477 43.2664 79.4392 44.0152 79.5831 44.6727C79.6695 45.0744 79.4392 45.2114 79.0363 45.1932C78.5087 45.1658 77.9811 45.184 77.4535 45.184Z" fill="#08D804"/>
<path d="M72.6859 22.6474C72.6571 22.6382 72.6284 22.6474 72.5996 22.6474C69.6162 22.6474 66.6328 22.6474 63.6495 22.6474C63.4192 22.6474 63.0931 22.6108 63.1123 22.9213C63.1602 23.6518 62.882 24.4006 63.2657 25.1038C65.6064 25.1038 67.947 25.1129 70.2973 25.1129C71.0839 25.259 71.8705 25.1403 72.6571 25.1768C73.2998 25.2133 73.2231 24.7385 73.1368 24.4372C72.9545 23.8527 73.6836 23.0492 72.6859 22.6474Z" fill="#08D804"/>
<path d="M53.0013 22.6474C52.9726 22.6382 52.9438 22.6474 52.915 22.6474C49.9316 22.6474 46.9483 22.6474 43.9649 22.6474C43.7347 22.6474 43.4085 22.6108 43.4277 22.9213C43.4756 23.6518 43.1975 24.4006 43.5812 25.1038C45.9218 25.1038 48.2625 25.1129 50.6127 25.1129C51.3993 25.259 52.1859 25.1403 52.9726 25.1768C53.6153 25.2133 53.5385 24.7385 53.4522 24.4372C53.2699 23.8527 53.9894 23.0492 53.0013 22.6474Z" fill="#08D804"/>
<path d="M14.5819 36.4634C15.2726 36.4543 15.8289 35.9155 15.8865 35.1393C15.9345 34.5549 15.8961 33.9705 15.8961 33.3861C15.8961 32.8016 15.9345 32.2172 15.8865 31.6328C15.8289 30.8566 15.2726 30.327 14.5819 30.3087C13.8528 30.2905 13.2485 30.8475 13.2197 31.6693C13.1813 32.8108 13.1813 33.9522 13.2197 35.0937C13.2485 35.8972 13.8624 36.4725 14.5819 36.4634Z" fill="#012D3A"/>
<path d="M21.2587 31.5872C21.2299 30.8749 20.7023 30.3453 20.0212 30.3179C19.3114 30.2814 18.6686 30.811 18.6399 31.5506C18.6015 32.7743 18.6015 34.007 18.6399 35.2307C18.659 35.9612 19.321 36.5091 20.0212 36.4634C20.7119 36.4269 21.2299 35.9064 21.2587 35.185C21.2779 34.6006 21.2587 34.0162 21.2587 33.4317C21.2587 32.8108 21.2779 32.199 21.2587 31.5872Z" fill="#012D3A"/>
<path d="M9.13336 36.4634C9.86241 36.4908 10.4668 35.9155 10.5147 35.121C10.5435 34.564 10.5243 34.007 10.5243 33.45C10.5243 33.45 10.5243 33.45 10.5147 33.45C10.5147 32.8108 10.5627 32.1624 10.5051 31.5323C10.438 30.7927 9.79526 30.2722 9.09498 30.3178C8.41389 30.3635 7.89588 30.884 7.87669 31.6145C7.85751 32.7834 7.85751 33.9522 7.87669 35.121C7.89588 35.8972 8.42349 36.436 9.13336 36.4634Z" fill="#012D3A"/>
<path d="M9.14272 48.6083C8.45204 48.5809 7.90525 49.1106 7.86688 49.8319C7.82851 50.4438 7.85728 51.0556 7.85728 51.6674C7.85728 52.2792 7.8381 52.891 7.86688 53.5028C7.89566 54.2151 8.32733 54.6351 9.05639 54.7173C9.75667 54.7995 10.4186 54.3521 10.4569 53.6307C10.5337 52.3249 10.5337 51.019 10.4569 49.7132C10.4186 49.0375 9.87178 48.6357 9.14272 48.6083Z" fill="#012D3A"/>
<path d="M25.278 48.6083C24.5873 48.5992 24.0693 49.1288 24.0309 49.8594C24.0022 50.4438 24.0213 51.0282 24.0213 51.6126C24.0213 52.2518 23.9926 52.891 24.0309 53.5302C24.0693 54.2425 24.5106 54.6625 25.2492 54.7173C25.9975 54.763 26.5347 54.3703 26.6114 53.6855C26.7649 52.3614 26.7457 51.0191 26.621 49.6859C26.5539 49.0101 26.0167 48.6175 25.278 48.6083Z" fill="#012D3A"/>
<path d="M24.0502 35.1941C24.079 35.9064 24.6162 36.436 25.2973 36.4634C25.9496 36.4908 26.6403 35.9794 26.669 35.2946C26.7266 34.0161 26.7266 32.7286 26.6595 31.4502C26.6211 30.747 25.94 30.2722 25.2781 30.3087C24.597 30.3544 24.0886 30.8749 24.0598 31.5963C24.0406 32.1807 24.0598 32.7651 24.0598 33.3495C24.0502 33.9705 24.031 34.5823 24.0502 35.1941Z" fill="#012D3A"/>
<path d="M21.2969 22.4465C21.2681 21.7342 20.8844 21.305 20.1265 21.232C19.3975 21.1681 18.7452 21.579 18.6972 22.2821C18.6205 23.5879 18.6109 24.8937 18.6972 26.1995C18.7452 26.9027 19.2728 27.341 20.0882 27.2953C20.894 27.2405 21.2777 26.7748 21.2969 26.0352C21.316 25.4507 21.2969 24.8663 21.2969 24.2819C21.2969 23.6701 21.316 23.0583 21.2969 22.4465Z" fill="#012D3A"/>
<path d="M14.4765 21.2319C13.709 21.2959 13.3349 21.7433 13.3061 22.4464C13.2869 23.0309 13.3061 23.6153 13.3061 24.1997C13.3061 24.8389 13.2869 25.4781 13.3157 26.1173C13.3445 26.7839 13.7186 27.2131 14.4381 27.2862C15.1863 27.3683 15.7619 27.0487 15.8674 26.3547C16.0689 24.9759 16.0497 23.5788 15.8866 22.209C15.8003 21.5242 15.2343 21.168 14.4765 21.2319Z" fill="#012D3A"/>
<path d="M10.5242 40.8008C10.4859 39.9881 9.9199 39.4768 9.13328 39.5042C8.39464 39.5316 7.9054 40.0338 7.88622 40.8282C7.86703 41.9697 7.86703 43.1111 7.88622 44.2526C7.89581 45.0927 8.42342 45.6223 9.20043 45.6132C9.9103 45.604 10.4763 45.0653 10.5147 44.3074C10.5434 43.7229 10.5242 43.1385 10.5242 42.5541C10.5338 41.9697 10.553 41.3853 10.5242 40.8008Z" fill="#012D3A"/>
<path d="M21.2777 42.5998C21.2777 42.0428 21.2777 41.4858 21.2777 40.9287C21.2777 40.8739 21.2777 40.8191 21.2777 40.7644C21.2297 40.0247 20.7501 39.5407 20.0498 39.5042C19.3303 39.4768 18.7068 39.9151 18.6684 40.6183C18.6109 41.8967 18.6109 43.1751 18.6684 44.4535C18.6972 45.1475 19.3591 45.6223 20.0402 45.5949C20.7597 45.5676 21.2489 45.0927 21.2777 44.3439C21.2969 43.7686 21.2777 43.1751 21.2777 42.5998Z" fill="#012D3A"/>
<path d="M24.0693 44.353C24.0981 45.1018 24.5873 45.5767 25.3068 45.6041C25.9879 45.6314 26.6498 45.1475 26.6786 44.4626C26.7265 43.1842 26.7265 41.9058 26.6786 40.6274C26.6498 39.9242 26.0167 39.4768 25.2972 39.5133C24.5969 39.5407 24.0981 40.0338 24.0693 40.7735C24.0501 41.3579 24.0693 41.9423 24.0693 42.5267C24.0693 43.1294 24.0501 43.7412 24.0693 44.353Z" fill="#012D3A"/>
<path d="M9.21006 21.2228C8.46182 21.232 7.92462 21.7251 7.91502 22.5013C7.89584 23.6701 7.89584 24.8389 7.91502 25.9986C7.92462 26.7748 8.44263 27.2771 9.19087 27.2953C9.97748 27.3136 10.5147 26.8022 10.5435 25.9804C10.5626 25.4234 10.5435 24.8663 10.5435 24.3093C10.5435 23.6975 10.5626 23.0857 10.5339 22.4739C10.5051 21.7159 9.9583 21.2228 9.21006 21.2228Z" fill="#012D3A"/>
<path d="M25.4122 21.2228C24.6544 21.2137 24.1076 21.7068 24.0788 22.4647C24.0597 23.0492 24.0788 23.6336 24.0788 24.218C24.0788 24.8298 24.0597 25.4416 24.0788 26.0534C24.1076 26.784 24.616 27.2679 25.3259 27.2953C26.0933 27.3227 26.6785 26.8479 26.7073 26.0991C26.7456 24.8755 26.7361 23.6518 26.7073 22.4282C26.6785 21.7159 26.1221 21.232 25.4122 21.2228Z" fill="#012D3A"/>
<path d="M80.6383 35.1485C78.5087 35.1393 76.3695 35.1393 74.2399 35.1485C73.2326 35.1485 72.6187 35.6507 72.6379 36.4177C72.6571 37.1483 73.271 37.6505 74.2015 37.6596C75.2855 37.6688 76.3599 37.6596 77.4439 37.6596C78.4991 37.6596 79.5447 37.6688 80.5999 37.6596C81.6072 37.6505 82.2307 37.1757 82.2403 36.4086C82.2499 35.6507 81.636 35.1485 80.6383 35.1485Z" fill="#012D3A"/>
<path d="M68.0909 35.1485C65.8749 35.1393 63.6494 35.1393 61.4334 35.1485C60.5509 35.1485 59.9753 35.6324 59.9465 36.3447C59.9178 37.0843 60.5221 37.6414 61.4238 37.6505C62.5366 37.6688 63.6398 37.6505 64.7526 37.6505C65.8653 37.6505 66.9685 37.6688 68.0813 37.6414C68.935 37.6231 69.5298 37.0935 69.5394 36.3812C69.549 35.6781 68.9638 35.1576 68.0909 35.1485Z" fill="#012D3A"/>
<path d="M55.3706 35.1485C54.2867 35.1393 53.2027 35.1485 52.1187 35.1485C50.9771 35.1485 49.8356 35.1393 48.694 35.1485C47.8115 35.1576 47.2647 35.6598 47.2743 36.3995C47.2743 37.13 47.8307 37.6505 48.7132 37.6505C50.9388 37.6688 53.1643 37.6688 55.3898 37.6505C56.2628 37.6414 56.8096 37.1209 56.8096 36.3812C56.8 35.6324 56.2724 35.1576 55.3706 35.1485Z" fill="#012D3A"/>
<path d="M42.6026 35.1485C40.4346 35.1393 38.2667 35.1393 36.0987 35.1485C35.1298 35.1485 34.583 35.6142 34.583 36.3903C34.583 37.1665 35.1394 37.6414 36.0987 37.6505C37.1827 37.6596 38.2667 37.6505 39.3506 37.6505C40.4346 37.6505 41.5186 37.6596 42.6026 37.6505C43.5427 37.6414 44.1183 37.1574 44.1183 36.3995C44.1183 35.6233 43.5523 35.1485 42.6026 35.1485Z" fill="#012D3A"/>
<path d="M88.1876 27.7157C88.9454 27.8161 89.521 27.4965 89.991 26.9486C89.991 26.6107 89.991 26.282 89.991 25.9441C89.5401 25.3232 88.9166 25.1132 88.1204 25.1223C84.2833 25.1497 80.4461 25.1223 76.609 25.1497C76.0047 25.1497 75.784 25.0127 75.832 24.4192C75.8895 23.6978 75.8416 22.9673 75.8416 22.2459C75.8416 20.4287 75.6018 20.173 73.6832 20.1273C73.2227 20.1182 73.0884 19.9995 73.098 19.5612C73.1076 18.7576 73.0501 17.9449 73.0117 17.1413C72.8102 12.4934 72.6088 7.83628 72.3978 3.18832C72.3786 2.74088 72.4265 2.53085 73.0117 2.46693C73.7312 2.39388 74.1149 1.84599 74.0477 1.14286C73.9806 0.448858 73.5489 0.0105442 72.7815 0.0105442C69.6734 0.00141265 66.5749 -0.00771889 63.4668 0.0105442C62.7474 0.0105442 62.3349 0.45799 62.2389 1.0972C62.143 1.7638 62.4979 2.36648 63.1503 2.42127C64.0136 2.49433 63.9177 2.89611 63.8697 3.45314C63.8122 4.09235 63.8313 4.73155 63.8026 5.37989C63.6011 10.0005 63.3805 14.6302 63.2078 19.2507C63.179 19.9904 62.9392 20.1639 62.2006 20.1365C60.9439 20.0817 60.4739 20.5839 60.4739 21.7984C60.4739 22.7207 60.4451 23.643 60.4834 24.5561C60.5026 25.0492 60.3204 25.1588 59.8407 25.1406C58.8431 25.104 57.8454 25.104 56.8574 25.1406C56.3393 25.1588 56.1379 25.0492 56.1571 24.5105C56.205 23.5334 56.1955 22.5563 56.1667 21.5793C56.1379 20.7118 55.7062 20.2461 54.9004 20.1182C54.4208 20.0452 53.7589 20.3465 53.5095 19.9538C53.2792 19.5794 53.4327 18.9768 53.4135 18.4837C53.3943 18.0362 53.356 17.5888 53.3368 17.1505C53.1353 12.5025 52.9339 7.84541 52.7228 3.19745C52.7037 2.76827 52.7132 2.53085 53.3176 2.46693C54.0371 2.40301 54.4304 1.85512 54.3632 1.15199C54.2961 0.45799 53.874 0.0105442 53.1066 0.0105442C49.9985 0.00141265 46.9 0.00141265 43.7919 0.0105442C43.0724 0.0105442 42.66 0.448858 42.5544 1.0972C42.4489 1.7638 42.8039 2.36648 43.4562 2.4304C44.2811 2.51259 44.2524 2.87785 44.1852 3.45314C44.1085 4.09235 44.1373 4.73155 44.1085 5.37076C43.907 9.99132 43.6864 14.621 43.5137 19.2416C43.4849 19.9538 43.2835 20.173 42.5161 20.1365C41.2498 20.0726 40.7798 20.5839 40.7798 21.7893C40.7798 22.6842 40.7414 23.5791 40.7894 24.4648C40.8181 25.0219 40.6359 25.1588 40.0699 25.1497C37.6141 25.1223 35.1488 25.1132 32.693 25.1497C32.0695 25.1588 31.9256 24.9853 31.9352 24.41C31.9639 21.1501 31.9735 17.881 31.9352 14.621C31.9256 13.854 32.0599 13.5344 32.9616 13.5983C33.9688 13.6622 34.5828 13.1052 34.5828 12.3381C34.5828 11.5802 33.9305 11.0688 32.952 11.0688C26.9469 11.0688 20.9418 11.0688 14.9367 11.0597H8.10656C5.96736 11.0597 3.82816 11.0597 1.68895 11.0597C0.604963 11.0597 0.0102067 11.5163 0.0102067 12.3381C0.0102067 13.1326 0.566591 13.6622 1.60262 13.58C2.5619 13.507 2.65783 13.8722 2.65783 14.6484C2.61946 28.574 2.62905 42.4905 2.62905 56.407C2.62905 56.9366 2.78254 57.5576 2.53312 57.9593C2.31249 58.3155 1.61221 58.005 1.13257 58.0963C0.413106 58.2333 -0.0185718 58.6442 0.000613888 59.3656C0.0197996 60.0779 0.432292 60.4979 1.17094 60.5892C1.42995 60.6258 1.69855 60.5984 1.95755 60.5984C30.6305 60.5984 59.3035 60.5984 87.9861 60.6166C88.7823 60.6166 89.4538 60.4979 89.991 59.9226C89.991 59.53 89.991 59.1373 89.991 58.7538C89.4346 58.2333 88.7919 57.9502 87.9957 58.0872C87.4201 58.1876 87.3242 57.9319 87.3434 57.448C87.3818 56.4526 87.353 55.4573 87.353 54.4528V47.8142C87.353 41.3856 87.3626 34.957 87.3338 28.5284C87.3338 27.8709 87.4969 27.6243 88.1876 27.7157ZM65.9322 17.6892C66.1048 12.9865 66.3351 8.29286 66.5557 3.59924C66.6133 2.49432 66.642 2.49432 67.8316 2.54911C69.7405 2.4578 69.7022 2.4578 69.7789 4.24758C69.9804 9.12383 70.2106 13.9909 70.4408 18.8672C70.4984 20.1456 70.508 20.1456 69.1458 20.1273C69.0019 20.1273 68.858 20.0999 68.7141 20.0908C67.8124 20.0999 66.6804 20.4287 66.0665 20.036C65.4525 19.6342 65.9034 18.4928 65.9322 17.6892ZM63.1215 22.9307C63.1023 22.6203 63.4285 22.6568 63.6587 22.6568C66.6421 22.6568 69.6254 22.6568 72.6088 22.6568C72.6376 22.6568 72.6664 22.6476 72.6951 22.6568C73.6928 23.0494 72.9637 23.853 73.1364 24.4466C73.2227 24.7479 73.2995 25.2227 72.6568 25.1862C71.8701 25.1406 71.0835 25.2684 70.2969 25.1223C67.9563 25.1223 65.6156 25.1132 63.2654 25.1132C62.8817 24.4009 63.1598 23.6521 63.1215 22.9307ZM46.2381 17.6892C46.4108 12.9865 46.641 8.29286 46.8616 3.59924C46.9192 2.49432 46.9384 2.49432 48.1375 2.54911C50.056 2.4578 50.0081 2.4578 50.0848 4.24758C50.2863 9.12383 50.5165 13.9909 50.7467 18.8672C50.8043 20.1456 50.8139 20.1456 49.4517 20.1273C49.3078 20.1273 49.1639 20.0999 49.02 20.0908C48.1183 20.0999 46.9863 20.4287 46.3724 20.036C45.768 19.6342 46.2093 18.4928 46.2381 17.6892ZM43.4274 22.9307C43.4082 22.6203 43.7344 22.6568 43.9646 22.6568C46.948 22.6568 49.9313 22.6568 52.9147 22.6568C52.9435 22.6568 52.9723 22.6476 53.001 22.6568C53.9987 23.0494 53.2696 23.853 53.4423 24.4466C53.5286 24.7479 53.6054 25.2227 52.9627 25.1862C52.1761 25.1406 51.3894 25.2684 50.6028 25.1223C48.2622 25.1223 45.9215 25.1132 43.5713 25.1132C43.1972 24.4009 43.4753 23.6521 43.4274 22.9307ZM33.7578 27.7248C50.363 27.7248 66.9682 27.7248 83.5734 27.7248C84.8876 27.7248 84.7054 27.5969 84.715 28.7749C84.7245 30.1538 84.715 30.1538 83.2377 30.1538C69.7405 30.1538 56.2338 30.1538 42.7367 30.1538H35.5037C34.5348 30.1538 33.5659 30.1355 32.6067 30.1629C32.1366 30.172 31.9448 30.0625 31.9352 29.5694C31.868 27.7248 31.8488 27.7248 33.7578 27.7248ZM6.94583 13.6074C7.32954 13.6074 7.71325 13.58 8.08737 13.6074C8.22167 13.6165 8.35597 13.6165 8.48068 13.6074L15.0326 13.5983C19.4261 13.6074 23.81 13.6165 28.2036 13.5892C28.9614 13.58 29.2875 13.7079 29.2492 14.5297C29.182 16.0912 29.23 16.0912 27.5704 16.0912C20.4621 16.0912 13.3538 16.0821 6.23596 16.1095C5.52609 16.1095 5.20952 16.0273 5.2479 15.2237C5.31505 13.6074 5.25749 13.6074 6.94583 13.6074ZM29.23 57.5484C29.2588 58.0233 29.0189 58.0872 28.5969 58.0872C26.3521 58.0781 24.117 58.0689 21.8723 58.0872C21.3639 58.0963 21.22 57.9319 21.2487 57.4754C21.2871 56.7814 21.2775 56.0874 21.2871 55.4025C21.2775 53.6492 21.2679 51.9051 21.2583 50.1519C21.2487 49.2022 20.7403 48.5995 19.9345 48.5995C19.1287 48.5995 18.6203 49.1839 18.6203 50.1427C18.6107 51.896 18.6011 53.6401 18.5915 55.3934C18.6011 56.1148 18.6011 56.8362 18.6299 57.5576C18.6491 57.9319 18.534 58.0781 18.1023 58.1054C15.8288 58.2424 15.8288 58.2516 15.8288 56.133C15.8288 53.9415 15.8288 51.7499 15.8288 49.5674C15.5506 48.8917 15.0518 48.5173 14.2748 48.6726C13.4498 48.8369 13.1908 49.4213 13.1812 50.161C13.1716 51.9143 13.162 53.6584 13.1428 55.4116C13.1812 56.27 13.5169 57.3567 13.0373 57.9137C12.5864 58.4433 11.4065 58.0507 10.5431 58.0689C8.99869 58.0963 7.44466 58.0598 5.90021 58.0872C5.40138 58.0963 5.22871 57.9593 5.25749 57.4754C5.30545 56.7814 5.28627 56.0874 5.29586 55.3934C5.28627 54.4437 5.26708 53.5031 5.26708 52.5535C5.26708 41.5408 5.27667 30.5282 5.2479 19.5155C5.2479 18.785 5.43016 18.5932 6.20718 18.5932C13.5841 18.6206 20.9706 18.6206 28.3474 18.6024C28.923 18.6024 29.2396 18.6389 29.2396 19.342C29.2204 31.2496 29.2204 43.148 29.2204 55.0555C29.2204 55.1651 29.1916 55.2747 29.182 55.3842C29.1916 56.1056 29.1916 56.827 29.23 57.5484ZM41.48 57.5576C41.4992 57.9319 41.4225 58.1054 40.962 58.0963C39.8876 58.0689 38.8132 58.0689 37.7388 58.0963C37.288 58.1054 37.2016 57.9319 37.2208 57.5576C37.2592 56.8362 37.2496 56.1239 37.2592 55.4025C37.2496 52.9826 37.24 50.5719 37.2112 48.1521C37.2112 47.7594 37.3647 47.6955 37.7196 47.6955C38.8036 47.7137 39.878 47.7229 40.962 47.6955C41.4225 47.6772 41.48 47.869 41.4704 48.2342C41.4513 50.6267 41.4417 53.01 41.4321 55.4025C41.4609 56.1148 41.4513 56.8362 41.48 57.5576ZM39.3216 45.1843C39.2641 45.1843 39.2065 45.1843 39.149 45.1843C37.1729 45.1843 37.192 45.1843 37.2304 43.2941C37.24 42.8375 37.3455 42.6549 37.8635 42.6731C38.8804 42.7097 39.9068 42.7005 40.9332 42.6731C41.3457 42.664 41.4704 42.7918 41.4896 43.1845C41.5952 45.1843 41.6143 45.1843 39.3216 45.1843ZM54.1618 57.5576C54.181 57.9319 54.0946 58.1054 53.6438 58.0872C52.5694 58.0598 51.495 58.0598 50.4206 58.0872C49.9697 58.0963 49.893 57.9228 49.9025 57.5576C49.9313 56.8362 49.9313 56.1239 49.9409 55.4025C49.9313 53.01 49.9313 50.6267 49.9025 48.2342C49.9025 47.869 49.9505 47.6864 50.411 47.6955C51.495 47.732 52.5694 47.7137 53.6533 47.6955C54.0083 47.6864 54.1714 47.7594 54.1714 48.1429C54.1426 50.5628 54.133 52.9735 54.1234 55.3934C54.133 56.1148 54.133 56.8362 54.1618 57.5576ZM49.9025 43.148C49.9313 42.7827 50.0464 42.664 50.4206 42.6731C50.9769 42.6914 51.5333 42.6823 52.0897 42.6823C52.3487 42.6823 52.6173 42.6823 52.8763 42.6823C54.1522 42.6823 54.1522 42.6823 54.1522 43.915C54.1522 45.1752 54.1522 45.1752 52.8092 45.1752C52.483 45.1752 52.1665 45.1752 51.8403 45.1752C49.7299 45.1843 49.7491 45.1843 49.9025 43.148ZM62.5747 43.0841C62.6226 42.7371 62.7857 42.6823 63.0831 42.6823C64.1671 42.6914 65.2415 42.6823 66.3255 42.6823C66.5557 42.6823 66.8243 42.6549 66.8339 42.9836C66.8435 43.6228 66.8531 44.262 66.8243 44.9012C66.8147 45.23 66.5173 45.1752 66.2967 45.1752C65.7691 45.1843 65.2415 45.1752 64.7139 45.1752C64.6276 45.1752 64.5412 45.1752 64.4549 45.1752C62.4212 45.1843 62.3061 45.0473 62.5747 43.0841ZM62.661 47.7594C62.6514 47.7594 62.6418 47.7594 62.6322 47.7685C62.6418 47.7594 62.6514 47.7594 62.661 47.7594ZM66.9106 48.1886C66.9106 51.2842 66.8915 54.3798 66.9011 57.4754C66.9011 57.9319 66.7955 58.1146 66.2679 58.0963C65.2415 58.0598 64.2151 58.0598 63.1886 58.0963C62.6802 58.1146 62.5267 57.9502 62.5651 57.4845C62.6131 56.7905 62.5939 56.0965 62.6131 55.3934C62.6131 55.2838 62.6035 55.1742 62.6035 55.0738C62.5939 52.727 62.5747 50.3893 62.5651 48.0425C62.5651 48.0151 62.5651 47.9786 62.5651 47.942C62.5651 47.9786 62.5651 48.006 62.5651 48.0425C62.5747 50.3893 62.5843 52.727 62.6035 55.0738C62.8337 54.809 62.7378 54.4894 62.7378 54.1971C62.7474 52.0421 62.7474 49.8871 62.7474 47.7411C64.0904 47.7503 65.4334 47.7503 66.7764 47.7594C66.9874 47.8507 66.9106 48.0333 66.9106 48.1886ZM79.5828 44.6729C79.6691 45.0747 79.4389 45.2117 79.036 45.1934C78.5084 45.166 77.9808 45.1843 77.4628 45.1843C77.4052 45.1843 77.3477 45.1843 77.2901 45.1843C75.1221 45.1843 75.1413 45.1843 75.3332 43.148C75.3715 42.7827 75.4962 42.6731 75.8608 42.6731C76.9448 42.6823 78.0192 42.6823 79.1031 42.6823C79.1607 42.6823 79.2374 42.664 79.2758 42.6914C79.9569 43.2667 79.4389 44.0155 79.5828 44.6729ZM79.6212 57.4114C79.6308 57.9776 79.4485 58.1146 78.8825 58.0963C77.8561 58.0598 76.8296 58.0781 75.8032 58.0872C75.4483 58.0963 75.2756 58.005 75.2756 57.6306C75.2852 54.398 75.2756 51.1655 75.2756 47.9238C75.2756 47.8598 75.3619 47.8051 75.4099 47.7411C76.7529 47.732 78.0959 47.732 79.4389 47.7229C79.7746 47.8325 79.6116 48.0973 79.6116 48.289C79.6116 51.3298 79.5924 54.3706 79.6212 57.4114ZM84.715 47.7046V54.5624C84.715 55.5395 84.6862 56.5166 84.7245 57.4936C84.7437 57.9776 84.5711 58.0872 84.0818 58.0963C82.24 58.1146 82.24 58.1328 82.24 56.3887C82.24 51.5673 82.24 46.7458 82.24 41.9152C82.24 40.5546 81.8371 40.1711 80.427 40.1711C78.4029 40.1711 76.3884 40.1711 74.3643 40.1711C73.0788 40.1711 72.628 40.5911 72.628 41.8239C72.6184 46.9558 72.6088 52.0878 72.6376 57.2197C72.6376 57.8863 72.5129 58.1876 71.7454 58.0963C71.0548 58.0141 70.1242 58.2972 69.7118 57.9593C69.2225 57.5576 69.5583 56.6535 69.5583 55.9687C69.5391 51.3116 69.5487 46.6545 69.5487 41.9974C69.5487 40.5364 69.1554 40.1711 67.6397 40.1711C65.6156 40.1711 63.6011 40.1711 61.577 40.1711C60.3971 40.1711 59.9367 40.6094 59.9367 41.7417C59.9367 46.9284 59.9271 52.1152 59.9462 57.3019C59.9462 57.8954 59.8407 58.1785 59.15 58.0872C58.4018 57.9959 57.4233 58.3794 56.9533 57.9319C56.4928 57.4845 56.819 56.5531 56.819 55.8317C56.8094 51.202 56.819 46.5723 56.8094 41.9426C56.8094 40.4998 56.4545 40.162 54.9676 40.162C52.9723 40.162 50.9865 40.162 48.9912 40.162C47.6674 40.162 47.2549 40.5455 47.2549 41.7965C47.2549 46.9558 47.2357 52.1152 47.2741 57.2745C47.2741 57.9319 47.1014 58.1694 46.4108 58.0872C45.6625 57.9959 44.6649 58.3977 44.2332 57.9137C43.8687 57.5028 44.1085 56.5896 44.1085 55.8956C44.1085 51.2111 44.1085 46.5266 44.1085 41.8422C44.1085 40.5272 43.7152 40.162 42.3338 40.162C40.3097 40.162 38.2952 40.162 36.2711 40.162C34.9665 40.162 34.5636 40.5455 34.5636 41.8148C34.5636 46.9193 34.5444 52.0238 34.5828 57.1192C34.5828 57.8589 34.4293 58.1237 33.5947 58.0872C31.916 58.0233 31.916 58.0689 31.916 56.4618C31.916 48.8735 31.9352 41.2943 31.8872 33.706C31.8776 32.8202 32.1558 32.6102 33.0192 32.6741C33.8633 32.7471 34.7171 32.6558 35.5613 32.7015C35.6764 32.7106 35.7819 32.7106 35.897 32.7015L42.6696 32.6924C54.8429 32.6924 67.0162 32.6924 79.1895 32.6924C80.7147 32.6924 82.24 32.7471 83.7557 32.6741C84.6094 32.6284 84.7437 32.9298 84.7341 33.6512C84.6958 38.3448 84.715 43.0201 84.715 47.7046Z" fill="#012D3A"/>
<path d="M15.9346 42.5632C15.9346 41.9788 15.973 41.3944 15.925 40.81C15.8675 39.9881 15.3686 39.5224 14.6204 39.5042C13.8338 39.4859 13.2774 39.9607 13.2486 40.8191C13.2007 41.9606 13.2007 43.102 13.2486 44.2434C13.2774 45.0835 13.853 45.6223 14.5916 45.6132C15.3303 45.604 15.8867 45.0562 15.9346 44.2343C15.973 43.6773 15.9442 43.1203 15.9346 42.5632C15.9442 42.5632 15.9442 42.5632 15.9346 42.5632Z" fill="#012D3A"/>
</svg>
