<svg width="500" height="500" viewBox="0 0 500 500" fill="none" xmlns="http://www.w3.org/2000/svg">
<rect width="500" height="500" fill="white"/>
<path d="M87.8868 194.519V195.416H98.5338V194.519H87.8868ZM92.6188 191.672V194.818H93.6848V191.672H92.6188ZM92.5928 185.965V186.875C92.5928 188.812 90.3698 190.541 88.3028 190.918L88.7578 191.815C91.1238 191.321 93.5288 189.384 93.5288 186.875V185.965H92.5928ZM92.7878 185.965V186.875C92.7878 189.384 95.1928 191.321 97.5588 191.815L98.0268 190.918C95.9598 190.541 93.7238 188.825 93.7238 186.875V185.965H92.7878ZM105.111 192.595C102.602 192.595 101.016 193.414 101.016 194.766C101.016 196.105 102.602 196.911 105.111 196.911C107.607 196.911 109.206 196.105 109.206 194.766C109.206 193.414 107.607 192.595 105.111 192.595ZM105.111 193.44C106.957 193.44 108.127 193.947 108.127 194.766C108.127 195.572 106.957 196.079 105.111 196.079C103.265 196.079 102.082 195.572 102.082 194.766C102.082 193.947 103.265 193.44 105.111 193.44ZM101.107 185.77V186.654H108.673V185.77H101.107ZM99.8458 190.658V191.529H110.454V190.658H99.8458ZM104.201 188.396V190.905H105.267V188.396H104.201ZM108.049 185.77V186.771C108.049 187.694 108.049 188.552 107.724 189.761L108.79 189.891C109.102 188.669 109.102 187.72 109.102 186.771V185.77H108.049ZM120.346 185.198V193.778H121.438V185.198H120.346ZM113.885 195.793V196.677H121.789V195.793H113.885ZM113.885 192.894V196.092H114.951V192.894H113.885ZM115.133 186.004C113.378 186.004 112.065 187.2 112.065 188.903C112.065 190.593 113.378 191.802 115.133 191.802C116.888 191.802 118.188 190.593 118.188 188.903C118.188 187.2 116.888 186.004 115.133 186.004ZM115.133 186.94C116.277 186.94 117.148 187.746 117.148 188.903C117.148 190.047 116.277 190.853 115.133 190.853C113.989 190.853 113.118 190.047 113.118 188.903C113.118 187.746 113.989 186.94 115.133 186.94ZM127.573 186.03C125.74 186.03 124.414 187.161 124.414 188.799C124.414 190.45 125.74 191.581 127.573 191.581C129.406 191.581 130.719 190.45 130.719 188.799C130.719 187.161 129.406 186.03 127.573 186.03ZM127.573 186.966C128.782 186.966 129.666 187.707 129.666 188.799C129.666 189.891 128.782 190.645 127.573 190.645C126.351 190.645 125.467 189.891 125.467 188.799C125.467 187.707 126.351 186.966 127.573 186.966ZM132.253 185.172V196.95H133.332V185.172H132.253ZM123.972 194.376C126.065 194.376 128.938 194.363 131.577 193.856L131.486 193.063C128.925 193.466 125.961 193.479 123.816 193.479L123.972 194.376ZM143.705 185.601V186.251C143.705 187.928 141.638 189.332 139.493 189.657L139.922 190.528C142.366 190.112 144.654 188.5 144.654 186.251V185.601H143.705ZM143.9 185.601V186.251C143.9 188.474 146.201 190.112 148.619 190.528L149.048 189.657C146.929 189.332 144.836 187.889 144.836 186.251V185.601H143.9ZM143.705 192.465V196.937H144.771V192.465H143.705ZM138.96 191.802V192.699H149.581V191.802H138.96ZM153.805 186.394V187.343C153.805 189.02 152.635 190.528 150.854 191.152L151.426 191.997C153.389 191.295 154.689 189.501 154.689 187.343V186.394H153.805ZM154 186.394V187.33C154 189.358 155.248 191.087 157.185 191.763L157.744 190.918C156.015 190.333 154.884 188.89 154.884 187.33V186.394H154ZM151.192 186.004V186.888H157.471V186.004H151.192ZM158.953 185.185V192.257H160.032V185.185H158.953ZM159.733 188.279V189.176H161.774V188.279H159.733ZM152.401 192.881V193.778H158.953V196.937H160.032V192.881H152.401ZM168.78 187.98V188.877H171.939V187.98H168.78ZM166.076 185.718C164.321 185.718 163.047 186.836 163.047 188.448C163.047 190.06 164.321 191.165 166.076 191.165C167.831 191.165 169.105 190.06 169.105 188.448C169.105 186.836 167.831 185.718 166.076 185.718ZM166.076 186.628C167.233 186.628 168.065 187.369 168.065 188.448C168.065 189.514 167.233 190.268 166.076 190.268C164.919 190.268 164.087 189.514 164.087 188.448C164.087 187.369 164.919 186.628 166.076 186.628ZM171.458 185.185V191.49H172.537V185.185H171.458ZM165.01 192.075V196.781H172.537V192.075H171.471V193.557H166.089V192.075H165.01ZM166.089 194.415H171.471V195.91H166.089V194.415ZM181.909 185.731C180.167 185.731 178.919 186.706 178.919 188.149C178.919 189.579 180.167 190.58 181.909 190.58C183.664 190.58 184.912 189.579 184.912 188.149C184.912 186.706 183.664 185.731 181.909 185.731ZM181.909 186.628C183.053 186.628 183.872 187.252 183.872 188.149C183.872 189.059 183.053 189.67 181.909 189.67C180.765 189.67 179.946 189.059 179.946 188.149C179.946 187.252 180.765 186.628 181.909 186.628ZM181.428 191.88V196.573H182.507V191.88H181.428ZM186.628 185.185V196.95H187.694V185.185H186.628ZM178.191 192.465C180.336 192.465 183.222 192.426 185.874 191.945L185.796 191.139C183.209 191.529 180.232 191.555 178.048 191.555L178.191 192.465ZM194.739 186.342V186.836C194.739 188.383 192.724 189.735 190.657 190.034L191.073 190.892C193.439 190.489 195.675 188.942 195.675 186.836V186.342H194.739ZM195.012 186.342V186.836C195.012 188.942 197.235 190.489 199.614 190.892L200.017 190.034C197.963 189.735 195.935 188.383 195.935 186.836V186.342H195.012ZM194.778 192.452V196.937H195.844V192.452H194.778ZM190.033 191.88V192.764H200.654V191.88H190.033ZM191.021 185.913V186.784H199.627V185.913H191.021ZM214.161 185.185V196.937H215.201V185.185H214.161ZM209.884 189.397V190.294H212.133V189.397H209.884ZM211.808 185.458V196.339H212.822V185.458H211.808ZM207.622 187.005V188.5C207.622 190.658 206.712 192.803 205.074 193.791L205.737 194.597C207.466 193.505 208.454 191.074 208.454 188.5V187.005H207.622ZM207.843 187.005V188.5C207.843 190.957 208.792 193.271 210.508 194.311L211.171 193.518C209.559 192.582 208.675 190.541 208.675 188.5V187.005H207.843ZM205.399 186.55V187.447H210.768V186.55H205.399ZM217.189 194.532V195.429H227.836V194.532H217.189ZM221.973 191.685V194.831H223.039V191.685H221.973ZM221.947 186.667V187.395C221.947 189.254 219.724 190.905 217.696 191.243L218.138 192.101C220.452 191.62 222.857 189.8 222.857 187.395V186.667H221.947ZM222.142 186.667V187.395C222.142 189.8 224.56 191.594 226.913 192.062L227.342 191.204C225.288 190.866 223.052 189.254 223.052 187.395V186.667H222.142ZM218.06 186.251V187.135H226.939V186.251H218.06ZM234.413 192.595C231.904 192.595 230.318 193.414 230.318 194.766C230.318 196.105 231.904 196.911 234.413 196.911C236.909 196.911 238.508 196.105 238.508 194.766C238.508 193.414 236.909 192.595 234.413 192.595ZM234.413 193.44C236.259 193.44 237.429 193.947 237.429 194.766C237.429 195.572 236.259 196.079 234.413 196.079C232.567 196.079 231.384 195.572 231.384 194.766C231.384 193.947 232.567 193.44 234.413 193.44ZM230.409 185.77V186.654H237.975V185.77H230.409ZM229.148 190.658V191.529H239.756V190.658H229.148ZM233.503 188.396V190.905H234.569V188.396H233.503ZM237.351 185.77V186.771C237.351 187.694 237.351 188.552 237.026 189.761L238.092 189.891C238.404 188.669 238.404 187.72 238.404 186.771V185.77H237.351ZM247.373 188.227V189.124H250.025V188.227H247.373ZM249.687 185.185V192.192H250.766V185.185H249.687ZM246.905 192.543C244.474 192.543 242.979 193.362 242.979 194.74C242.979 196.131 244.474 196.924 246.905 196.924C249.323 196.924 250.818 196.131 250.818 194.74C250.818 193.362 249.323 192.543 246.905 192.543ZM246.905 193.388C248.673 193.388 249.752 193.882 249.752 194.74C249.752 195.585 248.673 196.079 246.905 196.079C245.137 196.079 244.058 195.585 244.058 194.74C244.058 193.882 245.137 193.388 246.905 193.388ZM244.097 186.368V187.317C244.097 189.007 242.888 190.58 241.146 191.217L241.705 192.075C243.655 191.347 244.981 189.488 244.981 187.317V186.368H244.097ZM244.305 186.368V187.317C244.305 189.293 245.566 191.061 247.477 191.75L248.023 190.892C246.32 190.294 245.176 188.838 245.176 187.317V186.368H244.305ZM241.471 186.043V186.927H247.75V186.043H241.471ZM257.824 189.748V190.645H260.047V189.748H257.824ZM262.01 185.185V196.937H263.05V185.185H262.01ZM259.683 185.432V196.352H260.71V185.432H259.683ZM255.705 186.16C254.184 186.16 253.209 187.733 253.209 190.255C253.209 192.777 254.184 194.35 255.705 194.35C257.226 194.35 258.214 192.777 258.214 190.255C258.214 187.733 257.226 186.16 255.705 186.16ZM255.705 187.161C256.641 187.161 257.226 188.357 257.226 190.255C257.226 192.153 256.641 193.349 255.705 193.349C254.782 193.349 254.197 192.153 254.197 190.255C254.197 188.357 254.782 187.161 255.705 187.161ZM276.816 185.185V196.937H277.895V185.185H276.816ZM273.371 186.446V186.628C273.371 189.748 271.798 192.244 268.405 193.882L268.977 194.753C272.903 192.829 274.437 189.852 274.437 186.446H273.371ZM268.938 186.446V187.33H273.839V186.446H268.938ZM280.221 194.558V195.455H290.868V194.558H280.221ZM284.992 191.906V195.039H286.071V191.906H284.992ZM284.992 187.642V187.902C284.992 189.722 283.094 191.087 280.793 191.451L281.209 192.309C283.757 191.867 285.941 190.307 285.941 187.902V187.642H284.992ZM285.135 187.642V187.902C285.135 190.307 287.306 191.867 289.854 192.309L290.27 191.451C287.969 191.087 286.071 189.722 286.071 187.902V187.642H285.135ZM281.196 187.031V187.928H289.854V187.031H281.196ZM284.992 185.432V187.356H286.071V185.432H284.992ZM300.123 185.991V186.888C300.123 188.89 297.913 190.684 295.846 191.074L296.327 191.971C298.68 191.438 301.059 189.449 301.059 186.888V185.991H300.123ZM300.318 185.991V186.888C300.318 189.462 302.71 191.438 305.05 191.971L305.531 191.074C303.477 190.684 301.254 188.903 301.254 186.888V185.991H300.318ZM295.417 194.467V195.351H306.064V194.467H295.417ZM307.831 186.355V193.96H313.226V186.355H307.831ZM312.173 187.226V193.089H308.884V187.226H312.173ZM315.319 185.185V196.937H316.411V185.185H315.319ZM316.151 189.878V190.788H318.335V189.878H316.151ZM320.7 191.516V192.387H328.773V191.516H320.7ZM319.335 194.532V195.429H329.982V194.532H319.335ZM320.7 186.186V191.789H321.792V187.07H328.643V186.186H320.7ZM321.441 188.812V189.67H328.396V188.812H321.441ZM339.848 185.185V196.937H340.927V185.185H339.848ZM336.403 186.446V186.628C336.403 189.748 334.83 192.244 331.437 193.882L332.009 194.753C335.935 192.829 337.469 189.852 337.469 186.446H336.403ZM331.97 186.446V187.33H336.871V186.446H331.97ZM348.011 185.237V185.666C348.011 187.122 345.957 188.253 343.825 188.487L344.189 189.319C346.633 189.007 348.921 187.668 348.921 185.666V185.237H348.011ZM348.193 185.237V185.666C348.193 187.668 350.481 189.007 352.912 189.319L353.289 188.487C351.157 188.253 349.103 187.122 349.103 185.666V185.237H348.193ZM348.011 190.723V192.517H349.077V190.723H348.011ZM343.24 190.086V190.957H353.861V190.086H343.24ZM344.527 192.114V192.946H351.443V194.012H344.553V196.209H345.619V194.792H352.509V192.114H344.527ZM344.553 195.962V196.807H352.86V195.962H344.553ZM355.381 192.273V192.165C355.381 191.26 355.478 190.439 355.673 189.702C355.872 188.962 356.13 188.314 356.447 187.76C356.765 187.201 357.103 186.74 357.463 186.376C357.827 186.008 358.176 185.744 358.51 185.583L358.815 186.459C358.569 186.641 358.324 186.892 358.079 187.214C357.837 187.536 357.615 187.931 357.412 188.401C357.213 188.867 357.052 189.413 356.93 190.039C356.811 190.661 356.752 191.365 356.752 192.153V192.286C356.752 193.073 356.811 193.78 356.93 194.406C357.052 195.028 357.213 195.574 357.412 196.044C357.615 196.513 357.837 196.911 358.079 197.237C358.324 197.567 358.569 197.83 358.815 198.024L358.51 198.862C358.176 198.697 357.827 198.43 357.463 198.062C357.103 197.698 356.765 197.237 356.447 196.678C356.13 196.124 355.872 195.479 355.673 194.742C355.478 194.002 355.381 193.179 355.381 192.273ZM361.709 186.681V195.923H360.116V186.681H361.709ZM363.246 192.565V192.419C363.246 191.924 363.318 191.465 363.461 191.042C363.605 190.614 363.813 190.244 364.083 189.931C364.359 189.614 364.693 189.368 365.086 189.195C365.484 189.017 365.933 188.928 366.432 188.928C366.936 188.928 367.384 189.017 367.778 189.195C368.176 189.368 368.512 189.614 368.787 189.931C369.062 190.244 369.272 190.614 369.416 191.042C369.559 191.465 369.631 191.924 369.631 192.419V192.565C369.631 193.06 369.559 193.519 369.416 193.943C369.272 194.366 369.062 194.736 368.787 195.053C368.512 195.367 368.178 195.612 367.784 195.79C367.391 195.963 366.944 196.05 366.445 196.05C365.941 196.05 365.491 195.963 365.093 195.79C364.699 195.612 364.365 195.367 364.09 195.053C363.815 194.736 363.605 194.366 363.461 193.943C363.318 193.519 363.246 193.06 363.246 192.565ZM364.775 192.419V192.565C364.775 192.874 364.807 193.166 364.871 193.441C364.934 193.716 365.034 193.957 365.169 194.165C365.304 194.372 365.478 194.535 365.689 194.654C365.901 194.772 366.153 194.831 366.445 194.831C366.728 194.831 366.974 194.772 367.181 194.654C367.393 194.535 367.566 194.372 367.702 194.165C367.837 193.957 367.937 193.716 368 193.441C368.068 193.166 368.102 192.874 368.102 192.565V192.419C368.102 192.115 368.068 191.827 368 191.556C367.937 191.281 367.835 191.038 367.695 190.826C367.56 190.614 367.386 190.449 367.175 190.331C366.967 190.208 366.72 190.147 366.432 190.147C366.144 190.147 365.895 190.208 365.683 190.331C365.476 190.449 365.304 190.614 365.169 190.826C365.034 191.038 364.934 191.281 364.871 191.556C364.807 191.827 364.775 192.115 364.775 192.419ZM374.868 186.681V195.923H373.288V186.681H374.868ZM377.769 186.681V187.95H370.412V186.681H377.769ZM378.797 194.45L378.791 195.542C378.791 195.974 378.683 196.418 378.467 196.875C378.251 197.332 377.966 197.709 377.61 198.005L376.792 197.529C376.91 197.339 377.018 197.146 377.115 196.951C377.213 196.757 377.291 196.549 377.35 196.329C377.409 196.109 377.439 195.866 377.439 195.599V194.45H378.797ZM387.259 187.912L384.498 195.923H382.828L386.307 186.681H387.373L387.259 187.912ZM389.569 195.923L386.802 187.912L386.681 186.681H387.754L391.245 195.923H389.569ZM389.436 192.495V193.759H384.409V192.495H389.436ZM393.981 186.681V195.923H392.388V186.681H393.981ZM398.909 190.775V191.672H409.53V190.775H398.909ZM400.248 188.786V189.657H408.295V188.786H400.248ZM400.248 185.653V189.202H401.314V186.537H408.204V185.653H400.248ZM404.2 192.686C401.691 192.686 400.17 193.453 400.17 194.805C400.17 196.157 401.691 196.911 404.2 196.911C406.709 196.911 408.23 196.157 408.23 194.805C408.23 193.453 406.709 192.686 404.2 192.686ZM404.2 193.518C406.046 193.518 407.138 193.986 407.138 194.805C407.138 195.611 406.046 196.066 404.2 196.066C402.367 196.066 401.262 195.611 401.262 194.805C401.262 193.986 402.367 193.518 404.2 193.518ZM413.957 192.165V192.273C413.957 193.166 413.855 193.981 413.652 194.717C413.453 195.453 413.193 196.101 412.872 196.659C412.554 197.218 412.209 197.684 411.837 198.056C411.469 198.428 411.115 198.697 410.777 198.862L410.466 198.024C410.711 197.838 410.955 197.582 411.196 197.256C411.441 196.934 411.663 196.535 411.862 196.056C412.065 195.582 412.226 195.032 412.345 194.406C412.467 193.78 412.529 193.073 412.529 192.286V192.153C412.529 191.365 412.465 190.659 412.338 190.032C412.216 189.402 412.051 188.852 411.843 188.382C411.636 187.908 411.412 187.508 411.17 187.182C410.929 186.857 410.694 186.603 410.466 186.421L410.777 185.583C411.115 185.744 411.469 186.01 411.837 186.383C412.209 186.755 412.554 187.223 412.872 187.785C413.193 188.344 413.453 188.991 413.652 189.728C413.855 190.464 413.957 191.277 413.957 192.165ZM83.5246 203.978V209.022H88.9196V203.978H83.5246ZM87.8666 204.849V208.151H84.5776V204.849H87.8666ZM91.0776 203.185V209.88H92.1566V203.185H91.0776ZM91.8576 206.006V206.903H93.8986V206.006H91.8576ZM87.9446 210.985V211.297C87.9446 212.61 86.2286 213.754 84.2006 214.066L84.6166 214.898C86.9306 214.508 88.8676 213.143 88.8676 211.297V210.985H87.9446ZM88.1526 210.985V211.297C88.1526 213.104 90.1026 214.521 92.4036 214.911L92.8066 214.079C90.8176 213.754 89.0756 212.584 89.0756 211.297V210.985H88.1526ZM84.6556 210.582V211.44H92.3646V210.582H84.6556ZM99.7735 209.659V211.518H100.84V209.659H99.7735ZM94.9895 208.983V209.867H105.611V208.983H94.9895ZM99.7735 203.107V204.758H100.84V203.107H99.7735ZM99.7215 204.849V205.031C99.7215 206.37 97.8885 207.293 95.6135 207.475L95.9385 208.307C98.5125 208.047 100.671 206.942 100.671 205.031V204.849H99.7215ZM99.9425 204.849V205.031C99.9425 206.942 102.101 208.047 104.675 208.307L105 207.475C102.712 207.293 100.892 206.37 100.892 205.031V204.849H99.9425ZM96.0815 204.29V205.148H104.532V204.29H96.0815ZM96.2895 211.141V214.781H104.311V211.141H96.2895ZM103.258 211.999V213.91H97.3555V211.999H103.258ZM116.465 206.032V206.916H119.078V206.032H116.465ZM118.779 203.185V209.568H119.858V203.185H118.779ZM112.331 210.14V214.781H119.858V210.14H118.792V211.57H113.397V210.14H112.331ZM113.397 212.441H118.792V213.897H113.397V212.441ZM113.189 204.108V205.07C113.189 206.734 111.98 208.294 110.225 208.905L110.784 209.776C112.747 209.048 114.073 207.202 114.073 205.07V204.108H113.189ZM113.397 204.108V205.057C113.397 207.033 114.658 208.801 116.569 209.49L117.115 208.645C115.412 208.047 114.268 206.578 114.268 205.057V204.108H113.397ZM110.563 203.887V204.758H116.842V203.887H110.563ZM123.51 203.666V207.67H131.414V203.666H123.51ZM130.348 204.537V206.799H124.563V204.537H130.348ZM122.145 209.139V210.01H132.766V209.139H122.145ZM126.929 207.436V209.464H127.995V207.436H126.929ZM123.328 211.219V212.103H130.374V214.937H131.453V211.219H123.328ZM139.421 203.38C136.821 203.38 135.287 204.108 135.287 205.421C135.287 206.734 136.821 207.462 139.421 207.462C142.008 207.462 143.555 206.734 143.555 205.421C143.555 204.108 142.008 203.38 139.421 203.38ZM139.421 204.199C141.332 204.199 142.437 204.641 142.437 205.421C142.437 206.201 141.332 206.643 139.421 206.643C137.497 206.643 136.392 206.201 136.392 205.421C136.392 204.641 137.497 204.199 139.421 204.199ZM134.104 208.242V209.113H144.725V208.242H134.104ZM135.391 210.114V210.946H142.307V211.986H135.417V214.196H136.483V212.766H143.373V210.114H135.391ZM135.417 213.962V214.807H143.724V213.962H135.417ZM149.3 209.412V210.283H159.921V209.412H149.3ZM154.071 207.891V209.776H155.137V207.891H154.071ZM150.704 207.41V208.255H158.673V207.41H150.704ZM150.704 203.523V207.865H151.77V204.368H158.621V203.523H150.704ZM151.458 205.447V206.279H158.309V205.447H151.458ZM154.604 211.154C152.043 211.154 150.574 211.804 150.574 213.039C150.574 214.261 152.043 214.911 154.604 214.911C157.165 214.911 158.634 214.261 158.634 213.039C158.634 211.804 157.165 211.154 154.604 211.154ZM154.604 211.973C156.489 211.973 157.542 212.35 157.542 213.039C157.542 213.741 156.489 214.105 154.604 214.105C152.719 214.105 151.666 213.741 151.666 213.039C151.666 212.35 152.719 211.973 154.604 211.973ZM161.246 205.187V206.071H167.07V205.187H161.246ZM164.158 206.851C162.702 206.851 161.636 207.956 161.636 209.542C161.636 211.115 162.702 212.22 164.158 212.22C165.627 212.22 166.693 211.115 166.693 209.542C166.693 207.956 165.627 206.851 164.158 206.851ZM164.158 207.774C165.068 207.774 165.731 208.502 165.731 209.542C165.731 210.582 165.068 211.31 164.158 211.31C163.261 211.31 162.611 210.582 162.611 209.542C162.611 208.502 163.261 207.774 164.158 207.774ZM170.177 203.185V214.937H171.217V203.185H170.177ZM168.305 208.125V209.022H170.528V208.125H168.305ZM167.668 203.445V214.365H168.682V203.445H167.668ZM163.638 203.523V205.733H164.704V203.523H163.638ZM184.996 203.185V214.963H186.075V203.185H184.996ZM177.222 211.128V212.038H178.171C180.537 212.038 182.071 211.973 183.865 211.635L183.748 210.725C182.006 211.05 180.498 211.128 178.171 211.128H177.222ZM177.222 204.303V211.466H178.288V205.2H182.773V204.303H177.222ZM191.534 204.862V206.773C191.534 208.801 190.117 211.011 188.414 211.817L189.038 212.675C190.91 211.752 192.405 209.256 192.405 206.773V204.862H191.534ZM191.742 204.862V206.773C191.742 209.217 193.25 211.505 195.148 212.389L195.759 211.531C194.03 210.79 192.613 208.762 192.613 206.773V204.862H191.742ZM188.804 204.381V205.291H195.369V204.381H188.804ZM196.955 203.185V214.937H198.034V203.185H196.955ZM200.971 208.203V209.061H201.829C204.117 209.061 205.404 209.035 206.977 208.775L206.873 207.917C205.352 208.164 204.078 208.203 201.829 208.203H200.971ZM200.971 203.913V208.736H202.037V204.771H206.275V203.913H200.971ZM201.738 206.019V206.851H205.95V206.019H201.738ZM206.769 205.876V206.747H209.226V205.876H206.769ZM208.966 203.185V209.529H210.045V203.185H208.966ZM202.479 210.062V210.907H208.979V211.986H202.505V214.508H203.558V212.792H210.045V210.062H202.479ZM202.505 213.962V214.807H210.474V213.962H202.505ZM215.387 210.192V212.103H216.466V210.192H215.387ZM220.327 203.185V214.937H221.406V203.185H220.327ZM221.055 208.177V209.087H223.226V208.177H221.055ZM212.358 212.701C214.412 212.701 217.168 212.688 219.703 212.233L219.612 211.427C217.181 211.778 214.308 211.804 212.202 211.804L212.358 212.701ZM212.397 204.602V205.473H219.43V204.602H212.397ZM215.92 206.162C214.282 206.162 213.164 207.02 213.164 208.333C213.164 209.659 214.282 210.504 215.92 210.504C217.558 210.504 218.689 209.659 218.689 208.333C218.689 207.02 217.558 206.162 215.92 206.162ZM215.92 206.994C216.973 206.994 217.675 207.527 217.675 208.333C217.675 209.139 216.973 209.672 215.92 209.672C214.867 209.672 214.178 209.139 214.178 208.333C214.178 207.527 214.867 206.994 215.92 206.994ZM215.387 203.198V205.187H216.466V203.198H215.387ZM230.649 204.862V206.773C230.649 208.801 229.232 211.011 227.529 211.817L228.153 212.675C230.025 211.752 231.52 209.256 231.52 206.773V204.862H230.649ZM230.857 204.862V206.773C230.857 209.217 232.365 211.505 234.263 212.389L234.874 211.531C233.145 210.79 231.728 208.762 231.728 206.773V204.862H230.857ZM227.919 204.381V205.291H234.484V204.381H227.919ZM236.07 203.185V214.937H237.149V203.185H236.07ZM242.829 209.1V211.713H243.908V209.1H242.829ZM248.042 203.185V212.129H249.121V203.185H248.042ZM241.1 213.793V214.677H249.407V213.793H241.1ZM241.1 211.258V214.04H242.179V211.258H241.1ZM239.579 209.503C241.711 209.503 244.558 209.464 247.093 209.061L247.015 208.268C244.519 208.593 241.607 208.619 239.436 208.619L239.579 209.503ZM245.65 210.127V210.92H248.315V210.127H245.65ZM243.258 203.666C241.529 203.666 240.359 204.472 240.359 205.707C240.359 206.955 241.529 207.761 243.258 207.761C244.974 207.761 246.144 206.955 246.144 205.707C246.144 204.472 244.974 203.666 243.258 203.666ZM243.258 204.472C244.35 204.472 245.117 204.953 245.117 205.707C245.117 206.461 244.35 206.942 243.258 206.942C242.153 206.942 241.386 206.461 241.386 205.707C241.386 204.953 242.153 204.472 243.258 204.472ZM256.764 203.38C254.164 203.38 252.63 204.108 252.63 205.421C252.63 206.734 254.164 207.462 256.764 207.462C259.351 207.462 260.898 206.734 260.898 205.421C260.898 204.108 259.351 203.38 256.764 203.38ZM256.764 204.199C258.675 204.199 259.78 204.641 259.78 205.421C259.78 206.201 258.675 206.643 256.764 206.643C254.84 206.643 253.735 206.201 253.735 205.421C253.735 204.641 254.84 204.199 256.764 204.199ZM251.447 208.242V209.113H262.068V208.242H251.447ZM252.734 210.114V210.946H259.65V211.986H252.76V214.196H253.826V212.766H260.716V210.114H252.734ZM252.76 213.962V214.807H261.067V213.962H252.76ZM266.63 205.187V206.071H272.454V205.187H266.63ZM269.542 206.851C268.086 206.851 267.02 207.956 267.02 209.542C267.02 211.115 268.086 212.22 269.542 212.22C271.011 212.22 272.077 211.115 272.077 209.542C272.077 207.956 271.011 206.851 269.542 206.851ZM269.542 207.774C270.452 207.774 271.115 208.502 271.115 209.542C271.115 210.582 270.452 211.31 269.542 211.31C268.645 211.31 267.995 210.582 267.995 209.542C267.995 208.502 268.645 207.774 269.542 207.774ZM275.561 203.185V214.937H276.601V203.185H275.561ZM273.689 208.125V209.022H275.912V208.125H273.689ZM273.052 203.445V214.365H274.066V203.445H273.052ZM269.022 203.523V205.733H270.088V203.523H269.022ZM283.321 204.342V204.836C283.321 206.383 281.306 207.735 279.239 208.034L279.655 208.892C282.021 208.489 284.257 206.942 284.257 204.836V204.342H283.321ZM283.594 204.342V204.836C283.594 206.942 285.817 208.489 288.196 208.892L288.599 208.034C286.545 207.735 284.517 206.383 284.517 204.836V204.342H283.594ZM283.36 210.452V214.937H284.426V210.452H283.36ZM278.615 209.88V210.764H289.236V209.88H278.615ZM279.603 203.913V204.784H288.209V203.913H279.603ZM292.004 206.708V207.592H299.986V206.708H292.004ZM290.561 209.165V210.049H301.221V209.165H290.561ZM292.004 203.614V207.15H293.07V203.614H292.004ZM291.926 213.767V214.651H300.051V213.767H291.926ZM291.926 211.219V214.001H292.992V211.219H291.926ZM312.036 206.227V207.124H314.688V206.227H312.036ZM314.35 203.185V210.192H315.429V203.185H314.35ZM311.568 210.543C309.137 210.543 307.642 211.362 307.642 212.74C307.642 214.131 309.137 214.924 311.568 214.924C313.986 214.924 315.481 214.131 315.481 212.74C315.481 211.362 313.986 210.543 311.568 210.543ZM311.568 211.388C313.336 211.388 314.415 211.882 314.415 212.74C314.415 213.585 313.336 214.079 311.568 214.079C309.8 214.079 308.721 213.585 308.721 212.74C308.721 211.882 309.8 211.388 311.568 211.388ZM308.76 204.368V205.317C308.76 207.007 307.551 208.58 305.809 209.217L306.368 210.075C308.318 209.347 309.644 207.488 309.644 205.317V204.368H308.76ZM308.968 204.368V205.317C308.968 207.293 310.229 209.061 312.14 209.75L312.686 208.892C310.983 208.294 309.839 206.838 309.839 205.317V204.368H308.968ZM306.134 204.043V204.927H312.413V204.043H306.134ZM317.716 210.14V211.024H328.376V210.14H317.716ZM322.474 210.556V214.937H323.54V210.556H322.474ZM319.055 203.653V208.736H327.011V203.653H325.945V205.265H320.134V203.653H319.055ZM320.134 206.136H325.945V207.865H320.134V206.136ZM332.795 204.862V206.773C332.795 208.801 331.378 211.011 329.675 211.817L330.299 212.675C332.171 211.752 333.666 209.256 333.666 206.773V204.862H332.795ZM333.003 204.862V206.773C333.003 209.217 334.511 211.505 336.409 212.389L337.02 211.531C335.291 210.79 333.874 208.762 333.874 206.773V204.862H333.003ZM330.065 204.381V205.291H336.63V204.381H330.065ZM338.216 203.185V214.937H339.295V203.185H338.216ZM344.975 209.1V211.713H346.054V209.1H344.975ZM350.188 203.185V212.129H351.267V203.185H350.188ZM343.246 213.793V214.677H351.553V213.793H343.246ZM343.246 211.258V214.04H344.325V211.258H343.246ZM341.725 209.503C343.857 209.503 346.704 209.464 349.239 209.061L349.161 208.268C346.665 208.593 343.753 208.619 341.582 208.619L341.725 209.503ZM347.796 210.127V210.92H350.461V210.127H347.796ZM345.404 203.666C343.675 203.666 342.505 204.472 342.505 205.707C342.505 206.955 343.675 207.761 345.404 207.761C347.12 207.761 348.29 206.955 348.29 205.707C348.29 204.472 347.12 203.666 345.404 203.666ZM345.404 204.472C346.496 204.472 347.263 204.953 347.263 205.707C347.263 206.461 346.496 206.942 345.404 206.942C344.299 206.942 343.532 206.461 343.532 205.707C343.532 204.953 344.299 204.472 345.404 204.472ZM359.716 204.199V206.305C359.716 208.45 358.377 210.712 356.674 211.57L357.337 212.428C359.196 211.44 360.6 208.905 360.6 206.305V204.199H359.716ZM359.911 204.199V206.305C359.911 208.827 361.276 211.232 363.096 212.207L363.759 211.349C362.095 210.517 360.782 208.372 360.782 206.305V204.199H359.911ZM364.786 203.185V214.937H365.878V203.185H364.786ZM365.618 207.943V208.853H367.802V207.943H365.618ZM374.704 205.98V206.877H377.863V205.98H374.704ZM372 203.718C370.245 203.718 368.971 204.836 368.971 206.448C368.971 208.06 370.245 209.165 372 209.165C373.755 209.165 375.029 208.06 375.029 206.448C375.029 204.836 373.755 203.718 372 203.718ZM372 204.628C373.157 204.628 373.989 205.369 373.989 206.448C373.989 207.514 373.157 208.268 372 208.268C370.843 208.268 370.011 207.514 370.011 206.448C370.011 205.369 370.843 204.628 372 204.628ZM377.382 203.185V209.49H378.461V203.185H377.382ZM370.934 210.075V214.781H378.461V210.075H377.395V211.557H372.013V210.075H370.934ZM372.013 212.415H377.395V213.91H372.013V212.415ZM389.302 203.185V209.49H390.394V203.185H389.302ZM382.815 210.075V214.781H390.394V210.075H389.328V211.505H383.881V210.075H382.815ZM383.881 212.363H389.328V213.91H383.881V212.363ZM384.089 203.744C382.308 203.744 381.021 204.849 381.021 206.448C381.021 208.06 382.308 209.165 384.089 209.165C385.87 209.165 387.144 208.06 387.144 206.448C387.144 204.849 385.87 203.744 384.089 203.744ZM384.089 204.641C385.259 204.641 386.104 205.382 386.104 206.448C386.104 207.514 385.259 208.255 384.089 208.255C382.919 208.255 382.074 207.514 382.074 206.448C382.074 205.382 382.919 204.641 384.089 204.641ZM401.261 203.185V214.937H402.34V203.185H401.261ZM393.461 204.329V211.609H394.527V204.329H393.461ZM393.461 210.972V211.908H394.423C396.282 211.908 398.141 211.765 400.182 211.349L400.052 210.426C398.063 210.842 396.204 210.972 394.423 210.972H393.461ZM412.622 203.172V214.95H413.714V203.172H412.622ZM413.454 207.813V208.723H415.638V207.813H413.454ZM405.173 211.115V212.025H406.096C408.306 212.025 409.853 211.96 411.66 211.622L411.543 210.712C409.788 211.037 408.267 211.115 406.096 211.115H405.173ZM405.173 204.316V211.518H406.239V205.2H410.633V204.316H405.173ZM416.839 213.161C416.839 212.924 416.919 212.726 417.08 212.565C417.241 212.4 417.459 212.317 417.734 212.317C418.013 212.317 418.231 212.4 418.388 212.565C418.549 212.726 418.629 212.924 418.629 213.161C418.629 213.398 418.549 213.597 418.388 213.758C418.231 213.919 418.013 213.999 417.734 213.999C417.459 213.999 417.241 213.919 417.08 213.758C416.919 213.597 416.839 213.398 416.839 213.161Z" fill="#565656"/>
<path d="M100.016 243.16V244.644H109.088V243.16H100.016ZM98.574 246.114V247.612H110.306V246.114H98.574ZM103.446 247.01V252.092H105.308V247.01H103.446ZM100.016 239.702V243.86H101.878V239.702H100.016ZM119.727 239.114V252.078H121.603V239.114H119.727ZM121.113 244.07V245.596H123.395V244.07H121.113ZM116.325 240.458V240.78C116.325 244.294 114.715 246.674 111.313 248.438L112.349 249.852C116.661 247.682 118.145 244.35 118.145 240.458H116.325ZM112.027 240.458V241.956H117.277V240.458H112.027ZM130.926 241.172V242.628C130.926 244.826 129.876 247.22 127.706 248.186L128.756 249.656C131.192 248.55 132.41 245.624 132.41 242.628V241.172H130.926ZM131.346 241.172V242.628C131.346 245.512 132.55 248.27 135.014 249.334L136.022 247.864C133.852 246.968 132.816 244.728 132.816 242.628V241.172H131.346ZM128.224 240.374V241.9H135.49V240.374H128.224ZM136.694 239.128V252.092H138.57V239.128H136.694ZM144.057 245.778V248.62H145.919V245.778H144.057ZM149.741 239.128V248.942H151.603V239.128H149.741ZM142.265 250.384V251.868H151.883V250.384H142.265ZM142.265 248.018V250.776H144.127V248.018H142.265ZM140.865 246.338C143.203 246.338 146.241 246.268 148.999 245.806L148.887 244.476C146.171 244.826 143.007 244.854 140.641 244.854L140.865 246.338ZM147.291 246.66V247.934H150.147V246.66H147.291ZM144.813 239.576C142.909 239.576 141.579 240.514 141.579 241.886C141.579 243.272 142.909 244.196 144.813 244.196C146.703 244.196 148.033 243.272 148.033 241.886C148.033 240.514 146.703 239.576 144.813 239.576ZM144.813 240.934C145.667 240.934 146.269 241.256 146.269 241.886C146.269 242.516 145.667 242.838 144.813 242.838C143.945 242.838 143.343 242.516 143.343 241.886C143.343 241.256 143.945 240.934 144.813 240.934ZM161.906 239.114V246.114H163.768V239.114H161.906ZM163.026 241.886V243.398H165.49V241.886H163.026ZM155.2 246.632V247.976H161.934V248.662H155.228V251.098H157.076V249.922H163.768V246.632H155.2ZM155.228 250.636V252.008H164.146V250.636H155.228ZM153.562 240.08V241.48H161.192V240.08H153.562ZM157.384 241.788C155.452 241.788 154.192 242.614 154.192 243.916C154.192 245.218 155.452 246.016 157.384 246.016C159.302 246.016 160.562 245.218 160.562 243.916C160.562 242.614 159.302 241.788 157.384 241.788ZM157.384 243.09C158.252 243.09 158.784 243.37 158.784 243.916C158.784 244.434 158.252 244.714 157.384 244.714C156.516 244.714 155.984 244.434 155.984 243.916C155.984 243.37 156.516 243.09 157.384 243.09ZM156.446 239.03V241.074H158.308V239.03H156.446ZM174.813 239.506V240.108C174.813 241.634 173.343 243.328 170.361 243.72L171.089 245.218C174.491 244.714 176.451 242.6 176.451 240.108V239.506H174.813ZM175.163 239.506V240.108C175.163 242.6 177.123 244.714 180.525 245.218L181.239 243.72C178.271 243.328 176.787 241.62 176.787 240.108V239.506H175.163ZM174.827 247.346V252.092H176.675V247.346H174.827ZM169.941 246.17V247.682H181.659V246.17H169.941ZM189.204 246.996V247.43C189.204 248.69 188.49 249.978 186.796 250.552L187.706 251.91C189.736 251.182 190.604 249.39 190.604 247.43V246.996H189.204ZM189.68 246.996V247.43C189.68 249.334 190.422 251.266 192.48 252.036L193.222 250.664C191.64 250.006 191.01 248.69 191.01 247.43V246.996H189.68ZM193.936 246.996V247.43C193.936 248.578 193.292 249.95 191.71 250.664L192.48 252.036C194.496 251.238 195.266 249.222 195.266 247.43V246.996H193.936ZM194.37 246.996V247.43C194.37 249.474 195.21 251.21 197.268 251.91L198.178 250.552C196.47 250.02 195.77 248.774 195.77 247.43V246.996H194.37ZM195.196 239.142V246.464H197.072V239.142H195.196ZM190.016 239.8C188 239.8 186.488 241.088 186.488 242.908C186.488 244.714 188 246.002 190.016 246.002C192.032 246.002 193.53 244.714 193.53 242.908C193.53 241.088 192.032 239.8 190.016 239.8ZM190.016 241.34C190.996 241.34 191.71 241.914 191.71 242.908C191.71 243.888 190.996 244.462 190.016 244.462C189.036 244.462 188.308 243.888 188.308 242.908C188.308 241.914 189.036 241.34 190.016 241.34ZM205.037 239.31C202.069 239.31 200.347 240.094 200.347 241.522C200.347 242.95 202.069 243.734 205.037 243.734C207.991 243.734 209.727 242.95 209.727 241.522C209.727 240.094 207.991 239.31 205.037 239.31ZM205.037 240.668C206.913 240.668 207.795 240.948 207.795 241.522C207.795 242.124 206.913 242.376 205.037 242.376C203.161 242.376 202.279 242.124 202.279 241.522C202.279 240.948 203.161 240.668 205.037 240.668ZM199.171 244.336V245.806H210.889V244.336H199.171ZM200.515 246.534V247.92H207.641V248.578H200.529V251.014H202.363V249.866H209.475V246.534H200.515ZM200.529 250.608V252.008H209.811V250.608H200.529ZM220.492 239.128V252.092H222.354V239.128H220.492ZM221.78 244.196V245.736H224.034V244.196H221.78ZM214.136 240.444V240.668C214.136 243.958 213.786 246.114 211.784 248.326L213.24 249.376C215.536 246.8 215.872 244.042 215.872 240.444H214.136ZM212.358 240.444V241.956H214.864V240.444H212.358ZM217.706 240.444V240.654C217.706 244.196 217.384 246.688 215.424 249.166L216.88 250.202C219.134 247.388 219.442 244.21 219.442 240.444H217.706ZM216.306 240.444V241.956H218.476V240.444H216.306ZM227.519 245.708V249.348H229.367V245.708H227.519ZM232.223 245.708V249.348H234.085V245.708H232.223ZM224.943 249.082V250.594H236.675V249.082H224.943ZM230.795 239.758C227.995 239.758 225.951 241.13 225.951 243.244C225.951 245.358 227.995 246.716 230.795 246.716C233.581 246.716 235.639 245.358 235.639 243.244C235.639 241.13 233.581 239.758 230.795 239.758ZM230.795 241.214C232.601 241.214 233.805 241.956 233.805 243.244C233.805 244.518 232.601 245.274 230.795 245.274C228.989 245.274 227.785 244.518 227.785 243.244C227.785 241.956 228.989 241.214 230.795 241.214ZM241.274 247.859H239.641C239.645 247.444 239.679 247.089 239.743 246.792C239.812 246.496 239.923 246.23 240.078 245.993C240.233 245.751 240.443 245.505 240.707 245.254C240.917 245.058 241.104 244.874 241.268 244.701C241.436 244.523 241.568 244.338 241.664 244.147C241.76 243.951 241.808 243.73 241.808 243.484C241.808 243.206 241.762 242.973 241.671 242.787C241.584 242.6 241.454 242.458 241.281 242.363C241.113 242.263 240.901 242.212 240.646 242.212C240.436 242.212 240.238 242.256 240.051 242.342C239.864 242.429 239.714 242.563 239.6 242.746C239.486 242.923 239.424 243.156 239.415 243.443H237.604C237.617 242.846 237.758 242.349 238.027 241.953C238.296 241.552 238.659 241.253 239.114 241.057C239.57 240.857 240.08 240.756 240.646 240.756C241.27 240.756 241.803 240.861 242.245 241.071C242.692 241.276 243.031 241.577 243.264 241.973C243.501 242.37 243.619 242.848 243.619 243.409C243.619 243.81 243.542 244.17 243.387 244.489C243.232 244.803 243.027 245.097 242.771 245.371C242.516 245.644 242.241 245.92 241.944 246.198C241.685 246.43 241.509 246.679 241.418 246.943C241.327 247.207 241.279 247.513 241.274 247.859ZM239.47 249.985C239.47 249.711 239.561 249.484 239.743 249.301C239.93 249.119 240.181 249.028 240.495 249.028C240.81 249.028 241.058 249.119 241.24 249.301C241.427 249.484 241.521 249.711 241.521 249.985C241.521 250.249 241.427 250.472 241.24 250.655C241.058 250.837 240.81 250.928 240.495 250.928C240.181 250.928 239.93 250.837 239.743 250.655C239.561 250.472 239.47 250.249 239.47 249.985Z" fill="#154782"/>
<path d="M87.7871 268.249V268.009C87.7871 267.673 87.8926 267.396 88.1035 267.177C88.3184 266.958 88.6094 266.849 88.9766 266.849C89.3477 266.849 89.6406 266.958 89.8555 267.177C90.0703 267.396 90.1777 267.673 90.1777 268.009V268.249C90.1777 268.581 90.0703 268.857 89.8555 269.076C89.6445 269.29 89.3535 269.398 88.9824 269.398C88.6152 269.398 88.3242 269.29 88.1094 269.076C87.8945 268.857 87.7871 268.581 87.7871 268.249ZM101.228 263.19V264.294C101.228 265.95 100.172 267.414 98.54 268.014L99.068 268.818C100.88 268.11 102.056 266.382 102.056 264.294V263.19H101.228ZM101.408 263.19V264.366C101.408 266.25 102.596 267.858 104.336 268.506L104.864 267.726C103.304 267.186 102.224 265.83 102.224 264.366V263.19H101.408ZM106.016 262.626V269.202H107.012V262.626H106.016ZM106.736 265.422V266.262H108.62V265.422H106.736ZM103.556 269.502C101.336 269.502 99.992 270.234 99.992 271.482C99.992 272.73 101.336 273.45 103.556 273.45C105.776 273.45 107.12 272.73 107.12 271.482C107.12 270.234 105.776 269.502 103.556 269.502ZM103.556 270.294C105.164 270.294 106.148 270.726 106.148 271.482C106.148 272.238 105.164 272.67 103.556 272.67C101.948 272.67 100.964 272.238 100.964 271.482C100.964 270.726 101.948 270.294 103.556 270.294ZM112.495 263.562V265.506C112.495 267.558 111.187 269.634 109.579 270.402L110.191 271.218C111.967 270.318 113.311 268.002 113.311 265.506V263.562H112.495ZM112.663 263.562V265.506C112.663 267.918 114.019 270.15 115.783 271.014L116.383 270.222C114.775 269.478 113.479 267.486 113.479 265.506V263.562H112.663ZM117.511 262.614V273.486H118.507V262.614H117.511ZM121.926 263.262V264.078H128.85V263.262H121.926ZM120.678 267.606V268.434H130.506V267.606H120.678ZM128.262 263.262V264.114C128.262 265.086 128.262 266.238 127.914 267.846L128.886 267.954C129.234 266.298 129.234 265.11 129.234 264.114V263.262H128.262ZM121.962 272.406V273.234H129.558V272.406H121.962ZM121.962 269.634V272.526H122.958V269.634H121.962ZM131.717 271.314V272.142H141.545V271.314H131.717ZM136.109 268.986V271.662H137.105V268.986H136.109ZM132.905 263.43V264.234H139.349V265.914H132.941V268.89H133.925V266.718H140.333V263.43H132.905ZM132.941 268.47V269.286H140.585V268.47H132.941ZM145.432 264.174V265.938C145.432 267.774 144.124 269.838 142.576 270.594L143.152 271.386C144.844 270.522 146.224 268.194 146.224 265.938V264.174H145.432ZM145.612 264.174V265.938C145.612 268.086 146.92 270.27 148.636 271.122L149.2 270.33C147.628 269.586 146.404 267.654 146.404 265.938V264.174H145.612ZM142.96 263.73V264.57H148.804V263.73H142.96ZM150.088 262.626V273.474H151.096V262.626H150.088ZM150.856 267.006V267.846H152.872V267.006H150.856ZM158.175 263.01V263.61C158.175 265.158 156.267 266.454 154.287 266.754L154.683 267.558C156.939 267.174 159.051 265.686 159.051 263.61V263.01H158.175ZM158.355 263.01V263.61C158.355 265.662 160.479 267.174 162.711 267.558L163.107 266.754C161.151 266.454 159.219 265.122 159.219 263.61V263.01H158.355ZM158.175 269.346V273.474H159.159V269.346H158.175ZM153.795 268.734V269.562H163.599V268.734H153.795ZM171.482 263.96V272.538H170.398V265.314L168.213 266.111V265.132L171.312 263.96H171.482ZM180.025 267.593V268.894C180.025 269.593 179.963 270.183 179.838 270.663C179.713 271.144 179.533 271.531 179.299 271.824C179.064 272.117 178.781 272.329 178.449 272.462C178.121 272.591 177.75 272.656 177.336 272.656C177.008 272.656 176.705 272.615 176.428 272.533C176.15 272.451 175.9 272.32 175.678 272.14C175.459 271.956 175.271 271.718 175.115 271.425C174.959 271.132 174.84 270.777 174.758 270.359C174.676 269.941 174.635 269.453 174.635 268.894V267.593C174.635 266.894 174.697 266.308 174.822 265.835C174.951 265.363 175.133 264.984 175.367 264.699C175.602 264.41 175.883 264.203 176.211 264.078C176.543 263.953 176.914 263.89 177.324 263.89C177.656 263.89 177.961 263.931 178.238 264.013C178.52 264.091 178.77 264.218 178.988 264.394C179.207 264.566 179.393 264.796 179.545 265.085C179.701 265.37 179.82 265.72 179.902 266.134C179.984 266.548 180.025 267.035 180.025 267.593ZM178.936 269.07V267.411C178.936 267.029 178.912 266.693 178.865 266.404C178.822 266.111 178.758 265.861 178.672 265.654C178.586 265.447 178.477 265.279 178.344 265.15C178.215 265.021 178.064 264.927 177.893 264.869C177.725 264.806 177.535 264.775 177.324 264.775C177.066 264.775 176.838 264.824 176.639 264.921C176.439 265.015 176.271 265.165 176.135 265.372C176.002 265.579 175.9 265.851 175.83 266.187C175.76 266.523 175.725 266.931 175.725 267.411V269.07C175.725 269.453 175.746 269.79 175.789 270.083C175.836 270.376 175.904 270.63 175.994 270.845C176.084 271.056 176.193 271.23 176.322 271.367C176.451 271.503 176.6 271.605 176.768 271.671C176.939 271.734 177.129 271.765 177.336 271.765C177.602 271.765 177.834 271.714 178.033 271.613C178.232 271.511 178.398 271.353 178.531 271.138C178.668 270.919 178.77 270.64 178.836 270.3C178.902 269.956 178.936 269.546 178.936 269.07ZM189.195 262.638V270.558H190.203V262.638H189.195ZM183.231 272.418V273.234H190.527V272.418H183.231ZM183.231 269.742V272.694H184.215V269.742H183.231ZM184.383 263.382C182.763 263.382 181.551 264.486 181.551 266.058C181.551 267.618 182.763 268.734 184.383 268.734C186.003 268.734 187.203 267.618 187.203 266.058C187.203 264.486 186.003 263.382 184.383 263.382ZM184.383 264.246C185.439 264.246 186.243 264.99 186.243 266.058C186.243 267.114 185.439 267.858 184.383 267.858C183.327 267.858 182.523 267.114 182.523 266.058C182.523 264.99 183.327 264.246 184.383 264.246ZM195.939 263.682V270.75H200.931V263.682H195.939ZM199.959 264.486V269.946H196.911V264.486H199.959ZM203.199 262.614V273.486H204.195V262.614H203.199ZM206.81 263.598V268.626H211.79V263.598H206.81ZM210.818 264.402V267.822H207.782V264.402H210.818ZM213.782 262.614V270.57H214.778V262.614H213.782ZM214.466 265.926V266.754H216.386V265.926H214.466ZM208.022 272.418V273.234H215.27V272.418H208.022ZM208.022 269.814V272.766H209.018V269.814H208.022ZM220.921 263.406C219.229 263.406 218.005 264.45 218.005 265.962C218.005 267.486 219.229 268.53 220.921 268.53C222.613 268.53 223.825 267.486 223.825 265.962C223.825 264.45 222.613 263.406 220.921 263.406ZM220.921 264.27C222.037 264.27 222.853 264.954 222.853 265.962C222.853 266.97 222.037 267.666 220.921 267.666C219.793 267.666 218.977 266.97 218.977 265.962C218.977 264.954 219.793 264.27 220.921 264.27ZM225.241 262.614V273.486H226.237V262.614H225.241ZM217.597 271.11C219.529 271.11 222.181 271.098 224.617 270.63L224.533 269.898C222.169 270.27 219.433 270.282 217.453 270.282L217.597 271.11ZM239.664 262.626V273.474H240.624V262.626H239.664ZM235.716 266.514V267.342H237.792V266.514H235.716ZM237.492 262.878V272.922H238.428V262.878H237.492ZM233.628 264.306V265.686C233.628 267.678 232.788 269.658 231.276 270.57L231.888 271.314C233.484 270.306 234.396 268.062 234.396 265.686V264.306H233.628ZM233.832 264.306V265.686C233.832 267.954 234.708 270.09 236.292 271.05L236.904 270.318C235.416 269.454 234.6 267.57 234.6 265.686V264.306H233.832ZM231.576 263.886V264.714H236.532V263.886H231.576ZM242.459 271.254V272.082H252.287V271.254H242.459ZM246.875 268.626V271.53H247.859V268.626H246.875ZM246.851 263.994V264.666C246.851 266.382 244.799 267.906 242.927 268.218L243.335 269.01C245.471 268.566 247.691 266.886 247.691 264.666V263.994H246.851ZM247.031 263.994V264.666C247.031 266.886 249.263 268.542 251.435 268.974L251.831 268.182C249.935 267.87 247.871 266.382 247.871 264.666V263.994H247.031ZM243.263 263.61V264.426H251.459V263.61H243.263ZM258.946 265.206V266.034H261.862V265.206H258.946ZM256.45 263.118C254.83 263.118 253.654 264.15 253.654 265.638C253.654 267.126 254.83 268.146 256.45 268.146C258.07 268.146 259.246 267.126 259.246 265.638C259.246 264.15 258.07 263.118 256.45 263.118ZM256.45 263.958C257.518 263.958 258.286 264.642 258.286 265.638C258.286 266.622 257.518 267.318 256.45 267.318C255.382 267.318 254.614 266.622 254.614 265.638C254.614 264.642 255.382 263.958 256.45 263.958ZM261.418 262.626V268.446H262.414V262.626H261.418ZM255.466 268.986V273.33H262.414V268.986H261.43V270.354H256.462V268.986H255.466ZM256.462 271.146H261.43V272.526H256.462V271.146ZM267.514 271.242V272.07H277.342V271.242H267.514ZM271.882 268.614V271.518H272.866V268.614H271.882ZM271.858 263.346V264.186C271.858 265.974 269.806 267.57 267.898 267.918L268.318 268.746C270.502 268.29 272.722 266.502 272.722 264.186V263.346H271.858ZM272.038 263.346V264.186C272.038 266.502 274.258 268.29 276.442 268.746L276.874 267.918C274.966 267.57 272.902 265.986 272.902 264.186V263.346H272.038ZM283.413 269.466C281.097 269.466 279.633 270.222 279.633 271.47C279.633 272.706 281.097 273.45 283.413 273.45C285.717 273.45 287.193 272.706 287.193 271.47C287.193 270.222 285.717 269.466 283.413 269.466ZM283.413 270.246C285.117 270.246 286.197 270.714 286.197 271.47C286.197 272.214 285.117 272.682 283.413 272.682C281.709 272.682 280.617 272.214 280.617 271.47C280.617 270.714 281.709 270.246 283.413 270.246ZM279.717 263.166V263.982H286.701V263.166H279.717ZM278.553 267.678V268.482H288.345V267.678H278.553ZM282.573 265.59V267.906H283.557V265.59H282.573ZM286.125 263.166V264.09C286.125 264.942 286.125 265.734 285.825 266.85L286.809 266.97C287.097 265.842 287.097 264.966 287.097 264.09V263.166H286.125ZM297.476 262.638V270.558H298.484V262.638H297.476ZM291.512 272.418V273.234H298.808V272.418H291.512ZM291.512 269.742V272.694H292.496V269.742H291.512ZM292.664 263.382C291.044 263.382 289.832 264.486 289.832 266.058C289.832 267.618 291.044 268.734 292.664 268.734C294.284 268.734 295.484 267.618 295.484 266.058C295.484 264.486 294.284 263.382 292.664 263.382ZM292.664 264.246C293.72 264.246 294.524 264.99 294.524 266.058C294.524 267.114 293.72 267.858 292.664 267.858C291.608 267.858 290.804 267.114 290.804 266.058C290.804 264.99 291.608 264.246 292.664 264.246ZM308.503 262.614V273.486H309.499V262.614H308.503ZM303.775 263.454C302.179 263.454 301.027 264.93 301.027 267.234C301.027 269.55 302.179 271.026 303.775 271.026C305.383 271.026 306.535 269.55 306.535 267.234C306.535 264.93 305.383 263.454 303.775 263.454ZM303.775 264.354C304.843 264.354 305.575 265.482 305.575 267.234C305.575 268.998 304.843 270.15 303.775 270.15C302.719 270.15 301.975 268.998 301.975 267.234C301.975 265.482 302.719 264.354 303.775 264.354ZM317.515 264.174V265.938C317.515 267.81 316.207 269.85 314.635 270.594L315.211 271.386C316.939 270.534 318.319 268.23 318.319 265.938V264.174H317.515ZM317.707 264.174V265.938C317.707 268.194 319.099 270.306 320.851 271.122L321.415 270.33C319.819 269.646 318.511 267.774 318.511 265.938V264.174H317.707ZM314.995 263.73V264.57H321.055V263.73H314.995ZM322.519 262.626V273.474H323.515V262.626H322.519ZM328.758 268.086V270.498H329.754V268.086H328.758ZM333.57 262.626V270.882H334.566V262.626H333.57ZM327.162 272.418V273.234H334.83V272.418H327.162ZM327.162 270.078V272.646H328.158V270.078H327.162ZM325.758 268.458C327.726 268.458 330.354 268.422 332.694 268.05L332.622 267.318C330.318 267.618 327.63 267.642 325.626 267.642L325.758 268.458ZM331.362 269.034V269.766H333.822V269.034H331.362ZM329.154 263.07C327.558 263.07 326.478 263.814 326.478 264.954C326.478 266.106 327.558 266.85 329.154 266.85C330.738 266.85 331.818 266.106 331.818 264.954C331.818 263.814 330.738 263.07 329.154 263.07ZM329.154 263.814C330.162 263.814 330.87 264.258 330.87 264.954C330.87 265.65 330.162 266.094 329.154 266.094C328.134 266.094 327.426 265.65 327.426 264.954C327.426 264.258 328.134 263.814 329.154 263.814ZM344.057 262.614V273.474H345.065V262.614H344.057ZM344.789 267.018V267.846H346.793V267.018H344.789ZM341.285 263.79V263.946C341.285 266.814 339.785 269.13 336.785 270.654L337.337 271.422C340.841 269.658 342.257 266.874 342.257 263.79H341.285ZM337.289 263.79V264.606H341.801V263.79H337.289ZM349.096 265.638V266.454H356.452V265.638H349.096ZM349.096 262.842V265.998H350.08V262.842H349.096ZM347.764 267.714V268.518H357.568V267.714H347.764ZM352.648 269.49C350.332 269.49 348.928 270.198 348.928 271.47C348.928 272.718 350.332 273.438 352.648 273.438C354.964 273.438 356.368 272.718 356.368 271.47C356.368 270.198 354.964 269.49 352.648 269.49ZM352.648 270.27C354.352 270.27 355.36 270.702 355.36 271.47C355.36 272.214 354.352 272.646 352.648 272.646C350.956 272.646 349.936 272.214 349.936 271.47C349.936 270.702 350.956 270.27 352.648 270.27ZM366.147 262.626V273.474H367.143V262.626H366.147ZM366.903 267.078V267.918H368.919V267.078H366.903ZM358.743 264.354V265.17H365.139V264.354H358.743ZM361.983 266.07C360.459 266.07 359.343 267.102 359.343 268.566C359.343 270.03 360.459 271.062 361.983 271.062C363.519 271.062 364.623 270.03 364.623 268.566C364.623 267.102 363.519 266.07 361.983 266.07ZM361.983 266.898C362.967 266.898 363.675 267.582 363.675 268.566C363.675 269.538 362.967 270.234 361.983 270.234C360.999 270.234 360.291 269.538 360.291 268.566C360.291 267.582 360.999 266.898 361.983 266.898ZM361.467 262.758V264.726H362.463V262.758H361.467ZM374.822 265.218V266.034H378.17V265.218H374.822ZM374.822 268.206V269.034H378.17V268.206H374.822ZM370.274 263.682V270.738H375.206V263.682H370.274ZM374.222 264.486V269.934H371.246V264.486H374.222ZM377.786 262.614V273.486H378.77V262.614H377.786ZM382.092 271.249V272.122C382.092 272.478 382.002 272.853 381.822 273.247C381.643 273.646 381.391 273.978 381.066 274.244L380.451 273.816C380.576 273.644 380.682 273.468 380.768 273.288C380.854 273.113 380.918 272.929 380.961 272.738C381.008 272.55 381.031 272.351 381.031 272.14V271.249H382.092ZM102.98 277.01V277.61C102.98 279.158 101.072 280.454 99.092 280.754L99.488 281.558C101.744 281.174 103.856 279.686 103.856 277.61V277.01H102.98ZM103.16 277.01V277.61C103.16 279.662 105.284 281.174 107.516 281.558L107.912 280.754C105.956 280.454 104.024 279.122 104.024 277.61V277.01H103.16ZM102.98 283.346V287.474H103.964V283.346H102.98ZM98.6 282.734V283.562H108.404V282.734H98.6ZM112.303 277.742V278.618C112.303 280.166 111.223 281.558 109.579 282.134L110.107 282.914C111.919 282.266 113.119 280.61 113.119 278.618V277.742H112.303ZM112.483 277.742V278.606C112.483 280.478 113.635 282.074 115.423 282.698L115.939 281.918C114.343 281.378 113.299 280.046 113.299 278.606V277.742H112.483ZM109.891 277.382V278.198H115.687V277.382H109.891ZM117.055 276.626V283.154H118.051V276.626H117.055ZM117.775 279.482V280.31H119.659V279.482H117.775ZM111.007 283.73V284.558H117.055V287.474H118.051V283.73H111.007ZM126.126 279.206V280.034H129.042V279.206H126.126ZM123.63 277.118C122.01 277.118 120.834 278.15 120.834 279.638C120.834 281.126 122.01 282.146 123.63 282.146C125.25 282.146 126.426 281.126 126.426 279.638C126.426 278.15 125.25 277.118 123.63 277.118ZM123.63 277.958C124.698 277.958 125.466 278.642 125.466 279.638C125.466 280.622 124.698 281.318 123.63 281.318C122.562 281.318 121.794 280.622 121.794 279.638C121.794 278.642 122.562 277.958 123.63 277.958ZM128.598 276.626V282.446H129.594V276.626H128.598ZM122.646 282.986V287.33H129.594V282.986H128.61V284.354H123.642V282.986H122.646ZM123.642 285.146H128.61V286.526H123.642V285.146ZM138.234 277.13C136.626 277.13 135.474 278.03 135.474 279.362C135.474 280.682 136.626 281.606 138.234 281.606C139.854 281.606 141.006 280.682 141.006 279.362C141.006 278.03 139.854 277.13 138.234 277.13ZM138.234 277.958C139.29 277.958 140.046 278.534 140.046 279.362C140.046 280.202 139.29 280.766 138.234 280.766C137.178 280.766 136.422 280.202 136.422 279.362C136.422 278.534 137.178 277.958 138.234 277.958ZM137.79 282.806V287.138H138.786V282.806H137.79ZM142.59 276.626V287.486H143.574V276.626H142.59ZM134.802 283.346C136.782 283.346 139.446 283.31 141.894 282.866L141.822 282.122C139.434 282.482 136.686 282.506 134.67 282.506L134.802 283.346ZM150.077 277.694V278.15C150.077 279.578 148.217 280.826 146.309 281.102L146.693 281.894C148.877 281.522 150.941 280.094 150.941 278.15V277.694H150.077ZM150.329 277.694V278.15C150.329 280.094 152.381 281.522 154.577 281.894L154.949 281.102C153.053 280.826 151.181 279.578 151.181 278.15V277.694H150.329ZM150.113 283.334V287.474H151.097V283.334H150.113ZM145.733 282.806V283.622H155.537V282.806H145.733ZM146.645 277.298V278.102H154.589V277.298H146.645ZM160.288 277.406C158.596 277.406 157.372 278.45 157.372 279.962C157.372 281.486 158.596 282.53 160.288 282.53C161.98 282.53 163.192 281.486 163.192 279.962C163.192 278.45 161.98 277.406 160.288 277.406ZM160.288 278.27C161.404 278.27 162.22 278.954 162.22 279.962C162.22 280.97 161.404 281.666 160.288 281.666C159.16 281.666 158.344 280.97 158.344 279.962C158.344 278.954 159.16 278.27 160.288 278.27ZM164.608 276.614V287.486H165.604V276.614H164.608ZM156.964 285.11C158.896 285.11 161.548 285.098 163.984 284.63L163.9 283.898C161.536 284.27 158.8 284.282 156.82 284.282L156.964 285.11ZM173.056 277.298V278.75C173.056 279.974 172.204 281.378 170.776 282.002L171.316 282.782C172.912 282.074 173.848 280.37 173.848 278.75V277.298H173.056ZM173.212 277.298V278.75C173.212 280.346 174.112 281.846 175.672 282.47L176.212 281.714C174.82 281.174 174.004 279.95 174.004 278.75V277.298H173.212ZM178.972 276.638V283.322H179.92V276.638H178.972ZM177.243 279.53V280.346H179.296V279.53H177.243ZM176.644 276.842V282.974H177.592V276.842H176.644ZM176.355 283.562C174.112 283.562 172.744 284.282 172.744 285.518C172.744 286.742 174.112 287.45 176.355 287.45C178.588 287.45 179.98 286.742 179.98 285.518C179.98 284.282 178.588 283.562 176.355 283.562ZM176.355 284.342C177.988 284.342 178.984 284.774 178.984 285.518C178.984 286.25 177.988 286.682 176.355 286.682C174.724 286.682 173.715 286.25 173.715 285.518C173.715 284.774 174.724 284.342 176.355 284.342ZM184.491 277.286V278.618C184.491 280.298 183.435 281.762 181.779 282.35L182.307 283.142C184.131 282.434 185.307 280.742 185.307 278.618V277.286H184.491ZM184.659 277.286V278.654C184.659 280.562 185.859 282.218 187.647 282.866L188.139 282.086C186.555 281.522 185.475 280.13 185.475 278.654V277.286H184.659ZM189.243 276.614V284.63H190.239V276.614H189.243ZM189.927 279.95V280.778H191.847V279.95H189.927ZM183.507 286.418V287.234H190.719V286.418H183.507ZM183.507 283.874V286.814H184.503V283.874H183.507ZM203.762 276.638V284.906H204.758V276.638H203.762ZM201.926 279.506V280.322H204.182V279.506H201.926ZM201.926 281.798V282.602H204.182V281.798H201.926ZM195.854 277.946V278.75H201.926V277.946H195.854ZM198.926 279.35C197.474 279.35 196.466 280.178 196.466 281.426C196.466 282.662 197.474 283.502 198.926 283.502C200.366 283.502 201.374 282.662 201.374 281.426C201.374 280.178 200.366 279.35 198.926 279.35ZM198.926 280.13C199.826 280.13 200.438 280.658 200.438 281.426C200.438 282.194 199.826 282.71 198.926 282.71C198.026 282.71 197.414 282.194 197.414 281.426C197.414 280.658 198.026 280.13 198.926 280.13ZM198.434 276.614V278.462H199.43V276.614H198.434ZM197.786 286.418V287.234H205.022V286.418H197.786ZM197.786 284.198V286.814H198.782V284.198H197.786ZM209.545 277.79V278.666C209.545 280.214 208.465 281.618 206.833 282.194L207.337 282.986C209.161 282.326 210.361 280.658 210.361 278.666V277.79H209.545ZM209.725 277.79V278.654C209.725 280.502 210.877 282.05 212.689 282.65L213.169 281.87C211.573 281.342 210.541 280.07 210.541 278.654V277.79H209.725ZM207.133 277.43V278.246H212.929V277.43H207.133ZM214.297 276.626V283.166H215.293V276.626H214.297ZM215.017 279.374V280.214H216.901V279.374H215.017ZM211.837 283.454C209.629 283.454 208.273 284.186 208.273 285.446C208.273 286.718 209.629 287.45 211.837 287.45C214.045 287.45 215.401 286.718 215.401 285.446C215.401 284.186 214.045 283.454 211.837 283.454ZM211.837 284.258C213.445 284.258 214.429 284.69 214.429 285.446C214.429 286.214 213.445 286.67 211.837 286.67C210.229 286.67 209.245 286.214 209.245 285.446C209.245 284.69 210.229 284.258 211.837 284.258ZM222.816 276.806C220.416 276.806 219 277.478 219 278.69C219 279.902 220.416 280.574 222.816 280.574C225.204 280.574 226.632 279.902 226.632 278.69C226.632 277.478 225.204 276.806 222.816 276.806ZM222.816 277.562C224.58 277.562 225.6 277.97 225.6 278.69C225.6 279.41 224.58 279.818 222.816 279.818C221.04 279.818 220.02 279.41 220.02 278.69C220.02 277.97 221.04 277.562 222.816 277.562ZM217.908 281.294V282.098H227.712V281.294H217.908ZM219.096 283.022V283.79H225.48V284.75H219.12V286.79H220.104V285.47H226.464V283.022H219.096ZM219.12 286.574V287.354H226.788V286.574H219.12ZM240.168 276.626V287.474H241.128V276.626H240.168ZM238.416 280.982V281.798H240.492V280.982H238.416ZM235.608 278.018V278.21C235.608 280.718 234.648 282.914 231.924 284.438L232.512 285.146C235.608 283.406 236.568 280.814 236.568 278.018H235.608ZM232.344 278.018V278.846H235.944V278.018H232.344ZM237.756 276.914V286.946H238.704V276.914H237.756ZM248.531 279.182V280.01H251.267V279.182H248.531ZM245.687 277.286V278.618C245.687 280.274 244.595 281.81 242.987 282.41L243.503 283.202C245.315 282.47 246.491 280.718 246.491 278.618V277.286H245.687ZM245.879 277.286V278.654C245.879 280.586 247.043 282.266 248.771 282.938L249.311 282.17C247.739 281.594 246.683 280.166 246.683 278.654V277.286H245.879ZM250.895 276.638V284.75H251.891V276.638H250.895ZM244.919 286.418V287.234H252.155V286.418H244.919ZM244.919 283.85V286.802H245.915V283.85H244.919ZM261.358 276.626V287.474H262.354V276.626H261.358ZM262.114 281.078V281.918H264.13V281.078H262.114ZM253.954 278.354V279.17H260.35V278.354H253.954ZM257.194 280.07C255.67 280.07 254.554 281.102 254.554 282.566C254.554 284.03 255.67 285.062 257.194 285.062C258.73 285.062 259.834 284.03 259.834 282.566C259.834 281.102 258.73 280.07 257.194 280.07ZM257.194 280.898C258.178 280.898 258.886 281.582 258.886 282.566C258.886 283.538 258.178 284.234 257.194 284.234C256.21 284.234 255.502 283.538 255.502 282.566C255.502 281.582 256.21 280.898 257.194 280.898ZM256.678 276.758V278.726H257.674V276.758H256.678ZM266.085 277.706V278.534H273.069V277.706H266.085ZM265.053 285.134V285.962H274.857V285.134H265.053ZM268.857 281.258V285.542H269.853V281.258H268.857ZM272.697 277.706V278.786C272.697 280.082 272.697 281.606 272.289 283.682L273.285 283.814C273.681 281.618 273.681 280.13 273.681 278.786V277.706H272.697ZM286.953 276.638V282.65H287.961V276.638H286.953ZM281.889 277.022V278.078C281.889 279.638 280.761 281.078 279.129 281.654L279.633 282.434C281.469 281.774 282.717 280.082 282.717 278.078V277.022H281.889ZM282.069 277.022V278.078C282.069 280.022 283.317 281.618 285.141 282.242L285.633 281.45C284.025 280.922 282.885 279.59 282.885 278.078V277.022H282.069ZM280.785 283.298V284.114H288.021V283.298H280.785ZM280.677 286.526V287.33H288.141V286.526H280.677ZM282.273 283.646V286.994H283.245V283.646H282.273ZM285.561 283.646V286.994H286.545V283.646H285.561ZM290.096 282.326V283.142H299.9V282.326H290.096ZM291.368 286.418V287.234H298.82V286.418H291.368ZM291.368 284.09V286.67H292.364V284.09H291.368ZM295.004 276.986C292.676 276.986 291.188 277.802 291.188 279.158C291.188 280.502 292.676 281.318 295.004 281.318C297.32 281.318 298.82 280.502 298.82 279.158C298.82 277.802 297.32 276.986 295.004 276.986ZM295.004 277.802C296.708 277.802 297.8 278.306 297.8 279.158C297.8 280.01 296.708 280.514 295.004 280.514C293.3 280.514 292.208 280.01 292.208 279.158C292.208 278.306 293.3 277.802 295.004 277.802ZM304.123 285.242V286.07H313.951V285.242H304.123ZM308.491 282.614V285.518H309.475V282.614H308.491ZM308.467 277.346V278.186C308.467 279.974 306.415 281.57 304.507 281.918L304.927 282.746C307.111 282.29 309.331 280.502 309.331 278.186V277.346H308.467ZM308.647 277.346V278.186C308.647 280.502 310.867 282.29 313.051 282.746L313.483 281.918C311.575 281.57 309.511 279.986 309.511 278.186V277.346H308.647ZM320.023 283.466C317.707 283.466 316.243 284.222 316.243 285.47C316.243 286.706 317.707 287.45 320.023 287.45C322.327 287.45 323.803 286.706 323.803 285.47C323.803 284.222 322.327 283.466 320.023 283.466ZM320.023 284.246C321.727 284.246 322.807 284.714 322.807 285.47C322.807 286.214 321.727 286.682 320.023 286.682C318.319 286.682 317.227 286.214 317.227 285.47C317.227 284.714 318.319 284.246 320.023 284.246ZM316.326 277.166V277.982H323.311V277.166H316.326ZM315.163 281.678V282.482H324.955V281.678H315.163ZM319.183 279.59V281.906H320.167V279.59H319.183ZM322.735 277.166V278.09C322.735 278.942 322.735 279.734 322.435 280.85L323.419 280.97C323.707 279.842 323.707 278.966 323.707 278.09V277.166H322.735ZM334.086 276.638V284.558H335.094V276.638H334.086ZM328.122 286.418V287.234H335.418V286.418H328.122ZM328.122 283.742V286.694H329.106V283.742H328.122ZM329.274 277.382C327.654 277.382 326.442 278.486 326.442 280.058C326.442 281.618 327.654 282.734 329.274 282.734C330.894 282.734 332.094 281.618 332.094 280.058C332.094 278.486 330.894 277.382 329.274 277.382ZM329.274 278.246C330.33 278.246 331.134 278.99 331.134 280.058C331.134 281.114 330.33 281.858 329.274 281.858C328.218 281.858 327.414 281.114 327.414 280.058C327.414 278.99 328.218 278.246 329.274 278.246ZM337.229 282.35V283.166H347.057V282.35H337.229ZM341.717 282.758V285.254H342.713V282.758H341.717ZM338.477 286.418V287.234H345.965V286.418H338.477ZM338.477 284.294V286.73H339.461V284.294H338.477ZM338.537 276.962V281.306H345.761V276.962H344.765V278.342H339.521V276.962H338.537ZM339.521 279.122H344.765V280.502H339.521V279.122ZM356.152 276.614V287.486H357.148V276.614H356.152ZM351.424 277.454C349.828 277.454 348.676 278.93 348.676 281.234C348.676 283.55 349.828 285.026 351.424 285.026C353.032 285.026 354.184 283.55 354.184 281.234C354.184 278.93 353.032 277.454 351.424 277.454ZM351.424 278.354C352.492 278.354 353.224 279.482 353.224 281.234C353.224 282.998 352.492 284.15 351.424 284.15C350.368 284.15 349.624 282.998 349.624 281.234C349.624 279.482 350.368 278.354 351.424 278.354ZM366.663 276.614V287.486H367.659V276.614H366.663ZM367.419 280.934V281.774H369.435V280.934H367.419ZM359.751 284.042V284.87H360.615C362.691 284.87 364.131 284.786 365.823 284.486L365.715 283.658C364.071 283.97 362.655 284.042 360.615 284.042H359.751ZM359.727 277.634V278.45H363.651V280.706H359.751V284.378H360.735V281.522H364.635V277.634H359.727ZM99.86 294.262V295.078H107.288V294.262H99.86ZM98.6 296.71V297.526H108.428V296.71H98.6ZM102.98 297.154V301.474H103.964V297.154H102.98ZM99.86 291.166V294.67H100.856V291.166H99.86ZM110.863 291.334V292.138H117.643V291.334H110.863ZM109.639 295.99V296.806H119.443V295.99H109.639ZM114.019 296.53V301.486H115.015V296.53H114.019ZM117.175 291.334V292.27C117.175 293.362 117.175 294.622 116.755 296.374L117.739 296.506C118.147 294.67 118.147 293.398 118.147 292.27V291.334H117.175ZM128.742 294.946V295.786H130.746V294.946H128.742ZM128.01 290.614V301.474H129.018V290.614H128.01ZM121.098 291.682V298.402H122.094V291.682H121.098ZM121.098 297.886V298.726H121.962C123.606 298.726 125.274 298.618 127.122 298.234L127.002 297.406C125.214 297.778 123.57 297.886 121.962 297.886H121.098ZM137.562 292.174V293.938C137.562 295.81 136.254 297.85 134.682 298.594L135.258 299.386C136.986 298.534 138.366 296.23 138.366 293.938V292.174H137.562ZM137.754 292.174V293.938C137.754 296.194 139.146 298.306 140.898 299.122L141.462 298.33C139.866 297.646 138.558 295.774 138.558 293.938V292.174H137.754ZM135.042 291.73V292.57H141.102V291.73H135.042ZM142.566 290.626V301.474H143.562V290.626H142.566ZM148.805 296.086V298.498H149.801V296.086H148.805ZM153.617 290.626V298.882H154.613V290.626H153.617ZM147.209 300.418V301.234H154.877V300.418H147.209ZM147.209 298.078V300.646H148.205V298.078H147.209ZM145.805 296.458C147.773 296.458 150.401 296.422 152.741 296.05L152.669 295.318C150.365 295.618 147.677 295.642 145.673 295.642L145.805 296.458ZM151.409 297.034V297.766H153.869V297.034H151.409ZM149.201 291.07C147.605 291.07 146.525 291.814 146.525 292.954C146.525 294.106 147.605 294.85 149.201 294.85C150.785 294.85 151.865 294.106 151.865 292.954C151.865 291.814 150.785 291.07 149.201 291.07ZM149.201 291.814C150.209 291.814 150.917 292.258 150.917 292.954C150.917 293.65 150.209 294.094 149.201 294.094C148.181 294.094 147.473 293.65 147.473 292.954C147.473 292.258 148.181 291.814 149.201 291.814ZM164.188 290.59V296.578H165.184V290.59H164.188ZM164.764 293.194V294.034H166.792V293.194H164.764ZM158.296 297.13V297.886H164.212V298.834H158.32V300.874H159.304V299.554H165.184V297.13H158.296ZM158.32 300.586V301.354H165.58V300.586H158.32ZM156.796 291.598V292.378H163.204V291.598H156.796ZM160 292.858C158.416 292.858 157.396 293.542 157.396 294.646C157.396 295.738 158.416 296.41 160 296.41C161.56 296.41 162.592 295.738 162.592 294.646C162.592 293.542 161.56 292.858 160 292.858ZM160 293.59C160.996 293.59 161.644 293.998 161.644 294.646C161.644 295.282 160.996 295.69 160 295.69C158.992 295.69 158.344 295.282 158.344 294.646C158.344 293.998 158.992 293.59 160 293.59ZM159.496 290.506V292.138H160.492V290.506H159.496ZM175.168 291.01V291.61C175.168 293.158 173.26 294.454 171.28 294.754L171.676 295.558C173.932 295.174 176.044 293.686 176.044 291.61V291.01H175.168ZM175.348 291.01V291.61C175.348 293.662 177.472 295.174 179.704 295.558L180.1 294.754C178.144 294.454 176.212 293.122 176.212 291.61V291.01H175.348ZM175.168 297.346V301.474H176.152V297.346H175.168ZM170.788 296.734V297.562H180.592V296.734H170.788ZM187.503 297.298V297.886C187.503 298.93 186.687 300.094 185.319 300.586L185.823 301.33C187.383 300.73 188.271 299.302 188.271 297.886V297.298H187.503ZM187.719 297.298V297.886C187.719 299.326 188.427 300.814 189.987 301.426L190.407 300.67C189.111 300.142 188.463 298.978 188.463 297.886V297.298H187.719ZM191.511 297.298V297.886C191.511 298.822 190.851 300.082 189.567 300.67L189.987 301.426C191.535 300.766 192.255 299.158 192.255 297.886V297.298H191.511ZM191.715 297.298V297.886C191.715 299.386 192.579 300.754 194.163 301.33L194.667 300.586C193.287 300.118 192.483 299.002 192.483 297.886V297.298H191.715ZM192.687 290.638V296.83H193.695V290.638H192.687ZM187.875 291.262C186.231 291.262 185.043 292.294 185.043 293.794C185.043 295.294 186.231 296.314 187.875 296.314C189.519 296.314 190.695 295.294 190.695 293.794C190.695 292.294 189.519 291.262 187.875 291.262ZM187.875 292.09C188.955 292.09 189.735 292.786 189.735 293.794C189.735 294.802 188.955 295.486 187.875 295.486C186.795 295.486 186.015 294.802 186.015 293.794C186.015 292.786 186.795 292.09 187.875 292.09ZM197.078 297.13V301.33H204.362V297.13H203.366V298.39H198.062V297.13H197.078ZM198.062 299.158H203.366V300.526H198.062V299.158ZM195.83 295.57V296.374H205.634V295.57H195.83ZM200.234 290.746V291.226C200.234 292.594 198.35 293.758 196.394 294.022L196.754 294.802C198.986 294.466 201.086 293.11 201.086 291.226V290.746H200.234ZM200.39 290.746V291.226C200.39 293.086 202.502 294.466 204.71 294.802L205.082 294.022C203.15 293.758 201.242 292.57 201.242 291.226V290.746H200.39ZM214.765 290.626V301.474H215.761V290.626H214.765ZM207.565 291.682V298.402H208.549V291.682H207.565ZM207.565 297.814V298.678H208.453C210.169 298.678 211.885 298.546 213.769 298.162L213.649 297.31C211.813 297.694 210.097 297.814 208.453 297.814H207.565ZM225.252 290.614V301.486H226.26V290.614H225.252ZM226.02 294.898V295.738H228.036V294.898H226.02ZM218.376 297.946V298.786H219.228C221.268 298.786 222.696 298.726 224.364 298.414L224.256 297.574C222.636 297.874 221.232 297.946 219.228 297.946H218.376ZM218.376 291.67V298.318H219.36V292.486H223.416V291.67H218.376ZM229.203 299.964C229.203 299.781 229.26 299.626 229.373 299.501C229.49 299.372 229.658 299.308 229.877 299.308C230.096 299.308 230.262 299.372 230.375 299.501C230.492 299.626 230.551 299.781 230.551 299.964C230.551 300.144 230.492 300.296 230.375 300.421C230.262 300.546 230.096 300.609 229.877 300.609C229.658 300.609 229.49 300.546 229.373 300.421C229.26 300.296 229.203 300.144 229.203 299.964Z" fill="#565656"/>
<path d="M214.526 128.172V130.182C214.526 134.172 211.076 138.582 204.806 139.662L206.516 142.962C213.716 141.552 218.006 136.212 218.006 130.182V128.172H214.526ZM215.336 128.172V130.182C215.336 136.302 219.596 141.552 226.796 142.962L228.506 139.662C222.206 138.582 218.786 134.262 218.786 130.182V128.172H215.336ZM204.236 147.732V150.972H229.376V147.732H204.236ZM232.644 129.192V147.612H245.934V129.192H232.644ZM242.004 132.312V144.462H236.574V132.312H242.004ZM249.564 126.582V154.362H253.584V126.582H249.564ZM252.684 137.052V140.352H257.604V137.052H252.684ZM262.371 140.892V144.012H281.901V140.892H262.371ZM259.431 147.942V151.182H284.571V147.942H259.431ZM262.371 128.592V141.762H266.421V131.802H281.661V128.592H262.371ZM265.191 134.712V137.802H281.031V134.712H265.191ZM299.419 143.862C293.419 143.862 289.579 145.842 289.579 149.142C289.579 152.382 293.419 154.362 299.419 154.362C305.419 154.362 309.259 152.382 309.259 149.142C309.259 145.842 305.419 143.862 299.419 143.862ZM299.419 146.862C303.169 146.862 305.299 147.642 305.299 149.142C305.299 150.612 303.169 151.362 299.419 151.362C295.669 151.362 293.539 150.612 293.539 149.142C293.539 147.642 295.669 146.862 299.419 146.862ZM289.879 127.812V130.962H307.459V127.812H289.879ZM287.059 138.972V142.152H312.079V138.972H287.059ZM296.329 134.142V139.782H300.289V134.142H296.329ZM305.149 127.812V130.092C305.149 132.252 305.149 134.262 304.399 137.112L308.359 137.532C309.109 134.652 309.109 132.282 309.109 130.092V127.812H305.149ZM327.406 143.562C321.616 143.562 317.986 145.572 317.986 148.962C317.986 152.382 321.616 154.392 327.406 154.392C333.166 154.392 336.796 152.382 336.796 148.962C336.796 145.572 333.166 143.562 327.406 143.562ZM327.406 146.682C330.946 146.682 332.836 147.402 332.836 148.962C332.836 150.552 330.946 151.302 327.406 151.302C323.866 151.302 321.946 150.552 321.946 148.962C321.946 147.402 323.866 146.682 327.406 146.682ZM332.476 126.582V142.932H336.466V126.582H332.476ZM335.356 133.032V136.332H340.156V133.032H335.356ZM315.406 128.352V141.402H328.756V128.352H324.796V131.772H319.366V128.352H315.406ZM319.366 134.862H324.796V138.282H319.366V134.862Z" fill="#025FBE"/>
<g clip-path="url(#clip0_205_695)">
<path d="M170.999 150.849C170.846 151.483 170.702 152.116 170.544 152.75C170.401 153.32 170.208 153.479 169.674 153.485C168.834 153.49 167.993 153.511 167.153 153.474C166.817 153.458 166.486 153.314 166.154 153.229C166.154 153.74 166.154 154.374 166.154 155.066C166.614 155.066 167.069 155.06 167.519 155.066C168.013 155.071 168.25 155.273 168.334 155.8C168.582 157.301 168.819 158.808 169.046 160.315C169.15 161.012 168.844 161.379 168.186 161.379C162.412 161.379 156.639 161.379 150.865 161.379C150.217 161.379 149.911 161.001 150.015 160.304C150.242 158.813 150.479 157.328 150.722 155.838C150.816 155.252 151.038 155.071 151.597 155.066C151.888 155.06 152.175 155.066 152.467 155.06C152.496 155.06 152.526 155.044 152.595 155.023C152.556 154.858 152.526 154.688 152.472 154.528C151.695 152.021 150.914 149.519 150.148 147.011C150.059 146.724 150.005 146.404 150.005 146.101C150 142.332 150 138.563 150.01 134.799C150.01 134.527 150.054 134.24 150.138 133.984C151.428 130.024 152.729 126.063 154.029 122.108C154.434 120.867 155.151 120.324 156.367 120.324C156.673 120.324 156.985 120.303 157.276 120.367C157.568 120.431 157.84 120.585 158.171 120.724C157.973 119.952 157.781 119.217 157.593 118.477C157.449 117.913 157.538 117.657 157.998 117.37C158.759 116.885 159.526 116.412 160.297 115.938C160.771 115.645 161.053 115.688 161.439 116.108C161.869 116.577 162.299 117.04 162.714 117.524C162.882 117.721 163.02 117.758 163.268 117.679C163.89 117.471 164.528 117.295 165.166 117.146C165.467 117.077 165.63 116.955 165.695 116.603C165.808 115.959 165.986 115.331 166.13 114.692C166.234 114.229 166.501 114 166.95 114.005C167.865 114.011 168.784 114.016 169.699 114.005C170.168 114 170.435 114.229 170.544 114.719C170.687 115.373 170.851 116.023 170.994 116.678C171.048 116.917 171.137 117.05 171.394 117.109C172.077 117.269 172.749 117.503 173.431 117.668C173.584 117.705 173.817 117.641 173.93 117.53C174.39 117.072 174.81 116.571 175.25 116.092C175.611 115.698 175.903 115.656 176.357 115.932C177.129 116.401 177.89 116.88 178.651 117.364C179.135 117.673 179.22 117.913 179.066 118.514C178.908 119.148 178.725 119.776 178.592 120.415C178.557 120.596 178.607 120.867 178.72 121C179.17 121.538 179.664 122.033 180.124 122.555C180.302 122.757 180.45 122.832 180.717 122.736C181.311 122.523 181.923 122.385 182.517 122.182C182.971 122.028 183.293 122.161 183.525 122.587C183.985 123.439 184.445 124.29 184.899 125.147C185.127 125.573 185.082 125.957 184.741 126.303C184.286 126.766 183.851 127.25 183.392 127.708C183.209 127.889 183.184 128.049 183.258 128.31C183.461 129.012 183.639 129.726 183.782 130.45C183.837 130.721 183.945 130.833 184.178 130.892C184.8 131.051 185.418 131.222 186.041 131.387C186.471 131.504 186.674 131.797 186.669 132.276C186.659 133.26 186.659 134.251 186.669 135.236C186.674 135.72 186.471 136.007 186.041 136.125C185.438 136.29 184.835 136.455 184.212 136.625C184.786 137.179 185.221 137.216 185.794 136.779C186.377 136.332 186.961 135.88 187.549 135.438C187.974 135.118 188.29 135.134 188.651 135.523C189.65 136.588 190.643 137.658 191.632 138.733C191.988 139.122 192.003 139.462 191.706 139.926C191.237 140.655 190.747 141.374 190.273 142.098C189.991 142.529 190.332 143.46 190.811 143.551C191.637 143.711 192.463 143.854 193.288 144.019C193.807 144.11 193.995 144.344 193.995 144.898C194 146.41 194 147.927 193.995 149.439C193.995 149.992 193.807 150.232 193.278 150.333C192.453 150.498 191.627 150.642 190.802 150.801C190.327 150.892 189.981 151.824 190.268 152.255C190.727 152.952 191.192 153.644 191.647 154.342C192.018 154.906 192.003 155.209 191.563 155.683C190.619 156.711 189.665 157.733 188.711 158.755C188.266 159.229 187.984 159.245 187.465 158.845C186.817 158.35 186.175 157.85 185.527 157.36C185.127 157.057 184.262 157.424 184.173 157.935C184.024 158.824 183.891 159.713 183.738 160.602C183.639 161.166 183.416 161.374 182.907 161.374C181.503 161.379 180.094 161.379 178.691 161.374C178.176 161.374 177.954 161.172 177.855 160.607C177.702 159.718 177.568 158.829 177.42 157.94C177.336 157.429 176.466 157.057 176.071 157.36C175.413 157.866 174.756 158.377 174.093 158.877C173.604 159.25 173.312 159.223 172.882 158.76C171.928 157.738 170.979 156.716 170.03 155.688C169.59 155.209 169.57 154.911 169.941 154.347C170.361 153.703 170.771 153.048 171.221 152.425C171.464 152.095 171.562 151.802 171.33 151.424C171.226 151.254 171.172 151.046 171.093 150.855C171.063 150.855 171.033 150.849 170.999 150.849ZM160.569 117.62C160.237 117.822 159.837 118.094 159.417 118.323C159.175 118.456 159.14 118.6 159.224 118.871C159.382 119.366 159.456 119.893 159.634 120.383C159.867 121.032 159.773 121.522 159.224 121.921C159.11 122.001 159.036 122.198 159.011 122.353C158.947 122.8 158.977 123.274 158.863 123.705C157.978 126.995 157.064 130.279 156.169 133.569C156.041 134.038 155.887 134.522 155.877 135.001C155.843 136.758 155.858 138.52 155.872 140.282C155.872 140.5 155.932 140.735 156.031 140.926C156.619 142.098 157.222 143.258 157.82 144.419C157.875 144.525 157.944 144.616 158.067 144.813C158.067 142.651 158.052 140.612 158.082 138.579C158.087 138.153 158.27 137.732 158.359 137.306C158.403 137.099 158.473 136.87 158.423 136.678C158.072 135.246 157.978 133.803 158.146 132.329C158.878 126.068 164.405 121.682 170.139 122.821C176.412 124.061 180.129 130.934 178.043 137.423C176.476 142.284 171.805 145.409 167.109 144.706C166.229 144.573 165.368 144.307 164.474 144.099C164.889 145.616 165.304 147.15 165.744 148.683C165.779 148.8 165.986 148.922 166.125 148.933C166.614 148.981 166.851 149.268 166.955 149.758C167.109 150.471 167.282 151.179 167.445 151.882C168.063 151.882 168.641 151.882 169.224 151.882C169.392 151.148 169.56 150.429 169.719 149.715C169.817 149.274 170.055 149.039 170.49 148.933C171.483 148.688 172.472 148.411 173.441 148.081C173.915 147.921 174.247 147.991 174.593 148.369C175.057 148.885 175.566 149.359 176.081 149.875C176.422 149.662 176.827 149.396 177.247 149.162C177.484 149.029 177.524 148.89 177.44 148.614C177.257 148.023 177.129 147.416 176.956 146.819C176.832 146.394 176.926 146.069 177.227 145.76C177.994 144.962 178.75 144.147 179.496 143.317C179.783 142.997 180.085 142.891 180.48 143.024C181.049 143.215 181.617 143.391 182.195 143.546C182.309 143.577 182.517 143.54 182.571 143.46C182.858 142.981 183.11 142.481 183.313 142.103C182.808 141.512 182.363 140.964 181.894 140.453C181.577 140.107 181.508 139.771 181.642 139.297C181.943 138.249 182.215 137.189 182.433 136.119C182.536 135.613 182.754 135.342 183.209 135.23C183.871 135.065 184.529 134.879 185.181 134.703C185.181 134.038 185.181 133.415 185.181 132.787C184.499 132.606 183.832 132.43 183.169 132.254C182.759 132.148 182.541 131.892 182.443 131.424C182.215 130.354 181.963 129.289 181.657 128.246C181.498 127.713 181.592 127.346 181.953 126.973C182.423 126.484 182.853 125.951 183.322 125.408C183.12 125.02 182.892 124.557 182.62 124.12C182.551 124.008 182.324 123.918 182.2 123.95C181.622 124.093 181.053 124.28 180.485 124.466C180.09 124.599 179.788 124.498 179.496 124.179C178.755 123.353 177.999 122.539 177.227 121.735C176.931 121.426 176.832 121.102 176.956 120.676C177.133 120.064 177.297 119.451 177.435 118.828C177.465 118.701 177.41 118.461 177.321 118.397C176.891 118.088 176.436 117.833 176.095 117.62C175.557 118.152 175.057 118.61 174.598 119.111C174.256 119.483 173.92 119.563 173.446 119.403C172.492 119.079 171.518 118.791 170.539 118.562C170.07 118.45 169.817 118.216 169.714 117.726C169.56 117.013 169.387 116.305 169.224 115.602C168.606 115.602 168.028 115.602 167.445 115.602C167.277 116.342 167.109 117.056 166.95 117.769C166.851 118.211 166.609 118.445 166.179 118.552C165.156 118.807 164.143 119.105 163.139 119.43C162.714 119.568 162.412 119.467 162.111 119.148C161.626 118.642 161.122 118.163 160.569 117.62ZM159.817 136.114C159.985 136.114 160.094 136.119 160.198 136.114C161.745 135.981 162.571 136.912 162.887 138.265C163.139 139.345 163.446 140.41 163.762 141.475C163.831 141.709 164.014 141.97 164.212 142.082C165.912 143.077 167.741 143.428 169.649 143.109C174.326 142.321 177.509 137.86 177.059 132.765C176.649 128.081 172.937 124.344 168.552 124.29C165.403 124.248 162.862 125.637 161.068 128.437C159.585 130.758 159.209 133.335 159.817 136.114ZM164.667 155.066C164.667 153.729 164.667 152.452 164.667 151.169C164.667 150.892 164.696 150.599 164.627 150.338C163.544 146.34 162.452 142.342 161.36 138.344C161.251 137.94 160.999 137.716 160.598 137.684C159.852 137.631 159.535 137.951 159.535 138.776C159.535 141.752 159.53 144.733 159.54 147.709C159.54 148.182 159.456 148.582 158.992 148.709C158.532 148.837 158.265 148.544 158.048 148.129C156.906 145.899 155.749 143.679 154.612 141.448C154.488 141.203 154.419 140.894 154.414 140.612C154.399 138.669 154.399 136.731 154.409 134.788C154.409 134.512 154.444 134.229 154.518 133.969C155.077 131.903 155.645 129.848 156.209 127.788C156.634 126.228 157.059 124.674 157.484 123.114C157.598 122.693 157.613 122.289 157.217 122.023C156.565 121.581 155.655 121.932 155.398 122.72C154.128 126.585 152.857 130.45 151.592 134.32C151.513 134.559 151.473 134.831 151.473 135.086C151.463 138.675 151.468 142.257 151.473 145.845C151.473 146.053 151.493 146.276 151.557 146.473C152.397 149.215 153.253 151.951 154.093 154.693C154.182 154.975 154.291 155.076 154.572 155.071C155.67 155.055 156.772 155.066 157.87 155.066C160.109 155.066 162.353 155.066 164.667 155.066ZM183.565 138.169C183.476 138.478 183.441 138.749 183.327 138.973C183.11 139.404 183.273 139.665 183.56 139.979C184.361 140.852 185.142 141.741 185.888 142.667C186.763 143.753 187.238 145.047 187.376 146.468C187.658 149.306 186.274 152.09 183.926 153.447C181.587 154.794 178.671 154.501 176.634 152.665C175.833 151.941 175.087 151.148 174.321 150.381C174.163 150.227 174.034 150.035 173.866 149.891C173.777 149.817 173.619 149.753 173.515 149.785C173.164 149.881 172.823 150.014 172.447 150.147C172.596 150.525 172.694 150.897 172.872 151.211C173.228 151.84 173.129 152.367 172.719 152.92C172.254 153.543 171.849 154.225 171.473 154.794C172.24 155.619 172.971 156.407 173.718 157.211C174.365 156.716 175.067 156.189 175.759 155.646C176.076 155.396 176.387 155.38 176.743 155.555C177.198 155.779 177.667 155.981 178.137 156.168C178.513 156.317 178.735 156.562 178.799 157.014C178.928 157.935 179.091 158.851 179.239 159.782C180.292 159.782 181.315 159.782 182.363 159.782C182.512 158.851 182.675 157.935 182.803 157.009C182.868 156.556 183.095 156.317 183.471 156.168C183.901 155.997 184.336 155.843 184.741 155.619C185.191 155.364 185.562 155.406 185.967 155.736C186.62 156.269 187.302 156.764 187.93 157.243C188.691 156.423 189.413 155.651 190.164 154.842C189.709 154.15 189.249 153.421 188.755 152.713C188.463 152.297 188.419 151.909 188.641 151.435C188.849 150.998 189.002 150.535 189.155 150.072C189.294 149.646 189.521 149.391 189.961 149.322C190.816 149.188 191.667 149.013 192.517 148.853C192.517 147.709 192.517 146.607 192.517 145.489C191.647 145.324 190.792 145.153 189.937 145.015C189.516 144.946 189.299 144.69 189.16 144.285C189.017 143.854 188.889 143.407 188.686 143.008C188.419 142.476 188.444 142.039 188.79 141.56C189.284 140.878 189.724 140.154 190.149 139.505C189.378 138.68 188.656 137.908 187.905 137.109C187.262 137.604 186.57 138.116 185.898 138.653C185.537 138.941 185.191 138.973 184.791 138.754C184.405 138.531 183.995 138.366 183.565 138.169ZM184.395 143.295C184.108 143.828 183.841 144.323 183.575 144.818C183.268 145.377 183.055 145.473 182.482 145.302C181.879 145.127 181.286 144.919 180.678 144.77C180.525 144.733 180.287 144.802 180.174 144.919C179.659 145.435 179.165 145.973 178.691 146.532C178.592 146.644 178.542 146.883 178.572 147.032C178.715 147.687 178.898 148.331 179.061 148.976C179.22 149.593 179.131 149.827 178.616 150.152C178.152 150.45 177.682 150.743 177.208 151.041C179.032 153.186 182.428 153.17 184.4 151.046C186.372 148.922 186.392 145.292 184.395 143.295ZM151.616 159.782C156.916 159.782 162.16 159.782 167.455 159.782C167.291 158.723 167.128 157.695 166.97 156.663C161.997 156.663 157.074 156.663 152.101 156.663C151.938 157.695 151.779 158.723 151.616 159.782Z" fill="#025FBE"/>
</g>
<defs>
<clipPath id="clip0_205_695">
<rect width="44" height="47.3846" fill="white" transform="translate(150 114)"/>
</clipPath>
</defs>
</svg>
