<svg width="209" height="81" viewBox="0 0 209 81" fill="none" xmlns="http://www.w3.org/2000/svg">
<path d="M4.67065 79.8894V69.0498H10.4283V70.3261H5.72184V73.6397H10.1297V74.916H5.72184V78.6071H10.6135V79.8834H4.67065V79.8894Z" fill="white"/>
<path d="M11.5452 76.6358V75.2996H14.5494V76.6358H11.5452Z" fill="white"/>
<path d="M15.7083 79.8894V69.0498H18.7006C19.3038 69.0498 19.7876 69.1517 20.14 69.3614C20.4924 69.5711 20.785 69.8947 21.006 70.3381C21.233 70.7815 21.3464 71.2729 21.3464 71.8061C21.3464 72.3035 21.2509 72.7529 21.0538 73.1484C20.8567 73.5498 20.5879 73.8674 20.2296 74.1071C20.6894 74.2929 21.0538 74.6164 21.3226 75.0658C21.5913 75.5152 21.7227 76.0725 21.7227 76.7316C21.7227 77.3848 21.6033 77.966 21.3644 78.4573C21.1255 78.9547 20.8029 79.3142 20.4028 79.5359C20.0026 79.7576 19.4471 79.8715 18.7483 79.8715H15.7083V79.8894ZM16.7594 73.6038H18.4855C18.9395 73.6038 19.256 73.5678 19.4471 73.5019C19.7219 73.4 19.9309 73.2263 20.0802 72.9806C20.2296 72.7349 20.3012 72.4054 20.3012 71.9859C20.3012 71.5964 20.2355 71.2729 20.0982 71.0152C19.9608 70.7575 19.7816 70.5778 19.5606 70.4819C19.3396 70.386 18.9335 70.3321 18.3541 70.3321H16.7535V73.6038H16.7594ZM16.7594 78.6131H18.7424C19.1784 78.6131 19.5009 78.5712 19.7099 78.4813C20.0086 78.3555 20.2415 78.1398 20.3968 77.8521C20.5521 77.5585 20.6297 77.193 20.6297 76.7496C20.6297 76.3421 20.5521 75.9946 20.4028 75.713C20.2534 75.4313 20.0504 75.2216 19.7936 75.0898C19.5367 74.958 19.1425 74.8921 18.593 74.8921H16.7475V78.6131H16.7594Z" fill="white"/>
<path d="M26.7935 79.8895V78.739C26.5665 79.1824 26.3037 79.518 25.9991 79.7397C25.6945 79.9614 25.3481 80.0752 24.9658 80.0752C24.5119 80.0752 24.1237 79.9374 23.8012 79.6678C23.4787 79.3981 23.2636 79.0506 23.1561 78.6312C23.0486 78.2117 22.9949 77.6425 22.9949 76.9174V72.0519H23.9684V76.4081C23.9684 77.217 24.0043 77.7563 24.0759 78.032C24.1476 78.3076 24.285 78.5233 24.4821 78.6911C24.6792 78.8588 24.9061 78.9367 25.157 78.9367C25.6228 78.9367 26.0111 78.721 26.3097 78.2956C26.5665 77.9241 26.6919 77.247 26.6919 76.2643V72.0579H27.6715V79.9075H26.7935V79.8895Z" fill="white"/>
<path d="M28.8123 77.5406L29.7858 77.3309C29.8455 77.8881 30.0008 78.2956 30.2576 78.5652C30.5145 78.8349 30.8549 78.9727 31.273 78.9727C31.6971 78.9727 32.0255 78.8528 32.2525 78.6192C32.4854 78.3855 32.5989 78.0859 32.5989 77.7263C32.5989 77.4147 32.4974 77.1751 32.3003 77.0013C32.1629 76.8815 31.8344 76.7376 31.3088 76.5579C30.5503 76.2942 30.0426 76.0725 29.7858 75.8928C29.529 75.713 29.3319 75.4673 29.1885 75.1617C29.0452 74.8561 28.9735 74.5086 28.9735 74.1191C28.9735 73.448 29.1646 72.9027 29.5529 72.4833C29.9351 72.0638 30.4667 71.8541 31.1476 71.8541C31.5776 71.8541 31.9539 71.938 32.2764 72.1118C32.5989 72.2856 32.8498 72.5132 33.023 72.8069C33.1962 73.1005 33.3156 73.5139 33.3813 74.0532L32.4257 74.233C32.3361 73.3761 31.918 72.9447 31.1715 72.9447C30.7474 72.9447 30.4308 73.0406 30.2218 73.2263C30.0128 73.4121 29.9112 73.6577 29.9112 73.9513C29.9112 74.239 30.0128 74.4667 30.2099 74.6344C30.3293 74.7303 30.6817 74.8921 31.273 75.1078C32.0793 75.3954 32.6049 75.6231 32.8438 75.7909C33.0827 75.9587 33.2679 76.1924 33.3993 76.486C33.5307 76.7796 33.5964 77.1271 33.5964 77.5346C33.5964 78.2836 33.3813 78.8948 32.9573 79.3562C32.5332 79.8176 31.9479 80.0513 31.2133 80.0513C29.8336 80.0692 29.0332 79.2244 28.8123 77.5406Z" fill="white"/>
<path d="M34.7429 70.5838V69.0558H35.7165V70.5838H34.7429ZM34.7429 79.8894V72.0398H35.7165V79.8894H34.7429Z" fill="white"/>
<path d="M37.1978 79.8894V72.0399H38.0817V73.1484C38.2908 72.717 38.5535 72.3934 38.8582 72.1837C39.1628 71.968 39.5151 71.8661 39.9153 71.8661C40.2259 71.8661 40.5126 71.932 40.7694 72.0698C41.0322 72.2076 41.2412 72.3814 41.4025 72.6031C41.5638 72.8248 41.6832 73.1064 41.7609 73.454C41.8385 73.8015 41.8803 74.3408 41.8803 75.0658V79.8954H40.9127V75.1138C40.9127 74.5385 40.8709 74.1131 40.7813 73.8495C40.6918 73.5858 40.5544 73.3761 40.3692 73.2323C40.1841 73.0885 39.9631 73.0166 39.7182 73.0166C39.2523 73.0166 38.8761 73.2143 38.5954 73.6038C38.3146 73.9933 38.1773 74.6644 38.1773 75.6111V79.9014H37.1978V79.8894Z" fill="white"/>
<path d="M47.3155 77.3608L48.3249 77.5286C48.1576 78.3675 47.853 78.9966 47.4111 79.4221C46.9691 79.8475 46.4256 80.0632 45.7805 80.0632C44.9623 80.0632 44.2993 79.7157 43.7976 79.0266C43.2899 78.3315 43.0391 77.3368 43.0391 76.0306C43.0391 74.6764 43.2959 73.6397 43.8036 72.9267C44.3112 72.2136 44.9623 71.8601 45.7447 71.8601C46.4913 71.8601 47.1124 72.2076 47.6141 72.9087C48.1158 73.6098 48.3607 74.6224 48.3607 75.9467L48.3547 76.3002H44.0484C44.0903 77.181 44.2694 77.8462 44.5979 78.2956C44.9264 78.745 45.3206 78.9667 45.7925 78.9667C46.5211 78.9727 47.0288 78.4334 47.3155 77.3608ZM44.1022 75.2097H47.3215C47.2797 74.5326 47.1483 74.0232 46.9273 73.6877C46.6167 73.2023 46.2165 72.9567 45.7268 72.9567C45.2908 72.9567 44.9145 73.1604 44.6099 73.5678C44.3053 73.9753 44.138 74.5206 44.1022 75.2097Z" fill="white"/>
<path d="M49.1729 77.5406L50.1464 77.3309C50.2061 77.8881 50.3614 78.2956 50.6182 78.5652C50.8751 78.8349 51.2155 78.9727 51.6396 78.9727C52.0636 78.9727 52.3921 78.8528 52.6191 78.6192C52.852 78.3855 52.9655 78.0859 52.9655 77.7263C52.9655 77.4147 52.864 77.1751 52.6669 77.0013C52.5295 76.8815 52.201 76.7376 51.6754 76.5579C50.9169 76.2942 50.4092 76.0725 50.1524 75.8928C49.8955 75.713 49.6984 75.4673 49.5551 75.1617C49.4118 74.8561 49.3461 74.5086 49.3461 74.1191C49.3461 73.448 49.5372 72.9027 49.9194 72.4833C50.3017 72.0638 50.8332 71.8541 51.5141 71.8541C51.9442 71.8541 52.3204 71.938 52.643 72.1118C52.9655 72.2856 53.2163 72.5132 53.3895 72.8069C53.5628 73.1005 53.6822 73.5139 53.7479 74.0532L52.7923 74.233C52.7027 73.3761 52.2846 72.9447 51.538 72.9447C51.114 72.9447 50.7974 73.0406 50.5884 73.2263C50.3793 73.4181 50.2778 73.6577 50.2778 73.9513C50.2778 74.239 50.3793 74.4667 50.5764 74.6344C50.6959 74.7303 51.0483 74.8921 51.6396 75.1078C52.4459 75.3954 52.9715 75.6231 53.2104 75.7909C53.4493 75.9587 53.6344 76.1924 53.7658 76.486C53.8972 76.7796 53.9629 77.1271 53.9629 77.5346C53.9629 78.2836 53.7479 78.8948 53.3238 79.3562C52.8998 79.8176 52.3145 80.0513 51.5798 80.0513C50.1942 80.0692 49.3938 79.2244 49.1729 77.5406Z" fill="white"/>
<path d="M54.7275 77.5406L55.7011 77.3309C55.7608 77.8881 55.9161 78.2956 56.1729 78.5652C56.4298 78.8349 56.7702 78.9727 57.1943 78.9727C57.6183 78.9727 57.9468 78.8528 58.1738 78.6192C58.4067 78.3855 58.5202 78.0859 58.5202 77.7263C58.5202 77.4147 58.4187 77.1751 58.2216 77.0013C58.0842 76.8815 57.7557 76.7376 57.2301 76.5579C56.4716 76.2942 55.9639 76.0725 55.7071 75.8928C55.4502 75.713 55.2531 75.4673 55.1098 75.1617C54.9664 74.8561 54.9007 74.5086 54.9007 74.1191C54.9007 73.448 55.0919 72.9027 55.4741 72.4833C55.8564 72.0638 56.3879 71.8541 57.0688 71.8541C57.4989 71.8541 57.8751 71.938 58.1977 72.1118C58.5202 72.2856 58.771 72.5132 58.9442 72.8069C59.1175 73.1005 59.2369 73.5139 59.3026 74.0532L58.347 74.233C58.2574 73.3761 57.8393 72.9447 57.0927 72.9447C56.6687 72.9447 56.3521 73.0406 56.1431 73.2263C55.934 73.4121 55.8325 73.6577 55.8325 73.9513C55.8325 74.239 55.934 74.4667 56.1311 74.6344C56.2506 74.7303 56.603 74.8921 57.1943 75.1078C58.0006 75.3954 58.5262 75.6231 58.7651 75.7909C59.004 75.9587 59.1891 76.1924 59.3205 76.486C59.4519 76.7796 59.5176 77.1271 59.5176 77.5346C59.5176 78.2836 59.3026 78.8948 58.8785 79.3562C58.4545 79.8176 57.8692 80.0513 57.1345 80.0513C55.7489 80.0692 54.9426 79.2244 54.7275 77.5406Z" fill="white"/>
<path d="M63.8657 79.8894V69.0498H66.87C67.5747 69.0498 68.1003 69.1217 68.4348 69.2595C68.8947 69.4453 69.259 69.7928 69.5338 70.3021C69.8085 70.8115 69.9459 71.4346 69.9459 72.1717C69.9459 73.1484 69.7249 73.9453 69.2769 74.5565C68.829 75.1737 68.0585 75.4793 66.9655 75.4793H64.9229V79.8834H63.8657V79.8894ZM64.9229 74.203H66.9835C67.6345 74.203 68.1063 74.0412 68.4049 73.7116C68.7036 73.3821 68.8529 72.8907 68.8529 72.2316C68.8529 71.8002 68.7812 71.4346 68.6319 71.129C68.4826 70.8235 68.3034 70.6137 68.0944 70.4999C67.8853 70.386 67.5031 70.3321 66.9596 70.3321H64.9169V74.203H64.9229Z" fill="white"/>
<path d="M74.8973 78.9187C74.5688 79.2962 74.2284 79.5839 73.876 79.7756C73.5236 79.9674 73.1533 80.0632 72.777 80.0632C72.1738 80.0632 71.6959 79.8595 71.3376 79.458C70.9792 79.0566 70.8 78.5113 70.8 77.8222C70.8 77.3668 70.8837 76.9653 71.0509 76.6178C71.2181 76.2703 71.4511 75.9946 71.7378 75.7969C72.0244 75.5992 72.4724 75.4553 73.0637 75.3595C73.8581 75.2276 74.4434 75.0719 74.8137 74.8921L74.8197 74.5505C74.8197 74.0113 74.736 73.6338 74.5628 73.4181C74.3179 73.1005 73.9476 72.9447 73.44 72.9447C72.986 72.9447 72.6456 73.0525 72.4186 73.2623C72.1917 73.472 72.0304 73.8675 71.9229 74.4487L70.9613 74.2689C71.0987 73.424 71.3734 72.8129 71.7915 72.4294C72.2096 72.0459 72.8069 71.8541 73.5833 71.8541C74.1865 71.8541 74.6644 71.98 75.0108 72.2376C75.3572 72.4893 75.5722 72.8069 75.6618 73.1784C75.7514 73.5559 75.7992 74.1011 75.7992 74.8202V76.5938C75.7992 77.8342 75.8171 78.6191 75.8589 78.9427C75.9007 79.2663 75.9843 79.5779 76.1097 79.8835H75.0884C74.9988 79.6198 74.9331 79.2962 74.8973 78.9187ZM74.8197 75.9527C74.4613 76.1504 73.9297 76.3182 73.2249 76.456C72.8128 76.5339 72.5262 76.6238 72.3649 76.7257C72.2036 76.8275 72.0722 76.9713 71.9826 77.1571C71.893 77.3428 71.8453 77.5526 71.8453 77.7982C71.8453 78.1757 71.9468 78.4753 72.1558 78.697C72.3649 78.9188 72.6516 79.0326 73.0159 79.0326C73.3623 79.0326 73.6848 78.9307 73.9656 78.727C74.2522 78.5233 74.4613 78.2536 74.6046 77.9181C74.748 77.5825 74.8197 77.0912 74.8197 76.444V75.9527V75.9527Z" fill="white"/>
<path d="M77.3162 79.8894V72.0399H78.2001V73.2323C78.4271 72.681 78.6302 72.3155 78.8213 72.1357C79.0124 71.956 79.2214 71.8661 79.4544 71.8661C79.7829 71.8661 80.1173 72.0099 80.4518 72.2975L80.1233 73.5319C79.8784 73.3401 79.6455 73.2443 79.4126 73.2443C79.2035 73.2443 79.0124 73.3281 78.8452 73.4899C78.6779 73.6517 78.5525 73.8794 78.4808 74.173C78.3554 74.6824 78.2957 75.2216 78.2957 75.7909V79.9014H77.3162V79.8894Z" fill="white"/>
<path d="M83.1814 78.6969L83.3128 79.8714C83.044 79.9493 82.7991 79.9912 82.5841 79.9912C82.2437 79.9912 81.9689 79.9133 81.7599 79.7635C81.5508 79.6137 81.4075 79.41 81.3358 79.1463C81.2582 78.8827 81.2223 78.3674 81.2223 77.5884V73.0704H80.5056V72.0338H81.2223V70.0924L82.1959 69.2954V72.0398H83.1814V73.0764H82.1959V77.6663C82.1959 78.0917 82.2257 78.3614 82.2795 78.4872C82.3631 78.667 82.5184 78.7509 82.7513 78.7509C82.8589 78.7509 83.0022 78.7329 83.1814 78.6969Z" fill="white"/>
<path d="M84.0891 79.8894V72.0399H84.9731V73.1484C85.1821 72.717 85.4449 72.3934 85.7495 72.1837C86.0541 71.968 86.4065 71.8661 86.8067 71.8661C87.1173 71.8661 87.4039 71.932 87.6608 72.0698C87.9236 72.2076 88.1326 72.3814 88.2939 72.6031C88.4551 72.8248 88.5746 73.1064 88.6522 73.454C88.7299 73.8015 88.7717 74.3408 88.7717 75.0658V79.8954H87.7981V75.1138C87.7981 74.5385 87.7563 74.1131 87.6667 73.8495C87.5771 73.5858 87.4398 73.3761 87.2546 73.2323C87.0695 73.0885 86.8485 73.0166 86.6036 73.0166C86.1377 73.0166 85.7615 73.2143 85.4807 73.6038C85.2 73.9933 85.0627 74.6644 85.0627 75.6111V79.9014H84.0891V79.8894Z" fill="white"/>
<path d="M94.2068 77.3608L95.2162 77.5286C95.049 78.3675 94.7444 78.9966 94.3024 79.4221C93.8604 79.8475 93.3169 80.0632 92.6719 80.0632C91.8536 80.0632 91.1906 79.7157 90.6889 79.0266C90.1813 78.3315 89.9304 77.3368 89.9304 76.0306C89.9304 74.6764 90.1872 73.6397 90.6949 72.9267C91.2026 72.2136 91.8536 71.8601 92.636 71.8601C93.3826 71.8601 94.0038 72.2076 94.5055 72.9087C95.0072 73.6098 95.2521 74.6224 95.2521 75.9467L95.2461 76.3002H90.9398C90.9816 77.181 91.1608 77.8462 91.4893 78.2956C91.8178 78.745 92.212 78.9667 92.6838 78.9667C93.4065 78.9727 93.9201 78.4334 94.2068 77.3608ZM90.9936 75.2097H94.2128C94.171 74.5326 94.0396 74.0232 93.8186 73.6877C93.508 73.2023 93.1079 72.9567 92.6181 72.9567C92.1821 72.9567 91.8058 73.1604 91.5012 73.5678C91.1906 73.9753 91.0234 74.5206 90.9936 75.2097Z" fill="white"/>
<path d="M96.4407 79.8894V72.0399H97.3246V73.2323C97.5516 72.681 97.7547 72.3155 97.9458 72.1357C98.1369 71.956 98.346 71.8661 98.5789 71.8661C98.9074 71.8661 99.2419 72.0099 99.5763 72.2975L99.2478 73.5319C99.0029 73.3401 98.77 73.2443 98.5371 73.2443C98.328 73.2443 98.1369 73.3281 97.9697 73.4899C97.8024 73.6517 97.677 73.8794 97.6053 74.173C97.4799 74.6824 97.4202 75.2216 97.4202 75.7909V79.9014H96.4407V79.8894Z" fill="white"/>
<path d="M6.51617 41.9058C6.52812 42.529 6.70132 43.0862 7.02982 43.5896C7.35832 44.0869 7.79432 44.5603 8.33186 45.0037C8.8694 45.4471 9.48458 45.8845 10.1714 46.304C10.8583 46.7294 11.5631 47.1728 12.2858 47.6402C13.0085 48.1076 13.7132 48.6169 14.4001 49.1622C15.0869 49.7134 15.7021 50.3366 16.2516 51.0317C16.8011 51.7328 17.2371 52.5177 17.5775 53.3926C17.912 54.2674 18.0972 55.2621 18.127 56.3766V56.5564C18.127 57.7728 17.9837 58.8334 17.7089 59.7382C17.4282 60.643 17.0579 61.4219 16.5921 62.0751C16.1322 62.7282 15.5886 63.2675 14.9735 63.6869C14.3583 64.1064 13.7073 64.4479 13.0323 64.6996C12.3515 64.9512 11.6646 65.131 10.9718 65.2329C10.2789 65.3347 9.62196 65.3947 9.00677 65.4126H8.79773C7.60917 65.4126 6.56395 65.2868 5.66805 65.0351C4.77216 64.7835 4.00168 64.4479 3.35663 64.0225C2.71159 63.597 2.17405 63.1117 1.74999 62.5664C1.31996 62.0151 0.979516 61.4519 0.728665 60.8647C0.477813 60.2774 0.29266 59.6962 0.17918 59.115C0.053754 58.5397 0 57.9945 0 57.4911C0 56.9698 0.0836172 56.5204 0.250852 56.1309C0.418086 55.7474 0.639075 55.4299 0.913817 55.1842C1.18856 54.9385 1.50511 54.7588 1.8575 54.6389C2.21586 54.5191 2.59213 54.4592 2.98036 54.4592C3.34469 54.4592 3.72097 54.5191 4.10322 54.6389C4.48547 54.7588 4.83785 54.9385 5.15441 55.1842C5.47096 55.4299 5.72778 55.7415 5.93085 56.119C6.13392 56.4965 6.24143 56.9399 6.25935 57.4432C6.28921 58.5577 6.52215 59.3187 6.97607 59.7262C7.42402 60.1336 8.06906 60.3374 8.91121 60.3374C9.3293 60.3254 9.72349 60.2655 10.0759 60.1696C10.4342 60.0737 10.7388 59.8999 10.9897 59.6603C11.2405 59.4206 11.4436 59.091 11.587 58.6776C11.7363 58.2701 11.8079 57.7548 11.8079 57.1316C11.8079 56.3586 11.6407 55.6636 11.3122 55.0404C10.9837 54.4172 10.5537 53.836 10.0221 53.3027C9.49056 52.7694 8.88135 52.2601 8.19449 51.7807C7.50763 51.3013 6.80883 50.816 6.09211 50.3306C5.37539 49.8513 4.68257 49.3419 4.00168 48.8146C3.3208 48.2873 2.71159 47.7121 2.1621 47.0889C1.61859 46.4658 1.17661 45.7767 0.848118 45.0157C0.519621 44.2607 0.346414 43.3978 0.334469 42.4331V42.0736C0.346414 40.4857 0.549485 39.1614 0.931735 38.1128C1.31399 37.0582 1.88139 36.2193 2.63394 35.5962C3.3865 34.973 4.30629 34.5296 5.39928 34.2719C6.49228 34.0143 7.74654 33.8824 9.16206 33.8824H9.70557C10.9957 33.8824 12.0887 34.0322 12.9846 34.3259C13.8805 34.6255 14.627 35.003 15.2243 35.4644C15.8216 35.9257 16.2874 36.447 16.6339 37.0223C16.9743 37.6035 17.2311 38.1728 17.3984 38.736C17.5656 39.2993 17.6731 39.8266 17.7149 40.3179C17.7567 40.8093 17.7746 41.1987 17.7746 41.4983C17.7746 41.9418 17.691 42.3492 17.5298 42.7087C17.3685 43.0743 17.1535 43.3799 16.8787 43.6315C16.604 43.8832 16.2815 44.0809 15.9112 44.2187C15.5409 44.3566 15.1347 44.4285 14.7047 44.4285C14.3702 44.4285 14.0298 44.3566 13.6953 44.2187C13.3608 44.0809 13.0562 43.8952 12.7934 43.6735C12.5306 43.4518 12.3097 43.1941 12.1424 42.9065C11.9752 42.6189 11.8916 42.3253 11.8916 42.0256C11.8916 40.8093 11.6885 39.9644 11.2704 39.485C10.8583 39.0116 10.2491 38.772 9.45472 38.772C9.07844 38.772 8.70814 38.7959 8.34978 38.8379C7.99142 38.8798 7.67487 39.0057 7.4061 39.2034C7.13136 39.4011 6.91634 39.7127 6.75508 40.1262C6.59382 40.5636 6.51617 41.1448 6.51617 41.9058Z" fill="white"/>
<path d="M42.2805 42.8825C42.2805 41.4564 42.4776 40.246 42.8718 39.2393C43.266 38.2387 43.7677 37.3998 44.3769 36.7347C44.9861 36.0636 45.661 35.5422 46.3957 35.1647C47.1303 34.7872 47.847 34.4996 48.5399 34.3079C49.2327 34.1161 49.8598 33.9963 50.4213 33.9484C50.9827 33.9064 51.3948 33.8824 51.6636 33.8824H52.3803C52.6431 33.8824 53.0612 33.9064 53.6226 33.9484C54.184 33.9903 54.8052 34.1101 55.492 34.3079C56.1789 34.4996 56.8896 34.7872 57.6243 35.1647C58.3589 35.5422 59.0279 36.0636 59.6192 36.7347C60.2164 37.4058 60.7062 38.2387 61.0884 39.2393C61.4766 40.24 61.6678 41.4564 61.6678 42.8825V56.1968C61.6678 57.6649 61.4766 58.9112 61.0884 59.9359C60.7002 60.9605 60.2104 61.8114 59.6192 62.4945C59.0219 63.1776 58.3589 63.7169 57.6243 64.1063C56.8896 64.5018 56.1789 64.7954 55.492 64.9872C54.8052 65.1789 54.184 65.2988 53.6226 65.3407C53.0612 65.3886 52.6491 65.4066 52.3803 65.4066H51.6636C51.4008 65.4066 50.9827 65.3826 50.4213 65.3407C49.8598 65.2988 49.2327 65.1789 48.5399 64.9872C47.847 64.7954 47.1303 64.5018 46.3957 64.1063C45.661 63.7169 44.9861 63.1776 44.3769 62.4945C43.7677 61.8114 43.266 60.9605 42.8718 59.9359C42.4776 58.9112 42.2805 57.6649 42.2805 56.1968V42.8825ZM49.2566 57.0477C49.2864 57.599 49.4059 58.0783 49.6149 58.4978C49.8001 58.8693 50.0748 59.2048 50.4451 59.4985C50.8154 59.7981 51.347 59.9419 52.0339 59.9419C52.7088 59.9419 53.2224 59.7921 53.5868 59.4985C53.9511 59.2048 54.2258 58.8693 54.405 58.4978C54.6021 58.0843 54.7216 57.599 54.7634 57.0477V42.529C54.7216 41.9957 54.6021 41.5103 54.405 41.0789C54.2199 40.7254 53.9511 40.3958 53.5868 40.0902C53.2224 39.7846 52.7028 39.6348 52.0339 39.6348C51.347 39.6348 50.8154 39.7846 50.4451 40.0902C50.0748 40.3958 49.7941 40.7254 49.6149 41.0789C49.4059 41.5103 49.2864 41.9897 49.2566 42.529V57.0477Z" fill="white"/>
<path d="M92.845 39.1914C92.845 38.5503 92.8689 37.9271 92.9166 37.3219C92.9644 36.7107 93.0898 36.1714 93.281 35.6861C93.4721 35.2067 93.7588 34.8172 94.1291 34.5176C94.4994 34.224 95.019 34.0742 95.676 34.0742C96.3868 34.0742 96.9362 34.224 97.3364 34.5176C97.7366 34.8172 98.0292 35.2067 98.2144 35.6861C98.3996 36.1714 98.513 36.7167 98.5608 37.3219C98.6026 37.9331 98.6265 38.5563 98.6265 39.1914V58.6956H102.282C102.789 58.6956 103.291 58.7255 103.793 58.7854C104.289 58.8454 104.737 58.9832 105.125 59.2109C105.519 59.4326 105.83 59.7621 106.068 60.1936C106.307 60.625 106.421 61.2122 106.421 61.9552C106.421 62.7102 106.301 63.3094 106.068 63.7469C105.836 64.1843 105.519 64.5138 105.125 64.7355C104.731 64.9572 104.289 65.1011 103.793 65.155C103.297 65.2149 102.789 65.2449 102.282 65.2449H96.984C96.327 65.2449 95.7417 65.2149 95.234 65.155C94.7264 65.0951 94.2963 64.9572 93.938 64.7355C93.5856 64.5138 93.3108 64.1843 93.1257 63.7469C92.9405 63.3094 92.845 62.7102 92.845 61.9552V39.1914V39.1914Z" fill="white"/>
<path d="M115.941 41.9058C115.953 42.529 116.126 43.0862 116.455 43.5896C116.783 44.0869 117.219 44.5603 117.757 45.0037C118.294 45.4471 118.91 45.8845 119.597 46.304C120.283 46.7294 120.988 47.1728 121.711 47.6402C122.434 48.1076 123.138 48.6169 123.825 49.1622C124.512 49.7134 125.127 50.3366 125.677 51.0317C126.226 51.7328 126.662 52.5177 127.003 53.3926C127.337 54.2674 127.522 55.2621 127.552 56.3766V56.5564C127.552 57.7728 127.409 58.8333 127.134 59.7381C126.853 60.6429 126.483 61.4219 126.017 62.075C125.557 62.7282 125.014 63.2675 124.399 63.6869C123.783 64.1064 123.132 64.4479 122.457 64.6996C121.777 64.9512 121.09 65.131 120.397 65.2329C119.704 65.3347 119.047 65.3946 118.432 65.4126H118.223C117.034 65.4126 115.989 65.2868 115.093 65.0351C114.197 64.7835 113.427 64.4479 112.782 64.0225C112.137 63.597 111.599 63.1117 111.175 62.5664C110.745 62.0151 110.405 61.4519 110.154 60.8647C109.903 60.2774 109.718 59.6962 109.604 59.115C109.491 58.5337 109.437 57.9945 109.437 57.4911C109.437 56.9698 109.521 56.5204 109.688 56.1309C109.855 55.7474 110.076 55.4299 110.351 55.1842C110.626 54.9385 110.942 54.7588 111.295 54.6389C111.653 54.5191 112.029 54.4592 112.417 54.4592C112.782 54.4592 113.158 54.5191 113.54 54.6389C113.922 54.7588 114.275 54.9385 114.591 55.1842C114.908 55.4299 115.165 55.7414 115.368 56.1189C115.571 56.4964 115.678 56.9399 115.696 57.4432C115.726 58.5577 115.959 59.3187 116.413 59.7262C116.861 60.1336 117.506 60.3374 118.348 60.3374C118.766 60.3254 119.161 60.2654 119.513 60.1696C119.871 60.0737 120.176 59.8999 120.427 59.6603C120.678 59.4146 120.881 59.091 121.024 58.6776C121.173 58.2701 121.245 57.7548 121.245 57.1316C121.245 56.3586 121.078 55.6636 120.749 55.0404C120.421 54.4172 119.991 53.836 119.459 53.3027C118.928 52.7694 118.318 52.2601 117.631 51.7807C116.945 51.3013 116.246 50.816 115.529 50.3306C114.812 49.8513 114.12 49.3419 113.439 48.8146C112.758 48.2873 112.149 47.7121 111.599 47.0889C111.056 46.4658 110.614 45.7767 110.285 45.0157C109.957 44.2607 109.783 43.3978 109.771 42.4331V42.0736C109.783 40.4857 109.986 39.1614 110.369 38.1128C110.751 37.0582 111.318 36.2193 112.071 35.5962C112.824 34.973 113.743 34.5296 114.836 34.2719C115.929 34.0143 117.184 33.8824 118.599 33.8824H119.143C120.433 33.8824 121.526 34.0322 122.422 34.3259C123.317 34.6255 124.064 35.003 124.661 35.4643C125.259 35.9257 125.724 36.447 126.071 37.0223C126.411 37.6035 126.668 38.1728 126.835 38.736C127.003 39.2993 127.11 39.8266 127.152 40.3179C127.194 40.8093 127.212 41.1987 127.212 41.4983C127.212 41.9418 127.128 42.3492 126.967 42.7087C126.806 43.0743 126.59 43.3798 126.316 43.6315C126.041 43.8832 125.718 44.0809 125.348 44.2187C124.978 44.3566 124.572 44.4285 124.142 44.4285C123.807 44.4285 123.467 44.3566 123.132 44.2187C122.798 44.0809 122.493 43.8952 122.23 43.6735C121.968 43.4518 121.747 43.1941 121.579 42.9065C121.412 42.6189 121.329 42.3252 121.329 42.0256C121.329 40.8093 121.126 39.9644 120.707 39.485C120.295 39.0116 119.686 38.772 118.892 38.772C118.515 38.772 118.145 38.7959 117.787 38.8379C117.428 38.8798 117.112 39.0057 116.843 39.2034C116.568 39.4011 116.353 39.7127 116.192 40.1262C116.025 40.5636 115.941 41.1448 115.941 41.9058Z" fill="white"/>
<path d="M131.028 42.8825C131.028 41.4564 131.225 40.246 131.62 39.2393C132.014 38.2387 132.516 37.3998 133.125 36.7347C133.734 36.0636 134.409 35.5422 135.143 35.1647C135.878 34.7872 136.595 34.4996 137.288 34.3079C137.98 34.1161 138.608 33.9963 139.169 33.9484C139.73 33.9064 140.143 33.8824 140.411 33.8824H141.128C141.391 33.8824 141.809 33.9064 142.37 33.9484C142.932 33.9903 143.553 34.1101 144.24 34.3079C144.927 34.4996 145.637 34.7872 146.372 35.1647C147.107 35.5422 147.776 36.0636 148.367 36.7347C148.958 37.4058 149.454 38.2387 149.836 39.2393C150.224 40.24 150.416 41.4564 150.416 42.8825V56.1968C150.416 57.6649 150.224 58.9112 149.836 59.9359C149.448 60.9605 148.958 61.8114 148.367 62.4945C147.776 63.1776 147.107 63.7169 146.372 64.1063C145.637 64.5018 144.927 64.7954 144.24 64.9872C143.553 65.1789 142.932 65.2988 142.37 65.3407C141.809 65.3886 141.397 65.4066 141.128 65.4066H140.411C140.149 65.4066 139.73 65.3826 139.169 65.3407C138.608 65.2988 137.98 65.1789 137.288 64.9872C136.595 64.7954 135.878 64.5018 135.143 64.1063C134.409 63.7169 133.734 63.1776 133.125 62.4945C132.516 61.8114 132.014 60.9605 131.62 59.9359C131.225 58.9112 131.028 57.6649 131.028 56.1968V42.8825ZM138.004 57.0477C138.034 57.599 138.154 58.0783 138.363 58.4978C138.548 58.8693 138.823 59.2048 139.193 59.4985C139.563 59.7981 140.095 59.9419 140.782 59.9419C141.457 59.9419 141.97 59.7921 142.335 59.4985C142.699 59.2048 142.974 58.8693 143.153 58.4978C143.35 58.0843 143.469 57.599 143.511 57.0477V42.529C143.469 41.9957 143.35 41.5103 143.153 41.0789C142.968 40.7254 142.699 40.3958 142.335 40.0902C141.97 39.7846 141.451 39.6348 140.782 39.6348C140.095 39.6348 139.563 39.7846 139.193 40.0902C138.823 40.3958 138.542 40.7254 138.363 41.0789C138.154 41.5103 138.034 41.9897 138.004 42.529V57.0477Z" fill="white"/>
<path d="M187.858 34.0682C188.42 34.0682 188.981 34.0922 189.548 34.1342C190.116 34.1821 190.629 34.3019 191.095 34.5117C191.555 34.7214 191.931 35.033 192.218 35.4584C192.505 35.8778 192.648 36.4711 192.648 37.226C192.648 37.9691 192.505 38.5503 192.218 38.9757C191.931 39.3952 191.555 39.7127 191.095 39.9225C190.635 40.1322 190.116 40.258 189.548 40.312C188.981 40.3659 188.414 40.3899 187.858 40.3899H185.714V60.1636C185.714 60.8048 185.696 61.422 185.66 62.0331C185.624 62.6443 185.511 63.1836 185.314 63.657C185.117 64.1304 184.8 64.5138 184.37 64.8075C183.934 65.0951 183.319 65.2389 182.519 65.2389C181.718 65.2389 181.103 65.0951 180.667 64.8075C180.231 64.5198 179.92 64.1364 179.723 63.657C179.526 63.1836 179.407 62.6383 179.377 62.0331C179.341 61.422 179.323 60.7988 179.323 60.1636V40.3899H177.179C176.618 40.3899 176.056 40.3659 175.489 40.312C174.921 40.258 174.408 40.1322 173.942 39.9225C173.482 39.7127 173.106 39.4012 172.819 38.9757C172.532 38.5503 172.389 37.9691 172.389 37.226C172.389 36.4711 172.532 35.8778 172.819 35.4584C173.106 35.033 173.482 34.7214 173.942 34.5117C174.408 34.3019 174.921 34.1761 175.489 34.1342C176.056 34.0922 176.618 34.0682 177.179 34.0682H187.858Z" fill="white"/>
<path d="M33.7514 34.0682C34.3129 34.0682 34.8803 34.0922 35.4536 34.1342C36.027 34.1821 36.5466 34.3019 37.0065 34.5117C37.4664 34.7214 37.8487 35.033 38.1413 35.4584C38.434 35.8778 38.5833 36.471 38.5833 37.226C38.5833 37.981 38.434 38.5743 38.1413 38.9937C37.8487 39.4191 37.4664 39.7307 37.0065 39.9404C36.5407 40.1502 36.027 40.276 35.4536 40.3179C34.8803 40.3599 34.3129 40.3839 33.7514 40.3839H28.7523V46.4418H34.2472C34.8086 46.4418 35.37 46.4598 35.9374 46.4958C36.5048 46.5317 37.0125 46.6515 37.4485 46.8553C37.8905 47.053 38.2488 47.3586 38.5296 47.7661C38.8103 48.1735 38.9476 48.7428 38.9476 49.4678C38.9476 50.2108 38.8043 50.7801 38.5296 51.1815C38.2488 51.583 37.8905 51.8826 37.4485 52.0803C37.0065 52.2781 36.5048 52.3979 35.9374 52.4399C35.37 52.4758 34.8086 52.4938 34.2472 52.4938H28.7523V58.9053H33.7514C34.3129 58.9053 34.8803 58.9293 35.4536 58.9712C36.027 59.0191 36.5466 59.139 37.0065 59.3367C37.4664 59.5345 37.8487 59.846 38.1413 60.2715C38.434 60.6969 38.5833 61.2781 38.5833 62.0211C38.5833 62.7941 38.434 63.3933 38.1294 63.8248C37.8248 64.2562 37.4485 64.5738 36.9826 64.7835C36.5168 64.9932 36.0031 65.119 35.4298 65.161C34.8564 65.2029 34.2949 65.2269 33.7455 65.2269H25.5151C24.7327 65.2269 24.1235 65.0771 23.6994 64.7835C23.2694 64.4839 22.9588 64.0944 22.7617 63.615C22.5646 63.1357 22.4512 62.5844 22.4153 61.9792C22.3795 61.368 22.3616 60.7448 22.3616 60.1097V39.1914C22.3616 38.5503 22.3795 37.9271 22.4153 37.3219C22.4512 36.7107 22.5646 36.1714 22.7617 35.6861C22.9588 35.2067 23.2694 34.8172 23.6994 34.5176C24.1295 34.224 24.7327 34.0742 25.5151 34.0742H33.7514V34.0682Z" fill="white"/>
<path d="M66.7444 39.1435C66.7444 38.5083 66.7743 37.8852 66.8399 37.274C66.8997 36.6628 67.049 36.1235 67.2819 35.6501C67.5149 35.1768 67.8613 34.7933 68.3212 34.5057C68.7811 34.218 69.4201 34.0682 70.2324 34.0682C71.0447 34.0682 71.6838 34.212 72.1556 34.5057C72.6215 34.7933 72.9739 35.1768 73.2068 35.6501C73.4397 36.1235 73.5831 36.6688 73.6368 37.274C73.6906 37.8852 73.7205 38.5083 73.7205 39.1435V56.6882C73.7623 57.3414 73.8877 57.9226 74.0967 58.4259C74.1803 58.6476 74.2938 58.8633 74.4312 59.0731C74.5686 59.2828 74.7358 59.4685 74.9269 59.6303C75.1181 59.7921 75.339 59.9239 75.6018 60.0198C75.8587 60.1157 76.1573 60.1636 76.4977 60.1636C76.8322 60.1636 77.1368 60.1157 77.3996 60.0198C77.6624 59.9239 77.8953 59.7921 78.0805 59.6303C78.2716 59.4685 78.4329 59.2828 78.5762 59.0731C78.7136 58.8633 78.8271 58.6476 78.9107 58.4259C79.1197 57.9226 79.2392 57.3414 79.2691 56.6882V39.1435C79.2691 38.5083 79.2989 37.8852 79.3527 37.274C79.4064 36.6628 79.5498 36.1235 79.7827 35.6501C80.0156 35.1768 80.3621 34.7933 80.822 34.5057C81.2818 34.218 81.9269 34.0682 82.7571 34.0682C83.5694 34.0682 84.2084 34.212 84.6683 34.5057C85.1282 34.7933 85.4747 35.1768 85.7076 35.6501C85.9405 36.1235 86.0839 36.6688 86.1496 37.274C86.2093 37.8852 86.2451 38.5083 86.2451 39.1435V56.107C86.2451 57.653 86.0122 59.0012 85.5404 60.1576C85.0745 61.3141 84.4056 62.2848 83.5455 63.0638C82.6854 63.8427 81.6522 64.43 80.4576 64.8254C79.2571 65.2209 77.9372 65.4127 76.4977 65.4127C75.0404 65.4127 73.7145 65.2089 72.5259 64.8015C71.3374 64.394 70.3101 63.7948 69.45 63.0098C68.5899 62.2249 67.921 61.2482 67.4551 60.0917C66.9893 58.9353 66.7504 57.605 66.7504 56.107V39.1435H66.7444Z" fill="white"/>
<path d="M166.84 34.0682C167.402 34.0682 167.969 34.0982 168.543 34.1581C169.116 34.218 169.636 34.3559 170.095 34.5776C170.555 34.7993 170.938 35.1288 171.23 35.5663C171.523 36.0037 171.672 36.6029 171.672 37.3579C171.672 38.1129 171.523 38.7121 171.23 39.1495C170.938 39.5869 170.555 39.9165 170.095 40.1382C169.636 40.3599 169.116 40.5037 168.543 40.5576C167.969 40.6175 167.402 40.6475 166.84 40.6475H161.841V46.4358H164.487C165.037 46.4358 165.592 46.4598 166.165 46.5017C166.739 46.5437 167.258 46.6695 167.718 46.8792C168.184 47.089 168.566 47.4125 168.865 47.8619C169.164 48.3054 169.313 48.9285 169.313 49.7315C169.313 50.5344 169.17 51.1576 168.871 51.601C168.578 52.0444 168.196 52.374 167.736 52.5777C167.276 52.7874 166.757 52.9132 166.183 52.9552C165.61 52.9971 165.043 53.0211 164.481 53.0211H161.835V60.1037C161.835 60.7568 161.817 61.386 161.781 61.9972C161.746 62.6084 161.626 63.1477 161.429 63.633C161.226 64.1184 160.903 64.5019 160.473 64.7895C160.037 65.0771 159.428 65.2209 158.646 65.2209C157.845 65.2209 157.23 65.0771 156.794 64.7895C156.358 64.5019 156.042 64.1124 155.851 63.633C155.654 63.1537 155.54 62.6084 155.504 61.9972C155.468 61.386 155.45 60.7568 155.45 60.1037V39.1914C155.45 38.5503 155.468 37.9271 155.504 37.3219C155.54 36.7107 155.654 36.1714 155.851 35.6861C156.048 35.2067 156.358 34.8172 156.794 34.5176C157.23 34.224 157.845 34.0742 158.646 34.0742H166.84V34.0682Z" fill="white"/>
<path d="M207.652 12.0894L194.422 5.22849L185.141 0.422864L184.854 0.273063C183.982 -0.176341 182.913 0.165206 182.465 1.04005L182.316 1.32766L177.531 10.6213L170.818 23.666C170.293 24.6847 170.693 25.943 171.708 26.4703L181.007 31.2879C182.023 31.8152 183.277 31.4138 183.803 30.3951L189.262 19.7892C189.423 19.4716 189.811 19.3518 190.128 19.5135L200.681 24.9783C201.709 25.5116 202.975 25.1041 203.507 24.0735L208.428 14.5102C208.882 13.6293 208.535 12.5448 207.652 12.0894Z" fill="white"/>
<path d="M202.013 38.2327L194.559 38.1069C194.368 38.1009 194.219 37.9451 194.219 37.7533L194.344 30.2753C194.35 30.0835 194.506 29.9337 194.697 29.9337L202.151 30.0595C202.342 30.0655 202.491 30.2213 202.491 30.4131L202.366 37.8912C202.36 38.0829 202.198 38.2327 202.013 38.2327Z" fill="white"/>
</svg>
