<svg width="66" height="45" viewBox="0 0 66 45" fill="none" xmlns="http://www.w3.org/2000/svg">
<path d="M65.8902 36.6347L65.9463 36.6402L66 36.6209C66 36.3282 66 36.0382 66 35.7454C65.9658 35.7206 65.9292 35.7151 65.8926 35.7316C65.6487 36.0354 65.6487 36.3337 65.8902 36.6347Z" fill="#A3A0A0"/>
<path d="M65.8902 36.6346C65.8902 36.3336 65.8902 36.0353 65.8926 35.7343C65.7462 34.5164 65.185 33.6133 64.2213 33.0637C63.9431 32.9035 63.8089 32.7406 63.7626 32.3816C63.5234 30.6113 63.2233 28.8493 63.0013 27.0735C62.6036 23.8947 61.0664 21.5555 58.8876 19.6361C56.7038 17.7112 54.2029 16.7833 51.4873 16.5016C50.7407 16.4242 49.9892 16.369 49.2401 16.3635C48.9132 16.3607 48.7302 16.1702 48.5252 15.9603C45.0459 12.3838 41.5617 8.81289 38.0921 5.22539C37.7188 4.83875 37.3382 4.65371 36.8282 4.66752C35.6058 4.70066 34.381 4.65647 33.1586 4.68961C32.7535 4.70066 32.551 4.546 32.3827 4.14279C31.9288 3.04914 31.4213 1.98311 30.9626 0.889461C30.7016 0.26807 30.3209 -0.00810441 29.7036 0.0001808C27.7932 0.0250364 25.8827 0.0277982 23.9722 0.0001808C23.3281 -0.00810441 22.9426 0.281878 22.6742 0.933648C22.2106 2.04939 21.6812 3.13199 21.2151 4.24773C21.0712 4.59019 20.9004 4.69237 20.5807 4.68685C19.3364 4.66752 18.0896 4.70618 16.8452 4.66752C16.2182 4.64819 15.8107 4.90226 15.4642 5.49328C13.6733 8.56985 11.8507 11.6243 10.0549 14.6981C9.84264 15.0627 9.62304 15.2118 9.23022 15.1897C8.15665 15.1345 7.08552 15.1373 6.09003 15.7145C4.18689 16.8192 3.15724 18.5591 3.12064 20.9949C3.0938 22.7431 3.10356 24.494 3.12308 26.2422C3.12796 26.6841 3.0694 26.9133 2.61314 26.8498C1.44929 26.6896 0.985707 27.2254 1.03939 28.6173C1.0955 30.0976 1.04427 31.5806 1.05646 33.0637C1.0589 33.42 0.980827 33.6851 0.768554 33.9696C-0.0366217 35.0411 -0.234256 36.2673 0.295208 37.557C0.834432 38.8716 1.76404 39.6449 3.06696 39.667C5.10674 39.7029 7.14652 39.6808 9.18386 39.6753C9.90364 39.6725 10.1793 39.3853 10.3404 38.5292C10.4599 37.8802 10.2257 37.4328 9.64744 37.2229C9.35709 37.1179 9.05454 37.1317 8.75443 37.129C7.14408 37.1262 5.53617 37.129 3.92582 37.1262C3.68914 37.1262 3.45247 37.1345 3.21824 37.0931C2.75221 37.0102 2.39598 36.77 2.34963 36.19C2.31547 35.7398 2.67414 35.3615 3.18896 35.262C3.44271 35.2123 3.70134 35.2261 3.95998 35.2261C5.65572 35.2234 7.35147 35.2427 9.04478 35.2179C9.95243 35.204 10.2965 34.8726 10.4892 33.9254C10.3794 32.9146 10.011 32.5003 9.11554 32.4837C7.46371 32.4506 5.81188 32.4782 4.16249 32.4727C3.32804 32.4699 3.29876 32.434 3.29388 31.4867C3.29144 31.0007 3.29632 30.5146 3.29388 30.0313C3.29144 29.6198 3.43783 29.4293 3.81846 29.3795C5.09942 29.2138 5.35073 28.8824 5.35317 27.4325C5.35805 25.4413 5.34829 23.4501 5.35561 21.4616C5.37025 19.0893 6.58534 17.7278 8.68855 17.7222C9.11798 17.7222 9.54741 17.7002 9.97439 17.725C10.6942 17.7664 11.1822 17.4129 11.5725 16.7391C13.1975 13.9387 14.8591 11.1659 16.489 8.37101C16.7305 7.9816 16.855 7.42649 17.2844 7.28564C17.8993 7.08404 18.5507 7.20279 19.1876 7.22489C19.4047 7.23317 19.4071 7.40716 19.3217 7.58943C19.1924 7.86561 19.046 8.1335 18.885 8.38758C17.443 11.0333 16.0718 13.726 14.6615 16.3939C13.8734 17.8797 14.3931 18.8988 15.9449 18.8988C23.7307 18.907 31.5165 18.9015 39.3023 18.9015C41.0395 18.9015 42.7768 18.907 44.514 18.9015C47.0808 18.9098 49.6549 18.7358 52.2119 19.186C55.1569 19.7024 57.5847 21.2269 59.4536 23.8726C60.0563 24.726 60.4077 25.7092 60.6004 26.7669C60.9054 28.4295 61.1055 30.1142 61.3665 31.785C61.4373 32.2324 61.347 32.492 60.9005 32.4948C60.5711 32.4975 60.2661 32.608 60.0173 32.8676C59.7782 33.1521 59.6537 33.4918 59.6537 33.8839C59.8196 34.8229 60.1612 35.1681 60.9908 35.2123C61.5447 35.24 62.1034 35.1958 62.6573 35.2344C63.2868 35.2786 63.6942 35.6597 63.6967 36.1762C63.6991 36.6954 63.2917 37.0876 62.6695 37.1345C62.0522 37.1815 61.43 37.1041 60.8127 37.1732C60.0368 37.2588 59.6659 37.778 59.805 38.5375C59.9709 39.4185 60.2442 39.6808 61.0201 39.6863C61.6203 39.6919 62.2181 39.6919 62.8183 39.6863C64.4213 39.6725 65.6413 38.4601 65.8902 36.6346Z" fill="#012D3A"/>
<path d="M10.5893 38.521C11.3579 40.9706 12.712 42.8127 14.8909 43.7793C18.7289 45.4778 22.967 43.2988 24.3651 38.9214C24.409 38.7861 24.4603 38.6536 24.5066 38.521C25.0971 37.4108 24.9726 36.2011 24.8799 35.0025C24.8531 34.6435 24.7555 34.2928 24.675 33.942C23.433 29.3907 19.5096 26.8637 15.5228 28.1589C12.9218 29.004 11.2139 30.9676 10.4624 33.9448C10.072 35.3864 9.95489 36.828 10.4624 38.2697C10.4966 38.3608 10.5356 38.4464 10.5893 38.521Z" fill="#012D3A"/>
<path d="M45.6365 38.5211C46.405 40.9708 47.7592 42.8128 49.9381 43.7795C53.7761 45.4779 58.0142 43.2989 59.4123 38.9216C59.4562 38.7862 59.5075 38.6537 59.5538 38.5211C60.1321 37.3032 60.0808 36.019 59.8637 34.7182C59.8198 34.4586 59.688 34.2266 59.6807 33.9559C59.1707 31.7825 58.0606 30.1061 56.338 29.0014C53.432 27.1372 50.2577 27.4714 47.7031 29.91C46.5929 30.9705 45.9146 32.379 45.4681 33.9339C45.1558 35.1904 45.0802 36.4553 45.3217 37.7395C45.3803 38.0323 45.4559 38.3002 45.6365 38.5211Z" fill="#012D3A"/>
<path d="M45.6362 38.521C45.2873 36.9662 45.2971 35.4141 45.6313 33.8592C45.5167 33.7598 45.4069 33.7764 45.302 33.8841C44.9799 34.5994 44.4553 34.8065 43.7648 34.8065C37.9675 34.7872 32.1727 34.7872 26.3755 34.8065C25.685 34.8093 25.1604 34.5994 24.8407 33.8841C24.7358 33.7764 24.626 33.7626 24.5113 33.862C24.8505 35.4168 24.8529 36.9689 24.5065 38.5238C24.5894 38.5293 24.6699 38.5348 24.7529 38.5376C25.2067 37.6677 25.9143 37.5627 26.7366 37.5655C32.2947 37.5931 37.8504 37.5931 43.4086 37.5655C44.2308 37.5627 44.9384 37.6677 45.3922 38.5376C45.4728 38.5321 45.5557 38.5266 45.6362 38.521Z" fill="white"/>
<path d="M45.3924 38.5348C45.2435 37.6483 44.9605 37.3528 44.1993 37.3528C38.1141 37.35 32.0314 37.35 25.9462 37.3528C25.1874 37.3528 24.9019 37.6483 24.7531 38.5348C24.9214 39.4158 25.1922 39.6837 25.973 39.6837C32.0411 39.6865 38.1068 39.6865 44.1749 39.6837C44.9508 39.6837 45.2289 39.4158 45.3924 38.5348Z" fill="#012D3A"/>
<path d="M10.5892 38.521C10.2403 36.9661 10.25 35.414 10.5843 33.8592C10.5111 33.7625 10.4306 33.768 10.3476 33.8426C10.1793 34.7595 9.90845 35.0164 9.08131 35.0164C7.15377 35.0191 5.22623 35.0164 3.29869 35.0191C2.81558 35.0191 2.43496 35.2124 2.20072 35.7344C2.00553 36.1708 2.11045 36.5436 2.3398 36.8833C2.61063 37.2837 3.00834 37.3555 3.43289 37.3528C5.33847 37.3445 7.24405 37.3445 9.14963 37.35C9.90845 37.3528 10.1939 37.6455 10.3428 38.532C10.4257 38.532 10.5062 38.5265 10.5892 38.521Z" fill="white"/>
<path d="M59.561 33.8592C59.9002 35.414 59.9026 36.9661 59.5562 38.521C59.6391 38.5265 59.7196 38.532 59.8026 38.5348C59.9514 37.651 60.2369 37.361 60.9908 37.3528C61.5886 37.3445 62.1888 37.3693 62.7842 37.3472C63.4674 37.3224 63.948 36.8004 63.9261 36.1542C63.9041 35.53 63.4405 35.0495 62.7891 35.0246C62.1913 35.0025 61.5935 35.0246 60.9957 35.0163C60.2393 35.008 59.9587 34.7291 59.7953 33.8426C59.7147 33.7653 59.6342 33.7625 59.561 33.8592Z" fill="white"/>
<path d="M45.7437 16.3251C45.3216 15.8804 44.9654 15.4938 44.5994 15.1182C42.1278 12.5718 39.6488 10.0311 37.1845 7.47368C36.8648 7.14227 36.5452 6.97933 36.1011 7.00142C35.2887 7.04285 34.4713 7.05666 33.6588 6.99866C33.1196 6.96 32.9122 7.14227 33.0098 7.74709C33.0317 7.88794 33.0268 8.03707 33.0342 8.18069C33.0268 10.7546 33.0244 13.3286 33.0073 15.9025C33.0049 16.2477 33.0878 16.3554 33.4002 16.3554C36.4891 16.3361 39.578 16.3306 42.667 16.3223C43.6503 16.3251 44.6336 16.3251 45.7437 16.3251Z" fill="#ECF2F4"/>
<path d="M30.2209 4.6815C30.216 4.55722 30.2185 4.53236 30.2112 4.51027C29.3962 2.34783 29.3962 2.34783 27.3272 2.34783C26.4927 2.34783 25.6583 2.36164 24.8238 2.33954C24.5066 2.33126 24.3163 2.42516 24.1821 2.77314C23.9454 3.389 23.6624 3.97725 23.3525 4.6815C24.5554 4.6815 25.6778 4.6815 26.8002 4.6815C27.9347 4.6815 29.0693 4.6815 30.2209 4.6815Z" fill="#F5FA10"/>
<path d="M30.9284 8.18331C30.9821 7.0151 30.9821 7.0151 29.9793 7.0151C27.7687 7.0151 25.5533 7.07585 23.3451 6.98472C22.4521 6.94881 21.9397 7.25537 21.6811 8.18607C20.2415 10.865 18.802 13.5466 17.3698 16.2144C17.5283 16.4243 17.6869 16.3442 17.8236 16.347C22.0056 16.3525 26.1901 16.3415 30.3721 16.3663C30.8601 16.3691 30.9699 16.2255 30.9626 15.6869C30.9284 13.1848 30.9357 10.6854 30.9284 8.18331Z" fill="#ECF2F4"/>
<path d="M61.6154 32.1829C61.3104 30.2276 61.0713 28.2585 60.6955 26.3225C60.271 24.138 58.9193 22.6715 57.4187 21.3597C55.6303 19.7965 53.5563 19.1033 51.3555 18.8437C49.1108 18.5814 46.8587 18.6753 44.6067 18.7084C44.3505 18.7001 44.0918 18.6835 43.8357 18.6835C34.5273 18.6835 25.219 18.6808 15.9107 18.6863C15.4032 18.6863 14.9128 18.6891 14.6078 18.1229C14.2857 17.5236 14.537 17.021 14.8103 16.5045C16.2474 13.7842 17.6748 11.0556 19.107 8.32979C19.329 7.93486 19.5511 7.53993 19.8463 7.01797C18.9069 7.01797 18.0847 6.95168 17.2746 7.04282C16.7647 7.10082 16.6915 7.78573 16.4206 8.18618C14.7639 10.9811 13.0926 13.7649 11.4603 16.5791C11.065 17.2613 10.6087 17.612 9.87432 17.5291C9.38634 17.4739 8.88859 17.5153 8.39573 17.5209C6.5243 17.5402 5.1921 19.026 5.18234 21.136C5.17014 23.3205 5.1799 25.505 5.1799 27.6896C5.1799 28.7943 4.83587 29.2444 3.8843 29.1699C3.20356 29.1146 3.04497 29.3825 3.10841 30.0868C3.16209 30.6861 3.15477 31.3019 3.10841 31.904C3.06205 32.5116 3.18648 32.7297 3.78671 32.7104C5.54345 32.6552 7.30264 32.6883 9.05939 32.6911C9.8914 32.6938 10.1549 32.9341 10.3501 33.8482C10.4282 33.8538 10.5087 33.8593 10.5868 33.8648C11.1626 32.0973 12.0337 30.5811 13.4244 29.4847C17.2453 26.4716 22.5644 28.2916 24.265 33.202C24.3431 33.4257 24.4309 33.6439 24.5163 33.8648C24.5944 33.8593 24.6749 33.8538 24.753 33.8482C25.2215 32.9976 25.9339 32.8982 26.7513 32.9037C32.3021 32.9314 37.8505 32.9314 43.4013 32.9037C44.2187 32.901 44.9312 32.9976 45.3996 33.8482C45.4777 33.8538 45.5582 33.8593 45.6363 33.8648C46.2121 32.0973 47.0832 30.5811 48.474 29.4847C52.2949 26.4716 57.6139 28.2916 59.3145 33.202C59.3926 33.4257 59.4805 33.6439 59.5659 33.8648C59.6439 33.8593 59.7245 33.8538 59.8025 33.8482C59.805 33.5279 59.966 33.2766 60.0856 33.0059C60.432 32.7159 60.8273 32.6358 61.2421 32.6938C61.613 32.7436 61.6691 32.5337 61.6154 32.1829ZM57.531 26.6539C57.0576 26.6622 56.8722 26.433 56.899 25.911C56.921 25.4553 56.8502 24.9858 57.1162 24.5826C57.1211 24.5605 57.1211 24.5412 57.1235 24.5191C57.3309 24.7732 57.6164 24.7511 57.875 24.729C58.4508 24.6765 58.624 24.9831 58.5996 25.5879C58.585 25.9745 58.524 26.386 58.7168 26.7451C58.3313 26.5821 57.9262 26.6456 57.531 26.6539Z" fill="#F5FA10"/>
<path d="M12.3972 36.1515C12.3875 39.344 14.7176 42.0008 17.5382 42.0174C20.3441 42.034 22.7059 39.3634 22.7011 36.1791C22.6986 32.9921 20.3441 30.3408 17.5284 30.3518C14.7396 30.3629 12.4046 33.0003 12.3972 36.1515Z" fill="white"/>
<path d="M52.5731 30.3517C49.7599 30.3655 47.4175 33.0527 47.4468 36.2315C47.4761 39.424 49.8404 42.0504 52.6561 42.0201C55.44 41.9897 57.7555 39.3329 57.7506 36.1762C57.7433 32.9864 55.3888 30.3379 52.5731 30.3517Z" fill="white"/>
<path d="M45.3973 33.8426C45.2094 32.9561 44.9361 32.6882 44.1724 32.6854C38.1068 32.6827 32.0411 32.6827 25.9755 32.6854C25.2118 32.6854 24.9409 32.9505 24.7506 33.8426C24.9165 34.7374 25.1922 35.0163 25.9584 35.0163C32.0362 35.0191 38.1116 35.0191 44.1895 35.0163C44.9556 35.0163 45.2313 34.7374 45.3973 33.8426Z" fill="#012D3A"/>
<path d="M25.778 26.5654C25.6901 25.4359 25.8097 24.2014 26.7002 23.2431C27.6299 22.2405 28.7083 21.876 29.938 22.4366C31.1873 23.0055 31.8631 24.0854 31.951 25.6043C31.9924 26.3528 31.9485 27.1095 31.9632 27.8607C31.9754 28.5318 31.7216 29.0096 31.1458 29.1532C30.5651 29.2968 30.1259 28.9902 29.9478 28.3495C29.8624 28.0402 29.7282 27.9988 29.494 28.0126C29.2158 28.0292 28.9377 28.0181 28.6571 28.0153C28.2203 28.0098 27.8153 27.9187 27.6421 28.6367C27.5225 29.1311 27.0126 29.283 26.5563 29.1504C26.1049 29.0206 25.8121 28.6643 25.7804 28.1175C25.7584 27.6591 25.778 27.1951 25.778 26.5654Z" fill="#012D3A"/>
<path d="M38.1507 29.1919C37.7408 29.2057 37.4846 28.9212 37.2089 28.6423C36.8185 28.2419 36.5184 27.4603 36.0475 27.5127C35.6498 27.5569 35.3057 28.2501 34.9398 28.6533C34.847 28.7555 34.7616 28.866 34.6567 28.9489C34.1907 29.3079 33.7296 29.2941 33.3075 28.8688C32.9097 28.4683 32.8585 27.7779 33.2172 27.2946C33.5466 26.8499 33.9174 26.4412 34.3005 26.0546C34.5835 25.7701 34.5616 25.5795 34.2907 25.3116C33.9516 24.9775 33.6368 24.6102 33.3319 24.2373C32.8853 23.6933 32.8707 23.0194 33.2709 22.5444C33.6856 22.05 34.3029 22.0666 34.8153 22.5775C35.2594 23.0194 35.6083 23.8893 36.1182 23.8479C36.5574 23.812 36.9429 23.0139 37.365 22.572C37.8433 22.0694 38.4435 22.05 38.8607 22.5002C39.2975 22.9697 39.2828 23.6684 38.8314 24.2511C38.441 24.7538 37.6725 25.1487 37.7115 25.7259C37.7457 26.2258 38.4435 26.6649 38.8412 27.1372C39.1633 27.5183 39.2828 27.9602 39.0998 28.4656C38.9242 28.9406 38.5899 29.1587 38.1507 29.1919Z" fill="#012D3A"/>
<path d="M22.7012 22.1853C23.3648 22.1853 24.0285 22.1715 24.6921 22.1881C25.346 22.2047 25.7682 22.6714 25.7706 23.3452C25.773 24.0191 25.3509 24.4803 24.7019 24.5162C23.7113 24.5715 23.7113 24.5715 23.7113 25.6623C23.7113 26.4135 23.7211 27.1647 23.7089 27.9159C23.6967 28.7003 23.277 29.1946 22.6597 29.1808C22.0692 29.167 21.6642 28.6865 21.6544 27.9408C21.6422 26.9466 21.6398 25.9523 21.6569 24.9581C21.6642 24.6101 21.5715 24.4776 21.2592 24.5107C21.0249 24.5356 20.7883 24.53 20.554 24.5079C19.9904 24.4527 19.6 23.9832 19.5903 23.3673C19.5805 22.7211 19.9831 22.2129 20.5809 22.1881C21.286 22.1632 21.9936 22.1853 22.7012 22.1853Z" fill="#012D3A"/>
<path d="M40.205 25.6431C40.205 24.914 40.1952 24.1849 40.2074 23.4558C40.2196 22.6659 40.6344 22.1743 41.2566 22.1881C41.8519 22.202 42.257 22.6797 42.2618 23.4309C42.274 24.9388 42.274 26.444 42.2618 27.9519C42.2545 28.6976 41.8397 29.1781 41.2468 29.1864C40.6515 29.1947 40.2245 28.7141 40.2099 27.9795C40.1928 27.1979 40.2074 26.4191 40.205 25.6431Z" fill="#012D3A"/>
<path d="M9.30831 24.5107C9.30587 24.7289 9.29123 24.9471 9.30343 25.1653C9.33515 25.7121 9.08384 26.5406 9.40835 26.7422C9.85485 27.0184 10.5258 26.8306 11.1017 26.8499C11.4164 26.861 11.3603 26.6124 11.3603 26.4025C11.3627 25.7729 11.3578 25.1404 11.3578 24.5107L11.37 24.5246C10.6771 24.5246 9.98417 24.5218 9.29367 24.5218L9.30831 24.5107Z" fill="#012D3A"/>
<path d="M58.7753 26.8389C58.7778 26.7422 58.7827 26.6456 58.7827 26.5489C58.7705 25.8999 58.9608 25.0852 58.6851 24.6488C58.4142 24.2235 57.6481 24.5991 57.104 24.4914C56.9722 24.5604 56.7258 24.4141 56.7258 24.7344C56.7234 25.3641 56.7185 25.9938 56.7283 26.6207C56.7331 26.9328 56.9576 26.8416 57.1089 26.8444C57.6627 26.8527 58.219 26.8444 58.7753 26.8389Z" fill="#012D3A"/>
<path d="M9.29606 24.5246C9.2985 24.3064 9.31314 24.0882 9.30094 23.87C9.26922 23.3232 9.52053 22.4919 9.19602 22.2931C8.74952 22.0141 8.07854 22.2019 7.50271 22.1826C7.3124 22.1771 7.227 22.2655 7.2392 22.4809C7.24164 22.5278 7.23676 22.5775 7.2392 22.6272C7.2514 23.2293 7.06109 24.1655 7.31972 24.3644C7.85162 24.7786 8.6324 24.4776 9.30826 24.5107L9.29606 24.5246Z" fill="#012D3A"/>
<path d="M13.4146 24.5273C13.4171 24.3091 13.4342 24.0881 13.422 23.8727C13.3902 23.3231 13.644 22.4946 13.317 22.293C12.8681 22.0141 12.1971 22.2046 11.6213 22.1853C11.3041 22.1742 11.3651 22.4311 11.3651 22.6355C11.3627 23.2679 11.37 23.8976 11.3724 24.53L11.3602 24.5162C12.0507 24.5162 12.7388 24.5162 13.4293 24.5162L13.4146 24.5273Z" fill="#012D3A"/>
<path d="M15.4934 24.5246C14.8005 24.5246 14.1076 24.5273 13.4147 24.5273L13.4269 24.5135C13.4269 24.7068 13.4244 24.9029 13.4244 25.0962C13.4244 26.9604 13.422 26.9494 15.1006 26.861C15.4129 26.8444 15.5056 26.745 15.4934 26.4025C15.4714 25.7729 15.4836 25.1404 15.4812 24.5107L15.4934 24.5246Z" fill="#012D3A"/>
<path d="M15.4788 24.5108C15.6716 24.5135 15.8643 24.5301 16.0571 24.5163C16.5402 24.4804 17.2746 24.7649 17.4503 24.3975C17.6967 23.8921 17.5308 23.1327 17.5479 22.4809C17.5528 22.2655 17.4747 22.1688 17.2844 22.1826C17.2429 22.1854 17.199 22.1799 17.1551 22.1826C16.6232 22.1964 15.796 21.981 15.6203 22.2738C15.2544 22.8758 15.5203 23.7596 15.491 24.5246C15.4935 24.5246 15.4788 24.5108 15.4788 24.5108Z" fill="#012D3A"/>
<path d="M14.7078 35.0247C13.7464 35.0302 13.3926 35.4472 13.4268 36.5271C13.5024 38.8773 15.3665 40.8464 17.521 40.852C19.7242 40.8575 21.5908 38.9049 21.6689 36.5188C21.7567 33.8427 20.0512 31.6084 17.8528 31.5228C16.8964 31.4841 16.5279 31.8846 16.5255 32.9699C16.5743 33.6162 16.811 33.9062 17.4405 34.0139C17.8455 34.0829 18.2481 34.1409 18.597 34.4116C19.2851 34.9474 19.5974 35.9195 19.3558 36.7784C19.1021 37.6842 18.3213 38.3388 17.5186 38.3222C16.6914 38.3056 15.9228 37.5903 15.7081 36.6403C15.6496 36.3807 15.6764 36.099 15.5935 35.8504C15.4397 35.3948 15.2738 34.928 14.7078 35.0247Z" fill="#012D3A"/>
<path d="M14.7079 35.0247C15.2422 35.2677 15.4643 35.704 15.5057 36.3641C15.5863 37.6345 16.5378 38.5569 17.6236 38.5127C18.6825 38.4685 19.5682 37.4688 19.6073 36.2674C19.6487 35.0357 18.8314 33.9614 17.709 33.8703C17.1234 33.8233 16.7403 33.5692 16.5232 32.9672C15.5594 33.2489 14.9568 33.9365 14.7079 35.0247Z" fill="white"/>
<path d="M49.7574 35.0247C48.7961 35.0302 48.4423 35.4472 48.4765 36.5271C48.5521 38.8773 50.4162 40.8464 52.5707 40.852C54.7739 40.8575 56.6405 38.9049 56.7185 36.5188C56.8064 33.8427 55.1009 31.6084 52.9025 31.5228C51.9461 31.4841 51.5776 31.8846 51.5752 32.9699C51.624 33.6162 51.8607 33.9062 52.4902 34.0139C52.8952 34.0829 53.2978 34.1409 53.6467 34.4116C54.3347 34.9474 54.647 35.9195 54.4055 36.7784C54.1517 37.6842 53.371 38.3388 52.5682 38.3222C51.7411 38.3056 50.9725 37.5903 50.7578 36.6403C50.6993 36.3807 50.7261 36.099 50.6431 35.8504C50.4894 35.3948 50.3211 34.928 49.7574 35.0247Z" fill="#012D3A"/>
<path d="M49.7574 35.0247C50.2918 35.2677 50.5138 35.704 50.5553 36.3641C50.6358 37.6345 51.5874 38.5569 52.6732 38.5127C53.7321 38.4685 54.6178 37.4688 54.6568 36.2674C54.6983 35.0357 53.8809 33.9614 52.7586 33.8703C52.173 33.8233 51.7899 33.5692 51.5728 32.9672C50.609 33.2489 50.0063 33.9365 49.7574 35.0247Z" fill="white"/>
<path d="M28.9788 25.6845C29.1081 25.6845 29.2399 25.7066 29.3619 25.6789C29.5522 25.6375 29.8425 25.8446 29.9182 25.5409C29.9792 25.2923 29.8108 25.0272 29.6327 24.8476C29.257 24.4748 28.8373 24.4002 28.3932 24.6957C28.1175 24.8808 27.8833 25.1956 27.9394 25.5105C28.0028 25.8612 28.3688 25.6209 28.5957 25.6762C28.7177 25.7093 28.8519 25.6845 28.9788 25.6845Z" fill="#F5FA10"/>
</svg>
