<svg width="66" height="66" viewBox="0 0 66 66" fill="none" xmlns="http://www.w3.org/2000/svg">
<path d="M33 66C51.2254 66 66 51.2254 66 33C66 14.7746 51.2254 0 33 0C14.7746 0 0 14.7746 0 33C0 51.2254 14.7746 66 33 66Z" fill="#E5E5E5"/>
<path d="M38.8419 49.2302C39.2488 50.8605 39.6272 52.3896 40.0263 53.9862C40.8143 53.9862 41.6073 53.9862 42.4004 53.9862C42.9784 53.9862 43.5123 54.1313 43.8415 54.6315C44.0255 54.9089 44.1473 55.2613 44.1836 55.5905C44.2406 56.1011 44.2017 56.622 44.1991 57.1378C44.1914 58.0605 43.6056 58.7136 42.6907 58.8173C42.5585 58.8328 42.4238 58.8276 42.2916 58.8276C36.092 58.8276 29.8924 58.8251 23.6955 58.8302C23.0397 58.8302 22.4799 58.667 22.0834 58.1097C21.6661 57.524 21.6765 55.2717 22.0963 54.6911C22.4592 54.1909 22.9646 53.9888 23.5659 53.9862C24.3486 53.9862 25.1313 53.9862 25.9685 53.9862C26.3598 52.4207 26.7486 50.8682 27.1607 49.2276C26.8834 49.2276 26.6734 49.2276 26.4635 49.2276C21.5313 49.2276 16.5991 49.2302 11.667 49.2276C10.3166 49.2276 9.38877 48.5719 9.07775 47.3978C9.01814 47.1775 9.00518 46.9391 9.00518 46.7084C9 36.6445 9 26.5806 9 16.5192C9 15.0575 10.0004 14.0441 11.4648 14.0026C11.5477 14 11.6307 14 11.7162 14C25.914 14 40.1119 14 54.3097 14C55.6937 14 56.6268 14.6531 56.9274 15.8505C56.9922 16.1045 56.9974 16.3767 56.9974 16.641C57 26.622 57 36.6004 57 46.5814C57 48.2428 56.0333 49.2225 54.3693 49.2251C50.5853 49.2302 46.8039 49.2276 43.0199 49.2276C41.8354 49.2276 40.6536 49.2276 39.4691 49.2276C39.2903 49.2302 39.1089 49.2302 38.8419 49.2302ZM55.4009 42.7741C55.4009 42.5512 55.4009 42.3853 55.4009 42.222C55.4009 33.7417 55.4009 25.2587 55.4009 16.7784C55.4009 15.8531 55.1883 15.6432 54.2501 15.6432C40.0834 15.6432 25.9166 15.6432 11.7525 15.6432C10.8117 15.6432 10.5991 15.8505 10.5991 16.7732C10.5991 25.2536 10.5991 33.7365 10.5991 42.2168C10.5991 42.3957 10.5991 42.5719 10.5991 42.7715C25.5512 42.7741 40.4436 42.7741 55.4009 42.7741ZM55.3957 44.4743C40.4333 44.4743 25.533 44.4743 10.5965 44.4743C10.5965 44.6583 10.5965 44.806 10.5965 44.9538C10.5965 45.5706 10.581 46.1875 10.6043 46.8017C10.6225 47.2916 10.9102 47.5508 11.4 47.5819C11.5503 47.5896 11.7006 47.587 11.851 47.587C25.9477 47.587 40.0419 47.587 54.1387 47.587C54.289 47.587 54.4393 47.5922 54.5896 47.5819C55.0847 47.5533 55.3724 47.3045 55.3905 46.8069C55.4138 46.0449 55.3957 45.2803 55.3957 44.4743ZM37.1832 49.2639C34.3685 49.2639 31.5978 49.2639 28.8194 49.2639C28.4281 50.8371 28.0445 52.3767 27.6505 53.9577C31.2376 53.9577 34.7598 53.9577 38.3521 53.9577C37.9581 52.3793 37.5745 50.8397 37.1832 49.2639ZM23.4233 57.1482C29.8354 57.1482 36.2035 57.1482 42.5767 57.1482C42.5767 56.6324 42.5767 56.1581 42.5767 55.6579C36.1827 55.6579 29.8147 55.6579 23.4233 55.6579C23.4233 56.1633 23.4233 56.6402 23.4233 57.1482Z" fill="#012D3A"/>
<path d="M55.4008 42.7742C40.4436 42.7742 25.5511 42.7742 10.5991 42.7742C10.5991 42.5746 10.5991 42.3958 10.5991 42.2195C10.5991 33.7392 10.5991 25.2562 10.5991 16.7759C10.5991 15.8532 10.8116 15.6459 11.7524 15.6459C25.9191 15.6459 40.0859 15.6459 54.25 15.6459C55.1883 15.6459 55.4008 15.8532 55.4008 16.7811C55.4008 25.2614 55.4008 33.7444 55.4008 42.2247C55.4008 42.3854 55.4008 42.5513 55.4008 42.7742Z" fill="white"/>
<path d="M55.3957 44.4742C55.3957 45.2803 55.4138 46.0449 55.3879 46.8069C55.3724 47.3045 55.0847 47.5533 54.587 47.5818C54.4367 47.5896 54.2864 47.587 54.1361 47.587C40.0393 47.587 25.9451 47.587 11.8484 47.587C11.698 47.587 11.5477 47.5922 11.3974 47.5818C10.9076 47.5533 10.6199 47.2915 10.6017 46.8017C10.5784 46.1874 10.5939 45.568 10.5939 44.9537C10.5939 44.806 10.5939 44.6583 10.5939 44.4742C25.533 44.4742 40.4333 44.4742 55.3957 44.4742Z" fill="#2661AE"/>
<path d="M37.1832 49.2639C37.5745 50.8397 37.9581 52.3793 38.3521 53.9577C34.7599 53.9577 31.2402 53.9577 27.6506 53.9577C28.0445 52.3767 28.4281 50.8345 28.8195 49.2639C31.5953 49.2639 34.3659 49.2639 37.1832 49.2639Z" fill="white"/>
<path d="M23.4233 57.1481C23.4233 56.6401 23.4233 56.1632 23.4233 55.6578C29.8147 55.6578 36.1827 55.6578 42.5767 55.6578C42.5767 56.1555 42.5767 56.6324 42.5767 57.1481C36.2035 57.1481 29.8354 57.1481 23.4233 57.1481Z" fill="#2661AE"/>
<path d="M21.1295 39.3477C21.1295 39.1767 21.1295 39.0082 21.1295 38.8372C21.2643 38.6272 21.368 38.3862 21.539 38.2125C22.8842 36.8493 24.2423 35.5015 25.5926 34.146C25.958 33.7806 26.3805 33.6613 26.8833 33.7909C26.9533 33.8091 27.0647 33.7832 27.1166 33.7339C27.4561 33.4099 27.7904 33.0756 28.1144 32.7361C28.1637 32.6842 28.1922 32.5728 28.1714 32.5054C28.0419 32.0259 28.1326 31.6086 28.4876 31.251C28.638 31.1007 28.8712 30.9451 28.8868 30.7741C28.9049 30.5978 28.695 30.4061 28.6017 30.2117C28.5421 30.0899 28.4643 30.0795 28.3425 30.0847C28.0211 30.0976 27.6971 30.0976 27.3732 30.0847C27.2488 30.0795 27.1762 30.1002 27.114 30.2143C26.9611 30.4994 26.7978 30.7793 26.6319 31.0566C26.3676 31.4998 25.9295 31.6216 25.4838 31.3676C24.8203 30.9892 24.1593 30.6082 23.501 30.222C23.0656 29.968 22.9516 29.5326 23.1952 29.092C23.3559 28.8017 23.5192 28.514 23.6928 28.2315C23.755 28.1305 23.7447 28.0657 23.6825 27.9672C23.5062 27.6873 23.3352 27.4022 23.1848 27.1093C23.1252 26.9927 23.0578 26.9564 22.936 26.959C22.682 26.9667 22.4254 26.9486 22.1714 26.9642C21.6686 26.9953 21.3032 26.8164 21.1218 26.324C21.1218 25.4272 21.1218 24.5305 21.1218 23.6363C21.298 23.1439 21.6505 22.9521 22.1611 22.9883C22.4306 23.0065 22.7028 22.9987 22.9723 22.9883C23.0345 22.9858 23.12 22.9417 23.1511 22.8899C23.3507 22.5451 23.5399 22.1901 23.7447 21.8194C23.6695 21.6899 23.5788 21.5292 23.4855 21.3685C23.3896 21.2 23.2911 21.0341 23.1978 20.8657C22.949 20.4147 23.063 19.9793 23.5088 19.7175C24.1619 19.3365 24.8151 18.9581 25.4734 18.5849C25.9347 18.3231 26.365 18.4449 26.6345 18.9063C26.7978 19.1862 26.9507 19.4713 27.1244 19.746C27.1606 19.8056 27.2643 19.8523 27.3369 19.8549C27.6764 19.8652 28.0159 19.8652 28.3555 19.8523C28.4358 19.8497 28.5447 19.8004 28.5861 19.7382C28.7572 19.4739 28.9075 19.194 29.0656 18.9192C29.3507 18.4346 29.7732 18.3205 30.263 18.6004C30.7917 18.9037 31.3205 19.2043 31.844 19.5179C31.9658 19.5905 32.0514 19.5879 32.1732 19.5153C34.2207 18.2609 36.4159 17.9318 38.7304 18.5486C42.7166 19.6061 45.3343 23.5223 44.7926 27.5836C44.5827 29.1646 43.9788 30.5797 42.9654 31.8186C42.9136 31.8834 42.8773 31.9637 42.8358 32.0363C42.8799 32.0648 42.8928 32.0778 42.9058 32.0778C43.2686 32.0804 43.6315 32.0829 43.9943 32.0855C44.5231 32.0907 44.8496 32.4173 44.8496 32.9382C44.8522 33.695 44.8522 34.4518 44.8496 35.2086C44.8496 35.7166 44.5205 36.0484 44.0125 36.0536C43.6963 36.0588 43.3801 36.0588 43.0613 36.051C42.9317 36.0484 42.8617 36.0847 42.7969 36.2091C42.6518 36.4968 42.4833 36.7767 42.3123 37.0488C42.2449 37.1525 42.2293 37.2277 42.2967 37.3365C42.4626 37.6061 42.6181 37.8808 42.7736 38.1581C43.0354 38.622 42.9265 39.0601 42.473 39.327C41.8198 39.708 41.1667 40.0864 40.5084 40.4596C40.0522 40.7188 39.6246 40.6022 39.3602 40.1564C39.1917 39.8713 39.0336 39.5784 38.8574 39.2985C38.8211 39.2389 38.7174 39.1922 38.6423 39.1896C38.3028 39.1793 37.9632 39.1793 37.6263 39.1922C37.546 39.1948 37.4371 39.2467 37.3956 39.3115C37.222 39.5836 37.0691 39.8713 36.9032 40.1486C36.6362 40.5996 36.2086 40.7214 35.7576 40.4674C35.0941 40.0916 34.4332 39.708 33.7749 39.3218C33.3421 39.0678 33.2228 38.6246 33.4665 38.1892C33.6246 37.9067 33.7853 37.6242 33.9537 37.3495C34.0263 37.2328 34.0108 37.1525 33.9382 37.041C33.7671 36.7767 33.609 36.502 33.4639 36.222C33.4043 36.1054 33.3473 36.0458 33.2073 36.051C32.8833 36.0613 32.5593 36.0588 32.2354 36.0536C31.7403 36.0458 31.4112 35.7115 31.4086 35.219C31.4086 35.1231 31.4086 35.0272 31.4086 34.9987C31.1002 34.9676 30.8306 34.9339 30.5585 34.9184C30.4885 34.9132 30.3952 34.9495 30.3434 34.9987C30.0142 35.3149 29.6902 35.6363 29.3792 35.968C29.3222 36.0302 29.2885 36.1598 29.3092 36.2402C29.4336 36.7171 29.3248 37.1292 28.9801 37.4739C27.6064 38.8527 26.2198 40.2186 24.8565 41.6078C24.4108 42.0613 23.5166 42.0665 23.0889 41.5922C22.6483 41.105 22.1688 40.654 21.6997 40.1979C21.4613 39.9464 21.2306 39.6925 21.1295 39.3477ZM36.5766 19.0436C32.4531 19.0385 29.0734 22.3896 29.0552 26.5002C29.0371 30.673 32.4142 34.0579 36.5974 34.0631C40.6639 34.0683 44.0669 30.6575 44.0721 26.5728C44.0747 22.4259 40.7131 19.0488 36.5766 19.0436ZM25.9192 19.2484C25.2298 19.6475 24.5585 20.0337 23.8742 20.4302C24.1179 20.8501 24.3408 21.2441 24.5714 21.6354C24.6829 21.8246 24.6829 22.0009 24.5403 22.1693C24.2034 22.5685 23.9494 23.0143 23.7706 23.5041C23.7006 23.6933 23.5632 23.784 23.3611 23.784C23.0915 23.784 22.8194 23.784 22.5498 23.784C22.3529 23.784 22.1559 23.784 21.9485 23.784C21.9485 24.5875 21.9485 25.3572 21.9485 26.1451C22.3943 26.1451 22.8246 26.1451 23.2574 26.1451C23.5892 26.1451 23.6669 26.2281 23.8146 26.5261C24.0168 26.9305 24.2449 27.3244 24.4911 27.7028C24.6725 27.9801 24.7062 28.0683 24.5429 28.3534C24.3252 28.7343 24.1075 29.1128 23.8768 29.5119C24.5663 29.911 25.2375 30.2998 25.9218 30.6937C26.1421 30.3102 26.352 29.9447 26.5645 29.5767C26.7563 29.2449 26.847 29.2112 27.2203 29.2631C27.7101 29.3331 28.1974 29.3356 28.6898 29.2268C28.5861 28.8406 28.4876 28.47 28.3892 28.102C26.619 28.3248 25.4889 27.34 25.012 26.3758C24.4393 25.2121 24.6362 23.7892 25.5071 22.8406C26.5101 21.7521 27.7827 21.5525 29.4518 22.216C29.7343 21.8454 29.9987 21.4644 30.2993 21.1171C30.6025 20.7646 30.9421 20.4432 31.2738 20.0985C30.7892 19.8186 30.3045 19.5387 29.7991 19.2484C29.5632 19.6579 29.3326 20.0493 29.1097 20.4432C28.9879 20.6609 28.8168 20.7076 28.568 20.692C28.1015 20.6609 27.6298 20.6609 27.1632 20.6868C26.8548 20.705 26.7485 20.6868 26.593 20.4199C26.3753 20.0389 26.1576 19.6605 25.9192 19.2484ZM42.1282 38.6065C41.895 38.2022 41.6747 37.8238 41.457 37.4428C41.2963 37.1629 41.317 37.0747 41.4984 36.813C41.7006 36.5227 41.9209 36.235 42.0609 35.9136C42.3641 35.2216 42.263 35.2346 43.1416 35.2397C43.4475 35.2423 43.7507 35.2397 44.0514 35.2397C44.0514 34.4337 44.0514 33.6665 44.0514 32.8864C43.647 32.8864 43.2609 32.8838 42.8747 32.8864C42.6155 32.889 42.3589 32.8968 42.2293 32.6272C41.9235 32.8709 41.6332 33.0886 41.3585 33.3244C41.2989 33.3763 41.2652 33.4877 41.2626 33.5706C41.2574 33.8868 41.3118 34.2056 41.2755 34.5166C41.0967 35.9706 39.8552 37.1551 38.4349 37.251C36.8539 37.3572 35.4725 36.3957 35.0915 34.9054C35.0527 34.7525 34.9853 34.6903 34.8401 34.6618C34.1481 34.5296 33.4924 34.2886 32.8574 33.9827C32.7485 33.9309 32.6345 33.7806 32.4971 33.9542C32.4064 34.0683 32.2406 34.1642 32.225 34.2834C32.1861 34.5918 32.212 34.908 32.212 35.2346C32.6786 35.2346 33.1114 35.232 33.5416 35.2346C33.8708 35.2372 33.9408 35.3123 34.0859 35.5974C34.2958 36.0069 34.5265 36.4086 34.7753 36.7948C34.9568 37.0721 34.9853 37.1551 34.8194 37.4454C34.6017 37.8238 34.384 38.2022 34.1559 38.5987C34.8427 38.9953 35.514 39.384 36.1775 39.7676C36.2086 39.7443 36.2267 39.7391 36.2319 39.7261C36.4444 39.3581 36.6544 38.9901 36.8669 38.6246C37.0328 38.3395 37.1339 38.3214 37.4527 38.3421C37.8958 38.3732 38.3468 38.381 38.79 38.3499C39.1658 38.324 39.241 38.3292 39.4302 38.6531C39.6453 39.0238 39.8604 39.397 40.0833 39.7806C40.7727 39.3892 41.4388 39.0056 42.1282 38.6065ZM25.4112 39.9024C25.4164 39.8972 25.4449 39.8817 25.4656 39.8609C26.4531 38.8734 27.4431 37.886 28.428 36.8959C28.6302 36.6912 28.625 36.4812 28.4151 36.2687C27.8941 35.7426 27.368 35.219 26.8444 34.6955C26.606 34.4596 26.409 34.4622 26.168 34.7007C25.7896 35.0765 25.4138 35.4523 25.038 35.8307C24.4159 36.4527 23.7939 37.0721 23.19 37.676C23.9339 38.4251 24.6673 39.1585 25.4112 39.9024ZM29.076 22.9754C28.3192 22.4026 27.0803 22.5115 26.2924 23.1983C25.4578 23.9292 25.2505 25.1577 25.7974 26.1296C26.295 27.016 27.4224 27.5395 28.2829 27.2674C28.1689 25.7771 28.4177 24.3413 29.076 22.9754ZM40.4773 33.8765C39.0544 34.6307 37.5382 34.9443 35.9261 34.8354C36.2604 35.9551 37.5045 36.6367 38.676 36.3724C39.806 36.1184 40.6639 34.9443 40.4773 33.8765ZM29.6825 31.2069C29.4466 31.4402 29.2108 31.6501 29.0008 31.886C28.8583 32.0441 28.879 32.2385 29.0267 32.3888C29.584 32.9564 30.1464 33.5188 30.714 34.076C30.8695 34.229 31.0768 34.2315 31.2375 34.0864C31.4656 33.8817 31.6833 33.6665 31.9244 33.4359C31.012 32.819 30.2838 32.0829 29.6825 31.2069ZM22.5576 38.2929C22.3969 38.4588 22.2181 38.6376 22.047 38.8268C21.8838 39.0056 21.8682 39.2 22.0289 39.3659C22.5887 39.9413 23.1589 40.5063 23.7317 41.0687C23.882 41.2164 24.0764 41.2164 24.2371 41.0817C24.4419 40.908 24.6259 40.7136 24.8073 40.54C24.0453 39.7806 23.3092 39.0445 22.5576 38.2929ZM28.7546 33.2907C28.3917 33.6536 28.0315 34.0112 27.6868 34.3559C28.0367 34.7058 28.3995 35.0687 28.739 35.4056C29.0889 35.0557 29.4518 34.6955 29.812 34.3378C29.4647 33.9957 29.1045 33.638 28.7546 33.2907Z" fill="#012D3A"/>
<path d="M36.5766 19.0436C40.7131 19.0488 44.0747 22.4259 44.0721 26.5753C44.0669 30.66 40.6665 34.0682 36.5974 34.0656C32.4142 34.0604 29.0371 30.6756 29.0552 26.5028C29.0734 22.3896 32.4531 19.0384 36.5766 19.0436ZM36.6077 33.2699C40.3036 33.2699 43.3257 30.2427 43.3231 26.5442C43.3205 22.8561 40.2648 19.7952 36.5844 19.7952C32.8781 19.7952 29.8509 22.8146 29.8509 26.5054C29.8509 30.2401 32.8781 33.2699 36.6077 33.2699Z" fill="#2661AE"/>
<path d="M25.9192 19.2484C26.1577 19.6579 26.3754 20.0389 26.5957 20.4199C26.7512 20.6894 26.8574 20.705 27.1659 20.6869C27.6324 20.6609 28.1041 20.6609 28.5706 20.692C28.8168 20.7076 28.9879 20.6609 29.1123 20.4432C29.3352 20.0493 29.5633 19.6579 29.8017 19.2484C30.3071 19.5387 30.7918 19.8186 31.2764 20.0985C30.9421 20.4432 30.6052 20.7646 30.3019 21.1171C30.0013 21.467 29.7369 21.848 29.4544 22.216C27.7827 21.5525 26.5101 21.7495 25.5097 22.8406C24.6363 23.7892 24.4419 25.2121 25.0147 26.3758C25.489 27.3426 26.6216 28.3249 28.3918 28.102C28.4903 28.47 28.5888 28.8406 28.6924 29.2268C28.2026 29.3383 27.7127 29.3331 27.2229 29.2631C26.8497 29.2087 26.7589 29.2424 26.5672 29.5767C26.3572 29.9447 26.1447 30.3102 25.9244 30.6938C25.2402 30.2972 24.5689 29.911 23.8795 29.5119C24.1101 29.1128 24.3278 28.7344 24.5456 28.3534C24.7088 28.0683 24.6751 27.9802 24.4937 27.7028C24.2449 27.3244 24.0194 26.9305 23.8173 26.5262C23.6669 26.2307 23.5918 26.1478 23.26 26.1452C22.8298 26.1452 22.397 26.1452 21.9512 26.1452C21.9512 25.3547 21.9512 24.5875 21.9512 23.7841C22.1585 23.7841 22.3555 23.7841 22.5525 23.7841C22.822 23.7841 23.0942 23.7841 23.3637 23.7841C23.5633 23.7841 23.7032 23.6933 23.7732 23.5041C23.952 23.0143 24.206 22.5659 24.543 22.1694C24.6855 22.0009 24.6855 21.8247 24.5741 21.6355C24.3434 21.2441 24.1205 20.8501 23.8769 20.4303C24.5585 20.0363 25.2298 19.6475 25.9192 19.2484Z" fill="#04A2D8"/>
<path d="M42.1283 38.6065C41.4389 39.0057 40.7728 39.3892 40.0834 39.7858C39.8605 39.3996 39.6454 39.029 39.4303 38.6584C39.2437 38.3344 39.1685 38.3292 38.7901 38.3551C38.3469 38.3862 37.8985 38.3785 37.4527 38.3473C37.134 38.324 37.0303 38.3448 36.867 38.6299C36.6545 38.9979 36.4445 39.3659 36.232 39.7314C36.2242 39.7443 36.2087 39.7495 36.1776 39.7728C35.5141 39.3893 34.8428 39.0031 34.156 38.6039C34.3841 38.2074 34.6018 37.829 34.8195 37.4506C34.9854 37.1603 34.9543 37.08 34.7754 36.8C34.524 36.4139 34.2959 36.0121 34.086 35.6026C33.9409 35.3175 33.8709 35.2424 33.5417 35.2398C33.1089 35.2372 32.6787 35.2398 32.2121 35.2398C32.2121 34.9106 32.1862 34.5944 32.2251 34.2886C32.2406 34.1694 32.4065 34.0709 32.4972 33.9594C32.6346 33.7858 32.7486 33.9361 32.8575 33.988C33.4925 34.2938 34.1482 34.5348 34.8402 34.667C34.9854 34.6955 35.0527 34.7551 35.0916 34.9106C35.4752 36.4009 36.854 37.3625 38.435 37.2562C39.8527 37.1603 41.0968 35.9759 41.2756 34.5219C41.3145 34.2108 41.2601 33.8921 41.2627 33.5759C41.2627 33.4903 41.299 33.3789 41.3586 33.3296C41.6333 33.0938 41.9236 32.8735 42.2294 32.6324C42.359 32.902 42.6156 32.8942 42.8748 32.8916C43.2609 32.8864 43.6471 32.8916 44.0514 32.8916C44.0514 33.6718 44.0514 34.4389 44.0514 35.245C43.7508 35.245 43.445 35.245 43.1417 35.245C42.2657 35.2398 42.3668 35.2294 42.0609 35.9188C41.921 36.2402 41.7007 36.5279 41.4985 36.8182C41.3145 37.08 41.2964 37.1681 41.4571 37.448C41.6748 37.8238 41.8951 38.2022 42.1283 38.6065Z" fill="#04A2D8"/>
<path d="M25.4112 39.9023C24.6674 39.1585 23.9313 38.4224 23.1874 37.6785C23.7913 37.0747 24.4134 36.4552 25.0354 35.8332C25.4112 35.4574 25.787 35.079 26.1654 34.7032C26.4064 34.4647 26.606 34.4621 26.8419 34.698C27.368 35.2189 27.8915 35.7451 28.4125 36.2712C28.6224 36.4811 28.6302 36.6937 28.4255 36.8984C27.4406 37.8885 26.4505 38.876 25.463 39.8634C25.4449 39.8842 25.419 39.8971 25.4112 39.9023Z" fill="#2661AE"/>
<path d="M29.6826 31.2069C30.2839 32.0829 31.0147 32.819 31.9219 33.4384C31.6808 33.6691 31.4631 33.8842 31.235 34.089C31.0744 34.2341 30.8696 34.2315 30.7115 34.0786C30.1439 33.5214 29.5815 32.959 29.0242 32.3914C28.8765 32.241 28.8558 32.0466 28.9983 31.8886C29.2083 31.6501 29.4441 31.4402 29.6826 31.2069Z" fill="white"/>
<path d="M22.5577 38.2927C23.3094 39.0443 24.0454 39.7778 24.8074 40.5398C24.626 40.7135 24.4394 40.9078 24.2372 41.0815C24.0765 41.2163 23.8821 41.2163 23.7318 41.0685C23.159 40.5087 22.5888 39.9411 22.029 39.3657C21.8683 39.1999 21.8839 39.0029 22.0471 38.8266C22.2182 38.6374 22.397 38.4586 22.5577 38.2927Z" fill="white"/>
<path d="M28.7546 33.2906C29.1045 33.6379 29.4648 33.9956 29.8095 34.3377C29.4518 34.6954 29.089 35.0557 28.7365 35.4056C28.3995 35.0686 28.0341 34.7058 27.6842 34.3559C28.0315 34.0112 28.3918 33.6535 28.7546 33.2906Z" fill="white"/>
<path d="M36.6078 33.27C32.8782 33.27 29.851 30.2402 29.851 26.5054C29.851 22.8121 32.8782 19.7953 36.5844 19.7953C40.2648 19.7953 43.3205 22.8536 43.3231 26.5443C43.3257 30.2428 40.3037 33.27 36.6078 33.27ZM32.9041 31.1733C33.5805 31.702 34.2933 32.0493 35.076 32.2514C36.1594 30.2998 38.689 29.4834 40.8065 30.6419C40.8194 30.6342 40.8376 30.6316 40.8479 30.6212C40.892 30.5771 40.9361 30.5331 40.9749 30.489C41.9365 29.4082 42.416 28.1409 42.4989 26.7024C42.5222 26.2929 42.4315 26.0182 42.0246 25.8575C41.7395 25.7435 41.7006 25.7253 41.5477 25.9897C41.2108 26.5702 40.8764 27.1508 40.5447 27.734C40.4203 27.9543 40.2596 28.0476 39.9926 28.0009C39.2021 27.8584 38.4116 27.8661 37.6186 27.9957C37.3127 28.045 37.2116 27.9957 37.0535 27.7236C36.7166 27.143 36.3849 26.5599 36.0505 25.9793C35.908 25.7331 35.8432 25.7149 35.5918 25.8601C34.6173 26.4225 33.6402 26.9849 32.6656 27.5499C32.3831 27.7132 32.3676 27.7702 32.536 28.0605C32.8678 28.6359 33.1944 29.2139 33.5339 29.7841C33.6687 30.0095 33.6453 30.1962 33.4821 30.3957C33.2825 30.6368 33.1062 30.8985 32.9041 31.1733ZM32.3028 30.6393C32.4324 30.4579 32.5335 30.3024 32.6501 30.1599C32.733 30.0588 32.7278 29.9784 32.663 29.8696C32.3728 29.3771 32.0877 28.8821 31.8052 28.3871C31.463 27.791 31.6108 27.2363 32.2069 26.889C33.2151 26.3033 34.2233 25.7227 35.2315 25.1422C35.8224 24.8026 36.3823 24.9581 36.727 25.5517C37.0095 26.0389 37.2946 26.5236 37.5667 27.016C37.6341 27.1352 37.7093 27.1638 37.8415 27.1612C38.4816 27.1508 39.1192 27.1508 39.7594 27.1612C39.9071 27.1638 39.9797 27.1171 40.0471 26.9953C40.3296 26.4899 40.6224 25.9923 40.9127 25.4895C41.1486 25.0825 41.5088 24.9219 41.9676 24.9789C42.0764 24.9918 42.1827 25.0359 42.2967 25.067C42.0868 24.0095 41.1745 22.527 40.5654 22.1616C39.7516 22.9417 38.9481 23.7011 38.1576 24.4709C37.6134 25.0022 37.0561 25.0126 36.5222 24.4812C36.1335 24.0951 35.7395 23.7115 35.3559 23.3227C35.26 23.2268 35.1849 23.219 35.0553 23.2579C34.4436 23.4393 33.8294 23.6052 33.2125 23.7685C33.0855 23.8022 33.0181 23.8437 32.9844 23.981C32.8445 24.5564 32.6942 25.1318 32.5335 25.702C32.3702 26.2877 31.8492 26.5754 31.2557 26.4147C31.0717 26.3655 30.8877 26.3136 30.67 26.254C30.6052 27.9568 31.1624 29.3875 32.3028 30.6393ZM39.9278 21.664C39.8112 21.5758 39.7879 21.5551 39.762 21.537C38.2354 20.5884 36.5922 20.3318 34.8816 20.8605C32.6916 21.537 31.3361 23.0376 30.784 25.264C30.7529 25.3936 30.7736 25.4661 30.9188 25.4946C31.0769 25.5257 31.2298 25.5828 31.3853 25.6268C31.66 25.7046 31.7222 25.6683 31.7948 25.391C31.9659 24.7352 32.1395 24.0795 32.3028 23.4238C32.3598 23.1957 32.479 23.0558 32.7227 23.0324C33.5287 22.9573 34.2959 22.7447 35.0319 22.4078C35.3248 22.273 35.4389 22.2964 35.6695 22.5244C36.1542 23.0013 36.6389 23.4756 37.1209 23.9577C37.2635 24.1003 37.3853 24.1132 37.5356 23.9681C38.3235 23.2035 39.114 22.4467 39.9278 21.664ZM35.9702 32.394C37.0795 32.6739 39.6039 31.9508 40.117 31.2147C38.5957 30.4812 36.7451 31.124 35.9702 32.394Z" fill="#012D3A"/>
<path d="M32.9041 31.1731C33.1063 30.8984 33.2851 30.6392 33.4821 30.393C33.6454 30.1935 33.6661 30.0068 33.534 29.7814C33.1944 29.2112 32.8679 28.6332 32.5361 28.0578C32.3676 27.7649 32.3806 27.7105 32.6657 27.5472C33.6402 26.9848 34.6147 26.4198 35.5918 25.8574C35.8432 25.7122 35.908 25.7278 36.0506 25.9766C36.3849 26.5572 36.7193 27.1403 37.0536 27.7209C37.2117 27.993 37.3128 28.0423 37.6186 27.993C38.4117 27.866 39.2022 27.8557 39.9927 27.9982C40.2571 28.0449 40.4178 27.9516 40.5448 27.7312C40.8765 27.1481 41.2108 26.5675 41.5478 25.987C41.7007 25.7226 41.7422 25.7408 42.0247 25.8548C42.4316 26.0155 42.5223 26.2928 42.499 26.6997C42.416 28.1382 41.9365 29.4055 40.975 30.4863C40.9335 30.533 40.8895 30.577 40.848 30.6185C40.8376 30.6289 40.8221 30.6315 40.8065 30.6392C38.689 29.4807 36.1594 30.2971 35.0761 32.2487C34.2908 32.0492 33.5806 31.7019 32.9041 31.1731Z" fill="#04A2D8"/>
<path d="M39.9279 21.6639C39.114 22.444 38.3235 23.2034 37.5356 23.9654C37.3853 24.1105 37.2635 24.0976 37.121 23.955C36.6415 23.4755 36.1542 22.9986 35.6696 22.5217C35.4363 22.2937 35.3248 22.2703 35.032 22.4051C34.2959 22.742 33.5287 22.9546 32.7227 23.0297C32.4791 23.0531 32.3598 23.193 32.3028 23.4211C32.1369 24.0768 31.9633 24.7325 31.7948 25.3883C31.7223 25.6656 31.66 25.7019 31.3853 25.6241C31.2298 25.5801 31.0769 25.523 30.9188 25.4919C30.7737 25.4634 30.7529 25.3883 30.784 25.2613C31.3361 23.0375 32.6942 21.5343 34.8816 20.8578C36.5922 20.3291 38.2354 20.5857 39.762 21.5343C39.7879 21.555 39.8112 21.5757 39.9279 21.6639Z" fill="#04A2D8"/>
<path d="M48.8773 46.8484C49.3282 46.8484 49.6937 46.4829 49.6937 46.032C49.6937 45.5811 49.3282 45.2156 48.8773 45.2156C48.4264 45.2156 48.0609 45.5811 48.0609 46.032C48.0609 46.4829 48.4264 46.8484 48.8773 46.8484Z" fill="white"/>
<path d="M52.2 46.8484C52.6509 46.8484 53.0164 46.4829 53.0164 46.032C53.0164 45.5811 52.6509 45.2156 52.2 45.2156C51.7491 45.2156 51.3835 45.5811 51.3835 46.032C51.3835 46.4829 51.7491 46.8484 52.2 46.8484Z" fill="white"/>
</svg>
