<svg width="66" height="66" viewBox="0 0 66 66" fill="none" xmlns="http://www.w3.org/2000/svg">
<path d="M33 66C51.2254 66 66 51.2254 66 33C66 14.7746 51.2254 0 33 0C14.7746 0 0 14.7746 0 33C0 51.2254 14.7746 66 33 66Z" fill="#E5E5E5"/>
<path d="M25.5255 25.9583C24.7089 25.9101 24.7089 25.9101 24.7089 25.0606C24.7089 21.1984 24.7089 17.3388 24.7089 13.4767C24.7089 12.2772 25.1096 11.273 26.1138 10.5503C26.4536 10.3068 26.872 10.2409 27.2068 10C35.6005 10 43.9942 10 52.3905 10C52.8089 10.2105 53.2781 10.3043 53.6635 10.5985C54.5384 11.2679 54.9873 12.158 54.9898 13.2434C54.9999 18.7741 55.0075 24.3049 54.9873 29.8381C54.9797 31.773 53.5697 33.0942 51.5638 33.1044C49.2181 33.117 46.8725 33.117 44.5268 33.0993C44.1109 33.0967 44.0526 33.1855 44.1489 33.5912C44.5242 35.1559 44.8641 36.7281 45.1937 38.3029C45.252 38.5793 45.3535 38.6807 45.6197 38.6427C45.6806 38.6351 45.744 38.6402 45.8049 38.6427C47.1032 38.6427 47.0982 38.6427 47.0373 39.9487C47.0272 40.1515 46.9967 40.2581 46.7583 40.2581C44.4583 40.2454 42.1608 40.2428 39.8608 40.2352C39.8557 39.832 39.8709 39.4263 39.843 39.0256C39.8202 38.7137 39.9292 38.6326 40.2335 38.6376C41.2276 38.6554 42.2217 38.6351 43.2157 38.6503C43.515 38.6554 43.6468 38.6554 43.553 38.2649C43.2309 36.9437 42.9647 35.6073 42.668 34.2785C42.4068 33.1069 42.4017 33.1069 41.182 33.1069C41.1034 33.1069 41.0273 33.1069 40.9487 33.1069C39.8481 33.1069 39.8658 33.1069 39.8456 31.9886C39.8379 31.5904 39.9242 31.4636 40.3502 31.4662C44.0779 31.4865 47.8082 31.4789 51.5359 31.4763C52.7861 31.4763 53.3618 30.8728 53.3973 29.6175C53.4099 29.2067 53.3034 29.1078 52.8901 29.1078C48.711 29.1256 44.5319 29.118 40.3527 29.1154C40.1854 29.1154 40.0104 29.1636 39.8506 29.0672C39.8456 28.8847 39.8405 28.7046 39.8329 28.522C39.8278 28.4485 39.8227 28.3749 39.8151 28.3014C39.8836 27.5102 39.8836 27.5102 40.7027 27.5102C44.7575 27.5102 48.8124 27.5026 52.8673 27.5204C53.2781 27.5229 53.3871 27.4189 53.3846 27.0056C53.3694 22.5145 53.377 18.026 53.3744 13.535C53.3744 12.1758 52.7785 11.5925 51.4066 11.5925C43.7001 11.5925 35.9961 11.59 28.2896 11.59C26.9101 11.59 26.3395 12.158 26.3395 13.535C26.3395 17.3718 26.3395 21.2086 26.3395 25.0479C26.342 25.905 26.342 25.905 25.5255 25.9583Z" fill="#012D3A"/>
<path d="M38.3113 40.2251C38.3037 42.198 38.2935 44.1709 38.2834 46.1438C38.2783 46.8868 38.3367 47.6349 38.1135 48.3602C37.7179 49.6357 36.5996 50.5461 35.2581 50.5664C32.7552 50.6044 30.2523 50.5943 27.7519 50.5841C27.407 50.5841 27.331 50.6754 27.407 51C27.7798 52.6128 28.1475 54.2282 28.4924 55.8461C28.5482 56.1047 28.6369 56.1783 28.8829 56.1681C29.2557 56.1504 29.631 56.1808 30.0012 56.158C30.2574 56.1428 30.3233 56.2391 30.303 56.475C30.2675 56.8883 30.4704 57.4234 30.2219 57.6846C29.9911 57.9255 29.456 57.7505 29.0554 57.7505C24.8433 57.7556 20.6312 57.7505 16.4166 57.7606C16.0692 57.7606 15.9018 57.6998 15.9525 57.3143C16.0007 56.9492 15.8003 56.4673 16.0286 56.2366C16.2568 56.0058 16.7412 56.1377 17.1038 56.1757C17.5907 56.229 17.7657 56.054 17.8595 55.5823C18.1638 54.0507 18.5087 52.5241 18.8637 51.0025C18.9448 50.6602 18.8764 50.5816 18.5315 50.5841C16.1528 50.5968 13.7742 50.5841 11.3955 50.5917C10.0135 50.5968 8.97885 50.0288 8.33474 48.7913C8.08622 48.312 8 47.7921 8 47.2621C8 41.7973 8.00254 36.3249 8 30.8525C8 28.9785 9.35162 27.4798 11.4792 27.495C15.988 27.5254 20.4943 27.5051 25.003 27.5026C25.1729 27.5026 25.3428 27.4899 25.5153 27.4823C25.6852 27.4924 25.8551 27.5127 26.025 27.5127C28.9463 27.5153 31.8676 27.5279 34.789 27.5077C35.6968 27.5026 36.5007 27.7283 37.2031 28.3014C37.9994 29.0495 38.291 29.9903 38.2885 31.0579C38.2809 33.4771 38.2834 35.8989 38.2885 38.3181C38.2885 38.9546 38.3037 39.5911 38.3113 40.2251ZM23.1011 45.0052C23.1011 45.0027 23.1011 45.0027 23.1011 45.0001C27.4527 45.0001 31.8042 44.995 36.1558 45.0077C36.526 45.0077 36.6554 44.9418 36.6554 44.5361C36.6402 40.0121 36.6478 35.4906 36.6452 30.9666C36.6452 29.6936 36.0721 29.123 34.7966 29.123C27.0419 29.1205 19.2846 29.1357 11.5299 29.1053C10.3837 29.1002 9.59253 29.7316 9.60014 31.0528C9.6255 35.5438 9.61535 40.0374 9.60014 44.5284C9.60014 44.9215 9.71171 45.0153 10.0921 45.0153C14.4284 45.0001 18.7648 45.0052 23.1011 45.0052ZM23.129 46.6307C18.8079 46.6307 14.4893 46.6307 10.1682 46.6307C10.0591 46.6307 9.95009 46.6358 9.84104 46.6307C9.65593 46.6205 9.61282 46.7144 9.60014 46.8843C9.48856 48.3602 10.3381 49.0119 11.4894 49.0068C19.2441 48.9814 26.9988 48.9789 34.7509 49.0093C35.783 49.0144 36.7289 48.4641 36.6655 47.1024C36.6478 46.7169 36.5641 46.6205 36.1786 46.6205C31.8321 46.6358 27.4806 46.6307 23.129 46.6307ZM26.9227 56.1504C26.522 54.3752 26.1163 52.6128 25.7334 50.8478C25.6826 50.6145 25.5787 50.5917 25.3885 50.5917C23.8974 50.5968 22.4038 50.5993 20.9127 50.5892C20.6895 50.5867 20.5906 50.645 20.5399 50.8732C20.157 52.6255 19.7614 54.3727 19.3633 56.1504C21.8915 56.1504 24.3868 56.1504 26.9227 56.1504Z" fill="#012D3A"/>
<path d="M37.2007 28.3039C36.4982 27.7308 35.6944 27.5026 34.7865 27.5102C31.8652 27.5305 28.9439 27.5178 26.0225 27.5153C25.8526 27.5153 25.6827 27.495 25.5128 27.4849C25.5154 26.9777 25.5179 26.468 25.523 25.9608C26.342 25.9075 26.342 25.9075 26.342 25.0504C26.342 21.2136 26.342 17.3769 26.342 13.5375C26.342 12.1606 26.9126 11.5925 28.2921 11.5925C35.9987 11.5925 43.7026 11.5951 51.4092 11.5951C52.7836 11.5951 53.377 12.1783 53.377 13.5375C53.3795 18.0286 53.3719 22.5171 53.3871 27.0081C53.3897 27.4215 53.2806 27.5229 52.8698 27.5229C48.815 27.5077 44.7601 27.5127 40.7052 27.5127C39.8836 27.5127 39.8836 27.5127 39.8177 28.3039C38.9479 28.3039 38.0755 28.3039 37.2007 28.3039ZM50.2249 18.0007C50.2249 17.0066 50.23 16.0126 50.2224 15.0185C50.2122 13.8165 49.5732 13.18 48.3788 13.1775C47.6941 13.1749 47.012 13.1775 46.3273 13.1775C42.8785 13.1775 39.4297 13.1749 35.9809 13.18C34.9564 13.1825 34.2996 13.8418 34.2869 14.8638C34.2819 15.2366 34.2641 15.6119 34.292 15.9821C34.3174 16.3042 34.188 16.3676 33.8964 16.36C33.0723 16.3422 32.2506 16.3524 31.4265 16.3549C30.1129 16.3574 29.5094 16.9483 29.5068 18.2492C29.5043 20.1765 29.5043 22.1012 29.5068 24.0285C29.5094 25.337 30.1104 25.938 31.4113 25.9405C33.4146 25.943 35.4205 25.943 37.4238 25.9456C39.4906 25.9456 41.5573 25.9481 43.6215 25.943C44.7652 25.9405 45.4042 25.304 45.427 24.1629C45.4321 23.8687 45.4524 23.5695 45.422 23.2778C45.3814 22.8822 45.4879 22.7326 45.9215 22.7529C46.7279 22.7909 47.5369 22.7681 48.3433 22.7631C49.5681 22.7529 50.2122 22.1139 50.2198 20.8941C50.23 19.9279 50.2249 18.9643 50.2249 18.0007Z" fill="white"/>
<path d="M37.2006 28.304C38.073 28.304 38.9453 28.304 39.8176 28.304C39.8227 28.3775 39.8278 28.451 39.8354 28.5246C39.7948 28.7072 39.7745 28.8897 39.8531 29.0698C40.0129 29.1636 40.1879 29.118 40.3552 29.118C44.5344 29.1205 48.7135 29.1281 52.8926 29.1104C53.306 29.1078 53.4099 29.2093 53.3998 29.6201C53.3643 30.8728 52.7861 31.4763 51.5385 31.4789C47.8107 31.4814 44.0804 31.489 40.3527 31.4687C39.9242 31.4662 39.8405 31.593 39.8481 31.9911C39.8684 33.1094 39.8506 33.1094 40.9512 33.1094C41.0298 33.1094 41.1059 33.1094 41.1845 33.1094C42.4042 33.1094 42.4093 33.1094 42.6705 34.281C42.9672 35.6098 43.2309 36.9462 43.5555 38.2674C43.6519 38.6579 43.5175 38.6579 43.2183 38.6529C42.2242 38.6402 41.2301 38.6605 40.2361 38.6402C39.9318 38.6351 39.8227 38.7163 39.8455 39.0282C39.8734 39.4314 39.8608 39.8346 39.8633 40.2378C39.3485 40.2352 38.8312 40.2327 38.3164 40.2302C38.3063 39.5962 38.291 38.9597 38.291 38.3257C38.2885 35.9065 38.286 33.4847 38.291 31.0655C38.291 29.9928 37.9969 29.052 37.2006 28.304Z" fill="#2661AE"/>
<path d="M23.162 18.7817C23.162 19.5755 23.162 19.5755 22.353 19.5755C21.5289 19.5755 21.5289 19.5755 21.5289 18.7538C21.5289 17.9398 21.5289 17.9398 22.3581 17.9398C23.162 17.9398 23.162 17.9398 23.162 18.7817Z" fill="white"/>
<path d="M18.3489 18.7412C18.3489 17.9398 18.3489 17.9398 19.1477 17.9398C19.9668 17.9398 19.9668 17.9398 19.9668 18.7691C19.9668 19.5755 19.9668 19.5755 19.168 19.5755C18.3489 19.5755 18.3489 19.5755 18.3489 18.7412Z" fill="white"/>
<path d="M16.7716 18.8046C16.7716 19.5755 16.7716 19.5755 15.9931 19.5755C15.174 19.5755 15.174 19.5755 15.174 18.7538C15.174 17.9398 15.174 17.9398 15.9982 17.9398C16.7716 17.9398 16.7716 17.9398 16.7716 18.8046Z" fill="white"/>
<path d="M15.174 21.9086C15.174 21.1224 15.174 21.1224 15.983 21.1224C16.7716 21.1224 16.7716 21.1224 16.7716 21.9314C16.7716 22.7631 16.7716 22.7631 15.9601 22.7631C15.174 22.7631 15.174 22.7631 15.174 21.9086Z" fill="white"/>
<path d="M16.7716 25.1442C16.7716 25.943 16.7716 25.943 15.9804 25.943C15.174 25.943 15.174 25.943 15.174 25.1594C15.174 24.3074 15.174 24.3074 16.0108 24.3074C16.7716 24.3074 16.7716 24.3074 16.7716 25.1442Z" fill="white"/>
<path d="M50.9958 35.4679C50.9958 36.2921 50.9958 36.2921 50.1818 36.2921C49.4058 36.2921 49.4058 36.2921 49.4058 35.5263C49.4058 34.6539 49.4058 34.6539 50.2655 34.6539C50.9958 34.6539 50.9958 34.6539 50.9958 35.4679Z" fill="white"/>
<path d="M49.4032 38.6579C49.4032 37.8464 49.4032 37.8464 50.2248 37.8464C50.9957 37.8464 50.9957 37.8464 50.9957 38.6173C50.9957 39.4719 50.9957 39.4719 50.1285 39.4719C49.4032 39.4719 49.4032 39.4719 49.4032 38.6579Z" fill="white"/>
<path d="M40.6367 49.0018C39.8328 49.0018 39.8328 49.0018 39.8328 48.208C39.8328 47.4042 39.8328 47.4042 40.6215 47.4042C41.4659 47.4042 41.4659 47.4042 41.4659 48.241C41.4685 49.0018 41.4685 49.0018 40.6367 49.0018Z" fill="white"/>
<path d="M50.2324 41.0442C50.9957 41.0442 50.9957 41.0442 50.9957 41.8202C50.9957 42.6469 50.9957 42.6469 50.1893 42.6469C49.4032 42.6469 49.4032 42.6469 49.4032 41.8481C49.4032 41.0442 49.4032 41.0442 50.2324 41.0442Z" fill="white"/>
<path d="M49.4032 44.9849C49.4032 44.2267 49.4032 44.2267 50.1792 44.2267C50.9957 44.2267 50.9957 44.2267 50.9957 45.0382C50.9957 45.8192 50.9957 45.8192 50.1944 45.8192C49.4032 45.8192 49.4032 45.8192 49.4032 44.9849Z" fill="white"/>
<path d="M44.6459 48.2182C44.6459 49.0043 44.6459 49.0043 43.8471 49.0043C43.0306 49.0043 43.0306 49.0043 43.0306 48.1903C43.0306 47.4067 43.0306 47.4067 43.8294 47.4067C44.6459 47.4067 44.6459 47.4067 44.6459 48.2182Z" fill="white"/>
<path d="M47.8184 48.203C47.8184 49.0018 47.8184 49.0018 47.0322 49.0018C46.2208 49.0018 46.2208 49.0018 46.2208 48.1802C46.2208 47.4042 46.2208 47.4042 46.9841 47.4042C46.9993 47.4042 47.0145 47.4042 47.0297 47.4042C47.8184 47.4067 47.8184 47.4067 47.8184 48.203Z" fill="white"/>
<path d="M50.1995 47.4067C50.9957 47.4067 50.9957 47.4067 50.9957 48.1929C50.9957 49.0043 50.9957 49.0043 50.1766 49.0043C49.4057 49.0043 49.4057 49.0043 49.4057 48.2385C49.4057 48.2233 49.4057 48.2081 49.4057 48.1929C49.4032 47.4067 49.4032 47.4067 50.1995 47.4067Z" fill="white"/>
<path d="M39.8531 29.0699C39.7745 28.8898 39.7973 28.7072 39.8354 28.5247C39.8404 28.7072 39.848 28.8873 39.8531 29.0699Z" fill="#4397D0"/>
<path d="M23.1011 45.005C18.7648 45.005 14.4285 45 10.0921 45.0126C9.70919 45.0126 9.59762 44.9214 9.60015 44.5258C9.61537 40.0347 9.62551 35.5412 9.60015 31.0501C9.59254 29.7289 10.3837 29.0975 11.53 29.1026C19.2847 29.133 27.0419 29.1203 34.7966 29.1203C36.0696 29.1203 36.6453 29.6884 36.6453 30.9639C36.6478 35.4879 36.6402 40.0094 36.6554 44.5334C36.6579 44.9391 36.5261 45.0076 36.1558 45.005C31.8043 44.9924 27.4527 44.9974 23.1011 44.9974C23.1011 45.0025 23.1011 45.0025 23.1011 45.005ZM25.5863 30.6976C25.5863 30.7002 25.5863 30.7002 25.5863 30.7027C23.4714 30.7027 21.359 30.6976 19.2441 30.7052C18.2424 30.7078 17.6186 31.3139 17.5755 32.3105C17.5577 32.7137 17.5527 33.1194 17.5755 33.5226C17.5907 33.8117 17.4918 33.8928 17.2078 33.8878C16.3836 33.87 15.5569 33.9258 14.7378 33.8725C13.5054 33.7914 12.7446 34.5522 12.7675 35.8328C12.7979 37.6966 12.7751 39.5631 12.7751 41.4295C12.7751 42.8673 13.3431 43.4379 14.7759 43.4404C18.7699 43.4429 22.7664 43.4455 26.7604 43.4455C26.9455 43.4455 27.1332 43.4353 27.3183 43.415C28.1095 43.3212 28.675 42.7126 28.7029 41.9189C28.7181 41.4852 28.7257 41.0465 28.7054 40.6129C28.6902 40.3187 28.7967 40.2427 29.0782 40.2477C29.9632 40.263 30.8508 40.2604 31.7358 40.2503C32.8795 40.2376 33.483 39.6366 33.4906 38.4878C33.5033 36.482 33.5008 34.4761 33.4906 32.4727C33.483 31.3037 32.8693 30.7052 31.6978 30.7052C29.6589 30.6951 27.6226 30.6976 25.5863 30.6976Z" fill="white"/>
<path d="M23.129 46.6307C27.4805 46.6307 31.8321 46.6357 36.1811 46.6205C36.5691 46.618 36.6503 46.7169 36.668 47.1023C36.7314 48.4616 35.783 49.0144 34.7534 49.0093C26.9987 48.9814 19.244 48.9814 11.4918 49.0068C10.3406 49.0119 9.49104 48.3576 9.60262 46.8843C9.6153 46.7118 9.65841 46.6205 9.84353 46.6307C9.95257 46.6357 10.0616 46.6307 10.1707 46.6307C14.4893 46.6307 18.8078 46.6307 23.129 46.6307Z" fill="#2661AE"/>
<path d="M26.9227 56.1504C24.3894 56.1504 21.8915 56.1504 19.3633 56.1504C19.7614 54.3752 20.157 52.6255 20.5399 50.8732C20.5906 50.645 20.6895 50.5867 20.9127 50.5892C22.4038 50.5993 23.8974 50.5968 25.3885 50.5917C25.5787 50.5917 25.6827 50.6145 25.7334 50.8478C26.1163 52.6128 26.5195 54.3727 26.9227 56.1504Z" fill="#2661AE"/>
<path d="M50.2249 18.0006C50.2249 18.9642 50.23 19.9279 50.2224 20.8915C50.2148 22.1113 49.5707 22.7528 48.3458 22.7604C47.5369 22.7655 46.7279 22.7883 45.9241 22.7503C45.4904 22.73 45.3839 22.8796 45.4245 23.2752C45.4549 23.5668 45.4346 23.8661 45.4296 24.1602C45.4067 25.3039 44.7702 25.9379 43.624 25.9404C41.5573 25.9455 39.4905 25.943 37.4263 25.943C35.423 25.943 33.4171 25.943 31.4138 25.9379C30.1129 25.9354 29.5119 25.3344 29.5093 24.0258C29.5068 22.0986 29.5068 20.1738 29.5093 18.2466C29.5119 16.9457 30.1154 16.3548 31.429 16.3523C32.2532 16.3523 33.0748 16.3396 33.8989 16.3574C34.1906 16.3624 34.3199 16.3016 34.2945 15.9795C34.2666 15.6093 34.2844 15.234 34.2895 14.8612C34.3022 13.8392 34.9589 13.1774 35.9834 13.1774C39.4322 13.1723 42.881 13.1748 46.3298 13.1748C47.0145 13.1748 47.6966 13.1723 48.3813 13.1748C49.5732 13.1774 50.2148 13.8139 50.2249 15.0159C50.23 16.0125 50.2249 17.0065 50.2249 18.0006ZM37.4187 24.3276C39.4069 24.3276 41.3975 24.32 43.3857 24.3352C43.7356 24.3378 43.8294 24.2465 43.8244 23.8965C43.8066 22.0631 43.8066 20.2296 43.8244 18.3937C43.8269 18.0462 43.7407 17.9499 43.3857 17.9524C39.4373 17.9651 35.4915 17.9651 31.5431 17.9524C31.1932 17.9524 31.0993 18.0412 31.1044 18.3911C31.1222 20.2246 31.1222 22.058 31.1044 23.894C31.1019 24.2414 31.1906 24.3378 31.5431 24.3352C33.5033 24.3175 35.461 24.3276 37.4187 24.3276ZM42.2445 14.7724C40.5049 14.7724 38.7653 14.7724 37.0282 14.7724C35.8769 14.7724 35.8972 14.7724 35.8719 15.9212C35.8642 16.3142 36.0063 16.3624 36.3435 16.3599C38.7653 16.3472 41.187 16.3497 43.6113 16.3548C44.788 16.3574 45.4144 16.9837 45.4245 18.1654C45.4321 19.02 45.4448 19.8746 45.422 20.7267C45.4118 21.0639 45.5259 21.1426 45.8429 21.1349C46.6341 21.1147 47.4278 21.1147 48.219 21.14C48.536 21.1502 48.6045 21.0411 48.6019 20.7444C48.5893 18.8958 48.5867 17.0496 48.6045 15.201C48.607 14.8485 48.5107 14.7623 48.1632 14.7648C46.1878 14.78 44.2174 14.7724 42.2445 14.7724Z" fill="#012D3A"/>
<path d="M25.5863 30.6979C27.6227 30.6979 29.659 30.6954 31.6953 30.6979C32.8668 30.7005 33.4831 31.2964 33.4881 32.4654C33.4983 34.4713 33.5008 36.4772 33.4881 38.4805C33.4805 39.6318 32.877 40.2303 31.7333 40.2429C30.8483 40.2531 29.9607 40.2556 29.0757 40.2404C28.7942 40.2353 28.6877 40.3114 28.7029 40.6056C28.7258 41.0392 28.7156 41.4754 28.7004 41.9116C28.675 42.7053 28.107 43.3139 27.3158 43.4077C27.1307 43.4305 26.943 43.4382 26.7579 43.4382C22.7639 43.4382 18.7674 43.4356 14.7734 43.4331C13.3406 43.4331 12.7726 42.86 12.7726 41.4221C12.7726 39.5557 12.7954 37.6919 12.765 35.8255C12.7421 34.5474 13.5054 33.7841 14.7353 33.8652C15.5544 33.9185 16.3837 33.8652 17.2053 33.8804C17.4893 33.8855 17.5882 33.8069 17.573 33.5153C17.5502 33.1121 17.5552 32.7063 17.573 32.3031C17.6161 31.304 18.2399 30.7005 19.2416 30.6979C21.3565 30.6903 23.4689 30.6954 25.5838 30.6954C25.5863 30.7005 25.5863 30.7005 25.5863 30.6979ZM20.7758 41.8228C22.7487 41.8228 24.7191 41.8177 26.692 41.8279C26.9912 41.8304 27.1256 41.7924 27.1231 41.4373C27.1053 39.5735 27.1079 37.7096 27.1205 35.8457C27.1231 35.5389 27.0369 35.4603 26.7326 35.4603C22.7563 35.4704 18.7826 35.4704 14.8063 35.4603C14.4792 35.4603 14.393 35.549 14.3955 35.8736C14.4107 37.7223 14.4107 39.5709 14.3955 41.4171C14.393 41.7493 14.4894 41.8304 14.8114 41.8279C16.7995 41.8152 18.7877 41.8228 20.7758 41.8228ZM25.5661 32.2955C23.8264 32.2955 22.0868 32.2904 20.3472 32.3006C19.9668 32.3031 19.4571 32.1231 19.2365 32.3843C19.0514 32.6049 19.2086 33.0969 19.1706 33.4646C19.13 33.8297 19.2746 33.8906 19.6093 33.888C22.0792 33.8728 24.5492 33.8779 27.0191 33.8804C28.0461 33.883 28.6979 34.5322 28.7055 35.5643C28.7131 36.4493 28.7308 37.3368 28.7004 38.2193C28.6877 38.5845 28.8069 38.658 29.1442 38.6453C29.9202 38.62 30.6987 38.6225 31.4746 38.6479C31.7942 38.658 31.8931 38.582 31.8905 38.2447C31.8728 36.396 31.8753 34.5474 31.8905 32.6987C31.8931 32.3792 31.8221 32.2828 31.4873 32.2854C29.5119 32.3031 27.539 32.2955 25.5661 32.2955Z" fill="#012D3A"/>
<path d="M37.4187 24.3276C35.461 24.3276 33.5033 24.3175 31.5431 24.3352C31.1906 24.3378 31.1018 24.2414 31.1044 23.894C31.1221 22.0606 31.1221 20.2271 31.1044 18.3912C31.1018 18.0412 31.1931 17.9499 31.5431 17.9524C35.4914 17.9651 39.4372 17.9651 43.3856 17.9524C43.7381 17.9524 43.8268 18.0463 43.8243 18.3937C43.8066 20.2271 43.8066 22.0606 43.8243 23.8965C43.8268 24.249 43.733 24.3403 43.3856 24.3352C41.3975 24.32 39.4068 24.3276 37.4187 24.3276Z" fill="#2661AE"/>
<path d="M42.2444 14.7724C44.2173 14.7724 46.1877 14.7826 48.1606 14.7648C48.508 14.7623 48.6044 14.8485 48.6018 15.201C48.5841 17.0496 48.5866 18.8958 48.5993 20.7444C48.6018 21.0411 48.5334 21.1502 48.2164 21.14C47.4252 21.1172 46.6315 21.1147 45.8403 21.1349C45.5233 21.1425 45.4092 21.0639 45.4193 20.7267C45.4421 19.8721 45.4295 19.0175 45.4219 18.1654C45.4117 16.9862 44.7853 16.3574 43.6087 16.3548C41.1869 16.3497 38.7626 16.3472 36.3409 16.3599C36.0036 16.3624 35.8591 16.3142 35.8692 15.9212C35.8946 14.7724 35.8743 14.7724 37.0256 14.7724C38.7652 14.7724 40.5048 14.7724 42.2444 14.7724Z" fill="#04A2D8"/>
<path d="M20.7757 41.8229C18.7876 41.8229 16.7995 41.8153 14.8139 41.8305C14.4918 41.833 14.3929 41.7519 14.398 41.4197C14.4132 39.571 14.4132 37.7224 14.398 35.8762C14.3955 35.5516 14.4842 35.4629 14.8088 35.4629C18.7851 35.473 22.7588 35.473 26.735 35.4629C27.0393 35.4629 27.1256 35.5415 27.123 35.8483C27.1078 37.7122 27.1053 39.5761 27.1256 41.4399C27.1281 41.795 26.9937 41.8305 26.6945 41.8305C24.719 41.8178 22.7461 41.8229 20.7757 41.8229Z" fill="#2661AE"/>
<path d="M25.566 32.2953C27.5389 32.2953 29.5118 32.3029 31.4847 32.2877C31.8194 32.2851 31.8904 32.384 31.8879 32.701C31.8727 34.5497 31.8702 36.3983 31.8879 38.247C31.8904 38.5842 31.7916 38.6603 31.472 38.6502C30.6961 38.6248 29.9175 38.6248 29.1416 38.6476C28.8043 38.6578 28.6876 38.5868 28.6978 38.2216C28.7257 37.3366 28.7105 36.4516 28.7029 35.5666C28.6952 34.5345 28.0435 33.8853 27.0165 33.8827C24.5466 33.8802 22.0766 33.8751 19.6067 33.8903C19.2719 33.8929 19.1274 33.832 19.168 33.4669C19.2085 33.0992 19.0488 32.6072 19.2339 32.3866C19.4545 32.1254 19.9617 32.3054 20.3446 32.3029C22.0868 32.2877 23.8264 32.2953 25.566 32.2953Z" fill="#04A2D8"/>
</svg>
