<svg width="66" height="66" viewBox="0 0 66 66" fill="none" xmlns="http://www.w3.org/2000/svg">
<path d="M33 66C51.2254 66 66 51.2254 66 33C66 14.7746 51.2254 0 33 0C14.7746 0 0 14.7746 0 33C0 51.2254 14.7746 66 33 66Z" fill="#E5E5E5"/>
<path d="M53.2194 10C53.7822 10 54.3449 10 54.9052 10C54.9881 10.0327 55.071 10.0804 55.1564 10.0955C57.6511 10.5628 59.5906 12.4771 60.1157 14.9945C60.6181 17.4037 59.5579 19.9738 57.4677 21.3631C55.895 22.4082 54.1816 22.6469 52.3652 22.1796C52.1693 22.1294 51.9909 22.0113 51.8628 22.2952C51.6568 22.7474 51.4206 23.1896 51.192 23.6518C54.3625 25.6165 56.2065 28.3951 56.3347 32.1459C56.4628 35.8892 54.8122 38.7809 51.7372 40.9942C53.3149 41.0395 54.6389 41.5067 55.7845 42.4664C55.8975 42.5594 56.1035 42.5694 56.2668 42.5694C57.8446 42.5795 59.4223 42.5795 61 42.5845C61 47.2474 61 51.9127 61 56.5755C59.9423 56.5655 58.8821 56.5479 57.8245 56.5454C54.865 56.5403 51.903 56.5429 48.9435 56.5479C48.7726 56.5479 48.4938 56.5705 48.4486 56.6685C48.1194 57.382 47.5215 57.7663 46.8507 58.0754C46.5065 58.0754 46.1624 58.0754 45.8207 58.0754C45.2529 57.8467 44.6625 57.6056 44.3836 57.0252C44.1726 56.5881 43.8862 56.5152 43.4641 56.5353C42.5045 56.578 41.7005 56.2364 41.2282 55.3696C41.0448 55.0355 40.8438 54.9676 40.5047 54.9676C31.9628 54.9752 23.4235 54.9601 14.8817 54.9903C13.7185 54.9953 13.0025 54.2516 13.005 53.1312C13.0251 39.8989 13.0276 26.6616 13 13.4268C12.9975 12.1706 13.7713 11.4973 14.9345 11.5199C17.1955 11.5652 19.4616 11.5325 21.7252 11.5325C21.9086 11.5325 22.0895 11.5325 22.2855 11.5325C22.3357 10.7336 22.808 10.314 23.416 10C27.3226 10 31.2267 10 35.1334 10C35.7539 10.3216 36.1986 10.7813 36.2714 11.5325C36.4875 11.5325 36.6558 11.5325 36.8267 11.5325C39.1204 11.5325 41.4166 11.53 43.7104 11.5325C44.9213 11.535 45.5293 12.143 45.5293 13.3464C45.5293 16.1928 45.5293 19.0393 45.5293 21.8857C45.5293 22.0515 45.5293 22.2173 45.5293 22.4133C46.9437 22.3379 48.2626 22.5062 49.5464 22.9434C49.6243 22.971 49.8002 22.8981 49.8404 22.8228C50.0991 22.348 50.3303 21.8581 50.5564 21.4058C50.5162 21.338 50.5112 21.3229 50.5011 21.3129C50.4157 21.2451 50.3278 21.1797 50.2448 21.1119C48.3606 19.5668 47.5265 17.567 47.9335 15.1728C48.3581 12.6831 49.873 11.0426 52.2773 10.2512C52.5863 10.1507 52.9054 10.0829 53.2194 10ZM40.8589 16.2305C33.1009 16.2305 25.4108 16.2305 17.7106 16.2305C17.7106 27.5936 17.7106 38.9291 17.7106 50.2998C17.9442 50.2998 18.1452 50.2998 18.3462 50.2998C25.0766 50.2998 31.8071 50.2923 38.54 50.3149C39.153 50.3174 39.6279 50.247 39.859 49.6139C39.869 49.5863 39.8716 49.5562 39.8791 49.5185C39.1154 48.4884 39.1455 47.4508 39.8942 46.4409C39.2108 45.4184 39.153 44.4487 39.7083 43.6146C40.3539 42.6423 41.3287 42.4865 42.3889 42.587C42.4492 42.3082 42.4969 42.0871 42.5446 41.8735C42.4793 41.8308 42.4442 41.7982 42.4014 41.7806C38.3918 40.0999 35.6308 35.7888 36.3493 31.0531C36.387 30.8119 36.3167 30.6863 36.0755 30.6059C35.5278 30.425 34.9877 30.2265 34.455 30.0004C34.1862 29.8874 34.0506 29.9527 33.8822 30.1763C33.1361 31.1485 32.1488 31.6887 30.9127 31.7038C29.3124 31.7213 28.1014 31.0078 27.3804 29.5909C26.6594 28.174 26.7875 26.757 27.7472 25.4858C28.6994 24.2246 30.0233 23.7548 31.5609 24.0237C33.4325 24.3503 34.7389 26.0511 34.6862 27.968C34.6811 28.1388 34.744 28.4202 34.8545 28.4679C35.4775 28.7367 36.1232 28.9503 36.7513 29.1789C36.799 29.1111 36.8216 29.0885 36.8317 29.0608C37.5979 27.0259 38.8616 25.3828 40.6453 24.1367C40.7735 24.0463 40.8514 23.8026 40.8539 23.6267C40.8715 22.4233 40.8639 21.2174 40.8639 20.0115C40.8589 18.7654 40.8589 17.5168 40.8589 16.2305ZM16.1454 51.875C16.1454 39.4291 16.1454 27.0485 16.1454 14.6226C18.203 14.6226 20.2254 14.6226 22.2603 14.6226C22.2603 14.09 22.2603 13.6026 22.2603 13.1303C19.6852 13.1303 17.1478 13.1303 14.6179 13.1303C14.6179 26.5636 14.6179 39.9642 14.6179 53.3648C23.406 53.3648 32.1613 53.3648 40.7835 53.3648C40.4368 53.0307 39.9871 52.6915 39.6706 52.2544C39.4696 51.978 39.3113 51.87 38.9772 51.87C31.5609 51.88 24.1421 51.8775 16.7257 51.8775C16.5398 51.875 16.3539 51.875 16.1454 51.875ZM48.6345 54.9425C50.7172 54.9425 52.7496 54.9425 54.777 54.9425C54.7921 54.8747 54.8022 54.8445 54.8022 54.8144C54.8047 51.1992 54.8097 47.584 54.7946 43.9713C54.7946 43.8055 54.664 43.5894 54.5258 43.4839C53.7495 42.881 52.8576 42.582 51.8753 42.582C49.3756 42.577 46.8784 42.5795 44.3786 42.582C44.258 42.582 44.1374 42.5971 44.0169 42.6071C44.0445 43.4739 44.6299 44.0793 45.4589 44.0969C46.2076 44.112 46.9588 44.102 47.7074 44.102C48.436 44.102 48.431 44.102 48.6219 44.7928C48.946 45.9711 49.6921 46.7474 50.8629 47.0941C51.1267 47.172 51.4055 47.1971 51.6869 47.2473C51.6869 47.7548 51.6869 48.2498 51.6869 48.8502C51.1166 48.7221 50.574 48.6542 50.074 48.4708C49.5766 48.2874 49.1193 47.986 48.6345 47.7272C48.6345 50.129 48.6345 52.5207 48.6345 54.9425ZM49.0364 24.4608C44.8635 22.878 40.0047 25.1642 38.3566 29.4251C36.686 33.7488 38.8239 38.6678 43.13 40.3963C47.4537 42.1323 52.4104 40.027 54.1615 35.7209C55.9503 31.3244 53.7344 26.7972 50.4609 25.124C50.3504 25.3426 50.2373 25.5637 50.1268 25.7848C50.0187 26.0033 49.9132 26.2219 49.8052 26.443C49.9007 26.5133 49.9484 26.551 50.0012 26.5837C52.8426 28.4755 53.9806 31.8017 52.8325 34.9069C51.6668 38.0599 48.431 39.8436 45.2805 39.404C41.188 38.8337 38.4144 34.5829 39.5927 30.5581C40.6554 26.9279 44.2907 24.8301 47.9913 25.6968C48.1345 25.7295 48.3857 25.6943 48.446 25.6014C48.6696 25.2522 48.8329 24.8653 49.0364 24.4608ZM54.0233 20.8355C56.5733 20.8456 58.6535 18.7805 58.6636 16.2355C58.6711 13.6453 56.6211 11.5752 54.046 11.5727C51.4884 11.5702 49.4283 13.6051 49.3932 16.1677C49.3555 18.7152 51.4507 20.8255 54.0233 20.8355ZM49.0716 27.9077C48.6269 28.797 48.1923 29.6889 47.7325 30.5707C47.5969 30.832 47.612 30.9903 47.818 31.2164C48.4963 31.965 48.7676 32.8544 48.5566 33.8593C48.2275 35.437 46.7955 36.5198 45.2579 36.3691C43.6576 36.2133 42.4793 34.927 42.4291 33.289C42.4241 33.1634 42.3939 32.9624 42.3185 32.9323C41.8713 32.7413 41.4091 32.5881 40.9343 32.4172C40.771 34.5602 42.3939 37.3991 45.5644 37.8539C48.127 38.2207 50.6317 36.6706 51.4508 34.1181C52.3125 31.4274 50.8428 28.802 49.0716 27.9077ZM59.4097 44.1522C58.3822 44.1522 57.4049 44.1522 56.4 44.1522C56.4 47.7624 56.4 51.3474 56.4 54.9501C57.4124 54.9501 58.4023 54.9501 59.4097 54.9501C59.4097 51.3474 59.4097 47.7749 59.4097 44.1522ZM34.651 11.6054C31.0358 11.6054 27.4734 11.6054 23.9059 11.6054C23.9059 12.6279 23.9059 13.6152 23.9059 14.6C27.506 14.6 31.0685 14.6 34.651 14.6C34.651 13.5876 34.651 12.6103 34.651 11.6054ZM42.4316 23.1494C42.8511 23.0137 43.1978 22.863 43.5596 22.7926C43.8988 22.7273 43.9616 22.5615 43.9591 22.2475C43.9465 19.3407 43.9515 16.4315 43.9515 13.5248C43.9515 13.3916 43.9314 13.2559 43.9239 13.1278C41.3513 13.1278 38.8139 13.1278 36.2765 13.1278C36.2765 13.6353 36.2765 14.1126 36.2765 14.6478C38.3391 14.6478 40.374 14.6478 42.4341 14.6478C42.4316 17.5017 42.4316 20.2979 42.4316 23.1494ZM33.126 27.8298C33.121 26.5561 32.0608 25.4984 30.7996 25.5109C29.5334 25.526 28.4758 26.6038 28.4959 27.8599C28.516 29.1186 29.551 30.1411 30.8047 30.1486C32.0809 30.1562 33.1285 29.106 33.126 27.8298ZM45.5293 45.6948C45.5293 45.9083 45.5293 46.0791 45.5293 46.2475C45.5293 48.6392 45.5293 51.0309 45.5293 53.4251C45.5293 54.1913 45.5192 54.9576 45.5343 55.7238C45.5418 56.2012 45.8483 56.4976 46.2905 56.5001C46.7352 56.5027 47.0241 56.2112 47.0492 55.7289C47.0517 55.6661 47.0517 55.6033 47.0517 55.5405C47.0517 52.3976 47.0517 49.2547 47.0517 46.1118C47.0517 45.9761 47.0341 45.843 47.0216 45.6948C46.5216 45.6948 46.0568 45.6948 45.5293 45.6948ZM42.9667 31.4827C43.7003 30.5632 44.5922 30.0858 45.7227 30.1838C46.082 30.2165 46.2603 30.1059 46.386 29.7844C46.5116 29.4653 46.6874 29.1688 46.8407 28.8623C47.0994 28.3398 47.3582 27.8147 47.6195 27.2821C44.6927 26.4053 41.7281 28.5131 41.2081 30.8345C41.7884 31.0455 42.3688 31.2616 42.9667 31.4827ZM47.0467 33.2538C47.0442 32.3921 46.3483 31.7038 45.4991 31.7188C44.665 31.7339 43.9942 32.4097 43.9842 33.2463C43.9741 34.103 44.6575 34.7939 45.5142 34.7964C46.3784 34.7989 47.0492 34.1206 47.0467 33.2538ZM43.9239 51.87C43.9239 51.3298 43.9239 50.8525 43.9239 50.3425C43.1476 50.3425 42.4014 50.3274 41.6553 50.3475C41.1955 50.3601 40.9066 50.6591 40.8941 51.0711C40.8815 51.4982 41.1805 51.8449 41.6503 51.8624C42.3939 51.8901 43.1426 51.87 43.9239 51.87ZM43.939 47.2448C43.1325 47.2448 42.3713 47.2323 41.6076 47.2499C41.1905 47.2599 40.9518 47.5111 40.9016 47.9232C40.8539 48.3201 41.095 48.7045 41.5121 48.7296C42.3135 48.7773 43.12 48.7447 43.939 48.7447C43.939 48.2447 43.939 47.78 43.939 47.2448ZM43.9942 45.6646C43.9339 45.4611 43.9289 45.2752 43.836 45.1697C43.5521 44.8456 43.238 44.5466 42.924 44.2502C42.8537 44.1823 42.7381 44.1346 42.6426 44.1321C42.301 44.1221 41.9568 44.1145 41.6176 44.1421C41.1629 44.1823 40.889 44.4888 40.8941 44.9009C40.8991 45.3079 41.1855 45.6395 41.6327 45.6546C42.3914 45.6872 43.1501 45.6646 43.9942 45.6646ZM43.9239 54.9676C43.9239 54.435 43.9239 53.9577 43.9239 53.4552C43.4265 53.4779 42.8813 53.2668 42.5798 53.7919C42.4643 53.9954 42.4542 54.3647 42.5622 54.5707C42.8486 55.1234 43.4039 54.9651 43.9239 54.9676Z" fill="#012D3A"/>
<path d="M40.8589 16.2306C40.8589 17.5169 40.8589 18.7655 40.8589 20.0166C40.8589 21.2225 40.8664 22.4259 40.8488 23.6318C40.8463 23.8052 40.7684 24.0514 40.6403 24.1418C38.8566 25.3879 37.5904 27.031 36.8266 29.0659C36.8166 29.0936 36.794 29.1162 36.7462 29.184C36.1207 28.9554 35.4725 28.7418 34.8494 28.473C34.7389 28.4253 34.6761 28.1439 34.6811 27.9731C34.7339 26.0562 33.4275 24.3554 31.5558 24.0288C30.0183 23.76 28.6968 24.2298 27.7421 25.4909C26.7799 26.7622 26.6543 28.1791 27.3753 29.596C28.0964 31.013 29.3073 31.7265 30.9076 31.7089C32.1437 31.6963 33.131 31.1562 33.8772 30.1814C34.048 29.9578 34.1812 29.8925 34.45 30.0055C34.9801 30.2291 35.5227 30.4276 36.0704 30.611C36.3141 30.6914 36.3819 30.8145 36.3443 31.0582C35.6257 35.7939 38.3868 40.105 42.3964 41.7857C42.4391 41.8033 42.4743 41.8359 42.5396 41.8787C42.4944 42.0897 42.4466 42.3108 42.3838 42.5921C41.3236 42.4917 40.3489 42.6499 39.7032 43.6197C39.148 44.4538 39.2058 45.426 39.8891 46.446C39.143 47.456 39.1103 48.4961 39.874 49.5236C39.8665 49.5613 39.864 49.5914 39.8539 49.619C39.6253 50.2521 39.1505 50.3225 38.535 50.32C31.8045 50.2974 25.0741 50.3049 18.3411 50.3049C18.1401 50.3049 17.9391 50.3049 17.7055 50.3049C17.7055 38.9342 17.7055 27.5987 17.7055 16.2356C25.4107 16.2306 33.1009 16.2306 40.8589 16.2306ZM23.8255 42.5595C23.8255 40.9868 23.8255 39.4543 23.8255 37.9369C22.2628 37.9369 20.7454 37.9369 19.233 37.9369C19.233 39.497 19.233 41.0194 19.233 42.5595C20.773 42.5595 22.2804 42.5595 23.8255 42.5595ZM19.2405 31.7189C19.2405 33.2866 19.2405 34.8191 19.2405 36.3415C20.7956 36.3415 22.3156 36.3415 23.8355 36.3415C23.8355 34.7839 23.8355 33.2615 23.8355 31.7189C22.2955 31.7189 20.7881 31.7189 19.2405 31.7189ZM23.8405 48.7624C23.8405 47.1947 23.8405 45.6722 23.8405 44.1272C22.293 44.1272 20.7755 44.1272 19.238 44.1272C19.238 45.6823 19.238 47.2173 19.238 48.7624C20.778 48.7624 22.2879 48.7624 23.8405 48.7624ZM28.4707 17.7782C25.358 17.7782 22.293 17.7782 19.228 17.7782C19.228 18.2982 19.228 18.7781 19.228 19.2755C22.3181 19.2755 25.3831 19.2755 28.4707 19.2755C28.4707 18.768 28.4707 18.2882 28.4707 17.7782ZM25.4132 47.2047C28.5034 47.2047 31.5709 47.2047 34.6485 47.2047C34.6485 46.6847 34.6485 46.1948 34.6485 45.7074C31.5483 45.7074 28.4833 45.7074 25.4132 45.7074C25.4132 46.2224 25.4132 46.6998 25.4132 47.2047ZM34.661 33.3017C31.5407 33.3017 28.4782 33.3017 25.4208 33.3017C25.4208 33.8217 25.4208 34.299 25.4208 34.7814C28.5134 34.7814 31.5784 34.7814 34.661 34.7814C34.661 34.2739 34.661 33.7966 34.661 33.3017ZM34.6686 39.4995C31.5558 39.4995 28.4933 39.4995 25.4283 39.4995C25.4283 40.0196 25.4283 40.5069 25.4283 40.9818C28.531 40.9818 31.5935 40.9818 34.6686 40.9818C34.6686 40.4718 34.6686 40.007 34.6686 39.4995ZM26.9483 20.8809C24.3505 20.8809 21.788 20.8809 19.228 20.8809C19.228 21.3984 19.228 21.8782 19.228 22.3656C21.8131 22.3656 24.3731 22.3656 26.9483 22.3656C26.9483 21.8632 26.9483 21.3984 26.9483 20.8809ZM25.3555 25.4884C25.3555 24.9533 25.3555 24.4634 25.3555 23.9735C23.2954 23.9735 21.2755 23.9735 19.233 23.9735C19.233 24.491 19.233 24.9809 19.233 25.4884C21.283 25.4884 23.3054 25.4884 25.3555 25.4884ZM23.8305 28.5811C23.8305 28.066 23.8305 27.5786 23.8305 27.0938C23.3029 27.0938 22.8155 27.0938 22.3231 27.0938C22.3231 27.6113 22.3231 28.0886 22.3231 28.5811C22.8406 28.5811 23.328 28.5811 23.8305 28.5811ZM20.7554 27.0837C20.2228 27.0837 19.7329 27.0837 19.2355 27.0837C19.2355 27.6038 19.2355 28.0937 19.2355 28.571C19.7606 28.571 20.248 28.571 20.7554 28.571C20.7554 28.0685 20.7554 27.6063 20.7554 27.0837Z" fill="white"/>
<path d="M16.1454 51.875C16.3539 51.875 16.5398 51.875 16.7232 51.875C24.1395 51.875 31.5584 51.8775 38.9747 51.8675C39.3088 51.8675 39.4671 51.9755 39.6681 52.2518C39.9846 52.689 40.4343 53.0281 40.781 53.3623C32.1588 53.3623 23.4034 53.3623 14.6154 53.3623C14.6154 39.9617 14.6154 26.5636 14.6154 13.1278C17.1453 13.1278 19.6827 13.1278 22.2578 13.1278C22.2578 13.6001 22.2578 14.0875 22.2578 14.6201C20.2254 14.6201 18.203 14.6201 16.1429 14.6201C16.1454 27.0485 16.1454 39.4291 16.1454 51.875Z" fill="#2661AE"/>
<path d="M48.6345 54.9426C48.6345 52.5207 48.6345 50.1315 48.6345 47.7248C49.1218 47.981 49.5766 48.285 50.074 48.4684C50.5739 48.6518 51.1166 48.7196 51.6869 48.8478C51.6869 48.2473 51.6869 47.7549 51.6869 47.2449C51.4055 47.1947 51.1267 47.1695 50.8629 47.0917C49.6896 46.745 48.946 45.9712 48.6219 44.7904C48.4335 44.0995 48.436 44.0995 47.7074 44.0995C46.9587 44.0995 46.2076 44.1096 45.4589 44.0945C44.6298 44.0769 44.0445 43.4714 44.0168 42.6047C44.1374 42.5971 44.258 42.5796 44.3786 42.5796C46.8784 42.577 49.3756 42.5745 51.8753 42.5796C52.8576 42.5821 53.7495 42.881 54.5258 43.4815C54.664 43.587 54.7946 43.8031 54.7946 43.9689C54.8097 47.5841 54.8047 51.1967 54.8021 54.8119C54.8021 54.8421 54.7896 54.8722 54.777 54.9401C52.7521 54.9426 50.7171 54.9426 48.6345 54.9426Z" fill="white"/>
<path d="M49.0365 24.4609C48.833 24.8654 48.6697 25.2523 48.4461 25.604C48.3858 25.697 48.1346 25.7321 47.9914 25.6995C44.2907 24.8327 40.6554 26.9305 39.5927 30.5608C38.4145 34.5855 41.1881 38.8363 45.2806 39.4066C48.431 39.8462 51.6669 38.0625 52.8326 34.9096C53.9807 31.8044 52.8426 28.4781 50.0012 26.5863C49.951 26.5512 49.9007 26.5135 49.8052 26.4456C49.9133 26.2246 50.0163 26.006 50.1268 25.7874C50.2374 25.5663 50.3504 25.3478 50.461 25.1267C53.7345 26.7974 55.9478 31.327 54.1616 35.7236C52.4105 40.0296 47.4537 42.1349 43.1301 40.3989C38.824 38.6705 36.686 33.7514 38.3567 29.4277C40.0023 25.1644 44.861 22.8782 49.0365 24.4609Z" fill="white"/>
<path d="M54.0233 20.8356C51.4507 20.8256 49.358 18.7152 49.3906 16.1678C49.4258 13.6077 51.4859 11.5702 54.0434 11.5728C56.621 11.5753 58.6711 13.6454 58.661 16.2356C58.6535 18.7805 56.5708 20.8457 54.0233 20.8356Z" fill="#04A2D8"/>
<path d="M59.4097 44.1522C59.4097 47.775 59.4097 51.3474 59.4097 54.9501C58.4023 54.9501 57.4149 54.9501 56.4 54.9501C56.4 51.3474 56.4 47.7624 56.4 44.1522C57.4074 44.1522 58.3847 44.1522 59.4097 44.1522Z" fill="#04A2D8"/>
<path d="M34.651 11.6053C34.651 12.6103 34.651 13.5901 34.651 14.6C31.071 14.6 27.5085 14.6 23.9059 14.6C23.9059 13.6177 23.9059 12.6279 23.9059 11.6053C27.4733 11.6053 31.0358 11.6053 34.651 11.6053Z" fill="#2661AE"/>
<path d="M42.4316 23.1493C42.4316 20.2979 42.4316 17.5017 42.4316 14.6452C40.3715 14.6452 38.3365 14.6452 36.2739 14.6452C36.2739 14.1101 36.2739 13.6327 36.2739 13.1252C38.8139 13.1252 41.3488 13.1252 43.9214 13.1252C43.9314 13.2534 43.949 13.389 43.949 13.5222C43.9515 16.4289 43.9465 19.3382 43.9565 22.2449C43.9565 22.5589 43.8937 22.7247 43.5571 22.7901C43.1978 22.8629 42.8536 23.0137 42.4316 23.1493Z" fill="#2661AE"/>
<path d="M33.126 27.8297C33.131 29.1085 32.0809 30.1561 30.8046 30.1486C29.5485 30.141 28.5159 29.1185 28.4958 27.8599C28.4757 26.6037 29.5309 25.5259 30.7996 25.5109C32.0608 25.4983 33.121 26.556 33.126 27.8297Z" fill="#04A2D8"/>
<path d="M45.5293 45.6948C46.0594 45.6948 46.5216 45.6948 47.0191 45.6948C47.0291 45.843 47.0492 45.9787 47.0492 46.1119C47.0517 49.2548 47.0492 52.3976 47.0492 55.5405C47.0492 55.6033 47.0517 55.6661 47.0467 55.7289C47.0216 56.2113 46.7327 56.5027 46.288 56.5002C45.8458 56.4977 45.5419 56.2013 45.5318 55.7239C45.5192 54.9577 45.5268 54.1914 45.5268 53.4252C45.5268 51.0335 45.5268 48.6418 45.5268 46.2475C45.5293 46.0767 45.5293 45.9084 45.5293 45.6948Z" fill="white"/>
<path d="M47.0467 33.2539C47.0492 34.1206 46.3785 34.7989 45.5167 34.7964C44.66 34.7939 43.9767 34.103 43.9867 33.2463C43.9968 32.4072 44.6651 31.7314 45.5017 31.7189C46.3483 31.7038 47.0442 32.3947 47.0467 33.2539Z" fill="#04A2D8"/>
<path d="M43.9239 51.8699C43.1426 51.8699 42.3964 51.89 41.6503 51.8624C41.1805 51.8448 40.8815 51.4981 40.8941 51.071C40.9066 50.659 41.193 50.3575 41.6553 50.3475C42.4014 50.3274 43.1476 50.3425 43.9239 50.3425C43.9239 50.8525 43.9239 51.3298 43.9239 51.8699Z" fill="white"/>
<path d="M43.9389 47.2449C43.9389 47.7801 43.9389 48.2448 43.9389 48.7448C43.1199 48.7448 42.3135 48.78 41.512 48.7297C41.095 48.7046 40.8538 48.3202 40.9015 47.9233C40.9518 47.5112 41.1905 47.26 41.6075 47.25C42.3687 47.2324 43.1325 47.2449 43.9389 47.2449Z" fill="white"/>
<path d="M43.9943 45.6647C43.1502 45.6647 42.3914 45.6847 41.6327 45.6571C41.183 45.6395 40.8991 45.3104 40.8941 44.9034C40.8891 44.4889 41.1629 44.1824 41.6177 44.1447C41.9568 44.1146 42.301 44.1221 42.6427 44.1347C42.7381 44.1372 42.8537 44.1874 42.924 44.2527C43.2381 44.5492 43.5521 44.8482 43.836 45.1722C43.929 45.2778 43.9315 45.4612 43.9943 45.6647Z" fill="white"/>
<path d="M43.9239 54.9675C43.4063 54.965 42.8486 55.1233 42.5622 54.5706C42.4542 54.3646 42.4642 53.9952 42.5798 53.7917C42.8813 53.2667 43.4264 53.4777 43.9239 53.4551C43.9239 53.9576 43.9239 54.4349 43.9239 54.9675Z" fill="white"/>
<path d="M23.8255 42.5593C22.2805 42.5593 20.7731 42.5593 19.233 42.5593C19.233 41.0192 19.233 39.4968 19.233 37.9366C20.7429 37.9366 22.2629 37.9366 23.8255 37.9366C23.8255 39.4541 23.8255 40.9866 23.8255 42.5593ZM20.8133 39.4968C20.8133 40.0244 20.8133 40.4992 20.8133 40.9615C21.3258 40.9615 21.8006 40.9615 22.2604 40.9615C22.2604 40.4489 22.2604 39.9716 22.2604 39.4968C21.7604 39.4968 21.2981 39.4968 20.8133 39.4968Z" fill="#012D3A"/>
<path d="M19.2406 31.7189C20.7882 31.7189 22.2956 31.7189 23.8356 31.7189C23.8356 33.2614 23.8356 34.7814 23.8356 36.3415C22.3131 36.3415 20.7957 36.3415 19.2406 36.3415C19.2406 34.8216 19.2406 33.2865 19.2406 31.7189ZM20.8083 33.2941C20.8083 33.8166 20.8083 34.2915 20.8083 34.7663C21.3158 34.7663 21.7906 34.7663 22.2654 34.7663C22.2654 34.2588 22.2654 33.784 22.2654 33.2941C21.7705 33.2941 21.3082 33.2941 20.8083 33.2941Z" fill="#012D3A"/>
<path d="M23.8406 48.7619C22.288 48.7619 20.7781 48.7619 19.238 48.7619C19.238 47.2143 19.238 45.6818 19.238 44.1267C20.7756 44.1267 22.293 44.1267 23.8406 44.1267C23.8406 45.6718 23.8406 47.1942 23.8406 48.7619ZM20.8032 45.6969C20.8032 46.2069 20.8032 46.6817 20.8032 47.1716C21.3057 47.1716 21.7805 47.1716 22.2704 47.1716C22.2704 46.6666 22.2704 46.1918 22.2704 45.6969C21.7805 45.6969 21.3182 45.6969 20.8032 45.6969Z" fill="#012D3A"/>
<path d="M28.4707 17.7781C28.4707 18.2906 28.4707 18.7704 28.4707 19.2754C25.3831 19.2754 22.3181 19.2754 19.228 19.2754C19.228 18.7755 19.228 18.2981 19.228 17.7781C22.293 17.7781 25.358 17.7781 28.4707 17.7781Z" fill="#012D3A"/>
<path d="M25.4133 47.2046C25.4133 46.6996 25.4133 46.2223 25.4133 45.7073C28.4833 45.7073 31.5483 45.7073 34.6485 45.7073C34.6485 46.1947 34.6485 46.6846 34.6485 47.2046C31.5709 47.2046 28.5034 47.2046 25.4133 47.2046Z" fill="#012D3A"/>
<path d="M34.6611 33.3016C34.6611 33.7966 34.6611 34.2739 34.6611 34.7814C31.5785 34.7814 28.516 34.7814 25.4208 34.7814C25.4208 34.2965 25.4208 33.8192 25.4208 33.3016C28.4783 33.3016 31.5408 33.3016 34.6611 33.3016Z" fill="#012D3A"/>
<path d="M34.6686 39.4995C34.6686 40.007 34.6686 40.4743 34.6686 40.9818C31.5935 40.9818 28.531 40.9818 25.4283 40.9818C25.4283 40.5069 25.4283 40.0196 25.4283 39.4995C28.4933 39.4995 31.5558 39.4995 34.6686 39.4995Z" fill="#012D3A"/>
<path d="M26.9483 20.8809C26.9483 21.3984 26.9483 21.8632 26.9483 22.3656C24.3732 22.3656 21.8131 22.3656 19.228 22.3656C19.228 21.8782 19.228 21.3984 19.228 20.8809C21.788 20.8809 24.3505 20.8809 26.9483 20.8809Z" fill="#012D3A"/>
<path d="M25.3555 25.4884C23.3055 25.4884 21.2831 25.4884 19.233 25.4884C19.233 24.9809 19.233 24.491 19.233 23.9735C21.2755 23.9735 23.2954 23.9735 25.3555 23.9735C25.3555 24.4634 25.3555 24.9508 25.3555 25.4884Z" fill="#012D3A"/>
<path d="M23.8306 28.5809C23.3306 28.5809 22.8407 28.5809 22.3232 28.5809C22.3232 28.086 22.3232 27.6112 22.3232 27.0936C22.8156 27.0936 23.303 27.0936 23.8306 27.0936C23.8306 27.5785 23.8306 28.0634 23.8306 28.5809Z" fill="#012D3A"/>
<path d="M20.7555 27.0836C20.7555 27.6062 20.7555 28.0684 20.7555 28.5709C20.2506 28.5709 19.7607 28.5709 19.2356 28.5709C19.2356 28.0936 19.2356 27.6062 19.2356 27.0836C19.7355 27.0836 20.2229 27.0836 20.7555 27.0836Z" fill="#012D3A"/>
<path d="M20.8132 39.4969C21.2981 39.4969 21.7604 39.4969 22.2603 39.4969C22.2603 39.9718 22.2603 40.4466 22.2603 40.9616C21.8006 40.9616 21.3257 40.9616 20.8132 40.9616C20.8132 40.5019 20.8132 40.027 20.8132 39.4969Z" fill="white"/>
<path d="M20.8082 33.2941C21.3081 33.2941 21.7704 33.2941 22.2653 33.2941C22.2653 33.784 22.2653 34.2588 22.2653 34.7663C21.7905 34.7663 21.3157 34.7663 20.8082 34.7663C20.8082 34.2915 20.8082 33.8166 20.8082 33.2941Z" fill="white"/>
<path d="M20.8032 45.697C21.3157 45.697 21.7805 45.697 22.2704 45.697C22.2704 46.1919 22.2704 46.6693 22.2704 47.1717C21.7805 47.1717 21.3082 47.1717 20.8032 47.1717C20.8032 46.6818 20.8032 46.207 20.8032 45.697Z" fill="white"/>
</svg>
