<svg width="66" height="66" viewBox="0 0 66 66" fill="none" xmlns="http://www.w3.org/2000/svg">
<path d="M33 66C51.2254 66 66 51.2254 66 33C66 14.7746 51.2254 0 33 0C14.7746 0 0 14.7746 0 33C0 51.2254 14.7746 66 33 66Z" fill="#E5E5E5"/>
<path d="M13.5897 40.1698C13.2891 40.1698 13.0497 40.1698 12.7695 40.1698C12.6523 38.8504 11.8882 38.0099 10.8617 37.2534C8.78321 35.72 8.0369 33.0175 8.91057 30.6257C9.78424 28.2391 12.1098 26.6649 14.6518 26.7464C17.0818 26.8254 19.2519 28.4581 20.011 30.7811C20.7955 33.1779 20.0466 35.7556 18.0115 37.2559C16.9875 38.0099 16.2158 38.8504 16.1062 40.1673C15.8235 40.1673 15.5841 40.1673 15.2886 40.1673C15.2886 39.8871 15.2886 39.6298 15.2886 39.3726C15.2886 38.3384 15.3115 37.3043 15.281 36.2702C15.2606 35.5442 15.2911 34.9788 16.0553 34.4999C17.0105 33.8988 17.2091 32.6634 16.771 31.6318C16.3329 30.6002 15.2759 29.9813 14.1475 30.0959C13.0904 30.2029 12.1811 31.046 11.9442 32.1362C11.7252 33.1525 12.2295 34.2809 13.1974 34.8005C13.5107 34.9686 13.6024 35.1494 13.5973 35.4856C13.5795 37.0292 13.5897 38.5702 13.5897 40.1698Z" fill="white"/>
<path d="M43.9337 27.5922C45.0391 27.5922 46.1038 27.5922 47.2093 27.5922C47.2093 29.2554 47.2093 30.906 47.2093 32.5871C46.1293 32.5871 45.0518 32.5871 43.9337 32.5871C43.9337 30.9442 43.9337 29.2936 43.9337 27.5922Z" fill="white"/>
<path d="M52.2832 27.6176C52.2832 29.2936 52.2832 30.9186 52.2832 32.5819C51.1777 32.5819 50.0876 32.5819 48.9694 32.5819C48.9694 30.9314 48.9694 29.2936 48.9694 27.6176C50.0621 27.6176 51.1523 27.6176 52.2832 27.6176Z" fill="white"/>
<path d="M57.3062 32.6074C56.2007 32.6074 55.136 32.6074 54.0306 32.6074C54.0306 30.9466 54.0306 29.2961 54.0306 27.6124C55.1106 27.6124 56.188 27.6124 57.3062 27.6124C57.3062 29.2553 57.3062 30.9059 57.3062 32.6074Z" fill="white"/>
<path d="M43.926 34.3369C45.0289 34.3369 46.1064 34.3369 47.2169 34.3369C47.2169 35.9926 47.2169 37.6304 47.2169 39.3115C46.1395 39.3115 45.0493 39.3115 43.926 39.3115C43.926 37.6737 43.926 36.0359 43.926 34.3369Z" fill="white"/>
<path d="M52.2756 34.342C52.2756 36.013 52.2756 37.6508 52.2756 39.3191C51.1753 39.3191 50.0978 39.3191 48.9822 39.3191C48.9822 37.6737 48.9822 36.0231 48.9822 34.342C50.0622 34.342 51.1396 34.342 52.2756 34.342Z" fill="white"/>
<path d="M57.3037 39.3369C56.2058 39.3369 55.1411 39.3369 54.0331 39.3369C54.0331 37.6812 54.0331 36.0307 54.0331 34.347C55.1055 34.347 56.1829 34.347 57.3037 34.347C57.3037 35.9823 57.3037 37.6328 57.3037 39.3369Z" fill="white"/>
<path d="M25.4949 17.3807C27.0766 15.6792 27.5682 14.6349 27.5428 11.9375C29.6645 12.0597 31.4857 11.3873 32.9427 9.724C34.3844 11.3414 36.1826 12.075 38.4088 11.9196C38.1949 14.1382 38.8826 15.9874 40.5153 17.4367C38.6279 19.7113 38.6279 19.7113 38.256 22.7449C37.2626 22.9691 36.2463 23.0532 35.3599 23.4352C34.471 23.8198 33.7068 24.4974 32.8255 25.0909C31.5087 23.6033 29.7078 22.885 27.6778 23.0226C27.4816 21.9604 27.4332 20.9059 27.0741 19.9737C26.72 19.0516 26.0476 18.2569 25.4949 17.3807ZM38.0293 17.5131C38.0319 14.6756 35.8057 12.4036 33.0115 12.3985C30.1383 12.3908 27.8739 14.6145 27.8713 17.4444C27.8688 20.2819 30.0975 22.5539 32.8892 22.559C35.7598 22.5641 38.0268 20.3405 38.0293 17.5131Z" fill="white"/>
<path d="M37.1278 43.6086C37.1278 44.8796 37.1278 46.1023 37.1278 47.3886C36.0198 47.1721 34.9449 46.9632 33.8012 46.7416C33.8012 50.1675 33.8012 53.5654 33.8012 56.9938C32.6576 56.9938 31.5801 56.9938 30.4415 56.9938C30.4415 53.0228 30.4415 49.0569 30.4415 45.0605C29.8506 45.1675 29.3259 45.2643 28.7706 45.3636C28.7706 44.7574 28.7706 44.2021 28.7706 43.6061C31.5496 43.6086 34.3234 43.6086 37.1278 43.6086Z" fill="#2661AE"/>
<path d="M28.6967 56.9784C26.4807 56.9784 24.2978 56.9784 22.036 56.9784C22.036 56.7899 22.036 56.604 22.036 56.4206C22.036 53.9855 22.0487 51.5504 22.0258 49.1154C22.0207 48.6518 22.1149 48.4633 22.6192 48.3716C24.6417 48.0048 26.6514 47.5744 28.6993 47.1592C28.6967 50.4424 28.6967 53.6798 28.6967 56.9784ZM27.0589 50.31C25.9025 50.31 24.8098 50.31 23.7043 50.31C23.7043 50.8805 23.7043 51.4154 23.7043 51.9554C24.8454 51.9554 25.9509 51.9554 27.0589 51.9554C27.0589 51.3874 27.0589 50.8678 27.0589 50.31ZM27.0615 53.6773C25.9076 53.6773 24.8123 53.6773 23.7043 53.6773C23.7043 54.2479 23.7043 54.7802 23.7043 55.3227C24.8429 55.3227 25.9509 55.3227 27.0615 55.3227C27.0615 54.7547 27.0615 54.2351 27.0615 53.6773Z" fill="#2661AE"/>
<path d="M42.2042 57.0038C39.9474 57.0038 37.7493 57.0038 35.5129 57.0038C35.5129 54.2911 35.5129 51.5861 35.5129 48.8097C36.3865 48.988 37.2475 49.1637 38.111 49.3369C39.3616 49.5866 40.6122 49.826 41.8578 50.096C41.9953 50.1266 42.1889 50.3456 42.1915 50.4781C42.2093 52.6355 42.2042 54.7878 42.2042 57.0038ZM40.4951 55.3253C40.4951 54.7471 40.4951 54.23 40.4951 53.6951C39.3769 53.6951 38.2867 53.6951 37.1914 53.6951C37.1914 54.258 37.1914 54.7878 37.1914 55.3253C38.3071 55.3253 39.3845 55.3253 40.4951 55.3253Z" fill="#2661AE"/>
<path d="M27.0767 31.7365C27.0767 31.1863 27.0767 30.6819 27.0767 30.1394C30.9814 30.1394 34.876 30.1394 38.8037 30.1394C38.8037 30.6641 38.8037 31.1939 38.8037 31.7365C34.8862 31.7365 30.9814 31.7365 27.0767 31.7365Z" fill="#012D3A"/>
<path d="M27.1074 33.4785C27.655 33.4785 28.1593 33.4785 28.7019 33.4785C28.7019 34.016 28.7019 34.5458 28.7019 35.1112C28.1823 35.1112 27.6524 35.1112 27.1074 35.1112C27.1074 34.5636 27.1074 34.0236 27.1074 33.4785Z" fill="#012D3A"/>
<path d="M32.0615 35.1367C31.5139 35.1367 31.0095 35.1367 30.467 35.1367C30.467 34.5993 30.467 34.0695 30.467 33.504C30.9866 33.504 31.5164 33.504 32.0615 33.504C32.0615 34.0517 32.0615 34.5917 32.0615 35.1367Z" fill="#012D3A"/>
<path d="M35.4619 33.5013C35.4619 34.0515 35.4619 34.5559 35.4619 35.1035C34.9295 35.1035 34.3997 35.1035 33.8317 35.1035C33.8317 34.5941 33.8317 34.0643 33.8317 33.5013C34.3564 33.5013 34.8837 33.5013 35.4619 33.5013Z" fill="#012D3A"/>
<path d="M37.1838 35.1189C37.1838 34.5764 37.1838 34.0593 37.1838 33.5066C37.7161 33.5066 38.2434 33.5066 38.8063 33.5066C38.8063 34.0338 38.8063 34.5637 38.8063 35.1189C38.2765 35.1189 37.7594 35.1189 37.1838 35.1189Z" fill="#012D3A"/>
<path d="M38.0294 17.5132C38.0269 20.3431 35.7599 22.5667 32.8893 22.5591C30.0951 22.5514 27.8664 20.2819 27.8715 17.4444C27.874 14.6146 30.141 12.3935 33.0116 12.3986C35.8058 12.4037 38.032 14.6732 38.0294 17.5132ZM32.9555 20.8245C34.7717 20.8219 36.3101 19.2707 36.2974 17.4597C36.2847 15.6589 34.7717 14.1459 32.9734 14.1332C31.1598 14.1179 29.6137 15.6538 29.6061 17.4699C29.5984 19.2835 31.142 20.827 32.9555 20.8245Z" fill="#012D3A"/>
<path d="M27.0589 50.3101C27.0589 50.8653 27.0589 51.3875 27.0589 51.9555C25.9509 51.9555 24.8429 51.9555 23.7043 51.9555C23.7043 51.4155 23.7043 50.8806 23.7043 50.3101C24.8098 50.3101 25.9051 50.3101 27.0589 50.3101Z" fill="#012D3A"/>
<path d="M27.0615 53.6774C27.0615 54.2352 27.0615 54.7574 27.0615 55.3228C25.9509 55.3228 24.8455 55.3228 23.7043 55.3228C23.7043 54.7803 23.7043 54.2479 23.7043 53.6774C24.8123 53.6774 25.9051 53.6774 27.0615 53.6774Z" fill="#012D3A"/>
<path d="M40.4949 55.3254C39.3844 55.3254 38.3069 55.3254 37.1913 55.3254C37.1913 54.7879 37.1913 54.2556 37.1913 53.6952C38.2866 53.6952 39.3767 53.6952 40.4949 53.6952C40.4949 54.2275 40.4949 54.7472 40.4949 55.3254Z" fill="#012D3A"/>
<path d="M32.9556 20.8244C31.142 20.8269 29.5984 19.2834 29.6035 17.4698C29.6086 15.6511 31.1573 14.1178 32.9708 14.133C34.7717 14.1483 36.2821 15.6613 36.2949 17.4596C36.3101 19.2706 34.7691 20.8193 32.9556 20.8244Z" fill="#04A2D8"/>
<path d="M59 41.0104C59 35.9467 59 30.9391 59 25.8957C57.5354 25.8957 56.1039 25.8957 54.6546 25.8957C53.5593 22.4393 51.761 19.4311 49.2648 16.8458C46.7712 14.2655 43.8191 12.3755 40.4416 11.1606C40.6453 10.6282 40.8236 10.1595 41.0325 9.61445C40.3703 9.7469 39.787 9.83351 39.2164 9.97869C36.9265 10.5671 35.1181 9.90737 33.7936 7.93589C33.5439 7.56401 33.2561 7.21251 32.9555 6.81006C32.464 7.45194 32.0386 8.07089 31.5495 8.63635C30.5281 9.82077 29.2265 10.3582 27.6652 10.1341C26.7558 10.0042 25.8541 9.80294 24.8735 9.61955C24.9881 9.9252 25.0773 10.1646 25.1664 10.4041C25.2556 10.6435 25.3473 10.8829 25.4313 11.1096C25.3727 11.158 25.3498 11.1886 25.3192 11.2013C25.2403 11.237 25.1588 11.265 25.0773 11.2956C18.3859 13.9038 13.8317 18.5906 11.4017 25.3532C11.3202 25.5799 11.0935 25.8091 10.8744 25.9288C6.19027 28.4785 5.38282 34.9049 9.47862 38.2824C11.2132 39.7139 11.0477 40.0196 11.0706 41.8968C11.091 43.4582 12.1225 44.7547 13.633 45.1521C13.875 45.2157 14.1399 45.394 14.2851 45.5978C15.8388 47.7934 17.6982 49.6809 19.9091 51.2142C20.2173 51.4282 20.3447 51.6447 20.337 52.0217C20.3116 53.1068 20.3294 54.1944 20.3294 55.282C20.3294 55.8526 20.3294 56.4257 20.3294 57.0523V58.6723C28.1848 58.6723 36.035 58.6723 43.8853 58.6723V57.0421C43.8853 55.5673 43.8777 54.1664 43.898 52.768C43.9006 52.6381 44.0458 52.4623 44.1706 52.3885C47.4819 50.4781 50.1614 47.9132 52.2093 44.6834C52.2985 44.5407 52.5354 44.421 52.706 44.4159C53.4931 44.3879 54.2827 44.4032 55.0723 44.4032C55.8186 44.4032 56.5675 44.4032 57.3061 44.4032C57.3061 43.8046 57.3061 43.2723 57.3061 42.7043C56.7458 42.7043 56.2262 42.7043 55.7015 42.7043C55.7015 42.1312 55.7015 41.6014 55.7015 41.0104C56.8298 41.0104 57.9226 41.0104 59 41.0104ZM32.9428 9.72398C34.3845 11.3414 36.1828 12.075 38.409 11.9196C38.195 14.1382 38.8827 15.9874 40.5154 17.4367C38.628 19.7113 38.628 19.7113 38.2561 22.7449C37.2628 22.9691 36.2464 23.0531 35.36 23.4352C34.4711 23.8198 33.707 24.4974 32.8256 25.0908C31.5088 23.6033 29.708 22.885 27.6779 23.0226C27.4818 21.9604 27.4334 20.9059 27.0742 19.9736C26.7202 19.0567 26.0452 18.262 25.495 17.3832C27.0768 15.6817 27.5684 14.6374 27.5429 11.94C29.6647 12.0597 31.4859 11.3873 32.9428 9.72398ZM10.8617 37.2534C8.78325 35.72 8.03694 33.0175 8.9106 30.6258C9.78427 28.2391 12.1098 26.665 14.6518 26.7465C17.0818 26.8254 19.252 28.4581 20.011 30.7811C20.7955 33.178 20.0467 35.7557 18.0115 37.2559C16.9876 38.0099 16.2158 38.8505 16.1063 40.1673C15.8235 40.1673 15.5841 40.1673 15.2886 40.1673C15.2886 39.8871 15.2886 39.6299 15.2886 39.3726C15.2886 38.3385 15.3116 37.3043 15.281 36.2702C15.2606 35.5443 15.2912 34.9788 16.0553 34.5C17.0105 33.8988 17.2092 32.6635 16.7711 31.6319C16.333 30.6003 15.2759 29.9813 14.1475 30.096C13.0905 30.2029 12.1811 31.046 11.9442 32.1362C11.7252 33.1525 12.2295 34.2809 13.1974 34.8005C13.5107 34.9686 13.6024 35.1495 13.5973 35.4857C13.5795 37.0267 13.5897 38.5677 13.5897 40.1673C13.2891 40.1673 13.0497 40.1673 12.7695 40.1673C12.6523 38.8505 11.8882 38.0099 10.8617 37.2534ZM15.2555 32.6253C15.2555 33.0404 14.8658 33.4353 14.4506 33.4429C14.0176 33.4505 13.605 33.0303 13.6203 32.5998C13.6381 32.1846 14.038 31.8 14.4506 31.8102C14.8684 31.8153 15.2555 32.2101 15.2555 32.6253ZM14.4404 43.5474C13.5871 43.5474 12.9376 42.9233 12.7924 41.9325C13.8852 41.9325 14.9728 41.9325 16.0859 41.9325C15.9407 42.9259 15.2963 43.5474 14.4404 43.5474ZM28.6967 56.9784C26.4807 56.9784 24.2978 56.9784 22.036 56.9784C22.036 56.7899 22.036 56.604 22.036 56.4206C22.036 53.9855 22.0487 51.5505 22.0258 49.1154C22.0207 48.6518 22.1149 48.4633 22.6193 48.3716C24.6417 48.0049 26.6514 47.5744 28.6993 47.1592C28.6967 50.4425 28.6967 53.6799 28.6967 56.9784ZM33.8037 56.9937C32.6601 56.9937 31.5826 56.9937 30.4441 56.9937C30.4441 53.0227 30.4441 49.0568 30.4441 45.0604C29.8531 45.1673 29.3284 45.2641 28.7732 45.3635C28.7732 44.7573 28.7732 44.202 28.7732 43.606C31.5521 43.606 34.3259 43.606 37.1303 43.606C37.1303 44.877 37.1303 46.0996 37.1303 47.3859C36.0223 47.1694 34.9474 46.9605 33.8037 46.7389C33.8037 50.1674 33.8037 53.5678 33.8037 56.9937ZM42.2042 57.0039C39.9474 57.0039 37.7493 57.0039 35.5129 57.0039C35.5129 54.2912 35.5129 51.5861 35.5129 48.8097C36.3865 48.988 37.2475 49.1638 38.1109 49.337C39.3616 49.5866 40.6122 49.8261 41.8578 50.096C41.9953 50.1266 42.1889 50.3457 42.1915 50.4781C42.2093 52.6355 42.2042 54.7879 42.2042 57.0039ZM43.8802 50.5775C43.8802 49.9025 43.8802 49.3472 43.8802 48.7563C42.1991 48.4175 40.5409 48.0838 38.8522 47.7425C38.8522 45.8118 38.8522 43.8861 38.8522 41.9045C38.2867 41.9045 37.7543 41.9045 37.1634 41.9045C37.1634 41.3161 37.1634 40.7837 37.1634 40.2259C36.5878 40.2259 36.0681 40.2259 35.4899 40.2259C35.4899 40.7608 35.4899 41.2932 35.4899 41.8535C34.9143 41.8535 34.3947 41.8535 33.8165 41.8535C33.8165 40.7735 33.8165 39.6808 33.8165 38.5524C33.2281 38.5524 32.6983 38.5524 32.1252 38.5524C32.1252 39.6452 32.1252 40.7251 32.1252 41.8433C31.5546 41.8433 31.0223 41.8433 30.4313 41.8433C30.4313 41.3161 30.4313 40.7837 30.4313 40.2259C29.8557 40.2259 29.3361 40.2259 28.7579 40.2259C28.7579 40.7583 28.7579 41.2906 28.7579 41.8637C28.1822 41.8637 27.6626 41.8637 27.0742 41.8637C27.0742 43.1678 27.0742 44.4363 27.0742 45.7226C24.8047 46.1786 22.5964 46.6192 20.3396 47.0726C20.3396 47.8164 20.3396 48.5601 20.3396 49.4211C18.5821 48.1195 17.1684 46.6421 15.9127 44.9508C16.0681 44.8413 16.2081 44.7445 16.3457 44.6452C17.2881 43.9626 17.795 43.0532 17.8001 41.879C17.8026 41.4231 17.8026 40.9671 17.8001 40.5112C17.7976 39.8286 18.0803 39.3166 18.6458 38.9167C20.9203 37.3196 22.0487 35.1291 22.008 32.34C21.957 28.8861 19.1832 25.6741 15.7624 25.1698C14.9881 25.0552 14.1985 25.0628 13.4165 25.0119C13.9437 21.0282 21.3457 13.751 25.7548 12.9257C25.709 15.3659 23.9591 16.4382 22.0233 17.4545C22.5989 17.806 23.088 18.099 23.5719 18.397C25.5816 19.6374 26.277 21.6981 25.4288 23.8886C25.253 24.342 25.0747 24.7954 24.8659 25.3303C25.8414 25.1494 26.738 24.9507 27.6448 24.8183C29.2265 24.5891 30.5409 25.1316 31.5699 26.3364C32.0462 26.8942 32.464 27.4979 32.9428 28.127C33.9515 26.9553 34.6367 25.5111 36.193 24.9253C37.7238 24.3496 39.1935 24.9329 40.8236 25.073C39.0075 21.4179 40.4186 19.072 43.9057 17.5233C43.3071 17.1565 42.8282 16.8509 42.3392 16.5656C41.0376 15.8065 40.3091 14.6731 40.1334 13.183C40.1232 13.0989 40.1308 13.0123 40.1308 12.9232C44.9143 13.9293 51.9342 21.1071 52.7977 25.8805C49.2929 25.8805 45.7906 25.8805 42.2475 25.8805C42.2475 30.9289 42.2475 35.9493 42.2475 41.0257C43.3275 41.0257 44.4202 41.0257 45.5409 41.0257C45.5409 41.6014 45.5409 42.121 45.5409 42.6992C45.0213 42.6992 44.489 42.6992 43.921 42.6992C43.921 43.2876 43.921 43.8199 43.921 44.4058C46.0427 44.4058 48.1492 44.4058 50.355 44.4058C48.6179 46.9478 46.5139 48.9498 43.8802 50.5775ZM48.9694 32.582C48.9694 30.9314 48.9694 29.2936 48.9694 27.6176C50.0621 27.6176 51.1523 27.6176 52.2832 27.6176C52.2832 29.2936 52.2832 30.9187 52.2832 32.582C51.1777 32.582 50.0876 32.582 48.9694 32.582ZM52.2756 34.342C52.2756 36.0129 52.2756 37.6508 52.2756 39.3191C51.1752 39.3191 50.0978 39.3191 48.9821 39.3191C48.9821 37.6737 48.9821 36.0231 48.9821 34.342C50.0621 34.342 51.1395 34.342 52.2756 34.342ZM47.2169 34.3369C47.2169 35.9926 47.2169 37.6304 47.2169 39.3115C46.1395 39.3115 45.0493 39.3115 43.9261 39.3115C43.9261 37.6762 43.9261 36.0359 43.9261 34.3369C45.029 34.3369 46.1064 34.3369 47.2169 34.3369ZM43.9337 32.5896C43.9337 30.9442 43.9337 29.2936 43.9337 27.5947C45.0391 27.5947 46.1039 27.5947 47.2093 27.5947C47.2093 29.2579 47.2093 30.9085 47.2093 32.5896C46.1293 32.5896 45.0519 32.5896 43.9337 32.5896ZM53.9516 42.6915C51.7279 42.6915 49.5297 42.6915 47.2959 42.6915C47.2959 42.1566 47.2959 41.6294 47.2959 41.0716C49.5094 41.0716 51.7075 41.0716 53.9516 41.0716C53.9516 41.6319 53.9516 42.149 53.9516 42.6915ZM54.0305 27.6125C55.1105 27.6125 56.188 27.6125 57.3061 27.6125C57.3061 29.2554 57.3061 30.9059 57.3061 32.6074C56.2007 32.6074 55.136 32.6074 54.0305 32.6074C54.0305 30.9442 54.0305 29.2936 54.0305 27.6125ZM54.0331 39.337C54.0331 37.6813 54.0331 36.0308 54.0331 34.3471C55.1054 34.3471 56.1829 34.3471 57.3036 34.3471C57.3036 35.9824 57.3036 37.6329 57.3036 39.337C56.2058 39.337 55.1411 39.337 54.0331 39.337Z" fill="#012D3A"/>
</svg>
