<svg width="1420" height="544" viewBox="0 0 1420 544" fill="none" xmlns="http://www.w3.org/2000/svg">
<g opacity="0.2">
<path d="M31.7681 541.781V468.201H70.9297V476.865H38.9179V499.358H68.8985V508.021H38.9179V533.076H72.1891V541.74H31.7681V541.781Z" fill="black"/>
<path d="M78.5264 519.695V510.625H98.9603V519.695H78.5264Z" fill="black"/>
<path d="M106.841 541.781V468.201H127.194C131.297 468.201 134.588 468.893 136.984 470.316C139.381 471.74 141.372 473.936 142.875 476.946C144.419 479.956 145.19 483.291 145.19 486.911C145.19 490.287 144.54 493.338 143.2 496.022C141.859 498.747 140.031 500.903 137.594 502.53C140.722 503.791 143.2 505.987 145.028 509.038C146.856 512.089 147.75 515.871 147.75 520.345C147.75 524.779 146.937 528.724 145.312 532.06C143.687 535.436 141.494 537.876 138.772 539.381C136.05 540.886 132.272 541.659 127.519 541.659H106.841V541.781ZM113.991 499.114H125.732C128.819 499.114 130.972 498.869 132.272 498.422C134.141 497.731 135.563 496.551 136.578 494.883C137.594 493.216 138.081 490.979 138.081 488.132C138.081 485.488 137.634 483.291 136.7 481.542C135.766 479.793 134.547 478.573 133.044 477.922C131.541 477.272 128.778 476.905 124.838 476.905H113.951V499.114H113.991ZM113.991 533.117H127.478C130.444 533.117 132.638 532.832 134.059 532.222C136.091 531.368 137.675 529.904 138.731 527.952C139.787 525.958 140.316 523.477 140.316 520.467C140.316 517.702 139.787 515.343 138.772 513.431C137.756 511.519 136.375 510.096 134.628 509.201C132.881 508.306 130.2 507.858 126.463 507.858H113.91V533.117H113.991Z" fill="black"/>
<path d="M182.24 541.781V533.971C180.696 536.981 178.909 539.259 176.837 540.764C174.765 542.269 172.409 543.042 169.809 543.042C166.721 543.042 164.081 542.106 161.887 540.276C159.693 538.446 158.231 536.087 157.5 533.239C156.768 530.392 156.403 526.528 156.403 521.607V488.579H163.025V518.149C163.025 523.64 163.268 527.301 163.756 529.172C164.243 531.043 165.178 532.507 166.518 533.646C167.859 534.785 169.403 535.314 171.109 535.314C174.277 535.314 176.918 533.849 178.949 530.962C180.696 528.44 181.549 523.844 181.549 517.173V488.62H188.212V541.903H182.24V541.781Z" fill="black"/>
<path d="M195.971 525.837L202.592 524.413C202.999 528.196 204.055 530.962 205.802 532.792C207.549 534.622 209.864 535.558 212.708 535.558C215.592 535.558 217.826 534.744 219.37 533.158C220.955 531.572 221.726 529.538 221.726 527.097C221.726 524.982 221.036 523.355 219.695 522.176C218.761 521.362 216.526 520.386 212.952 519.166C207.792 517.376 204.339 515.871 202.592 514.651C200.846 513.431 199.505 511.763 198.53 509.689C197.555 507.615 197.068 505.255 197.068 502.612C197.068 498.056 198.368 494.355 201.008 491.508C203.608 488.66 207.224 487.237 211.855 487.237C214.78 487.237 217.339 487.806 219.533 488.986C221.726 490.165 223.433 491.711 224.611 493.704C225.789 495.697 226.601 498.504 227.048 502.164L220.548 503.384C219.939 497.568 217.095 494.64 212.017 494.64C209.133 494.64 206.98 495.29 205.558 496.551C204.136 497.812 203.446 499.48 203.446 501.473C203.446 503.425 204.136 504.971 205.477 506.11C206.289 506.76 208.686 507.859 212.708 509.323C218.192 511.275 221.767 512.821 223.392 513.96C225.017 515.099 226.276 516.685 227.17 518.678C228.064 520.671 228.511 523.03 228.511 525.796C228.511 530.88 227.048 535.029 224.164 538.161C221.28 541.293 217.298 542.879 212.302 542.879C202.917 543.001 197.474 537.266 195.971 525.837Z" fill="black"/>
<path d="M236.311 478.614V468.242H242.932V478.614H236.311ZM236.311 541.781V488.497H242.932V541.781H236.311Z" fill="black"/>
<path d="M253.007 541.781V488.497H259.019V496.022C260.441 493.094 262.229 490.897 264.3 489.474C266.372 488.009 268.769 487.318 271.491 487.318C273.603 487.318 275.553 487.765 277.3 488.701C279.088 489.636 280.509 490.816 281.606 492.321C282.703 493.826 283.516 495.737 284.044 498.097C284.572 500.456 284.856 504.116 284.856 509.038V541.821H278.275V509.363C278.275 505.459 277.991 502.571 277.381 500.781C276.772 498.991 275.838 497.568 274.578 496.592C273.319 495.615 271.816 495.127 270.15 495.127C266.982 495.127 264.422 496.47 262.513 499.113C260.604 501.757 259.669 506.313 259.669 512.739V541.862H253.007V541.781Z" fill="black"/>
<path d="M321.824 524.616L328.69 525.755C327.552 531.449 325.48 535.72 322.474 538.608C319.468 541.496 315.771 542.96 311.384 542.96C305.818 542.96 301.309 540.601 297.897 535.924C294.444 531.205 292.737 524.454 292.737 515.587C292.737 506.394 294.484 499.358 297.937 494.517C301.39 489.677 305.818 487.277 311.14 487.277C316.218 487.277 320.443 489.636 323.855 494.395C327.268 499.154 328.933 506.028 328.933 515.017L328.893 517.417H299.603C299.887 523.396 301.106 527.911 303.34 530.961C305.575 534.012 308.256 535.517 311.465 535.517C316.421 535.558 319.874 531.897 321.824 524.616ZM299.968 510.014H321.865C321.58 505.418 320.687 501.961 319.184 499.683C317.071 496.388 314.349 494.721 311.018 494.721C308.053 494.721 305.493 496.104 303.421 498.869C301.35 501.635 300.212 505.337 299.968 510.014Z" fill="black"/>
<path d="M334.458 525.837L341.08 524.413C341.486 528.196 342.542 530.962 344.289 532.792C346.036 534.622 348.352 535.558 351.236 535.558C354.12 535.558 356.355 534.744 357.898 533.158C359.483 531.572 360.255 529.538 360.255 527.097C360.255 524.982 359.564 523.355 358.223 522.176C357.289 521.362 355.055 520.386 351.48 519.166C346.32 517.376 342.867 515.871 341.121 514.651C339.374 513.431 338.033 511.763 337.058 509.689C336.083 507.615 335.636 505.255 335.636 502.612C335.636 498.056 336.936 494.355 339.536 491.508C342.136 488.66 345.752 487.237 350.383 487.237C353.308 487.237 355.867 487.806 358.061 488.986C360.255 490.165 361.961 491.711 363.139 493.704C364.317 495.697 365.129 498.504 365.576 502.164L359.076 503.384C358.467 497.568 355.623 494.64 350.545 494.64C347.661 494.64 345.508 495.29 344.086 496.551C342.664 497.853 341.974 499.48 341.974 501.473C341.974 503.425 342.664 504.971 344.005 506.11C344.817 506.76 347.214 507.859 351.236 509.323C356.72 511.275 360.295 512.821 361.92 513.96C363.545 515.099 364.804 516.685 365.698 518.678C366.592 520.671 367.039 523.03 367.039 525.796C367.039 530.88 365.576 535.029 362.692 538.161C359.808 541.293 355.827 542.879 350.83 542.879C341.405 543.001 335.961 537.266 334.458 525.837Z" fill="black"/>
<path d="M372.239 525.837L378.861 524.413C379.267 528.196 380.323 530.962 382.07 532.792C383.817 534.622 386.132 535.558 389.017 535.558C391.901 535.558 394.135 534.744 395.679 533.158C397.263 531.572 398.035 529.538 398.035 527.097C398.035 524.982 397.344 523.355 396.004 522.176C395.07 521.362 392.835 520.386 389.26 519.166C384.101 517.376 380.648 515.871 378.901 514.651C377.154 513.431 375.814 511.763 374.839 509.689C373.864 507.615 373.417 505.255 373.417 502.612C373.417 498.056 374.717 494.355 377.317 491.508C379.917 488.66 383.532 487.237 388.163 487.237C391.088 487.237 393.648 487.806 395.841 488.986C398.035 490.165 399.741 491.711 400.919 493.704C402.098 495.697 402.91 498.504 403.357 502.164L396.857 503.384C396.248 497.568 393.404 494.64 388.326 494.64C385.442 494.64 383.289 495.29 381.867 496.551C380.445 497.812 379.754 499.48 379.754 501.473C379.754 503.425 380.445 504.971 381.785 506.11C382.598 506.76 384.995 507.859 389.017 509.323C394.501 511.275 398.076 512.821 399.701 513.96C401.326 515.099 402.585 516.685 403.479 518.678C404.372 520.671 404.819 523.03 404.819 525.796C404.819 530.88 403.357 535.029 400.473 538.161C397.588 541.293 393.607 542.879 388.61 542.879C379.186 543.001 373.701 537.266 372.239 525.837Z" fill="black"/>
<path d="M434.394 541.781V468.201H454.827C459.621 468.201 463.196 468.689 465.471 469.625C468.599 470.886 471.077 473.245 472.946 476.702C474.815 480.159 475.749 484.389 475.749 489.392C475.749 496.022 474.246 501.432 471.199 505.581C468.152 509.77 462.912 511.845 455.477 511.845H441.584V541.74H434.394V541.781ZM441.584 503.181H455.599C460.027 503.181 463.237 502.083 465.268 499.846C467.299 497.609 468.315 494.273 468.315 489.799C468.315 486.871 467.827 484.389 466.812 482.315C465.796 480.241 464.577 478.817 463.155 478.044C461.734 477.272 459.134 476.905 455.437 476.905H441.543V503.181H441.584Z" fill="black"/>
<path d="M509.426 535.192C507.192 537.754 504.876 539.706 502.48 541.008C500.083 542.31 497.564 542.96 495.005 542.96C490.902 542.96 487.652 541.577 485.214 538.852C482.777 536.127 481.558 532.426 481.558 527.748C481.558 524.657 482.127 521.932 483.264 519.573C484.402 517.214 485.986 515.343 487.936 514C489.886 512.658 492.933 511.682 496.955 511.031C502.358 510.136 506.339 509.079 508.858 507.859L508.898 505.54C508.898 501.88 508.329 499.317 507.151 497.853C505.486 495.697 502.967 494.64 499.514 494.64C496.427 494.64 494.111 495.372 492.567 496.795C491.024 498.219 489.927 500.903 489.195 504.849L482.655 503.628C483.589 497.893 485.458 493.745 488.302 491.142C491.145 488.538 495.208 487.237 500.489 487.237C504.592 487.237 507.842 488.091 510.198 489.84C512.554 491.548 514.017 493.704 514.626 496.226C515.235 498.788 515.56 502.49 515.56 507.371V519.41C515.56 527.83 515.682 533.158 515.967 535.354C516.251 537.551 516.82 539.666 517.673 541.74H510.726C510.117 539.951 509.67 537.754 509.426 535.192ZM508.898 515.058C506.461 516.4 502.845 517.539 498.051 518.475C495.248 519.003 493.298 519.613 492.202 520.305C491.105 520.996 490.211 521.973 489.602 523.233C488.992 524.494 488.667 525.918 488.667 527.586C488.667 530.148 489.358 532.182 490.78 533.687C492.202 535.192 494.152 535.964 496.63 535.964C498.986 535.964 501.18 535.273 503.089 533.89C505.039 532.507 506.461 530.677 507.436 528.399C508.411 526.121 508.898 522.786 508.898 518.393V515.058V515.058Z" fill="black"/>
<path d="M525.879 541.781V488.497H531.892V496.592C533.435 492.85 534.816 490.368 536.116 489.148C537.416 487.928 538.838 487.318 540.423 487.318C542.657 487.318 544.932 488.294 547.207 490.246L544.972 498.625C543.307 497.324 541.723 496.673 540.138 496.673C538.716 496.673 537.416 497.242 536.279 498.341C535.141 499.439 534.288 500.984 533.801 502.977C532.948 506.435 532.542 510.095 532.542 513.959V541.862H525.879V541.781Z" fill="black"/>
<path d="M565.772 533.686L566.666 541.659C564.838 542.187 563.172 542.472 561.709 542.472C559.394 542.472 557.525 541.943 556.103 540.926C554.682 539.91 553.707 538.527 553.219 536.737C552.691 534.947 552.447 531.449 552.447 526.162V495.493H547.572V488.457H552.447V475.278L559.069 469.869V488.497H565.772V495.534H559.069V526.69C559.069 529.578 559.272 531.409 559.638 532.263C560.206 533.483 561.263 534.052 562.847 534.052C563.578 534.052 564.553 533.93 565.772 533.686Z" fill="black"/>
<path d="M571.947 541.781V488.497H577.959V496.022C579.381 493.094 581.169 490.897 583.24 489.474C585.312 488.009 587.709 487.318 590.431 487.318C592.543 487.318 594.493 487.765 596.24 488.701C598.027 489.636 599.449 490.816 600.546 492.321C601.643 493.826 602.455 495.737 602.984 498.097C603.512 500.456 603.796 504.116 603.796 509.038V541.821H597.174V509.363C597.174 505.459 596.89 502.571 596.281 500.781C595.671 498.991 594.737 497.568 593.478 496.592C592.218 495.615 590.715 495.127 589.05 495.127C585.881 495.127 583.322 496.47 581.412 499.113C579.503 501.757 578.569 506.313 578.569 512.739V541.862H571.947V541.781Z" fill="black"/>
<path d="M640.764 524.616L647.63 525.755C646.492 531.449 644.42 535.72 641.414 538.608C638.408 541.496 634.711 542.96 630.324 542.96C624.758 542.96 620.249 540.601 616.836 535.924C613.383 531.205 611.677 524.454 611.677 515.587C611.677 506.394 613.424 499.358 616.877 494.517C620.33 489.677 624.758 487.277 630.08 487.277C635.158 487.277 639.383 489.636 642.795 494.395C646.208 499.154 647.873 506.028 647.873 515.017L647.833 517.417H618.543C618.827 523.396 620.046 527.911 622.28 530.961C624.514 534.012 627.196 535.517 630.405 535.517C635.32 535.558 638.814 531.897 640.764 524.616ZM618.908 510.014H640.805C640.52 505.418 639.627 501.961 638.124 499.683C636.011 496.388 633.289 494.721 629.958 494.721C626.993 494.721 624.433 496.104 622.361 498.869C620.249 501.635 619.111 505.337 618.908 510.014Z" fill="black"/>
<path d="M655.958 541.781V488.497H661.97V496.592C663.514 492.85 664.895 490.368 666.195 489.148C667.495 487.928 668.917 487.318 670.501 487.318C672.735 487.318 675.01 488.294 677.285 490.246L675.051 498.625C673.385 497.324 671.801 496.673 670.217 496.673C668.795 496.673 667.495 497.242 666.357 498.341C665.22 499.439 664.367 500.984 663.879 502.977C663.026 506.435 662.62 510.095 662.62 513.959V541.862H655.958V541.781Z" fill="black"/>
<path d="M44.3209 283.947C44.4021 288.177 45.5803 291.96 47.8146 295.377C50.0489 298.752 53.0145 301.966 56.6706 304.976C60.3268 307.986 64.5111 310.955 69.1829 313.802C73.8546 316.69 78.6483 319.7 83.5638 322.872C88.4793 326.045 93.273 329.502 97.9447 333.203C102.616 336.945 106.801 341.176 110.538 345.894C114.276 350.653 117.241 355.981 119.557 361.919C121.832 367.858 123.091 374.61 123.294 382.175V383.395C123.294 391.652 122.319 398.852 120.45 404.993C118.541 411.135 116.022 416.423 112.854 420.856C109.726 425.29 106.029 428.95 101.845 431.798C97.6604 434.645 93.2323 436.963 88.6418 438.672C84.0107 440.38 79.3389 441.6 74.6265 442.292C69.9141 442.983 65.4454 443.39 61.2612 443.512H59.8393C51.7551 443.512 44.6459 442.658 38.5523 440.949C32.4587 439.241 27.2182 436.963 22.8307 434.075C18.4433 431.188 14.7872 427.893 11.9029 424.192C8.97793 420.45 6.66235 416.626 4.95614 412.64C3.24993 408.654 1.99058 404.709 1.21872 400.763C0.365617 396.859 0 393.157 0 389.741C0 386.202 0.568737 383.151 1.70621 380.508C2.84369 377.904 4.34678 375.749 6.21549 374.081C8.0842 372.413 10.2373 371.193 12.6341 370.38C15.0715 369.566 17.6309 369.159 20.2714 369.159C22.7495 369.159 25.3088 369.566 27.9088 370.38C30.5087 371.193 32.9055 372.413 35.0586 374.081C37.2117 375.749 38.9585 377.864 40.3397 380.426C41.721 382.989 42.4522 385.999 42.5741 389.415C42.7772 396.981 44.3615 402.146 47.449 404.912C50.4958 407.678 54.8832 409.061 60.6112 409.061C63.4549 408.979 66.1361 408.573 68.5329 407.922C70.9703 407.271 73.0421 406.092 74.7484 404.465C76.4546 402.838 77.8358 400.601 78.8108 397.794C79.8264 395.028 80.3139 391.53 80.3139 387.3C80.3139 382.053 79.1764 377.335 76.9421 373.105C74.7077 368.875 71.7828 364.929 68.1673 361.309C64.5517 357.689 60.4081 354.232 55.7363 350.978C51.0645 347.724 46.3115 344.43 41.4366 341.135C36.5617 337.881 31.8493 334.424 27.2182 330.844C22.587 327.265 18.4433 323.36 14.7059 319.13C11.0091 314.9 8.00295 310.223 5.76862 305.057C3.5343 299.932 2.3562 294.075 2.27495 287.526V285.086C2.3562 274.307 3.73742 265.318 6.33736 258.2C8.9373 251.042 12.7966 245.347 17.9152 241.117C23.0339 236.887 29.29 233.877 36.7242 232.128C44.1584 230.379 52.6895 229.484 62.3174 229.484H66.0142C74.789 229.484 82.2232 230.501 88.3168 232.494C94.4104 234.528 99.4884 237.09 103.551 240.222C107.613 243.354 110.782 246.893 113.138 250.798C115.454 254.743 117.201 258.607 118.338 262.43C119.475 266.254 120.207 269.833 120.491 273.168C120.775 276.504 120.897 279.148 120.897 281.181C120.897 284.191 120.329 286.957 119.232 289.397C118.135 291.879 116.672 293.953 114.804 295.661C112.935 297.37 110.741 298.712 108.223 299.647C105.704 300.583 102.941 301.071 100.017 301.071C97.7416 301.071 95.426 300.583 93.1511 299.647C90.8761 298.712 88.8043 297.451 87.0168 295.946C85.2294 294.441 83.7263 292.692 82.5888 290.74C81.4513 288.787 80.8826 286.794 80.8826 284.761C80.8826 276.504 79.5014 270.769 76.6577 267.515C73.8546 264.301 69.711 262.675 64.308 262.675C61.7486 262.675 59.2299 262.837 56.7925 263.122C54.3551 263.407 52.202 264.261 50.3739 265.603C48.5052 266.945 47.0427 269.06 45.9459 271.867C44.849 274.836 44.3209 278.781 44.3209 283.947Z" fill="black"/>
<path d="M287.578 290.577C287.578 280.897 288.919 272.68 291.6 265.847C294.281 259.054 297.694 253.36 301.837 248.845C305.981 244.29 310.571 240.751 315.568 238.189C320.565 235.626 325.44 233.674 330.152 232.372C334.865 231.071 339.13 230.257 342.949 229.932C346.767 229.647 349.571 229.484 351.399 229.484H356.273C358.061 229.484 360.905 229.647 364.723 229.932C368.542 230.217 372.767 231.03 377.439 232.372C382.11 233.674 386.945 235.626 391.941 238.189C396.938 240.751 401.488 244.29 405.51 248.845C409.572 253.401 412.903 259.054 415.503 265.847C418.144 272.64 419.444 280.897 419.444 290.577V380.955C419.444 390.92 418.144 399.38 415.503 406.336C412.863 413.291 409.532 419.067 405.51 423.703C401.447 428.34 396.938 432.001 391.941 434.645C386.945 437.329 382.11 439.322 377.439 440.624C372.767 441.926 368.542 442.739 364.723 443.024C360.905 443.349 358.102 443.471 356.273 443.471H351.399C349.611 443.471 346.767 443.308 342.949 443.024C339.13 442.739 334.865 441.926 330.152 440.624C325.44 439.322 320.565 437.329 315.568 434.645C310.571 432.001 305.981 428.34 301.837 423.703C297.694 419.067 294.281 413.291 291.6 406.336C288.919 399.38 287.578 390.92 287.578 380.955V290.577ZM335.027 386.731C335.23 390.473 336.043 393.727 337.465 396.574C338.724 399.096 340.593 401.373 343.111 403.366C345.63 405.4 349.246 406.376 353.917 406.376C358.508 406.376 362.001 405.359 364.48 403.366C366.958 401.373 368.826 399.096 370.045 396.574C371.386 393.767 372.198 390.473 372.483 386.731V288.177C372.198 284.557 371.386 281.263 370.045 278.334C368.786 275.934 366.958 273.697 364.48 271.623C362.001 269.548 358.467 268.532 353.917 268.532C349.246 268.532 345.63 269.548 343.111 271.623C340.593 273.697 338.683 275.934 337.465 278.334C336.043 281.263 335.23 284.517 335.027 288.177V386.731Z" fill="black"/>
<path d="M631.502 265.522C631.502 261.17 631.664 256.94 631.989 252.832C632.314 248.683 633.167 245.022 634.467 241.727C635.767 238.474 637.717 235.83 640.236 233.796C642.755 231.803 646.289 230.786 650.758 230.786C655.592 230.786 659.329 231.803 662.051 233.796C664.773 235.83 666.763 238.474 668.023 241.727C669.282 245.022 670.054 248.723 670.379 252.832C670.663 256.98 670.826 261.21 670.826 265.522V397.916H695.688C699.141 397.916 702.553 398.12 705.966 398.526C709.338 398.933 712.384 399.869 715.025 401.414C717.706 402.919 719.819 405.156 721.443 408.085C723.068 411.013 723.84 414.999 723.84 420.043C723.84 425.168 723.028 429.235 721.443 432.205C719.859 435.174 717.706 437.411 715.025 438.916C712.344 440.421 709.338 441.397 705.966 441.763C702.594 442.17 699.141 442.373 695.688 442.373H659.654C655.186 442.373 651.204 442.17 647.751 441.763C644.298 441.356 641.373 440.421 638.936 438.916C636.539 437.411 634.67 435.174 633.411 432.205C632.152 429.235 631.502 425.168 631.502 420.043V265.522V265.522Z" fill="black"/>
<path d="M788.595 283.947C788.676 288.177 789.854 291.96 792.089 295.377C794.323 298.752 797.289 301.966 800.945 304.976C804.601 307.986 808.785 310.955 813.457 313.802C818.129 316.69 822.923 319.7 827.838 322.872C832.754 326.045 837.547 329.502 842.219 333.203C846.891 336.945 851.075 341.176 854.812 345.894C858.55 350.653 861.515 355.981 863.831 361.919C866.106 367.858 867.365 374.61 867.568 382.175V383.395C867.568 391.652 866.593 398.852 864.725 404.993C862.815 411.135 860.297 416.423 857.128 420.856C854 425.29 850.303 428.95 846.119 431.798C841.935 434.645 837.507 436.963 832.916 438.672C828.285 440.38 823.613 441.6 818.901 442.292C814.188 442.983 809.72 443.39 805.535 443.512H804.114C796.029 443.512 788.92 442.658 782.827 440.949C776.733 439.241 771.492 436.963 767.105 434.075C762.718 431.188 759.061 427.893 756.177 424.192C753.252 420.45 750.937 416.626 749.23 412.64C747.524 408.654 746.265 404.709 745.493 400.763C744.721 396.818 744.355 393.157 744.355 389.741C744.355 386.202 744.924 383.151 746.062 380.508C747.199 377.904 748.702 375.749 750.571 374.081C752.44 372.413 754.593 371.193 756.99 370.38C759.427 369.566 761.986 369.159 764.627 369.159C767.105 369.159 769.664 369.566 772.264 370.38C774.864 371.193 777.261 372.413 779.414 374.081C781.567 375.749 783.314 377.864 784.695 380.426C786.076 382.989 786.808 385.999 786.93 389.415C787.133 396.981 788.717 402.146 791.804 404.912C794.851 407.678 799.239 409.061 804.967 409.061C807.81 408.979 810.492 408.573 812.888 407.922C815.326 407.271 817.398 406.092 819.104 404.465C820.81 402.797 822.191 400.601 823.166 397.794C824.182 395.028 824.669 391.53 824.669 387.3C824.669 382.053 823.532 377.335 821.298 373.105C819.063 368.875 816.138 364.929 812.523 361.309C808.907 357.689 804.764 354.232 800.092 350.978C795.42 347.724 790.667 344.43 785.792 341.135C780.917 337.881 776.205 334.424 771.574 330.844C766.942 327.265 762.799 323.36 759.061 319.13C755.365 314.9 752.358 310.223 750.124 305.057C747.89 299.932 746.712 294.075 746.63 287.526V285.086C746.712 274.307 748.093 265.318 750.693 258.2C753.293 251.042 757.152 245.347 762.271 241.117C767.389 236.887 773.645 233.877 781.08 232.128C788.514 230.379 797.045 229.484 806.673 229.484H810.37C819.144 229.484 826.579 230.501 832.672 232.494C838.766 234.528 843.844 237.09 847.906 240.222C851.969 243.354 855.137 246.893 857.494 250.798C859.809 254.743 861.556 258.607 862.694 262.43C863.831 266.254 864.562 269.833 864.847 273.168C865.131 276.504 865.253 279.148 865.253 281.181C865.253 284.191 864.684 286.957 863.587 289.397C862.49 291.879 861.028 293.953 859.159 295.661C857.291 297.37 855.097 298.712 852.578 299.647C850.059 300.583 847.297 301.071 844.372 301.071C842.097 301.071 839.782 300.583 837.507 299.647C835.232 298.712 833.16 297.451 831.372 295.946C829.585 294.441 828.082 292.692 826.944 290.74C825.807 288.787 825.238 286.794 825.238 284.761C825.238 276.504 823.857 270.769 821.013 267.515C818.21 264.301 814.066 262.675 808.663 262.675C806.104 262.675 803.585 262.837 801.148 263.122C798.711 263.407 796.557 264.261 794.729 265.603C792.861 266.945 791.398 269.06 790.301 271.867C789.164 274.836 788.595 278.781 788.595 283.947Z" fill="black"/>
<path d="M891.212 290.577C891.212 280.897 892.552 272.68 895.233 265.847C897.915 259.054 901.327 253.36 905.471 248.845C909.614 244.29 914.205 240.751 919.202 238.189C924.198 235.626 929.073 233.674 933.786 232.372C938.498 231.071 942.764 230.257 946.582 229.932C950.401 229.647 953.204 229.484 955.032 229.484H959.907C961.694 229.484 964.538 229.647 968.357 229.932C972.175 230.217 976.4 231.03 981.072 232.372C985.744 233.674 990.578 235.626 995.575 238.189C1000.57 240.751 1005.12 244.29 1009.14 248.845C1013.17 253.401 1016.54 259.054 1019.14 265.847C1021.78 272.64 1023.08 280.897 1023.08 290.577V380.955C1023.08 390.92 1021.78 399.38 1019.14 406.336C1016.5 413.291 1013.17 419.067 1009.14 423.703C1005.12 428.34 1000.57 432.001 995.575 434.645C990.578 437.329 985.744 439.322 981.072 440.624C976.4 441.926 972.175 442.739 968.357 443.024C964.538 443.349 961.735 443.471 959.907 443.471H955.032C953.245 443.471 950.401 443.308 946.582 443.024C942.764 442.739 938.498 441.926 933.786 440.624C929.073 439.322 924.198 437.329 919.202 434.645C914.205 432.001 909.614 428.34 905.471 423.703C901.327 419.067 897.915 413.291 895.233 406.336C892.552 399.38 891.212 390.92 891.212 380.955V290.577ZM938.661 386.731C938.864 390.473 939.676 393.727 941.098 396.574C942.357 399.096 944.226 401.373 946.745 403.366C949.264 405.4 952.879 406.376 957.551 406.376C962.141 406.376 965.635 405.359 968.113 403.366C970.591 401.373 972.46 399.096 973.679 396.574C975.019 393.767 975.832 390.473 976.116 386.731V288.177C975.832 284.557 975.019 281.263 973.679 278.334C972.419 275.934 970.591 273.697 968.113 271.623C965.635 269.548 962.101 268.532 957.551 268.532C952.879 268.532 949.264 269.548 946.745 271.623C944.226 273.697 942.317 275.934 941.098 278.334C939.676 281.263 938.864 284.517 938.661 288.177V386.731Z" fill="black"/>
<path d="M1277.75 230.745C1281.57 230.745 1285.39 230.908 1289.25 231.193C1293.11 231.518 1296.6 232.331 1299.77 233.755C1302.9 235.179 1305.46 237.294 1307.41 240.182C1309.36 243.029 1310.33 247.055 1310.33 252.18C1310.33 257.224 1309.36 261.169 1307.41 264.057C1305.46 266.904 1302.9 269.06 1299.77 270.484C1296.64 271.907 1293.11 272.762 1289.25 273.128C1285.39 273.494 1281.53 273.656 1277.75 273.656H1263.17V407.881C1263.17 412.233 1263.04 416.423 1262.8 420.571C1262.56 424.72 1261.78 428.381 1260.44 431.594C1259.1 434.807 1256.95 437.411 1254.03 439.404C1251.06 441.356 1246.88 442.332 1241.43 442.332C1235.99 442.332 1231.8 441.356 1228.84 439.404C1225.87 437.451 1223.76 434.848 1222.42 431.594C1221.08 428.381 1220.27 424.68 1220.06 420.571C1219.82 416.423 1219.7 412.193 1219.7 407.881V273.656H1205.11C1201.3 273.656 1197.48 273.494 1193.62 273.128C1189.76 272.762 1186.26 271.907 1183.1 270.484C1179.97 269.06 1177.41 266.945 1175.46 264.057C1173.51 261.169 1172.53 257.224 1172.53 252.18C1172.53 247.055 1173.51 243.029 1175.46 240.182C1177.41 237.294 1179.97 235.179 1183.1 233.755C1186.26 232.331 1189.76 231.477 1193.62 231.193C1197.48 230.908 1201.3 230.745 1205.11 230.745H1277.75Z" fill="black"/>
<path d="M229.567 230.745C233.386 230.745 237.245 230.908 241.145 231.193C245.045 231.518 248.579 232.331 251.707 233.755C254.835 235.179 257.435 237.294 259.426 240.182C261.416 243.029 262.432 247.055 262.432 252.18C262.432 257.305 261.416 261.332 259.426 264.179C257.435 267.067 254.835 269.182 251.707 270.606C248.538 272.029 245.045 272.884 241.145 273.168C237.245 273.453 233.386 273.616 229.567 273.616H195.564V314.737H232.939C236.757 314.737 240.576 314.859 244.435 315.103C248.295 315.347 251.748 316.161 254.713 317.544C257.719 318.886 260.157 320.96 262.066 323.726C263.975 326.492 264.91 330.356 264.91 335.278C264.91 340.321 263.935 344.185 262.066 346.911C260.157 349.636 257.719 351.669 254.713 353.012C251.707 354.354 248.295 355.167 244.435 355.452C240.576 355.696 236.757 355.818 232.939 355.818H195.564V399.34H229.567C233.386 399.34 237.245 399.502 241.145 399.787C245.045 400.112 248.579 400.926 251.707 402.268C254.835 403.61 257.435 405.725 259.426 408.613C261.416 411.501 262.432 415.446 262.432 420.49C262.432 425.737 261.416 429.804 259.344 432.733C257.273 435.662 254.713 437.817 251.544 439.241C248.376 440.664 244.882 441.519 240.982 441.803C237.082 442.088 233.264 442.251 229.526 442.251H173.546C168.224 442.251 164.081 441.234 161.196 439.241C158.272 437.207 156.159 434.563 154.819 431.309C153.478 428.055 152.706 424.313 152.462 420.205C152.219 416.057 152.097 411.826 152.097 407.515V265.522C152.097 261.169 152.219 256.939 152.462 252.831C152.706 248.682 153.478 245.022 154.819 241.727C156.159 238.473 158.272 235.829 161.196 233.796C164.121 231.803 168.224 230.786 173.546 230.786H229.567V230.745Z" fill="black"/>
<path d="M453.974 265.196C453.974 260.885 454.178 256.655 454.624 252.506C455.031 248.357 456.046 244.696 457.631 241.483C459.215 238.27 461.571 235.667 464.699 233.714C467.827 231.762 472.174 230.745 477.699 230.745C483.224 230.745 487.57 231.721 490.78 233.714C493.948 235.667 496.345 238.27 497.93 241.483C499.514 244.696 500.489 248.398 500.855 252.506C501.22 256.655 501.423 260.885 501.423 265.196V384.29C501.708 388.724 502.561 392.669 503.983 396.086C504.551 397.591 505.323 399.055 506.258 400.478C507.192 401.902 508.329 403.163 509.629 404.261C510.929 405.359 512.432 406.254 514.22 406.905C515.967 407.556 517.998 407.881 520.314 407.881C522.588 407.881 524.66 407.556 526.448 406.905C528.235 406.254 529.82 405.359 531.079 404.261C532.379 403.163 533.476 401.902 534.451 400.478C535.385 399.055 536.157 397.591 536.726 396.086C538.147 392.669 538.96 388.724 539.163 384.29V265.196C539.163 260.885 539.366 256.655 539.732 252.506C540.097 248.357 541.072 244.696 542.657 241.483C544.241 238.27 546.597 235.667 549.725 233.714C552.853 231.762 557.241 230.745 562.888 230.745C568.412 230.745 572.759 231.721 575.887 233.714C579.015 235.667 581.372 238.27 582.956 241.483C584.54 244.696 585.515 248.398 585.962 252.506C586.368 256.655 586.612 260.885 586.612 265.196V380.345C586.612 390.839 585.028 399.99 581.818 407.84C578.65 415.69 574.1 422.28 568.25 427.567C562.4 432.855 555.372 436.841 547.247 439.526C539.082 442.21 530.104 443.512 520.314 443.512C510.401 443.512 501.383 442.129 493.298 439.363C485.214 436.597 478.227 432.53 472.377 427.201C466.527 421.873 461.977 415.243 458.809 407.393C455.64 399.543 454.015 390.513 454.015 380.345V265.196H453.974Z" fill="black"/>
<path d="M1134.79 230.745C1138.61 230.745 1142.47 230.948 1146.37 231.355C1150.27 231.762 1153.81 232.697 1156.93 234.202C1160.06 235.707 1162.66 237.944 1164.65 240.914C1166.64 243.883 1167.66 247.95 1167.66 253.075C1167.66 258.2 1166.64 262.268 1164.65 265.237C1162.66 268.206 1160.06 270.443 1156.93 271.948C1153.81 273.453 1150.27 274.429 1146.37 274.795C1142.47 275.202 1138.61 275.405 1134.79 275.405H1100.79V314.697H1118.79C1122.53 314.697 1126.3 314.859 1130.2 315.144C1134.1 315.429 1137.64 316.283 1140.77 317.706C1143.93 319.13 1146.53 321.326 1148.57 324.377C1150.6 327.387 1151.61 331.617 1151.61 337.067C1151.61 342.518 1150.64 346.748 1148.61 349.758C1146.62 352.768 1144.02 355.005 1140.89 356.388C1137.76 357.811 1134.23 358.665 1130.33 358.95C1126.43 359.235 1122.57 359.397 1118.75 359.397H1100.75V407.474C1100.75 411.908 1100.63 416.179 1100.39 420.327C1100.14 424.476 1099.33 428.137 1097.99 431.431C1096.61 434.726 1094.41 437.329 1091.49 439.282C1088.52 441.234 1084.38 442.21 1079.06 442.21C1073.61 442.21 1069.43 441.234 1066.46 439.282C1063.5 437.329 1061.35 434.685 1060.05 431.431C1058.71 428.177 1057.93 424.476 1057.69 420.327C1057.45 416.179 1057.32 411.908 1057.32 407.474V265.522C1057.32 261.169 1057.45 256.939 1057.69 252.831C1057.93 248.682 1058.71 245.022 1060.05 241.727C1061.39 238.473 1063.5 235.829 1066.46 233.796C1069.43 231.803 1073.61 230.786 1079.06 230.786H1134.79V230.745Z" fill="black"/>
<path d="M1412.38 81.5526L1322.4 34.9807L1259.27 2.35998L1257.32 1.34313C1251.39 -1.70743 1244.11 0.610994 1241.07 6.54942L1240.05 8.50178L1207.51 71.5874L1161.85 160.135C1158.27 167.05 1161 175.591 1167.9 179.171L1231.15 211.873C1238.06 215.452 1246.59 212.727 1250.17 205.812L1287.3 133.819C1288.39 131.663 1291.03 130.85 1293.19 131.948L1364.97 169.043C1371.96 172.663 1380.57 169.897 1384.19 162.901L1417.66 97.9849C1420.75 92.0058 1418.39 84.6438 1412.38 81.5526Z" fill="black"/>
<path d="M1374.03 259.014L1323.33 258.16C1322.03 258.119 1321.01 257.062 1321.01 255.76L1321.87 204.999C1321.91 203.697 1322.96 202.68 1324.26 202.68L1374.96 203.534C1376.26 203.575 1377.28 204.633 1377.28 205.934L1376.43 256.695C1376.39 257.997 1375.29 259.014 1374.03 259.014Z" fill="black"/>
</g>
</svg>
