<svg width="66" height="66" viewBox="0 0 66 66" fill="none" xmlns="http://www.w3.org/2000/svg">
<path d="M33 66C51.2254 66 66 51.2254 66 33C66 14.7746 51.2254 0 33 0C14.7746 0 0 14.7746 0 33C0 51.2254 14.7746 66 33 66Z" fill="#E5E5E5"/>
<path d="M36.6361 22.9325C35.9895 22.9325 35.5108 22.9435 35.0349 22.9298C34.4599 22.9133 34.1105 22.5694 34.105 21.9889C34.094 20.7811 34.094 19.5761 34.105 18.3683C34.1105 17.7603 34.4599 17.4302 35.0789 17.4164C35.5384 17.4054 35.9978 17.4081 36.4572 17.4054C36.4683 17.4054 36.4765 17.3751 36.5178 17.3036C36.2234 17.0147 35.907 16.7176 35.6071 16.4095C35.0872 15.873 35.0762 15.3805 35.5851 14.8633C36.3775 14.0572 37.1753 13.2594 37.9814 12.467C38.4821 11.9746 38.9828 11.9718 39.489 12.4505C39.8164 12.7587 40.1273 13.086 40.5345 13.496C40.5345 12.921 40.529 12.4698 40.5345 12.0186C40.5428 11.3253 40.8646 10.9896 41.5469 10.9869C42.7162 10.9786 43.8827 10.9786 45.0519 10.9869C45.7012 10.9924 46.0369 11.3308 46.0479 11.9773C46.0561 12.434 46.0506 12.8935 46.0506 13.4932C46.4413 13.1053 46.7467 12.7889 47.0658 12.4835C47.5995 11.9718 48.0892 11.9636 48.6147 12.478C49.4208 13.2704 50.2214 14.0682 51.011 14.8743C51.5007 15.375 51.4952 15.8757 51.011 16.382C50.7084 16.7011 50.3837 16.9982 50.0206 17.3559C50.5378 17.4769 51.0055 17.4026 51.4649 17.4192C52.1472 17.4439 52.4801 17.7631 52.4856 18.4481C52.4939 19.5981 52.4911 20.7453 52.4856 21.8953C52.4829 22.6079 52.1472 22.9298 51.4237 22.938C51.0027 22.9435 50.5818 22.9435 50.1609 22.9463C50.1471 22.9463 50.1306 22.9628 50.0646 22.9986C50.4828 23.458 50.8047 23.9945 51.5722 23.8679C51.9464 23.8046 52.2243 24.0357 52.3948 24.3714C53.6164 26.8117 54.8489 29.2465 56.0484 31.695C56.4006 32.4159 55.9631 33.0349 55.1405 33.0459C54.395 33.0569 53.6466 33.0624 52.9011 33.0404C52.5902 33.0321 52.4774 33.0981 52.4774 33.4393C52.4911 36.5234 52.4911 39.6074 52.4774 42.6888C52.4774 42.9859 52.5819 43.0739 52.846 43.1345C54.5463 43.5361 55.6027 44.6284 55.8338 46.1993C56.0677 47.784 55.3744 49.1678 53.886 50.0289C48.8101 52.9617 43.7314 55.8862 38.6554 58.8162C37.6045 59.4215 36.482 59.7158 35.266 59.7131C30.9191 59.6993 26.5695 59.6828 22.2226 59.7213C20.7672 59.7351 19.4219 59.4517 18.1509 58.7557C17.972 58.6566 17.8015 58.5191 17.5484 58.5273C17.5484 58.8575 17.5511 59.1794 17.5484 59.5013C17.5429 60.3018 17.2347 60.621 16.4506 60.6237C14.1149 60.6265 11.7764 60.6265 9.44063 60.6237C8.6813 60.6237 8.36492 60.3018 8.35666 59.548C8.34841 58.7887 8.34841 58.7887 7.56432 58.7887C5.74579 58.7887 3.92451 58.7914 2.10598 58.7887C1.31639 58.7887 1.00275 58.4723 1.00275 57.6717C1 53.5147 1 49.3576 1 45.2034C1 44.378 1.30813 44.0809 2.15275 44.0781C4.06757 44.0754 5.98239 44.0671 7.89997 44.0864C8.28238 44.0919 8.37042 43.9791 8.36492 43.6104C8.35391 42.4439 8.57401 42.2376 9.7185 42.2376C11.9415 42.2376 14.1617 42.2376 16.3846 42.2376C17.2567 42.2376 17.5429 42.532 17.5511 43.4068C17.5566 43.825 17.4191 44.422 17.6337 44.6119C17.8868 44.8347 18.404 44.455 18.8222 44.4193C19.2981 44.378 19.4027 44.1386 19.3999 43.6737C19.3751 40.3035 19.3779 36.9333 19.3972 33.5631C19.3999 33.1312 19.2926 33.0101 18.8634 33.0349C18.1564 33.0734 17.4466 33.0541 16.7368 33.0431C15.8894 33.0321 15.463 32.3966 15.8344 31.6455C17.0229 29.2327 18.2362 26.8337 19.4357 24.4264C19.6475 24 19.9832 23.8349 20.4564 23.8459C21.2212 23.8624 21.2239 23.8432 21.2239 23.0646C21.2239 22.7592 21.2212 22.4511 21.2239 22.1457C21.2377 21.235 20.9131 20.4757 20.2418 19.8484C18.3077 18.0409 17.4383 15.807 17.5484 13.1658C17.6749 10.2166 19.9006 7.09397 22.6298 6.08703C23.3809 5.80916 23.9806 6.21634 23.9834 7.02794C23.9916 8.94276 23.9916 10.8576 23.9806 12.7724C23.9779 13.0833 24.0329 13.3006 24.33 13.4712C24.8418 13.7628 25.326 14.3543 25.8212 14.3543C26.3164 14.3571 26.8061 13.7711 27.3151 13.4767C27.6039 13.3089 27.6727 13.0943 27.67 12.7807C27.6562 10.9236 27.6617 9.06656 27.6645 7.20676C27.6645 6.12005 28.2725 5.74038 29.2767 6.19433C34.4957 8.55484 35.7997 15.5428 31.6729 19.5403C30.4129 20.7618 30.3909 22.1319 30.4184 23.6313C30.4239 23.8707 30.567 23.8514 30.721 23.8514C32.3112 23.8514 33.9014 23.8707 35.4888 23.8404C36.0005 23.8322 36.1711 23.2984 36.6361 22.9325ZM28.5201 57.8698C30.7623 57.8698 33.0018 57.8726 35.244 57.867C35.5301 57.867 35.8162 57.8395 36.0996 57.8038C37.2798 57.6497 38.2097 56.9399 39.1974 56.3732C43.8029 53.7265 48.4029 51.0689 53.0001 48.4085C53.985 47.8362 54.3042 46.7688 53.7924 45.8581C53.2972 44.9778 52.1803 44.6559 51.2531 45.1841C48.2653 46.8898 45.2913 48.6148 42.309 50.3316C42.1302 50.4334 42.0394 50.5462 42.0229 50.7745C41.811 53.5559 39.7807 54.9701 37.068 54.2437C34.8368 53.6467 32.6056 53.058 30.3716 52.4665C29.0813 52.1226 27.7883 51.7842 26.5007 51.4265C25.9395 51.2697 25.6809 50.813 25.8102 50.2848C25.9285 49.8088 26.3797 49.531 26.9189 49.619C27.106 49.6493 27.2903 49.707 27.4746 49.7566C30.9026 50.6755 34.3306 51.5999 37.7613 52.5132C39.1424 52.8819 40.3612 51.897 40.1823 50.5434C40.0585 49.5997 39.4065 49.1623 38.5399 48.9312C34.5397 47.8665 30.5422 46.7853 26.542 45.7123C25.2489 45.3657 23.9696 44.9888 22.5995 45.3657C21.0726 45.7839 19.5292 46.1498 17.9886 46.5157C17.6226 46.6037 17.5319 46.7688 17.5346 47.1374C17.5539 49.7428 17.6089 52.3482 17.5154 54.9508C17.4768 56.0348 17.774 56.6043 18.7891 57.0472C19.9694 57.5644 21.1222 57.9221 22.4235 57.8891C24.4593 57.8313 26.4897 57.8698 28.5201 57.8698ZM36.9635 28.8943C36.9277 28.9053 36.8947 28.9136 36.8589 28.9246C36.8589 34.4737 36.8589 40.0256 36.8589 45.5748C36.8589 46.59 36.8617 46.5789 37.8383 46.8265C39.0929 47.1429 40.4079 47.352 41.2498 48.5103C41.4369 48.7661 41.6267 48.5873 41.7973 48.4883C44.6117 46.8651 47.4207 45.2364 50.2407 43.6214C50.5516 43.4453 50.6478 43.2363 50.6478 42.8896C50.6396 39.8083 50.6368 36.727 50.6616 33.6456C50.6644 33.1697 50.5378 33.0349 50.0591 33.0376C46.7274 33.0596 43.3985 33.0266 40.0668 33.0651C39.2992 33.0734 38.8728 32.8065 38.5646 32.1187C38.0749 31.021 37.4999 29.9673 36.9635 28.8943ZM35.0294 28.8971C34.9964 28.8888 34.9661 28.8806 34.9331 28.8723C34.8451 29.0291 34.7515 29.186 34.669 29.3483C34.1793 30.3222 33.6703 31.2879 33.2136 32.2755C32.9522 32.8395 32.5726 33.0514 31.9563 33.0459C28.5889 33.0266 25.2214 33.0459 21.854 33.0266C21.3698 33.0239 21.1992 33.1174 21.2047 33.6484C21.2322 36.8232 21.2294 40.0009 21.2074 43.1757C21.2047 43.7232 21.3505 43.8333 21.8677 43.6764C23.2736 43.2528 24.6794 43.3023 26.099 43.6985C28.8557 44.4688 31.6289 45.1786 34.3884 45.9324C34.8533 46.059 35.0459 46.048 35.0431 45.4592C35.0184 40.0834 35.0294 34.7048 35.0294 29.329C35.0294 29.1832 35.0294 29.0402 35.0294 28.8971ZM22.1483 8.49432C22.0163 8.57135 21.953 8.60161 21.8952 8.64288C18.8029 10.9951 18.5168 15.6639 21.3477 18.327C22.561 19.4715 23.1305 20.8031 23.0782 22.4593C23.0315 23.9037 23.0672 23.8927 24.5116 23.8597C24.8555 23.8514 24.9215 23.7304 24.9133 23.425C24.894 22.6987 24.9023 21.9696 24.9078 21.2433C24.9133 20.5775 25.2819 20.1648 25.8432 20.1758C26.3824 20.1868 26.7373 20.5858 26.7428 21.2213C26.7511 21.9476 26.7621 22.6767 26.7373 23.403C26.7263 23.7441 26.8088 23.9119 27.1775 23.8542C27.3096 23.8349 27.4444 23.8514 27.5792 23.8514C28.5834 23.8514 28.6329 23.8487 28.5724 22.828C28.4623 20.9902 29.0593 19.5238 30.4046 18.217C32.9082 15.7767 32.8752 11.793 30.4569 9.2674C30.1873 8.98678 29.9149 8.69791 29.5023 8.52183C29.5023 10.2221 29.4913 11.87 29.5078 13.5152C29.5133 14.0049 29.3372 14.3516 28.9273 14.6157C28.1074 15.1439 27.2931 15.6804 26.4925 16.2389C26.0138 16.5745 25.5901 16.5498 25.1251 16.2169C24.4868 15.7629 23.8486 15.2952 23.1635 14.9183C22.3822 14.4891 22.0796 13.9197 22.1263 13.0145C22.2006 11.5371 22.1483 10.0487 22.1483 8.49432ZM15.7133 51.4926C15.7133 49.1953 15.6996 46.8981 15.7243 44.6008C15.7298 44.1607 15.6005 44.0616 15.1796 44.0699C13.6664 44.0946 12.1533 44.0891 10.6429 44.0726C10.299 44.0699 10.1862 44.1497 10.1862 44.5156C10.2 49.1293 10.2 53.743 10.1862 58.3568C10.1862 58.7199 10.2962 58.8024 10.6429 58.7997C12.156 58.7832 13.6692 58.7777 15.1796 58.8024C15.5978 58.8107 15.7298 58.7144 15.7243 58.2715C15.6996 56.01 15.7133 53.7513 15.7133 51.4926ZM18.1509 31.1586C18.2747 31.1861 18.3104 31.2026 18.3462 31.2026C22.6546 31.2053 26.9657 31.1998 31.274 31.2163C31.6344 31.2163 31.7747 31.0458 31.9123 30.7679C32.6579 29.2575 33.4172 27.7553 34.1655 26.2449C34.2453 26.0826 34.3966 25.9341 34.3306 25.6947C29.9479 25.6947 25.5626 25.6947 21.1799 25.692C20.9901 25.692 20.8553 25.7497 20.7645 25.9313C19.9061 27.6563 19.0395 29.3813 18.1509 31.1586ZM53.7017 31.1971C53.6109 30.9852 53.5503 30.8257 53.4761 30.6771C52.7332 29.1887 51.9739 27.7058 51.2504 26.2064C51.066 25.824 50.8459 25.6892 50.4222 25.692C46.268 25.7085 42.1109 25.7002 37.9566 25.7057C37.8163 25.7057 37.6568 25.6424 37.4999 25.7993C38.3088 27.417 39.1341 29.0346 39.921 30.6689C40.1163 31.0733 40.3419 31.2136 40.7931 31.2108C44.9089 31.1916 49.0274 31.1998 53.1432 31.1998C53.311 31.1971 53.4788 31.1971 53.7017 31.1971ZM8.35391 51.4128C8.35391 49.7291 8.34291 48.0453 8.36217 46.3616C8.36492 46.0095 8.27138 45.9049 7.91372 45.9104C6.36481 45.9297 4.81314 45.9297 3.26422 45.9077C2.88456 45.9022 2.83229 46.0452 2.83229 46.3726C2.84329 49.7428 2.84604 53.1075 2.83229 56.4749C2.82954 56.8436 2.92308 56.9619 3.30549 56.9564C4.81589 56.9344 6.32904 56.9261 7.83944 56.9564C8.29339 56.9647 8.36767 56.8106 8.36217 56.4034C8.34016 54.7417 8.35391 53.0772 8.35391 51.4128ZM48.0975 23.8322C48.1333 23.7826 48.1718 23.7331 48.2075 23.6836C48.0947 23.6148 47.9627 23.5625 47.8692 23.4718C47.2199 22.8307 47.1951 22.7014 47.5198 21.9201C47.8334 21.1663 47.9709 21.0782 48.8788 21.0782C49.0136 21.0782 49.1457 21.0782 49.2805 21.0782C50.6974 21.0782 50.6864 21.0782 50.6423 19.6559C50.6341 19.3615 50.5653 19.2487 50.2544 19.2624C49.7757 19.2872 49.297 19.2432 48.8183 19.2735C48.158 19.3147 47.7674 19.0616 47.4977 18.4316C47.2226 17.7933 47.3217 17.3339 47.8251 16.9074C47.9407 16.8084 48.0425 16.6928 48.1525 16.5855C49.1622 15.5786 49.154 15.5869 48.103 14.5909C47.8692 14.3708 47.7536 14.4121 47.5638 14.6185C47.2281 14.9844 46.8512 15.3145 46.5183 15.6832C46.0836 16.1619 45.6352 16.2224 45.0327 15.9638C44.4357 15.7079 44.1385 15.3475 44.1963 14.701C44.2101 14.5304 44.1991 14.3571 44.1991 14.1838C44.1991 12.7146 44.1991 12.7229 42.7162 12.8247C42.4741 12.8412 42.3778 12.9017 42.386 13.1548C42.3998 13.672 42.3668 14.1893 42.397 14.7037C42.4356 15.353 42.1467 15.7079 41.5497 15.9638C40.9444 16.2251 40.4877 16.1591 40.0668 15.6749C39.954 15.5456 39.8274 15.4273 39.7036 15.309C39.39 15.0036 39.0434 14.4314 38.7627 14.4616C38.3996 14.5002 38.0997 15.0339 37.7531 15.331C37.5137 15.5373 37.4834 15.6832 37.742 15.9088C38.1162 16.2361 38.4408 16.6186 38.8095 16.9515C39.291 17.3861 39.3405 17.8401 39.0846 18.4398C38.8288 19.0396 38.4629 19.3285 37.8163 19.2707C37.6458 19.2569 37.4724 19.2679 37.2991 19.2679C35.8878 19.2679 35.8988 19.2679 35.9455 20.6986C35.9565 21.0067 36.0473 21.092 36.3417 21.081C36.8974 21.0617 37.4532 21.081 38.0062 21.0727C38.3556 21.0672 38.6857 21.158 38.848 21.4661C39.346 22.3988 39.5166 22.7565 38.7132 23.4855C38.6224 23.568 38.4849 23.6313 38.4739 23.7826C38.5069 23.7991 38.5371 23.8294 38.5674 23.8294C39.8852 23.8322 41.203 23.8322 42.5456 23.8322C40.4932 23.1719 39.3707 21.5707 39.6156 19.6779C39.8329 18.0024 41.3213 16.58 42.961 16.4838C44.8401 16.371 46.4523 17.5209 46.876 19.2569C47.1236 20.2776 46.9723 21.2268 46.4303 22.1209C45.8966 23.0041 45.085 23.5103 44.0092 23.8267C45.4564 23.8322 46.7769 23.8322 48.0975 23.8322ZM43.3132 18.3436C42.3173 18.3325 41.4809 19.1441 41.4616 20.1401C41.4424 21.158 42.2843 22.0081 43.3049 22.0081C44.2954 22.0054 45.129 21.1718 45.129 20.1786C45.129 19.1799 44.3119 18.3546 43.3132 18.3436Z" fill="#012D3A"/>
<path d="M28.5201 57.8696C26.4897 57.8696 24.4593 57.8311 22.4289 57.8834C21.1276 57.9164 19.9749 57.5587 18.7946 57.0415C17.7794 56.5986 17.4823 56.0291 17.5208 54.9451C17.6144 52.3425 17.5593 49.7371 17.5401 47.1318C17.5373 46.7631 17.6281 46.598 17.994 46.51C19.5347 46.1441 21.0781 45.7782 22.605 45.36C23.9751 44.9858 25.2544 45.36 26.5475 45.7066C30.5477 46.7796 34.5451 47.8608 38.5454 48.9255C39.4092 49.1566 40.064 49.5941 40.1878 50.5377C40.3666 51.8941 39.1479 52.8762 37.7668 52.5076C34.3361 51.5942 30.9108 50.6698 27.4801 49.7509C27.2958 49.7014 27.1114 49.6436 26.9244 49.6133C26.3851 49.5253 25.9339 49.8004 25.8156 50.2791C25.6863 50.8073 25.9449 51.264 26.5062 51.4209C27.7937 51.7785 29.0868 52.1169 30.3771 52.4608C32.6083 53.0551 34.8423 53.6411 37.0735 54.2381C39.7861 54.9644 41.8165 53.553 42.0284 50.7688C42.0449 50.5405 42.1357 50.4304 42.3145 50.3259C45.2968 48.6119 48.2708 46.8842 51.2586 45.1784C52.1857 44.6502 53.3027 44.9721 53.7979 45.8525C54.3096 46.7604 53.9905 47.8306 53.0056 48.4028C48.4084 51.066 43.8084 53.7208 39.2029 56.3675C38.2152 56.9342 37.2853 57.644 36.1051 57.7981C35.8217 57.8339 35.5356 57.8614 35.2494 57.8614C33.0017 57.8724 30.7623 57.8696 28.5201 57.8696Z" fill="white"/>
<path d="M36.9634 28.8943C37.5027 29.9672 38.0749 31.021 38.5646 32.1159C38.8728 32.8065 39.2992 33.0706 40.0668 33.0623C43.3957 33.0238 46.7274 33.0568 50.0591 33.0348C50.5405 33.0321 50.6671 33.1669 50.6616 33.6428C50.6368 36.7242 50.6396 39.8055 50.6478 42.8868C50.6478 43.2335 50.5515 43.4425 50.2406 43.6186C47.4207 45.2336 44.6117 46.8623 41.7973 48.4855C41.6267 48.5845 41.4369 48.7633 41.2498 48.5075C40.4052 47.3492 39.0928 47.1429 37.8383 46.8237C36.8616 46.5761 36.8589 46.5871 36.8589 45.572C36.8589 40.0228 36.8589 34.4709 36.8589 28.9218C36.8947 28.9135 36.9277 28.9053 36.9634 28.8943Z" fill="#04A2D8"/>
<path d="M35.0294 28.897C35.0294 29.04 35.0294 29.1831 35.0294 29.3289C35.0294 34.7047 35.0184 40.0833 35.0432 45.4591C35.0459 46.0478 34.8533 46.0588 34.3884 45.9323C31.6262 45.1812 28.853 44.4686 26.0991 43.6983C24.6767 43.3021 23.2736 43.2526 21.8678 43.6763C21.3505 43.8331 21.2047 43.7231 21.2075 43.1756C21.2295 40.0007 21.2322 36.8231 21.2047 33.6482C21.1992 33.1173 21.3725 33.0237 21.854 33.0265C25.2214 33.0457 28.5889 33.0265 31.9563 33.0457C32.5726 33.0485 32.9523 32.8394 33.2136 32.2754C33.6703 31.2877 34.1793 30.3221 34.669 29.3481C34.7515 29.1858 34.8451 29.0318 34.9331 28.8722C34.9661 28.8804 34.9991 28.8887 35.0294 28.897Z" fill="#04A2D8"/>
<path d="M22.1483 8.49438C22.1483 10.0488 22.2033 11.5372 22.1291 13.0173C22.085 13.9225 22.3849 14.492 23.1662 14.9211C23.8513 15.2981 24.4896 15.7658 25.1278 16.2197C25.5928 16.5498 26.0165 16.5746 26.4952 16.2417C27.293 15.6832 28.1101 15.1467 28.93 14.6185C29.3399 14.3544 29.516 14.0078 29.5105 13.518C29.494 11.8728 29.505 10.2249 29.505 8.52465C29.9177 8.70072 30.19 8.9896 30.4596 9.27022C32.8779 11.7958 32.9109 15.7795 30.4074 18.2198C29.0648 19.5294 28.465 20.993 28.5751 22.8308C28.6356 23.8515 28.5861 23.8542 27.5819 23.8542C27.4471 23.8542 27.3123 23.8377 27.1802 23.857C26.8116 23.9148 26.729 23.7469 26.74 23.4058C26.7648 22.6795 26.7538 21.9504 26.7455 21.2241C26.7373 20.5913 26.3851 20.1897 25.8459 20.1787C25.2847 20.1677 24.916 20.5776 24.9105 21.2461C24.905 21.9724 24.8967 22.7015 24.916 23.4278C24.9243 23.7332 24.8582 23.8542 24.5143 23.8625C23.0727 23.8955 23.0342 23.9093 23.081 22.4621C23.1332 20.8059 22.5665 19.4744 21.3505 18.3299C18.5195 15.664 18.8084 10.9952 21.898 8.6457C21.9502 8.60168 22.0163 8.57417 22.1483 8.49438Z" fill="#2661AE"/>
<path d="M15.7133 51.4924C15.7133 53.7512 15.6996 56.0099 15.7243 58.2686C15.7299 58.7115 15.5978 58.8078 15.1796 58.7996C13.6665 58.7748 12.1533 58.7803 10.6429 58.7968C10.299 58.7996 10.1862 58.717 10.1862 58.3539C10.2 53.7402 10.2 49.1264 10.1862 44.5127C10.1862 44.1468 10.299 44.067 10.6429 44.0697C12.1561 44.0863 13.6692 44.0918 15.1796 44.067C15.6005 44.0587 15.7299 44.1578 15.7243 44.598C15.6996 46.8952 15.7133 49.1924 15.7133 51.4924Z" fill="#04A2D8"/>
<path d="M18.1509 31.1584C19.0395 29.3811 19.9061 27.6561 20.7645 25.9311C20.8553 25.7523 20.9873 25.6918 21.1799 25.6918C25.5653 25.6945 29.948 25.6945 34.3306 25.6945C34.3966 25.9339 34.2453 26.0824 34.1655 26.2448C33.4172 27.7524 32.6579 29.2573 31.9123 30.7677C31.7747 31.0456 31.6344 31.2189 31.274 31.2161C26.9657 31.2024 22.6546 31.2051 18.3462 31.2024C18.3104 31.2024 18.2747 31.1859 18.1509 31.1584Z" fill="#04A2D8"/>
<path d="M53.7017 31.1971C53.4761 31.1971 53.311 31.1971 53.1432 31.1971C49.0274 31.1971 44.9089 31.1889 40.7931 31.2081C40.3419 31.2109 40.1163 31.0706 39.921 30.6661C39.1341 29.0319 38.3088 27.4142 37.4999 25.7965C37.6568 25.6397 37.8163 25.703 37.9566 25.703C42.1109 25.6975 46.268 25.7058 50.4222 25.6893C50.8487 25.6865 51.066 25.8213 51.2503 26.2037C51.9739 27.7031 52.7332 29.186 53.4761 30.6744C53.5531 30.8285 53.6109 30.9853 53.7017 31.1971Z" fill="#04A2D8"/>
<path d="M8.3539 51.4128C8.3539 53.0773 8.34014 54.7417 8.36215 56.4062C8.36765 56.8134 8.29337 56.9674 7.83943 56.9592C6.32903 56.9289 4.81588 56.9344 3.30548 56.9592C2.92306 56.9647 2.82952 56.8464 2.83227 56.4777C2.84603 53.1075 2.84328 49.7428 2.83502 46.3754C2.83502 46.048 2.8873 45.9049 3.26696 45.9104C4.81588 45.9324 6.36754 45.9324 7.91646 45.9132C8.27411 45.9077 8.36765 46.0122 8.3649 46.3644C8.34289 48.0453 8.3539 49.7291 8.3539 51.4128Z" fill="#04A2D8"/>
<path d="M48.0975 23.8321C46.7769 23.8321 45.4563 23.8321 44.0092 23.8321C45.0849 23.5157 45.8993 23.0094 46.4302 22.1263C46.9695 21.2322 47.1235 20.2803 46.8759 19.2623C46.455 17.5263 44.8401 16.3763 42.961 16.4891C41.3213 16.5854 39.8329 18.0078 39.6156 19.6833C39.3707 21.5761 40.4932 23.1773 42.5456 23.8376C41.2057 23.8376 39.8852 23.8376 38.5674 23.8348C38.5371 23.8348 38.5068 23.8045 38.4738 23.788C38.4848 23.634 38.6196 23.5734 38.7132 23.4909C39.5165 22.7618 39.3459 22.4042 38.848 21.4715C38.6857 21.1662 38.3555 21.0726 38.0061 21.0781C37.4504 21.0864 36.8946 21.0671 36.3417 21.0864C36.0473 21.0974 35.9537 21.0093 35.9455 20.704C35.8987 19.2733 35.8877 19.2733 37.2991 19.2733C37.4724 19.2733 37.6457 19.2596 37.8163 19.2761C38.4628 19.3339 38.826 19.0422 39.0846 18.4452C39.3404 17.8455 39.2909 17.3915 38.8095 16.9568C38.4408 16.624 38.1162 16.2388 37.742 15.9141C37.4834 15.6885 37.5137 15.5427 37.753 15.3364C38.0997 15.0393 38.3995 14.5055 38.7627 14.467C39.0433 14.4368 39.3872 15.009 39.7036 15.3144C39.8274 15.4354 39.954 15.551 40.0668 15.6803C40.4877 16.1673 40.9444 16.2305 41.5496 15.9692C42.1439 15.7133 42.4328 15.3612 42.397 14.7091C42.3667 14.1947 42.4025 13.6747 42.386 13.1602C42.3777 12.9071 42.474 12.8466 42.7161 12.8301C44.199 12.7255 44.199 12.72 44.199 14.1892C44.199 14.3625 44.2128 14.5358 44.1963 14.7064C44.1413 15.3529 44.4356 15.7133 45.0326 15.9692C45.6351 16.2278 46.0863 16.1673 46.5183 15.6885C46.8512 15.3199 47.2281 14.9897 47.5637 14.6238C47.7536 14.4175 47.8691 14.3762 48.103 14.5963C49.1539 15.5923 49.1622 15.5813 48.1525 16.5909C48.0452 16.6982 47.9434 16.8165 47.8251 16.9128C47.3216 17.3393 47.2226 17.7987 47.4977 18.437C47.7701 19.067 48.158 19.3201 48.8183 19.2788C49.2942 19.2486 49.7757 19.2898 50.2544 19.2678C50.5625 19.2513 50.6313 19.3669 50.6423 19.6613C50.6863 21.0836 50.6973 21.0836 49.2805 21.0836C49.1457 21.0836 49.0136 21.0836 48.8788 21.0836C47.9709 21.0836 47.8333 21.1717 47.5197 21.9255C47.1951 22.7068 47.2226 22.8361 47.8691 23.4771C47.9599 23.5679 48.092 23.6202 48.2075 23.689C48.1717 23.733 48.1332 23.7825 48.0975 23.8321Z" fill="#2661AE"/>
</svg>
