<svg width="980" height="637" viewBox="0 0 980 637" fill="none" xmlns="http://www.w3.org/2000/svg">
<path d="M430 255H555" stroke="#C4C4C4" stroke-width="4" stroke-linecap="round" stroke-dasharray="0.1 7"/>
<path d="M492.5 120.5L492.5 367.5" stroke="#C4C4C4" stroke-width="4" stroke-linecap="round" stroke-dasharray="0.1 7"/>
<circle cx="491" cy="73" r="73" fill="url(#paint0_linear_159_625)"/>
<path d="M456.575 64.89V92.67H460.355V64.89H456.575ZM452.855 75.57V78.78H457.475V75.57H452.855ZM450.365 65.37V91.35H454.055V65.37H450.365ZM437.285 83.13V86.4H439.235C442.805 86.4 445.745 86.31 449.105 85.65L448.805 82.41C445.505 83.01 442.655 83.13 439.235 83.13H437.285ZM437.285 68.1V84.69H441.245V71.31H447.545V68.1H437.285ZM470.282 80.01V87.48H474.272V80.01H470.282ZM479.012 80.04V87.51H482.972V80.04H479.012ZM464.132 86.4V89.64H489.272V86.4H464.132ZM466.052 67.08V70.26H487.202V67.08H466.052ZM466.172 78.06V81.21H487.112V78.06H466.172ZM469.832 69.72V78.51H473.822V69.72H469.832ZM479.462 69.72V78.51H483.422V69.72H479.462ZM510.75 64.86V92.73H514.77V64.86H510.75ZM499.8 66.81C495.6 66.81 492.51 70.65 492.51 76.71C492.51 82.83 495.6 86.67 499.8 86.67C504 86.67 507.09 82.83 507.09 76.71C507.09 70.65 504 66.81 499.8 66.81ZM499.8 70.44C501.87 70.44 503.25 72.63 503.25 76.71C503.25 80.85 501.87 83.07 499.8 83.07C497.73 83.07 496.32 80.85 496.32 76.71C496.32 72.63 497.73 70.44 499.8 70.44ZM525.538 67.02V71.07C525.538 76.23 523.408 81.57 518.728 83.76L521.128 86.97C526.378 84.39 528.778 77.94 528.778 71.07V67.02H525.538ZM526.348 67.02V71.07C526.348 77.73 528.538 83.91 533.548 86.46L535.948 83.28C531.508 81.12 529.528 76.05 529.528 71.07V67.02H526.348ZM537.058 64.89V92.67H541.078V64.89H537.058ZM540.178 75.57V78.9H545.098V75.57H540.178Z" fill="white"/>
<path d="M102 465V374H883V458" stroke="#C4C4C4" stroke-width="4" stroke-linecap="round" stroke-linejoin="round" stroke-dasharray="0.1 7"/>
<path d="M358 380.5L358 464" stroke="#C4C4C4" stroke-width="4" stroke-linecap="round" stroke-dasharray="0.1 7"/>
<path d="M621 380.5L621 464" stroke="#C4C4C4" stroke-width="4" stroke-linecap="round" stroke-dasharray="0.1 7"/>
<rect x="190" y="214" width="250" height="80" rx="14" fill="#03A2D9"/>
<path d="M253.446 241.02V245.07C253.446 250.23 251.316 255.57 246.636 257.76L249.036 260.97C254.286 258.39 256.686 251.94 256.686 245.07V241.02H253.446ZM254.256 241.02V245.07C254.256 251.73 256.446 257.91 261.456 260.46L263.856 257.28C259.416 255.12 257.436 250.05 257.436 245.07V241.02H254.256ZM264.966 238.89V266.67H268.986V238.89H264.966ZM268.086 249.57V252.9H273.006V249.57H268.086ZM288.844 245.01V248.22H295.804V245.01H288.844ZM282.484 240.03C278.284 240.03 275.134 242.82 275.134 246.66C275.134 250.53 278.284 253.29 282.484 253.29C286.654 253.29 289.804 250.53 289.804 246.66C289.804 242.82 286.654 240.03 282.484 240.03ZM282.484 243.36C284.524 243.36 285.994 244.59 285.994 246.66C285.994 248.73 284.524 249.99 282.484 249.99C280.444 249.99 278.944 248.73 278.944 246.66C278.944 244.59 280.444 243.36 282.484 243.36ZM294.064 238.89V253.83H298.054V238.89H294.064ZM279.604 255.03V266.37H298.054V255.03H294.094V257.67H283.564V255.03H279.604ZM283.564 260.73H294.094V263.19H283.564V260.73ZM312.961 254.16V258.39H316.951V254.16H312.961ZM302.401 251.88V255.03H327.511V251.88H302.401ZM304.591 239.64V242.82H325.291V239.64H304.591ZM304.801 246.99V250.17H325.081V246.99H304.801ZM308.131 240.81V249.06H312.121V240.81H308.131ZM317.761 240.81V249.06H321.751V240.81H317.761ZM305.311 257.34V266.37H324.511V257.34H305.311ZM320.611 260.43V263.22H309.241V260.43H320.611ZM349.079 238.89V253.11H353.099V238.89H349.079ZM334.559 254.22V257.25H349.139V258.9H334.619V264.6H338.519V261.69H353.099V254.22H334.559ZM334.619 263.43V266.49H353.789V263.43H334.619ZM336.749 241.53V242.61C336.749 245.79 334.739 249.03 330.119 250.32L331.949 253.44C337.379 251.91 339.989 247.53 339.989 242.61V241.53H336.749ZM337.619 241.53V242.61C337.619 247.26 340.169 251.43 345.509 252.87L347.339 249.81C342.809 248.58 340.829 245.55 340.829 242.61V241.53H337.619ZM331.169 240.15V243.3H346.289V240.15H331.169ZM357.596 254.88V258.03H382.766V254.88H357.596ZM368.096 256.47V266.67H372.056V256.47H368.096ZM360.476 239.94V252.24H379.796V239.94H375.836V243.09H364.436V239.94H360.476ZM364.436 246.21H375.836V249.06H364.436V246.21Z" fill="white"/>
<path d="M76.4062 228.037C76.4062 227.673 76.5267 227.367 76.7676 227.119C77.015 226.865 77.3535 226.738 77.7832 226.738C78.2129 226.738 78.5482 226.865 78.7891 227.119C79.0365 227.367 79.1602 227.673 79.1602 228.037C79.1602 228.402 79.0365 228.708 78.7891 228.955C78.5482 229.196 78.2129 229.316 77.7832 229.316C77.3535 229.316 77.015 229.196 76.7676 228.955C76.5267 228.708 76.4062 228.402 76.4062 228.037ZM88.3645 220.28V221.66H100.005V220.28H88.3645ZM86.6445 232.66V234.04H102.985V232.66H86.6445ZM92.9845 226.2V233.34H94.6445V226.2H92.9845ZM99.3845 220.28V222.08C99.3845 224.24 99.3845 226.78 98.7045 230.24L100.365 230.46C101.025 226.8 101.025 224.32 101.025 222.08V220.28H99.3845ZM118.683 218.48V229.14H120.263V218.48H118.683ZM115.803 223.02V224.4H119.223V223.02H115.803ZM114.743 218.82V229.04H116.303V218.82H114.743ZM108.123 230V231.36H118.623V236.56H120.263V230H108.123ZM111.223 219.82V220.38C111.223 223.76 109.143 226.46 105.123 228.1L105.943 229.32C110.503 227.4 112.903 224.14 112.903 219.82H111.223ZM105.843 219.82V221.18H111.823V219.82H105.843ZM124.401 219.88V221.24H132.401V219.88H124.401ZM127.121 223.92V228.44H128.761V223.92H127.121ZM131.741 219.88V220.84C131.741 222 131.741 223.64 131.281 226.02L132.901 226.2C133.381 223.82 133.381 222.02 133.381 220.84V219.88H131.741ZM135.841 218.48V232.1H137.501V218.48H135.841ZM136.741 224.36V225.74H140.081V224.36H136.741ZM126.081 234.8V236.16H138.081V234.8H126.081ZM126.081 230.84V235.22H127.721V230.84H126.081ZM123.481 229.22C126.661 229.22 130.981 229.14 134.741 228.48L134.621 227.28C130.961 227.78 126.521 227.86 123.301 227.86L123.481 229.22ZM155 218.46V236.58H156.66V218.46H155ZM142.88 230.84V232.22H144.38C147.48 232.22 150.2 232.1 153.48 231.56L153.3 230.2C150.1 230.72 147.4 230.84 144.38 230.84H142.88ZM142.84 220.16V221.52H149.52V225.26H142.88V231.36H144.54V226.62H151.2V220.16H142.84ZM76.4062 256.037C76.4062 255.673 76.5267 255.367 76.7676 255.119C77.015 254.865 77.3535 254.738 77.7832 254.738C78.2129 254.738 78.5482 254.865 78.7891 255.119C79.0365 255.367 79.1602 255.673 79.1602 256.037C79.1602 256.402 79.0365 256.708 78.7891 256.955C78.5482 257.196 78.2129 257.316 77.7832 257.316C77.3535 257.316 77.015 257.196 76.7676 256.955C76.5267 256.708 76.4062 256.402 76.4062 256.037ZM94.1645 247.64V248.34C94.1645 251.7 91.4045 254.32 86.8245 255.62L87.5045 256.92C92.7045 255.46 95.9045 252.2 95.9045 247.64H94.1645ZM87.7645 247.64V248.98H95.2845V247.64H87.7645ZM99.8445 246.48V256.8H101.505V246.48H99.8445ZM95.9245 251.12V252.5H100.165V251.12H95.9245ZM89.8445 257.56V264.32H101.505V257.56H89.8445ZM99.8845 258.9V262.96H91.4845V258.9H99.8845ZM109.463 248.04V251.28C109.463 254.58 107.403 258.06 104.783 259.38L105.803 260.7C108.663 259.18 110.823 255.28 110.823 251.28V248.04H109.463ZM109.763 248.04V251.28C109.763 255.16 111.863 258.86 114.663 260.36L115.683 259.04C113.123 257.76 111.103 254.46 111.103 251.28V248.04H109.763ZM117.263 246.48V264.56H118.943V246.48H117.263ZM118.543 253.8V255.2H121.903V253.8H118.543ZM124.401 247.88V249.24H132.401V247.88H124.401ZM127.121 251.92V256.44H128.761V251.92H127.121ZM131.741 247.88V248.84C131.741 250 131.741 251.64 131.281 254.02L132.901 254.2C133.381 251.82 133.381 250.02 133.381 248.84V247.88H131.741ZM135.841 246.48V260.1H137.501V246.48H135.841ZM136.741 252.36V253.74H140.081V252.36H136.741ZM126.081 262.8V264.16H138.081V262.8H126.081ZM126.081 258.84V263.22H127.721V258.84H126.081ZM123.481 257.22C126.661 257.22 130.981 257.14 134.741 256.48L134.621 255.28C130.961 255.78 126.521 255.86 123.301 255.86L123.481 257.22ZM155 246.46V264.58H156.66V246.46H155ZM142.88 258.84V260.22H144.38C147.48 260.22 150.2 260.1 153.48 259.56L153.3 258.2C150.1 258.72 147.4 258.84 144.38 258.84H142.88ZM142.84 248.16V249.52H149.52V253.26H142.88V259.36H144.54V254.62H151.2V248.16H142.84ZM76.4062 284.037C76.4062 283.673 76.5267 283.367 76.7676 283.119C77.015 282.865 77.3535 282.738 77.7832 282.738C78.2129 282.738 78.5482 282.865 78.7891 283.119C79.0365 283.367 79.1602 283.673 79.1602 284.037C79.1602 284.402 79.0365 284.708 78.7891 284.955C78.5482 285.196 78.2129 285.316 77.7832 285.316C77.3535 285.316 77.015 285.196 76.7676 284.955C76.5267 284.708 76.4062 284.402 76.4062 284.037ZM88.3245 276.28V277.66H99.9645V276.28H88.3245ZM86.6445 288.66V290.04H102.985V288.66H86.6445ZM90.6445 282.68V289.16H92.2845V282.68H90.6445ZM99.4245 276.28V278.28C99.4245 280.52 99.4245 282.92 98.7845 286.12L100.445 286.32C101.065 282.94 101.065 280.58 101.065 278.28V276.28H99.4245ZM95.1045 282.68V289.16H96.7445V282.68H95.1045ZM109.343 283.84V287.4H111.003V283.84H109.343ZM115.423 283.82V287.4H117.063V283.82H115.423ZM105.023 283.18V284.54H121.363V283.18H105.023ZM106.843 286.8V288.14H117.683V292.56H119.343V286.8H106.843ZM113.203 274.9C109.283 274.9 106.843 276.2 106.843 278.36C106.843 280.52 109.283 281.82 113.203 281.82C117.103 281.82 119.563 280.52 119.563 278.36C119.563 276.2 117.103 274.9 113.203 274.9ZM113.203 276.22C116.063 276.22 117.863 277 117.863 278.36C117.863 279.7 116.063 280.5 113.203 280.5C110.323 280.5 108.543 279.7 108.543 278.36C108.543 277 110.323 276.22 113.203 276.22ZM124.401 275.88V277.24H132.401V275.88H124.401ZM127.121 279.92V284.44H128.761V279.92H127.121ZM131.741 275.88V276.84C131.741 278 131.741 279.64 131.281 282.02L132.901 282.2C133.381 279.82 133.381 278.02 133.381 276.84V275.88H131.741ZM135.841 274.48V288.1H137.501V274.48H135.841ZM136.741 280.36V281.74H140.081V280.36H136.741ZM126.081 290.8V292.16H138.081V290.8H126.081ZM126.081 286.84V291.22H127.721V286.84H126.081ZM123.481 285.22C126.661 285.22 130.981 285.14 134.741 284.48L134.621 283.28C130.961 283.78 126.521 283.86 123.301 283.86L123.481 285.22ZM155 274.46V292.58H156.66V274.46H155ZM142.88 286.84V288.22H144.38C147.48 288.22 150.2 288.1 153.48 287.56L153.3 286.2C150.1 286.72 147.4 286.84 144.38 286.84H142.88ZM142.84 276.16V277.52H149.52V281.26H142.88V287.36H144.54V282.62H151.2V276.16H142.84Z" fill="#565656"/>
<rect x="545" y="214" width="250" height="80" rx="14" fill="#03A2D9"/>
<path d="M593.748 238.89V266.67H597.768V238.89H593.748ZM585.558 241.77V242.49C585.558 249.93 582.678 254.97 574.698 258.81L576.768 261.99C586.638 257.22 589.518 250.26 589.518 241.77H585.558ZM576.168 241.77V244.92H587.448V241.77H576.168ZM616.246 245.01V248.22H623.206V245.01H616.246ZM609.886 240.03C605.686 240.03 602.536 242.82 602.536 246.66C602.536 250.53 605.686 253.29 609.886 253.29C614.056 253.29 617.206 250.53 617.206 246.66C617.206 242.82 614.056 240.03 609.886 240.03ZM609.886 243.36C611.926 243.36 613.396 244.59 613.396 246.66C613.396 248.73 611.926 249.99 609.886 249.99C607.846 249.99 606.346 248.73 606.346 246.66C606.346 244.59 607.846 243.36 609.886 243.36ZM621.466 238.89V253.83H625.456V238.89H621.466ZM607.006 255.03V266.37H625.456V255.03H621.496V257.67H610.966V255.03H607.006ZM610.966 260.73H621.496V263.19H610.966V260.73ZM629.804 254.88V258.03H654.974V254.88H629.804ZM640.304 256.47V266.67H644.264V256.47H640.304ZM632.684 239.94V252.24H652.004V239.94H648.044V243.09H636.644V239.94H632.684ZM636.644 246.21H648.044V249.06H636.644V246.21ZM671.591 242.94V246.12H678.431V242.94H671.591ZM676.661 238.89V252.99H680.651V238.89H676.661ZM662.291 254.16V257.22H676.691V258.75H662.351V265.11H666.281V261.63H680.651V254.16H662.291ZM662.351 263.28V266.37H681.431V263.28H662.351ZM663.761 239.79V241.77C663.761 245.31 661.811 248.7 657.191 250.08L659.231 253.23C664.541 251.55 667.001 247.02 667.001 241.77V239.79H663.761ZM664.541 239.79V241.77C664.541 246.75 666.911 251.04 671.981 252.69L674.021 249.6C669.641 248.28 667.781 245.07 667.781 241.77V239.79H664.541ZM697.569 242.76V245.94H705.729V242.76H697.569ZM697.569 249.51V252.69H705.729V249.51H697.569ZM704.259 238.92V259.23H708.249V238.92H704.259ZM689.919 263.01V266.19H708.879V263.01H689.919ZM689.919 257.22V264.66H693.909V257.22H689.919ZM692.679 240.54C688.539 240.54 685.329 243.54 685.329 247.74C685.329 251.88 688.539 254.91 692.679 254.91C696.789 254.91 699.999 251.88 699.999 247.74C699.999 243.54 696.789 240.54 692.679 240.54ZM692.679 244.05C694.689 244.05 696.219 245.43 696.219 247.74C696.219 250.05 694.689 251.43 692.679 251.43C690.639 251.43 689.139 250.05 689.139 247.74C689.139 245.43 690.639 244.05 692.679 244.05ZM715.476 240.51V243.66H732.906V240.51H715.476ZM712.626 252.33V255.54H737.736V252.33H712.626ZM723.036 254.58V266.7H727.056V254.58H723.036ZM730.866 240.51V242.97C730.866 245.85 730.866 249.15 729.786 253.8L733.716 254.25C734.796 249.33 734.796 245.97 734.796 242.97V240.51H730.866ZM740.224 260.16V263.43H765.364V260.16H740.224ZM750.664 253.98V261.03H754.624V253.98H750.664ZM750.514 240.42V242.43C750.514 246.27 747.124 250.53 740.794 251.55L742.444 254.88C749.704 253.56 753.994 248.34 753.994 242.43V240.42H750.514ZM751.294 240.42V242.43C751.294 248.43 755.584 253.53 762.874 254.88L764.524 251.55C758.164 250.53 754.774 246.36 754.774 242.43V240.42H751.294Z" fill="white"/>
<path d="M826.406 227.037C826.406 226.673 826.527 226.367 826.768 226.119C827.015 225.865 827.354 225.738 827.783 225.738C828.213 225.738 828.548 225.865 828.789 226.119C829.036 226.367 829.16 226.673 829.16 227.037C829.16 227.402 829.036 227.708 828.789 227.955C828.548 228.196 828.213 228.316 827.783 228.316C827.354 228.316 827.015 228.196 826.768 227.955C826.527 227.708 826.406 227.402 826.406 227.037ZM850.265 217.48V228.68H851.865V217.48H850.265ZM847.005 217.8V228.62H848.585V217.8H847.005ZM843.845 226.44V227.62H847.785V226.44H843.845ZM840.645 225.14V228.62H842.225V225.14H840.645ZM836.705 225.8C839.205 225.8 843.065 225.76 846.165 225.12L846.045 223.98C843.045 224.46 839.005 224.5 836.525 224.5L836.705 225.8ZM839.705 229.34V235.32H851.865V229.34H850.225V231.02H841.345V229.34H839.705ZM841.345 232.3H850.225V234H841.345V232.3ZM841.405 218.1C839.045 218.1 837.465 219.14 837.465 220.78C837.465 222.44 839.045 223.48 841.405 223.48C843.745 223.48 845.325 222.44 845.325 220.78C845.325 219.14 843.745 218.1 841.405 218.1ZM841.405 219.28C842.865 219.28 843.825 219.86 843.825 220.78C843.825 221.72 842.865 222.28 841.405 222.28C839.925 222.28 838.965 221.72 838.965 220.78C838.965 219.86 839.925 219.28 841.405 219.28ZM860.023 231.86V233.24H876.403V231.86H860.023ZM861.443 219.28V220.64H874.863V219.28H861.443ZM861.483 226.92V228.28H874.843V226.92H861.483ZM864.263 220.54V227.06H865.923V220.54H864.263ZM870.423 220.54V227.06H872.063V220.54H870.423ZM878.422 231.96V233.34H894.802V231.96H878.422ZM885.742 228.08V232.54H887.402V228.08H885.742ZM880.402 218.82V220.16H891.142V222.96H880.462V227.92H882.102V224.3H892.782V218.82H880.402ZM880.462 227.22V228.58H893.202V227.22H880.462ZM898.58 219.4V220.74H910.22V219.4H898.58ZM896.82 231.54V232.92H913.16V231.54H896.82ZM909.34 219.4V221.2C909.34 223.44 909.34 226.14 908.62 229.84L910.28 230C910.96 226.1 910.96 223.52 910.96 221.2V219.4H909.34ZM928.859 217.48V228.26H930.439V217.48H928.859ZM925.939 222.06V223.44H929.359V222.06H925.939ZM924.879 217.82V228.04H926.439V217.82H924.879ZM918.579 229.14V235.32H930.439V229.14H918.579ZM928.839 230.46V233.98H920.199V230.46H928.839ZM916.039 226.14V227.48H917.199C919.819 227.48 921.719 227.4 923.999 226.96L923.839 225.62C921.619 226.06 919.739 226.14 917.199 226.14H916.039ZM915.999 218.68V220H921.199V222.34H916.039V227.06H917.639V223.6H922.799V218.68H915.999ZM952.318 217.48V235.56H953.918V217.48H952.318ZM949.398 224.74V226.1H952.858V224.74H949.398ZM944.718 219.8V220.12C944.718 224.3 943.118 227.96 938.578 230.5L939.558 231.68C944.718 228.78 946.318 224.46 946.318 219.8H944.718ZM939.278 219.8V221.18H945.278V219.8H939.278ZM948.298 217.96V234.68H949.878V217.96H948.298ZM957.736 218.22V226.12H966.096V218.22H964.476V220.82H959.376V218.22H957.736ZM959.376 222.12H964.476V224.78H959.376V222.12ZM969.356 217.48V226.8H971.016V217.48H969.356ZM970.296 221.36V222.74H973.676V221.36H970.296ZM959.536 227.68V229H969.396V230.82H959.576V234.78H961.216V232.06H971.016V227.68H959.536ZM959.576 234.04V235.36H971.676V234.04H959.576ZM826.406 255.037C826.406 254.673 826.527 254.367 826.768 254.119C827.015 253.865 827.354 253.738 827.783 253.738C828.213 253.738 828.548 253.865 828.789 254.119C829.036 254.367 829.16 254.673 829.16 255.037C829.16 255.402 829.036 255.708 828.789 255.955C828.548 256.196 828.213 256.316 827.783 256.316C827.354 256.316 827.015 256.196 826.768 255.955C826.527 255.708 826.406 255.402 826.406 255.037ZM840.925 246.46C838.505 246.46 836.805 248.14 836.805 250.56C836.805 253 838.505 254.66 840.925 254.66C843.305 254.66 845.025 253 845.025 250.56C845.025 248.14 843.305 246.46 840.925 246.46ZM840.925 247.82C842.405 247.82 843.525 248.96 843.525 250.56C843.525 252.16 842.405 253.3 840.925 253.3C839.425 253.3 838.325 252.16 838.325 250.56C838.325 248.96 839.425 247.82 840.925 247.82ZM850.285 245.5V255.32H851.865V245.5H850.285ZM847.445 249.64V251H850.845V249.64H847.445ZM846.405 245.84V255.2H847.985V245.84H846.405ZM840.025 256.16V263.32H851.865V256.16H850.265V258.3H841.665V256.16H840.025ZM841.665 259.62H850.265V261.96H841.665V259.62ZM860.023 259.86V261.24H876.403V259.86H860.023ZM861.443 247.28V248.64H874.863V247.28H861.443ZM861.483 254.92V256.28H874.843V254.92H861.483ZM864.263 248.54V255.06H865.923V248.54H864.263ZM870.423 248.54V255.06H872.063V248.54H870.423ZM878.422 259.96V261.34H894.802V259.96H878.422ZM885.742 256.08V260.54H887.402V256.08H885.742ZM880.402 246.82V248.16H891.142V250.96H880.462V255.92H882.102V252.3H892.782V246.82H880.402ZM880.462 255.22V256.58H893.202V255.22H880.462ZM898.58 247.4V248.74H910.22V247.4H898.58ZM896.82 259.54V260.92H913.16V259.54H896.82ZM909.34 247.4V249.2C909.34 251.44 909.34 254.14 908.62 257.84L910.28 258C910.96 254.1 910.96 251.52 910.96 249.2V247.4H909.34ZM928.859 245.48V256.26H930.439V245.48H928.859ZM925.939 250.06V251.44H929.359V250.06H925.939ZM924.879 245.82V256.04H926.439V245.82H924.879ZM918.579 257.14V263.32H930.439V257.14H918.579ZM928.839 258.46V261.98H920.199V258.46H928.839ZM916.039 254.14V255.48H917.199C919.819 255.48 921.719 255.4 923.999 254.96L923.839 253.62C921.619 254.06 919.739 254.14 917.199 254.14H916.039ZM915.999 246.68V248H921.199V250.34H916.039V255.06H917.639V251.6H922.799V246.68H915.999ZM952.318 245.48V263.56H953.918V245.48H952.318ZM949.398 252.74V254.1H952.858V252.74H949.398ZM944.718 247.8V248.12C944.718 252.3 943.118 255.96 938.578 258.5L939.558 259.68C944.718 256.78 946.318 252.46 946.318 247.8H944.718ZM939.278 247.8V249.18H945.278V247.8H939.278ZM948.298 245.96V262.68H949.878V245.96H948.298ZM957.736 246.22V254.12H966.096V246.22H964.476V248.82H959.376V246.22H957.736ZM959.376 250.12H964.476V252.78H959.376V250.12ZM969.356 245.48V254.8H971.016V245.48H969.356ZM970.296 249.36V250.74H973.676V249.36H970.296ZM959.536 255.68V257H969.396V258.82H959.576V262.78H961.216V260.06H971.016V255.68H959.536ZM959.576 262.04V263.36H971.676V262.04H959.576ZM826.406 283.037C826.406 282.673 826.527 282.367 826.768 282.119C827.015 281.865 827.354 281.738 827.783 281.738C828.213 281.738 828.548 281.865 828.789 282.119C829.036 282.367 829.16 282.673 829.16 283.037C829.16 283.402 829.036 283.708 828.789 283.955C828.548 284.196 828.213 284.316 827.783 284.316C827.354 284.316 827.015 284.196 826.768 283.955C826.527 283.708 826.406 283.402 826.406 283.037ZM840.825 284.66V291.56H842.525V284.66H840.825ZM847.045 284.66V291.56H848.745V284.66H847.045ZM836.625 283.76V285.14H853.025V283.76H836.625ZM844.785 274.2C841.025 274.2 838.465 275.72 838.465 278.14C838.465 280.54 841.025 282.08 844.785 282.08C848.565 282.08 851.105 280.54 851.105 278.14C851.105 275.72 848.565 274.2 844.785 274.2ZM844.785 275.54C847.545 275.54 849.405 276.56 849.405 278.14C849.405 279.72 847.545 280.74 844.785 280.74C842.025 280.74 840.145 279.72 840.145 278.14C840.145 276.56 842.025 275.54 844.785 275.54ZM859.823 276.06V279C859.823 282.12 857.643 285.52 855.023 286.76L855.983 288.08C858.863 286.66 861.163 282.82 861.163 279V276.06H859.823ZM860.143 276.06V279C860.143 282.76 862.463 286.28 865.383 287.64L866.323 286.32C863.663 285.18 861.483 282.06 861.483 279V276.06H860.143ZM855.623 275.32V276.72H865.723V275.32H855.623ZM868.163 273.48V291.56H869.823V273.48H868.163ZM873.441 287.88V289.26H889.821V287.88H873.441ZM880.761 283.56V288.28H882.421V283.56H880.761ZM875.361 274.76V284H887.861V274.76H886.221V277.98H877.001V274.76H875.361ZM877.001 279.32H886.221V282.64H877.001V279.32ZM899.14 274.12V275.12C899.14 277.7 895.96 279.86 892.66 280.36L893.32 281.7C897.08 281.06 900.6 278.58 900.6 275.12V274.12H899.14ZM899.44 274.12V275.12C899.44 278.54 902.98 281.06 906.7 281.7L907.36 280.36C904.1 279.86 900.88 277.64 900.88 275.12V274.12H899.44ZM899.14 284.68V291.56H900.78V284.68H899.14ZM891.84 283.66V285.04H908.18V283.66H891.84ZM921.201 277.676L916.953 290H914.385L919.736 275.781H921.377L921.201 277.676ZM924.756 290L920.498 277.676L920.312 275.781H921.963L927.334 290H924.756ZM924.551 284.727V286.67H916.816V284.727H924.551ZM934.873 275.781L929.336 291.221H927.49L933.037 275.781H934.873ZM944.219 286.338C944.219 286.045 944.173 285.785 944.082 285.557C943.997 285.329 943.844 285.12 943.623 284.932C943.402 284.743 943.089 284.561 942.686 284.385C942.288 284.202 941.781 284.017 941.162 283.828C940.485 283.62 939.86 283.389 939.287 283.135C938.721 282.874 938.226 282.575 937.803 282.236C937.38 281.891 937.051 281.497 936.816 281.055C936.582 280.605 936.465 280.088 936.465 279.502C936.465 278.923 936.585 278.395 936.826 277.92C937.074 277.445 937.422 277.035 937.871 276.689C938.327 276.338 938.864 276.068 939.482 275.879C940.101 275.684 940.785 275.586 941.533 275.586C942.588 275.586 943.496 275.781 944.258 276.172C945.026 276.562 945.615 277.087 946.025 277.744C946.442 278.402 946.65 279.128 946.65 279.922H944.219C944.219 279.453 944.118 279.04 943.916 278.682C943.721 278.317 943.421 278.031 943.018 277.822C942.62 277.614 942.116 277.51 941.504 277.51C940.924 277.51 940.443 277.598 940.059 277.773C939.674 277.949 939.388 278.187 939.199 278.486C939.01 278.786 938.916 279.124 938.916 279.502C938.916 279.769 938.978 280.013 939.102 280.234C939.225 280.449 939.414 280.651 939.668 280.84C939.922 281.022 940.241 281.195 940.625 281.357C941.009 281.52 941.462 281.676 941.982 281.826C942.77 282.061 943.457 282.321 944.043 282.607C944.629 282.887 945.117 283.206 945.508 283.564C945.898 283.923 946.191 284.329 946.387 284.785C946.582 285.234 946.68 285.745 946.68 286.318C946.68 286.917 946.559 287.458 946.318 287.939C946.077 288.415 945.732 288.822 945.283 289.16C944.84 289.492 944.307 289.749 943.682 289.932C943.063 290.107 942.373 290.195 941.611 290.195C940.928 290.195 940.254 290.104 939.59 289.922C938.932 289.74 938.333 289.463 937.793 289.092C937.253 288.714 936.823 288.245 936.504 287.686C936.185 287.119 936.025 286.458 936.025 285.703H938.477C938.477 286.165 938.555 286.559 938.711 286.885C938.874 287.21 939.098 287.477 939.385 287.686C939.671 287.887 940.003 288.037 940.381 288.135C940.765 288.232 941.175 288.281 941.611 288.281C942.184 288.281 942.663 288.2 943.047 288.037C943.438 287.874 943.73 287.646 943.926 287.354C944.121 287.061 944.219 286.722 944.219 286.338Z" fill="#565656"/>
<rect y="454" width="200" height="80" rx="14" fill="#C4C4C4"/>
<path d="M78.4435 478.89V506.67H82.4635V478.89H78.4435ZM70.2535 481.77V482.49C70.2535 489.93 67.3735 494.97 59.3935 498.81L61.4635 501.99C71.3335 497.22 74.2135 490.26 74.2135 481.77H70.2535ZM60.8635 481.77V484.92H72.1435V481.77H60.8635ZM87.8312 480.93V483.78H104.151V480.93H87.8312ZM95.9912 484.44C91.8512 484.44 89.0912 486.09 89.0912 488.61C89.0912 491.16 91.8512 492.78 95.9912 492.78C100.131 492.78 102.891 491.16 102.891 488.61C102.891 486.09 100.131 484.44 95.9912 484.44ZM95.9912 487.08C97.8812 487.08 99.0812 487.59 99.0812 488.61C99.0812 489.6 97.8812 490.14 95.9912 490.14C94.1312 490.14 92.9012 489.6 92.9012 488.61C92.9012 487.59 94.1312 487.08 95.9912 487.08ZM93.9812 478.71V482.37H98.0012V478.71H93.9812ZM93.9812 491.31V495.18H98.0012V491.31H93.9812ZM106.041 478.92V497.73H110.061V478.92H106.041ZM90.8612 498.81V501.87H106.041V506.67H110.061V498.81H90.8612ZM87.5312 497.19C92.4212 497.19 98.8112 497.1 104.691 496.08L104.391 493.41C98.7212 494.13 92.0612 494.16 87.0512 494.16L87.5312 497.19ZM114.499 494.88V498.03H139.669V494.88H114.499ZM124.999 496.47V506.67H128.959V496.47H124.999ZM117.379 479.94V492.24H136.699V479.94H132.739V483.09H121.339V479.94H117.379ZM121.339 486.21H132.739V489.06H121.339V486.21Z" fill="white"/>
<path d="M49.4062 567.037C49.4062 566.673 49.5267 566.367 49.7676 566.119C50.015 565.865 50.3535 565.738 50.7832 565.738C51.2129 565.738 51.5482 565.865 51.7891 566.119C52.0365 566.367 52.1602 566.673 52.1602 567.037C52.1602 567.402 52.0365 567.708 51.7891 567.955C51.5482 568.196 51.2129 568.316 50.7832 568.316C50.3535 568.316 50.015 568.196 49.7676 567.955C49.5267 567.708 49.4062 567.402 49.4062 567.037ZM64.0645 559.04V562.28C64.0645 565.58 62.0045 569.06 59.3845 570.38L60.4045 571.7C63.2645 570.18 65.4245 566.28 65.4245 562.28V559.04H64.0645ZM64.3645 559.04V562.28C64.3645 566.16 66.4645 569.86 69.2645 571.36L70.2845 570.04C67.7245 568.76 65.7045 565.46 65.7045 562.28V559.04H64.3645ZM71.8645 557.48V575.56H73.5445V557.48H71.8645ZM73.1445 564.8V566.2H76.5045V564.8H73.1445ZM87.123 561.78V563.16H91.983V561.78H87.123ZM82.963 558.3C80.263 558.3 78.303 560.02 78.303 562.5C78.303 564.98 80.263 566.68 82.963 566.68C85.663 566.68 87.623 564.98 87.623 562.5C87.623 560.02 85.663 558.3 82.963 558.3ZM82.963 559.7C84.743 559.7 86.023 560.84 86.023 562.5C86.023 564.14 84.743 565.3 82.963 565.3C81.183 565.3 79.903 564.14 79.903 562.5C79.903 560.84 81.183 559.7 82.963 559.7ZM91.243 557.48V567.18H92.903V557.48H91.243ZM81.323 568.08V575.32H92.903V568.08H91.263V570.36H82.983V568.08H81.323ZM82.983 571.68H91.263V573.98H82.983V571.68ZM97.4014 558.88V560.24H105.401V558.88H97.4014ZM100.121 562.92V567.44H101.761V562.92H100.121ZM104.741 558.88V559.84C104.741 561 104.741 562.64 104.281 565.02L105.901 565.2C106.381 562.82 106.381 561.02 106.381 559.84V558.88H104.741ZM108.841 557.48V571.1H110.501V557.48H108.841ZM109.741 563.36V564.74H113.081V563.36H109.741ZM99.0814 573.8V575.16H111.081V573.8H99.0814ZM99.0814 569.84V574.22H100.721V569.84H99.0814ZM96.4814 568.22C99.6614 568.22 103.981 568.14 107.741 567.48L107.621 566.28C103.961 566.78 99.5214 566.86 96.3014 566.86L96.4814 568.22ZM128 557.46V575.58H129.66V557.46H128ZM115.88 569.84V571.22H117.38C120.48 571.22 123.2 571.1 126.48 570.56L126.3 569.2C123.1 569.72 120.4 569.84 117.38 569.84H115.88ZM115.84 559.16V560.52H122.52V564.26H115.88V570.36H117.54V565.62H124.2V559.16H115.84ZM49.4062 595.037C49.4062 594.673 49.5267 594.367 49.7676 594.119C50.015 593.865 50.3535 593.738 50.7832 593.738C51.2129 593.738 51.5482 593.865 51.7891 594.119C52.0365 594.367 52.1602 594.673 52.1602 595.037C52.1602 595.402 52.0365 595.708 51.7891 595.955C51.5482 596.196 51.2129 596.316 50.7832 596.316C50.3535 596.316 50.015 596.196 49.7676 595.955C49.5267 595.708 49.4062 595.402 49.4062 595.037ZM61.6845 586.66V588H72.9845V586.66H61.6845ZM59.6445 594.42V595.78H75.9845V594.42H59.6445ZM66.9445 595.32V603.58H68.6045V595.32H66.9445ZM72.2045 586.66V588.22C72.2045 590.04 72.2045 592.14 71.5045 595.06L73.1445 595.28C73.8245 592.22 73.8245 590.1 73.8245 588.22V586.66H72.2045ZM91.803 585.48V603.56H93.403V585.48H91.803ZM88.943 592.64V594H92.403V592.64H88.943ZM87.803 585.86V602.66H89.383V585.86H87.803ZM78.683 587.56V598.72H85.583V587.56H78.683ZM84.023 588.88V597.4H80.243V588.88H84.023ZM97.4014 586.88V588.24H105.401V586.88H97.4014ZM100.121 590.92V595.44H101.761V590.92H100.121ZM104.741 586.88V587.84C104.741 589 104.741 590.64 104.281 593.02L105.901 593.2C106.381 590.82 106.381 589.02 106.381 587.84V586.88H104.741ZM108.841 585.48V599.1H110.501V585.48H108.841ZM109.741 591.36V592.74H113.081V591.36H109.741ZM99.0814 601.8V603.16H111.081V601.8H99.0814ZM99.0814 597.84V602.22H100.721V597.84H99.0814ZM96.4814 596.22C99.6614 596.22 103.981 596.14 107.741 595.48L107.621 594.28C103.961 594.78 99.5214 594.86 96.3014 594.86L96.4814 596.22ZM128 585.46V603.58H129.66V585.46H128ZM115.88 597.84V599.22H117.38C120.48 599.22 123.2 599.1 126.48 598.56L126.3 597.2C123.1 597.72 120.4 597.84 117.38 597.84H115.88ZM115.84 587.16V588.52H122.52V592.26H115.88V598.36H117.54V593.62H124.2V587.16H115.84ZM49.4062 623.037C49.4062 622.673 49.5267 622.367 49.7676 622.119C50.015 621.865 50.3535 621.738 50.7832 621.738C51.2129 621.738 51.5482 621.865 51.7891 622.119C52.0365 622.367 52.1602 622.673 52.1602 623.037C52.1602 623.402 52.0365 623.708 51.7891 623.955C51.5482 624.196 51.2129 624.316 50.7832 624.316C50.3535 624.316 50.015 624.196 49.7676 623.955C49.5267 623.708 49.4062 623.402 49.4062 623.037ZM60.3445 615.28V626.98H68.6445V615.28H60.3445ZM67.0245 616.62V625.64H61.9645V616.62H67.0245ZM71.8645 613.48V631.56H73.5445V613.48H71.8645ZM73.1445 620.7V622.1H76.5045V620.7H73.1445ZM84.363 615.62V615.88C84.363 620.16 82.983 623.98 78.123 626.62L79.063 627.82C84.523 624.76 85.923 620.3 85.923 615.62H84.363ZM79.003 615.62V616.98H84.983V615.62H79.003ZM84.163 619.8L78.103 620.2L78.363 621.64L84.163 621.04V619.8ZM84.523 620.62V621.96H88.683V620.62H84.523ZM91.803 613.48V631.56H93.403V613.48H91.803ZM88.063 613.94V630.64H89.623V613.94H88.063ZM97.4814 622.06V623.4H98.9414C102.881 623.4 105.081 623.34 107.701 622.88L107.521 621.56C104.981 621.98 102.841 622.06 98.9414 622.06H97.4814ZM97.4814 614.8V622.74H99.1214V616.14H106.081V614.8H97.4814ZM98.5814 618.38V619.7H105.581V618.38H98.5814ZM109.581 613.5V624.68H111.261V613.5H109.581ZM105.281 624.94C101.501 624.94 99.2014 626.14 99.2014 628.22C99.2014 630.32 101.501 631.52 105.281 631.52C109.041 631.52 111.341 630.32 111.341 628.22C111.341 626.14 109.041 624.94 105.281 624.94ZM105.281 626.26C108.021 626.26 109.681 626.98 109.681 628.22C109.681 629.5 108.021 630.22 105.281 630.22C102.521 630.22 100.861 629.5 100.861 628.22C100.861 626.98 102.521 626.26 105.281 626.26ZM115.8 614.88V616.24H123.8V614.88H115.8ZM118.52 618.92V623.44H120.16V618.92H118.52ZM123.14 614.88V615.84C123.14 617 123.14 618.64 122.68 621.02L124.3 621.2C124.78 618.82 124.78 617.02 124.78 615.84V614.88H123.14ZM127.24 613.48V627.1H128.9V613.48H127.24ZM128.14 619.36V620.74H131.48V619.36H128.14ZM117.48 629.8V631.16H129.48V629.8H117.48ZM117.48 625.84V630.22H119.12V625.84H117.48ZM114.88 624.22C118.06 624.22 122.38 624.14 126.14 623.48L126.02 622.28C122.36 622.78 117.92 622.86 114.7 622.86L114.88 624.22ZM146.398 613.46V631.58H148.058V613.46H146.398ZM134.278 625.84V627.22H135.778C138.878 627.22 141.598 627.1 144.878 626.56L144.698 625.2C141.498 625.72 138.798 625.84 135.778 625.84H134.278ZM134.238 615.16V616.52H140.918V620.26H134.278V626.36H135.938V621.62H142.598V615.16H134.238Z" fill="#565656"/>
<rect x="260" y="454" width="200" height="80" rx="14" fill="#C4C4C4"/>
<path d="M319.875 487.29V490.5H325.245V487.29H319.875ZM315.945 480.99V482.61C315.945 487.71 313.755 491.49 305.895 493.95L307.455 497.07C316.785 494.04 320.055 488.82 320.055 480.99H315.945ZM307.365 480.99V484.17H318.525V480.99H307.365ZM316.425 486.39L305.955 486.75L306.525 489.87L316.425 489.12V486.39ZM324.765 478.89V499.41H328.755V478.89H324.765ZM310.605 503.01V506.19H329.505V503.01H310.605ZM310.605 497.43V505.08H314.595V497.43H310.605ZM347.292 482.94V486.12H354.132V482.94H347.292ZM352.362 478.89V492.99H356.352V478.89H352.362ZM337.992 494.16V497.22H352.392V498.75H338.052V505.11H341.982V501.63H356.352V494.16H337.992ZM338.052 503.28V506.37H357.132V503.28H338.052ZM339.462 479.79V481.77C339.462 485.31 337.512 488.7 332.892 490.08L334.932 493.23C340.242 491.55 342.702 487.02 342.702 481.77V479.79H339.462ZM340.242 479.79V481.77C340.242 486.75 342.612 491.04 347.682 492.69L349.722 489.6C345.342 488.28 343.482 485.07 343.482 481.77V479.79H340.242ZM362.23 491.34V494.49H364.6C370.45 494.49 373.96 494.43 377.86 493.77L377.47 490.68C373.66 491.28 370.33 491.34 364.6 491.34H362.23ZM362.23 480.81V492.63H366.19V483.96H375.58V480.81H362.23ZM364.96 486.09V489.15H374.77V486.09H364.96ZM379.78 478.92V495.69H383.8V478.92H379.78ZM374.41 496.11C368.53 496.11 364.9 498.06 364.9 501.39C364.9 504.75 368.53 506.67 374.41 506.67C380.26 506.67 383.92 504.75 383.92 501.39C383.92 498.06 380.26 496.11 374.41 496.11ZM374.41 499.17C378.01 499.17 379.93 499.89 379.93 501.39C379.93 502.92 378.01 503.64 374.41 503.64C370.78 503.64 368.89 502.92 368.89 501.39C368.89 499.89 370.78 499.17 374.41 499.17ZM388.298 494.88V498.03H413.468V494.88H388.298ZM398.798 496.47V506.67H402.758V496.47H398.798ZM391.178 479.94V492.24H410.498V479.94H406.538V483.09H395.138V479.94H391.178ZM395.138 486.21H406.538V489.06H395.138V486.21Z" fill="white"/>
<path d="M300.406 567.037C300.406 566.673 300.527 566.367 300.768 566.119C301.015 565.865 301.354 565.738 301.783 565.738C302.213 565.738 302.548 565.865 302.789 566.119C303.036 566.367 303.16 566.673 303.16 567.037C303.16 567.402 303.036 567.708 302.789 567.955C302.548 568.196 302.213 568.316 301.783 568.316C301.354 568.316 301.015 568.196 300.768 567.955C300.527 567.708 300.406 567.402 300.406 567.037ZM317.985 567.08V570.2H319.625V567.08H317.985ZM310.625 566.2V567.56H326.965V566.2H310.625ZM312.145 558.04V559.4H325.425V558.04H312.145ZM312.225 563.18V564.54H325.345V563.18H312.225ZM314.885 558.64V564.06H316.545V558.64H314.885ZM321.045 558.64V564.06H322.685V558.64H321.045ZM312.625 569.66V575.32H324.965V569.66H312.625ZM323.345 570.98V573.98H314.265V570.98H323.345ZM342.183 557.48V566.84H343.843V557.48H342.183ZM332.163 567.72V569.04H342.223V570.86H332.203V574.64H333.823V572.06H343.863V567.72H332.163ZM332.203 574.04V575.36H344.463V574.04H332.203ZM333.843 559.08V560.02C333.843 562.48 331.983 564.7 329.283 565.58L330.063 566.88C333.123 565.86 335.203 563.22 335.203 560.02V559.08H333.843ZM334.183 559.08V560.02C334.183 563.06 336.283 565.56 339.323 566.5L340.103 565.22C337.423 564.4 335.543 562.32 335.543 560.02V559.08H334.183ZM329.723 558.5V559.84H339.623V558.5H329.723ZM348.401 558.88V560.24H356.401V558.88H348.401ZM351.121 562.92V567.44H352.761V562.92H351.121ZM355.741 558.88V559.84C355.741 561 355.741 562.64 355.281 565.02L356.901 565.2C357.381 562.82 357.381 561.02 357.381 559.84V558.88H355.741ZM359.841 557.48V571.1H361.501V557.48H359.841ZM360.741 563.36V564.74H364.081V563.36H360.741ZM350.081 573.8V575.16H362.081V573.8H350.081ZM350.081 569.84V574.22H351.721V569.84H350.081ZM347.481 568.22C350.661 568.22 354.981 568.14 358.741 567.48L358.621 566.28C354.961 566.78 350.521 566.86 347.301 566.86L347.481 568.22ZM379 557.46V575.58H380.66V557.46H379ZM366.88 569.84V571.22H368.38C371.48 571.22 374.2 571.1 377.48 570.56L377.3 569.2C374.1 569.72 371.4 569.84 368.38 569.84H366.88ZM366.84 559.16V560.52H373.52V564.26H366.88V570.36H368.54V565.62H375.2V559.16H366.84ZM300.406 595.037C300.406 594.673 300.527 594.367 300.768 594.119C301.015 593.865 301.354 593.738 301.783 593.738C302.213 593.738 302.548 593.865 302.789 594.119C303.036 594.367 303.16 594.673 303.16 595.037C303.16 595.402 303.036 595.708 302.789 595.955C302.548 596.196 302.213 596.316 301.783 596.316C301.354 596.316 301.015 596.196 300.768 595.955C300.527 595.708 300.406 595.402 300.406 595.037ZM310.645 599.86V601.24H327.025V599.86H310.645ZM312.065 587.28V588.64H325.485V587.28H312.065ZM312.105 594.92V596.28H325.465V594.92H312.105ZM314.885 588.54V595.06H316.545V588.54H314.885ZM321.045 588.54V595.06H322.685V588.54H321.045ZM329.043 599.96V601.34H345.423V599.96H329.043ZM336.363 596.08V600.54H338.023V596.08H336.363ZM331.023 586.82V588.16H341.763V590.96H331.083V595.92H332.723V592.3H343.403V586.82H331.023ZM331.083 595.22V596.58H343.823V595.22H331.083ZM354.901 590.14V591.5H358.201V590.14H354.901ZM357.601 585.86V596.38H359.161V585.86H357.601ZM351.181 587.86V589.34C351.181 591.5 349.821 593.82 347.501 594.82L348.361 596.1C351.021 594.92 352.481 592.14 352.481 589.34V587.86H351.181ZM351.461 587.86V589.32C351.461 591.94 352.841 594.58 355.461 595.68L356.301 594.4C354.061 593.46 352.761 591.32 352.761 589.32V587.86H351.461ZM347.841 586.94V588.3H355.881V586.94H347.841ZM361.081 585.48V596.52H362.661V585.48H361.081ZM350.541 597.32V598.68H361.021V603.56H362.661V597.32H350.541ZM367.94 595.22V596.56H380.36V595.22H367.94ZM365.84 599.86V601.24H382.22V599.86H365.84ZM367.94 587.02V595.64H369.62V588.38H380.16V587.02H367.94ZM369.08 591.06V592.38H379.78V591.06H369.08ZM385.198 586.88V588.24H393.198V586.88H385.198ZM387.918 590.92V595.44H389.558V590.92H387.918ZM392.538 586.88V587.84C392.538 589 392.538 590.64 392.078 593.02L393.698 593.2C394.178 590.82 394.178 589.02 394.178 587.84V586.88H392.538ZM396.638 585.48V599.1H398.298V585.48H396.638ZM397.538 591.36V592.74H400.878V591.36H397.538ZM386.878 601.8V603.16H398.878V601.8H386.878ZM386.878 597.84V602.22H388.518V597.84H386.878ZM384.278 596.22C387.458 596.22 391.778 596.14 395.538 595.48L395.418 594.28C391.758 594.78 387.318 594.86 384.098 594.86L384.278 596.22ZM415.797 585.46V603.58H417.457V585.46H415.797ZM403.677 597.84V599.22H405.177C408.277 599.22 410.997 599.1 414.277 598.56L414.097 597.2C410.897 597.72 408.197 597.84 405.177 597.84H403.677ZM403.637 587.16V588.52H410.317V592.26H403.677V598.36H405.337V593.62H411.997V587.16H403.637ZM300.406 623.037C300.406 622.673 300.527 622.367 300.768 622.119C301.015 621.865 301.354 621.738 301.783 621.738C302.213 621.738 302.548 621.865 302.789 622.119C303.036 622.367 303.16 622.673 303.16 623.037C303.16 623.402 303.036 623.708 302.789 623.955C302.548 624.196 302.213 624.316 301.783 624.316C301.354 624.316 301.015 624.196 300.768 623.955C300.527 623.708 300.406 623.402 300.406 623.037ZM310.645 627.86V629.24H327.025V627.86H310.645ZM312.065 615.28V616.64H325.485V615.28H312.065ZM312.105 622.92V624.28H325.465V622.92H312.105ZM314.885 616.54V623.06H316.545V616.54H314.885ZM321.045 616.54V623.06H322.685V616.54H321.045ZM329.043 627.96V629.34H345.423V627.96H329.043ZM336.363 624.08V628.54H338.023V624.08H336.363ZM331.023 614.82V616.16H341.763V618.96H331.083V623.92H332.723V620.3H343.403V614.82H331.023ZM331.083 623.22V624.58H343.823V623.22H331.083ZM354.561 619.94V621.32H358.021V619.94H354.561ZM351.181 615.18V618.62C351.181 621.72 349.701 624.96 347.221 626.42L348.261 627.68C350.901 626.06 352.481 622.4 352.481 618.62V615.18H351.181ZM351.501 615.18V618.56C351.501 622.08 352.961 625.68 355.561 627.28L356.521 625.98C354.141 624.54 352.781 621.46 352.781 618.56V615.18H351.501ZM361.201 613.48V631.56H362.801V613.48H361.201ZM357.541 613.86V630.66H359.101V613.86H357.541ZM373.08 614.72V616.1C373.08 619.18 369.68 621.94 366.5 622.54L367.24 623.92C370.86 623.1 374.52 620.04 374.52 616.1V614.72H373.08ZM373.38 614.72V616.1C373.38 620.06 377.06 623.1 380.66 623.92L381.4 622.54C378.24 621.94 374.82 619.2 374.82 616.1V614.72H373.38ZM365.84 627.76V629.12H382.22V627.76H365.84ZM385.198 614.88V616.24H393.198V614.88H385.198ZM387.918 618.92V623.44H389.558V618.92H387.918ZM392.538 614.88V615.84C392.538 617 392.538 618.64 392.078 621.02L393.698 621.2C394.178 618.82 394.178 617.02 394.178 615.84V614.88H392.538ZM396.638 613.48V627.1H398.298V613.48H396.638ZM397.538 619.36V620.74H400.878V619.36H397.538ZM386.878 629.8V631.16H398.878V629.8H386.878ZM386.878 625.84V630.22H388.518V625.84H386.878ZM384.278 624.22C387.458 624.22 391.778 624.14 395.538 623.48L395.418 622.28C391.758 622.78 387.318 622.86 384.098 622.86L384.278 624.22ZM415.797 613.46V631.58H417.457V613.46H415.797ZM403.677 625.84V627.22H405.177C408.277 627.22 410.997 627.1 414.277 626.56L414.097 625.2C410.897 625.72 408.197 625.84 405.177 625.84H403.677ZM403.637 615.16V616.52H410.317V620.26H403.677V626.36H405.337V621.62H411.997V615.16H403.637Z" fill="#565656"/>
<rect x="520" y="454" width="200" height="80" rx="14" fill="#C4C4C4"/>
<path d="M584.555 478.89V506.76H588.575V478.89H584.555ZM567.185 496.8V500.13H569.585C575.555 500.13 579.065 500.01 582.815 499.26L582.455 495.99C578.735 496.68 575.435 496.8 569.585 496.8H567.185ZM567.185 481.35V498.06H571.145V484.56H580.595V481.35H567.185ZM599.342 483.27V486.39C599.342 490.95 597.092 496.14 592.502 498.3L594.752 501.45C599.852 499.05 602.492 492.66 602.492 486.39V483.27H599.342ZM600.182 483.27V486.39C600.182 492.3 602.762 498.39 607.862 500.76L610.052 497.61C605.492 495.51 603.332 490.59 603.332 486.39V483.27H600.182ZM593.582 481.56V484.83H608.822V481.56H593.582ZM610.862 478.89V506.67H614.882V478.89H610.862ZM613.982 489.48V492.78H618.902V489.48H613.982ZM639.78 478.92V498.87H643.8V478.92H639.78ZM625.29 503.01V506.19H644.49V503.01H625.29ZM625.29 496.86V504.3H629.28V496.86H625.29ZM628.68 480.66C624.42 480.66 621.12 483.6 621.12 487.71C621.12 491.79 624.42 494.76 628.68 494.76C632.94 494.76 636.21 491.79 636.21 487.71C636.21 483.6 632.94 480.66 628.68 480.66ZM628.68 484.11C630.72 484.11 632.31 485.43 632.31 487.71C632.31 489.96 630.72 491.28 628.68 491.28C626.61 491.28 625.02 489.96 625.02 487.71C625.02 485.43 626.61 484.11 628.68 484.11ZM648.298 494.88V498.03H673.468V494.88H648.298ZM658.798 496.47V506.67H662.758V496.47H658.798ZM651.178 479.94V492.24H670.498V479.94H666.538V483.09H655.138V479.94H651.178ZM655.138 486.21H666.538V489.06H655.138V486.21Z" fill="white"/>
<path d="M549.406 567.037C549.406 566.673 549.527 566.367 549.768 566.119C550.015 565.865 550.354 565.738 550.783 565.738C551.213 565.738 551.548 565.865 551.789 566.119C552.036 566.367 552.16 566.673 552.16 567.037C552.16 567.402 552.036 567.708 551.789 567.955C551.548 568.196 551.213 568.316 550.783 568.316C550.354 568.316 550.015 568.196 549.768 567.955C549.527 567.708 549.406 567.402 549.406 567.037ZM568.068 559.781H570.51V569.283C570.51 570.364 570.275 571.269 569.807 571.998C569.338 572.727 568.7 573.277 567.893 573.648C567.092 574.013 566.197 574.195 565.207 574.195C564.185 574.195 563.273 574.013 562.473 573.648C561.672 573.277 561.04 572.727 560.578 571.998C560.122 571.269 559.895 570.364 559.895 569.283V559.781H562.336V569.283C562.336 569.967 562.453 570.53 562.688 570.973C562.922 571.409 563.254 571.731 563.684 571.939C564.113 572.148 564.621 572.252 565.207 572.252C565.793 572.252 566.298 572.148 566.721 571.939C567.15 571.731 567.482 571.409 567.717 570.973C567.951 570.53 568.068 569.967 568.068 569.283V559.781ZM575.793 559.781V574H573.342V559.781H575.793ZM584.787 559.781L579.25 575.221H577.404L582.951 559.781H584.787ZM594.631 559.781H597.072V569.283C597.072 570.364 596.838 571.269 596.369 571.998C595.9 572.727 595.262 573.277 594.455 573.648C593.654 574.013 592.759 574.195 591.77 574.195C590.747 574.195 589.836 574.013 589.035 573.648C588.234 573.277 587.603 572.727 587.141 571.998C586.685 571.269 586.457 570.364 586.457 569.283V559.781H588.898V569.283C588.898 569.967 589.016 570.53 589.25 570.973C589.484 571.409 589.816 571.731 590.246 571.939C590.676 572.148 591.184 572.252 591.77 572.252C592.355 572.252 592.86 572.148 593.283 571.939C593.713 571.731 594.045 571.409 594.279 570.973C594.514 570.53 594.631 569.967 594.631 569.283V559.781ZM601.604 559.781L604.621 564.967L607.639 559.781H610.461L606.164 566.822L610.568 574H607.717L604.621 568.717L601.525 574H598.664L603.078 566.822L598.771 559.781H601.604ZM630.63 557.48V575.56H632.23V557.48H630.63ZM627.71 564.74V566.1H631.17V564.74H627.71ZM623.03 559.8V560.12C623.03 564.3 621.43 567.96 616.89 570.5L617.87 571.68C623.03 568.78 624.63 564.46 624.63 559.8H623.03ZM617.59 559.8V561.18H623.59V559.8H617.59ZM626.61 557.96V574.68H628.19V557.96H626.61ZM636.049 558.22V566.12H644.409V558.22H642.789V560.82H637.689V558.22H636.049ZM637.689 562.12H642.789V564.78H637.689V562.12ZM647.669 557.48V566.8H649.329V557.48H647.669ZM648.609 561.36V562.74H651.989V561.36H648.609ZM637.849 567.68V569H647.709V570.82H637.889V574.78H639.529V572.06H649.329V567.68H637.849ZM637.889 574.04V575.36H649.989V574.04H637.889ZM549.406 595.037C549.406 594.673 549.527 594.367 549.768 594.119C550.015 593.865 550.354 593.738 550.783 593.738C551.213 593.738 551.548 593.865 551.789 594.119C552.036 594.367 552.16 594.673 552.16 595.037C552.16 595.402 552.036 595.708 551.789 595.955C551.548 596.196 551.213 596.316 550.783 596.316C550.354 596.316 550.015 596.196 549.768 595.955C549.527 595.708 549.406 595.402 549.406 595.037ZM569.25 600.125V602H559.719V600.389L564.348 595.34C564.855 594.767 565.256 594.272 565.549 593.855C565.842 593.439 566.047 593.064 566.164 592.732C566.288 592.394 566.35 592.065 566.35 591.746C566.35 591.297 566.265 590.903 566.096 590.564C565.933 590.219 565.692 589.949 565.373 589.754C565.054 589.552 564.667 589.451 564.211 589.451C563.684 589.451 563.241 589.565 562.883 589.793C562.525 590.021 562.255 590.337 562.072 590.74C561.89 591.137 561.799 591.593 561.799 592.107H559.445C559.445 591.281 559.634 590.525 560.012 589.842C560.389 589.152 560.936 588.605 561.652 588.201C562.368 587.791 563.231 587.586 564.24 587.586C565.191 587.586 565.998 587.745 566.662 588.064C567.326 588.383 567.831 588.836 568.176 589.422C568.527 590.008 568.703 590.701 568.703 591.502C568.703 591.945 568.632 592.384 568.488 592.82C568.345 593.257 568.14 593.693 567.873 594.129C567.613 594.559 567.303 594.992 566.945 595.428C566.587 595.857 566.193 596.294 565.764 596.736L562.688 600.125H569.25ZM575.588 602H572.551L572.57 600.057H575.588C576.467 600.057 577.202 599.865 577.795 599.48C578.394 599.096 578.843 598.546 579.143 597.83C579.449 597.114 579.602 596.261 579.602 595.271V594.5C579.602 593.732 579.514 593.051 579.338 592.459C579.169 591.867 578.915 591.368 578.576 590.965C578.244 590.561 577.834 590.255 577.346 590.047C576.864 589.839 576.307 589.734 575.676 589.734H572.492V587.781H575.676C576.62 587.781 577.482 587.941 578.264 588.26C579.045 588.572 579.719 589.025 580.285 589.617C580.858 590.21 581.298 590.919 581.604 591.746C581.91 592.573 582.062 593.497 582.062 594.52V595.271C582.062 596.294 581.91 597.218 581.604 598.045C581.298 598.872 580.858 599.581 580.285 600.174C579.712 600.76 579.029 601.212 578.234 601.531C577.447 601.844 576.564 602 575.588 602ZM573.908 587.781V602H571.457V587.781H573.908ZM590.471 587.781L584.934 603.221H583.088L588.635 587.781H590.471ZM594.729 593.826H596.135C596.682 593.826 597.134 593.732 597.492 593.543C597.857 593.354 598.127 593.094 598.303 592.762C598.479 592.43 598.566 592.049 598.566 591.619C598.566 591.17 598.485 590.786 598.322 590.467C598.166 590.141 597.925 589.891 597.6 589.715C597.281 589.539 596.874 589.451 596.379 589.451C595.962 589.451 595.585 589.536 595.246 589.705C594.914 589.868 594.65 590.102 594.455 590.408C594.26 590.708 594.162 591.066 594.162 591.482H591.799C591.799 590.727 591.997 590.057 592.395 589.471C592.792 588.885 593.332 588.426 594.016 588.094C594.706 587.755 595.48 587.586 596.34 587.586C597.258 587.586 598.059 587.739 598.742 588.045C599.432 588.344 599.969 588.794 600.354 589.393C600.738 589.992 600.93 590.734 600.93 591.619C600.93 592.023 600.835 592.433 600.646 592.85C600.458 593.266 600.178 593.647 599.807 593.992C599.436 594.331 598.973 594.607 598.42 594.822C597.867 595.031 597.225 595.135 596.496 595.135H594.729V593.826ZM594.729 595.662V594.373H596.496C597.329 594.373 598.039 594.471 598.625 594.666C599.217 594.861 599.699 595.132 600.07 595.477C600.441 595.815 600.712 596.202 600.881 596.639C601.057 597.075 601.145 597.537 601.145 598.025C601.145 598.689 601.024 599.282 600.783 599.803C600.549 600.317 600.214 600.753 599.777 601.111C599.341 601.469 598.83 601.74 598.244 601.922C597.665 602.104 597.033 602.195 596.35 602.195C595.738 602.195 595.152 602.111 594.592 601.941C594.032 601.772 593.531 601.521 593.088 601.189C592.645 600.851 592.294 600.431 592.033 599.93C591.779 599.422 591.652 598.836 591.652 598.172H594.006C594.006 598.595 594.104 598.969 594.299 599.295C594.501 599.614 594.781 599.865 595.139 600.047C595.503 600.229 595.92 600.32 596.389 600.32C596.883 600.32 597.31 600.232 597.668 600.057C598.026 599.881 598.299 599.62 598.488 599.275C598.684 598.93 598.781 598.514 598.781 598.025C598.781 597.472 598.674 597.023 598.459 596.678C598.244 596.333 597.938 596.079 597.541 595.916C597.144 595.747 596.675 595.662 596.135 595.662H594.729ZM607.834 602H604.797L604.816 600.057H607.834C608.713 600.057 609.449 599.865 610.041 599.48C610.64 599.096 611.089 598.546 611.389 597.83C611.695 597.114 611.848 596.261 611.848 595.271V594.5C611.848 593.732 611.76 593.051 611.584 592.459C611.415 591.867 611.161 591.368 610.822 590.965C610.49 590.561 610.08 590.255 609.592 590.047C609.11 589.839 608.553 589.734 607.922 589.734H604.738V587.781H607.922C608.866 587.781 609.729 587.941 610.51 588.26C611.291 588.572 611.965 589.025 612.531 589.617C613.104 590.21 613.544 590.919 613.85 591.746C614.156 592.573 614.309 593.497 614.309 594.52V595.271C614.309 596.294 614.156 597.218 613.85 598.045C613.544 598.872 613.104 599.581 612.531 600.174C611.958 600.76 611.275 601.212 610.48 601.531C609.693 601.844 608.811 602 607.834 602ZM606.154 587.781V602H603.703V587.781H606.154ZM634.425 585.48V603.6H636.085V585.48H634.425ZM622.465 597.7V599.1H623.925C627.565 599.1 629.925 599 632.685 598.48L632.505 597.08C629.825 597.58 627.505 597.7 623.925 597.7H622.465ZM622.465 587.2V598.22H624.105V588.58H631.005V587.2H622.465ZM644.163 588.06V591C644.163 594.06 641.983 597.5 639.403 598.76L640.363 600.08C643.183 598.64 645.483 594.76 645.483 591V588.06H644.163ZM644.463 588.06V591C644.463 594.58 646.643 598.22 649.503 599.64L650.443 598.32C647.823 597.08 645.783 593.86 645.783 591V588.06H644.463ZM640.043 587.32V588.72H649.783V587.32H640.043ZM651.923 585.48V603.56H653.603V585.48H651.923ZM653.203 592.78V594.18H656.563V592.78H653.203ZM671.242 585.5V598.7H672.922V585.5H671.242ZM661.302 601.8V603.16H673.462V601.8H661.302ZM661.302 597.34V602.26H662.942V597.34H661.302ZM663.222 586.74C660.522 586.74 658.502 588.58 658.502 591.2C658.502 593.8 660.522 595.66 663.222 595.66C665.922 595.66 667.922 593.8 667.922 591.2C667.922 588.58 665.922 586.74 663.222 586.74ZM663.222 588.18C664.982 588.18 666.322 589.42 666.322 591.2C666.322 592.96 664.982 594.2 663.222 594.2C661.462 594.2 660.122 592.96 660.122 591.2C660.122 589.42 661.462 588.18 663.222 588.18ZM549.406 623.037C549.406 622.673 549.527 622.367 549.768 622.119C550.015 621.865 550.354 621.738 550.783 621.738C551.213 621.738 551.548 621.865 551.789 622.119C552.036 622.367 552.16 622.673 552.16 623.037C552.16 623.402 552.036 623.708 551.789 623.955C551.548 624.196 551.213 624.316 550.783 624.316C550.354 624.316 550.015 624.196 549.768 623.955C549.527 623.708 549.406 623.402 549.406 623.037ZM566.885 614.72V616.1C566.885 619.18 563.485 621.94 560.305 622.54L561.045 623.92C564.665 623.1 568.325 620.04 568.325 616.1V614.72H566.885ZM567.185 614.72V616.1C567.185 620.06 570.865 623.1 574.465 623.92L575.205 622.54C572.045 621.94 568.625 619.2 568.625 616.1V614.72H567.185ZM559.645 627.76V629.12H576.025V627.76H559.645ZM580.143 622.86V624.2H592.563V622.86H580.143ZM578.043 627.94V629.32H594.423V627.94H578.043ZM585.383 623.56V628.58H587.023V623.56H585.383ZM580.143 614.94V623.36H581.823V616.3H592.363V614.94H580.143ZM581.283 618.82V620.16H591.983V618.82H581.283ZM609.601 613.46V631.58H611.261V613.46H609.601ZM597.481 625.84V627.22H598.981C602.081 627.22 604.801 627.1 608.081 626.56L607.901 625.2C604.701 625.72 602.001 625.84 598.981 625.84H597.481ZM597.441 615.16V616.52H604.121V620.26H597.481V626.36H599.141V621.62H605.801V615.16H597.441ZM614.84 627.88V629.26H631.22V627.88H614.84ZM622.16 623.56V628.28H623.82V623.56H622.16ZM616.76 614.76V624H629.26V614.76H627.62V617.98H618.4V614.76H616.76ZM618.4 619.32H627.62V622.64H618.4V619.32ZM635.298 622.14V623.5H647.718V622.14H635.298ZM633.238 627.74V629.12H649.618V627.74H633.238ZM635.298 615.14V622.74H636.958V616.52H647.538V615.14H635.298ZM669.777 613.48V631.56H671.437V613.48H669.777ZM664.477 615.42V615.7C664.477 620.5 662.057 624.34 656.837 626.86L657.717 628.2C663.757 625.24 666.117 620.66 666.117 615.42H664.477ZM657.657 615.42V616.78H665.197V615.42H657.657ZM675.676 615.12V616.36H686.256V615.12H675.676ZM680.976 617.06C678.396 617.06 676.696 618.1 676.696 619.74C676.696 621.4 678.396 622.44 680.976 622.44C683.576 622.44 685.276 621.4 685.276 619.74C685.276 618.1 683.576 617.06 680.976 617.06ZM680.976 618.22C682.636 618.22 683.696 618.8 683.696 619.74C683.696 620.66 682.636 621.28 680.976 621.28C679.356 621.28 678.256 620.66 678.256 619.74C678.256 618.8 679.356 618.22 680.976 618.22ZM680.136 613.36V615.78H681.816V613.36H680.136ZM680.136 621.78V624.24H681.816V621.78H680.136ZM688.136 613.5V625.6H689.796V613.5H688.136ZM677.676 626.44V627.76H688.136V631.56H689.796V626.44H677.676ZM675.316 625.04C678.576 625.04 682.876 624.98 686.816 624.32L686.696 623.16C682.896 623.68 678.416 623.7 675.096 623.7L675.316 625.04Z" fill="#565656"/>
<rect x="780" y="454" width="200" height="80" rx="14" fill="#C4C4C4"/>
<path d="M859.284 478.89V506.67H863.094V478.89H859.284ZM855.774 489.36V492.54H860.364V489.36H855.774ZM847.494 482.28V483.12C847.494 489.78 845.274 494.46 838.944 498.21L841.254 500.97C849.024 496.44 851.304 490.11 851.304 482.28H847.494ZM840.354 482.28V485.49H848.664V482.28H840.354ZM853.134 479.61V505.47H856.854V479.61H853.134ZM867.711 480.12V492.27H881.061V480.12H877.101V483.39H871.671V480.12H867.711ZM871.671 486.39H877.101V489.15H871.671V486.39ZM884.781 478.89V492.99H888.771V478.89H884.781ZM887.151 484.23V487.47H892.431V484.23H887.151ZM870.411 494.07V497.13H884.841V498.78H870.471V504.93H874.431V501.63H888.771V494.07H870.411ZM870.471 503.4V506.49H889.581V503.4H870.471ZM894.499 494.88V498.03H919.669V494.88H894.499ZM904.999 496.47V506.67H908.959V496.47H904.999ZM897.379 479.94V492.24H916.699V479.94H912.739V483.09H901.339V479.94H897.379ZM901.339 486.21H912.739V489.06H901.339V486.21Z" fill="white"/>
<path d="M806.406 567.037C806.406 566.673 806.527 566.367 806.768 566.119C807.015 565.865 807.354 565.738 807.783 565.738C808.213 565.738 808.548 565.865 808.789 566.119C809.036 566.367 809.16 566.673 809.16 567.037C809.16 567.402 809.036 567.708 808.789 567.955C808.548 568.196 808.213 568.316 807.783 568.316C807.354 568.316 807.015 568.196 806.768 567.955C806.527 567.708 806.406 567.402 806.406 567.037ZM830.265 557.48V568.68H831.865V557.48H830.265ZM827.005 557.8V568.62H828.585V557.8H827.005ZM823.845 566.44V567.62H827.785V566.44H823.845ZM820.645 565.14V568.62H822.225V565.14H820.645ZM816.705 565.8C819.205 565.8 823.065 565.76 826.165 565.12L826.045 563.98C823.045 564.46 819.005 564.5 816.525 564.5L816.705 565.8ZM819.705 569.34V575.32H831.865V569.34H830.225V571.02H821.345V569.34H819.705ZM821.345 572.3H830.225V574H821.345V572.3ZM821.405 558.1C819.045 558.1 817.465 559.14 817.465 560.78C817.465 562.44 819.045 563.48 821.405 563.48C823.745 563.48 825.325 562.44 825.325 560.78C825.325 559.14 823.745 558.1 821.405 558.1ZM821.405 559.28C822.865 559.28 823.825 559.86 823.825 560.78C823.825 561.72 822.865 562.28 821.405 562.28C819.925 562.28 818.965 561.72 818.965 560.78C818.965 559.86 819.925 559.28 821.405 559.28ZM840.023 571.86V573.24H856.403V571.86H840.023ZM841.443 559.28V560.64H854.863V559.28H841.443ZM841.483 566.92V568.28H854.843V566.92H841.483ZM844.263 560.54V567.06H845.923V560.54H844.263ZM850.423 560.54V567.06H852.063V560.54H850.423ZM858.422 571.96V573.34H874.802V571.96H858.422ZM865.742 568.08V572.54H867.402V568.08H865.742ZM860.402 558.82V560.16H871.142V562.96H860.462V567.92H862.102V564.3H872.782V558.82H860.402ZM860.462 567.22V568.58H873.202V567.22H860.462ZM878.58 559.4V560.74H890.22V559.4H878.58ZM876.82 571.54V572.92H893.16V571.54H876.82ZM889.34 559.4V561.2C889.34 563.44 889.34 566.14 888.62 569.84L890.28 570C890.96 566.1 890.96 563.52 890.96 561.2V559.4H889.34ZM908.859 557.48V568.26H910.439V557.48H908.859ZM905.939 562.06V563.44H909.359V562.06H905.939ZM904.879 557.82V568.04H906.439V557.82H904.879ZM898.579 569.14V575.32H910.439V569.14H898.579ZM908.839 570.46V573.98H900.199V570.46H908.839ZM896.039 566.14V567.48H897.199C899.819 567.48 901.719 567.4 903.999 566.96L903.839 565.62C901.619 566.06 899.739 566.14 897.199 566.14H896.039ZM895.999 558.68V560H901.199V562.34H896.039V567.06H897.639V563.6H902.799V558.68H895.999ZM932.318 557.48V575.56H933.918V557.48H932.318ZM929.398 564.74V566.1H932.858V564.74H929.398ZM924.718 559.8V560.12C924.718 564.3 923.118 567.96 918.578 570.5L919.558 571.68C924.718 568.78 926.318 564.46 926.318 559.8H924.718ZM919.278 559.8V561.18H925.278V559.8H919.278ZM928.298 557.96V574.68H929.878V557.96H928.298ZM937.736 558.22V566.12H946.096V558.22H944.476V560.82H939.376V558.22H937.736ZM939.376 562.12H944.476V564.78H939.376V562.12ZM949.356 557.48V566.8H951.016V557.48H949.356ZM950.296 561.36V562.74H953.676V561.36H950.296ZM939.536 567.68V569H949.396V570.82H939.576V574.78H941.216V572.06H951.016V567.68H939.536ZM939.576 574.04V575.36H951.676V574.04H939.576ZM806.406 595.037C806.406 594.673 806.527 594.367 806.768 594.119C807.015 593.865 807.354 593.738 807.783 593.738C808.213 593.738 808.548 593.865 808.789 594.119C809.036 594.367 809.16 594.673 809.16 595.037C809.16 595.402 809.036 595.708 808.789 595.955C808.548 596.196 808.213 596.316 807.783 596.316C807.354 596.316 807.015 596.196 806.768 595.955C806.527 595.708 806.406 595.402 806.406 595.037ZM820.925 586.46C818.505 586.46 816.805 588.14 816.805 590.56C816.805 593 818.505 594.66 820.925 594.66C823.305 594.66 825.025 593 825.025 590.56C825.025 588.14 823.305 586.46 820.925 586.46ZM820.925 587.82C822.405 587.82 823.525 588.96 823.525 590.56C823.525 592.16 822.405 593.3 820.925 593.3C819.425 593.3 818.325 592.16 818.325 590.56C818.325 588.96 819.425 587.82 820.925 587.82ZM830.285 585.5V595.32H831.865V585.5H830.285ZM827.445 589.64V591H830.845V589.64H827.445ZM826.405 585.84V595.2H827.985V585.84H826.405ZM820.025 596.16V603.32H831.865V596.16H830.265V598.3H821.665V596.16H820.025ZM821.665 599.62H830.265V601.96H821.665V599.62ZM840.023 599.86V601.24H856.403V599.86H840.023ZM841.443 587.28V588.64H854.863V587.28H841.443ZM841.483 594.92V596.28H854.843V594.92H841.483ZM844.263 588.54V595.06H845.923V588.54H844.263ZM850.423 588.54V595.06H852.063V588.54H850.423ZM858.422 599.96V601.34H874.802V599.96H858.422ZM865.742 596.08V600.54H867.402V596.08H865.742ZM860.402 586.82V588.16H871.142V590.96H860.462V595.92H862.102V592.3H872.782V586.82H860.402ZM860.462 595.22V596.58H873.202V595.22H860.462ZM878.58 587.4V588.74H890.22V587.4H878.58ZM876.82 599.54V600.92H893.16V599.54H876.82ZM889.34 587.4V589.2C889.34 591.44 889.34 594.14 888.62 597.84L890.28 598C890.96 594.1 890.96 591.52 890.96 589.2V587.4H889.34ZM908.859 585.48V596.26H910.439V585.48H908.859ZM905.939 590.06V591.44H909.359V590.06H905.939ZM904.879 585.82V596.04H906.439V585.82H904.879ZM898.579 597.14V603.32H910.439V597.14H898.579ZM908.839 598.46V601.98H900.199V598.46H908.839ZM896.039 594.14V595.48H897.199C899.819 595.48 901.719 595.4 903.999 594.96L903.839 593.62C901.619 594.06 899.739 594.14 897.199 594.14H896.039ZM895.999 586.68V588H901.199V590.34H896.039V595.06H897.639V591.6H902.799V586.68H895.999ZM932.318 585.48V603.56H933.918V585.48H932.318ZM929.398 592.74V594.1H932.858V592.74H929.398ZM924.718 587.8V588.12C924.718 592.3 923.118 595.96 918.578 598.5L919.558 599.68C924.718 596.78 926.318 592.46 926.318 587.8H924.718ZM919.278 587.8V589.18H925.278V587.8H919.278ZM928.298 585.96V602.68H929.878V585.96H928.298ZM937.736 586.22V594.12H946.096V586.22H944.476V588.82H939.376V586.22H937.736ZM939.376 590.12H944.476V592.78H939.376V590.12ZM949.356 585.48V594.8H951.016V585.48H949.356ZM950.296 589.36V590.74H953.676V589.36H950.296ZM939.536 595.68V597H949.396V598.82H939.576V602.78H941.216V600.06H951.016V595.68H939.536ZM939.576 602.04V603.36H951.676V602.04H939.576ZM806.406 623.037C806.406 622.673 806.527 622.367 806.768 622.119C807.015 621.865 807.354 621.738 807.783 621.738C808.213 621.738 808.548 621.865 808.789 622.119C809.036 622.367 809.16 622.673 809.16 623.037C809.16 623.402 809.036 623.708 808.789 623.955C808.548 624.196 808.213 624.316 807.783 624.316C807.354 624.316 807.015 624.196 806.768 623.955C806.527 623.708 806.406 623.402 806.406 623.037ZM820.825 624.66V631.56H822.525V624.66H820.825ZM827.045 624.66V631.56H828.745V624.66H827.045ZM816.625 623.76V625.14H833.025V623.76H816.625ZM824.785 614.2C821.025 614.2 818.465 615.72 818.465 618.14C818.465 620.54 821.025 622.08 824.785 622.08C828.565 622.08 831.105 620.54 831.105 618.14C831.105 615.72 828.565 614.2 824.785 614.2ZM824.785 615.54C827.545 615.54 829.405 616.56 829.405 618.14C829.405 619.72 827.545 620.74 824.785 620.74C822.025 620.74 820.145 619.72 820.145 618.14C820.145 616.56 822.025 615.54 824.785 615.54ZM839.823 616.06V619C839.823 622.12 837.643 625.52 835.023 626.76L835.983 628.08C838.863 626.66 841.163 622.82 841.163 619V616.06H839.823ZM840.143 616.06V619C840.143 622.76 842.463 626.28 845.383 627.64L846.323 626.32C843.663 625.18 841.483 622.06 841.483 619V616.06H840.143ZM835.623 615.32V616.72H845.723V615.32H835.623ZM848.163 613.48V631.56H849.823V613.48H848.163ZM853.441 627.88V629.26H869.821V627.88H853.441ZM860.761 623.56V628.28H862.421V623.56H860.761ZM855.361 614.76V624H867.861V614.76H866.221V617.98H857.001V614.76H855.361ZM857.001 619.32H866.221V622.64H857.001V619.32ZM879.14 614.12V615.12C879.14 617.7 875.96 619.86 872.66 620.36L873.32 621.7C877.08 621.06 880.6 618.58 880.6 615.12V614.12H879.14ZM879.44 614.12V615.12C879.44 618.54 882.98 621.06 886.7 621.7L887.36 620.36C884.1 619.86 880.88 617.64 880.88 615.12V614.12H879.44ZM879.14 624.68V631.56H880.78V624.68H879.14ZM871.84 623.66V625.04H888.18V623.66H871.84ZM901.201 617.676L896.953 630H894.385L899.736 615.781H901.377L901.201 617.676ZM904.756 630L900.498 617.676L900.312 615.781H901.963L907.334 630H904.756ZM904.551 624.727V626.67H896.816V624.727H904.551ZM914.873 615.781L909.336 631.221H907.49L913.037 615.781H914.873ZM924.219 626.338C924.219 626.045 924.173 625.785 924.082 625.557C923.997 625.329 923.844 625.12 923.623 624.932C923.402 624.743 923.089 624.561 922.686 624.385C922.288 624.202 921.781 624.017 921.162 623.828C920.485 623.62 919.86 623.389 919.287 623.135C918.721 622.874 918.226 622.575 917.803 622.236C917.38 621.891 917.051 621.497 916.816 621.055C916.582 620.605 916.465 620.088 916.465 619.502C916.465 618.923 916.585 618.395 916.826 617.92C917.074 617.445 917.422 617.035 917.871 616.689C918.327 616.338 918.864 616.068 919.482 615.879C920.101 615.684 920.785 615.586 921.533 615.586C922.588 615.586 923.496 615.781 924.258 616.172C925.026 616.562 925.615 617.087 926.025 617.744C926.442 618.402 926.65 619.128 926.65 619.922H924.219C924.219 619.453 924.118 619.04 923.916 618.682C923.721 618.317 923.421 618.031 923.018 617.822C922.62 617.614 922.116 617.51 921.504 617.51C920.924 617.51 920.443 617.598 920.059 617.773C919.674 617.949 919.388 618.187 919.199 618.486C919.01 618.786 918.916 619.124 918.916 619.502C918.916 619.769 918.978 620.013 919.102 620.234C919.225 620.449 919.414 620.651 919.668 620.84C919.922 621.022 920.241 621.195 920.625 621.357C921.009 621.52 921.462 621.676 921.982 621.826C922.77 622.061 923.457 622.321 924.043 622.607C924.629 622.887 925.117 623.206 925.508 623.564C925.898 623.923 926.191 624.329 926.387 624.785C926.582 625.234 926.68 625.745 926.68 626.318C926.68 626.917 926.559 627.458 926.318 627.939C926.077 628.415 925.732 628.822 925.283 629.16C924.84 629.492 924.307 629.749 923.682 629.932C923.063 630.107 922.373 630.195 921.611 630.195C920.928 630.195 920.254 630.104 919.59 629.922C918.932 629.74 918.333 629.463 917.793 629.092C917.253 628.714 916.823 628.245 916.504 627.686C916.185 627.119 916.025 626.458 916.025 625.703H918.477C918.477 626.165 918.555 626.559 918.711 626.885C918.874 627.21 919.098 627.477 919.385 627.686C919.671 627.887 920.003 628.037 920.381 628.135C920.765 628.232 921.175 628.281 921.611 628.281C922.184 628.281 922.663 628.2 923.047 628.037C923.438 627.874 923.73 627.646 923.926 627.354C924.121 627.061 924.219 626.722 924.219 626.338Z" fill="#565656"/>
<defs>
<linearGradient id="paint0_linear_159_625" x1="491" y1="0" x2="491" y2="146" gradientUnits="userSpaceOnUse">
<stop stop-color="#03A2D9"/>
<stop offset="1" stop-color="#025FBE"/>
</linearGradient>
</defs>
</svg>
