<svg width="81" height="66" viewBox="0 0 81 66" fill="none" xmlns="http://www.w3.org/2000/svg">
<path d="M37.8358 66C56.0612 66 70.8358 51.2254 70.8358 33C70.8358 14.7746 56.0612 0 37.8358 0C19.6104 0 4.83582 14.7746 4.83582 33C4.83582 51.2254 19.6104 66 37.8358 66Z" fill="#E5E5E5"/>
<path d="M80.952 27.877C80.6123 28.3797 80.2036 28.7829 79.5325 28.6448C78.9083 28.5178 78.6708 28.0317 78.4996 27.4738C78.0992 26.1703 77.66 24.8806 77.2762 23.5743C77.1436 23.1186 76.942 22.9335 76.4559 22.975C75.9119 23.0219 75.3623 22.986 74.7216 22.986C75.4976 25.5986 76.1963 28.1504 77.0193 30.6581C77.8893 33.3066 78.367 36.0048 78.3919 38.7831C78.414 41.3902 78.4002 44.0001 78.3947 46.6071C78.3891 48.7116 77.1049 49.9903 74.995 49.9958C73.3628 50.0013 71.7278 50.0206 70.0956 49.982C69.5847 49.9709 69.3748 50.1063 69.2588 50.6199C68.3861 54.5526 65.3372 57.2426 61.3492 57.6347C56.9884 58.0628 52.7989 55.0332 51.9041 50.7497C51.7826 50.1725 51.6362 49.982 51.0258 49.982C42.5169 50.0041 34.0053 50.0013 25.4964 49.9847C24.9827 49.9847 24.7811 50.1201 24.6678 50.631C23.762 54.7929 20.1303 57.7259 15.9628 57.6983C11.7319 57.6707 8.16922 54.7294 7.27994 50.5039C7.19985 50.1201 7.06176 49.9792 6.66407 49.9875C5.53176 50.0096 4.39945 50.0013 3.26437 49.993C1.28145 49.9792 0 48.7061 0 46.7425C0 36.6566 0 26.5652 0.00276174 16.4766C0.00276174 14.6069 1.17098 13.3613 3.03791 13.2315C3.27266 13.215 3.51293 13.2233 3.74768 13.2233C24.6402 13.2233 45.5355 13.2233 66.4281 13.2233C70.1785 13.2233 72.3244 14.8416 73.3932 18.465C73.6003 19.1665 73.6251 20.1331 74.1002 20.4866C74.5807 20.8457 75.5142 20.6054 76.2488 20.6081C79.0437 20.6109 78.7344 20.3679 79.6153 23.033C80.0462 24.3365 80.3362 25.6897 80.9493 26.9325C80.952 27.2446 80.952 27.5622 80.952 27.877Z" fill="#012D3A"/>
<path d="M45.2345 24.4277C46.3972 23.9996 46.4662 23.8753 46.4938 22.6657C46.5104 21.8869 46.1514 20.8457 46.6512 20.4066C47.0876 20.0227 48.1039 20.2906 48.8634 20.2878C50.5481 20.2823 52.2327 20.3016 53.9174 20.2768C54.4062 20.2685 54.594 20.3707 54.5885 20.9147C54.5609 24.2316 54.5636 27.5484 54.5885 30.868C54.5912 31.4038 54.4145 31.5226 53.9146 31.517C51.65 31.4922 49.3854 31.4894 47.1235 31.5198C46.5905 31.5281 46.4469 31.3541 46.4773 30.8487C46.5187 30.1942 46.4773 29.5314 46.4883 28.8741C46.5021 28.0897 46.1293 27.6451 45.3615 27.5236C45.2676 27.4766 45.1461 27.4214 45.1295 27.3247C44.95 26.3498 44.776 25.3749 45.2345 24.4277Z" fill="#04A2D8"/>
<path d="M39.6585 25.8224C39.6585 27.5098 39.642 29.1944 39.6668 30.8819C39.6751 31.3679 39.5205 31.5143 39.0372 31.5115C36.7201 31.4894 34.4002 31.4922 32.0831 31.5115C31.6274 31.5143 31.4948 31.3569 31.4976 30.9178C31.5114 27.5457 31.5114 24.1736 31.4948 20.8015C31.4921 20.3679 31.655 20.2768 32.0472 20.2796C34.3919 20.2934 36.7366 20.3044 39.0813 20.274C39.6171 20.2685 39.6723 20.4839 39.6668 20.9258C39.6475 22.5552 39.6585 24.1902 39.6585 25.8224Z" fill="#04A2D8"/>
<path d="M16.5815 25.9023C16.5815 24.2177 16.5953 22.5358 16.5732 20.8511C16.5677 20.4148 16.6809 20.2684 17.1393 20.2712C19.4537 20.2933 21.768 20.2905 24.0823 20.2739C24.4966 20.2712 24.6789 20.3402 24.6761 20.8207C24.654 24.1873 24.6596 27.5539 24.6734 30.9204C24.6761 31.3485 24.5822 31.5142 24.1155 31.5087C21.8012 31.4866 19.4868 31.481 17.1725 31.5114C16.656 31.5169 16.5677 31.3264 16.576 30.8735C16.5953 29.2164 16.5815 27.5594 16.5815 25.9023Z" fill="#04A2D8"/>
<path d="M76.0085 40.6998C76.0168 40.1833 75.8677 40.0287 75.3429 40.0369C73.4208 40.0673 71.4986 40.048 69.5737 40.0508C68.712 40.0508 67.7896 39.9569 67.1931 39.3797C66.1491 38.3771 64.9422 38.413 63.6801 38.4489C63.1278 38.4655 62.5727 38.4517 62.0203 38.4517C55.0138 38.4517 48.0073 38.4517 41.0007 38.4517C39.9209 38.4517 39.6033 38.2225 39.3382 37.278C38.3025 37.0487 37.2669 37.0294 36.2368 37.3001C36.0296 38.217 35.3944 38.46 34.53 38.46C25.5488 38.4489 16.5704 38.4517 7.58926 38.4545C7.27442 38.4545 6.95958 38.4738 6.64474 38.4849C5.37987 38.4738 4.11776 38.4738 2.85288 38.4462C2.46624 38.4379 2.36405 38.5843 2.36681 38.9516C2.37786 41.5587 2.3751 44.1685 2.37234 46.7756C2.37234 47.2064 2.56842 47.5572 2.97992 47.5654C4.23927 47.5958 5.50139 47.7311 6.75798 47.5433C6.85187 47.571 6.96787 47.5572 7.11148 47.4854C7.15567 47.4218 7.22747 47.3611 7.23852 47.2948C7.83505 43.282 11.4308 39.9983 15.6618 39.9071C20.1773 39.8105 23.6073 42.5418 24.6872 47.0352C24.8059 47.5295 25.049 47.6207 25.5074 47.6207C34.0163 47.6096 42.5225 47.6069 51.0314 47.6207C51.5699 47.6207 51.7826 47.5074 51.8986 46.9164C52.6829 42.9395 56.3726 39.921 60.3964 39.8933C64.7986 39.8657 68.2232 42.6081 69.2782 47.0186C69.3748 47.4246 69.5129 47.6345 70.0017 47.6234C71.6339 47.5848 73.2689 47.6152 74.9011 47.6069C75.7986 47.6013 75.9947 47.3942 75.9975 46.4663C76.003 44.5441 75.9809 42.6219 76.0085 40.6998Z" fill="#2661AE"/>
<path d="M9.15794 20.2795C8.32113 20.3044 7.48157 20.3016 6.64476 20.3127C5.43512 20.3044 4.22548 20.3182 3.0186 20.274C2.50768 20.2547 2.35855 20.3983 2.36131 20.923C2.38616 24.2371 2.3834 27.5512 2.36131 30.8625C2.35855 31.379 2.49663 31.5253 3.01584 31.5198C5.04019 31.4922 7.06454 31.5143 9.09166 31.5032C9.27117 31.5032 9.52249 31.6386 9.6302 31.3486C9.64401 27.8136 9.64953 24.2758 9.67715 20.7407C9.67991 20.3237 9.49763 20.2685 9.15794 20.2795Z" fill="#04A2D8"/>
<path d="M15.9711 42.2906C14.0296 42.3209 12.4278 43.0749 11.1132 44.5027C9.44789 46.3089 8.96458 49.1424 10.0941 51.4816C11.232 53.8374 13.121 55.1768 15.8109 55.2265C19.1416 55.4999 22.3811 52.6194 22.4833 48.9353C22.5799 45.4527 19.647 42.2243 15.9711 42.2906ZM17.6475 53.3292C16.5897 53.7297 15.5292 53.564 14.4604 53.5143C14.4356 53.5225 14.4135 53.5336 14.3914 53.5419C14.3113 53.2905 14.0379 53.2629 13.8501 53.1414C13.2591 52.752 12.6349 52.4096 12.2013 51.8185C10.3399 49.2916 11 46.0852 13.712 44.4917C13.9136 44.3729 14.2561 44.3701 14.2312 44.0028C14.2533 44.0304 14.2837 44.0581 14.3251 44.0857C15.231 44.0802 16.1092 43.8012 17.0509 44.0443C19.0919 44.569 20.6964 46.3531 20.818 48.3885C20.9478 50.6338 19.6856 52.5587 17.6475 53.3292Z" fill="white"/>
<path d="M60.5566 42.2906C58.6151 42.3209 57.0133 43.0776 55.6987 44.5027C54.0555 46.2868 53.5611 49.1756 54.6796 51.4816C55.8202 53.8374 57.7065 55.1768 60.3964 55.2238C63.7464 55.4972 67.0108 52.5808 67.0715 48.8524C67.1295 45.5024 64.2822 42.216 60.5566 42.2906ZM62.2357 53.3292C61.178 53.7297 60.1175 53.5667 59.0487 53.517C59.0238 53.5253 59.0017 53.5336 58.9824 53.5446C58.9051 53.2574 58.6068 53.2187 58.3886 53.0917C57.7755 52.7327 57.1735 52.3626 56.7482 51.7633C54.9392 49.2253 55.6103 46.0741 58.2975 44.4944C58.4991 44.3757 58.8416 44.3729 58.8167 44.0056C58.8388 44.0332 58.8692 44.0608 58.9106 44.0884C59.8164 44.0829 60.6974 43.804 61.6364 44.047C63.6773 44.5745 65.2792 46.3531 65.4007 48.3912C65.536 50.6393 64.2794 52.5559 62.2357 53.3292Z" fill="white"/>
<path d="M70.5651 17.7526C70.5292 17.6559 70.5099 17.5454 70.4547 17.4626C69.5322 16.0762 68.1956 15.6398 66.5855 15.6426C46.9191 15.6592 27.2528 15.6536 7.58649 15.6564C7.32413 15.6564 7.06176 15.6813 6.80216 15.6951C5.61737 15.6813 4.43535 15.6509 3.25056 15.6647C2.43309 15.673 2.39443 15.8691 2.35576 17.2969C2.33643 18.0674 2.78935 17.9072 3.2119 17.9072C13.5601 17.91 23.9084 17.91 34.2538 17.9127C46.1017 17.9127 57.9495 17.9155 69.8001 17.9017C70.0432 17.8962 70.3635 18.0867 70.5651 17.7526C70.5651 17.7526 70.5624 17.7526 70.5651 17.7526Z" fill="#2661AE"/>
<path d="M75.4783 34.091C74.2189 29.6418 72.896 25.2092 71.6091 20.7656C71.4903 20.3541 71.2666 20.274 70.8744 20.274C67.9801 20.2906 65.0831 20.3044 62.1888 20.2657C61.5563 20.2574 61.4735 20.4729 61.4763 21.0252C61.5011 24.2896 61.526 27.554 61.4652 30.8156C61.4486 31.7242 61.6889 32.3124 62.5312 32.6356C64.4009 34.1573 66.2623 35.6873 68.1431 37.1952C68.5794 37.5459 69.1097 37.6868 69.6841 37.6812C71.5235 37.6702 73.3628 37.6868 75.2021 37.673C75.4313 37.6702 75.7296 37.8414 75.8953 37.5128C75.9588 36.3473 75.7903 35.1929 75.4783 34.091Z" fill="#04A2D8"/>
<path d="M57.8446 33.8175C41.0919 33.9086 24.3392 33.8672 7.58647 33.87C7.27163 33.87 6.95679 33.8893 6.64195 33.9004C5.66706 33.8893 4.69493 33.8727 3.72004 33.87C2.36955 33.8645 2.40269 33.87 2.3585 35.2287C2.33641 35.8584 2.46897 36.0738 3.1594 36.0738C4.42428 36.0711 5.68639 36.0711 6.95127 36.0711C7.06174 36.0904 7.18049 36.0849 7.30201 36.0711C16.6173 36.0573 25.9299 36.06 35.2453 36.0628C35.8611 36.2478 36.1566 36.6869 36.234 37.3C37.2669 37.2918 38.3025 37.2862 39.3354 37.278C39.5453 36.2865 39.827 36.0628 40.9262 36.0628C47.9051 36.06 54.8867 36.0628 61.8656 36.0573C62.1308 36.0573 62.4208 36.1346 62.6969 35.9772C61.3464 34.577 59.9131 33.8065 57.8446 33.8175Z" fill="white"/>
<path d="M45.2345 24.4276C44.3673 24.1735 44.0304 23.5936 44.1022 22.6987C44.1519 22.0718 44.1022 21.4339 44.116 20.8014C44.1243 20.459 44.0663 20.2187 43.6437 20.3043C43.3013 20.2988 42.9588 20.3043 42.6164 20.2822C42.2325 20.2574 42.0419 20.3734 42.0419 20.807C42.053 24.2039 42.0475 27.6036 42.0502 31.0005C42.0502 31.2132 42.0447 31.4866 42.3292 31.4728C42.9146 31.4452 43.5222 31.6799 44.0829 31.3457C44.0911 30.531 44.0994 29.7191 44.1105 28.9044C44.1215 28.0151 44.4419 27.6616 45.3588 27.5152C45.113 26.4961 45.3312 25.455 45.2345 24.4276Z" fill="white"/>
<path d="M14.2174 21.0418C14.2174 20.796 14.3334 20.5087 14.0655 20.3099C13.9108 20.3099 13.7562 20.3099 13.6015 20.3099C13.4441 20.3016 13.2867 20.2906 13.1293 20.2878C12.0329 20.2768 12.0329 20.2768 12.0329 21.387C12.0329 24.3089 12.0329 27.2308 12.0329 30.1527C12.0329 31.6496 11.9196 31.4535 13.4054 31.5143C14.0793 31.5419 14.2423 31.3209 14.2367 30.6747C14.2064 27.4656 14.2257 24.2537 14.2174 21.0418Z" fill="white"/>
<path d="M28.6254 20.3099C28.2829 20.3016 27.9405 20.3071 27.598 20.2851C27.2086 20.2602 27.0291 20.3817 27.0291 20.8125C27.0402 24.2095 27.0346 27.6092 27.0374 31.0061C27.0374 31.216 27.0291 31.4922 27.3163 31.4756C27.9018 31.448 28.5122 31.6772 29.0756 31.3513C29.0838 27.8329 29.0921 24.3117 29.1087 20.7932C29.1115 20.4425 29.0341 20.2243 28.6254 20.3099Z" fill="white"/>
<path d="M59.1233 20.9589C59.1233 20.738 59.2199 20.4756 58.9686 20.3071C58.814 20.3071 58.6593 20.3099 58.5047 20.3099C58.3472 20.3016 58.1898 20.2878 58.0324 20.2878C56.9388 20.2768 56.9388 20.2768 56.9388 21.3925C56.9388 24.3144 56.9388 27.2363 56.9388 30.1582C56.9388 31.6579 56.8338 31.4673 58.3141 31.5115C58.8968 31.5281 59.1509 31.4259 59.1426 30.752C59.1095 27.4876 59.1288 24.2233 59.1233 20.9589Z" fill="white"/>
<path d="M17.283 46.5104C16.1424 45.8752 14.8526 46.0686 14.0131 46.9993C13.1763 47.93 13.0989 49.3467 13.8308 50.3354C14.6206 51.4015 15.8607 51.7108 17.0924 51.1502C18.1087 50.7607 18.5727 49.9433 18.6362 48.9297C18.7053 47.872 18.2689 47.0158 17.283 46.5104Z" fill="#2661AE"/>
<path d="M61.8712 46.5077C60.7306 45.8726 59.4381 46.0659 58.6041 46.9966C57.7673 47.93 57.6899 49.3413 58.4218 50.33C59.2089 51.3933 60.4544 51.7053 61.6834 51.1475C62.7025 50.7581 63.1637 49.9406 63.2272 48.927C63.2935 47.872 62.8571 47.0159 61.8712 46.5077Z" fill="#2661AE"/>
<path d="M34.2483 36.1429L41.2051 36.0905L40.998 38.449L34.53 38.4573L34.2483 36.1429Z" fill="#012D3A"/>
<path d="M44.1049 22.6987L44.1132 28.9071L46.4883 28.8685L46.4938 22.6628L44.1049 22.6987Z" fill="#012D3A"/>
</svg>
