<svg width="74" height="66" viewBox="0 0 74 66" fill="none" xmlns="http://www.w3.org/2000/svg">
<path d="M36.6563 65.5996C54.8027 65.5996 69.5134 50.9146 69.5134 32.7998C69.5134 14.685 54.8027 0 36.6563 0C18.5098 0 3.79919 14.685 3.79919 32.7998C3.79919 50.9146 18.5098 65.5996 36.6563 65.5996Z" fill="#E5E5E5"/>
<path d="M9.68926 22.8905C10.0247 21.9188 10.1567 21.8337 11.3446 21.8337C12.659 21.8309 12.659 21.8309 12.659 20.5161C12.659 17.3703 12.6563 14.2273 12.659 11.0816C12.659 9.77496 12.9835 9.45654 14.3006 9.45654C19.8579 9.45654 25.418 9.45654 30.9753 9.45654C32.2924 9.45654 32.5922 9.75849 32.5922 11.0816C32.5922 14.4305 32.6059 17.7821 32.5784 21.131C32.5729 21.6992 32.7076 21.8611 33.2906 21.8501C35.4932 21.8117 37.6957 21.8337 39.8983 21.8364C41.1907 21.8364 41.4849 22.1246 41.4849 23.3901C41.4849 26.739 41.5124 30.0906 41.4657 33.4395C41.4547 34.1861 41.7957 34.1449 42.3236 34.1669C42.9148 34.1916 43.0908 34.0351 43.0853 33.4203C43.0578 28.3063 43.0688 23.1924 43.0715 18.0785C43.0715 16.6978 43.3685 16.3959 44.7269 16.3931C50.4135 16.3904 56.1 16.4151 61.7865 16.3821C63.9121 16.3712 65.3887 17.2358 66.2962 19.1683C67.0441 20.7604 67.869 22.3168 68.694 23.8705C69.0212 24.4881 69.0459 25.0261 68.5427 25.5422C67.924 26.0335 67.3301 25.9759 66.8296 25.3692C66.5354 25.0096 66.3484 24.5869 66.1532 24.1697C65.9222 23.6728 65.5675 23.4477 65.0093 23.4477C60.3291 23.4532 55.6463 23.4532 50.9662 23.4477C50.364 23.4477 50.1522 23.703 50.1632 24.2795C50.1825 25.3774 50.1742 26.4754 50.166 27.5734C50.1605 28.0977 50.3942 28.4189 50.8562 28.655C52.6958 29.6075 54.6069 30.4145 56.4492 31.356C56.8479 31.5592 57.2796 31.5921 57.7196 31.5921C61.4538 31.5921 65.188 31.5948 68.9222 31.5894C69.8571 31.5894 69.8736 31.5592 69.5052 30.7082C69.3622 30.3761 69.2357 30.0412 69.2687 29.6733C69.3072 29.2424 69.4309 28.8663 69.9479 28.8004C70.7453 28.5644 71.21 28.8883 71.6252 29.5937C72.7581 31.5207 73.2311 33.5493 73.1679 35.8002C73.0579 39.709 73.1376 43.6206 73.1376 47.5322C73.1376 49.0118 72.8654 49.289 71.4135 49.289C69.5712 49.289 67.726 49.3027 65.8837 49.2808C65.4107 49.2753 65.2128 49.3494 65.1028 49.8984C64.2888 54.0021 60.6316 56.9695 56.5152 56.9338C52.3465 56.8981 48.7553 53.928 47.9854 49.8325C47.8947 49.3466 47.7187 49.2588 47.3007 49.2835C46.8415 49.311 46.3768 49.3165 45.9176 49.2835C45.4474 49.2478 45.2631 49.3576 45.2604 49.8929C45.2549 51.743 44.3612 52.6049 42.5161 52.6104C39.4171 52.6159 36.3181 52.6159 33.2219 52.6104C31.4207 52.6077 30.5161 51.7403 30.5106 49.9451C30.5078 49.3961 30.3456 49.267 29.8204 49.2808C28.4895 49.3165 27.1586 49.3082 25.825 49.2835C25.3987 49.2753 25.2392 49.3686 25.1485 49.8435C24.3703 53.8978 20.9001 56.8075 16.7617 56.9256C12.736 57.0408 8.95782 54.2739 8.17138 50.2443C7.67367 47.6969 6.1228 45.7233 5.20437 43.4285C4.61867 41.9681 3.75799 41.4576 2.16587 41.5921C0.106287 41.765 0.00179577 41.5427 0.00179577 39.4922C0.00179577 38.1883 -0.00370378 36.8844 0.00454555 35.5806C0.0100451 34.543 0.395014 34.1641 1.44818 34.1532C2.06138 34.1477 2.67733 34.1312 3.29053 34.1587C3.703 34.1779 3.82124 34.0241 3.80474 33.6289C3.77724 32.9399 3.80749 32.2481 3.79374 31.5592C3.77999 30.807 4.07972 30.3349 4.87165 30.2553C5.60584 30.2114 6.02656 30.549 6.16955 31.3149C6.26579 31.8446 6.21354 32.3854 6.22454 32.9207C6.24379 33.8073 6.30153 33.8759 7.19796 33.8759C10.7259 33.8842 14.2566 33.8787 17.7846 33.8787C18.6535 33.8787 19.5252 33.8595 20.3941 33.8842C20.9991 33.9034 21.2768 33.7002 21.2713 33.0552C21.2548 30.4008 21.2713 27.7464 21.2603 25.0892C21.2576 24.3234 21.1641 24.2383 20.3391 24.2355C17.4491 24.2246 14.5591 24.2328 11.6691 24.23C11.2869 24.23 10.8964 24.2575 10.5279 24.1367C9.94224 23.9363 9.54352 23.5932 9.68926 22.8905Z" fill="#012D3A"/>
<path d="M69.9479 28.7977C69.3402 29.3055 69.2934 29.9011 69.6646 30.5682C69.8709 30.9388 70.0524 31.3203 70.2861 31.7815C67.3768 31.7815 64.5831 31.6277 61.8113 31.8199C58.3823 32.0615 55.2448 31.4356 52.3245 29.6294C51.5931 29.1765 50.5399 29.02 50.089 28.3969C49.6298 27.7628 49.979 26.7197 49.9542 25.855C49.935 25.1386 49.9652 24.4222 49.9405 23.7085C49.9295 23.3461 50.0422 23.2253 50.4162 23.2253C55.4593 23.2363 60.5024 23.2336 65.5482 23.2253C65.8535 23.2253 66.0102 23.3406 66.1284 23.6041C66.3182 24.0214 66.5381 24.4249 66.7499 24.8312C67.2146 25.7205 67.5748 25.8633 68.5427 25.5339C68.5372 26.4013 69.1394 27.0244 69.4447 27.7655C69.5904 28.1224 69.7801 28.4573 69.9479 28.7977Z" fill="white"/>
<path d="M9.68924 22.8905C9.87898 23.7332 10.4262 24.0022 11.2621 23.994C14.4381 23.9665 17.6141 23.994 20.7901 23.972C21.351 23.9693 21.5848 24.0544 21.5765 24.7049C21.538 27.6201 21.5463 30.5353 21.571 33.4477C21.5765 34.0049 21.4445 34.1889 20.8533 34.1861C16.1155 34.1614 11.3776 34.1642 6.63974 34.1834C6.10353 34.1861 5.9193 34.0379 5.95505 33.4999C5.99904 32.863 5.96604 32.2234 5.96604 31.5839C5.96604 30.8455 5.64157 30.3678 4.87988 30.2498C4.88263 29.0914 4.88538 27.9303 4.88813 26.7719C5.72956 26.1625 5.81756 25.2951 5.78456 24.3508C5.76806 23.865 5.63057 23.3379 5.99904 22.8987C7.22819 22.896 8.45734 22.8932 9.68924 22.8905Z" fill="#04A2D8"/>
<path d="M64.7618 21.0925C59.6692 21.0925 54.6509 21.0925 49.6325 21.0925C49.4263 21.0925 49.2228 21.0842 49.0193 21.0952C48.2412 21.1364 47.8122 21.5234 47.8094 22.2838C47.7957 24.5072 47.8122 26.7334 47.8149 28.9569C47.8149 29.558 48.0954 29.956 48.6426 30.2168C51.0652 31.367 53.4795 32.5281 55.8938 33.6947C56.3035 33.8923 56.7242 33.9225 57.1614 33.9225C61.5143 33.9198 65.87 33.9308 70.2229 33.9088C70.7948 33.9061 71.0533 34.0131 71.0066 34.6554C70.9461 35.468 70.9681 36.2914 71.0011 37.1095C71.0203 37.5596 70.8553 37.6749 70.4291 37.6639C69.4062 37.6392 68.3805 37.6475 67.3549 37.6585C66.3567 37.6694 65.969 38.062 65.958 39.0611C65.947 40.0082 65.9635 40.9524 65.9525 41.8994C65.9442 42.6049 66.2522 43.0496 66.9479 43.25C68.1 43.5794 69.2412 43.9527 70.3961 44.2739C70.8278 44.3946 71.0011 44.5813 71.0038 45.0617C71.0121 47.1424 71.0313 47.1424 68.9552 47.1424C67.9296 47.1424 66.9066 47.1177 65.8837 47.1533C65.3888 47.1726 65.2073 47.0381 65.089 46.522C64.2999 43.0304 62.1853 40.7246 58.7096 39.7831C54.0817 38.5259 49.2118 41.4191 48.1339 46.0801C47.9332 46.9502 47.6472 47.2165 46.7618 47.1671C45.2357 47.082 45.2302 47.1424 45.2302 45.6216C45.2302 36.9036 45.2412 28.1855 45.2109 19.4675C45.2082 18.7126 45.4226 18.5451 46.1513 18.5479C51.2219 18.5808 56.2925 18.5781 61.3631 18.5589C63.2329 18.5534 63.7774 18.4957 64.7618 21.0925Z" fill="#04A2D8"/>
<path d="M22.6655 11.5975C25.044 11.5975 27.4254 11.6113 29.8039 11.5866C30.3126 11.5811 30.4501 11.7348 30.4446 12.2371C30.4226 15.2264 30.4226 18.2157 30.4446 21.2022C30.4474 21.6909 30.3291 21.8501 29.8149 21.8501C25.0303 21.8309 20.2457 21.8309 15.4583 21.8501C14.9634 21.8528 14.7901 21.7238 14.7956 21.216C14.8149 18.2267 14.8176 15.2374 14.7929 12.2509C14.7874 11.6717 15.0321 11.5893 15.5243 11.5921C17.9056 11.6085 20.2869 11.5975 22.6655 11.5975Z" fill="#04A2D8"/>
<path d="M31.5775 23.983C33.956 23.983 36.3373 23.9968 38.7159 23.9721C39.2273 23.9666 39.3511 24.1203 39.3483 24.6144C39.3263 27.5762 39.3236 30.5381 39.3483 33.5027C39.3538 34.0352 39.2053 34.1889 38.6664 34.1889C33.9093 34.1697 29.1494 34.1669 24.3923 34.1917C23.8066 34.1944 23.6636 34.0187 23.6691 33.4533C23.6966 30.5161 23.6966 27.579 23.6691 24.6418C23.6636 24.0874 23.8451 23.9693 24.3648 23.9748C26.7681 23.9968 29.1714 23.983 31.5775 23.983Z" fill="#04A2D8"/>
<path d="M22.5857 39.4812C16.055 39.4812 9.52427 39.4703 2.99355 39.4977C2.30885 39.5004 2.06412 39.3193 2.15487 38.644C2.25661 37.8974 1.82764 36.9366 2.35285 36.4398C2.83956 35.9786 3.77448 36.2971 4.50867 36.2971C17.0339 36.2888 29.5564 36.2971 42.0816 36.2751C42.8241 36.2751 43.1788 36.4069 43.0688 37.2276C42.9753 37.9303 43.3548 38.8581 42.9341 39.3056C42.4748 39.7969 41.5289 39.4703 40.7975 39.473C34.726 39.4867 28.6545 39.4812 22.5857 39.4812Z" fill="#2661AE"/>
<path d="M16.5885 54.7021C12.9148 54.7076 9.98076 51.7897 9.99726 48.1471C10.0138 44.5813 13 41.6305 16.5912 41.6305C20.1742 41.6305 23.1797 44.6006 23.1852 48.1498C23.1907 51.7924 20.2677 54.6966 16.5885 54.7021Z" fill="white"/>
<path d="M56.5345 54.7021C52.8635 54.7021 49.9323 51.7732 49.957 48.1334C49.9818 44.5649 52.968 41.6278 56.5647 41.6305C60.1422 41.6332 63.1477 44.6198 63.1449 48.1636C63.1422 51.8089 60.2192 54.7021 56.5345 54.7021Z" fill="white"/>
<path d="M22.5527 41.7019C22.759 41.5591 22.9927 41.636 23.2072 41.636C29.5289 41.6305 35.8534 41.6442 42.1752 41.614C42.9093 41.6113 43.0826 41.8419 43.0523 42.5226C42.9891 43.9747 43.2228 43.7771 41.7792 43.7798C38.9112 43.7908 36.0459 43.7826 33.1779 43.7826C31.4208 43.7826 30.5766 44.5923 30.5738 46.3382C30.5738 46.9119 30.4363 47.1754 29.8011 47.1562C28.4703 47.1177 27.1394 47.1452 25.8085 47.1424C25.5335 47.1424 25.2585 47.1946 25.1898 46.7691C24.8735 44.8449 23.9744 43.2144 22.5885 41.8474C22.561 41.8227 22.5665 41.7623 22.5527 41.7019Z" fill="#2661AE"/>
<path d="M37.8855 50.398C36.3786 50.398 34.8689 50.3815 33.3621 50.4062C32.8671 50.4145 32.6829 50.269 32.6994 49.7584C32.7324 48.6879 32.7269 47.6146 32.7021 46.5441C32.6911 46.0829 32.8424 45.9237 33.3153 45.9264C36.3566 45.9429 39.3978 45.9429 42.4363 45.9264C42.8955 45.9237 43.0743 46.0582 43.0605 46.5331C43.033 47.6036 43.0303 48.6769 43.0605 49.7474C43.0743 50.247 42.9093 50.4145 42.4061 50.4062C40.902 50.3815 39.3923 50.398 37.8855 50.398Z" fill="#2661AE"/>
<path d="M10.7974 41.6305C9.77728 42.6544 9.05684 43.6755 8.46288 44.9574C7.89093 43.8951 7.38772 42.9673 6.89001 42.0368C6.66728 41.6223 6.967 41.6305 7.23648 41.6305C8.35564 41.6305 9.47755 41.6305 10.7974 41.6305Z" fill="#2661AE"/>
<path d="M69.5959 39.7996C70.9846 39.7996 70.9846 39.7996 70.9846 41.1995C70.9846 41.2517 70.9846 41.3011 70.9846 41.3532C70.9846 42.2289 70.9846 42.2289 70.1706 41.9818C69.6592 41.8254 69.1532 41.6414 68.6335 41.5262C68.2458 41.4383 68.0918 41.2791 68.089 40.8619C68.0835 39.7996 68.0588 39.7996 69.5959 39.7996Z" fill="white"/>
<path d="M20.7434 16.728C20.7434 17.288 20.7599 17.8507 20.7379 18.4107C20.7131 19.0393 20.3474 19.3962 19.7397 19.4648C19.1678 19.5307 18.6398 19.0915 18.6178 18.4574C18.5738 17.3127 18.5656 16.1626 18.6233 15.0179C18.6536 14.3948 19.0495 13.9775 19.737 14.0132C20.4134 14.0517 20.7269 14.4716 20.7461 15.1195C20.7544 15.6575 20.7434 16.1928 20.7434 16.728Z" fill="#012D3B"/>
<path d="M24.5655 16.7554C24.5655 16.168 24.5518 15.5778 24.571 14.9904C24.5903 14.3837 24.9368 14.0516 25.5335 14.0132C26.1329 13.9747 26.5536 14.274 26.6114 14.8641C26.7379 16.1103 26.7434 17.3648 26.6059 18.6083C26.5399 19.2149 26.0834 19.4922 25.5142 19.4455C24.945 19.3988 24.5765 19.0585 24.5655 18.4408C24.5573 17.8809 24.5655 17.3181 24.5655 16.7554Z" fill="#012E3B"/>
<path d="M6.59851 23.4806H5.33911V24.79H6.59851V23.4806Z" fill="#012D3A"/>
<path d="M27.5023 29.0145C27.5023 28.4792 27.4913 27.9439 27.5051 27.4087C27.5188 26.7718 27.901 26.4232 28.4922 26.3326C29.0395 26.2475 29.5977 26.7087 29.6224 27.3346C29.6692 28.4792 29.6774 29.6294 29.6224 30.774C29.5922 31.3971 29.1962 31.8363 28.5225 31.8007C27.868 31.7677 27.5188 31.3532 27.5023 30.6972C27.4886 30.1372 27.5023 29.5772 27.5023 29.0145Z" fill="#012E3B"/>
<path d="M35.5206 29.0969C35.5206 29.6322 35.5206 30.1674 35.5206 30.7027C35.5179 31.3697 35.1824 31.7787 34.5197 31.8062C33.8488 31.8336 33.4611 31.4274 33.4391 30.7768C33.4006 29.6569 33.3896 28.5369 33.4308 27.4169C33.4556 26.717 33.978 26.2421 34.5555 26.3354C35.1852 26.437 35.5399 26.8185 35.5234 27.4966C35.5124 28.0263 35.5206 28.5616 35.5206 29.0969Z" fill="#012E3B"/>
<path d="M13.9047 23.983C16.2832 23.983 18.6645 23.9968 21.0431 23.9721C21.5545 23.9666 21.6783 24.1203 21.6755 24.6144C21.6535 27.5762 21.6508 30.5381 21.6755 33.5027C21.681 34.0352 21.5325 34.1889 20.9936 34.1889C16.2365 34.1697 11.4766 34.1669 6.7195 34.1917C6.13379 34.1944 5.99081 34.0187 5.99631 33.4533C6.0238 30.5161 6.0238 27.579 5.99631 24.6418C5.99081 24.0874 6.17229 23.9693 6.692 23.9748C9.0953 23.9968 11.4986 23.983 13.9047 23.983Z" fill="#04A2D8"/>
<path d="M9.82673 29.0145C9.82673 28.4792 9.81573 27.9439 9.82948 27.4087C9.84323 26.7718 10.2254 26.4232 10.8166 26.3326C11.3639 26.2475 11.9221 26.7087 11.9468 27.3346C11.9936 28.4792 12.0018 29.6294 11.9468 30.774C11.9166 31.3971 11.5206 31.8363 10.8469 31.8007C10.1924 31.7677 9.84323 31.3532 9.82673 30.6972C9.81573 30.1372 9.82673 29.5772 9.82673 29.0145Z" fill="#012E3B"/>
<path d="M17.8479 29.0969C17.8479 29.6322 17.8479 30.1674 17.8479 30.7027C17.8451 31.3697 17.5096 31.7787 16.8469 31.8062C16.176 31.8336 15.7883 31.4274 15.7663 30.7768C15.7278 29.6569 15.7168 28.5369 15.758 27.4169C15.7828 26.717 16.3052 26.2421 16.8827 26.3354C17.5124 26.437 17.8671 26.8185 17.8506 27.4966C17.8396 28.0263 17.8479 28.5616 17.8479 29.0969Z" fill="#012E3B"/>
<path d="M16.6462 44.0626C19.0055 44.0736 20.7736 45.8853 20.7516 48.2706C20.7324 50.538 18.8598 52.3744 16.5775 52.3717C14.2566 52.3689 12.428 50.5106 12.4335 48.1663C12.4418 45.8056 14.2456 44.0489 16.6462 44.0626Z" fill="#012D3A"/>
<path d="M56.6307 44.0625C58.9845 44.079 60.7388 45.8989 60.7113 48.2926C60.6866 50.5517 58.803 52.3798 56.5124 52.3689C54.1944 52.3579 52.3795 50.494 52.3933 48.1388C52.407 45.7919 54.2246 44.0433 56.6307 44.0625Z" fill="#012D3A"/>
<path d="M18.6013 48.2515C18.5793 49.3577 17.6746 50.2333 16.5747 50.2196C15.4363 50.2059 14.5646 49.2918 14.5811 48.1362C14.5976 47.0327 15.494 46.1708 16.6104 46.1817C17.7571 46.19 18.626 47.0931 18.6013 48.2515Z" fill="#2661AE"/>
<path d="M58.561 48.2404C58.5418 49.3494 57.6481 50.2278 56.5455 50.2195C55.4098 50.2113 54.5271 49.3 54.5409 48.1471C54.5546 47.0408 55.44 46.1762 56.5592 46.1817C57.7059 46.1844 58.5803 47.0848 58.561 48.2404Z" fill="#2661AE"/>
<path d="M4.86893 32.3634C4.27223 32.3634 3.79102 31.8803 3.79102 31.2873V22.9042C3.79102 22.3085 4.27498 21.8281 4.86893 21.8281H12.6315C13.2282 21.8281 13.7095 22.3112 13.7095 22.9042C13.7095 23.4998 13.2255 23.9802 12.6315 23.9802H5.94959V31.2846C5.94684 31.8803 5.46288 32.3634 4.86893 32.3634Z" fill="#012D3A"/>
<path d="M66.6812 24.6857L69.5822 30.269L71.3668 29.2231L68.694 23.8677L66.6812 24.6857Z" fill="#012D3A"/>
</svg>
