<svg width="81" height="73" viewBox="0 0 81 73" fill="none" xmlns="http://www.w3.org/2000/svg">
<path d="M40.5 73C62.8675 73 81 56.6584 81 36.5C81 16.3416 62.8675 0 40.5 0C18.1325 0 0 16.3416 0 36.5C0 56.6584 18.1325 73 40.5 73Z" fill="#E5E5E5"/>
<path d="M15.075 34.989C14.3017 34.8958 13.5972 34.8181 12.8411 34.7249C12.8411 34.9579 12.8411 35.1909 12.8411 35.4161C12.8411 42.4528 12.8411 49.4972 12.8411 56.5338C12.8411 57.761 13.1676 58.0639 14.5079 58.0639C16.0373 58.0639 17.5667 58.0483 19.0961 58.0716C19.5085 58.0794 19.7405 57.9862 19.9553 57.6289C20.6857 56.3862 22.2237 55.7882 23.6585 56.1377C25.1879 56.5027 26.1932 57.6677 26.1932 59.0658C26.1932 60.4715 25.1879 61.6288 23.6585 62.0016C22.2237 62.3433 20.6943 61.753 19.9553 60.5104C19.7405 60.1531 19.5171 60.0599 19.0961 60.0599C17.4035 60.0832 15.7108 60.0754 14.0182 60.0677C12.0334 60.0599 10.6157 58.7784 10.6157 56.9688C10.6157 49.5127 10.6071 42.0489 10.6243 34.5929C10.6243 34.088 10.4782 33.7851 10.0056 33.4744C7.15306 31.6182 5.79551 29.0707 6.23371 25.9252C6.69768 22.601 8.82853 20.3642 12.3255 19.2303C12.6864 19.1138 12.9012 18.9973 12.9785 18.6245C13.7604 14.7256 17.7042 12.248 22.026 12.916C22.2065 12.947 22.3955 12.9626 22.5931 12.9936C25.0333 9.0792 28.6678 7.21519 33.6598 7.94526C37.1826 8.46563 40.439 10.8655 41.5559 14.8188C41.8051 14.8188 42.0801 14.8188 42.3464 14.8188C51.3424 14.8188 60.3383 14.8188 69.3343 14.8188C71.5683 14.8188 72.9344 16.0459 72.9344 18.0498C72.9344 18.2362 72.9516 18.4303 72.9344 18.6167C72.8485 19.4322 72.9516 20.0458 73.8967 20.5584C75.1598 21.2496 75.4777 22.7408 74.9364 23.968C74.3865 25.2184 73.0547 25.9563 71.5081 25.8631C70.1162 25.7776 68.8789 24.7835 68.5438 23.4865C68.2345 22.2593 68.8703 20.9079 70.142 20.2788C70.6059 20.0536 70.7692 19.8128 70.7176 19.3546C70.6747 18.9585 70.709 18.5624 70.709 18.1585C70.7005 17.1644 70.3138 16.8148 69.1882 16.8148C65.6139 16.8148 62.0482 16.8148 58.4739 16.8148C54.7878 16.8148 51.1104 16.8148 47.3728 16.8148C47.8454 17.475 48.275 18.1041 48.7562 18.6944C48.8507 18.8109 49.1686 18.8264 49.3834 18.8264C53.0952 18.8342 56.7984 18.8264 60.5102 18.8342C62.641 18.8342 64.0244 20.0846 64.0244 22.0185C64.0244 22.1894 64.0416 22.3525 64.0244 22.5234C63.947 23.3933 64.033 24.0767 65.0468 24.6359C66.2755 25.3194 66.5591 26.7951 66.0177 28.0067C65.4593 29.2571 64.1275 29.9872 62.5809 29.8862C61.2147 29.8008 60.0033 28.8377 59.651 27.5562C59.3159 26.3291 59.9173 24.9544 61.189 24.333C61.7131 24.0767 61.8506 23.7894 61.8076 23.3078C61.7646 22.8496 61.8162 22.3836 61.7904 21.9253C61.756 21.2885 61.3522 20.8613 60.6734 20.8535C58.0271 20.8302 55.3893 20.8458 52.7429 20.838C52.5882 20.838 52.4336 20.838 52.1844 20.838C55.7158 24.302 56.0767 27.9523 53.2584 31.89C54.616 31.89 55.9306 31.89 57.3139 31.89C57.3139 33.9171 57.3139 35.8899 57.3139 37.9015C58.0786 37.9015 58.766 37.9015 59.5307 37.9015C59.5307 35.9443 59.5307 33.9637 59.5307 31.9444C61.7904 31.9444 63.9814 31.9444 66.2154 31.9444C66.2154 33.9171 66.2154 35.8821 66.2154 37.7461C66.7996 38.0257 67.3753 38.1811 67.7619 38.5228C68.1486 38.8645 68.3462 39.3849 68.7071 39.9519C70.6919 39.9519 72.8829 39.9519 75.1082 39.9519C75.1082 41.9712 75.1082 43.9284 75.1082 45.9633C72.9172 45.9633 70.7262 45.9633 68.5009 45.9633C68.5009 46.6546 68.5009 47.2759 68.5009 47.9671C70.6747 47.9671 72.8571 47.9671 75.091 47.9671C75.091 50.0098 75.091 51.9903 75.091 54.0096C72.9 54.0096 70.7348 54.0096 68.5095 54.0096C68.5095 54.6931 68.5095 55.33 68.5095 56.0367C70.6919 56.0367 72.8829 56.0367 75.0996 56.0367C75.0996 58.0639 75.0996 60.0288 75.0996 62.0559C72.9086 62.0559 70.7176 62.0559 68.5095 62.0559C68.329 63.2986 67.5815 63.9743 66.2325 64.1374C66.2325 66.1179 66.2325 68.0829 66.2325 70.0867C63.9986 70.0867 61.8162 70.0867 59.5736 70.0867C59.5736 68.1062 59.5736 66.1412 59.5736 64.1374C58.8175 64.1374 58.113 64.1374 57.3311 64.1374C57.3311 66.1179 57.3311 68.0907 57.3311 70.0945C55.0886 70.0945 52.9147 70.0945 50.6722 70.0945C50.6722 68.114 50.6722 66.1335 50.6722 64.1219C49.9075 64.1219 49.2201 64.1219 48.4554 64.1219C48.4554 66.0869 48.4554 68.0596 48.4554 70.079C46.1957 70.079 44.0047 70.079 41.7708 70.079C41.7708 68.0984 41.7708 66.1335 41.7708 64.1452C40.439 63.9743 39.6485 63.3297 39.4852 62.0948C37.3114 62.0948 35.1376 62.0948 32.9037 62.0948C32.9037 60.0832 32.9037 58.1105 32.9037 56.06C35.0775 56.06 37.2685 56.06 39.4852 56.06C39.4852 55.3688 39.4852 54.7475 39.4852 54.0562C37.3114 54.0562 35.1204 54.0562 32.8865 54.0562C32.8865 52.0136 32.8865 50.0331 32.8865 48.0137C35.0775 48.0137 37.2513 48.0137 39.4681 48.0137C39.4681 47.3303 39.4681 46.6934 39.4681 46.0099C37.2943 46.0099 35.129 46.0099 32.8951 46.0099C32.8951 43.9906 32.8951 42.0101 32.8951 39.9752C35.0689 39.9752 37.2599 39.9752 39.4595 39.9752C39.6399 38.7325 40.3874 38.0568 41.7192 37.9015C41.7192 36.9229 41.7192 35.9598 41.7192 34.9657C35.0603 34.9657 28.4186 34.9657 21.7081 34.9657C21.7081 36.2472 21.7081 37.5209 21.7081 38.7946C21.7081 39.4626 21.6995 40.1383 21.7081 40.8062C21.7253 41.5674 22.1635 41.9246 23.0055 41.979C23.6929 42.0256 24.1569 41.9246 24.5521 41.2878C25.2739 40.1383 26.8634 39.7033 28.2553 40.0917C29.6558 40.48 30.601 41.6373 30.601 42.9654C30.601 44.2935 29.673 45.4585 28.2811 45.8624C26.8978 46.2585 25.2567 45.8468 24.5779 44.6896C24.1397 43.9517 23.5898 43.975 22.8938 43.9828C21.227 43.9906 19.9382 43.0819 19.5601 41.645C19.4828 41.3654 19.4828 41.0625 19.4828 40.7752C19.4742 38.849 19.4828 36.9306 19.4828 34.9734C18.7353 34.9734 18.0479 34.9734 17.2488 34.9734C17.2488 35.1754 17.2488 35.4006 17.2488 35.6181C17.2488 39.9364 17.2488 44.2469 17.2488 48.5652C17.2488 49.7069 17.6011 50.0253 18.847 50.0253C19.6804 50.0253 20.5138 50.0098 21.3473 50.0331C21.7167 50.0408 21.9143 49.9476 22.0948 49.637C22.8595 48.3477 24.3717 47.7419 25.8324 48.0992C27.3618 48.4642 28.367 49.6292 28.3584 51.035C28.3584 52.433 27.3532 53.598 25.8238 53.963C24.3631 54.3125 22.8595 53.7067 22.0862 52.4097C21.8972 52.0913 21.6909 52.0136 21.3301 52.0214C20.4279 52.0369 19.5257 52.0291 18.615 52.0291C16.3724 52.0291 15.0149 50.802 15.0149 48.7982C15.0149 44.4177 15.0149 40.0373 15.0149 35.6647C15.075 35.4317 15.075 35.2064 15.075 34.989ZM15.075 20.7293C14.6196 20.8225 14.2416 20.9079 13.8549 20.97C10.3493 21.5603 7.96932 24.5816 8.50203 27.7659C9.01756 30.8415 11.7842 32.9152 15.3843 32.9152C25.5574 32.923 35.7391 32.923 45.9122 32.9075C46.5566 32.9075 47.2182 32.8531 47.8368 32.7055C50.8269 32.0298 52.889 29.6532 52.9147 26.896C52.9405 24.201 50.93 21.8321 47.9485 21.0788C47.4931 20.9623 47.2268 20.7914 47.0635 20.3487C46.1613 17.8634 43.7384 16.5508 40.8428 16.9236C40.4476 16.9779 40.0437 17.0168 39.6485 17.0634C38.8065 12.4733 36.6928 10.3374 32.5084 9.83257C30.9533 9.64617 29.4668 9.96461 28.0835 10.6325C25.8495 11.7121 24.638 13.4752 24.0022 15.712C21.8972 14.7023 19.8265 14.4072 17.7558 15.5644C15.6593 16.7372 14.9547 18.5391 15.075 20.7293ZM66.2154 62.0637C66.2154 54.6776 66.2154 47.338 66.2154 40.014C58.0442 40.014 49.9247 40.014 41.8137 40.014C41.8137 47.3924 41.8137 54.7164 41.8137 62.0637C49.9591 62.0637 58.0614 62.0637 66.2154 62.0637ZM52.9405 37.917C53.7052 37.917 54.3926 37.917 55.0971 37.917C55.0971 36.5811 55.0971 35.2763 55.0971 33.9715C54.3496 33.9715 53.6451 33.9715 52.9405 33.9715C52.9405 35.3074 52.9405 36.5967 52.9405 37.917ZM64.0072 33.9715C63.2425 33.9715 62.5465 33.9715 61.8592 33.9715C61.8592 35.3229 61.8592 36.6277 61.8592 37.917C62.6067 37.917 63.2854 37.917 64.0072 37.917C64.0072 36.5967 64.0072 35.2996 64.0072 33.9715ZM35.1548 41.9945C35.1548 42.6935 35.1548 43.3304 35.1548 43.9517C36.6327 43.9517 38.0675 43.9517 39.511 43.9517C39.511 43.2838 39.511 42.6469 39.511 41.9945C38.0504 41.9945 36.6155 41.9945 35.1548 41.9945ZM72.9086 43.9595C72.9086 43.2683 72.9086 42.6469 72.9086 42.0101C71.4308 42.0101 69.9873 42.0101 68.5352 42.0101C68.5352 42.6858 68.5352 43.3149 68.5352 43.9595C70.0131 43.9595 71.4394 43.9595 72.9086 43.9595ZM39.5024 52.0058C39.5024 51.3146 39.5024 50.6777 39.5024 50.0486C38.0246 50.0486 36.5983 50.0486 35.1376 50.0486C35.1376 50.7165 35.1376 51.3457 35.1376 52.0058C36.6069 52.0058 38.0332 52.0058 39.5024 52.0058ZM72.9086 52.0058C72.9086 51.3146 72.9086 50.6932 72.9086 50.0564C71.4308 50.0564 69.9873 50.0564 68.5352 50.0564C68.5352 50.7321 68.5352 51.369 68.5352 52.0058C70.0131 52.0058 71.4394 52.0058 72.9086 52.0058ZM39.5282 60.0521C39.5282 59.3609 39.5282 58.7396 39.5282 58.0949C38.0504 58.0949 36.6069 58.0949 35.1548 58.0949C35.1548 58.7629 35.1548 59.3997 35.1548 60.0521C36.6241 60.0521 38.0504 60.0521 39.5282 60.0521ZM68.5181 60.0444C70.0303 60.0444 71.4566 60.0444 72.9 60.0444C72.9 59.3764 72.9 58.7396 72.9 58.1027C71.4136 58.1027 69.9701 58.1027 68.5181 58.1027C68.5181 58.7706 68.5181 59.392 68.5181 60.0444ZM44.0563 64.1219C44.0563 65.4811 44.0563 66.7859 44.0563 68.0674C44.8124 68.0674 45.5169 68.0674 46.1957 68.0674C46.1957 66.7237 46.1957 65.4345 46.1957 64.1219C45.474 64.1219 44.7866 64.1219 44.0563 64.1219ZM52.9319 68.0751C53.6966 68.0751 54.4012 68.0751 55.0971 68.0751C55.0971 66.7393 55.0971 65.45 55.0971 64.1297C54.3582 64.1297 53.6623 64.1297 52.9319 64.1297C52.9319 65.4578 52.9319 66.747 52.9319 68.0751ZM61.842 68.0829C62.5981 68.0829 63.3026 68.0829 63.99 68.0829C63.99 66.7315 63.99 65.4267 63.99 64.1297C63.2511 64.1297 62.5637 64.1297 61.842 64.1297C61.842 65.45 61.842 66.7393 61.842 68.0829ZM48.4984 34.7171C48.4984 35.7812 48.4984 36.8452 48.4984 37.9092C49.2459 37.9092 49.9419 37.9092 50.6464 37.9092C50.6464 36.5656 50.6464 35.2608 50.6464 33.9404C49.8903 34.2123 49.1944 34.4686 48.4984 34.7171ZM46.1871 37.9403C46.1871 36.9151 46.1871 35.9443 46.1871 34.9734C45.4396 34.9734 44.735 34.9734 44.0563 34.9734C44.0563 35.9909 44.0563 36.9617 44.0563 37.9403C44.7866 37.9403 45.4568 37.9403 46.1871 37.9403ZM72.9344 22.8807C72.943 22.368 72.4189 21.8787 71.8432 21.8632C71.2761 21.8554 70.7348 22.3292 70.7176 22.8496C70.709 23.3622 71.2332 23.8515 71.8088 23.867C72.3845 23.8748 72.9258 23.3933 72.9344 22.8807ZM64.033 26.896C64.0416 26.3834 63.5088 25.8941 62.9418 25.8864C62.3747 25.8786 61.8334 26.3601 61.8248 26.8727C61.8162 27.3931 62.3489 27.8746 62.916 27.8824C63.4831 27.8902 64.0244 27.4164 64.033 26.896ZM28.4186 42.9576C28.4014 42.4372 27.8601 41.9635 27.293 41.979C26.7173 41.9945 26.1932 42.4838 26.2104 42.9964C26.2276 43.5168 26.7689 43.9906 27.336 43.975C27.9116 43.9673 28.4358 43.4702 28.4186 42.9576ZM25.0333 52.0214C25.5918 52.0524 26.1589 51.5864 26.1932 51.0661C26.2276 50.5612 25.7121 50.0486 25.1364 50.0175C24.5779 49.9865 24.0108 50.4525 23.9765 50.9728C23.9507 51.4855 24.4576 51.9903 25.0333 52.0214ZM22.8681 58.0716C22.2924 58.0716 21.7597 58.5454 21.7597 59.0658C21.7597 59.5861 22.2838 60.0677 22.8595 60.0754C23.4266 60.0754 23.9679 59.6017 23.9679 59.0813C23.9765 58.5609 23.4437 58.0716 22.8681 58.0716Z" fill="#012D3A"/>
<path d="M15.0751 20.7291C14.9548 18.5311 15.668 16.737 17.7645 15.5642C19.8352 14.4147 21.9059 14.7021 24.0109 15.7118C24.6468 13.4749 25.8583 11.7119 28.0922 10.6323C29.4755 9.96439 30.9534 9.63818 32.5172 9.83235C36.7101 10.3372 38.8152 12.473 39.6572 17.0632C40.0525 17.0166 40.4477 16.9777 40.8515 16.9234C43.7471 16.5506 46.17 17.8709 47.0722 20.3485C47.2269 20.7834 47.5018 20.9621 47.9572 21.0786C50.9387 21.8319 52.9492 24.2008 52.9235 26.8958C52.8977 29.6452 50.8356 32.0219 47.8455 32.7053C47.2269 32.8451 46.5653 32.8995 45.9209 32.9073C35.7478 32.9228 25.5661 32.9228 15.393 32.915C11.7929 32.915 9.02627 30.8335 8.51074 27.7657C7.97803 24.5813 10.3495 21.5601 13.8636 20.9698C14.2331 20.9077 14.6197 20.8223 15.0751 20.7291ZM27.2588 26.9036C27.6626 28.3404 28.0578 29.7462 28.4617 31.1675C29.2436 30.9811 29.9223 30.8258 30.6269 30.6627C29.4584 26.4531 28.3156 22.3212 27.1471 18.1971C27.1041 18.0418 26.7776 17.8631 26.58 17.8554C25.5833 17.8165 24.5866 17.8554 23.5899 17.8321C23.1861 17.8243 23.04 17.9408 22.9455 18.2981C22.3269 20.6126 21.6739 22.9193 21.0381 25.226C20.5397 27.0201 20.0414 28.8142 19.5259 30.6704C20.2648 30.8413 20.9521 30.9966 21.6997 31.1675C22.1035 29.7307 22.4987 28.3249 22.894 26.9114C24.3718 26.9036 25.7809 26.9036 27.2588 26.9036ZM37.3803 28.9074C37.3803 25.8395 37.3803 22.8571 37.3803 19.8048C38.1278 19.8048 38.8324 19.8048 39.5111 19.8048C39.5111 19.1136 39.5111 18.4922 39.5111 17.8787C37.2858 17.8787 35.1034 17.8787 32.921 17.8787C32.921 18.5466 32.921 19.1679 32.921 19.8514C33.6599 19.8514 34.3645 19.8514 35.0604 19.8514C35.0604 22.9037 35.0604 25.8784 35.0604 28.9307C34.3129 28.9307 33.6084 28.9307 32.9296 28.9307C32.9296 29.6219 32.9296 30.2433 32.9296 30.8568C35.1549 30.8568 37.3373 30.8568 39.5197 30.8568C39.5197 30.1889 39.5197 29.5676 39.5197 28.9074C38.798 28.9074 38.1106 28.9074 37.3803 28.9074Z" fill="white"/>
<path d="M66.2154 62.0639C58.0614 62.0639 49.9591 62.0639 41.8137 62.0639C41.8137 54.7088 41.8137 47.3848 41.8137 40.0142C49.9247 40.0142 58.0443 40.0142 66.2154 40.0142C66.2154 47.3304 66.2154 54.6699 66.2154 62.0639ZM44.0391 60.029C50.7324 60.029 57.3655 60.029 63.9814 60.029C63.9814 53.9865 63.9814 47.9906 63.9814 42.0102C57.3053 42.0102 50.6894 42.0102 44.0391 42.0102C44.0391 48.0294 44.0391 54.0098 44.0391 60.029Z" fill="#2661AE"/>
<path d="M52.9404 37.9173C52.9404 36.597 52.9404 35.3077 52.9404 33.9718C53.645 33.9718 54.3495 33.9718 55.0971 33.9718C55.0971 35.2766 55.0971 36.5814 55.0971 37.9173C54.3925 37.9173 53.7051 37.9173 52.9404 37.9173Z" fill="#2661AE"/>
<path d="M64.007 33.9718C64.007 35.3077 64.007 36.597 64.007 37.9173C63.2939 37.9173 62.6065 37.9173 61.859 37.9173C61.859 36.628 61.859 35.3232 61.859 33.9718C62.5464 33.9718 63.2509 33.9718 64.007 33.9718Z" fill="#2661AE"/>
<path d="M35.1547 41.9943C36.6153 41.9943 38.0416 41.9943 39.5109 41.9943C39.5109 42.6545 39.5109 43.2836 39.5109 43.9515C38.0588 43.9515 36.6325 43.9515 35.1547 43.9515C35.1547 43.3302 35.1547 42.6933 35.1547 41.9943Z" fill="#2661AE"/>
<path d="M72.9088 43.9597C71.4395 43.9597 70.0132 43.9597 68.5354 43.9597C68.5354 43.3151 68.5354 42.6782 68.5354 42.0103C69.9875 42.0103 71.431 42.0103 72.9088 42.0103C72.9088 42.6471 72.9088 43.2685 72.9088 43.9597Z" fill="#2661AE"/>
<path d="M39.5026 52.006C38.0334 52.006 36.6071 52.006 35.1378 52.006C35.1378 51.3458 35.1378 50.7089 35.1378 50.0488C36.5985 50.0488 38.0248 50.0488 39.5026 50.0488C39.5026 50.6779 39.5026 51.3147 39.5026 52.006Z" fill="#2661AE"/>
<path d="M72.9088 52.0058C71.4395 52.0058 70.0132 52.0058 68.5354 52.0058C68.5354 51.369 68.5354 50.7321 68.5354 50.0564C69.9789 50.0564 71.4224 50.0564 72.9088 50.0564C72.9088 50.6933 72.9088 51.3146 72.9088 52.0058Z" fill="#2661AE"/>
<path d="M39.5281 60.0521C38.0502 60.0521 36.6239 60.0521 35.1547 60.0521C35.1547 59.3997 35.1547 58.7706 35.1547 58.0948C36.6067 58.0948 38.0502 58.0948 39.5281 58.0948C39.5281 58.7473 39.5281 59.3686 39.5281 60.0521Z" fill="#2661AE"/>
<path d="M68.5181 60.0442C68.5181 59.3918 68.5181 58.7704 68.5181 58.1025C69.9701 58.1025 71.4136 58.1025 72.9001 58.1025C72.9001 58.7393 72.9001 59.3762 72.9001 60.0442C71.4566 60.0442 70.0217 60.0442 68.5181 60.0442Z" fill="#2661AE"/>
<path d="M44.0564 64.1219C44.7867 64.1219 45.4741 64.1219 46.1958 64.1219C46.1958 65.4423 46.1958 66.7316 46.1958 68.0674C45.5085 68.0674 44.8039 68.0674 44.0564 68.0674C44.0564 66.7859 44.0564 65.4811 44.0564 64.1219Z" fill="#2661AE"/>
<path d="M52.932 68.0751C52.932 66.747 52.932 65.4577 52.932 64.1296C53.6623 64.1296 54.3669 64.1296 55.0972 64.1296C55.0972 65.4422 55.0972 66.7392 55.0972 68.0751C54.4013 68.0751 53.7053 68.0751 52.932 68.0751Z" fill="#2661AE"/>
<path d="M61.8419 68.0828C61.8419 66.747 61.8419 65.4577 61.8419 64.1296C62.5551 64.1296 63.2424 64.1296 63.99 64.1296C63.99 65.4266 63.99 66.7314 63.99 68.0828C63.3026 68.0828 62.598 68.0828 61.8419 68.0828Z" fill="#2661AE"/>
<path d="M46.1872 37.9405C45.4483 37.9405 44.7781 37.9405 44.0564 37.9405C44.0564 36.9619 44.0564 35.9911 44.0564 34.9736C44.7352 34.9736 45.4397 34.9736 46.1872 34.9736C46.1872 35.9445 46.1872 36.9153 46.1872 37.9405Z" fill="#2661AE"/>
<path d="M72.9352 22.8814C72.9266 23.4019 72.3851 23.8759 71.8092 23.8681C71.2334 23.8603 70.709 23.3709 70.7176 22.8503C70.7262 22.3297 71.2677 21.8558 71.8436 21.8636C72.4195 21.8713 72.9438 22.3608 72.9352 22.8814Z" fill="#04A2D8"/>
<path d="M64.0336 26.8964C64.025 27.4169 63.4835 27.8909 62.9162 27.8831C62.3403 27.8753 61.816 27.3859 61.8246 26.8731C61.8332 26.3525 62.3747 25.8786 62.942 25.8863C63.5092 25.8941 64.0422 26.3836 64.0336 26.8964Z" fill="#04A2D8"/>
<path d="M28.4194 42.9578C28.4366 43.4706 27.9122 43.9678 27.3364 43.9756C26.7691 43.9911 26.219 43.5172 26.2104 42.9966C26.1932 42.4838 26.7175 41.9866 27.2934 41.9788C27.8607 41.9633 28.4022 42.4372 28.4194 42.9578Z" fill="#04A2D8"/>
<path d="M25.0337 52.0223C24.4578 51.9912 23.9507 51.4862 23.9851 50.9734C24.0194 50.4529 24.5781 49.9944 25.1454 50.0178C25.7213 50.0488 26.2284 50.5539 26.2026 51.0667C26.1597 51.595 25.601 52.0534 25.0337 52.0223Z" fill="#04A2D8"/>
<path d="M22.8684 58.0714C23.4443 58.0714 23.9686 58.5609 23.9686 59.0737C23.9686 59.5942 23.4271 60.0759 22.8598 60.0682C22.284 60.0682 21.7596 59.5787 21.7596 59.0581C21.7596 58.5453 22.3011 58.0636 22.8684 58.0714Z" fill="#04A2D8"/>
<path d="M27.2587 26.9038C25.7809 26.9038 24.3717 26.9038 22.9111 26.9038C22.5158 28.3173 22.1206 29.7231 21.7168 31.16C20.9693 30.9891 20.2819 30.826 19.543 30.6629C20.0585 28.8144 20.5568 27.0203 21.0552 25.2184C21.691 22.9117 22.344 20.605 22.9626 18.2905C23.0571 17.9333 23.2032 17.8168 23.607 17.8245C24.6037 17.8478 25.6004 17.8168 26.5971 17.8478C26.7947 17.8556 27.1212 18.0342 27.1642 18.1896C28.3327 22.3137 29.4755 26.4456 30.644 30.6551C29.9394 30.8182 29.2521 30.9813 28.4788 31.16C28.0664 29.7464 27.6711 28.3406 27.2587 26.9038ZM26.7088 24.8612C26.262 23.269 25.8496 21.7545 25.4114 20.2477C25.3684 20.1002 25.1966 19.9837 25.0849 19.8594C24.9732 19.9914 24.8014 20.1079 24.767 20.2555C24.3546 21.6846 23.9593 23.1292 23.5641 24.566C23.5383 24.6592 23.5641 24.7602 23.5641 24.8767C24.5951 24.8612 25.5832 24.8612 26.7088 24.8612Z" fill="#012D3A"/>
<path d="M37.3802 28.9076C38.1105 28.9076 38.7979 28.9076 39.5197 28.9076C39.5197 29.5756 39.5197 30.1891 39.5197 30.8571C37.3373 30.8571 35.1549 30.8571 32.9295 30.8571C32.9295 30.2357 32.9295 29.6222 32.9295 28.9309C33.6083 28.9309 34.3128 28.9309 35.0603 28.9309C35.0603 25.8786 35.0603 22.904 35.0603 19.8517C34.3644 19.8517 33.6598 19.8517 32.9209 19.8517C32.9209 19.1604 32.9209 18.5468 32.9209 17.8789C35.1033 17.8789 37.2857 17.8789 39.5111 17.8789C39.5111 18.5002 39.5111 19.1138 39.5111 19.8051C38.8323 19.8051 38.1277 19.8051 37.3802 19.8051C37.3802 22.8574 37.3802 25.8398 37.3802 28.9076Z" fill="#012D3A"/>
<path d="M44.0392 60.029C44.0392 54.0098 44.0392 48.0295 44.0392 42.0103C50.6895 42.0103 57.3054 42.0103 63.9815 42.0103C63.9815 47.9906 63.9815 53.9865 63.9815 60.029C57.3656 60.029 50.7325 60.029 44.0392 60.029ZM46.2645 44.0141C46.2645 48.7285 46.2645 53.373 46.2645 58.033C51.4542 58.033 56.6095 58.033 61.7647 58.033C61.7647 53.3341 61.7647 48.6819 61.7647 44.0141C56.5751 44.0141 51.437 44.0141 46.2645 44.0141Z" fill="#012D3A"/>
<path d="M26.7087 24.8611C25.5917 24.8611 24.595 24.8611 23.5639 24.8611C23.5639 24.7446 23.5382 24.6436 23.5639 24.5504C23.9592 23.1136 24.3544 21.6768 24.7668 20.2399C24.8098 20.0923 24.9816 19.9758 25.0848 19.8438C25.1965 19.9758 25.3683 20.0923 25.4113 20.2321C25.8495 21.7544 26.2619 23.2689 26.7087 24.8611Z" fill="white"/>
<path d="M46.2646 44.014C51.4371 44.014 56.5752 44.014 61.7649 44.014C61.7649 48.674 61.7649 53.334 61.7649 58.0329C56.6096 58.0329 51.4629 58.0329 46.2646 58.0329C46.2646 53.3729 46.2646 48.7284 46.2646 44.014Z" fill="white"/>
</svg>
