<svg width="81" height="66" viewBox="0 0 81 66" fill="none" xmlns="http://www.w3.org/2000/svg">
<path d="M40.5 66C62.8675 66 81 51.2254 81 33C81 14.7746 62.8675 0 40.5 0C18.1325 0 0 14.7746 0 33C0 51.2254 18.1325 66 40.5 66Z" fill="#E5E5E5"/>
<path d="M22.209 35.217C22.209 27.1263 22.209 19.0355 22.209 10.9448C22.209 8.89427 23.6132 7.75433 26.1409 7.75433C36.0217 7.75433 45.911 7.76128 55.7919 7.76128C58.1663 7.76128 59.5876 8.93597 59.5876 10.8892C59.5876 27.1124 59.5876 43.3286 59.5876 59.5518C59.5876 61.505 58.1578 62.6797 55.7919 62.6797C45.8855 62.6797 35.9792 62.6866 26.0728 62.6866C23.6473 62.6866 22.209 61.5259 22.209 59.5518C22.209 51.4333 22.209 43.3286 22.209 35.217ZM25.7154 20.808C24.8643 20.94 24.6005 21.1903 24.6005 21.941C24.6005 34.1327 24.592 46.3314 24.6005 58.5231C24.6005 59.8716 25.6558 60.7196 27.3239 60.7196C36.3706 60.7265 45.4174 60.7265 54.4642 60.7196C56.1578 60.7196 57.2046 59.8646 57.2046 58.4814C57.2046 42.9602 57.2131 27.446 57.2046 11.9248C57.2046 10.5416 56.1493 9.70056 54.4472 9.69361C53.1706 9.68666 51.877 9.78397 50.6089 9.67276C48.6089 9.49204 47.2387 10.0759 46.4472 11.5842C46.1919 12.0777 45.7153 12.2446 45.0515 12.2376C42.7536 12.2168 40.4472 12.2446 38.1408 12.2237C35.3323 12.2029 36.0898 12.5156 34.643 10.6737C34.1153 9.99945 33.3919 9.68666 32.4387 9.68666C30.7451 9.68666 29.043 9.67971 27.3494 9.68666C25.6388 9.69361 24.6005 10.5277 24.592 11.9109C24.5834 13.732 24.5834 15.5601 24.592 17.3812C24.592 18.1111 24.7962 18.3265 25.6898 18.5559C25.7068 19.3205 25.7154 20.0642 25.7154 20.808Z" fill="white"/>
<path d="M16.626 50.7037C16.626 51.4405 16.626 52.1703 16.6346 52.9071C15.8941 53.0531 15.6048 53.4284 15.6218 54.0609C15.6643 55.4997 15.6388 56.9455 15.6303 58.3913C15.6303 59.0099 15.4516 59.1003 14.7622 58.85C12.4814 58.0298 10.2941 57.0915 8.60905 55.5275C7.71543 54.7004 7.25586 53.762 7.25586 52.636C7.28139 45.8242 7.26437 39.0055 7.26437 32.1937C7.26437 32.0129 7.26437 31.8322 7.26437 31.5333C9.4516 33.3614 12.0473 34.4596 14.7707 35.3841C15.4516 35.6204 15.6303 36.0653 15.6303 36.6213C15.6218 40.91 15.6388 45.1986 15.6133 49.4873C15.6133 50.1337 15.8516 50.5369 16.626 50.7037Z" fill="#04A2D8"/>
<path d="M65.1703 40.3537C65.8937 40.2216 66.2086 39.8741 66.1831 39.2555C66.149 38.3658 66.1916 37.4691 66.166 36.5794C66.149 35.9538 66.4639 35.5576 67.1873 35.3143C69.383 34.5845 71.4767 33.6948 73.3149 32.4576C73.7064 32.1934 74.0554 31.9015 74.5235 31.554C74.5235 31.8181 74.5235 31.9988 74.5235 32.1795C74.5235 38.9913 74.5149 45.8101 74.532 52.6219C74.532 53.7479 74.0724 54.6863 73.1788 55.5134C71.4511 57.1191 69.1873 58.0644 66.8384 58.9054C66.3873 59.0653 66.1831 58.9124 66.166 58.537C66.1575 58.405 66.166 58.2729 66.166 58.1408C66.166 53.317 66.166 48.5001 66.166 43.6762C66.166 42.9672 65.9788 42.7726 65.1703 42.5919C65.1703 41.8551 65.1703 41.1044 65.1703 40.3537Z" fill="#04A2D8"/>
<path d="M65.1703 40.3536C65.1703 41.1043 65.1703 41.848 65.1789 42.5987C63.8087 42.7238 64.1491 43.6135 64.0469 44.3295C63.3321 44.1696 62.6512 44.0097 61.9618 43.8568C61.7831 43.8151 61.681 43.7386 61.6895 43.5718C61.698 43.4398 61.6895 43.3077 61.6895 43.1756C61.6895 35.7382 61.698 28.2939 61.6725 20.8565C61.6725 20.2935 61.8512 20.2518 62.4299 20.4047C65.5703 21.218 68.6427 22.1424 71.3405 23.7342C72.1746 24.2277 72.932 24.7838 73.5448 25.458C74.8384 26.8829 74.8469 28.3704 73.5448 29.8022C72.2512 31.2272 70.4469 32.1238 68.5661 32.9232C67.8682 33.2151 67.1448 33.4723 66.4214 33.7225C64.8044 34.2855 64.081 35.1474 64.0725 36.5723C64.064 37.4481 64.0725 38.317 64.0725 39.1928C64.081 39.9365 64.2938 40.159 65.1703 40.3536Z" fill="#04A2D8"/>
<path d="M20.107 20.259C20.107 20.4954 20.107 20.683 20.107 20.8707C20.107 28.3081 20.0985 35.7524 20.124 43.1898C20.124 43.6902 19.9368 43.9127 19.3581 43.9752C19.1538 43.9961 18.9581 44.0586 18.7538 44.1073C17.7155 44.3575 17.7155 44.3575 17.7155 43.5026C17.7155 41.2436 17.7155 38.9845 17.7155 36.7255C17.7155 35.1129 17.0517 34.2997 15.2134 33.6741C13.29 33.0138 11.4347 32.2422 9.81769 31.144C9.44322 30.8868 9.08578 30.6158 8.75386 30.3238C6.76238 28.5583 6.76238 26.6816 8.7794 24.93C10.4475 23.4773 12.5581 22.5667 14.7453 21.7743C16.4815 21.1626 18.2432 20.6691 20.107 20.259Z" fill="#04A2D8"/>
<path d="M54.3875 11.4177C52.7365 11.4316 51.0854 11.4177 49.4344 11.4177C49.2982 11.4177 49.1535 11.3968 49.0514 11.5011C48.7365 11.8973 48.4046 12.2865 48.1067 12.6897C47.4684 13.5377 46.5493 13.9686 45.3408 13.9756C42.3961 13.9825 39.4429 13.9825 36.4982 13.9756C35.2387 13.9756 34.2089 13.5446 33.6727 12.6063C33.1195 11.6331 32.311 11.2856 31.0089 11.4038C29.86 11.508 28.6855 11.4455 27.5281 11.4177C26.9238 11.4038 26.7025 11.5775 26.711 12.071C26.7366 13.8505 26.7025 15.6368 26.7281 17.4162C26.7366 18.0418 26.4557 18.431 25.7068 18.5701C25.7153 19.3138 25.7153 20.0645 25.7238 20.8082C26.4132 20.8847 26.7281 21.2253 26.7195 21.7813C26.7195 21.9551 26.7195 22.1219 26.7195 22.2957C26.7195 34.2511 26.7195 46.2065 26.7281 58.1689C26.7281 58.426 26.5493 58.7458 26.9664 58.9265C27.2132 59.0933 27.5025 59.003 27.7664 59.003C36.4897 59.0099 45.2046 59.003 53.928 59.003C55.0939 59.003 55.0939 59.003 55.0939 58.0716C55.0939 42.8215 55.0939 27.5714 55.0939 12.3213C55.0939 12.2101 55.0854 12.0919 55.0939 11.9807C55.128 11.5775 54.8982 11.4107 54.3875 11.4177ZM48.8812 24.3531C48.9152 23.8735 49.3833 23.5677 49.9535 23.5816C50.5152 23.5955 50.9237 23.9222 50.9493 24.4087C50.9663 24.7493 50.9493 25.0899 50.9493 25.4305C50.9493 25.7502 50.9663 26.07 50.9493 26.3967C50.9237 26.8763 50.4982 27.2238 49.9535 27.2377C49.4003 27.2516 48.9152 26.9319 48.8812 26.4523C48.8386 25.7572 48.8386 25.0552 48.8812 24.3531ZM44.3876 22.817C44.4046 22.3304 44.711 22.0385 45.3067 21.9829C45.8854 21.9273 46.4131 22.2123 46.4471 22.6919C46.5067 23.5051 46.5067 24.3253 46.4471 25.1386C46.4131 25.6182 45.8854 25.924 45.3237 25.8684C44.7365 25.8128 44.4131 25.5278 44.3876 25.0413C44.3706 24.659 44.3876 24.2836 44.3876 23.9013C44.3791 23.5399 44.3706 23.1784 44.3876 22.817ZM39.8599 21.0098C39.877 20.4537 40.2855 20.134 40.8812 20.1201C41.5025 20.1131 41.911 20.4398 41.9535 21.0237C41.9876 21.5172 41.9621 22.0038 41.9621 22.4973C41.9621 22.4973 41.9621 22.4973 41.9535 22.4973C41.9535 22.9491 41.9791 23.4078 41.945 23.8596C41.9025 24.4018 41.4769 24.7285 40.8897 24.7215C40.311 24.7146 39.877 24.3879 39.8599 23.8388C39.8259 22.9004 39.8259 21.9551 39.8599 21.0098ZM35.3493 22.7197C35.3834 22.2401 35.8855 21.9412 36.4642 21.9829C37.0599 22.0246 37.3919 22.3026 37.4089 22.7892C37.4259 23.1854 37.4089 23.5885 37.4089 23.9847C37.4089 24.3253 37.4259 24.6659 37.4089 25.0065C37.3833 25.507 36.9919 25.8476 36.4387 25.8684C35.8685 25.8893 35.3748 25.5904 35.3408 25.1038C35.2982 24.3114 35.2982 23.5121 35.3493 22.7197ZM30.8472 24.4296C30.8727 23.9291 31.2557 23.6024 31.8174 23.5816C32.3876 23.5607 32.8812 23.8527 32.9153 24.3323C32.9663 25.0274 32.9663 25.7294 32.9238 26.4245C32.8897 26.9319 32.3706 27.2655 31.8004 27.2308C31.2557 27.196 30.8642 26.8485 30.8472 26.355C30.8302 26.0352 30.8472 25.7155 30.8472 25.3888C30.8472 25.076 30.8387 24.7493 30.8472 24.4296ZM31.6897 30.1362C34.5408 29.0588 37.3833 27.9676 40.2259 26.8693C40.6855 26.6956 41.0769 26.6747 41.545 26.8554C44.4216 27.9676 47.3152 29.0727 50.2003 30.171C50.762 30.3795 50.9748 30.7131 50.9663 31.2066C50.9493 32.6872 50.9578 34.1677 50.9578 35.6482C50.9578 37.1079 50.9407 38.5745 50.9663 40.0342C50.9748 40.5624 50.7195 40.8822 50.1408 41.0977C47.2727 42.182 44.4046 43.2802 41.545 44.3854C41.0855 44.5661 40.694 44.5453 40.2344 44.3715C37.3919 43.2733 34.5493 42.1889 31.6983 41.1116C31.094 40.8891 30.8387 40.5624 30.8387 40.0133C30.8557 37.094 30.8642 34.1677 30.8387 31.2483C30.8302 30.6853 31.094 30.3656 31.6897 30.1362ZM49.6556 53.7968C50.2003 54.3181 50.2173 54.7769 49.7067 55.1383C49.2046 55.4998 48.6514 55.4372 48.0812 54.9159C47.1535 54.0748 46.2429 53.2129 45.1961 52.2468C45.1961 53.0392 45.2131 53.7064 45.1876 54.3737C45.1706 54.9784 44.6429 55.4302 44.0386 55.3538C43.4855 55.2843 43.094 55.0201 43.094 54.5197C43.0855 52.0521 43.0855 49.5916 43.094 47.124C43.094 46.6583 43.4259 46.3177 43.9535 46.2969C45.0344 46.2482 46.1408 46.1648 47.2131 46.3386C48.8727 46.6027 49.9365 47.6036 50.0727 48.9104C50.1918 50.0225 49.2727 51.1277 47.8088 51.6281C47.7067 51.6629 47.6131 51.7116 47.4769 51.7672C48.2259 52.4553 48.9493 53.1226 49.6556 53.7968ZM40.9238 54.4363C40.9323 54.8881 40.694 55.1522 40.2259 55.2982C39.7323 55.4511 39.3663 55.2982 39.0684 54.9923C38.9663 54.895 38.8982 54.7699 38.8387 54.6448C38.277 53.5535 38.277 53.5535 36.8727 53.5535C36.6599 53.5535 36.4472 53.5744 36.2429 53.5535C34.9834 53.4006 34.0217 53.5605 33.7323 54.7977C33.6131 55.3121 32.9323 55.4719 32.3876 55.2843C31.8344 55.0966 31.5876 54.6587 31.8259 54.1652C32.9919 51.7255 34.1663 49.2857 35.3493 46.8529C35.528 46.4915 35.8685 46.2621 36.3706 46.276C36.8302 46.2899 37.1536 46.4845 37.3238 46.839C38.5067 49.2718 39.6897 51.7116 40.8727 54.1443C40.9152 54.2486 40.9152 54.3668 40.9238 54.4363Z" fill="white"/>
<path d="M32.9407 32.3741C35.0173 33.1665 36.9918 33.952 39.0003 34.6679C39.6641 34.9042 39.8598 35.1892 39.8428 35.7661C39.8003 37.907 39.8258 40.0548 39.8258 42.1887C39.596 42.293 39.4513 42.1609 39.3066 42.1053C37.3322 41.3546 35.3662 40.597 33.3918 39.8532C33.0939 39.742 32.9237 39.6238 32.9322 39.3111C32.9492 37.0381 32.9407 34.7583 32.9407 32.3741Z" fill="#2661AE"/>
<path d="M48.8558 32.4507C48.8558 34.7862 48.8558 37.0938 48.8558 39.4085C48.8558 39.6031 48.7707 39.7073 48.5409 39.7977C46.3877 40.6179 44.2346 41.445 41.9792 42.3139C41.9792 41.7022 41.9792 41.1601 41.9792 40.6179C41.9792 38.908 41.9792 37.205 41.9792 35.4951C41.9792 35.2171 41.9878 35.0086 42.3792 34.8626C44.4388 34.098 46.4814 33.2987 48.5409 32.5132C48.6175 32.4715 48.7111 32.4715 48.8558 32.4507Z" fill="#2661AE"/>
<path d="M34.4728 31.0538C34.7111 30.8105 35.043 30.7549 35.3238 30.6507C37.0345 29.9903 38.7536 29.3369 40.4728 28.6836C40.677 28.6071 40.8472 28.4889 41.1111 28.5863C43.1706 29.3856 45.2472 30.171 47.4515 31.0121C46.5408 31.3596 45.7664 31.6655 44.9834 31.9644C44.0387 32.3258 43.0685 32.6386 42.1664 33.0626C41.2983 33.4727 40.5749 33.4657 39.6813 33.0765C37.9877 32.3397 36.226 31.728 34.4728 31.0538Z" fill="#2661AE"/>
<path d="M45.2045 48.9936C45.2045 47.9093 45.2045 47.9093 46.5491 47.9858C47.3236 48.0275 47.9534 48.4793 47.9789 49.0145C48.013 49.5358 47.4768 49.9876 46.7023 50.0988C45.2981 50.2934 45.2045 50.2239 45.2045 48.9936Z" fill="white"/>
<path d="M35.2046 51.8227C35.5876 51.0303 35.9365 50.3074 36.345 49.4733C36.745 50.3144 37.1025 51.0512 37.4684 51.8227C36.6854 51.8227 36.0046 51.8227 35.2046 51.8227Z" fill="white"/>
<path d="M76.6683 28.5791C76.7109 25.9934 75.4173 24.1445 73.0598 22.6362C70.396 20.9262 67.3152 19.9045 64.1407 19.0495C63.5024 18.8758 62.8641 18.7159 62.2088 18.5908C61.7918 18.5143 61.6811 18.3544 61.6811 18.0139C61.6982 15.5811 61.6982 13.1552 61.6897 10.7224C61.6812 8.00468 59.2897 6.0376 55.9961 6.0376C45.928 6.0376 35.8514 6.0376 25.7834 6.0376C22.5238 6.0376 20.1153 8.01163 20.1068 10.6738C20.0983 13.0649 20.0898 15.4629 20.1238 17.854C20.1323 18.3058 19.9962 18.4935 19.4345 18.6186C16.26 19.3415 13.1792 20.259 10.3622 21.6978C8.59195 22.6014 6.99196 23.6579 5.97069 25.1941C5.6643 25.6667 5.44303 26.1741 5.1792 26.6676C5.1792 35.7454 5.1792 44.8232 5.1792 53.9079C5.73239 55.2911 6.626 56.5005 7.97068 57.4737C9.86855 58.8499 12.0643 59.823 14.3962 60.5876C15.9877 61.1089 17.6898 60.1358 17.7238 58.7248C17.7579 57.1122 17.7324 55.4996 17.7324 53.887V49.5497C17.7324 48.5627 17.7579 47.5757 17.7238 46.5887C17.7068 46.2481 17.8685 46.123 18.226 46.0465C18.8472 45.9075 19.46 45.7476 20.1238 45.5878C20.1238 46.5887 20.1238 47.5548 20.1238 48.521C20.1238 52.2188 20.1238 55.9167 20.1238 59.6145C20.1238 61.9569 21.6217 63.5904 24.3791 64.2716C24.4728 64.2924 24.5579 64.3063 24.5834 64.3897C35.4174 64.3897 46.2599 64.3897 57.0939 64.3897C57.2386 64.1881 57.5109 64.2716 57.7152 64.2229C60.0471 63.646 61.6897 61.8944 61.6897 59.8925C61.6982 55.3537 61.6897 50.8148 61.6897 46.2759C61.6897 46.0674 61.6897 45.8588 61.6897 45.5878C62.4046 45.7685 63.0769 45.9492 63.7577 46.0952C64.2003 46.1925 64.0641 46.4636 64.0726 46.686C64.0811 50.634 64.0726 54.5891 64.0811 58.5371C64.0811 59.691 64.8471 60.4695 66.1577 60.7058C66.5833 60.7822 67.0088 60.7405 67.3918 60.6085C69.8428 59.7674 72.1832 58.7735 74.1237 57.2512C75.8088 55.9306 76.6768 54.3666 76.6598 52.3996C76.5917 44.4548 76.5492 36.51 76.6683 28.5791ZM15.6132 54.0539C15.6558 55.4927 15.6302 56.9384 15.6217 58.3842C15.6217 59.0028 15.443 59.0932 14.7536 58.843C12.4728 58.0228 10.2856 57.0844 8.60047 55.5205C7.70685 54.6933 7.24728 53.755 7.24728 52.6289C7.27281 45.8171 7.25579 38.9984 7.25579 32.1866C7.25579 32.0059 7.25579 31.8251 7.25579 31.5262C9.44302 33.3543 12.0388 34.4525 14.7621 35.377C15.443 35.6133 15.6217 36.0582 15.6217 36.6142C15.6132 40.9029 15.6302 45.1916 15.6047 49.4802L15.6132 54.0539ZM19.3664 43.9752C19.1621 43.996 18.9664 44.0586 18.7621 44.1072C17.7238 44.3575 17.7238 44.3575 17.7238 43.5025C17.7238 41.2435 17.7238 38.9845 17.7238 36.7255C17.7238 35.1129 17.06 34.2996 15.2217 33.6741C13.2983 33.0137 11.443 32.2422 9.82599 31.144C9.45153 30.8868 9.09408 30.6157 8.76217 30.3238C6.77068 28.5582 6.77068 26.6815 8.7877 24.9299C10.4558 23.4772 12.5664 22.5666 14.7536 21.7742C16.4643 21.1626 18.226 20.6691 20.0983 20.259C20.0983 20.4953 20.0983 20.683 20.0983 20.8706C20.0983 28.308 20.0898 35.7523 20.1153 43.1897C20.1323 43.6902 19.9366 43.9126 19.3664 43.9752ZM55.7918 62.6729C45.8855 62.6729 35.9791 62.6798 26.0728 62.6798C23.6472 62.6798 22.2089 61.519 22.2089 59.545C22.2089 51.4334 22.2089 43.3218 22.2089 35.2171C22.2089 27.1264 22.2089 19.0356 22.2089 10.9449C22.2089 8.89438 23.6132 7.75445 26.1408 7.75445C36.0217 7.75445 45.911 7.7614 55.7918 7.7614C58.1663 7.7614 59.5875 8.93609 59.5875 10.8893C59.5875 27.1125 59.5875 43.3287 59.5875 59.5519C59.5875 61.4912 58.1578 62.6729 55.7918 62.6729ZM61.962 43.8639C61.7833 43.8222 61.6812 43.7458 61.6897 43.579C61.6982 43.4469 61.6897 43.3148 61.6897 43.1828C61.6897 35.7454 61.6982 28.3011 61.6726 20.8637C61.6726 20.3007 61.8514 20.259 62.4301 20.4119C65.5705 21.2251 68.6428 22.1496 71.3407 23.7413C72.1747 24.2348 72.9322 24.7909 73.5449 25.4651C74.8386 26.8901 74.8471 28.3775 73.5449 29.8094C72.2513 31.2343 70.4471 32.131 68.5662 32.9303C67.8684 33.2222 67.145 33.4794 66.4216 33.7297C64.8045 34.2927 64.0811 35.1546 64.0726 36.5795C64.0641 37.4553 64.0726 38.3241 64.0726 39.2L64.0386 44.3366C63.3322 44.1698 62.6514 44.0169 61.962 43.8639ZM73.1875 55.5205C71.4598 57.1261 69.196 58.0714 66.8471 58.9125C66.396 59.0723 66.1918 58.9194 66.1748 58.5441C66.1662 58.412 66.1748 58.2799 66.1748 58.1479C66.1748 53.324 66.1748 48.5071 66.1748 43.6832L66.1833 39.2556C66.1492 38.3659 66.1918 37.4692 66.1662 36.5795C66.1492 35.9539 66.4641 35.5577 67.1875 35.3144C69.3833 34.5846 71.4769 33.6949 73.3152 32.4577C73.7066 32.1935 74.0556 31.9016 74.5237 31.5541C74.5237 31.8182 74.5237 31.9989 74.5237 32.1796C74.5237 38.9914 74.5152 45.8102 74.5322 52.622C74.5407 53.755 74.0811 54.6933 73.1875 55.5205Z" fill="#012D3A"/>
<path d="M54.4556 9.70082C53.179 9.69387 51.8854 9.79118 50.6173 9.67997C48.6173 9.49925 47.2471 10.0831 46.4556 11.5914C46.2003 12.085 45.7237 12.2518 45.0599 12.2448C42.762 12.224 40.4556 12.2518 38.1493 12.2309C35.3408 12.2101 36.0982 12.5229 34.6514 10.6809C34.1238 10.0067 33.4004 9.69387 32.4472 9.69387C30.7536 9.69387 29.0514 9.68692 27.3578 9.69387C25.6472 9.70082 24.6089 10.5349 24.6004 11.9181C24.5919 13.7392 24.5919 15.5673 24.6004 17.3884V21.9343C24.6004 34.126 24.5919 46.3247 24.6004 58.5164C24.6004 59.8649 25.6557 60.7129 27.3238 60.7129C36.3706 60.7198 45.4173 60.7198 54.4641 60.7129C56.1577 60.7129 57.2045 59.8579 57.2045 58.4747C57.2045 42.9535 57.213 27.4393 57.2045 11.9181C57.213 10.5488 56.1577 9.70777 54.4556 9.70082ZM55.0939 11.9876C55.0854 12.0989 55.0939 12.217 55.0939 12.3282C55.0939 27.5783 55.0939 42.8284 55.0939 58.0785C55.0939 59.0099 55.0939 59.0099 53.9279 59.0099C45.2046 59.0099 36.4897 59.0099 27.7663 59.0099C27.5025 59.0099 27.2046 59.0933 26.9663 58.9335C26.5493 58.7527 26.728 58.433 26.728 58.1758C26.7195 46.2204 26.7195 34.265 26.7195 22.3027C26.7195 22.1289 26.7195 21.9621 26.7195 21.7883L26.728 17.4232C26.7025 15.6438 26.7365 13.8574 26.711 12.078C26.7025 11.5775 26.9238 11.4107 27.528 11.4246C28.6855 11.4524 29.8599 11.515 31.0089 11.4107C32.311 11.2995 33.1195 11.6401 33.6727 12.6132C34.2089 13.5516 35.2386 13.9756 36.4982 13.9825C39.4429 13.9895 42.3961 13.9895 45.3407 13.9825C46.5492 13.9756 47.4684 13.5446 48.1067 12.6966C48.4046 12.2935 48.7365 11.9042 49.0514 11.508C49.1535 11.4038 49.2982 11.4246 49.4343 11.4246C51.0854 11.4246 52.7365 11.4316 54.3875 11.4246C54.8982 11.4107 55.1279 11.5775 55.0939 11.9876Z" fill="#012D3A"/>
<path d="M50.9578 35.6482C50.9578 34.1676 50.9493 32.6871 50.9663 31.2066C50.9748 30.7131 50.762 30.3864 50.2003 30.1709C47.3067 29.0727 44.4216 27.9675 41.545 26.8554C41.0855 26.6746 40.6855 26.6955 40.2259 26.8693C37.3834 27.9675 34.5408 29.0588 31.6898 30.1362C31.094 30.3655 30.8302 30.6853 30.8387 31.2344C30.8642 34.1537 30.8642 37.08 30.8387 39.9994C30.8387 40.5485 31.094 40.8752 31.6983 41.0976C34.5493 42.175 37.4004 43.2593 40.2344 44.3575C40.694 44.5382 41.0855 44.5522 41.545 44.3714C44.4046 43.2662 47.2727 42.175 50.1408 41.0837C50.711 40.8682 50.9748 40.5485 50.9663 40.0202C50.9408 38.5675 50.9578 37.1078 50.9578 35.6482ZM39.8344 42.1889C39.6046 42.2931 39.4599 42.1611 39.3153 42.1055C37.3408 41.3548 35.3749 40.5971 33.4004 39.8534C33.1025 39.7422 32.9323 39.624 32.9408 39.3112C32.9578 37.0314 32.9493 34.7584 32.9493 32.3674C35.0259 33.1598 37.0004 33.9452 39.0089 34.6611C39.6727 34.8975 39.8685 35.1824 39.8514 35.7594C39.8089 37.9072 39.8344 40.055 39.8344 42.1889ZM39.6812 33.0764C37.9961 32.3465 36.2259 31.7279 34.4727 31.0606C34.711 30.8173 35.0429 30.7617 35.3238 30.6575C37.0344 29.9971 38.7536 29.3438 40.4727 28.6904C40.677 28.6139 40.8472 28.4958 41.111 28.5931C43.1706 29.3924 45.2472 30.1779 47.4514 31.0189C46.5408 31.3664 45.7663 31.6723 44.9833 31.9712C44.0387 32.3326 43.0684 32.6454 42.1663 33.0694C41.2982 33.4725 40.5748 33.4656 39.6812 33.0764ZM48.5408 39.7908C46.3876 40.611 44.2344 41.4382 41.9791 42.307C41.9791 41.6954 41.9791 41.1532 41.9791 40.611C41.9791 38.9011 41.9791 37.1982 41.9791 35.4883C41.9791 35.2102 41.9876 35.0017 42.3791 34.8558C44.4387 34.0912 46.4812 33.2918 48.5408 32.5064C48.6174 32.4786 48.7195 32.4716 48.8557 32.4508C48.8557 34.7863 48.8557 37.0939 48.8557 39.4085C48.8557 39.6032 48.7706 39.7074 48.5408 39.7908Z" fill="#012D3A"/>
<path d="M50.081 48.9101C49.9448 47.6034 48.881 46.6094 47.2214 46.3383C46.1491 46.1645 45.0427 46.2479 43.9619 46.2966C43.4342 46.3175 43.1023 46.658 43.1023 47.1237C43.1023 49.5913 43.1023 52.0519 43.1023 54.5194C43.1023 55.0199 43.4853 55.284 44.047 55.3535C44.6512 55.43 45.1704 54.9782 45.1959 54.3735C45.2214 53.7062 45.2044 53.0389 45.2044 52.2465C46.2512 53.2196 47.1619 54.0746 48.0895 54.9156C48.6597 55.43 49.2129 55.4995 49.715 55.138C50.2257 54.7766 50.2172 54.3109 49.664 53.7965C48.9576 53.1223 48.2342 52.462 47.4938 51.7669C47.6214 51.7113 47.7236 51.6626 47.8257 51.6279C49.281 51.1205 50.2001 50.0222 50.081 48.9101ZM46.7023 50.0917C45.298 50.2933 45.1959 50.2238 45.1959 48.9935C45.1959 47.9092 45.1959 47.9092 46.5406 47.9856C47.315 48.0274 47.9448 48.4792 47.9704 49.0144C48.0044 49.5287 47.4767 49.9805 46.7023 50.0917Z" fill="#012D3A"/>
<path d="M37.3153 46.8389C37.1451 46.4844 36.8217 46.2898 36.3621 46.2759C35.86 46.262 35.5195 46.4913 35.3408 46.8528C34.1578 49.2856 32.9834 51.7253 31.8174 54.165C31.5791 54.6586 31.8344 55.0965 32.3791 55.2841C32.9238 55.4718 33.6046 55.3119 33.7238 54.7976C34.0132 53.5603 34.9749 53.4005 36.2344 53.5534C36.4387 53.5812 36.6514 53.5534 36.8642 53.5534C38.2685 53.5534 38.2685 53.5534 38.8302 54.6447C38.8897 54.7628 38.9578 54.8879 39.06 54.9922C39.3578 55.2911 39.7323 55.444 40.2174 55.298C40.6855 55.1521 40.9238 54.8879 40.9153 54.4361C40.8982 54.3666 40.9068 54.2415 40.8557 54.1442C39.6897 51.7045 38.4982 49.2717 37.3153 46.8389ZM35.2046 51.8226C35.5876 51.0302 35.9366 50.3073 36.3451 49.4732C36.7451 50.3143 37.1025 51.0511 37.4685 51.8226C36.6855 51.8226 36.0046 51.8226 35.2046 51.8226Z" fill="#012D3A"/>
<path d="M40.8897 24.7283C41.4684 24.7353 41.8939 24.4086 41.945 23.8664C41.979 23.4146 41.9535 22.9628 41.9535 22.5041C41.9535 22.5041 41.9535 22.5041 41.962 22.5041C41.962 22.0106 41.9875 21.517 41.9535 21.0305C41.9194 20.4466 41.5024 20.113 40.8812 20.1269C40.2854 20.1338 39.8769 20.4536 39.8599 21.0166C39.8258 21.9619 39.8258 22.9072 39.8599 23.8525C39.8769 24.3947 40.3109 24.7214 40.8897 24.7283Z" fill="#012D3A"/>
<path d="M36.4472 25.8685C37.0004 25.8476 37.4004 25.5071 37.4174 25.0066C37.4344 24.666 37.4174 24.3254 37.4174 23.9848C37.4174 23.5886 37.4344 23.1855 37.4089 22.7893C37.3834 22.3027 37.06 22.0177 36.4642 21.983C35.8855 21.9413 35.3749 22.2402 35.3493 22.7198C35.2983 23.5122 35.2983 24.3185 35.3493 25.1109C35.3834 25.5905 35.877 25.8894 36.4472 25.8685Z" fill="#012D3A"/>
<path d="M44.3874 25.0341C44.4129 25.5207 44.7363 25.8057 45.3236 25.8613C45.8853 25.9169 46.4214 25.611 46.447 25.1314C46.498 24.3182 46.5065 23.498 46.447 22.6847C46.4129 22.2051 45.8853 21.9202 45.3065 21.9758C44.7108 22.0314 44.4044 22.3233 44.3874 22.8099C44.3789 23.1713 44.3874 23.5327 44.3874 23.8942C44.3789 24.2765 44.3704 24.6588 44.3874 25.0341Z" fill="#012D3A"/>
<path d="M30.8469 26.3547C30.8725 26.8483 31.2554 27.1958 31.8001 27.2305C32.3703 27.2653 32.8895 26.9317 32.9235 26.4243C32.9661 25.7292 32.9661 25.0271 32.915 24.3321C32.881 23.8525 32.3959 23.5605 31.8171 23.5814C31.2554 23.6022 30.8639 23.9289 30.8469 24.4294C30.8299 24.7491 30.8469 25.0688 30.8469 25.3955C30.8469 25.7153 30.8384 26.035 30.8469 26.3547Z" fill="#012D3A"/>
<path d="M49.9535 27.2376C50.4982 27.2237 50.9237 26.8762 50.9492 26.3966C50.9663 26.0769 50.9492 25.7571 50.9492 25.4304C50.9492 25.0898 50.9663 24.7492 50.9492 24.4087C50.9237 23.9151 50.5152 23.5885 49.9535 23.5815C49.3833 23.5676 48.9067 23.8734 48.8812 24.3531C48.8386 25.0481 48.8386 25.7502 48.8812 26.4452C48.9067 26.9318 49.4003 27.2515 49.9535 27.2376Z" fill="#012D3A"/>
</svg>
