<svg width="90" height="80" viewBox="0 0 90 80" fill="none" xmlns="http://www.w3.org/2000/svg">
<path d="M44.9998 80C68.4325 80 87.4284 62.0914 87.4284 40C87.4284 17.9086 68.4325 0 44.9998 0C21.5672 0 2.57129 17.9086 2.57129 40C2.57129 62.0914 21.5672 80 44.9998 80Z" fill="#E5E5E5"/>
<g clip-path="url(#clip0_254_746)">
<path d="M29.2293 64.7511C29.2293 52.8435 29.2293 40.9451 29.2485 29.0376C29.2485 28.3345 28.932 28.298 28.3564 28.298C20.9795 28.3071 13.593 28.3162 6.21612 28.2888C5.4391 28.2888 5.25684 28.4806 5.25684 29.2111C5.28561 40.2237 5.27602 51.2364 5.27602 62.249C5.27602 63.1987 5.29521 64.1393 5.3048 65.0889C5.29521 65.7829 5.31439 66.4769 5.26643 67.1709C5.23765 67.6458 5.41032 67.7919 5.90915 67.7828C7.4536 67.7554 9.00763 67.7919 10.5521 67.7645C11.4154 67.7462 12.5954 68.1389 13.0654 67.6001C13.5546 67.0431 13.2093 65.9564 13.1709 65.0981C13.1805 63.3448 13.1997 61.6007 13.2093 59.8474C13.2093 59.1078 13.4779 58.5234 14.3029 58.359C15.0799 58.2038 15.5787 58.5782 15.8569 59.2539C15.8569 61.4455 15.8569 63.637 15.8569 65.8195C15.8569 67.938 15.8569 67.9289 18.1304 67.7919C18.5621 67.7645 18.6772 67.6184 18.658 67.244C18.6293 66.5226 18.6292 65.8012 18.6197 65.0798C18.6292 63.3266 18.6388 61.5824 18.6484 59.8292C18.658 58.8704 19.1569 58.2859 19.9627 58.2859C20.7589 58.2859 21.2769 58.8886 21.2865 59.8383C21.2961 61.5916 21.3057 63.3357 21.3152 65.0889C21.3057 65.7829 21.3248 66.4769 21.2769 67.1618C21.2481 67.6275 21.392 67.7828 21.9004 67.7736C24.1451 67.7462 26.3803 67.7554 28.625 67.7736C29.0471 67.7736 29.2869 67.7097 29.2581 67.2349C29.2101 66.5135 29.2197 65.7921 29.2101 65.0798C29.2006 64.9702 29.2293 64.8607 29.2293 64.7511ZM7.91405 32.1971C7.92364 31.4209 8.46084 30.9278 9.20908 30.9187C9.95733 30.9096 10.5041 31.4118 10.5329 32.1789C10.5617 32.7907 10.5425 33.4025 10.5425 34.0143C10.5425 34.5713 10.5617 35.1283 10.5425 35.6854C10.5137 36.5072 9.9861 37.0186 9.1899 37.0003C8.44166 36.982 7.92364 36.4889 7.91405 35.7036C7.89487 34.5257 7.89487 33.366 7.91405 32.1971ZM10.5329 54.0033C10.4945 54.7612 9.92855 55.2999 9.21868 55.3091C8.44166 55.3182 7.91405 54.7886 7.90446 53.9485C7.88527 52.807 7.88527 51.6656 7.90446 50.5241C7.91405 49.7297 8.41288 49.2183 9.15153 49.2001C9.92855 49.1727 10.5041 49.684 10.5425 50.4967C10.5713 51.0812 10.5521 51.6656 10.5521 52.25C10.5425 52.8344 10.5617 53.4188 10.5329 54.0033ZM7.88527 41.3013C7.90446 40.5707 8.42247 40.0502 9.10356 40.0046C9.80384 39.9589 10.4466 40.4794 10.5137 41.2191C10.5713 41.8583 10.5233 42.4975 10.5233 43.1367C10.5233 43.1367 10.5233 43.1367 10.5329 43.1367C10.5329 43.6937 10.5617 44.2508 10.5233 44.8078C10.4753 45.6022 9.8614 46.1775 9.14193 46.1501C8.43206 46.1227 7.90446 45.5748 7.88527 44.7987C7.86609 43.6481 7.86609 42.4701 7.88527 41.3013ZM7.87568 59.5278C7.91405 58.8064 8.46084 58.2768 9.15153 58.3042C9.88058 58.3316 10.4274 58.7334 10.4657 59.4091C10.5425 60.7149 10.5425 62.0207 10.4657 63.3266C10.4178 64.0479 9.76547 64.4954 9.06519 64.4132C8.33614 64.331 7.90446 63.911 7.87568 63.1987C7.8469 62.5869 7.86609 61.9751 7.86609 61.3633C7.86609 60.7515 7.83731 60.1396 7.87568 59.5278ZM13.3244 32.1423C13.3532 31.4301 13.7273 30.9918 14.4947 30.9278C15.2526 30.8639 15.8185 31.22 15.8953 31.8958C16.0584 33.2746 16.0871 34.6718 15.8761 36.0415C15.7706 36.7355 15.195 37.0551 14.4468 36.9729C13.7369 36.8907 13.3532 36.4707 13.3244 35.8041C13.2956 35.1649 13.3148 34.5257 13.3148 33.8865C13.3148 33.3112 13.2956 32.7267 13.3244 32.1423ZM13.2285 41.3652C13.2573 40.5434 13.8616 39.9863 14.5907 40.0046C15.2813 40.0229 15.8377 40.5434 15.8953 41.3287C15.9433 41.9131 15.9049 42.4975 15.9049 43.0819C15.9049 43.6663 15.9433 44.2508 15.8953 44.8352C15.8377 45.6114 15.2718 46.1501 14.5811 46.1593C13.8616 46.1684 13.2477 45.5931 13.2189 44.7895C13.1997 43.6481 13.1901 42.5066 13.2285 41.3652ZM14.6003 55.3091C13.8616 55.3182 13.286 54.7794 13.2573 53.9393C13.2189 52.7979 13.2093 51.6564 13.2573 50.515C13.2956 49.6566 13.8424 49.1818 14.629 49.2001C15.3773 49.2183 15.8761 49.684 15.9337 50.5059C15.972 51.0903 15.9433 51.6747 15.9433 52.2591C15.9433 52.8161 15.972 53.3732 15.9337 53.9302C15.8953 54.7612 15.3485 55.3091 14.6003 55.3091ZM24.0876 32.1606C24.1164 31.4027 24.6631 30.9004 25.421 30.9187C26.1308 30.9278 26.6968 31.4118 26.7064 32.1241C26.7352 33.3477 26.7352 34.5713 26.7064 35.7949C26.6872 36.5437 26.0925 37.0277 25.3346 36.9912C24.6248 36.9638 24.1164 36.4707 24.0876 35.7493C24.0684 35.1375 24.0876 34.5257 24.0876 33.9139C24.078 33.3294 24.0588 32.745 24.0876 32.1606ZM24.078 50.4602C24.1068 49.7297 24.596 49.2274 25.3059 49.2001C26.0253 49.1727 26.6585 49.6201 26.6872 50.3141C26.7448 51.5925 26.7448 52.8709 26.6872 54.1494C26.6585 54.8342 25.9965 55.3273 25.3155 55.2908C24.596 55.2634 24.1068 54.7886 24.078 54.0398C24.0588 53.428 24.0684 52.8161 24.0684 52.2043C24.078 51.629 24.0588 51.0446 24.078 50.4602ZM24.0588 41.2921C24.0876 40.5707 24.6056 40.0411 25.2771 40.0046C25.9486 39.9589 26.6297 40.4429 26.6585 41.146C26.7256 42.4244 26.7256 43.712 26.668 44.9904C26.6393 45.6753 25.9486 46.1866 25.2963 46.1593C24.6152 46.1319 24.0876 45.6022 24.0492 44.89C24.0204 44.2782 24.0396 43.6663 24.0396 43.0545C24.0588 42.4701 24.0396 41.8766 24.0588 41.2921ZM24.0396 59.5644C24.078 58.8338 24.596 58.3042 25.2867 58.3133C26.0253 58.3225 26.5625 58.706 26.6297 59.3909C26.7544 60.7149 26.7736 62.0573 26.6201 63.3905C26.5433 64.0753 26.0061 64.4771 25.2579 64.4223C24.5193 64.3767 24.078 63.9566 24.0396 63.2352C24.0012 62.596 24.03 61.9568 24.03 61.3176C24.03 61.3176 24.03 61.3176 24.0204 61.3176C24.03 60.7332 24.0108 60.1396 24.0396 59.5644ZM21.2673 44.8808C21.2385 45.6022 20.7205 46.1227 20.0298 46.1593C19.3295 46.1958 18.6676 45.657 18.6484 44.9265C18.6101 43.7029 18.6101 42.4701 18.6484 41.2465C18.6676 40.5068 19.3199 39.9772 20.0298 40.0137C20.7205 40.0502 21.2481 40.5707 21.2673 41.283C21.2865 41.8948 21.2673 42.5066 21.2673 43.1184C21.2673 43.7029 21.2865 44.2964 21.2673 44.8808ZM21.2769 54.0398C21.2481 54.7886 20.7589 55.2634 20.0394 55.2908C19.3583 55.3182 18.6964 54.8342 18.6676 54.1494C18.6101 52.8709 18.6101 51.5925 18.6676 50.3141C18.6964 49.6018 19.3295 49.1635 20.049 49.2001C20.7493 49.2274 21.2289 49.7206 21.2769 50.4602C21.2769 50.515 21.2769 50.5698 21.2769 50.6246C21.2769 51.1816 21.2769 51.7386 21.2769 52.2957C21.2865 52.8709 21.3057 53.4645 21.2769 54.0398ZM20.0874 36.9912C19.272 37.046 18.7444 36.6077 18.6964 35.8954C18.6101 34.5987 18.6197 33.2838 18.6964 31.978C18.7348 31.2657 19.3967 30.8548 20.1257 30.9278C20.8836 31.0009 21.2673 31.4301 21.2961 32.1423C21.3152 32.7541 21.2961 33.366 21.2961 33.9778C21.2961 34.5622 21.3152 35.1466 21.2961 35.731C21.2769 36.4707 20.9028 36.9364 20.0874 36.9912Z" fill="white"/>
<path d="M13.3148 21.9698C13.4875 23.0199 13.8424 23.303 15.0319 23.303C19.4255 23.3121 23.8094 23.3213 28.2029 23.2939C28.9607 23.2847 29.2869 23.4126 29.2485 24.2344C29.1718 25.7959 29.2293 25.7959 27.5698 25.7959C20.4615 25.7959 13.3532 25.7868 6.23531 25.8142C5.52544 25.8142 5.20887 25.732 5.24725 24.9284C5.32399 23.3121 5.26643 23.3121 6.95477 23.3121C7.33848 23.3121 7.7222 23.2847 8.09632 23.3121C9.0652 23.3852 9.65995 22.9834 9.89018 22.0885C11.0317 21.9607 12.1829 22.1616 13.3148 21.9698Z" fill="#04A2D8"/>
<path d="M86.0382 59.2448C86.0382 60.304 86.0382 61.3541 86.0382 62.4134C84.8583 62.8426 84.724 63.0252 84.724 64.258C84.724 65.2351 84.6952 66.2121 84.7336 67.1892C84.7528 67.6732 84.5801 67.7828 84.0909 67.7919C82.249 67.8101 82.249 67.8284 82.249 66.0843C82.249 61.2628 82.249 56.4322 82.249 51.6108C82.249 50.2502 81.8461 49.8667 80.436 49.8667C78.4119 49.8667 76.3974 49.8667 74.3733 49.8667C73.0879 49.8667 72.637 50.2867 72.637 51.5195C72.6274 56.6514 72.6178 61.7833 72.6466 66.9153C72.6466 67.5819 72.5219 67.8832 71.7545 67.7919C71.0638 67.7097 70.1333 67.9928 69.7208 67.6549C69.2316 67.2531 69.5673 66.3491 69.5673 65.6642C69.5481 61.0071 69.5577 56.3501 69.5577 51.693C69.5577 50.2319 69.1644 49.8667 67.6487 49.8667C65.6246 49.8667 63.6101 49.8667 61.5861 49.8667C60.4061 49.8667 59.9457 50.305 59.9457 51.4373C59.9361 56.624 59.9361 61.8107 59.9553 66.9974C59.9553 67.591 59.8498 67.8741 59.1591 67.7828C58.4108 67.6914 57.4324 68.075 56.9623 67.6275C56.5019 67.1801 56.828 66.2487 56.828 65.5273C56.8184 60.8976 56.828 56.2679 56.8184 51.6382C56.8184 50.1954 56.4635 49.8575 54.9766 49.8575C52.9813 49.8575 50.9956 49.8575 49.0003 49.8575C47.6765 49.8575 47.264 50.2411 47.264 51.4921C47.264 56.6514 47.2544 61.8107 47.2831 66.97C47.2831 67.6275 47.1105 67.8649 46.4198 67.7828C45.6715 67.6914 44.6739 68.0932 44.2422 67.6093C43.8777 67.1983 44.1175 66.2852 44.1175 65.5912C44.1175 60.9067 44.1175 56.2222 44.1175 51.5377C44.1175 50.2228 43.7242 49.8575 42.3428 49.8575C40.3187 49.8575 38.3042 49.8575 36.2802 49.8575C34.9755 49.8575 34.5726 50.2411 34.5726 51.5103C34.5726 56.6149 34.5535 61.7194 34.5918 66.8148C34.6014 67.5545 34.4383 67.8193 33.6038 67.7828C31.925 67.7188 31.925 67.7645 31.925 66.1573C31.925 58.569 31.9442 50.9898 31.8962 43.4015C31.8866 42.5158 32.1648 42.3057 33.0282 42.3697C33.8724 42.4427 34.7261 42.3514 35.5703 42.3971C36.5679 42.4427 37.2011 42.0866 37.4217 41.1369C38.5249 41.1369 39.6377 41.1369 40.7408 41.146C41.0862 42.2236 41.3356 42.3971 42.669 42.3971C54.8423 42.3971 67.0156 42.3971 79.1889 42.3971C80.7142 42.3971 82.2394 42.4518 83.7551 42.3788C84.6089 42.3331 84.7432 42.6345 84.7336 43.3559C84.7048 48.0312 84.7144 52.7157 84.7144 57.3911C84.724 58.6329 84.8583 58.8156 86.0382 59.2448ZM77.4526 47.3555C78.5078 47.3555 79.5534 47.3646 80.6087 47.3555C81.6159 47.3464 82.2394 46.8715 82.249 46.1045C82.2586 45.3374 81.6447 44.8443 80.647 44.8443C78.5174 44.8352 76.3782 44.8352 74.2486 44.8443C73.2414 44.8443 72.6274 45.3465 72.6466 46.1136C72.6658 46.8441 73.2797 47.3464 74.2102 47.3555C75.2942 47.3646 76.3686 47.3555 77.4526 47.3555ZM64.7613 47.3555C65.8741 47.3555 66.9772 47.3737 68.09 47.3464C68.9438 47.3281 69.5385 46.7985 69.5481 46.0862C69.5577 45.3648 68.9725 44.8443 68.1092 44.8443C65.8932 44.8352 63.6677 44.8352 61.4518 44.8443C60.5692 44.8443 59.9937 45.3283 59.9649 46.0405C59.9361 46.7802 60.5404 47.3372 61.4422 47.3464C62.5453 47.3646 63.6581 47.3555 64.7613 47.3555ZM52.1275 44.8443C50.986 44.8443 49.8444 44.8352 48.7029 44.8443C47.8203 44.8534 47.2736 45.3557 47.2831 46.0953C47.2831 46.8259 47.8395 47.3464 48.7221 47.3464C50.9476 47.3646 53.1731 47.3646 55.3987 47.3464C56.2716 47.3372 56.8184 46.8167 56.8184 46.0771C56.8184 45.3191 56.2812 44.8534 55.3891 44.8443C54.2955 44.8352 53.2115 44.8443 52.1275 44.8443ZM39.3595 47.3555C40.4435 47.3555 41.5274 47.3646 42.6114 47.3555C43.5515 47.3372 44.1271 46.8532 44.1271 46.0953C44.1271 45.3283 43.5707 44.8534 42.6114 44.8443C40.4435 44.8352 38.2755 44.8352 36.1075 44.8443C35.1386 44.8443 34.5918 45.31 34.5918 46.0862C34.5918 46.8624 35.1482 47.3372 36.1075 47.3464C37.1915 47.3646 38.2755 47.3555 39.3595 47.3555Z" fill="white"/>
<path d="M40.7505 41.1551C39.6473 41.1551 38.5346 41.1551 37.4314 41.146C37.0285 40.0593 36.7215 39.8584 35.5032 39.8493C34.5343 39.8493 33.5655 39.8311 32.6062 39.8584C32.1361 39.8676 31.9443 39.758 31.9347 39.2649C31.8771 37.4203 31.8579 37.4203 33.7669 37.4203C50.3721 37.4203 66.9773 37.4203 83.5825 37.4203C84.8967 37.4203 84.7145 37.2925 84.7241 38.4705C84.7337 39.8493 84.7241 39.8493 83.2468 39.8493C69.7497 39.8493 56.2429 39.8493 42.7458 39.8493C41.4028 39.8584 41.0575 40.0867 40.7505 41.1551Z" fill="#04A2D8"/>
<path d="M50.7654 28.5627C50.5448 23.6865 50.305 18.8194 50.1035 13.9431C50.0268 12.1533 50.0747 12.1533 48.1562 12.2447C46.9571 12.1899 46.9283 12.1899 46.8803 13.2948C46.6501 17.9884 46.4295 22.6912 46.2568 27.3848C46.228 28.1883 45.7772 29.3298 46.3911 29.7224C47.005 30.1151 48.137 29.7864 49.0387 29.7772C49.1826 29.7955 49.3265 29.8138 49.4704 29.8138C50.8326 29.8412 50.823 29.8411 50.7654 28.5627Z" fill="#04A2D8"/>
<path d="M70.4498 28.5627C70.2291 23.6865 69.9893 18.8194 69.7879 13.9431C69.7111 12.1533 69.7591 12.1533 67.8405 12.2447C66.6414 12.1899 66.6126 12.1899 66.5647 13.2948C66.3344 17.9884 66.1138 22.6912 65.9411 27.3848C65.9123 28.1883 65.4615 29.3298 66.0754 29.7224C66.6894 30.1151 67.8213 29.7864 68.723 29.7772C68.8669 29.7955 69.0108 29.8138 69.1547 29.8138C70.5169 29.8412 70.5073 29.8411 70.4498 28.5627Z" fill="#04A2D8"/>
<path d="M79.6111 57.9846C79.6111 57.802 79.7838 57.528 79.4384 57.4185C78.0954 57.4276 76.7524 57.4276 75.4094 57.4367C75.3615 57.5006 75.2751 57.5554 75.2751 57.6194C75.2751 60.8519 75.2847 64.0845 75.2751 67.3171C75.2751 67.7006 75.4478 67.7828 75.8027 67.7736C76.8292 67.7554 77.8556 67.7371 78.8821 67.7828C79.448 67.801 79.6207 67.6641 79.6207 67.0979C79.6015 64.0662 79.6207 61.0254 79.6111 57.9846Z" fill="white"/>
<path d="M66.7853 57.4458C65.4423 57.4367 64.0993 57.4367 62.7563 57.4276C62.7563 59.5826 62.7563 61.7376 62.7467 63.8836C62.7467 64.1758 62.8426 64.4954 62.6124 64.7602C62.6124 64.8698 62.622 64.9793 62.622 65.0798C62.6124 65.7738 62.622 66.4769 62.5741 67.1709C62.5453 67.6366 62.6892 67.801 63.1976 67.7827C64.224 67.7462 65.2504 67.7462 66.2769 67.7827C66.7949 67.801 66.91 67.6184 66.91 67.1618C66.9004 64.0662 66.9196 60.9706 66.9196 57.875C66.9196 57.7289 66.9963 57.5463 66.7853 57.4458Z" fill="white"/>
<path d="M41.4891 67.2531C41.4603 66.5317 41.4603 65.8195 41.4507 65.0981C41.4603 62.7056 41.4603 60.3223 41.4891 57.9298C41.4891 57.5645 41.4411 57.3819 40.9807 57.391C39.9063 57.4276 38.8223 57.4093 37.7383 57.391C37.3834 57.3819 37.2203 57.455 37.2299 57.8476C37.2587 60.2675 37.2683 62.6782 37.2779 65.0981C37.2683 65.8195 37.2683 66.5317 37.2395 67.2531C37.2203 67.6275 37.3066 67.801 37.7575 67.7919C38.8319 67.7645 39.9063 67.7645 40.9807 67.7919C41.4316 67.7919 41.5083 67.6184 41.4891 67.2531Z" fill="white"/>
<path d="M54.1325 65.089C54.1421 62.6691 54.1517 60.2584 54.1804 57.8385C54.19 57.4459 54.027 57.3819 53.6624 57.3911C52.5784 57.4093 51.504 57.4185 50.4201 57.3911C49.9596 57.3819 49.902 57.5646 49.9116 57.9298C49.9308 60.3223 49.9404 62.7056 49.95 65.0981C49.9404 65.8195 49.95 66.5409 49.9116 67.2531C49.8924 67.6275 49.9788 67.801 50.4296 67.7828C51.504 67.7554 52.5784 67.7554 53.6528 67.7828C54.1037 67.7919 54.19 67.6184 54.1709 67.244C54.1421 66.5317 54.1421 65.8103 54.1325 65.089Z" fill="white"/>
<path d="M39.3306 54.8798C39.2731 54.8798 39.2155 54.8798 39.158 54.8798C37.1818 54.8798 37.201 54.8798 37.2394 52.9896C37.249 52.533 37.3545 52.3504 37.8725 52.3687C38.8894 52.4052 39.9158 52.3961 40.9422 52.3687C41.3547 52.3595 41.4794 52.4874 41.4986 52.88C41.6041 54.8798 41.6233 54.8798 39.3306 54.8798Z" fill="#2661AE"/>
<path d="M52.0892 52.3778C52.3482 52.3778 52.6168 52.3778 52.8758 52.3778C54.1517 52.3778 54.1517 52.3778 54.1517 53.6106C54.1517 54.8707 54.1517 54.8707 52.8087 54.8707C52.4825 54.8707 52.166 54.8707 51.8398 54.8707C49.7294 54.8707 49.739 54.8707 49.9021 52.8344C49.9308 52.4691 50.0459 52.3504 50.4201 52.3596C50.9765 52.3961 51.5328 52.3778 52.0892 52.3778Z" fill="#2661AE"/>
<path d="M64.7324 54.8799C64.6461 54.8799 64.5597 54.8799 64.4734 54.8799C62.4301 54.8799 62.3246 54.7429 62.5932 52.7796C62.6412 52.4326 62.8043 52.3778 63.1016 52.3778C64.1856 52.3869 65.26 52.3778 66.344 52.3778C66.5742 52.3778 66.8428 52.3504 66.8524 52.6792C66.862 53.3184 66.862 53.9576 66.8428 54.5968C66.8332 54.9255 66.5359 54.8707 66.3152 54.8707C65.7876 54.889 65.26 54.8799 64.7324 54.8799Z" fill="#2661AE"/>
<path d="M77.4623 54.8799C77.4048 54.8799 77.3472 54.8799 77.2896 54.8799C75.1217 54.8799 75.1408 54.8799 75.3327 52.8436C75.3711 52.4783 75.4958 52.3687 75.8603 52.3687C76.9443 52.3778 78.0187 52.3778 79.1027 52.3778C79.1602 52.3778 79.237 52.3596 79.2754 52.387C79.9565 52.9623 79.448 53.711 79.5919 54.3685C79.6783 54.7703 79.448 54.9073 79.0451 54.889C78.5175 54.8616 77.9899 54.8799 77.4623 54.8799Z" fill="#2661AE"/>
<path d="M72.6947 32.3432C72.6659 32.3341 72.6371 32.3432 72.6084 32.3432C69.625 32.3432 66.6416 32.3432 63.6582 32.3432C63.428 32.3432 63.1019 32.3067 63.121 32.6172C63.169 33.3477 62.8908 34.0965 63.2745 34.7996C65.6152 34.7996 67.9558 34.8087 70.3061 34.8087C71.0927 34.9549 71.8793 34.8361 72.6659 34.8727C73.3086 34.9092 73.2319 34.4344 73.1456 34.133C72.9633 33.5486 73.6923 32.745 72.6947 32.3432Z" fill="#04A2D8"/>
<path d="M53.0101 32.3432C52.9813 32.3341 52.9526 32.3432 52.9238 32.3432C49.9404 32.3432 46.957 32.3432 43.9737 32.3432C43.7434 32.3432 43.4173 32.3067 43.4365 32.6172C43.4844 33.3477 43.2062 34.0965 43.59 34.7996C45.9306 34.7996 48.2713 34.8087 50.6215 34.8087C51.4081 34.9549 52.1947 34.8361 52.9813 34.8727C53.6241 34.9092 53.5473 34.4344 53.461 34.133C53.2787 33.5486 53.9982 32.745 53.0101 32.3432Z" fill="#04A2D8"/>
<path d="M14.5907 46.1593C15.2814 46.1501 15.8377 45.6114 15.8953 44.8352C15.9433 44.2508 15.9049 43.6663 15.9049 43.0819C15.9049 42.4975 15.9433 41.9131 15.8953 41.3287C15.8377 40.5525 15.2814 40.0228 14.5907 40.0046C13.8616 39.9863 13.2573 40.5433 13.2285 41.3652C13.1901 42.5066 13.1901 43.6481 13.2285 44.7895C13.2573 45.5931 13.8712 46.1684 14.5907 46.1593Z" fill="#012D3A"/>
<path d="M21.2675 41.283C21.2387 40.5708 20.7111 40.0411 20.03 40.0137C19.3201 39.9772 18.6774 40.5068 18.6487 41.2465C18.6103 42.4701 18.6103 43.7029 18.6487 44.9265C18.6678 45.657 19.3297 46.2049 20.03 46.1593C20.7207 46.1227 21.2387 45.6022 21.2675 44.8809C21.2867 44.2964 21.2675 43.712 21.2675 43.1276C21.2675 42.5067 21.2867 41.8948 21.2675 41.283Z" fill="#012D3A"/>
<path d="M9.14214 46.1592C9.8712 46.1866 10.4755 45.6113 10.5235 44.8169C10.5523 44.2599 10.5331 43.7029 10.5331 43.1458C10.5331 43.1458 10.5331 43.1458 10.5235 43.1458C10.5235 42.5066 10.5715 41.8583 10.5139 41.2282C10.4468 40.4885 9.80405 39.9681 9.10377 40.0137C8.42268 40.0594 7.90467 40.5799 7.88548 41.3104C7.8663 42.4792 7.8663 43.6481 7.88548 44.8169C7.90467 45.5931 8.43227 46.1318 9.14214 46.1592Z" fill="#012D3A"/>
<path d="M9.15151 58.3042C8.46083 58.2768 7.91404 58.8064 7.87567 59.5278C7.83729 60.1396 7.86607 60.7514 7.86607 61.3632C7.86607 61.9751 7.84689 62.5869 7.87567 63.1987C7.90444 63.9109 8.33612 64.331 9.06518 64.4132C9.76546 64.4954 10.4274 64.0479 10.4657 63.3265C10.5425 62.0207 10.5425 60.7149 10.4657 59.4091C10.4274 58.7334 9.88057 58.3316 9.15151 58.3042Z" fill="#012D3A"/>
<path d="M25.2868 58.3042C24.5961 58.2951 24.0781 58.8247 24.0397 59.5552C24.011 60.1396 24.0301 60.7241 24.0301 61.3085C24.0301 61.9477 24.0014 62.5869 24.0397 63.2261C24.0781 63.9384 24.5194 64.3584 25.258 64.4132C26.0063 64.4589 26.5435 64.0662 26.6202 63.3813C26.7737 62.0573 26.7545 60.7149 26.6298 59.3817C26.5626 58.706 26.0254 58.3133 25.2868 58.3042Z" fill="#012D3A"/>
<path d="M24.059 44.89C24.0878 45.6022 24.625 46.1319 25.3061 46.1593C25.9584 46.1867 26.6491 45.6753 26.6778 44.9904C26.7354 43.712 26.7354 42.4245 26.6682 41.146C26.6299 40.4429 25.9488 39.9681 25.2869 40.0046C24.6058 40.0503 24.0974 40.5708 24.0686 41.2921C24.0494 41.8766 24.0686 42.461 24.0686 43.0454C24.059 43.6663 24.0398 44.2782 24.059 44.89Z" fill="#012D3A"/>
<path d="M21.3056 32.1423C21.2769 31.4301 20.8931 31.0009 20.1353 30.9278C19.4063 30.8639 18.7539 31.2748 18.706 31.978C18.6292 33.2838 18.6196 34.5896 18.706 35.8954C18.7539 36.5985 19.2816 37.0368 20.0969 36.9912C20.9027 36.9364 21.2865 36.4707 21.3056 35.731C21.3248 35.1466 21.3056 34.5622 21.3056 33.9778C21.3056 33.366 21.3248 32.7541 21.3056 32.1423Z" fill="#012D3A"/>
<path d="M14.4852 30.9278C13.7178 30.9917 13.3437 31.4392 13.3149 32.1423C13.2957 32.7267 13.3149 33.3111 13.3149 33.8956C13.3149 34.5348 13.2957 35.174 13.3245 35.8132C13.3533 36.4798 13.7274 36.909 14.4469 36.982C15.1951 37.0642 15.7707 36.7446 15.8762 36.0506C16.0777 34.6717 16.0585 33.2746 15.8954 31.9049C15.8091 31.22 15.2431 30.8639 14.4852 30.9278Z" fill="#012D3A"/>
<path d="M10.533 50.4967C10.4947 49.684 9.92869 49.1726 9.14207 49.2C8.40343 49.2274 7.91419 49.7297 7.895 50.5241C7.87582 51.6655 7.87582 52.807 7.895 53.9484C7.9046 54.7885 8.4322 55.3182 9.20922 55.309C9.91909 55.2999 10.4851 54.7611 10.5234 54.0032C10.5522 53.4188 10.533 52.8344 10.533 52.25C10.5426 51.6655 10.5618 51.0811 10.533 50.4967Z" fill="#012D3A"/>
<path d="M21.2865 52.2957C21.2865 51.7386 21.2865 51.1816 21.2865 50.6246C21.2865 50.5698 21.2865 50.515 21.2865 50.4602C21.2385 49.7206 20.7588 49.2366 20.0586 49.2001C19.3391 49.1727 18.7156 49.611 18.6772 50.3141C18.6196 51.5925 18.6196 52.8709 18.6772 54.1494C18.706 54.8434 19.3679 55.3182 20.049 55.2908C20.7684 55.2634 21.2577 54.7886 21.2865 54.0398C21.3056 53.4645 21.2865 52.871 21.2865 52.2957Z" fill="#012D3A"/>
<path d="M24.0781 54.0489C24.1069 54.7977 24.5961 55.2725 25.3156 55.2999C25.9967 55.3273 26.6586 54.8433 26.6874 54.1585C26.7353 52.8801 26.7353 51.6016 26.6874 50.3232C26.6586 49.6201 26.0255 49.1726 25.306 49.2092C24.6057 49.2366 24.1069 49.7297 24.0781 50.4693C24.0589 51.0537 24.0781 51.6382 24.0781 52.2226C24.0781 52.8253 24.0589 53.4371 24.0781 54.0489Z" fill="#012D3A"/>
<path d="M9.21885 30.9187C8.4706 30.9278 7.93341 31.4209 7.92381 32.1971C7.90463 33.366 7.90463 34.5348 7.92381 35.6945C7.93341 36.4707 8.45142 36.9729 9.19966 36.9912C9.98627 37.0094 10.5235 36.4981 10.5523 35.6762C10.5714 35.1192 10.5523 34.5622 10.5523 34.0052C10.5523 33.3934 10.5714 32.7815 10.5427 32.1697C10.5139 31.4118 9.96709 30.9187 9.21885 30.9187Z" fill="#012D3A"/>
<path d="M25.421 30.9187C24.6632 30.9096 24.1164 31.4027 24.0876 32.1606C24.0684 32.745 24.0876 33.3294 24.0876 33.9139C24.0876 34.5257 24.0684 35.1375 24.0876 35.7493C24.1164 36.4798 24.6248 36.9638 25.3347 36.9912C26.1021 37.0186 26.6873 36.5437 26.7161 35.7949C26.7544 34.5713 26.7448 33.3477 26.7161 32.1241C26.6873 31.4118 26.1309 30.9278 25.421 30.9187Z" fill="#012D3A"/>
<path d="M80.6471 44.8443C78.5175 44.8352 76.3783 44.8352 74.2487 44.8443C73.2414 44.8443 72.6275 45.3465 72.6467 46.1136C72.6659 46.8441 73.2798 47.3464 74.2103 47.3555C75.2943 47.3646 76.3687 47.3555 77.4527 47.3555C78.5079 47.3555 79.5535 47.3646 80.6087 47.3555C81.616 47.3464 82.2395 46.8715 82.2491 46.1045C82.2587 45.3465 81.6448 44.8443 80.6471 44.8443Z" fill="#012D3A"/>
<path d="M68.0996 44.8443C65.8837 44.8352 63.6582 44.8352 61.4422 44.8443C60.5597 44.8443 59.9841 45.3283 59.9553 46.0405C59.9266 46.7802 60.5309 47.3372 61.4326 47.3464C62.5454 47.3646 63.6486 47.3464 64.7613 47.3464C65.8741 47.3464 66.9773 47.3646 68.0901 47.3372C68.9438 47.319 69.5386 46.7893 69.5482 46.0771C69.5578 45.3739 68.9726 44.8534 68.0996 44.8443Z" fill="#012D3A"/>
<path d="M55.3794 44.8443C54.2954 44.8352 53.2115 44.8443 52.1275 44.8443C50.9859 44.8443 49.8444 44.8352 48.7028 44.8443C47.8203 44.8535 47.2735 45.3557 47.2831 46.0954C47.2831 46.8259 47.8395 47.3464 48.722 47.3464C50.9475 47.3646 53.1731 47.3646 55.3986 47.3464C56.2716 47.3372 56.8184 46.8167 56.8184 46.0771C56.8088 45.3283 56.2812 44.8535 55.3794 44.8443Z" fill="#012D3A"/>
<path d="M42.6114 44.8443C40.4434 44.8352 38.2754 44.8352 36.1075 44.8443C35.1386 44.8443 34.5918 45.31 34.5918 46.0862C34.5918 46.8624 35.1482 47.3372 36.1075 47.3464C37.1915 47.3555 38.2754 47.3464 39.3594 47.3464C40.4434 47.3464 41.5274 47.3555 42.6114 47.3464C43.5515 47.3372 44.1271 46.8533 44.1271 46.0953C44.1271 45.3192 43.5611 44.8443 42.6114 44.8443Z" fill="#012D3A"/>
<path d="M88.1964 37.4115C88.9542 37.512 89.5298 37.1924 89.9998 36.6445C89.9998 36.3066 89.9998 35.9779 89.9998 35.64C89.5489 35.0191 88.9254 34.809 88.1292 34.8182C84.2921 34.8456 80.4549 34.8182 76.6178 34.8456C76.0134 34.8456 75.7928 34.7086 75.8408 34.115C75.8983 33.3936 75.8504 32.6631 75.8504 31.9417C75.8504 30.1245 75.6105 29.8689 73.692 29.8232C73.2315 29.8141 73.0972 29.6954 73.1068 29.257C73.1164 28.4535 73.0589 27.6408 73.0205 26.8372C72.819 22.1892 72.6176 17.5321 72.4065 12.8842C72.3874 12.4367 72.4353 12.2267 73.0205 12.1628C73.7399 12.0897 74.1237 11.5418 74.0565 10.8387C73.9894 10.1447 73.5577 9.70641 72.7902 9.70641C69.6822 9.69727 66.5837 9.68814 63.4756 9.70641C62.7561 9.70641 62.3437 10.1539 62.2477 10.7931C62.1518 11.4597 62.5067 12.0623 63.159 12.1171C64.0224 12.1902 63.9265 12.592 63.8785 13.149C63.8209 13.7882 63.8401 14.4274 63.8114 15.0758C63.6099 19.6963 63.3893 24.326 63.2166 28.9466C63.1878 29.6862 62.948 29.8597 62.2094 29.8323C60.9527 29.7775 60.4826 30.2798 60.4826 31.4943C60.4826 32.4166 60.4539 33.3388 60.4922 34.252C60.5114 34.7451 60.3292 34.8547 59.8495 34.8364C58.8519 34.7999 57.8542 34.7999 56.8661 34.8364C56.3481 34.8547 56.1467 34.7451 56.1659 34.2063C56.2138 33.2293 56.2042 32.2522 56.1755 31.2751C56.1467 30.4076 55.715 29.9419 54.9092 29.8141C54.4296 29.741 53.7677 30.0424 53.5182 29.6497C53.288 29.2753 53.4415 28.6726 53.4223 28.1795C53.4031 27.7321 53.3648 27.2846 53.3456 26.8463C53.1441 22.1984 52.9427 17.5413 52.7316 12.8933C52.7124 12.4641 52.722 12.2267 53.3264 12.1628C54.0458 12.0989 54.4392 11.551 54.372 10.8478C54.3049 10.1539 53.8828 9.70641 53.1153 9.70641C50.0073 9.69727 46.9088 9.69727 43.8007 9.70641C43.0812 9.70641 42.6687 10.1447 42.5632 10.7931C42.4577 11.4597 42.8126 12.0623 43.465 12.1263C44.2899 12.2084 44.2612 12.5737 44.194 13.149C44.1173 13.7882 44.146 14.4274 44.1173 15.0666C43.9158 19.6872 43.6952 24.3169 43.5225 28.9374C43.4937 29.6497 43.2923 29.8689 42.5249 29.8323C41.2586 29.7684 40.7886 30.2798 40.7886 31.4851C40.7886 32.38 40.7502 33.2749 40.7981 34.1607C40.8269 34.7177 40.6447 34.8547 40.0787 34.8456C37.6229 34.8182 35.1576 34.809 32.7018 34.8456C32.0783 34.8547 31.9344 34.6812 31.944 34.1059C31.9727 30.8459 31.9823 27.5768 31.944 24.3169C31.9344 23.5498 32.0687 23.2302 32.9704 23.2941C33.9776 23.3581 34.5916 22.801 34.5916 22.034C34.5916 21.2761 33.9393 20.7647 32.9608 20.7647C26.9557 20.7647 20.9506 20.7647 14.9454 20.7556H8.11535C5.97615 20.7556 3.83694 20.7556 1.69774 20.7556C0.613752 20.7556 0.0189958 21.2122 0.0189958 22.034C0.0189958 22.8284 0.57538 23.3581 1.61141 23.2759C2.57069 23.2028 2.66662 23.5681 2.66662 24.3443C2.62825 38.2699 2.63784 52.1864 2.63784 66.1028C2.63784 66.6325 2.79133 67.2534 2.54191 67.6552C2.32128 68.0113 1.621 67.7009 1.14136 67.7922C0.421895 67.9291 -0.00978272 68.3401 0.00940295 69.0615C0.0285886 69.7737 0.441081 70.1938 1.17973 70.2851C1.43874 70.3216 1.70733 70.2942 1.96634 70.2942C30.6393 70.2942 59.3123 70.2942 87.9949 70.3125C88.7911 70.3125 89.4626 70.1938 89.9998 69.6185C89.9998 69.2258 89.9998 68.8332 89.9998 68.4496C89.4434 67.9291 88.8007 67.6461 88.0045 67.783C87.4289 67.8835 87.333 67.6278 87.3522 67.1438C87.3905 66.1485 87.3618 65.1532 87.3618 64.1487V57.5101C87.3618 51.0814 87.3714 44.6528 87.3426 38.2242C87.3426 37.5668 87.5057 37.3202 88.1964 37.4115ZM65.941 27.3851C66.1136 22.6823 66.3439 17.9887 66.5645 13.2951C66.6221 12.1902 66.6508 12.1902 67.8403 12.245C69.7493 12.1537 69.711 12.1537 69.7877 13.9434C69.9891 18.8197 70.2194 23.6868 70.4496 28.563C70.5072 29.8415 70.5167 29.8415 69.1546 29.8232C69.0107 29.8232 68.8668 29.7958 68.7229 29.7867C67.8212 29.7958 66.6892 30.1245 66.0753 29.7319C65.4613 29.3301 65.9122 28.1887 65.941 27.3851ZM63.1303 32.6266C63.1111 32.3161 63.4372 32.3526 63.6675 32.3526C66.6508 32.3526 69.6342 32.3526 72.6176 32.3526C72.6464 32.3526 72.6751 32.3435 72.7039 32.3526C73.7016 32.7453 72.9725 33.5489 73.1452 34.1424C73.2315 34.4438 73.3083 34.9186 72.6655 34.8821C71.8789 34.8364 71.0923 34.9643 70.3057 34.8182C67.9651 34.8182 65.6244 34.809 63.2742 34.809C62.8904 34.0968 63.1686 33.348 63.1303 32.6266ZM46.2469 27.3851C46.4195 22.6823 46.6498 17.9887 46.8704 13.2951C46.928 12.1902 46.9471 12.1902 48.1463 12.245C50.0648 12.1537 50.0169 12.1537 50.0936 13.9434C50.2951 18.8197 50.5253 23.6868 50.7555 28.563C50.8131 29.8415 50.8227 29.8415 49.4605 29.8232C49.3166 29.8232 49.1727 29.7958 49.0288 29.7867C48.1271 29.7958 46.9951 30.1245 46.3812 29.7319C45.7768 29.3301 46.2181 28.1887 46.2469 27.3851ZM43.4362 32.6266C43.417 32.3161 43.7431 32.3526 43.9734 32.3526C46.9567 32.3526 49.9401 32.3526 52.9235 32.3526C52.9523 32.3526 52.981 32.3435 53.0098 32.3526C54.0075 32.7453 53.2784 33.5489 53.4511 34.1424C53.5374 34.4438 53.6142 34.9186 52.9715 34.8821C52.1848 34.8364 51.3982 34.9643 50.6116 34.8182C48.271 34.8182 45.9303 34.809 43.5801 34.809C43.2059 34.0968 43.4841 33.348 43.4362 32.6266ZM33.7666 37.4207C50.3718 37.4207 66.977 37.4207 83.5822 37.4207C84.8964 37.4207 84.7141 37.2928 84.7237 38.4708C84.7333 39.8496 84.7237 39.8496 83.2464 39.8496C69.7493 39.8496 56.2426 39.8496 42.7455 39.8496H35.5125C34.5436 39.8496 33.5747 39.8314 32.6155 39.8588C32.1454 39.8679 31.9535 39.7583 31.944 39.2652C31.8768 37.4207 31.8576 37.4207 33.7666 37.4207ZM6.95462 23.3033C7.33833 23.3033 7.72204 23.2759 8.09616 23.3033C8.23046 23.3124 8.36476 23.3124 8.48947 23.3033L15.0414 23.2941C19.4349 23.3033 23.8188 23.3124 28.2123 23.285C28.9702 23.2759 29.2963 23.4037 29.258 24.2256C29.1908 25.7871 29.2388 25.7871 27.5792 25.7871C20.4709 25.7871 13.3626 25.7779 6.24475 25.8053C5.53488 25.8053 5.21831 25.7231 5.25668 24.9196C5.32383 23.3033 5.26628 23.3033 6.95462 23.3033ZM29.2388 67.2443C29.2676 67.7191 29.0277 67.783 28.6056 67.783C26.3609 67.7739 24.1258 67.7648 21.8811 67.783C21.3727 67.7922 21.2288 67.6278 21.2575 67.1712C21.2959 66.4772 21.2863 65.7832 21.2959 65.0984C21.2863 63.3451 21.2767 61.601 21.2671 59.8477C21.2575 58.898 20.7491 58.2954 19.9433 58.2954C19.1375 58.2954 18.6291 58.8798 18.6291 59.8386C18.6195 61.5919 18.6099 63.336 18.6003 65.0892C18.6099 65.8106 18.6099 66.532 18.6387 67.2534C18.6579 67.6278 18.5428 67.7739 18.1111 67.8013C15.8376 67.9383 15.8376 67.9474 15.8376 65.8289C15.8376 63.6373 15.8376 61.4457 15.8376 59.2633C15.5594 58.5876 15.0606 58.2132 14.2835 58.3684C13.4586 58.5328 13.1996 59.1172 13.19 59.8569C13.1804 61.6101 13.1708 63.3542 13.1516 65.1075C13.19 65.9659 13.5257 67.0525 13.0461 67.6095C12.5952 68.1392 11.4153 67.7465 10.5519 67.7648C9.00748 67.7922 7.45344 67.7557 5.909 67.783C5.41017 67.7922 5.2375 67.6552 5.26628 67.1712C5.31424 66.4772 5.29506 65.7832 5.30465 65.0892C5.29506 64.1396 5.27587 63.199 5.27587 62.2493C5.27587 51.2367 5.28546 40.224 5.25668 29.2114C5.25668 28.4809 5.43895 28.2891 6.21597 28.2891C13.5929 28.3165 20.9793 28.3165 28.3562 28.2982C28.9318 28.2982 29.2484 28.3348 29.2484 29.0379C29.2292 40.9454 29.2292 52.8438 29.2292 64.7514C29.2292 64.861 29.2004 64.9705 29.1908 65.0801C29.2004 65.8015 29.2004 66.5229 29.2388 67.2443ZM41.4888 67.2534C41.508 67.6278 41.4313 67.8013 40.9708 67.7922C39.8964 67.7648 38.822 67.7648 37.7476 67.7922C37.2968 67.8013 37.2104 67.6278 37.2296 67.2534C37.268 66.532 37.2584 65.8198 37.268 65.0984C37.2584 62.6785 37.2488 60.2678 37.22 57.8479C37.22 57.4553 37.3735 57.3913 37.7284 57.3913C38.8124 57.4096 39.8868 57.4187 40.9708 57.3913C41.4313 57.3731 41.4888 57.5648 41.4792 57.9301C41.46 60.3226 41.4505 62.7059 41.4409 65.0984C41.4696 65.8106 41.46 66.532 41.4888 67.2534ZM39.3304 54.8802C39.2729 54.8802 39.2153 54.8802 39.1578 54.8802C37.1816 54.8802 37.2008 54.8802 37.2392 52.9899C37.2488 52.5334 37.3543 52.3507 37.8723 52.369C38.8892 52.4055 39.9156 52.3964 40.942 52.369C41.3545 52.3599 41.4792 52.4877 41.4984 52.8804C41.6039 54.8802 41.6231 54.8802 39.3304 54.8802ZM54.1706 67.2534C54.1897 67.6278 54.1034 67.8013 53.6525 67.783C52.5781 67.7557 51.5037 67.7557 50.4294 67.783C49.9785 67.7922 49.9017 67.6187 49.9113 67.2534C49.9401 66.532 49.9401 65.8198 49.9497 65.0984C49.9401 62.7059 49.9401 60.3226 49.9113 57.9301C49.9113 57.5648 49.9593 57.3822 50.4198 57.3913C51.5037 57.4279 52.5781 57.4096 53.6621 57.3913C54.0171 57.3822 54.1801 57.4553 54.1801 57.8388C54.1514 60.2587 54.1418 62.6694 54.1322 65.0892C54.1418 65.8106 54.1418 66.532 54.1706 67.2534ZM49.9113 52.8438C49.9401 52.4786 50.0552 52.3599 50.4294 52.369C50.9857 52.3873 51.5421 52.3781 52.0985 52.3781C52.3575 52.3781 52.6261 52.3781 52.8851 52.3781C54.161 52.3781 54.161 52.3781 54.161 53.6109C54.161 54.871 54.161 54.871 52.818 54.871C52.4918 54.871 52.1752 54.871 51.8491 54.871C49.7387 54.8802 49.7579 54.8802 49.9113 52.8438ZM62.5835 52.7799C62.6314 52.4329 62.7945 52.3781 63.0919 52.3781C64.1759 52.3873 65.2503 52.3781 66.3343 52.3781C66.5645 52.3781 66.8331 52.3507 66.8427 52.6795C66.8523 53.3187 66.8619 53.9579 66.8331 54.5971C66.8235 54.9258 66.5261 54.871 66.3055 54.871C65.7779 54.8802 65.2503 54.871 64.7227 54.871C64.6363 54.871 64.55 54.871 64.4637 54.871C62.43 54.8802 62.3149 54.7432 62.5835 52.7799ZM62.6698 57.4553C62.6602 57.4553 62.6506 57.4553 62.641 57.4644C62.6506 57.4553 62.6602 57.4553 62.6698 57.4553ZM66.9194 57.8844C66.9194 60.98 66.9003 64.0756 66.9098 67.1712C66.9098 67.6278 66.8043 67.8104 66.2767 67.7922C65.2503 67.7556 64.2238 67.7556 63.1974 67.7922C62.689 67.8104 62.5355 67.6461 62.5739 67.1804C62.6218 66.4864 62.6027 65.7924 62.6218 65.0892C62.6218 64.9797 62.6122 64.8701 62.6122 64.7696C62.6027 62.4228 62.5835 60.0852 62.5739 57.7383C62.5739 57.7109 62.5739 57.6744 62.5739 57.6379C62.5739 57.6744 62.5739 57.7018 62.5739 57.7383C62.5835 60.0852 62.5931 62.4228 62.6122 64.7696C62.8425 64.5048 62.7466 64.1852 62.7466 63.893C62.7561 61.738 62.7561 59.5829 62.7561 57.437C64.0991 57.4461 65.4421 57.4461 66.7851 57.4553C66.9962 57.5466 66.9194 57.7292 66.9194 57.8844ZM79.5916 54.3688C79.6779 54.7706 79.4477 54.9076 79.0448 54.8893C78.5172 54.8619 77.9896 54.8802 77.4716 54.8802C77.414 54.8802 77.3564 54.8802 77.2989 54.8802C75.1309 54.8802 75.1501 54.8802 75.3419 52.8438C75.3803 52.4786 75.505 52.369 75.8695 52.369C76.9535 52.3781 78.0279 52.3781 79.1119 52.3781C79.1695 52.3781 79.2462 52.3599 79.2846 52.3873C79.9657 52.9625 79.4477 53.7113 79.5916 54.3688ZM79.6299 67.1073C79.6395 67.6735 79.4573 67.8104 78.8913 67.7922C77.8649 67.7556 76.8384 67.7739 75.812 67.783C75.4571 67.7922 75.2844 67.7009 75.2844 67.3265C75.294 64.0939 75.2844 60.8613 75.2844 57.6196C75.2844 57.5557 75.3707 57.5009 75.4187 57.437C76.7617 57.4279 78.1047 57.4279 79.4477 57.4187C79.7834 57.5283 79.6204 57.7931 79.6204 57.9849C79.6204 61.0257 79.6012 64.0665 79.6299 67.1073ZM84.7237 57.4005V64.2583C84.7237 65.2353 84.695 66.2124 84.7333 67.1895C84.7525 67.6735 84.5799 67.783 84.0906 67.7922C82.2488 67.8104 82.2488 67.8287 82.2488 66.0846C82.2488 61.2631 82.2488 56.4417 82.2488 51.6111C82.2488 50.2505 81.8459 49.867 80.4357 49.867C78.4117 49.867 76.3972 49.867 74.3731 49.867C73.0876 49.867 72.6368 50.287 72.6368 51.5198C72.6272 56.6517 72.6176 61.7836 72.6464 66.9155C72.6464 67.5821 72.5217 67.8835 71.7542 67.7922C71.0635 67.71 70.133 67.9931 69.7205 67.6552C69.2313 67.2534 69.5671 66.3494 69.5671 65.6645C69.5479 61.0074 69.5575 56.3503 69.5575 51.6933C69.5575 50.2322 69.1642 49.867 67.6485 49.867C65.6244 49.867 63.6099 49.867 61.5858 49.867C60.4059 49.867 59.9454 50.3053 59.9454 51.4376C59.9454 56.6243 59.9359 61.811 59.955 66.9977C59.955 67.5913 59.8495 67.8744 59.1588 67.783C58.4106 67.6917 57.4321 68.0753 56.9621 67.6278C56.5016 67.1804 56.8278 66.2489 56.8278 65.5276C56.8182 60.8979 56.8278 56.2682 56.8182 51.6385C56.8182 50.1957 56.4632 49.8578 54.9764 49.8578C52.981 49.8578 50.9953 49.8578 49 49.8578C47.6762 49.8578 47.2637 50.2413 47.2637 51.4924C47.2637 56.6517 47.2445 61.811 47.2829 66.9703C47.2829 67.6278 47.1102 67.8652 46.4195 67.783C45.6713 67.6917 44.6736 68.0935 44.242 67.6095C43.8774 67.1986 44.1173 66.2855 44.1173 65.5915C44.1173 60.907 44.1173 56.2225 44.1173 51.538C44.1173 50.2231 43.724 49.8578 42.3426 49.8578C40.3185 49.8578 38.304 49.8578 36.2799 49.8578C34.9753 49.8578 34.5724 50.2413 34.5724 51.5106C34.5724 56.6152 34.5532 61.7197 34.5916 66.8151C34.5916 67.5548 34.4381 67.8196 33.6035 67.783C31.9248 67.7191 31.9248 67.7648 31.9248 66.1576C31.9248 58.5693 31.944 50.9901 31.896 43.4018C31.8864 42.5161 32.1646 42.306 33.0279 42.3699C33.8721 42.443 34.7259 42.3517 35.57 42.3973C35.6852 42.4065 35.7907 42.4065 35.9058 42.3973L42.6783 42.3882C54.8516 42.3882 67.025 42.3882 79.1983 42.3882C80.7235 42.3882 82.2488 42.443 83.7645 42.3699C84.6182 42.3243 84.7525 42.6256 84.7429 43.347C84.7046 48.0406 84.7237 52.716 84.7237 57.4005Z" fill="#012D3A"/>
<path d="M15.9434 52.2591C15.9434 51.6747 15.9818 51.0903 15.9338 50.5058C15.8763 49.684 15.3774 49.2183 14.6292 49.2C13.8426 49.1818 13.2862 49.6566 13.2574 50.515C13.2094 51.6564 13.2094 52.7979 13.2574 53.9393C13.2862 54.7794 13.8618 55.3182 14.6004 55.309C15.3391 55.2999 15.8954 54.752 15.9434 53.9302C15.9818 53.3731 15.953 52.8161 15.9434 52.2591C15.953 52.2591 15.953 52.2591 15.9434 52.2591Z" fill="#012D3A"/>
</g>
<defs>
<clipPath id="clip0_254_746">
<rect width="90" height="60.6061" fill="white" transform="translate(0 9.69696)"/>
</clipPath>
</defs>
</svg>
