<svg width="90" height="80" viewBox="0 0 90 80" fill="none" xmlns="http://www.w3.org/2000/svg">
<path d="M45 80C69.8528 80 90 62.0914 90 40C90 17.9086 69.8528 0 45 0C20.1472 0 0 17.9086 0 40C0 62.0914 20.1472 80 45 80Z" fill="#E5E5E5"/>
<g clip-path="url(#clip0_254_706)">
<path d="M44.2525 38.0402C33.1379 38.0402 22.0232 38.0402 10.9086 38.0402C9.56097 38.0402 9.22705 37.7434 9.22705 36.5351C9.22705 26.0741 9.22705 15.613 9.22705 5.15199C9.23898 3.93312 9.56097 3.63635 10.9205 3.63635C33.1975 3.63635 55.4745 3.63635 77.7515 3.63635C79.0514 3.63635 79.3972 3.94372 79.3972 5.10959C79.3972 15.5918 79.3972 26.0741 79.3972 36.5563C79.3972 37.7222 79.0514 38.0296 77.7515 38.0296C66.5772 38.0402 55.4148 38.0402 44.2525 38.0402ZM76.9167 35.8674C76.9167 25.8197 76.9167 15.8144 76.9167 5.84091C55.1286 5.84091 33.4002 5.84091 11.6837 5.84091C11.6837 15.878 11.6837 25.8621 11.6837 35.8674C33.4479 35.8674 55.1525 35.8674 76.9167 35.8674Z" fill="#012D3A"/>
<path d="M19.7335 57.5632C20.6995 58.1779 21.6416 58.7821 22.536 59.3438C23.4305 58.7715 24.3845 58.1673 25.3386 57.5632C23.7882 54.6803 24.146 52.4652 26.4834 50.8541C28.475 49.4869 31.3133 49.5293 33.2571 50.9707C35.4515 52.5924 35.7734 54.8499 34.1873 57.6268C34.2231 57.6586 34.235 57.7116 34.2827 57.7328C37.133 58.8139 38.3613 60.7535 38.2659 63.4774C38.1943 65.311 38.254 67.1552 38.254 68.9888C38.254 69.9533 37.8485 70.3136 36.7394 70.3136C27.2705 70.3136 17.7897 70.3136 8.32074 70.3136C7.22359 70.2924 6.81812 69.9427 6.81812 68.9782C6.81812 66.9856 6.81812 64.993 6.81812 63.0004C6.81812 60.5521 8.08223 58.8351 10.5866 57.8176C10.6939 57.7752 10.8013 57.7116 10.8967 57.6692C9.28671 54.8923 9.6087 52.6136 11.8149 50.9813C13.7588 49.5399 16.609 49.4975 18.5887 50.8647C20.9142 52.4652 21.2719 54.6591 19.7335 57.5632ZM21.3196 68.1302C21.3196 66.2437 21.3793 64.4313 21.3077 62.6189C21.2362 60.8912 19.7097 59.6088 17.7658 59.5558C16.1081 59.5134 14.4386 59.5134 12.7809 59.5558C11.0278 59.5982 9.63255 60.6369 9.34634 62.1631C9.19131 63.011 9.23901 63.9013 9.22708 64.7704C9.21516 65.8833 9.22708 66.9962 9.22708 68.1197C13.3056 68.1303 17.2769 68.1302 21.3196 68.1302ZM35.845 68.1197C35.845 66.2543 35.8927 64.4631 35.8331 62.6719C35.7734 60.8912 34.2112 59.5876 32.1958 59.5558C30.6335 59.524 29.0713 59.5346 27.509 59.5558C25.3147 59.577 23.7644 60.9548 23.7524 62.9156C23.7405 64.5054 23.7524 66.0953 23.7524 67.6851C23.7524 67.8335 23.7882 67.9819 23.8121 68.1302C27.831 68.1197 31.8022 68.1197 35.845 68.1197ZM15.2376 52.02C13.6396 52.0412 12.2562 53.2707 12.2562 54.6909C12.2562 56.143 13.6515 57.3936 15.2734 57.3936C16.9191 57.3936 18.3025 56.143 18.2905 54.6909C18.2905 53.2389 16.8714 52.0094 15.2376 52.02ZM32.8159 54.7439C32.8397 53.3025 31.4564 52.0412 29.8106 52.02C28.2126 51.9988 26.8173 53.2071 26.7696 54.6379C26.7219 56.0794 28.0934 57.3512 29.7272 57.3936C31.3729 57.4254 32.792 56.196 32.8159 54.7439Z" fill="#012D3A"/>
<path d="M68.9981 57.6586C66.9707 54.9559 68.056 52.3274 69.8448 50.9919C71.8721 49.4763 74.8178 49.4869 76.857 50.9919C78.5386 52.2426 79.7788 54.8499 77.7157 57.6374C77.8946 57.7222 78.0615 57.7964 78.2404 57.8706C80.554 58.8775 81.7823 60.5203 81.8181 62.8202C81.8419 64.8552 81.83 66.8902 81.8181 68.9358C81.8181 69.9215 81.4245 70.2818 80.3393 70.2818C75.6764 70.2818 71.0135 70.2818 66.3625 70.2818C65.3131 70.2818 64.8957 69.9215 64.8957 68.9888C64.8957 66.9538 64.8838 64.9082 64.8957 62.8732C64.9076 60.5097 66.1717 58.8457 68.5449 57.8282C68.6642 57.7858 68.7953 57.7328 68.9981 57.6586ZM79.3972 68.1197C79.3972 66.3921 79.3972 64.7174 79.3972 63.0322C79.3972 62.852 79.3972 62.6719 79.3733 62.4917C79.1468 60.7641 77.668 59.5664 75.7003 59.5346C74.138 59.5134 72.5758 59.5134 71.0135 59.5346C69.0935 59.5558 67.5193 60.6475 67.3762 62.3327C67.2092 64.2405 67.3404 66.1695 67.3404 68.1091C71.3474 68.1197 75.3186 68.1197 79.3972 68.1197ZM73.3628 52.02C71.7648 51.9988 70.3695 53.2071 70.3218 54.6379C70.2741 56.0794 71.6456 57.3512 73.2794 57.3936C74.9132 57.4254 76.3323 56.2066 76.3562 54.7439C76.3919 53.2919 75.0086 52.0412 73.3628 52.02Z" fill="#012D3A"/>
<path d="M39.1125 50.9389C38.7309 50.9389 38.4805 50.9389 38.23 50.9389C36.8705 50.9071 35.8568 50.0062 35.8568 48.7874C35.8449 46.6358 35.8449 44.4843 35.8568 42.3433C35.8688 41.1032 36.8944 40.2023 38.3016 40.1917C41.4976 40.1811 44.6937 40.1811 47.9017 40.1917C49.3447 40.1917 50.3584 41.1032 50.3584 42.3963C50.3703 44.5055 50.3703 46.604 50.3584 48.7132C50.3584 50.0486 49.3447 50.9919 47.8421 50.9177C46.5302 50.8436 45.4927 51.1615 44.5148 51.9564C43.2269 52.9951 41.8077 53.896 40.4601 54.8605C39.9354 55.2421 39.3987 55.4117 38.8144 55.0619C38.2181 54.7121 38.2062 54.2034 38.3731 53.631C38.6236 52.7725 38.8502 51.9034 39.1125 50.9389ZM38.3135 42.3751C38.3135 44.5372 38.3135 46.657 38.3135 48.798C39.0768 48.798 39.7804 48.7874 40.472 48.798C41.5811 48.8086 42.0581 49.3597 41.8077 50.3348C41.7362 50.6104 41.6646 50.8754 41.5573 51.2781C42.6067 50.5362 43.5011 49.8473 44.4671 49.2431C44.8726 48.9888 45.4092 48.8616 45.8982 48.8086C46.5541 48.7344 47.2339 48.7874 47.8898 48.7874C47.8898 46.5934 47.8898 44.4949 47.8898 42.3645C44.7056 42.3751 41.5334 42.3751 38.3135 42.3751Z" fill="#012D3A"/>
<path d="M64.0371 50.939C64.2995 51.8929 64.5261 52.7726 64.7885 53.6523C64.9554 54.2246 64.9196 54.7334 64.3234 55.0725C63.7271 55.4117 63.1904 55.2209 62.6776 54.85C61.02 53.6523 59.3504 52.4546 57.657 51.2993C57.3707 51.098 56.9533 51.0026 56.5836 50.9602C56.0828 50.9072 55.5819 50.9602 55.0691 50.939C53.8765 50.8966 52.8271 50.0169 52.8152 48.9676C52.7794 46.71 52.7794 44.4419 52.8152 42.1843C52.8271 41.1351 53.8765 40.213 55.0572 40.2024C58.3844 40.1812 61.7117 40.1812 65.027 40.2024C66.2553 40.213 67.2809 41.1351 67.2928 42.2267C67.3167 44.4419 67.3167 46.6571 67.2928 48.8722C67.2809 49.9957 66.2434 50.886 64.9673 50.9284C64.693 50.9496 64.4188 50.939 64.0371 50.939ZM64.8242 48.798C64.8242 46.6041 64.8242 44.4843 64.8242 42.3963C61.5805 42.3963 58.4083 42.3963 55.2361 42.3963C55.2361 44.5479 55.2361 46.6465 55.2361 48.798C55.6535 48.798 56.0351 48.8404 56.3928 48.7874C57.5854 48.639 58.5275 48.9888 59.3862 49.7201C60.0182 50.2607 60.7576 50.6952 61.5805 51.2781C61.4612 50.8436 61.3897 50.5892 61.3181 50.3348C61.0557 49.3598 61.5447 48.8086 62.6538 48.798C63.3693 48.7874 64.0729 48.798 64.8242 48.798Z" fill="#012D3A"/>
<path d="M76.9168 35.8674C55.1526 35.8674 33.4361 35.8674 11.6838 35.8674C11.6838 25.8515 11.6838 15.878 11.6838 5.84088C33.4003 5.84088 55.1287 5.84088 76.9168 5.84088C76.9168 15.8144 76.9168 25.8091 76.9168 35.8674ZM30.0135 16.7259C28.7732 16.5457 28.5705 15.8568 28.7017 14.9877C28.7255 14.8075 28.7136 14.6273 28.7017 14.4471C28.642 13.7052 28.1769 13.3131 27.3421 13.3025C25.8037 13.2919 24.2653 13.2919 22.7269 13.3025C21.8921 13.3131 21.427 13.7158 21.4032 14.4683C21.3913 14.8923 21.4628 15.3162 21.439 15.7402C21.427 15.9098 21.3555 16.1535 21.2124 16.2489C20.6638 16.6305 20.0795 16.9061 19.4235 16.3655C19.2089 16.1853 18.9107 16.0794 18.6484 15.9522C17.8017 15.5494 17.2292 15.6766 16.7403 16.3973C16.144 17.277 15.5716 18.1779 14.9992 19.0682C13.8424 20.8594 13.8543 21.0184 15.8936 21.9829C16.5018 22.2691 16.5733 22.6188 16.5972 23.1488C16.633 23.6893 16.1917 23.7529 15.8578 23.9437C15.5835 24.1027 15.2973 24.2405 15.0111 24.3888C14.2001 24.834 14.0332 25.3427 14.4983 26.0741C15.0707 26.9962 15.667 27.8971 16.2633 28.8086C17.3843 30.5362 17.5632 30.5892 19.4474 29.5399C19.9602 29.2537 20.3537 29.1477 20.9142 29.4975C21.272 29.7307 21.427 29.9214 21.4032 30.2924C21.3793 30.6952 21.3793 31.0979 21.4151 31.5007C21.4747 32.2532 21.9279 32.6241 22.7866 32.6241C24.2773 32.6347 25.756 32.6347 27.2467 32.6241C28.2604 32.6241 28.7136 32.2108 28.7136 31.3099C28.7136 31.0661 28.7374 30.8117 28.6778 30.568C28.5466 30.0062 28.7613 29.6565 29.3576 29.4127C29.7392 29.2537 30.0135 29.1795 30.3712 29.4127C30.6336 29.5823 30.9317 29.7095 31.2179 29.8578C32.3509 30.4302 32.8518 30.3242 33.4957 29.3385C34.0562 28.4906 34.6048 27.6321 35.1534 26.7842C36.2386 25.1096 36.2028 24.9506 34.3305 23.9755C33.1857 23.382 33.1737 22.534 34.3067 21.9511C34.5929 21.8027 34.8791 21.6649 35.1534 21.5166C35.8809 21.1032 36.0717 20.5733 35.6662 19.9161C34.903 18.7079 34.1278 17.5102 33.3288 16.3125C32.8875 15.6554 32.2793 15.5388 31.528 15.9098C30.9556 16.2171 30.4309 16.5139 30.0135 16.7259ZM59.4339 24.3147C59.1238 26.8902 60.9365 28.6496 64.0372 28.3634C64.1087 28.3528 64.1922 28.3634 64.2637 28.3634C66.3269 28.3422 67.8772 26.9644 67.8891 25.1308C67.8891 24.569 67.9249 24.0073 67.8772 23.4561C67.8414 23.0322 68.0203 22.7672 68.3661 22.4917C70.3935 20.8806 71.2402 18.8669 70.7632 16.4609C70.2146 13.7052 67.7579 11.6066 64.6096 11.2039C61.5566 10.8117 58.4679 12.2956 57.0965 14.8181C55.737 17.3194 56.2975 20.3189 58.5991 22.2055C59.2431 22.7354 59.5293 23.2442 59.422 23.9861C59.422 24.0815 59.4339 24.1981 59.4339 24.3147ZM56.9176 9.44449C56.2975 9.95323 55.737 10.409 55.2122 10.8541C55.7727 11.3417 56.3213 11.8186 56.8699 12.2956C57.3946 11.8292 57.9432 11.3523 58.5037 10.8541C57.9432 10.356 57.3946 9.86844 56.9176 9.44449ZM64.8242 10.0486C64.8242 9.3279 64.8242 8.64957 64.8242 7.98185C64.0133 7.98185 63.2501 7.98185 62.4988 7.98185C62.4988 8.69197 62.4988 9.3491 62.4988 10.0486C63.2739 10.0486 64.0133 10.0486 64.8242 10.0486ZM55.1526 17.5844C55.1526 16.8531 55.1526 16.1853 55.1526 15.507C54.3536 15.507 53.5903 15.507 52.8271 15.507C52.8271 16.2277 52.8271 16.8955 52.8271 17.5844C53.6261 17.5844 54.3655 17.5844 55.1526 17.5844ZM74.5078 17.5844C74.5078 16.8425 74.5078 16.1853 74.5078 15.507C73.7088 15.507 72.9456 15.507 72.1823 15.507C72.1823 16.2277 72.1823 16.8955 72.1823 17.5844C72.9814 17.5844 73.7327 17.5844 74.5078 17.5844ZM40.6272 24.0285C40.6272 23.2972 40.6272 22.6294 40.6272 21.9617C39.8163 21.9617 39.0531 21.9617 38.3017 21.9617C38.3017 22.6718 38.3017 23.3396 38.3017 24.0285C39.0888 24.0285 39.8282 24.0285 40.6272 24.0285ZM45.4809 24.0285C45.4809 23.2866 45.4809 22.6294 45.4809 21.9511C44.6819 21.9511 43.9187 21.9511 43.1674 21.9511C43.1674 22.6718 43.1674 23.3502 43.1674 24.0285C43.9545 24.0285 44.6939 24.0285 45.4809 24.0285ZM50.3347 21.9723C49.488 21.9723 48.7366 21.9723 47.9853 21.9723C47.9853 22.6824 47.9853 23.3502 47.9853 24.0179C48.7843 24.0179 49.5476 24.0179 50.3347 24.0179C50.3347 23.3184 50.3347 22.6612 50.3347 21.9723ZM50.3108 28.3316C50.3108 27.6215 50.3108 26.9432 50.3108 26.2648C49.4999 26.2648 48.7486 26.2648 47.9972 26.2648C47.9972 26.9856 47.9972 27.6639 47.9972 28.3316C48.8082 28.3316 49.5476 28.3316 50.3108 28.3316ZM47.9972 30.5468C47.9972 31.2781 47.9972 31.9458 47.9972 32.6135C48.8082 32.6135 49.5714 32.6135 50.3227 32.6135C50.3227 31.9034 50.3227 31.2357 50.3227 30.5468C49.5357 30.5468 48.7963 30.5468 47.9972 30.5468ZM55.1407 32.6347C55.1407 31.9034 55.1407 31.2357 55.1407 30.568C54.3297 30.568 53.5665 30.568 52.8152 30.568C52.8152 31.2781 52.8152 31.9458 52.8152 32.6347C53.6023 32.6347 54.3417 32.6347 55.1407 32.6347ZM57.657 32.6241C58.4918 32.6241 59.2312 32.6241 59.9944 32.6241C59.9944 31.914 59.9944 31.2357 59.9944 30.5574C59.1835 30.5574 58.4321 30.5574 57.657 30.5574C57.657 31.2781 57.657 31.9352 57.657 32.6241ZM62.4988 32.6241C63.3336 32.6241 64.0729 32.6241 64.8242 32.6241C64.8242 31.914 64.8242 31.2357 64.8242 30.568C64.0133 30.568 63.2501 30.568 62.4988 30.568C62.4988 31.2781 62.4988 31.9352 62.4988 32.6241ZM68.867 10.8541C69.4156 11.3417 69.9523 11.8398 70.4293 12.2744C70.9898 11.7656 71.5384 11.2675 72.0035 10.8541C71.5264 10.3878 71.0017 9.88964 70.477 9.38089C69.9284 9.87904 69.4156 10.356 68.867 10.8541Z" fill="white"/>
<path d="M21.3195 68.1302C17.2648 68.1302 13.2936 68.1302 9.22698 68.1302C9.22698 67.0068 9.21505 65.8939 9.22698 64.781C9.23891 63.9119 9.17928 63.0216 9.34624 62.1737C9.64438 60.6369 11.0277 59.5982 12.7808 59.5558C14.4385 59.5134 16.108 59.5134 17.7657 59.5558C19.6976 59.6088 21.2241 60.8912 21.3076 62.6189C21.3792 64.4313 21.3195 66.2436 21.3195 68.1302Z" fill="#2661AE"/>
<path d="M35.8449 68.1197C31.8021 68.1197 27.8309 68.1197 23.812 68.1197C23.7881 67.9713 23.7524 67.8229 23.7524 67.6745C23.7524 66.0847 23.7404 64.4948 23.7524 62.905C23.7762 60.9442 25.3146 59.5664 27.5089 59.5452C29.0712 59.524 30.6334 59.524 32.1957 59.5452C34.2111 59.577 35.7614 60.8912 35.833 62.6613C35.8926 64.4631 35.8449 66.2543 35.8449 68.1197Z" fill="#2661AE"/>
<path d="M15.2376 52.02C16.8714 51.9988 18.2786 53.2283 18.3025 54.6909C18.3144 56.143 16.931 57.3831 15.2853 57.3937C13.6515 57.3937 12.2562 56.1536 12.2681 54.6909C12.2681 53.2707 13.6396 52.0412 15.2376 52.02Z" fill="#2661AE"/>
<path d="M32.8158 54.744C32.792 56.2066 31.3728 57.4255 29.739 57.3937C28.1052 57.3619 26.7338 56.09 26.7815 54.638C26.8292 53.2071 28.2245 51.9989 29.8225 52.0201C31.4563 52.0412 32.8397 53.2919 32.8158 54.744Z" fill="#2661AE"/>
<path d="M79.3973 68.1197C75.3187 68.1197 71.3475 68.1197 67.3405 68.1197C67.3405 66.1695 67.2093 64.2511 67.3763 62.3433C67.5194 60.6581 69.0936 59.5664 71.0136 59.5452C72.5758 59.524 74.1381 59.524 75.7003 59.5452C77.6681 59.577 79.1468 60.7747 79.3734 62.5023C79.3973 62.6825 79.3973 62.8626 79.3973 63.0428C79.3973 64.7174 79.3973 66.392 79.3973 68.1197Z" fill="#2661AE"/>
<path d="M73.3628 52.0201C75.0086 52.0412 76.3919 53.2919 76.3681 54.744C76.3442 56.2066 74.9132 57.4255 73.2913 57.3937C71.6575 57.3619 70.286 56.09 70.3337 54.638C70.3695 53.2071 71.7648 51.9989 73.3628 52.0201Z" fill="#2661AE"/>
<path d="M38.3135 42.3751C41.5334 42.3751 44.6937 42.3751 47.9016 42.3751C47.9016 44.5055 47.9016 46.6041 47.9016 48.798C47.2457 48.798 46.566 48.745 45.9101 48.8192C45.4211 48.8722 44.8725 49.01 44.479 49.2538C43.513 49.8579 42.6186 50.5468 41.5692 51.2887C41.6765 50.886 41.748 50.6104 41.8196 50.3454C42.082 49.3704 41.593 48.8192 40.4839 48.8086C39.7803 48.798 39.0767 48.8086 38.3254 48.8086C38.3135 46.6465 38.3135 44.5373 38.3135 42.3751Z" fill="white"/>
<path d="M64.8243 48.798C64.073 48.798 63.3694 48.798 62.6658 48.798C61.5567 48.8086 61.0677 49.3597 61.3301 50.3348C61.4016 50.5892 61.4732 50.8542 61.5925 51.2781C60.7696 50.6952 60.0302 50.2606 59.3982 49.7201C58.5395 48.9888 57.5855 48.639 56.4048 48.7874C56.0351 48.8298 55.6654 48.798 55.248 48.798C55.248 46.6464 55.248 44.5479 55.248 42.3963C58.4083 42.3963 61.5925 42.3963 64.8362 42.3963C64.8243 44.4843 64.8243 46.604 64.8243 48.798Z" fill="white"/>
<path d="M30.0134 16.7259C30.4189 16.5033 30.9555 16.2066 31.5041 15.9416C32.2554 15.5706 32.8636 15.6978 33.3049 16.3444C34.1039 17.5314 34.891 18.7291 35.6423 19.948C36.0478 20.5945 35.857 21.135 35.1295 21.5484C34.8552 21.7074 34.569 21.8451 34.2828 21.9829C33.1499 22.5659 33.1618 23.4138 34.3066 24.0073C36.179 24.9824 36.2267 25.1308 35.1295 26.816C34.5809 27.6639 34.0204 28.5224 33.4718 29.3703C32.8279 30.356 32.327 30.462 31.1941 29.8897C30.9078 29.7413 30.6097 29.6141 30.3473 29.4445C29.9896 29.2113 29.7153 29.2855 29.3337 29.4445C28.7255 29.6989 28.5227 30.038 28.6539 30.5998C28.7016 30.833 28.6897 31.0873 28.6897 31.3417C28.6897 32.2426 28.2365 32.656 27.2228 32.656C25.7321 32.656 24.2534 32.6666 22.7627 32.656C21.904 32.656 21.4509 32.285 21.3912 31.5325C21.3554 31.1297 21.3554 30.727 21.3793 30.3242C21.4032 29.9533 21.2362 29.7519 20.8904 29.5293C20.3298 29.1689 19.9363 29.2855 19.4235 29.5717C17.5512 30.6104 17.3723 30.5574 16.2513 28.8298C15.6669 27.9183 15.0587 27.0174 14.4863 26.0953C14.0212 25.3534 14.1882 24.8552 14.9991 24.4101C15.2734 24.2617 15.5715 24.1239 15.8458 23.9649C16.1917 23.7741 16.621 23.7105 16.5971 23.17C16.5733 22.6401 16.5017 22.2903 15.8935 22.0041C13.8543 21.029 13.8423 20.8807 14.9991 19.0895C15.5715 18.1991 16.144 17.2982 16.7402 16.4185C17.2292 15.6872 17.8016 15.5706 18.6483 15.9734C18.9107 16.1006 19.2088 16.2066 19.4235 16.3867C20.0794 16.9273 20.6638 16.6517 21.2123 16.2702C21.3554 16.1748 21.4389 15.9416 21.4389 15.7614C21.4509 15.3375 21.3912 14.9135 21.4032 14.4896C21.427 13.737 21.8921 13.3343 22.7269 13.3237C24.2653 13.3131 25.8037 13.3131 27.3421 13.3237C28.1769 13.3237 28.642 13.7264 28.7016 14.4684C28.7135 14.6485 28.7255 14.8287 28.7016 15.0089C28.5704 15.8674 28.7732 16.5457 30.0134 16.7259ZM32.959 25.8303C32.5774 25.6289 32.2912 25.4488 31.9811 25.3216C31.1821 25.0036 30.884 24.4843 31.0033 23.7105C31.0867 23.1594 31.039 22.5977 30.9913 22.0359C30.9436 21.453 31.1702 21.0502 31.7546 20.7747C32.16 20.5839 32.5536 20.3507 32.959 20.1281C32.5417 19.4922 32.16 18.9199 31.7903 18.3581C28.797 19.5876 26.6027 18.4429 26.1734 15.4964C25.434 15.4964 24.6827 15.4964 23.8837 15.4964C24.0149 16.8531 23.3828 17.7116 22.0591 18.3899C20.7353 19.0683 19.5905 19.1106 18.3383 18.3051C17.9209 18.9517 17.5512 19.524 17.1457 20.1387C17.5393 20.3401 17.8613 20.5415 18.219 20.7005C18.9465 21.0184 19.2208 21.506 19.0896 22.2373C19.0061 22.7566 19.03 23.3184 19.1015 23.8377C19.1969 24.4843 18.9465 24.9188 18.3144 25.2156C17.9209 25.4064 17.5512 25.6183 17.1457 25.8303C17.5631 26.4662 17.9447 27.0386 18.3502 27.6639C19.6143 26.816 20.7592 26.922 22.0829 27.5897C23.4186 28.268 23.991 29.1583 23.8837 30.462C24.7065 30.462 25.4459 30.462 26.1734 30.462C26.4835 27.5791 28.642 26.4662 31.8023 27.5897C32.172 27.0386 32.5536 26.4662 32.959 25.8303Z" fill="#012D3A"/>
<path d="M59.4338 24.3147C59.4338 24.1981 59.4219 24.0921 59.4338 23.9755C59.5411 23.2336 59.2549 22.7249 58.6109 22.1949C56.3093 20.3083 55.7488 17.3089 57.1083 14.8075C58.4797 12.285 61.5804 10.8012 64.6214 11.1933C67.7578 11.5961 70.2264 13.6947 70.775 16.4504C71.252 18.8563 70.3934 20.8595 68.378 22.4811C68.0321 22.7567 67.8532 23.0322 67.889 23.4456C67.9248 24.0073 67.901 24.5691 67.901 25.1202C67.8771 26.9538 66.3268 28.3317 64.2756 28.3528C64.204 28.3528 64.1205 28.3422 64.049 28.3528C60.9364 28.639 59.1237 26.8902 59.4338 24.3147ZM65.4562 22.958C65.5278 21.7286 65.5278 21.7286 66.613 20.9761C68.4734 19.683 69.022 17.4678 67.9248 15.6236C66.8396 13.7794 64.4545 12.8891 62.2244 13.5251C60.2924 14.0762 59.1595 15.2951 58.8852 17.0651C58.6228 18.7291 59.3384 20.107 60.8768 21.0714C61.5685 21.506 61.9501 21.9723 61.8428 22.7249C61.8308 22.7991 61.8785 22.8838 61.9024 22.958C63.1069 22.958 64.2517 22.958 65.4562 22.958ZM61.9262 25.152C62.0574 26.0529 62.451 26.2543 64.0132 26.2119C64.9315 26.1907 65.3131 25.8939 65.3847 25.152C64.2398 25.152 63.083 25.152 61.9262 25.152Z" fill="#012D3A"/>
<path d="M56.9175 9.44452C57.3945 9.86847 57.9312 10.356 58.4917 10.8542C57.9312 11.3417 57.3826 11.8293 56.8579 12.2956C56.3093 11.8187 55.7607 11.3417 55.2002 10.8542C55.7368 10.409 56.2973 9.95326 56.9175 9.44452Z" fill="#012D3A"/>
<path d="M64.8243 10.0486C64.0253 10.0486 63.2739 10.0486 62.4988 10.0486C62.4988 9.35972 62.4988 8.70259 62.4988 7.98187C63.2501 7.98187 64.0133 7.98187 64.8243 7.98187C64.8243 8.6496 64.8243 9.32793 64.8243 10.0486Z" fill="#012D3A"/>
<path d="M55.1526 17.5844C54.3655 17.5844 53.6262 17.5844 52.8271 17.5844C52.8271 16.8955 52.8271 16.2277 52.8271 15.507C53.5904 15.507 54.3536 15.507 55.1526 15.507C55.1526 16.1853 55.1526 16.8425 55.1526 17.5844Z" fill="#012D3A"/>
<path d="M74.5076 17.5844C73.7205 17.5844 72.9811 17.5844 72.1821 17.5844C72.1821 16.9061 72.1821 16.2277 72.1821 15.507C72.9454 15.507 73.6967 15.507 74.5076 15.507C74.5076 16.1853 74.5076 16.8425 74.5076 17.5844Z" fill="#012D3A"/>
<path d="M40.6272 24.0285C39.8282 24.0285 39.0888 24.0285 38.3018 24.0285C38.3018 23.3396 38.3018 22.6825 38.3018 21.9617C39.0531 21.9617 39.8044 21.9617 40.6272 21.9617C40.6272 22.6295 40.6272 23.3078 40.6272 24.0285Z" fill="#012D3A"/>
<path d="M45.4808 24.0285C44.7056 24.0285 43.9543 24.0285 43.1672 24.0285C43.1672 23.3502 43.1672 22.6719 43.1672 21.9512C43.9305 21.9512 44.6818 21.9512 45.4808 21.9512C45.4808 22.6295 45.4808 23.2972 45.4808 24.0285Z" fill="#012D3A"/>
<path d="M50.3347 21.9724C50.3347 22.6613 50.3347 23.3184 50.3347 24.0179C49.5476 24.0179 48.7844 24.0179 47.9854 24.0179C47.9854 23.3396 47.9854 22.6825 47.9854 21.9724C48.7247 21.9724 49.488 21.9724 50.3347 21.9724Z" fill="#012D3A"/>
<path d="M50.3106 28.3317C49.5474 28.3317 48.7961 28.3317 47.9971 28.3317C47.9971 27.6639 47.9971 26.9856 47.9971 26.2649C48.7484 26.2649 49.4997 26.2649 50.3106 26.2649C50.3106 26.9432 50.3106 27.6215 50.3106 28.3317Z" fill="#012D3A"/>
<path d="M47.9971 30.5468C48.7961 30.5468 49.5355 30.5468 50.3226 30.5468C50.3226 31.2357 50.3226 31.8929 50.3226 32.6136C49.5712 32.6136 48.8199 32.6136 47.9971 32.6136C47.9971 31.9459 47.9971 31.2781 47.9971 30.5468Z" fill="#012D3A"/>
<path d="M55.1407 32.6348C54.3417 32.6348 53.6023 32.6348 52.8152 32.6348C52.8152 31.9458 52.8152 31.2887 52.8152 30.568C53.5665 30.568 54.3178 30.568 55.1407 30.568C55.1407 31.2251 55.1407 31.9034 55.1407 32.6348Z" fill="#012D3A"/>
<path d="M57.657 32.6241C57.657 31.9352 57.657 31.2675 57.657 30.5574C58.4202 30.5574 59.1835 30.5574 59.9944 30.5574C59.9944 31.2357 59.9944 31.9034 59.9944 32.6241C59.2312 32.6241 58.4798 32.6241 57.657 32.6241Z" fill="#012D3A"/>
<path d="M62.4988 32.6242C62.4988 31.9352 62.4988 31.2781 62.4988 30.568C63.262 30.568 64.0133 30.568 64.8243 30.568C64.8243 31.2357 64.8243 31.914 64.8243 32.6242C64.073 32.6242 63.3336 32.6242 62.4988 32.6242Z" fill="#012D3A"/>
<path d="M68.8669 10.8542C69.4155 10.356 69.9402 9.87907 70.4769 9.38092C71.0016 9.88966 71.5264 10.3878 72.0034 10.8542C71.5502 11.2675 71.0016 11.7657 70.4292 12.2744C69.9522 11.8399 69.4036 11.3523 68.8669 10.8542Z" fill="#012D3A"/>
<path d="M32.959 25.8303C32.5416 26.4556 32.172 27.028 31.8023 27.6003C28.642 26.4768 26.4954 27.5897 26.1734 30.4726C25.4459 30.4726 24.7065 30.4726 23.8837 30.4726C23.9791 29.1795 23.4186 28.2786 22.0829 27.6003C20.7592 26.9326 19.6143 26.8266 18.3502 27.6745C17.9328 27.0492 17.5512 26.4768 17.1338 25.8409C17.5393 25.6289 17.9209 25.4169 18.3025 25.2262C18.9346 24.9294 19.185 24.4948 19.0896 23.8483C19.018 23.3184 18.9942 22.7672 19.0777 22.2479C19.1969 21.5166 18.9346 21.0396 18.2071 20.711C17.8493 20.5521 17.5273 20.3507 17.1338 20.1493C17.5393 19.5346 17.909 18.9622 18.3263 18.3157C19.5666 19.1212 20.7234 19.0788 22.0471 18.4005C23.3709 17.7222 24.0029 16.8531 23.8717 15.507C24.6827 15.507 25.4221 15.507 26.1615 15.507C26.5908 18.4535 28.7851 19.5982 31.7784 18.3687C32.1481 18.9304 32.5297 19.5028 32.9471 20.1387C32.5416 20.3613 32.1481 20.5945 31.7426 20.7852C31.1702 21.0608 30.9317 21.4636 30.9794 22.0465C31.0271 22.5976 31.0748 23.17 30.9913 23.7211C30.884 24.5054 31.1702 25.0142 31.9692 25.3321C32.3031 25.4487 32.5893 25.6395 32.959 25.8303ZM20.2702 22.905C20.2583 25.3215 22.4287 27.2717 25.1359 27.2611C27.7595 27.2505 29.9419 25.3215 29.9538 22.9898C29.9657 20.5521 27.831 18.6125 25.1239 18.6019C22.4526 18.6019 20.2821 20.5309 20.2702 22.905Z" fill="#04A2D8"/>
<path d="M65.4563 22.9581C64.2637 22.9581 63.1069 22.9581 61.9263 22.9581C61.9025 22.8839 61.8547 22.7991 61.8667 22.7249C61.974 21.9724 61.5924 21.506 60.9007 21.0715C59.3623 20.107 58.6468 18.7291 58.9091 17.0651C59.1834 15.2951 60.3163 14.0868 62.2483 13.5251C64.4784 12.8892 66.8635 13.7795 67.9487 15.6237C69.034 17.4679 68.4973 19.6936 66.6369 20.9761C65.5278 21.7286 65.5278 21.7286 65.4563 22.9581Z" fill="#04A2D8"/>
<path d="M61.9263 25.152C63.0831 25.152 64.2398 25.152 65.3966 25.152C65.3251 25.9045 64.9434 26.1907 64.0252 26.2119C62.451 26.2543 62.0575 26.0529 61.9263 25.152Z" fill="#04A2D8"/>
<path d="M20.2701 22.9051C20.282 20.5309 22.4644 18.6019 25.1238 18.6125C27.8309 18.6231 29.9656 20.5627 29.9536 23.0004C29.9417 25.3322 27.7593 27.2612 25.1357 27.2718C22.4286 27.2718 20.2581 25.3322 20.2701 22.9051ZM25.1238 20.8171C23.7881 20.8171 22.7148 21.7392 22.691 22.9051C22.6671 24.0921 23.7523 25.0566 25.1357 25.0672C26.4117 25.0778 27.5447 24.0815 27.5328 22.9263C27.5208 21.771 26.4356 20.8171 25.1238 20.8171Z" fill="#012D3A"/>
<path d="M25.1239 20.817C26.4357 20.817 27.5328 21.7815 27.5328 22.9368C27.5328 24.0921 26.4118 25.0884 25.1358 25.0778C23.7644 25.0672 22.6672 24.1027 22.6911 22.9156C22.7149 21.7391 23.7882 20.8064 25.1239 20.817Z" fill="#04A2D8"/>
</g>
<defs>
<clipPath id="clip0_254_706">
<rect width="75" height="66.6667" fill="white" transform="translate(6.81812 3.63635)"/>
</clipPath>
</defs>
</svg>
