<svg width="81" height="73" viewBox="0 0 81 73" fill="none" xmlns="http://www.w3.org/2000/svg">
<path d="M38.8358 73C57.0612 73 71.8358 58.2254 71.8358 40C71.8358 21.7746 57.0612 7 38.8358 7C20.6104 7 5.83582 21.7746 5.83582 40C5.83582 58.2254 20.6104 73 38.8358 73Z" fill="#E5E5E5"/>
<g clip-path="url(#clip0_13_269)">
<path d="M59.5957 26.6764C58.7183 26.67 57.8387 26.6658 56.9613 26.6594C56.6273 25.6205 56.3355 25.3979 55.2552 25.3979C42.24 25.3979 29.2249 25.4 16.2098 25.3915C15.9455 25.3915 15.5649 25.5781 15.4275 25.2558C15.3133 24.9908 15.5734 24.7067 15.7404 24.4841C16.5036 23.4664 17.4635 22.8176 18.8018 22.8197C33.2652 22.8282 47.7307 22.8261 62.194 22.8239C63.693 22.8239 64.7163 23.5915 65.4584 24.8233C65.7079 25.2367 65.6444 25.4233 65.1053 25.4127C63.7628 25.3852 62.4181 25.3915 61.0735 25.4C60.1496 25.4064 59.7563 25.7562 59.5957 26.6764Z" fill="#2661AE"/>
<path d="M44.3014 17.7715C44.3077 12.8675 44.3077 7.96341 44.3288 3.05937C44.331 2.55052 44.1893 2.36182 43.6629 2.37666C42.1914 2.4127 40.7199 2.39998 39.2463 2.40846C38.5887 2.39998 37.9312 2.41058 37.2737 2.37878C36.8191 2.35546 36.6796 2.54416 36.6881 2.98092C36.7071 4.19368 36.6944 5.40856 36.6944 6.62344C36.6944 9.73803 36.6986 12.8526 36.6923 15.9651C36.6902 17.1079 36.3646 17.515 35.3815 17.6528C35.3963 18.5348 35.4111 19.4189 35.4259 20.3009C38.1574 20.3052 40.889 20.2946 43.6206 20.3242C44.1935 20.3306 44.35 20.1207 44.3162 19.5885C44.2802 18.9864 44.3035 18.3779 44.3014 17.7715Z" fill="#2661AE"/>
<path d="M73.5389 36.6329C73.4882 31.9175 69.7249 28.1096 65.0355 27.9019C63.7205 27.8446 62.4012 27.8828 61.0841 27.8616C60.1327 27.8446 59.8198 27.5817 59.5978 26.6764C58.7204 26.67 57.8408 26.6658 56.9634 26.6594C56.6061 27.6898 56.3524 27.8637 55.1389 27.8637C44.1069 27.8658 33.0727 27.8616 22.0407 27.8658C19.9604 27.8658 17.88 27.8425 15.8017 27.9146C13.5818 27.993 11.6895 28.8878 10.1356 30.4864C8.29409 32.2441 7.46954 34.447 7.45686 36.9467C7.42514 42.79 7.43994 48.6333 7.45263 54.4766C7.45686 56.1112 7.82262 57.6696 8.67042 59.0838C10.4992 62.1348 13.2435 63.5935 16.7467 63.6062C24.8928 63.6316 33.041 63.6147 41.1871 63.6147C48.885 63.6147 56.585 63.6253 64.2829 63.6083C66.8284 63.6019 69.0885 62.826 70.8877 60.9326C72.651 59.2661 73.5114 57.1608 73.5368 54.7904C73.596 48.7372 73.6023 42.684 73.5389 36.6329ZM65.8495 30.5055C67.894 30.4991 69.6128 32.2356 69.6022 34.2964C69.5917 36.317 67.9066 38.0131 65.8791 38.0407C63.8389 38.0683 62.1433 36.3424 62.1496 34.2477C62.1581 32.1932 63.8199 30.5118 65.8495 30.5055ZM43.5107 39.4104C45.83 39.404 48.1493 39.387 50.4664 39.4167C52.2889 39.44 53.6335 40.3941 54.1769 41.9631C54.6843 43.4282 54.2424 45.012 53.0437 46.0445C52.3206 46.6678 51.4432 46.8841 50.3734 46.9986C51.439 47.8573 52.3946 48.6269 53.3524 49.3987C53.5574 49.564 53.7689 49.7231 53.957 49.9075C54.4623 50.3994 54.5448 50.9528 54.1198 51.5358C53.7118 52.0913 53.0542 52.1995 52.4517 51.7394C51.1958 50.7789 49.9738 49.7739 48.737 48.788C48.2211 48.3767 47.7095 47.9633 47.1915 47.5541C46.5657 47.0558 46.3395 46.4028 46.5742 45.6523C46.8152 44.8847 47.4241 44.537 48.2085 44.5179C48.9463 44.4989 49.6842 44.5243 50.422 44.5052C51.4115 44.4798 51.9464 44.007 51.9485 43.1822C51.9506 42.3553 51.4073 41.874 50.4263 41.8698C48.608 41.8613 46.7898 41.8974 44.9716 41.8507C44.3415 41.8338 44.2443 42.0649 44.2506 42.6225C44.2781 45.1858 44.2612 47.7491 44.2633 50.3125C44.2633 50.6305 44.2675 50.9464 44.1407 51.2475C43.9335 51.733 43.5529 52.0171 43.0434 52.015C42.5001 52.0129 42.0814 51.7288 41.9208 51.1839C41.8404 50.9104 41.8151 50.6135 41.8151 50.3273C41.8087 47.2615 41.8087 44.1978 41.8108 41.132C41.815 39.8153 42.2104 39.4125 43.5107 39.4104ZM26.1381 39.5142C26.802 39.2768 27.4151 39.5609 27.7005 40.3115C28.6836 42.8939 29.6604 45.4784 30.6076 48.0735C30.9099 48.8983 31.3031 49.6022 32.2841 49.5852C33.2186 49.5704 33.5992 48.8983 33.891 48.0926C34.8233 45.5208 35.798 42.9638 36.7578 40.4005C36.9946 39.7687 37.4006 39.3658 38.1215 39.457C38.7219 39.5312 39.0687 39.9129 39.1363 40.5001C39.1638 40.7482 39.1004 41.0281 39.0116 41.2677C37.9925 44.0049 36.9777 46.7442 35.9248 49.4686C35.3223 51.0312 33.8487 52.0235 32.0727 52.0235C30.5843 51.8899 29.2608 51.1669 28.6287 49.5534C27.5314 46.7632 26.506 43.9434 25.4658 41.1299C25.1994 40.4047 25.4975 39.7432 26.1381 39.5142ZM15.1167 30.5034C17.1632 30.4737 18.8567 32.191 18.8504 34.2901C18.844 36.3509 17.1844 38.0322 15.1568 38.0386C13.1145 38.0428 11.3914 36.3085 11.3999 34.2519C11.4062 32.2313 13.0891 30.533 15.1167 30.5034ZM11.0637 57.9919C11.1652 58.1085 11.2751 58.2187 11.3956 58.3247C11.2751 58.2209 11.1631 58.1085 11.0637 57.9919ZM10.5013 57.1035C10.6113 57.3558 10.7529 57.5954 10.9221 57.8201C10.7529 57.5954 10.6113 57.3558 10.5013 57.1035ZM11.6388 58.524C11.6261 58.5156 11.6155 58.505 11.605 58.4965C11.6155 58.5071 11.6261 58.5156 11.6388 58.524C10.8417 56.3869 12.068 54.3069 13.8291 53.6497C15.734 52.9373 17.9159 53.9295 18.6369 55.8314C19.3557 57.7268 18.436 59.8407 16.5543 60.6188C16.3387 60.7079 16.1188 60.7905 15.9011 60.8775C13.7826 61.0259 12.569 60.3559 11.6388 58.524ZM64.0799 60.9241C64.4203 60.9241 64.7628 60.8944 65.1032 60.8775C62.156 59.9488 61.7987 57.5021 62.3462 55.9098C62.9277 54.2158 64.5197 53.2744 66.4055 53.4652C67.9616 53.6221 69.3253 54.9918 69.5811 56.6519C69.8285 58.2675 68.858 59.9573 67.3041 60.6125C67.0884 60.7036 66.8643 60.7778 66.6445 60.8605C66.1307 60.8669 65.6191 60.8711 65.1053 60.8754C64.7628 60.8944 64.4224 60.9241 64.0799 60.9241Z" fill="#C8EAF7"/>
<path d="M5.06357 43.1526C5.06357 44.2084 5.04877 45.2664 5.06992 46.3223C5.07837 46.7718 4.97478 46.9774 4.46313 46.9901C2.75062 47.0368 2.3764 46.6954 2.3764 44.9526C2.3764 43.6063 2.36583 42.2578 2.38063 40.9115C2.39543 39.5991 3.66396 38.8167 4.84792 39.3659C5.14814 39.5058 5.05723 39.7645 5.05934 39.9807C5.06992 41.0387 5.06357 42.0967 5.06357 43.1526Z" fill="#2661AE"/>
<path d="M75.9386 43.1017C75.9386 42.0734 75.9576 41.0451 75.9301 40.0189C75.9174 39.5312 76.0295 39.3235 76.575 39.3171C78.2367 39.3022 78.6258 39.6563 78.6258 41.3249C78.6258 42.6946 78.6385 44.0664 78.6215 45.436C78.6046 46.7272 77.3086 47.5117 76.1479 46.9604C75.8519 46.8184 75.9449 46.5597 75.9428 46.3435C75.9322 45.2643 75.9386 44.183 75.9386 43.1017Z" fill="#2661AE"/>
<path d="M50.3755 46.9965C51.4411 47.8552 52.3967 48.6248 53.3544 49.3966C53.5595 49.562 53.7709 49.721 53.9591 49.9055C54.4644 50.3973 54.5469 50.9507 54.1219 51.5338C53.7139 52.0893 53.0563 52.1974 52.4538 51.7373C51.1979 50.7769 49.9759 49.7719 48.7391 48.786C48.2232 48.3747 47.7116 47.9612 47.1936 47.552C46.5678 47.0538 46.3416 46.4008 46.5762 45.6502C46.8173 44.8827 47.4262 44.535 48.2105 44.5159C48.9484 44.4968 49.6863 44.5222 50.4241 44.5032C51.4136 44.4777 51.9485 44.0049 51.9506 43.1802C51.9527 42.3533 51.4094 41.872 50.4284 41.8677C48.6101 41.8593 46.7919 41.8953 44.9737 41.8487C44.3436 41.8317 44.2464 42.0628 44.2527 42.6204C44.2802 45.1838 44.2633 47.7471 44.2654 50.3104C44.2654 50.6284 44.2696 50.9444 44.1428 51.2454C43.9356 51.731 43.555 52.0151 43.0455 52.0129C42.5021 52.0108 42.0835 51.7267 41.9228 51.1818C41.8425 50.9083 41.8171 50.6115 41.8171 50.3253C41.8108 47.2594 41.8108 44.1957 41.8129 41.1299C41.815 39.8217 42.2104 39.4189 43.5106 39.4147C45.8299 39.4083 48.1492 39.3913 50.4664 39.421C52.2889 39.4443 53.6335 40.3984 54.1769 41.9674C54.6843 43.4325 54.2424 45.0163 53.0436 46.0488C52.3227 46.6658 51.4453 46.882 50.3755 46.9965Z" fill="#012D3A"/>
<path d="M32.0748 52.0256C30.5864 51.892 29.2629 51.169 28.6308 49.5556C27.5335 46.7654 26.5081 43.9455 25.4679 41.132C25.1994 40.4047 25.4975 39.7432 26.1381 39.5142C26.802 39.2768 27.4151 39.5609 27.7005 40.3114C28.6836 42.8939 29.6604 45.4784 30.6076 48.0735C30.9099 48.8983 31.3032 49.6022 32.2842 49.5852C33.2186 49.5704 33.5992 48.8983 33.891 48.0926C34.8233 45.5208 35.798 42.9638 36.7578 40.4005C36.9946 39.7687 37.4006 39.3658 38.1215 39.457C38.722 39.5312 39.0687 39.9128 39.1363 40.5001C39.1638 40.7482 39.1004 41.0281 39.0116 41.2677C37.9925 44.0048 36.9777 46.7442 35.9248 49.4686C35.3223 51.0312 33.8487 52.0235 32.0748 52.0256Z" fill="#012D3A"/>
<path d="M62.1518 34.2477C62.1602 32.1932 63.8199 30.5119 65.8495 30.5055C67.894 30.4991 69.6128 32.2356 69.6023 34.2964C69.5917 36.317 67.9067 38.0132 65.8791 38.0407C63.841 38.0683 62.1433 36.3424 62.1518 34.2477ZM67.2069 34.3304C67.247 33.6349 66.6762 33.0137 65.9637 32.9734C65.1709 32.931 64.5768 33.4505 64.5451 34.2116C64.5155 34.9495 65.0356 35.5262 65.7671 35.5686C66.5451 35.6152 67.1646 35.0809 67.2069 34.3304Z" fill="#012D3A"/>
<path d="M18.8504 34.2922C18.844 36.353 17.1844 38.0344 15.1568 38.0407C13.1145 38.045 11.3914 36.3106 11.3999 34.254C11.4083 32.2335 13.0912 30.5352 15.1167 30.5055C17.1632 30.4758 18.8567 32.1932 18.8504 34.2922ZM15.1547 32.9713C14.3894 32.9628 13.7805 33.5565 13.7953 34.2943C13.8101 35.0003 14.3957 35.5707 15.1188 35.577C15.8989 35.5834 16.4698 35.0194 16.4571 34.2519C16.4465 33.512 15.9032 32.9798 15.1547 32.9713Z" fill="#012D3A"/>
<path d="M66.6423 60.8627C66.1286 60.8669 65.6169 60.8733 65.1032 60.8775C62.1559 59.9489 61.7986 57.5022 62.3462 55.9099C62.9276 54.2158 64.5196 53.2745 66.4055 53.4653C67.9616 53.6222 69.3253 54.9918 69.5811 56.652C69.8285 58.2676 68.858 59.9574 67.3041 60.6125C67.0863 60.7037 66.8643 60.78 66.6423 60.8627ZM65.8643 58.5114C66.581 58.5071 67.228 57.8393 67.2068 57.1248C67.1857 56.4357 66.5641 55.8441 65.8643 55.842C65.1011 55.842 64.5239 56.4378 64.5471 57.199C64.5662 57.9029 65.1835 58.5156 65.8643 58.5114Z" fill="#012D3A"/>
<path d="M15.901 60.8775C13.7826 61.0259 12.569 60.3559 11.6388 58.5241C10.8417 56.3869 12.068 54.307 13.8291 53.6497C15.734 52.9373 17.9159 53.9296 18.6368 55.8314C19.3557 57.7269 18.436 59.8407 16.5543 60.6188C16.3387 60.71 16.1188 60.7927 15.901 60.8775ZM15.1378 55.842C14.438 55.8441 13.8185 56.4357 13.7974 57.1247C13.7762 57.8392 14.4211 58.505 15.1399 58.5092C15.8524 58.5135 16.4761 57.8541 16.4592 57.1205C16.438 56.3954 15.8672 55.842 15.1378 55.842Z" fill="#012D3A"/>
<path d="M67.2068 34.3304C67.1645 35.0809 66.5451 35.6152 65.767 35.5707C65.0334 35.5283 64.5154 34.9516 64.545 34.2137C64.5767 33.4526 65.1708 32.931 65.9637 32.9755C66.6762 33.0137 67.2449 33.6349 67.2068 34.3304Z" fill="#04A2D8"/>
<path d="M15.1548 32.9713C15.9032 32.9798 16.4465 33.5119 16.4571 34.2498C16.4698 35.0173 15.899 35.5813 15.1188 35.5749C14.3957 35.5685 13.8101 35.0003 13.7953 34.2922C13.7805 33.5565 14.3894 32.9628 15.1548 32.9713Z" fill="#04A2D8"/>
<path d="M65.8643 58.5113C65.1835 58.5156 64.5683 57.9028 64.5471 57.2011C64.5239 56.4378 65.1032 55.842 65.8643 55.8441C66.5641 55.8441 67.1857 56.4378 67.2068 57.1268C67.228 57.8392 66.581 58.5071 65.8643 58.5113Z" fill="#04A2D8"/>
<path d="M15.1378 55.842C15.8672 55.8399 16.4402 56.3933 16.4571 57.1205C16.4761 57.8541 15.8503 58.5135 15.1378 58.5093C14.419 58.505 13.772 57.8393 13.7953 57.1248C13.8164 56.4378 14.438 55.8442 15.1378 55.842Z" fill="#04A2D8"/>
<path d="M35.3816 21.7872C34.5697 21.7193 34.2124 21.2084 34.2103 20.4621C34.1976 15.8358 34.1828 7.07718 34.2188 2.45089C34.2314 1.00703 35.3414 0.0126478 36.7875 0.0062872C39.2125 -0.00431385 41.6376 -7.34313e-05 44.0626 0.00416699C45.7751 0.0084074 46.792 1.03247 46.7963 2.7774C46.8047 6.2397 46.7984 9.702 46.7984 13.1664C46.7984 15.2273 46.8322 17.2902 46.7815 19.3511C46.7624 20.1037 46.8935 20.3603 47.735 20.3518C52.3207 20.3009 56.9065 20.3264 61.4943 20.3285C65.1265 20.3306 67.3803 22.0946 68.2366 25.6099C68.3084 25.9025 68.412 26.0891 68.7355 26.2312C73.1564 28.1754 75.6067 31.5465 75.9196 36.406C75.9514 36.9128 76.2051 36.8661 76.5243 36.8555C77.8922 36.8068 79.1269 37.0887 80.0995 38.1616C80.5075 38.6111 80.6259 39.2111 81.0022 39.6648C81.0022 41.9907 81.0022 44.3187 81.0022 46.6445C80.6682 47.1364 80.5117 47.7258 80.0995 48.1796C79.1755 49.1973 78.0127 49.581 76.6871 49.4708C76.0486 49.4178 75.9302 49.6446 75.9218 50.2468C75.8964 52.3309 76.0782 54.4193 75.7864 56.5014C75.1374 61.1255 71.0485 65.2091 66.4204 65.8515C65.7397 65.9469 65.061 65.9999 64.376 65.9999C48.4517 65.9978 32.5295 66.0042 16.6052 65.9957C11.0363 65.9935 6.59224 62.4401 5.31525 57.0187C4.91567 55.3225 5.11863 53.5988 5.06789 51.8857C5.06366 51.7542 5.06789 51.6207 5.06789 51.4892C5.06578 50.8807 5.26663 50.1598 5.00869 49.6934C4.70425 49.1421 3.91776 49.5556 3.34692 49.4729C1.36378 49.1845 0.010676 47.6453 0.00433338 45.6077C0.000104941 44.0218 0.00221916 42.4359 0.00433338 40.8479C0.0064476 38.5432 1.41875 37.0251 3.71056 36.8619C3.91987 36.847 4.13552 36.8237 4.34271 36.8555C4.91355 36.9424 5.04886 36.7474 5.10172 36.1474C5.50131 31.5147 7.83118 28.2199 12.0765 26.3244C12.4677 26.1506 12.7045 25.964 12.7996 25.5124C13.4656 22.3363 15.899 20.3391 19.138 20.3285C24.358 20.3115 29.578 20.3243 34.7981 20.3221C35.0095 20.3221 35.2188 20.3052 35.4302 20.2967C38.1618 20.3009 40.8934 20.2903 43.6249 20.32C44.1979 20.3264 44.3543 20.1165 44.3205 19.5843C44.2824 18.98 44.3078 18.3737 44.3036 17.7673C44.3099 12.8632 44.3099 7.95919 44.3311 3.05515C44.3332 2.5463 44.1915 2.3576 43.6651 2.37244C42.1936 2.40848 40.7221 2.39576 39.2485 2.40424C38.591 2.39576 37.9334 2.40636 37.2759 2.37456C36.8214 2.35124 36.6818 2.53994 36.6903 2.9767C36.7093 4.18946 36.6966 5.40434 36.6966 6.61922C36.6966 9.73381 36.7009 16.9807 36.6945 20.0953C36.6903 21.2423 36.3626 21.6494 35.3816 21.7872ZM70.8836 60.9305C72.6468 59.264 73.5073 57.1586 73.5327 54.7882C73.594 48.7372 73.6025 42.684 73.5369 36.6329C73.4862 31.9176 69.7229 28.1097 65.0335 27.9019C63.7185 27.8446 62.3992 27.8828 61.082 27.8616C60.1306 27.8446 59.8177 27.5817 59.5957 26.6764C59.7543 25.7583 60.1476 25.4064 61.0757 25.4C62.4203 25.3916 63.7629 25.3831 65.1075 25.4128C65.6466 25.4234 65.7101 25.2368 65.4606 24.8233C64.7185 23.5915 63.6952 22.824 62.1962 22.824C47.7329 22.8261 33.2674 22.8282 18.804 22.8197C17.4657 22.8197 16.5058 23.4664 15.7426 24.4841C15.5756 24.7067 15.3155 24.9908 15.4297 25.2559C15.5671 25.5781 15.9477 25.3916 16.2119 25.3916C29.2271 25.4 48.3439 25.3958 61.359 25.3979C62.4394 25.3979 62.7311 25.6205 63.0652 26.6594C62.7079 27.6899 62.4542 27.8637 61.2406 27.8637C50.2086 27.8658 33.0729 27.8616 22.0409 27.8658C19.9605 27.8658 17.8801 27.8425 15.8018 27.9146C13.5819 27.993 11.6896 28.8878 10.1357 30.4864C8.29419 32.2441 7.46965 34.447 7.45696 36.9467C7.42525 42.79 7.44005 48.6333 7.45273 54.4766C7.45696 56.1113 7.82272 57.6696 8.67052 59.0838C10.4993 62.1348 13.2436 63.5935 16.7468 63.6062C24.8929 63.6316 33.0411 63.6147 41.1872 63.6147C48.8851 63.6147 56.5851 63.6253 64.283 63.6083C66.8243 63.5998 69.0865 62.8238 70.8836 60.9305ZM5.06366 43.1525C5.06366 42.0967 5.07001 41.0387 5.05943 39.9828C5.05732 39.7644 5.14823 39.5058 4.84801 39.368C3.66405 38.8167 2.39552 39.5991 2.38072 40.9136C2.36592 42.2599 2.37649 43.6084 2.37649 44.9547C2.37649 46.6954 2.75071 47.0368 4.46322 46.9922C4.97487 46.9795 5.07846 46.7739 5.07 46.3244C5.04886 45.2664 5.06366 44.2084 5.06366 43.1525ZM75.9387 43.1017C75.9387 44.183 75.9323 45.2621 75.9429 46.3435C75.945 46.5597 75.852 46.8205 76.148 46.9604C77.3066 47.5138 78.6047 46.7272 78.6216 45.436C78.6385 44.0664 78.6258 42.6967 78.6258 41.3249C78.6258 39.6563 78.2368 39.3022 76.575 39.3171C76.0296 39.3213 75.9154 39.5291 75.9302 40.0189C75.9577 41.0472 75.9387 42.0755 75.9387 43.1017Z" fill="#012D3A"/>
</g>
<defs>
<clipPath id="clip0_13_269">
<rect width="81" height="66" fill="white"/>
</clipPath>
</defs>
</svg>
