<svg width="90" height="80" viewBox="0 0 90 80" fill="none" xmlns="http://www.w3.org/2000/svg">
<path d="M45 80C69.8528 80 90 62.0914 90 40C90 17.9086 69.8528 0 45 0C20.1472 0 0 17.9086 0 40C0 62.0914 20.1472 80 45 80Z" fill="#E5E5E5"/>
<path d="M23.4458 28.4846C23.5223 28.5072 23.5903 28.5299 23.6668 28.545C23.5903 28.5223 23.5138 28.5072 23.4458 28.4846Z" fill="white"/>
<path d="M83.2738 61.4447C82.1008 56.7826 77.9184 53.7979 72.4185 53.7903C54.1505 53.7677 35.8825 53.7828 17.606 53.7828C14.2567 53.7828 11.443 54.8482 9.19878 57.0697C6.52106 59.7144 5.72199 63.9232 7.32012 66.923C7.32862 66.991 7.32862 67.0665 7.35413 67.127C9.02876 70.6633 12.9731 73.0132 17.2999 73.0208C21.0487 73.0283 24.8061 73.0435 28.5549 73.0132C29.4474 73.0057 30.0425 73.2399 30.289 74.0333C31.0456 74.0333 31.8106 74.0333 32.5672 74.0333C32.8137 73.2475 33.4003 73.0132 34.2928 73.0132C46.8314 73.0283 59.3699 73.0283 71.9084 73.0283C72.733 73.0283 73.5575 73.0283 74.3736 72.8923C78.3434 72.2198 81.1742 70.2854 82.6958 66.923C83.5884 65.1473 83.7499 63.3111 83.2738 61.4447ZM69.8172 71.4642C53.4704 71.4642 37.1236 71.4642 20.7682 71.4642C18.9406 71.4642 17.0959 71.5549 15.2938 71.162C12.7776 70.3459 10.8139 68.9707 9.65782 66.7718C6.9716 61.6714 11.0094 55.6794 17.3339 55.4073C17.9205 55.3847 18.507 55.3771 19.0851 55.3771C31.7766 55.3771 44.4682 55.3771 57.1597 55.3771C58.4008 55.3771 58.6388 55.5207 58.9279 56.4048C59.7099 56.4048 60.492 56.4048 61.2825 56.4048C61.4356 55.7323 61.8691 55.3771 62.6597 55.3771C65.9579 55.3922 69.2647 55.3242 72.563 55.4225C76.8983 55.5434 80.4856 58.4525 81.0977 62.2003C81.7267 66.0313 79.27 69.681 75.1642 71.0033C74.9687 71.0637 74.7732 71.1393 74.5691 71.2073C73.005 71.502 71.4154 71.4642 69.8172 71.4642Z" fill="#2661AE"/>
<path d="M70.7522 38.5191C70.7522 38.0431 70.4802 38.0582 70.1062 38.0582C68.083 38.0657 66.0599 38.0808 64.0367 38.0506C63.4416 38.0431 63.3481 38.2395 63.3566 38.708C63.3821 40.3401 63.3736 41.9723 63.3651 43.6044C63.3566 44.8663 62.5661 45.4255 61.308 44.8436C59.1828 43.8689 57.1851 43.9067 55.06 44.8436C53.7849 45.4103 53.0113 44.8663 53.0028 43.6044C52.9943 41.9496 52.9943 40.2948 53.0028 38.64C53.0028 38.3151 53.0368 38.0506 52.4928 38.0582C50.3676 38.0809 48.2339 38.0733 46.1087 38.0582C45.7007 38.0582 45.6242 38.2093 45.6327 38.5191C45.6497 42.3954 45.6582 46.2793 45.6667 50.1556C45.6582 50.2765 45.6327 50.3899 45.6412 50.5108C45.6582 51.8406 45.4542 51.6064 46.8313 51.6064C54.2949 51.614 61.7585 51.614 69.2306 51.614C70.8033 51.614 70.8033 51.614 70.7097 50.1556C70.7267 46.2793 70.7267 42.3954 70.7522 38.5191Z" fill="#04A2D8"/>
<path d="M61.3165 9.35982C58.5623 8.78555 58.5198 8.78555 55.077 9.34471C55.077 8.55886 55.026 7.78058 55.0855 7.00985C55.196 5.67241 56.6496 4.5692 58.2052 4.57676C59.7949 4.58432 61.223 5.74041 61.308 7.10808C61.3505 7.84103 61.3165 8.57398 61.3165 9.35982Z" fill="#2661AE"/>
<path d="M52.5182 8.29459C52.2546 8.27947 51.9911 8.2568 51.7276 8.2568C45.3011 8.2568 38.8746 8.27192 32.448 8.24169C31.615 8.23414 31.4194 8.46838 31.649 9.11821C31.632 10.2063 31.632 10.2063 32.9326 10.2063C39.1551 10.2063 45.3861 10.2063 51.6086 10.2063C51.8211 10.2063 52.0336 10.2063 52.2461 10.2063C52.4587 10.2063 52.6457 10.1458 52.6202 9.93428C52.5692 9.38267 52.8327 8.82352 52.5182 8.29459Z" fill="white"/>
<path d="M32.7371 49.9744C31.7256 47.7075 28.8863 46.0678 26.0131 46.0981C22.9953 46.1283 20.1986 47.7982 19.238 50.1255C19.1445 50.3144 19.034 50.5033 18.966 50.6998C18.6345 51.6065 18.6345 51.6065 19.6716 51.6065C23.6839 51.6065 27.6877 51.6065 31.7001 51.6065C33.6722 51.6141 33.6722 51.6141 32.7371 49.9744Z" fill="#2661AE"/>
<path d="M64.1811 15.1933C63.3651 12.2161 59.7268 10.4026 56.4115 11.3018C53.0962 12.201 51.2176 15.3822 52.3397 18.2006C53.0622 20.7999 56.4115 22.5832 59.4207 21.956C61.7329 21.4724 63.3566 20.2786 64.0366 18.2006C64.0366 18.2006 64.0366 18.2006 64.0281 18.2082C64.0111 18.0948 64.0366 17.9966 64.1556 17.921C64.4702 17.0143 64.4277 16.1 64.1811 15.1933ZM58.2391 12.9264C60.5258 12.9415 62.294 14.5434 62.294 16.5836C62.2855 18.6162 60.5088 20.2106 58.2136 20.2257C55.893 20.2408 54.0738 18.6238 54.0823 16.5609C54.0908 14.4981 55.91 12.9113 58.2391 12.9264Z" fill="#2661AE"/>
<path d="M60.8319 38.1187C59.0723 38.0204 57.3126 38.028 55.553 38.1111C55.264 39.3428 55.5105 40.5895 55.4255 41.8212C55.3915 42.3426 55.587 42.471 56.1055 42.2217C57.4826 41.5718 58.8682 41.5189 60.2539 42.2065C60.3474 42.2519 60.4494 42.2821 60.5514 42.3123C60.7554 42.3652 60.9424 42.3501 60.9339 42.1083C60.8914 40.786 61.1039 39.4485 60.8319 38.1187Z" fill="white"/>
<path d="M27.6026 6.69241C26.4125 6.0728 25.1884 6.13325 24.0834 6.85109C23.0803 7.50092 22.5447 8.38499 22.7743 9.54109C22.9188 11.0674 24.2789 12.1329 26.064 12.1102C27.7302 12.0951 29.0818 10.9843 29.1838 9.54109C29.3793 8.27165 28.8097 7.31957 27.6026 6.69241Z" fill="#2661AE"/>
<path d="M27.1182 34.3254C27.1182 28.152 27.1097 21.971 27.1012 15.7977C27.1097 15.3972 27.1182 14.9967 27.1267 14.5962C27.1267 14.4073 27.1522 14.2562 26.8207 14.2184C24.9421 14.0144 24.806 14.1202 24.9421 15.8052C24.9336 19.5531 24.908 23.3009 24.9251 27.0488C24.9336 27.8422 24.653 28.3636 23.752 28.5449C23.752 29.2174 23.7605 29.8975 23.7605 30.57C24.653 30.774 24.9336 31.2803 24.9251 32.0812C24.8995 35.5495 24.9251 39.0178 24.9421 42.4785C24.9336 42.879 24.9165 43.2719 24.908 43.6724C24.8995 43.8462 24.9421 43.9671 25.1971 43.9973C27.1012 44.2315 27.2117 44.1484 27.1012 42.4785C27.1012 39.7658 27.1182 37.0456 27.1182 34.3254Z" fill="white"/>
<path d="M53.4704 30.6079C52.1613 29.2704 50.8692 27.9254 49.5686 26.5804C48.6165 25.5906 48.608 24.7216 49.5431 23.7318C49.8491 23.4069 50.1466 23.0744 50.4441 22.7495C50.7587 22.4397 51.0647 22.1223 51.3877 21.8276C51.5747 21.6538 51.6087 21.5178 51.4387 21.2911C50.8522 20.5053 50.8607 20.4902 50.1466 21.2307C49.9766 21.4045 49.8236 21.5858 49.6536 21.7672C48.8885 22.5455 48.0979 23.3162 47.3499 24.1171C46.6868 24.8274 46.7038 25.515 47.3839 26.2178C49.0585 27.9632 50.7502 29.6936 52.4248 31.4315C52.7648 31.7867 53.1389 32.104 53.6234 31.7564C54.1844 31.356 53.8274 30.9706 53.4704 30.6079Z" fill="white"/>
<path d="M69.0265 24.1097C68.287 23.3087 67.4964 22.5455 66.7313 21.7597C66.4338 21.4348 66.1363 21.1099 65.8303 20.7925C65.7368 20.6943 65.6773 20.5507 65.4647 20.6716C64.9207 20.9814 64.8017 21.6161 65.2182 22.0393C65.3712 22.198 65.5412 22.3491 65.7028 22.5002C66.0513 22.8856 66.3998 23.2709 66.7568 23.6487C67.8024 24.7444 67.7939 25.5756 66.7483 26.6561C65.4477 27.9935 64.1556 29.3461 62.8465 30.6835C62.532 31.0085 62.2515 31.356 62.7105 31.7187C63.1866 32.1041 63.5691 31.8321 63.9091 31.4769C65.6008 29.7164 67.3094 27.9709 69.001 26.2103C69.6726 25.5 69.6896 24.8275 69.0265 24.1097Z" fill="white"/>
<path d="M64.0282 18.216C64.0112 18.1026 64.0367 17.9968 64.1557 17.9288C64.1812 18.0422 64.1557 18.1404 64.0282 18.216Z" fill="white"/>
<path d="M72.2228 57.5382C69.1116 57.5231 66.0003 57.5382 62.8891 57.5306C61.8605 57.5306 61.512 57.2662 61.2909 56.3896C60.5089 56.3896 59.7268 56.3896 58.9362 56.3896C58.7322 57.3115 58.3752 57.5306 57.1086 57.5306C44.145 57.5306 31.1815 57.5306 18.2094 57.5306C17.5464 57.5306 16.8833 57.5609 16.2287 57.6893C12.5905 58.4223 10.2613 62.2155 11.6214 65.2153C11.9954 65.3286 12.2844 65.5477 12.5479 65.782C12.2759 65.5477 11.9954 65.3286 11.6214 65.2153C11.6384 65.3059 11.6469 65.4042 11.6809 65.4873C12.6245 67.8221 15.1747 69.3107 18.2434 69.3107C32.5416 69.3107 46.8483 69.3107 61.1464 69.3107C64.7677 69.3107 68.389 69.3258 72.0103 69.3031C75.0451 69.288 77.6633 67.5879 78.3858 65.2077C78.4283 65.1246 78.4963 65.0415 78.5219 64.9508C79.6864 61.2332 76.5752 57.5609 72.2228 57.5382ZM17.8524 67.6257C17.8014 67.6937 17.7334 67.7315 17.6654 67.7541C17.7334 67.7315 17.8014 67.6937 17.8524 67.6257C16.8238 67.2101 15.8887 66.6963 15.2512 65.8273C14.1546 64.3312 14.1886 62.1928 15.3617 60.8251C16.7218 59.2459 18.8385 58.6338 20.8871 59.2308C22.9358 59.8277 24.2619 61.4296 24.2704 63.3489C24.2789 65.4797 22.9953 66.8172 20.8786 67.6257C19.867 67.8297 18.864 67.8297 17.8524 67.6257ZM31.445 67.5955C31.326 67.7541 31.173 67.7768 31.0115 67.7768C31.173 67.7768 31.326 67.7466 31.445 67.5955C29.3708 67.1421 27.9257 66.0993 27.3732 64.2027C26.6931 61.8754 28.4187 59.4877 31.1985 58.9134C33.7317 58.392 36.4944 59.9713 37.0045 62.2381C37.574 64.7543 35.9249 66.9607 33.0686 67.5123C32.9921 67.5275 32.9241 67.5728 32.8561 67.603C32.3886 67.603 31.9125 67.603 31.445 67.5955ZM44.23 67.5879C44.1195 67.7466 43.9665 67.7768 43.805 67.7768C43.9665 67.7768 44.1195 67.7466 44.23 67.5879C41.5608 66.8927 40.0817 65.3588 40.0647 63.2658C40.0477 61.0367 42.0029 59.0645 44.4511 58.8378C47.1288 58.596 49.441 60.198 49.917 62.631C50.325 64.7014 48.6419 66.9154 46.2447 67.4746C46.0917 67.5123 45.9387 67.5501 45.7942 67.5879C45.2756 67.5879 44.7486 67.5879 44.23 67.5879ZM57.1681 67.6106C57.0491 67.7617 56.8876 67.7844 56.7261 67.7844C56.8876 67.7844 57.0406 67.7541 57.1681 67.6106C55.2809 67.2328 53.8613 66.3411 53.1898 64.6788C52.2377 62.3137 53.6828 59.7748 56.386 59.0116C59.0043 58.2711 61.8265 59.6388 62.6 62.0266C63.3566 64.3841 61.7415 66.8549 59.0383 67.4746C58.8852 67.5123 58.7407 67.5501 58.5877 67.5879C58.1117 67.5955 57.6356 67.603 57.1681 67.6106ZM69.0436 67.7088C69.0776 67.6861 69.1116 67.6635 69.1371 67.6332C69.1116 67.6635 69.0776 67.6861 69.0436 67.7088ZM69.1456 67.6257C68.151 67.2176 67.2329 66.734 66.5954 65.8953C65.4988 64.4521 65.4138 62.4346 66.5104 61.0291C67.641 59.5859 69.2136 58.8076 71.2113 59.057C73.4639 59.3366 75.0366 60.6589 75.4871 62.4573C76.0311 64.641 74.7305 66.6585 72.1633 67.603C71.1603 67.8675 70.1487 67.8146 69.1456 67.6257Z" fill="white"/>
<path d="M58.1543 15.0722C59.1318 15.0571 59.8799 15.7145 59.8799 16.5759C59.8799 17.4146 59.1743 18.0569 58.2308 18.072C57.2447 18.0871 56.5051 17.4449 56.5051 16.5683C56.5051 15.7296 57.2192 15.0873 58.1543 15.0722Z" fill="white"/>
<path d="M32.2611 60.9685C30.9435 60.9232 29.8639 61.8148 29.7024 63.0842C29.4983 64.1497 30.5949 65.4644 32.2356 65.4569C33.6637 65.4493 34.7008 64.3915 34.6413 63.0767C34.5648 61.8979 33.5617 61.0063 32.2611 60.9685Z" fill="white"/>
<path d="M57.7632 60.9685C56.4626 61.0139 55.4595 61.9055 55.383 63.0767C55.3235 64.3915 56.3691 65.4267 57.7972 65.4644C59.2338 65.5022 60.3644 64.4368 60.3304 63.0843C60.1519 61.8073 59.0808 60.9232 57.7632 60.9685Z" fill="white"/>
<path d="M19.4421 61.1726C18.0905 61.1348 17.0109 62.0114 16.9089 63.2279C16.8324 64.5729 17.895 65.6232 19.3316 65.6459C20.7427 65.661 21.8563 64.6485 21.8308 63.3639C21.8138 62.1398 20.8022 61.2104 19.4421 61.1726Z" fill="white"/>
<path d="M73.1154 63.2279C73.0134 62.0038 71.9338 61.1349 70.5822 61.1726C69.2136 61.2104 68.2105 62.1398 68.1935 63.3564C68.168 64.6409 69.2816 65.6534 70.6927 65.6383C72.1294 65.6232 73.1919 64.5729 73.1154 63.2279Z" fill="white"/>
<path d="M47.4263 62.7821C47.1883 61.7016 46.1682 60.946 44.9696 60.9686C43.788 60.9913 42.8274 61.7243 42.5979 62.7821C42.3514 63.6662 42.7254 64.52 43.5925 65.049C44.4936 65.593 45.5477 65.593 46.4317 65.0565C47.2818 64.5352 47.6728 63.6511 47.4263 62.7821Z" fill="white"/>
<path d="M64.0282 18.2158L64.0367 18.2082V18.2007L64.0282 18.2158Z" fill="#012D3A"/>
<path d="M85.7729 61.6713C85.0334 56.6011 80.1285 52.1505 73.9315 51.7047C73.3364 51.6594 73.1494 51.4932 73.1494 50.9416C73.1749 46.4456 73.1664 41.9497 73.1664 37.4538C73.1664 36.1692 72.8179 35.8594 71.3898 35.8594C62.6 35.8594 53.8103 35.8594 45.0291 35.8594C43.55 35.8594 43.2184 36.1692 43.2184 37.4991C43.2184 41.995 43.2099 46.491 43.2269 50.9869C43.2269 51.4781 43.0909 51.6292 42.5214 51.6216C40.4727 51.5914 38.4241 51.6065 36.3669 51.6141C35.9674 51.6141 35.7973 51.5536 35.7038 51.138C35.0493 48.2138 33.2046 46.0678 30.1784 44.7833C29.6513 44.5566 29.5068 44.3224 29.5153 43.8388C29.5323 33.8268 29.5238 23.8149 29.5238 13.803C29.5238 12.9416 30.1699 12.3673 31.1305 12.3673C37.523 12.3673 43.9155 12.3673 50.308 12.3673C50.5035 12.3673 50.7161 12.2993 50.9201 12.458C49.7725 14.075 49.3645 15.8356 49.679 17.6868C49.764 18.1855 49.611 18.4727 49.2794 18.8052C48.0128 20.0821 46.7632 21.3743 45.5221 22.6739C44.1535 24.1096 44.0175 25.9533 45.3096 27.3512C47.1288 29.3233 49.0329 31.2502 50.9201 33.1694C51.5916 33.8495 52.5012 34.1366 53.5043 34.0384C54.7029 33.9251 55.587 33.3735 56.063 32.3685C56.5645 31.3031 56.3605 30.3283 55.536 29.4594C54.3374 28.1899 53.1303 26.928 51.8892 25.6964C51.4811 25.2959 51.3536 25.0314 51.8552 24.6234C52.2887 24.2758 52.6542 23.8602 53.0027 23.4446C53.3088 23.0744 53.5383 23.0291 54.0228 23.2709C56.2245 24.3665 58.5452 24.495 60.9594 23.8527C61.682 23.6638 62.362 22.9233 62.9996 23.1726C63.6541 23.4295 64.0452 24.2078 64.5977 24.7216C64.9462 25.039 64.9377 25.2506 64.6062 25.5755C63.3311 26.8525 62.0815 28.137 60.8489 29.4442C59.6673 30.6986 59.7863 32.3685 61.0954 33.3886C62.4215 34.4162 64.3682 34.2802 65.5838 33.0485C67.3349 31.2653 69.0776 29.4745 70.7862 27.6685C72.3503 26.0137 72.2993 24.1927 70.7012 22.5455C69.4346 21.2382 68.168 19.9235 66.8929 18.6238C66.6634 18.3896 66.6124 18.2007 66.6634 17.8757C67.0714 15.3142 66.3233 13.0473 64.2492 11.1961C63.8751 10.8561 63.7306 10.5387 63.7391 10.0778C63.7561 9.05769 63.7731 8.0376 63.6966 7.02508C63.5266 4.72044 61.5714 2.85407 59.0127 2.48382C56.539 2.12868 53.9633 3.39056 53.0282 5.49873C52.7987 6.02011 52.5182 6.12589 51.9487 6.12589C45.0291 6.11078 38.101 6.11078 31.1815 6.12589C30.6884 6.12589 30.3569 5.99744 30.0084 5.68763C27.7557 3.65502 24.1854 3.64747 21.9242 5.63474C19.6545 7.64468 19.663 10.8787 21.9922 12.866C22.3577 13.1834 22.4767 13.478 22.4767 13.9088C22.4597 18.314 22.4767 22.7117 22.4597 27.1169L22.4682 32.0965C22.4682 36.0483 22.4597 39.9927 22.4767 43.9445C22.4767 44.3828 22.3322 44.5944 21.8817 44.7833C19.102 45.9469 17.2403 47.8435 16.5093 50.4957C16.2627 51.3949 15.8802 51.7274 14.8601 51.8936C9.02865 52.8079 4.50628 57.2736 4.12375 62.3816C3.69871 68.0034 7.42202 72.93 13.3555 74.6302C14.0526 74.8266 14.8006 74.8342 15.4467 75.1515C20.1306 75.1515 24.8229 75.1515 29.5068 75.1515H33.3406C46.9758 75.1515 60.6109 75.1515 74.246 75.1515C74.79 74.8946 75.4106 74.9626 75.9801 74.804C81.3186 73.3834 84.5743 70.2551 85.7389 65.4192C85.7729 65.2907 85.7049 65.1245 85.9089 65.064C85.9089 63.976 85.9089 62.8879 85.9089 61.7998C85.8664 61.762 85.7814 61.7167 85.7729 61.6713ZM65.4648 20.6715C65.6773 20.5506 65.7368 20.6942 65.8303 20.7924C66.1363 21.1098 66.4338 21.4347 66.7314 21.7596C67.4964 22.5379 68.287 23.3086 69.0266 24.1096C69.6981 24.8274 69.6811 25.4999 69.0011 26.2102C67.3094 27.9708 65.6008 29.7163 63.9091 31.4769C63.5691 31.832 63.1866 32.104 62.7105 31.7187C62.2515 31.356 62.532 31.0084 62.8466 30.6835C64.1472 29.346 65.4478 28.001 66.7484 26.656C67.8025 25.5755 67.8025 24.7443 66.7569 23.6487C66.3998 23.2709 66.0513 22.8855 65.7028 22.5001C65.5413 22.349 65.3798 22.1979 65.2183 22.0392C64.7932 21.616 64.9207 20.9813 65.4648 20.6715ZM51.3876 21.8276C51.0646 22.1299 50.7586 22.4472 50.444 22.7495C50.1465 23.0744 49.849 23.4069 49.543 23.7318C48.6164 24.7216 48.6164 25.5906 49.5685 26.5805C50.8691 27.9255 52.1612 29.2705 53.4703 30.6079C53.8273 30.9706 54.1758 31.356 53.6318 31.7489C53.1473 32.0965 52.7647 31.7715 52.4332 31.424C50.7586 29.6785 49.0669 27.9481 47.3923 26.2102C46.7207 25.5075 46.6952 24.8199 47.3583 24.1096C48.1063 23.3086 48.8884 22.5455 49.662 21.7596C49.8235 21.5783 49.985 21.3969 50.155 21.2231C50.8691 20.4902 50.8521 20.4977 51.4471 21.2836C51.6086 21.5178 51.5831 21.6463 51.3876 21.8276ZM55.0854 7.00997C55.1959 5.67252 56.6495 4.56932 58.2052 4.57688C59.7948 4.58443 61.2229 5.74053 61.3079 7.1082C61.3504 7.83359 61.3164 8.56654 61.3164 9.35993C58.5622 8.78567 58.5197 8.78567 55.0769 9.34482C55.0769 8.55898 55.0259 7.78069 55.0854 7.00997ZM56.403 11.3019C59.7183 10.4027 63.3566 12.2162 64.1727 15.1933C64.4192 16.1 64.4702 17.0143 64.1557 17.9211C64.1812 18.042 64.1472 18.1402 64.0282 18.2082C63.3396 20.2862 61.7245 21.4725 59.4123 21.9561C56.403 22.5908 53.0538 20.8 52.3312 18.2007C51.2176 15.3898 53.0963 12.2011 56.403 11.3019ZM32.4481 8.23407C38.8746 8.26429 45.3011 8.24918 51.7276 8.24918C51.9912 8.24918 52.2547 8.27185 52.5182 8.28696C52.8327 8.81589 52.5777 9.3826 52.6372 9.92665C52.6627 10.1382 52.4672 10.1987 52.2632 10.1987C52.0507 10.1987 51.8382 10.1987 51.6256 10.1987C45.4031 10.1987 39.1721 10.1987 32.9496 10.1987C31.649 10.1987 31.649 10.1987 31.666 9.11058C31.4195 8.46075 31.615 8.23407 32.4481 8.23407ZM55.553 38.1112C57.3126 38.0281 59.0722 38.0129 60.8319 38.1187C61.1039 39.4486 60.8914 40.7861 60.9339 42.1159C60.9424 42.3577 60.7554 42.3729 60.5514 42.32C60.4494 42.2897 60.3473 42.2595 60.2538 42.2142C58.8682 41.5266 57.4826 41.5795 56.1055 42.2293C55.587 42.4711 55.3914 42.3502 55.4254 41.8288C55.5105 40.5896 55.2639 39.3428 55.553 38.1112ZM46.1172 38.0583C48.2424 38.0734 50.376 38.081 52.5012 38.0583C53.0453 38.0507 53.0112 38.3152 53.0112 38.6401C53.0027 40.2949 53.0027 41.9497 53.0112 43.6045C53.0112 44.8664 53.7933 45.4104 55.0684 44.8437C57.1936 43.9068 59.1828 43.8614 61.3164 44.8437C62.5745 45.4256 63.3651 44.8664 63.3736 43.6045C63.3821 41.9724 63.3906 40.3402 63.3651 38.7081C63.3566 38.2396 63.4501 38.0432 64.0452 38.0507C66.0683 38.081 68.0915 38.0658 70.1146 38.0583C70.4887 38.0583 70.7607 38.0432 70.7607 38.5192C70.7352 42.3955 70.7267 46.2794 70.7182 50.1557C70.8117 51.6141 70.8117 51.6141 69.2391 51.6141C61.7755 51.6141 54.3119 51.6216 46.8397 51.6065C45.4711 51.6065 45.6751 51.8332 45.6496 50.5109C45.6496 50.39 45.6666 50.2766 45.6751 50.1557C45.6666 46.2794 45.6581 42.3955 45.6411 38.5192C45.6411 38.2019 45.7177 38.0507 46.1172 38.0583ZM24.0834 6.85129C25.1885 6.13345 26.4126 6.073 27.6027 6.69261C28.8098 7.31977 29.3878 8.27185 29.1838 9.54128C29.0733 10.977 27.7217 12.0953 26.064 12.1104C24.2874 12.1331 22.9188 11.0601 22.7743 9.54128C22.5448 8.38519 23.0718 7.50112 24.0834 6.85129ZM24.9249 27.0489C24.9079 23.3011 24.9335 19.5532 24.942 15.7978C24.8059 14.1128 24.942 14.007 26.8206 14.211C27.1521 14.2488 27.1266 14.3999 27.1266 14.5888C27.1181 14.9893 27.1096 15.3898 27.1011 15.7902C27.1096 21.9636 27.1181 28.1446 27.1181 34.318C27.1181 37.0382 27.1011 39.7584 27.1011 42.4786C27.2116 44.1486 27.1011 44.2317 25.197 43.9974C24.9334 43.9672 24.8994 43.8463 24.9079 43.6725C24.9164 43.272 24.9335 42.8791 24.942 42.4786C24.9335 39.0104 24.8994 35.5421 24.9249 32.0813V27.0489ZM18.9575 50.7073C19.034 50.5109 19.136 50.322 19.2295 50.133C20.1901 47.7982 22.9868 46.1358 26.0045 46.1056C28.8778 46.0754 31.7255 47.7151 32.7286 49.9819C33.6637 51.6216 33.6637 51.6216 31.683 51.6216C27.6707 51.6216 23.6668 51.6216 19.6545 51.6216C18.6344 51.6141 18.6259 51.6141 18.9575 50.7073ZM82.7042 66.9153C81.1826 70.2778 78.3518 72.2122 74.382 72.8847C73.5659 73.0207 72.7414 73.0207 71.9168 73.0207C59.3783 73.0207 46.8397 73.0283 34.3012 73.0056H28.5632C24.8144 73.0358 21.0571 73.0283 17.3083 73.0131C12.9815 73.0056 9.02865 70.6556 7.36251 67.1193C7.33701 67.0589 7.33701 66.9833 7.32851 66.9153C5.73038 63.9155 6.53794 59.7067 9.20716 57.0621C11.4513 54.8405 14.2651 53.7751 17.6144 53.7751C35.8823 53.7751 54.1503 53.76 72.4268 53.7827C77.9268 53.7902 82.1091 56.7749 83.2907 61.4371C83.7498 63.311 83.5883 65.1472 82.7042 66.9153Z" fill="#012D3A"/>
<path d="M72.5713 55.4073C69.2731 55.309 65.9748 55.377 62.668 55.3619H57.1766C44.485 55.3619 31.7935 55.3619 19.102 55.3619C18.5154 55.3619 17.9289 55.3695 17.3508 55.3922C11.0178 55.6717 6.97997 61.6562 9.66619 66.7642C10.8223 68.9706 12.7859 70.3458 15.3022 71.1543C17.1043 71.5473 18.9404 71.4566 20.7766 71.4566C37.1234 71.4566 53.4703 71.4566 69.8256 71.4566C71.4152 71.4566 73.0134 71.4944 74.586 71.1845C74.7815 71.1165 74.977 71.0485 75.1811 70.9805C79.2869 69.6582 81.7436 66.0086 81.1145 62.1776C80.4855 58.4373 76.9067 55.5282 72.5713 55.4073ZM78.5303 64.9583C78.5048 65.0489 78.4368 65.1321 78.3943 65.2152C77.6718 67.6029 75.0535 69.2955 72.0188 69.3106C68.3975 69.3257 64.7762 69.3182 61.1549 69.3182C46.8567 69.3182 32.5501 69.3182 18.2519 69.3182C15.1831 69.3182 12.6414 67.8296 11.6894 65.4948C11.6554 65.4116 11.6469 65.3134 11.6299 65.2227C10.2697 62.2229 12.5904 58.4297 16.2372 57.6968C16.8918 57.5683 17.5463 57.5381 18.2179 57.5381C31.1815 57.5381 44.145 57.5381 57.1171 57.5381H62.889C66.0003 57.5457 69.1116 57.5305 72.2228 57.5457C76.5752 57.5608 79.6864 61.2331 78.5303 64.9583Z" fill="#012D3A"/>
<path d="M58.2222 20.2259C60.5088 20.2108 62.294 18.6164 62.3025 16.5838C62.311 14.5436 60.5343 12.9417 58.2477 12.9266C55.91 12.9115 54.0993 14.4983 54.0908 16.5611C54.0738 18.624 55.893 20.241 58.2222 20.2259ZM58.1541 15.0726C59.1317 15.0575 59.8798 15.7148 59.8798 16.5763C59.8798 17.415 59.1742 18.0573 58.2307 18.0724C57.2446 18.0875 56.505 17.4452 56.505 16.5687C56.505 15.73 57.2191 15.0877 58.1541 15.0726Z" fill="#012D3A"/>
<path d="M31.207 58.9132C28.4272 59.4875 26.7016 61.8677 27.3816 64.2025C27.9342 66.0916 29.3793 67.1419 31.4535 67.5953C31.9295 67.6028 32.3971 67.6028 32.8731 67.6104C32.9411 67.5802 33.0091 67.5348 33.0856 67.5197C35.9418 66.9681 37.5995 64.7617 37.0214 62.2455C36.5029 59.9711 33.7402 58.3918 31.207 58.9132ZM32.2355 65.4569C30.5949 65.4644 29.4983 64.1496 29.7023 63.0842C29.8638 61.8148 30.9434 60.9307 32.261 60.9685C33.5616 61.0138 34.5647 61.9055 34.6412 63.0767C34.7007 64.3914 33.6552 65.4493 32.2355 65.4569Z" fill="#012D3A"/>
<path d="M56.3775 59.0114C53.6743 59.7746 52.2292 62.3059 53.1813 64.6785C53.8528 66.3409 55.281 67.2325 57.1596 67.6103C57.6356 67.6028 58.1032 67.6028 58.5792 67.5952C58.7322 67.5574 58.8767 67.5121 59.0298 67.4819C61.733 66.8623 63.3481 64.3914 62.5915 62.0339C61.818 59.6461 59.0043 58.2709 56.3775 59.0114ZM57.7887 65.4568C56.369 65.419 55.315 64.3838 55.3745 63.0691C55.451 61.8903 56.454 61.0062 57.7547 60.9609C59.0723 60.9156 60.1433 61.7996 60.3219 63.0766C60.3559 64.4292 59.2253 65.4946 57.7887 65.4568Z" fill="#012D3A"/>
<path d="M20.8872 59.2308C18.8385 58.6338 16.7218 59.2459 15.3617 60.8251C14.1886 62.1928 14.1461 64.3236 15.2512 65.8273C15.8888 66.6963 16.8153 67.2101 17.8524 67.6257C18.864 67.8297 19.8756 67.8297 20.8872 67.6257C23.0038 66.8172 24.2874 65.4797 24.2789 63.3489C24.2619 61.422 22.9443 59.8277 20.8872 59.2308ZM19.3315 65.6384C17.8949 65.6233 16.8323 64.5654 16.9088 63.2204C17.0108 62.0039 18.0904 61.1274 19.442 61.1651C20.8107 61.2029 21.8137 62.1323 21.8307 63.3489C21.8562 64.641 20.7427 65.6611 19.3315 65.6384Z" fill="#012D3A"/>
<path d="M71.2113 59.0493C69.2136 58.8 67.6325 59.5783 66.5104 61.0215C65.4138 62.427 65.4988 64.4445 66.5954 65.8877C67.233 66.7264 68.1426 67.2176 69.1456 67.618C70.1572 67.807 71.1603 67.8598 72.1634 67.5954C74.7306 66.6433 76.0312 64.6334 75.4872 62.4496C75.0451 60.6513 73.4725 59.3289 71.2113 59.0493ZM70.6928 65.6383C69.2816 65.6534 68.1681 64.6334 68.1936 63.3564C68.2021 62.1398 69.2136 61.2104 70.5823 61.1726C71.9339 61.1348 73.0135 62.0038 73.1155 63.2279C73.192 64.5729 72.1294 65.6232 70.6928 65.6383Z" fill="#012D3A"/>
<path d="M44.451 58.8378C42.0028 59.0569 40.0477 61.0366 40.0647 63.2657C40.0817 65.3588 41.5608 66.8927 44.23 67.5878C44.7486 67.5878 45.2671 67.5878 45.7942 67.5878C45.9472 67.5501 46.0917 67.5123 46.2447 67.4745C48.6504 66.9153 50.3335 64.6938 49.917 62.631C49.441 60.1979 47.1288 58.5884 44.451 58.8378ZM46.4317 65.049C45.5476 65.5855 44.4935 65.5854 43.5925 65.0414C42.7254 64.52 42.3514 63.6586 42.5979 62.7746C42.8274 61.7167 43.7965 60.9837 44.9696 60.9611C46.1682 60.9384 47.1798 61.694 47.4263 62.7746C47.6728 63.6511 47.2818 64.5351 46.4317 65.049Z" fill="#012D3A"/>
</svg>
